<svg width="63" height="35" viewBox="0 0 63 35" fill="none" xmlns="http://www.w3.org/2000/svg">
<path d="M2.61804 18.1724C2.83524 13.1734 4.9125 9.32575 9.2605 6.85593C13.1208 4.66341 17.1884 4.51998 21.2708 6.36732C28.0031 9.41563 30.7508 17.5671 27.3663 24.0691C24.1192 30.3082 16.4381 32.9205 10.0257 29.7728C5.10304 27.3565 2.81846 23.2803 2.61903 18.1714L2.61804 18.1724Z" fill="white"/>
<path d="M15.8556 34.1168C11.8847 34.0269 8.17152 32.693 5.06749 29.9019C1.98123 27.1271 0.429216 23.6275 0.00961883 19.6134C-0.0308599 19.2281 0.0421993 18.8972 0.505237 18.8169C0.883367 18.7509 1.12525 18.9976 1.17857 19.5168C1.40268 21.7007 2.00887 23.7709 3.12846 25.6871C5.06058 28.9945 7.94641 31.1813 11.6724 32.2771C16.2061 33.61 20.5225 33.02 24.3383 30.294C27.9548 27.7104 30.0468 24.1428 30.5938 19.7912C30.8337 17.8789 30.8791 15.9378 31.2059 14.0417C31.9987 9.44344 34.4639 5.81472 38.5227 3.33725C43.3416 0.396037 48.4814 0.166553 53.6844 2.28545C59.4255 4.62332 63.1298 10.326 62.9965 16.3633C62.9965 16.3949 62.9965 16.4274 62.9945 16.459C62.9718 16.9198 62.7418 17.1952 62.3785 17.1646C61.9431 17.1283 61.8325 16.8386 61.8078 16.4618C61.7506 15.5726 61.7348 14.6757 61.5926 13.7979C60.6448 7.93745 55.6995 3.18522 49.7817 2.33422C47.1259 1.9527 44.5037 1.99764 42.0038 2.95383C36.2411 5.15878 32.9958 9.31244 32.211 15.2532C31.9602 17.1484 31.8871 19.0674 31.5919 20.954C31.121 23.9621 29.6795 26.5553 27.6655 28.8635C24.6414 32.3297 20.7179 33.9332 15.8546 34.1158L15.8556 34.1168Z" fill="white"/>
<path d="M47.1763 3.93677C54.0399 3.93294 59.7198 9.24837 60.1482 16.0774C60.5441 22.3701 56.3067 28.1005 50.0197 29.4181C44.6488 30.5435 40.1626 28.8683 36.8049 24.6477C32.5447 19.2912 33.4757 11.3233 38.8002 6.95161C41.2131 4.9704 44.0071 3.96067 47.1763 3.93677ZM46.8317 5.16833C42.9556 5.29551 39.6157 7.00994 37.3261 10.4445C34.2458 15.0648 34.8599 20.9874 38.7399 24.9986C41.9466 28.3137 47.0203 29.4554 51.3338 27.7467C55.6176 26.0495 58.1144 22.9055 58.7917 18.4975C59.8402 11.6761 54.5938 5.24292 46.8317 5.16929V5.16833Z" fill="white"/>
</svg>
