<svg width="70" height="428" viewBox="0 0 70 428" fill="none" xmlns="http://www.w3.org/2000/svg">
<path d="M64.2212 426.42C55.1998 401.973 57.1124 374.744 56.9718 349.145C56.8171 321.018 56.6624 292.898 56.5077 264.771C56.1983 208.368 55.8889 151.966 55.5795 95.5643C55.4952 79.938 55.4108 64.3117 55.3194 48.6925C55.2772 40.8829 55.235 33.0662 55.1928 25.2566C55.1506 17.5523 55.1647 9.80588 53.3014 2.2842C52.7177 -0.0825698 58.2515 0.640804 58.7859 2.81092C60.4242 9.43366 60.614 16.239 60.6633 23.0232C60.7125 29.8777 60.7406 36.7393 60.7758 43.5937C60.8531 57.6539 60.9305 71.721 61.0078 85.7812C61.1625 113.901 61.3172 142.029 61.4719 170.149C61.7813 226.081 62.0836 282.019 62.393 337.951C62.4774 353.148 62.3157 368.367 62.7516 383.558C63.1594 397.85 64.3829 412.493 69.3682 426.006C70.3877 428.766 64.9595 428.421 64.2212 426.413V426.42Z" fill="#EDE6D6"/>
<path d="M42.7472 361.358C36.4962 344.419 37.8181 325.541 37.7197 307.8C37.6142 288.305 37.5088 268.816 37.3963 249.32C37.1783 210.222 36.9673 171.132 36.7494 132.035C36.6931 121.205 36.6298 110.376 36.5736 99.5461C36.5455 94.1314 36.5173 88.7166 36.4822 83.3018C36.4541 77.9643 36.4611 72.5917 35.1743 67.3806C34.7665 65.7372 38.6057 66.2429 38.9783 67.7458C40.1104 72.3389 40.244 77.0513 40.2792 81.7568C40.3143 86.4622 40.3284 91.2589 40.3565 96.0135C40.4128 105.762 40.462 115.51 40.5182 125.257C40.6237 144.753 40.7292 164.242 40.8417 183.738C41.0526 222.506 41.2706 261.28 41.4815 300.047C41.5378 310.582 41.4253 321.13 41.7276 331.658C42.0089 341.56 42.8597 351.709 46.3192 361.077C47.0293 362.995 43.2605 362.756 42.7472 361.358Z" fill="#EDE6D6"/>
<path d="M15.0473 198.773L10.7018 194.433C9.70502 193.437 8.08892 193.437 7.09214 194.433L2.74664 198.773C1.74986 199.769 1.74986 201.383 2.74664 202.379L7.09214 206.719C8.08892 207.715 9.70502 207.715 10.7018 206.719L15.0473 202.379C16.0441 201.383 16.0441 199.769 15.0473 198.773Z" fill="#A02D0A"/>
</svg>
