<svg width="69" height="428" viewBox="0 0 69 428" fill="none" xmlns="http://www.w3.org/2000/svg">
<path d="M26.731 360.549C32.982 343.61 31.6601 324.732 31.7585 306.991C31.864 287.495 31.9695 268.007 32.082 248.511C32.3 209.413 32.5109 170.323 32.7289 131.226C32.7851 120.396 32.8484 109.567 32.9046 98.737C32.9328 93.3223 32.9609 87.9075 32.9961 82.4927C33.0242 77.1552 33.0171 71.7826 34.3039 66.5715C34.7117 64.9281 30.8726 65.4338 30.4999 66.9367C29.3678 71.5298 29.2342 76.2422 29.1991 80.9477C29.1639 85.6531 29.1499 90.4499 29.1217 95.2045C29.0655 104.952 29.0163 114.7 28.96 124.448C28.8545 143.944 28.7491 163.433 28.6366 182.929C28.4256 221.697 28.2077 260.471 27.9967 299.238C27.9405 309.773 28.0529 320.321 27.7506 330.849C27.4693 340.751 26.6185 350.899 23.1591 360.268C22.4489 362.186 26.2177 361.947 26.731 360.549Z" fill="#EDE6D6"/>
<path d="M5.6718 425.61C14.6931 401.163 12.7806 373.935 12.9212 348.336C13.0759 320.208 13.2306 292.088 13.3853 263.961C13.6946 207.559 14.004 151.157 14.3134 94.7547C14.3978 79.1284 14.4822 63.5022 14.5736 47.8829C14.6158 40.0733 14.658 32.2566 14.7001 24.447C14.7423 16.7427 14.7283 8.99631 16.5916 1.47463C17.1752 -0.89214 11.6415 -0.168767 11.1071 2.00135C9.46876 8.62409 9.27892 15.4294 9.2297 22.2137C9.18048 29.0682 9.15233 35.9297 9.11718 42.7842C9.03983 56.8443 8.96247 70.9115 8.88513 84.9716C8.73043 113.092 8.57576 141.219 8.42107 169.339C8.11169 225.271 7.80934 281.21 7.49995 337.141C7.41558 352.339 7.57729 367.558 7.14134 382.749C6.73352 397.041 5.51007 411.684 0.524778 425.196C-0.494781 427.956 4.9335 427.612 5.6718 425.603V425.61Z" fill="#EDE6D6"/>
<path d="M66.2512 200.773L61.9057 196.432C60.9089 195.437 59.2928 195.437 58.296 196.432L53.9505 200.773C52.9537 201.768 52.9537 203.382 53.9505 204.378L58.296 208.718C59.2928 209.714 60.9089 209.714 61.9057 208.718L66.2512 204.378C67.2479 203.382 67.2479 201.768 66.2512 200.773Z" fill="#A02D0A"/>
</svg>
