<svg width="66" height="24" viewBox="0 0 66 24" fill="none" xmlns="http://www.w3.org/2000/svg">
<path d="M9.01704 6.39531C8.7773 6.56361 8.56077 6.81606 8.37517 7.16031C8.18184 7.4969 8.08904 7.90235 8.08904 8.36135V10.2968C8.08904 10.3656 8.08131 10.4345 8.06584 10.5033C8.40611 10.4498 8.74637 10.4268 9.07117 10.4268C9.65117 10.4268 10.1925 10.4727 10.6952 10.5569C11.1901 10.641 11.685 10.7787 12.1645 10.9623V7.90235C12.1645 7.8029 12.1722 7.7111 12.1877 7.6193L9.92184 5.17132L10.177 4.55933H13.8349L15.5362 6.39531C15.281 6.56361 15.0568 6.81606 14.8789 7.16031C14.701 7.50455 14.6082 7.90235 14.6082 8.36135V15.6747C14.6082 16.2178 14.5154 16.6921 14.3221 17.1052C14.1288 17.5107 13.9432 17.8549 13.7576 18.138C13.572 18.421 13.4714 18.6582 13.4714 18.8647C13.4714 19.0483 13.5874 19.2625 13.8194 19.4997C14.0514 19.7368 14.3144 19.9663 14.616 20.1882C14.9176 20.41 15.1728 20.5859 15.3738 20.7236L14.964 21.2821C14.7552 21.1597 14.4381 20.9608 14.0128 20.6701C13.5797 20.3794 13.1389 20.0581 12.6826 19.6909C12.2264 19.3237 11.8397 18.9642 11.5072 18.6046C11.1824 18.2451 11.02 17.9544 11.02 17.7096C11.02 17.4571 11.1128 17.1817 11.3061 16.8834C11.4917 16.585 11.685 16.2408 11.8706 15.8353C12.0562 15.4375 12.1568 14.9632 12.1568 14.4201V12.3776C11.7778 12.324 11.3912 12.3011 10.9968 12.3011C10.4786 12.3011 9.92184 12.3546 9.3109 12.4541C8.69997 12.5535 8.02717 12.7754 7.28477 13.1196C7.90344 13.6475 8.43704 14.2518 8.88557 14.9326C9.3341 15.6135 9.55837 16.2714 9.55837 16.9216C9.55837 17.5183 9.41144 18.0691 9.11757 18.5893C8.8237 19.1095 8.40611 19.5226 7.85704 19.8363C7.30797 20.1499 6.64291 20.3106 5.86958 20.3106C5.09624 20.3106 4.35384 20.1117 3.58824 19.7139C2.82265 19.3161 2.12665 18.7806 1.50025 18.1227C0.873848 17.4571 0.371181 16.7227 -0.00775146 15.9042L0.688248 15.4987C1.29145 16.432 1.86371 17.1205 2.41278 17.5642C2.96184 18.0079 3.55731 18.2298 4.19144 18.2298C4.79464 18.2298 5.31278 18.0691 5.75358 17.7555C6.19437 17.4418 6.52691 17.044 6.77437 16.5544C7.01411 16.0725 7.13784 15.5676 7.13784 15.0397C7.13784 14.2059 6.85171 13.7928 6.28717 13.7928C5.82318 13.7928 5.37464 13.9305 4.94931 14.1982C4.52398 14.4736 4.17598 14.8026 3.92078 15.1927L1.39971 13.3797C1.60851 12.9054 1.97971 12.5076 2.52105 12.1787C3.06238 11.8574 3.64238 11.6967 4.26104 11.6967C4.34611 11.6967 4.43118 11.6967 4.50851 11.712C4.58584 11.7197 4.66318 11.735 4.75598 11.7503C5.15038 11.4443 5.39784 11.0465 5.50611 10.5645C5.60664 10.0826 5.66078 9.64654 5.66078 9.25639V8.1854C5.66078 7.4051 5.86958 6.80841 6.27944 6.40296H4.96478C4.60131 6.40296 4.25331 6.53301 3.90531 6.80076C3.56504 7.06086 3.29438 7.3439 3.10878 7.62695H2.54425L0.231982 5.17132L0.487181 4.55933H7.31571L9.01704 6.39531Z" fill="#B2462D"/>
<path d="M24.3445 8.17767C24.3445 7.39737 24.5533 6.80068 24.9632 6.39523H21.1275C20.7021 6.41053 20.2768 6.57883 19.8669 6.90778C19.4571 7.23672 19.14 7.55802 18.9157 7.90227H18.3512L15.7992 5.17889L16.0544 4.56689H26.0226L27.724 6.40288C27.4688 6.57118 27.2445 6.82363 27.0666 7.16787C26.8888 7.50447 26.796 7.90992 26.796 8.36891V15.6823C26.796 16.2254 26.7032 16.6997 26.5098 17.1128C26.3165 17.5259 26.1309 17.8625 25.9453 18.1455C25.752 18.4286 25.6592 18.6657 25.6592 18.8723C25.6592 19.0559 25.7752 19.2701 26.0072 19.5072C26.2392 19.7444 26.5021 19.9739 26.8037 20.1957C27.1053 20.4176 27.3605 20.5935 27.5616 20.7312L27.1517 21.2897C26.9429 21.152 26.6181 20.9301 26.1618 20.6241C25.7056 20.3181 25.2416 19.9739 24.7544 19.5914C24.2749 19.2089 23.8883 18.8493 23.5944 18.5051C23.3547 18.5892 23.1072 18.6657 22.8443 18.7193C22.5891 18.7805 22.3339 18.8111 22.0941 18.8111C21.8544 18.8111 21.5141 18.7422 21.0733 18.6045C20.6325 18.4668 20.1685 18.2679 19.6659 18.0078C19.1709 17.7477 18.6915 17.4264 18.2352 17.0516C17.7789 16.6767 17.4077 16.256 17.1293 15.7894C16.8432 15.3227 16.704 14.8178 16.704 14.2747C16.704 13.219 16.9051 12.3392 17.3072 11.6278C17.7093 10.9163 18.2429 10.3732 18.908 9.99835C19.5731 9.6235 20.2845 9.43991 21.0579 9.43991C21.7307 9.43991 22.3493 9.49346 22.9139 9.5929C23.4784 9.69235 23.9501 9.81475 24.329 9.95245V8.19297L24.3445 8.17767ZM20.0912 16.9215C20.5165 16.9215 21.0037 16.8221 21.5451 16.6155C22.0864 16.409 22.6123 16.126 23.1149 15.7588C23.6176 15.3916 24.0274 14.9785 24.3368 14.5195V11.4136C24.0816 11.383 23.8419 11.3524 23.6253 11.3371C23.4088 11.3218 23.2077 11.3141 23.0221 11.3141C22.3725 11.3141 21.7461 11.4901 21.1584 11.8496C20.5629 12.2092 20.0912 12.7217 19.7277 13.4026C19.3643 14.0834 19.1864 14.9173 19.1864 15.8965C19.1864 16.1719 19.256 16.409 19.4029 16.6079C19.5499 16.8068 19.7741 16.9139 20.0835 16.9139L20.0912 16.9215Z" fill="#B2462D"/>
<path d="M37.0426 6.39531C36.7874 6.56361 36.5632 6.81606 36.3853 7.16031C36.2074 7.4969 36.1146 7.90235 36.1146 8.36135V11.5437C36.1146 12.6836 35.9368 13.6016 35.5733 14.3054C35.2098 15.0091 34.7072 15.5599 34.0576 15.9501C33.6245 16.1872 33.2456 16.3249 32.913 16.3555C32.5805 16.3861 32.4104 16.455 32.4104 16.5621C32.4104 16.7304 32.5418 16.9828 32.8125 17.3118C33.0754 17.6407 33.4157 18.0156 33.8333 18.4363C34.2432 18.8494 34.6762 19.2625 35.1325 19.6756C35.5888 20.0811 36.0141 20.4482 36.4085 20.7695L35.8904 21.3815C35.4264 21.0449 34.8928 20.6165 34.2818 20.104C33.6709 19.5915 33.06 19.033 32.4413 18.421C31.8226 17.809 31.2504 17.1894 30.7168 16.5621C30.1832 15.9348 29.7578 15.3304 29.4253 14.749C29.0928 14.1677 28.9381 13.6628 28.9381 13.2191C28.9381 12.6453 29.0386 12.171 29.2474 11.8038C29.4562 11.4366 29.7037 11.1612 29.9976 10.9776C30.2914 10.794 30.5621 10.6946 30.825 10.6946C31.088 10.6946 31.3741 10.8017 31.6912 11.0235C32.0082 11.2454 32.3021 11.4672 32.565 11.6891C32.828 11.9109 33.0058 12.018 33.0909 12.018C33.2765 12.018 33.4234 11.8574 33.5317 11.5437C33.6322 11.2301 33.6864 10.8093 33.6864 10.2815V8.1701C33.6864 7.3898 33.8952 6.79311 34.305 6.38766H33.2765C32.8512 6.41826 32.4336 6.60186 32.0392 6.92316C31.6448 7.24446 31.3354 7.56575 31.1112 7.8947H30.5466L27.9946 5.17132L28.2498 4.55933H35.3568L37.0581 6.39531H37.0426Z" fill="#B2462D"/>
<path d="M41.497 15.667C41.497 16.2101 41.4042 16.6844 41.2109 17.0975C41.0175 17.5106 40.8319 17.8472 40.6463 18.1303C40.4607 18.4133 40.3602 18.6505 40.3602 18.857C40.3602 19.0406 40.4762 19.2548 40.7082 19.492C40.9402 19.7291 41.2031 19.9586 41.5047 20.1805C41.8063 20.4023 42.0615 20.5783 42.2626 20.716L41.8527 21.2744C41.6439 21.152 41.3269 20.9531 40.9015 20.6624C40.4762 20.3717 40.0277 20.0504 39.5791 19.6832C39.1229 19.316 38.7362 18.9565 38.4037 18.5969C38.0789 18.2374 37.9165 17.9467 37.9165 17.7019C37.9165 17.4494 38.0093 17.174 38.2026 16.8757C38.3882 16.5773 38.5815 16.2331 38.7671 15.8276C38.9527 15.4222 39.0533 14.9556 39.0533 14.4124V8.17005C39.0533 7.38976 39.2621 6.79307 39.6719 6.38762H34.5757L34.0111 4.55163H40.2674C39.7338 3.70249 39.2079 3.08284 38.6821 2.70035C38.1562 2.31785 37.5066 2.1266 36.741 2.1266C36.3157 2.1266 35.8285 2.1725 35.2871 2.25665C34.7458 2.3408 34.1503 2.47085 33.493 2.63915L32.2557 0.497165C33.4389 0.160568 34.4906 -0.0153809 35.3954 -0.0153809C36.1533 -0.0153809 36.8493 0.168218 37.4911 0.535415C38.133 0.902612 38.7362 1.39221 39.293 2.0042C39.8498 2.6162 40.3911 3.29704 40.9015 4.05439C41.4197 4.81173 41.9223 5.58438 42.425 6.38762C42.1698 6.55592 41.9455 6.80837 41.7677 7.15261C41.5898 7.49686 41.497 7.89466 41.497 8.35365V15.667Z" fill="#B2462D"/>
<path d="M43.0669 7.77223C43.0669 7.68808 43.1752 7.58864 43.3917 7.46624C43.6082 7.34384 43.8325 7.24439 44.0722 7.16024C44.196 6.58649 44.3584 6.05865 44.5749 5.5767C44.7914 5.10241 45.0234 4.71991 45.2864 4.42921C45.5416 4.13851 45.7658 3.99316 45.9592 3.99316C46.168 3.99316 46.4541 4.08496 46.8253 4.27621C47.1965 4.46746 47.5677 4.68931 47.9312 4.94941C48.3024 5.2095 48.6117 5.47725 48.8746 5.75265C49.1376 6.02805 49.2613 6.24225 49.2613 6.4182C49.2613 6.73949 49.0989 7.07609 48.7818 7.42799C48.4648 7.77988 48.0936 8.09353 47.676 8.38423C47.2584 8.67493 46.8794 8.91208 46.5546 9.09567C46.5237 9.31752 46.4928 9.53937 46.4773 9.76122C46.4618 9.98307 46.4541 10.2049 46.4541 10.4268C46.4541 10.7328 46.5546 11.0311 46.7634 11.3218C47.1733 11.1535 47.6296 10.9929 48.1322 10.8399C48.6272 10.6869 49.1608 10.5339 49.733 10.3809L51.2797 12.4463C49.648 12.9742 48.4106 13.502 47.56 14.0299C46.7093 14.5577 46.284 15.1009 46.284 15.6593C46.284 16.0342 46.4 16.3631 46.632 16.6538C46.864 16.9445 47.1501 17.0899 47.4981 17.0899C47.9776 17.0899 48.5266 16.9904 49.1376 16.7992C49.7485 16.6079 50.3517 16.3249 50.9394 15.9577C51.5349 15.5905 52.0453 15.1544 52.4706 14.6495V7.92523C52.4706 7.82578 52.4783 7.73398 52.4938 7.64218L50.228 5.1942L50.4832 4.58221H54.141L55.8423 6.4182C55.5871 6.58649 55.3629 6.83894 55.185 7.18319C55.0071 7.51979 54.9143 7.92523 54.9143 8.38423V15.6976C54.9143 16.2407 54.8215 16.715 54.6282 17.1281C54.4349 17.5412 54.2493 17.8778 54.0637 18.1609C53.8704 18.4439 53.7776 18.681 53.7776 18.8876C53.7776 19.0712 53.8935 19.2854 54.1255 19.5225C54.3575 19.7597 54.6205 19.9892 54.9221 20.211C55.2237 20.4329 55.4789 20.6088 55.6799 20.7465L55.2701 21.305C55.0613 21.1673 54.7365 20.9531 54.2879 20.6547C53.8394 20.3564 53.3831 20.0198 52.9114 19.6373C52.4397 19.2548 52.0608 18.8952 51.7669 18.551C51.0477 18.8417 50.3826 18.987 49.7872 18.987C49.5474 18.987 49.1917 18.8952 48.7277 18.7193C48.2637 18.5433 47.761 18.2909 47.212 17.9696C46.6629 17.6483 46.137 17.2658 45.6266 16.8221C45.1162 16.3784 44.7064 15.9041 44.3893 15.3839C44.0722 14.8637 43.9098 14.3282 43.9098 13.7621C43.9098 13.3873 44.0877 13.0277 44.4512 12.6758C44.8146 12.3239 45.3173 11.995 45.9746 11.6661C45.4952 11.2912 45.0698 10.8858 44.6986 10.4574C44.3274 10.029 44.1032 9.51642 44.0181 8.94267C43.7938 8.75908 43.585 8.54488 43.384 8.31538C43.1829 8.08588 43.0901 7.90993 43.0901 7.79518L43.0669 7.77223Z" fill="#B2462D"/>
<path d="M51.7205 6.39531L51.125 4.55933H58.7733L60.4746 6.36471L59.1599 7.7417H58.5954C58.2706 7.4051 57.8839 7.09146 57.4509 6.80841C57.0101 6.52536 56.5461 6.38766 56.0434 6.38766H51.7127L51.7205 6.39531ZM59.2218 18.9795C58.8815 18.8265 58.4871 18.6199 58.0463 18.3522C57.6055 18.0921 57.273 17.8702 57.0255 17.7019C57.0565 17.3424 57.0874 16.9675 57.1029 16.5774C57.1183 16.1872 57.1261 15.8047 57.1261 15.4299V14.9938C57.1261 14.8408 57.1183 14.6955 57.1029 14.5578L57.3349 14.4048C57.6751 14.5731 58.0541 14.7796 58.4717 15.0321C58.8815 15.2769 59.1986 15.4834 59.4229 15.6594C59.4538 15.8812 59.4847 16.1031 59.5002 16.3326C59.5157 16.5621 59.5234 16.7992 59.5234 17.0364C59.5234 17.3271 59.5157 17.6254 59.5002 17.9391C59.4847 18.2527 59.4693 18.5511 59.4461 18.8418L59.2141 18.9718L59.2218 18.9795ZM59.2682 13.3262C58.9279 13.1579 58.5335 12.9437 58.1005 12.6912C57.6597 12.4388 57.3194 12.2246 57.0797 12.0563C57.0951 11.8344 57.1106 11.6049 57.1183 11.3525C57.1261 11.1077 57.1338 10.8705 57.1338 10.6487C57.1338 10.4268 57.1338 10.182 57.1183 9.92193C57.1106 9.66184 57.0951 9.41704 57.0797 9.19519L57.3117 9.04219C57.6519 9.21049 58.0309 9.41704 58.4485 9.66949C58.8583 9.91428 59.1754 10.1208 59.3997 10.2968C59.4847 10.8399 59.5311 11.3984 59.5311 11.9798V12.5918C59.5311 12.8136 59.5234 13.0202 59.5079 13.2038L59.2759 13.3338L59.2682 13.3262Z" fill="#B2462D"/>
<path d="M62.1295 23.7989L61.4103 22.9039C61.8047 22.1236 62.0986 21.2592 62.2997 20.3029C62.5007 19.3543 62.5935 18.2451 62.5935 16.9905L62.9802 16.7839L65.2461 18.1074C65.2461 19.1478 65.0063 20.1423 64.5269 21.0985C64.0474 22.0547 63.3746 22.9574 62.5162 23.7836H62.1295V23.7989Z" fill="#B2462D"/>
</svg>
