<svg width="216" height="23" viewBox="0 0 216 23" fill="none" xmlns="http://www.w3.org/2000/svg">
<path d="M14.9982 19.1753C14.9982 19.3703 15.091 19.5731 15.2844 19.7838C15.4777 19.9944 15.7021 20.205 15.965 20.4079C16.228 20.6107 16.4678 20.7745 16.6767 20.9149L16.2667 21.4844C16.0579 21.3596 15.7562 21.1568 15.354 20.8603C14.9518 20.5639 14.5263 20.2362 14.0932 19.8696C13.6523 19.5029 13.2887 19.1441 12.9871 18.793C12.6854 18.4342 12.5384 18.1377 12.5384 17.8959C12.5384 17.7555 12.6158 17.5136 12.786 17.1704C12.9484 16.8271 13.1418 16.398 13.3661 15.8988C13.5904 15.3995 13.7838 14.8378 13.9462 14.2215C14.1086 13.6052 14.1937 12.9577 14.1937 12.2868C14.1937 12.0996 14.1319 11.9279 14.0158 11.7953C13.8998 11.6627 13.7374 11.5847 13.5517 11.5847C13.0335 11.5847 12.4688 11.8499 11.85 12.3804C11.2312 12.9109 10.6975 13.5272 10.2489 14.2371V15.9768C10.2489 16.5307 10.1793 17.0143 10.0323 17.4356C9.88533 17.8569 9.73837 18.2001 9.5914 18.4888C9.44444 18.7774 9.37482 19.0192 9.37482 19.2299C9.37482 19.4171 9.47538 19.6355 9.66875 19.8774C9.86213 20.1192 10.0942 20.3533 10.3649 20.5795C10.6279 20.8057 10.8522 20.9852 11.0224 21.1256L10.6124 21.6951C10.4036 21.5546 10.0942 21.3284 9.66875 21.0164C9.25106 20.7043 8.81017 20.3533 8.36927 19.9632C7.92064 19.5731 7.56483 19.2065 7.28637 18.8554C6.99244 18.9802 6.67531 19.0348 6.33497 19.0348C6.09518 19.0348 5.75484 18.9646 5.31395 18.8242C4.87305 18.6838 4.40895 18.4888 3.90618 18.2235C3.41114 17.9661 2.93157 17.654 2.4752 17.2874C2.01884 16.9207 1.64756 16.5073 1.3691 16.0392C1.09064 15.5711 0.943671 15.0718 0.943671 14.5336C0.943671 13.4804 1.12931 12.591 1.50833 11.8811C1.88734 11.1712 2.38238 10.6329 3.00118 10.2663C3.61998 9.89963 4.30066 9.7202 5.03549 9.7202C5.60014 9.7202 6.11839 9.77481 6.59796 9.87623C7.06979 9.97764 7.47201 10.1025 7.79688 10.2429V8.32379C7.79688 7.52806 8.00573 6.91957 8.41568 6.5061H5.35262C4.9272 6.52171 4.50177 6.69333 4.09182 7.02878C3.68186 7.36424 3.36473 7.69189 3.14041 8.04294H2.57576L0 5.27351L0.255255 4.64941H15.7175L17.4192 6.5217L15.9496 8.05074H15.3849C15.0214 7.66848 14.6501 7.31743 14.2633 6.99758C13.8766 6.67773 13.4512 6.5139 12.9871 6.5139H11.1539C10.8986 6.68553 10.6743 6.94297 10.4964 7.29403C10.3185 7.64508 10.2257 8.05074 10.2257 8.51882V10.2351C10.4809 10.0635 10.7517 9.92303 11.0224 9.82162C11.3008 9.7202 11.5561 9.66559 11.7959 9.66559C12.3141 9.66559 12.8478 9.80602 13.4048 10.0791C13.9617 10.3599 14.4799 10.711 14.9672 11.1322C15.4468 11.5535 15.8413 12.006 16.1507 12.4662C16.4601 12.9265 16.6148 13.3478 16.6148 13.7144C16.6148 14.3697 16.5297 15.0094 16.3673 15.6257C16.2048 16.242 16.0115 16.7959 15.8026 17.303C15.586 17.8023 15.4004 18.2235 15.238 18.5512C15.0755 18.8788 14.9904 19.0895 14.9904 19.1753H14.9982ZM4.04541 17.1236C4.42442 17.1236 4.84985 17.0221 5.33715 16.8115C5.81672 16.6009 6.28082 16.3122 6.71398 15.9378C7.14714 15.5633 7.51069 15.142 7.78141 14.674V11.7095C7.62671 11.6939 7.48748 11.6783 7.35599 11.6705C7.22449 11.6627 7.10073 11.6549 6.98471 11.6549C6.42005 11.6549 5.86313 11.8187 5.30621 12.1464C4.74929 12.474 4.30066 12.9733 3.94485 13.6442C3.58131 14.3151 3.4034 15.1654 3.4034 16.203C3.4034 16.4448 3.45755 16.6555 3.5581 16.8427C3.65866 17.0221 3.82109 17.1158 4.04541 17.1158V17.1236Z" fill="#EDE6D6"/>
<path d="M26.3532 6.5217C26.0979 6.69333 25.8736 6.95077 25.6957 7.30183C25.5178 7.64508 25.425 8.05854 25.425 8.52662V11.7719C25.425 12.9343 25.2471 13.8704 24.8835 14.5882C24.52 15.3059 24.0172 15.8676 23.3675 16.2654C22.9343 16.5073 22.5553 16.6477 22.2227 16.6789C21.8901 16.7101 21.7199 16.7803 21.7199 16.8895C21.7199 17.0611 21.8514 17.3186 22.1221 17.654C22.3851 17.9895 22.7255 18.3717 23.1432 18.8008C23.5531 19.2221 23.9863 19.6433 24.4426 20.0646C24.899 20.4781 25.3244 20.8525 25.7189 21.1802L25.2007 21.8043C24.7366 21.461 24.2028 21.0242 23.5918 20.5015C22.9807 19.9788 22.3697 19.4093 21.7509 18.7852C21.132 18.1611 20.5597 17.5292 20.0259 16.8895C19.4922 16.2498 19.0668 15.6335 18.7342 15.0406C18.4016 14.4477 18.2469 13.9329 18.2469 13.4804C18.2469 12.8953 18.3474 12.4116 18.5563 12.0372C18.7651 11.6627 19.0127 11.3819 19.3066 11.1946C19.6005 11.0074 19.8712 10.906 20.1342 10.906C20.3972 10.906 20.6834 11.0152 21.0006 11.2414C21.3177 11.4677 21.6116 11.6939 21.8746 11.9201C22.1376 12.1464 22.3155 12.2556 22.4006 12.2556C22.5862 12.2556 22.7332 12.0918 22.8415 11.7719C22.942 11.4521 22.9962 11.023 22.9962 10.4847V8.33159C22.9962 7.53586 23.205 6.92737 23.615 6.5139H22.5862C22.1608 6.54511 21.7431 6.73234 21.3486 7.05999C20.9541 7.38764 20.6447 7.71529 20.4204 8.05074H19.8558L17.3032 5.27351L17.5585 4.64941H24.6669L26.3686 6.5217H26.3532Z" fill="#EDE6D6"/>
<path d="M33.0285 9.66561C33.4075 9.66561 33.7788 9.68121 34.1501 9.72021C34.5213 9.75142 34.8926 9.80603 35.2716 9.87624V8.3394C35.2716 7.54368 35.4805 6.93518 35.8904 6.52172H31.9456C31.497 6.52172 31.0638 6.69334 30.6306 7.0288C30.1975 7.36425 29.8649 7.7075 29.6251 8.05856H29.0604L26.5079 5.28132L26.7631 4.65723H36.9424L38.6441 6.52952C38.3888 6.70114 38.1645 6.95858 37.9866 7.30964C37.8087 7.66069 37.7159 8.06636 37.7159 8.53443V11.3897L37.275 11.7563C36.9501 11.7251 36.5866 11.6939 36.1766 11.6627C35.7667 11.6315 35.4031 11.6237 35.0551 11.6237C34.1114 11.6237 33.2451 11.8109 32.4561 12.1932C31.6671 12.5755 31.0406 13.1371 30.5765 13.8705C30.1124 14.6038 29.8803 15.5009 29.8803 16.5619C29.8803 17.2406 30.2671 17.576 31.0406 17.576C31.4351 17.576 31.8064 17.5292 32.1622 17.4356C32.518 17.342 32.8506 17.225 33.1832 17.0846C33.0826 16.9285 33.0285 16.7491 33.0285 16.5385C33.0285 16.0548 33.1754 15.5867 33.4694 15.1499C33.7633 14.7052 34.1501 14.3463 34.6451 14.0577C35.1401 13.769 35.6816 13.6286 36.2849 13.6286C36.5247 13.6286 36.8109 13.7534 37.1358 13.9953C37.4606 14.2371 37.7468 14.518 38.0021 14.83C38.2496 15.1421 38.3734 15.3995 38.3734 15.6101C38.3734 16.1094 38.1104 16.6711 37.5767 17.2874C37.043 17.9037 36.3777 18.4186 35.5656 18.832C35.96 19.4171 36.4087 19.9476 36.9192 20.4157C37.4297 20.8838 37.917 21.2894 38.4043 21.6405L37.8629 22.288C37.3833 21.9603 36.8109 21.5235 36.1534 20.9774C35.4882 20.4313 34.939 19.8852 34.4904 19.3235C33.9567 19.4483 33.4771 19.5029 33.044 19.5029C32.4252 19.5029 31.7909 19.3625 31.1411 19.0739C30.4914 18.7852 29.8803 18.4108 29.3079 17.9271C28.7433 17.4512 28.2869 16.9285 27.9466 16.359C27.5985 15.7896 27.4283 15.2123 27.4283 14.6428C27.4283 13.6052 27.6836 12.7081 28.1864 11.967C28.6891 11.2258 29.3698 10.6564 30.2207 10.2663C31.0715 9.87624 32.0152 9.68121 33.044 9.68121L33.0285 9.66561Z" fill="#EDE6D6"/>
<path d="M50.3394 15.9846C50.3394 16.5385 50.2466 17.0222 50.0532 17.4434C49.8598 17.8569 49.6742 18.208 49.4885 18.4966C49.2952 18.7852 49.2023 19.0271 49.2023 19.2377C49.2023 19.4249 49.3184 19.6434 49.5504 19.8852C49.7825 20.1271 50.0455 20.3611 50.3471 20.5873C50.6488 20.8136 50.904 20.993 51.1052 21.1334L50.6952 21.7029C50.4864 21.5781 50.1692 21.3752 49.7438 21.0788C49.3106 20.7824 48.8697 20.4547 48.4134 20.0802C47.957 19.7058 47.5703 19.3391 47.2377 18.9725C46.9128 18.6058 46.7503 18.3094 46.7503 18.0597C46.7503 17.8023 46.8432 17.5215 47.0365 17.2172C47.2222 16.913 47.4156 16.5619 47.6012 16.1484C47.7868 15.7428 47.8874 15.2591 47.8874 14.7052V12.006C47.4233 11.9514 46.9747 11.928 46.5492 11.928C46.1857 11.928 45.7912 12.0294 45.3503 12.24C44.9094 12.4507 44.5459 12.8017 44.2519 13.3088C44.2829 13.7457 44.3138 14.2293 44.3448 14.7676C44.3757 15.3059 44.3912 15.8208 44.4066 16.3279C44.4221 16.8271 44.4298 17.2562 44.4298 17.5995C44.4298 17.9427 44.3293 18.286 44.1204 18.559C43.9116 18.8321 43.6409 18.9725 43.2928 18.9725C43.0143 18.9725 42.6817 18.8789 42.2718 18.6994C41.8696 18.52 41.4673 18.286 41.0729 17.9973C40.6784 17.7087 40.3458 17.3888 40.0828 17.0378C39.8198 16.6867 39.6806 16.3435 39.6806 16.008C39.6806 15.2825 39.8121 14.5648 40.0828 13.8549C40.3458 13.145 40.7248 12.4975 41.2044 11.9202C41.6839 11.3429 42.2408 10.8748 42.8828 10.516C43.5171 10.1571 44.1978 9.98548 44.9172 9.98548C45.4663 9.98548 45.9768 10.0323 46.4487 10.1181C46.9205 10.2039 47.4001 10.3365 47.8797 10.5082V8.35502C47.8797 7.5593 48.0885 6.95081 48.4985 6.53734H44.1669C43.7414 6.56855 43.3237 6.75578 42.9293 7.08343C42.5348 7.41108 42.2254 7.73873 42.0011 8.07418H41.4364L38.8839 5.29695L39.1391 4.67285H49.5504L51.2521 6.54514C50.9969 6.71677 50.7726 6.97421 50.5946 7.32526C50.4167 7.66852 50.3239 8.08198 50.3239 8.55005V16.008L50.3394 15.9846Z" fill="#EDE6D6"/>
<path d="M65.7785 15.9846C65.7785 16.5385 65.6856 17.0221 65.4923 17.4434C65.2989 17.8569 65.1132 18.2079 64.9276 18.4966C64.742 18.7852 64.6414 19.027 64.6414 19.2377C64.6414 19.4249 64.7574 19.6433 64.9895 19.8852C65.2215 20.127 65.4845 20.361 65.7862 20.5873C66.0879 20.8135 66.3431 20.9929 66.5442 21.1334L66.1343 21.7029C65.9254 21.578 65.6083 21.3752 65.1829 21.0788C64.7574 20.7823 64.3088 20.4547 63.8602 20.0802C63.4038 19.7057 63.0171 19.3391 62.6845 18.9724C62.3596 18.6058 62.1972 18.3093 62.1972 18.0597C62.1972 17.8022 62.29 17.5214 62.4833 17.2172C62.669 16.9129 62.8624 16.5619 63.048 16.1484C63.2336 15.7349 63.3342 15.2591 63.3342 14.7052V13.3556C63.2646 13.34 63.195 13.3322 63.1253 13.3322H62.9165C62.4679 13.3322 61.9728 13.4492 61.4236 13.6832C60.8745 13.9172 60.3253 14.2215 59.7838 14.596C59.2424 14.9704 58.7473 15.3605 58.2987 15.7661C57.8501 16.1718 57.4943 16.5463 57.2158 16.8973C56.9373 17.2406 56.8059 17.5136 56.8059 17.7008C56.8059 17.9427 56.9606 18.2547 57.27 18.637C57.5794 19.0192 57.9738 19.4327 58.4534 19.8696C58.933 20.3064 59.4358 20.7511 59.9463 21.1802L59.428 21.8043C58.9639 21.461 58.4302 21.0242 57.8191 20.5015C57.2081 19.9788 56.597 19.4093 55.9782 18.7852C55.3594 18.1611 54.787 17.5292 54.2533 16.8895C53.7196 16.2498 53.2942 15.6335 52.9616 15.0406C52.6289 14.4477 52.4742 13.9328 52.4742 13.4804C52.4742 12.8953 52.5748 12.4194 52.7836 12.0606C52.9925 11.7017 53.24 11.4443 53.5339 11.2804C53.8279 11.1166 54.0986 11.0308 54.3616 11.0308C54.6246 11.0308 54.9108 11.1478 55.2279 11.3662C55.545 11.5925 55.839 11.8187 56.102 12.045C56.365 12.2712 56.5429 12.3804 56.6279 12.3804C56.8136 12.3804 56.9605 12.2166 57.0688 11.8967C57.1694 11.5769 57.2235 11.1478 57.2235 10.6095V8.32377C57.2235 7.52805 57.4324 6.91956 57.8423 6.50609H56.9683C56.5197 6.50609 56.0865 6.67772 55.6533 7.01317C55.2279 7.34862 54.8876 7.69188 54.6478 8.04293H54.0831L51.5306 5.2657L51.7858 4.6416H65.005L66.7067 6.51389C66.4514 6.68552 66.2271 6.93516 66.0492 7.25501C65.8713 7.57486 65.7785 7.95712 65.7785 8.40959V15.969V15.9846ZM63.3265 8.33938C63.3265 7.54365 63.5353 6.93516 63.9453 6.52169H60.596C60.3407 6.69332 60.1164 6.95076 59.9385 7.30182C59.7606 7.64507 59.6678 8.05853 59.6678 8.52661V11.9045C60.4104 11.5769 61.091 11.4131 61.733 11.4131C61.9883 11.4131 62.2513 11.4287 62.522 11.4677C62.785 11.4989 63.0557 11.5535 63.3342 11.6237V8.34718L63.3265 8.33938Z" fill="#EDE6D6"/>
<path d="M72.5543 8.3394C72.5543 7.54368 72.7632 6.93518 73.1731 6.52172H72.3996C71.951 6.52172 71.5178 6.69334 71.0847 7.0288C70.6592 7.36425 70.3189 7.7075 70.0791 8.05856H69.5145L66.9619 5.28132L67.2172 4.65723H79.8175L81.5192 6.52952C81.2639 6.70114 81.0396 6.96639 80.8617 7.32524C80.6838 7.6841 80.591 8.13657 80.591 8.69045V15.4697C80.591 16.0236 80.4982 16.5073 80.3048 16.9285C80.1114 17.3498 79.9258 17.6931 79.7401 17.9817C79.5468 18.2703 79.4539 18.5122 79.4539 18.7228C79.4539 18.9647 79.5854 19.2455 79.8562 19.5575C80.1269 19.8696 80.4286 20.166 80.7689 20.4547C81.1092 20.7433 81.3954 20.9696 81.6197 21.1412L81.2098 21.7107C80.9855 21.5703 80.6529 21.3362 80.2042 21.0086C79.7556 20.6809 79.2915 20.3065 78.7965 19.8774C78.3092 19.4561 77.8915 19.0349 77.5434 18.6292C77.1953 18.2235 77.0174 17.8803 77.002 17.5994C76.5765 17.8101 76.1588 18.0675 75.7489 18.3796C75.3467 18.6916 74.9599 19.0739 74.6041 19.5263C74.2406 19.5263 73.7919 19.4171 73.235 19.1987C72.6858 18.9803 72.1134 18.6916 71.5101 18.3172C70.9068 17.9427 70.3498 17.5136 69.8239 17.03C69.2979 16.5463 68.8725 16.0392 68.5321 15.5087C68.1995 14.9782 68.0293 14.4478 68.0293 13.9095C68.0293 13.1996 68.2382 12.6067 68.6481 12.1464C69.0581 11.6861 69.7078 11.3507 70.5819 11.1556L72.5389 10.711V8.3472L72.5543 8.3394ZM78.139 8.3394C78.139 7.54368 78.3478 6.93518 78.7578 6.52172H75.9268C75.6715 6.69334 75.4472 6.95078 75.2693 7.30184C75.0914 7.65289 74.9986 8.05856 74.9986 8.52663V12.6067L72.6549 13.2854C71.951 13.496 71.4327 13.7768 71.1079 14.1435C70.783 14.5102 70.6206 14.9704 70.6206 15.5243C70.6206 16.0236 70.8294 16.4605 71.2394 16.8271C71.6493 17.1938 72.0825 17.4356 72.5311 17.5526C73.3046 16.7725 74.1555 16.1172 75.0914 15.5867C76.0273 15.0562 77.0329 14.6896 78.1158 14.479C78.1313 14.4243 78.139 14.3307 78.139 14.1903V8.3394Z" fill="#EDE6D6"/>
<path d="M100.122 19.1753C100.122 19.3703 100.215 19.5731 100.408 19.7838C100.601 19.9944 100.826 20.205 101.089 20.4079C101.352 20.6107 101.592 20.7745 101.8 20.9149L101.39 21.4844C101.182 21.3596 100.88 21.1568 100.478 20.8603C100.075 20.5639 99.65 20.2362 99.2169 19.8696C98.776 19.5029 98.4124 19.1441 98.1108 18.793C97.8091 18.4341 97.6621 18.1377 97.6621 17.8959C97.6621 17.7554 97.7395 17.5136 97.9097 17.1704C98.0721 16.8271 98.2655 16.398 98.4898 15.8988C98.7141 15.3995 98.9075 14.8378 99.0699 14.2215C99.2324 13.6052 99.3174 12.9577 99.3174 12.2868C99.3174 12.0996 99.2556 11.9279 99.1395 11.7953C99.0235 11.6627 98.8611 11.5847 98.6754 11.5847C98.1572 11.5847 97.5925 11.8499 96.9737 12.3804C96.3549 12.9109 95.8212 13.5272 95.3726 14.2371V15.9768C95.3726 16.5307 95.303 17.0143 95.156 17.4356C95.009 17.8569 94.8621 18.2001 94.7151 18.4888C94.5681 18.7774 94.4985 19.0192 94.4985 19.2299C94.4985 19.4171 94.5991 19.6355 94.7925 19.8774C94.9858 20.1192 95.2179 20.3532 95.4886 20.5795C95.7516 20.8057 95.9759 20.9851 96.1461 21.1256L95.7361 21.6951C95.5273 21.5546 95.2179 21.3284 94.7925 21.0164C94.3748 20.7043 93.9339 20.3532 93.493 19.9632C93.0444 19.5731 92.6885 19.2065 92.4101 18.8554C92.1161 18.9802 91.799 19.0348 91.4587 19.0348C91.2189 19.0348 90.8785 18.9646 90.4377 18.8242C89.9968 18.6838 89.5327 18.4888 89.0299 18.2235C88.5348 17.9661 88.0553 17.654 87.5989 17.2874C87.1425 16.9207 86.7713 16.5072 86.4928 16.0392C86.2143 15.5711 86.0674 15.0718 86.0674 14.5335C86.0674 13.4804 86.253 12.591 86.632 11.8811C87.011 11.1712 87.5061 10.6329 88.1249 10.2663C88.7437 9.89962 89.4244 9.72019 90.1592 9.72019C90.7238 9.72019 91.2421 9.7748 91.7217 9.87622C92.1935 9.97763 92.5957 10.1025 92.9206 10.2429V8.32377C92.9206 7.52805 93.1294 6.91956 93.5394 6.50609H90.4763C90.0509 6.52169 89.6255 6.69332 89.2155 7.02877C88.8056 7.36423 88.4884 7.69188 88.2641 8.04293H87.6995L85.1469 5.2657L85.4022 4.6416H100.864L102.566 6.51389L101.096 8.04293H100.532C100.168 7.66067 99.797 7.30962 99.4103 6.98977C99.0235 6.66992 98.5981 6.50609 98.134 6.50609H96.3008C96.0455 6.67772 95.8212 6.93516 95.6433 7.28621C95.4654 7.63727 95.3726 8.04293 95.3726 8.511V10.2273C95.6278 10.0556 95.8986 9.91522 96.1693 9.81381C96.4478 9.71239 96.703 9.65778 96.9428 9.65778C97.461 9.65778 97.9948 9.7982 98.5517 10.0712C99.1086 10.3521 99.6268 10.7031 100.114 11.1244C100.594 11.5457 100.988 11.9981 101.298 12.4584C101.607 12.9187 101.762 13.34 101.762 13.7066C101.762 14.3619 101.677 15.0016 101.514 15.6179C101.352 16.2342 101.158 16.7881 100.95 17.2952C100.733 17.7944 100.547 18.2157 100.385 18.5434C100.222 18.871 100.137 19.0816 100.137 19.1675L100.122 19.1753ZM89.1691 17.1235C89.5481 17.1235 89.9736 17.0221 90.4609 16.8115C90.9404 16.6009 91.4045 16.3122 91.8377 15.9378C92.2709 15.5633 92.6344 15.142 92.9051 14.674V11.7095C92.7504 11.6939 92.6112 11.6783 92.4797 11.6705C92.3482 11.6627 92.2244 11.6549 92.1084 11.6549C91.5438 11.6549 90.9868 11.8187 90.4299 12.1464C89.873 12.474 89.4244 12.9733 89.0686 13.6442C88.705 14.3151 88.5271 15.1654 88.5271 16.203C88.5271 16.4448 88.5813 16.6555 88.6818 16.8427C88.7824 17.0221 88.9448 17.1157 89.1691 17.1157V17.1235Z" fill="#EDE6D6"/>
<path d="M113.287 15.9846C113.287 16.5385 113.194 17.0222 113.001 17.4434C112.807 17.8569 112.622 18.2079 112.436 18.4966C112.25 18.7852 112.15 19.0271 112.15 19.2377C112.15 19.4249 112.266 19.6434 112.498 19.8852C112.73 20.127 112.993 20.3611 113.295 20.5873C113.596 20.8135 113.852 20.993 114.053 21.1334L113.643 21.7029C113.434 21.5781 113.117 21.3752 112.691 21.0788C112.266 20.7823 111.817 20.4547 111.369 20.0802C110.912 19.7058 110.526 19.3391 110.193 18.9725C109.868 18.6058 109.706 18.3093 109.706 18.0597C109.706 17.8023 109.798 17.5214 109.992 17.2172C110.177 16.9129 110.371 16.5619 110.556 16.1484C110.742 15.735 110.843 15.2591 110.843 14.7052V11.8733C110.672 11.8577 110.487 11.8421 110.301 11.8343C110.116 11.8265 109.922 11.8187 109.737 11.8187C109.087 11.8187 108.468 12.0606 107.88 12.5443C107.292 13.0279 106.82 13.6598 106.449 14.4399C106.078 15.2201 105.892 16.0626 105.892 16.9597C105.892 17.5994 106.093 18.2469 106.496 18.91C106.898 19.5653 107.501 20.2206 108.313 20.8603L107.795 21.4298C106.441 20.4625 105.359 19.4561 104.546 18.4186C103.742 17.381 103.332 16.4215 103.332 15.5321C103.332 14.479 103.556 13.5194 104.005 12.6613C104.454 11.8031 105.034 11.1166 105.753 10.6096C106.472 10.1025 107.23 9.84503 108.019 9.84503C108.538 9.84503 109.025 9.87624 109.489 9.94645C109.953 10.0167 110.402 10.1181 110.827 10.2585V8.3394C110.827 7.54368 111.036 6.93518 111.446 6.52172H107.841C107.393 6.52172 106.96 6.69334 106.527 7.0288C106.101 7.36425 105.761 7.7075 105.521 8.05856H104.956L102.404 5.28132L102.659 4.65723H112.498L114.2 6.52952C113.944 6.70114 113.72 6.95858 113.542 7.30964C113.364 7.66069 113.271 8.06636 113.271 8.53443V15.9924L113.287 15.9846Z" fill="#EDE6D6"/>
<path d="M112.668 5.71828C112.204 4.88355 111.779 4.21264 111.376 3.68996C110.974 3.16728 110.564 2.79282 110.116 2.54318C109.667 2.30135 109.133 2.17653 108.514 2.17653C108.089 2.17653 107.602 2.22333 107.06 2.30915C106.519 2.39496 105.923 2.52758 105.266 2.69921L104.028 0.514869C105.212 0.171615 106.263 -0.0078125 107.168 -0.0078125C107.927 -0.0078125 108.623 0.179417 109.265 0.553875C109.907 0.928333 110.51 1.42761 111.067 2.05171C111.624 2.6758 112.165 3.37011 112.676 4.14243C113.194 4.91475 113.697 5.70268 114.192 6.5218L112.645 5.71828H112.668Z" fill="#EDE6D6"/>
<path d="M119.676 8.33939C119.676 8.06635 119.699 7.7933 119.753 7.53586L117.696 5.27351L117.951 4.64941H127.125L128.826 6.5217C128.571 6.69333 128.347 6.95077 128.169 7.30183C127.991 7.64508 127.898 8.05854 127.898 8.52662V14.1669C127.898 15.103 127.628 16.0002 127.086 16.8661C126.545 17.732 125.864 18.4186 125.036 18.9178L128.927 20.7667L128.563 21.5234L122.77 18.871C121.687 18.3717 120.798 17.8023 120.101 17.1782C119.405 16.5541 119.057 15.8988 119.057 15.2045C119.057 14.8768 119.158 14.4243 119.367 13.8392C119.575 13.262 119.676 12.5988 119.676 11.8499V8.33939ZM121.401 16.5541C121.401 16.7257 121.47 16.8973 121.61 17.0611C121.749 17.225 122.027 17.4278 122.461 17.6696C123.319 17.2016 124.031 16.5463 124.595 15.7115C125.16 14.869 125.446 13.9017 125.446 12.8173V8.34719C125.446 7.55147 125.655 6.94297 126.065 6.52951H123.048C122.793 6.70113 122.569 6.95857 122.391 7.30963C122.213 7.65288 122.12 8.06635 122.12 8.53442V13.2151C122.12 13.7378 122.058 14.2059 121.942 14.635C121.819 15.0562 121.703 15.4307 121.579 15.7505C121.455 16.0704 121.401 16.3434 121.401 16.5697V16.5541Z" fill="#EDE6D6"/>
<path d="M144.072 19.1753C144.072 19.3703 144.165 19.5731 144.358 19.7838C144.552 19.9944 144.776 20.205 145.039 20.4079C145.302 20.6107 145.542 20.7745 145.751 20.9149L145.341 21.4844C145.132 21.3596 144.83 21.1568 144.428 20.8603C144.026 20.5639 143.6 20.2362 143.167 19.8696C142.726 19.5029 142.363 19.1441 142.061 18.793C141.759 18.4341 141.612 18.1377 141.612 17.8959C141.612 17.7554 141.69 17.5136 141.86 17.1704C142.022 16.8271 142.216 16.398 142.44 15.8988C142.664 15.3995 142.858 14.8378 143.02 14.2215C143.183 13.6052 143.268 12.9577 143.268 12.2868C143.268 12.0996 143.206 11.9279 143.09 11.7953C142.974 11.6627 142.811 11.5847 142.626 11.5847C142.108 11.5847 141.543 11.8499 140.924 12.3804C140.305 12.9109 139.772 13.5272 139.323 14.2371V15.9768C139.323 16.5307 139.253 17.0143 139.106 17.4356C138.959 17.8569 138.812 18.2001 138.665 18.4888C138.518 18.7774 138.449 19.0192 138.449 19.2299C138.449 19.4171 138.549 19.6355 138.743 19.8774C138.936 20.1192 139.168 20.3532 139.439 20.5795C139.702 20.8057 139.926 20.9851 140.096 21.1256L139.686 21.6951C139.478 21.5546 139.168 21.3284 138.743 21.0164C138.325 20.7043 137.884 20.3532 137.443 19.9632C136.995 19.5731 136.639 19.2065 136.36 18.8554C136.066 18.9802 135.749 19.0348 135.409 19.0348C135.169 19.0348 134.829 18.9646 134.388 18.8242C133.947 18.6838 133.483 18.4888 132.98 18.2235C132.485 17.9661 132.006 17.654 131.549 17.2874C131.093 16.9207 130.722 16.5072 130.443 16.0392C130.165 15.5711 130.018 15.0718 130.018 14.5335C130.018 13.4804 130.203 12.591 130.582 11.8811C130.961 11.1712 131.456 10.6329 132.075 10.2663C132.694 9.89962 133.375 9.72019 134.11 9.72019C134.674 9.72019 135.192 9.7748 135.672 9.87622C136.144 9.97763 136.546 10.1025 136.871 10.2429V8.32377C136.871 7.52805 137.08 6.91956 137.49 6.50609H134.427C134.001 6.52169 133.576 6.69332 133.166 7.02877C132.756 7.36423 132.439 7.69188 132.214 8.04293H131.65L129.097 5.2657L129.352 4.6416H144.815L146.516 6.51389L145.047 8.04293H144.482C144.119 7.66067 143.747 7.30962 143.361 6.98977C142.974 6.66992 142.548 6.50609 142.084 6.50609H140.251C139.996 6.67772 139.772 6.93516 139.594 7.28621C139.416 7.63727 139.323 8.04293 139.323 8.511V10.2273C139.578 10.0556 139.849 9.91522 140.12 9.81381C140.398 9.71239 140.653 9.65778 140.893 9.65778C141.411 9.65778 141.945 9.7982 142.502 10.0712C143.059 10.3521 143.577 10.7031 144.064 11.1244C144.544 11.5457 144.939 11.9981 145.248 12.4584C145.557 12.9187 145.712 13.34 145.712 13.7066C145.712 14.3619 145.627 15.0016 145.465 15.6179C145.302 16.2342 145.109 16.7881 144.9 17.2952C144.683 17.7944 144.498 18.2157 144.335 18.5434C144.173 18.871 144.088 19.0816 144.088 19.1675L144.072 19.1753ZM133.119 17.1235C133.498 17.1235 133.924 17.0221 134.411 16.8115C134.891 16.6009 135.355 16.3122 135.788 15.9378C136.221 15.5633 136.585 15.142 136.855 14.674V11.7095C136.701 11.6939 136.562 11.6783 136.43 11.6705C136.299 11.6627 136.175 11.6549 136.059 11.6549C135.494 11.6549 134.937 11.8187 134.38 12.1464C133.823 12.474 133.375 12.9733 133.019 13.6442C132.655 14.3151 132.477 15.1654 132.477 16.203C132.477 16.4448 132.532 16.6555 132.632 16.8427C132.733 17.0221 132.895 17.1157 133.119 17.1157V17.1235Z" fill="#EDE6D6"/>
<path d="M142.007 6.5217L141.411 4.64941H149.061L150.763 6.4905L149.448 7.89472H148.883C148.559 7.55147 148.172 7.23162 147.739 6.94297C147.298 6.65433 146.834 6.5139 146.331 6.5139H141.999L142.007 6.5217ZM149.51 19.3625C149.17 19.2065 148.775 18.9958 148.334 18.7228C147.893 18.4576 147.561 18.2313 147.313 18.0597C147.344 17.693 147.375 17.3108 147.391 16.9129C147.406 16.5151 147.414 16.125 147.414 15.7427V15.2981C147.414 15.142 147.406 14.9938 147.391 14.8534L147.623 14.6974C147.963 14.869 148.342 15.0796 148.76 15.3371C149.17 15.5867 149.487 15.7973 149.711 15.9768C149.742 16.203 149.773 16.4292 149.788 16.6633C149.804 16.8973 149.812 17.1392 149.812 17.381C149.812 17.6774 149.804 17.9817 149.788 18.3015C149.773 18.6214 149.757 18.9256 149.734 19.2221L149.502 19.3547L149.51 19.3625ZM149.556 13.5896C149.216 13.418 148.822 13.1995 148.388 12.9421C147.947 12.6847 147.607 12.4662 147.367 12.2946C147.383 12.0684 147.398 11.8343 147.406 11.5769C147.414 11.3273 147.421 11.0854 147.421 10.8592C147.421 10.6329 147.421 10.3833 147.406 10.1181C147.398 9.85282 147.383 9.60318 147.367 9.37695L147.599 9.22092C147.94 9.39255 148.319 9.60318 148.736 9.86062C149.146 10.1103 149.464 10.3209 149.688 10.5003C149.773 11.0542 149.819 11.6237 149.819 12.2166V12.8407C149.819 13.0669 149.812 13.2776 149.796 13.4648L149.564 13.5974L149.556 13.5896Z" fill="#EDE6D6"/>
<path d="M168.422 15.9846C168.422 16.5385 168.329 17.0221 168.136 17.4434C167.942 17.8569 167.757 18.2079 167.571 18.4966C167.386 18.7852 167.285 19.027 167.285 19.2377C167.285 19.4249 167.401 19.6433 167.633 19.8852C167.865 20.127 168.128 20.361 168.43 20.5873C168.731 20.8135 168.987 20.9929 169.188 21.1334L168.778 21.7029C168.569 21.578 168.252 21.3752 167.826 21.0788C167.401 20.7823 166.952 20.4547 166.504 20.0802C166.047 19.7057 165.661 19.3391 165.328 18.9724C165.003 18.6058 164.841 18.3093 164.841 18.0597C164.841 17.8022 164.934 17.5214 165.127 17.2172C165.313 16.9129 165.506 16.5619 165.692 16.1484C165.877 15.7349 165.978 15.2591 165.978 14.7052V13.3556C165.908 13.34 165.839 13.3322 165.769 13.3322H165.56C165.111 13.3322 164.616 13.4492 164.067 13.6832C163.518 13.9172 162.969 14.2215 162.427 14.596C161.886 14.9704 161.391 15.3605 160.942 15.7661C160.494 16.1718 160.138 16.5463 159.859 16.8973C159.581 17.2406 159.449 17.5136 159.449 17.7008C159.449 17.9427 159.604 18.2547 159.914 18.637C160.223 19.0192 160.617 19.4327 161.097 19.8696C161.577 20.3064 162.079 20.7511 162.59 21.1802L162.072 21.8043C161.607 21.461 161.074 21.0242 160.463 20.5015C159.852 19.9788 159.241 19.4093 158.622 18.7852C158.003 18.1611 157.431 17.5292 156.897 16.8895C156.363 16.2498 155.938 15.6335 155.605 15.0406C155.272 14.4477 155.118 13.9328 155.118 13.4804C155.118 12.8953 155.218 12.4194 155.427 12.0606C155.636 11.7017 155.884 11.4443 156.177 11.2804C156.471 11.1166 156.742 11.0308 157.005 11.0308C157.268 11.0308 157.554 11.1478 157.871 11.3662C158.189 11.5925 158.483 11.8187 158.746 12.045C159.009 12.2712 159.186 12.3804 159.271 12.3804C159.457 12.3804 159.604 12.2166 159.712 11.8967C159.813 11.5769 159.867 11.1478 159.867 10.6095V8.32377C159.867 7.52805 160.076 6.91956 160.486 6.50609H159.612C159.163 6.50609 158.73 6.67772 158.297 7.01317C157.871 7.34862 157.531 7.69188 157.291 8.04293H156.727L154.174 5.2657L154.429 4.6416H167.649L169.35 6.51389C169.095 6.68552 168.871 6.93516 168.693 7.25501C168.515 7.57486 168.422 7.95712 168.422 8.40959V15.969V15.9846ZM165.97 8.33938C165.97 7.54365 166.179 6.93516 166.589 6.52169H163.24C162.984 6.69332 162.76 6.95076 162.582 7.30182C162.404 7.64507 162.311 8.05853 162.311 8.52661V11.9045C163.054 11.5769 163.735 11.4131 164.377 11.4131C164.632 11.4131 164.895 11.4287 165.166 11.4677C165.429 11.4989 165.699 11.5535 165.978 11.6237V8.34718L165.97 8.33938Z" fill="#EDE6D6"/>
<path d="M174.038 15.9847C174.038 16.5386 173.945 17.0222 173.751 17.4435C173.558 17.8648 173.372 18.208 173.187 18.4967C173.001 18.7853 172.901 19.0271 172.901 19.2378C172.901 19.425 173.017 19.6434 173.249 19.8853C173.481 20.1271 173.744 20.3612 174.045 20.5874C174.347 20.8136 174.602 20.9931 174.803 21.1335L174.393 21.703C174.185 21.5781 173.867 21.3753 173.442 21.0789C173.017 20.7824 172.568 20.4548 172.119 20.0803C171.663 19.7059 171.276 19.3392 170.944 18.9725C170.619 18.6059 170.456 18.3094 170.456 18.0598C170.456 17.8024 170.549 17.5215 170.743 17.2173C170.928 16.913 171.122 16.562 171.307 16.1485C171.493 15.735 171.593 15.2592 171.593 14.7053V8.33949C171.593 7.54376 171.802 6.93527 172.212 6.5218H167.115L166.55 4.64951H172.808C172.274 3.78358 171.748 3.15168 171.222 2.76162C170.696 2.37156 170.046 2.17653 169.281 2.17653C168.855 2.17653 168.368 2.22333 167.826 2.30915C167.285 2.39496 166.689 2.52758 166.032 2.69921L164.794 0.514869C165.978 0.171615 167.03 -0.0078125 167.935 -0.0078125C168.693 -0.0078125 169.389 0.179417 170.031 0.553875C170.673 0.928333 171.276 1.42761 171.833 2.05171C172.39 2.6758 172.932 3.37011 173.442 4.14243C173.953 4.91475 174.463 5.70268 174.966 6.5218C174.711 6.69343 174.486 6.95087 174.308 7.30192C174.13 7.65298 174.038 8.05864 174.038 8.52672V15.9847Z" fill="#EDE6D6"/>
<path d="M185.424 15.9846C185.424 16.5385 185.331 17.0221 185.137 17.4434C184.944 17.8569 184.758 18.2079 184.573 18.4966C184.387 18.7852 184.287 19.0271 184.287 19.2377C184.287 19.4249 184.403 19.6433 184.635 19.8852C184.867 20.127 185.13 20.3611 185.431 20.5873C185.733 20.8135 185.988 20.993 186.189 21.1334L185.779 21.7029C185.594 21.6015 185.315 21.422 184.952 21.1724C184.588 20.9227 184.201 20.6341 183.791 20.3143C183.382 19.9944 183.002 19.6668 182.654 19.3391C182.306 19.0114 182.074 18.715 181.935 18.4576C181.78 18.4888 181.633 18.52 181.494 18.5512C181.355 18.5824 181.216 18.5902 181.084 18.5902C180.69 18.5902 180.241 18.4654 179.731 18.2235C179.22 17.9817 178.733 17.6618 178.245 17.2718C177.766 16.8817 177.364 16.4605 177.047 16.008C176.729 15.5555 176.567 15.1264 176.567 14.7052C176.567 14.3775 176.668 13.9251 176.876 13.34C177.085 12.7549 177.186 12.0996 177.186 11.3507V8.33939C177.186 8.06635 177.209 7.7933 177.263 7.53586L175.198 5.27351L175.453 4.64941H184.627L186.329 6.52171C186.073 6.69333 185.849 6.95077 185.671 7.30183C185.493 7.65288 185.4 8.05854 185.4 8.52662V15.9846H185.424ZM182.972 8.33939C182.972 7.54366 183.18 6.93517 183.59 6.52171H180.574C180.318 6.69333 180.094 6.95077 179.916 7.30183C179.738 7.65288 179.646 8.05854 179.646 8.52662V12.7081C179.646 13.2308 179.584 13.6988 179.468 14.1279C179.344 14.5492 179.228 14.9236 179.104 15.2435C178.98 15.5633 178.926 15.8364 178.926 16.0626C178.926 16.4605 179.089 16.6633 179.413 16.6633C179.723 16.6633 180.094 16.5853 180.52 16.4292C180.945 16.2732 181.386 16.0548 181.835 15.7661C182.283 15.4775 182.662 15.1576 182.972 14.791V8.34719V8.33939Z" fill="#EDE6D6"/>
<path d="M191.039 15.9846C191.039 16.5385 190.946 17.0221 190.753 17.4434C190.56 17.8647 190.374 18.2079 190.188 18.4966C190.003 18.7852 189.902 19.0271 189.902 19.2377C189.902 19.4249 190.018 19.6433 190.25 19.8852C190.482 20.127 190.745 20.3611 191.047 20.5873C191.349 20.8135 191.604 20.993 191.805 21.1334L191.395 21.7029C191.186 21.578 190.869 21.3752 190.444 21.0788C190.018 20.7823 189.569 20.4547 189.121 20.0802C188.664 19.7058 188.278 19.3391 187.945 18.9724C187.62 18.6058 187.458 18.3093 187.458 18.0597C187.458 17.8023 187.551 17.5214 187.744 17.2172C187.93 16.9129 188.123 16.5619 188.309 16.1484C188.494 15.7349 188.595 15.2591 188.595 14.7052V8.33939C188.595 7.54366 188.804 6.93517 189.214 6.52171H184.116L183.552 4.64941H190.273L191.975 6.52171C191.72 6.69333 191.495 6.95077 191.318 7.30183C191.14 7.65288 191.047 8.05854 191.047 8.52662V15.9846H191.039Z" fill="#EDE6D6"/>
<path d="M203.663 15.9846C203.663 16.5385 203.57 17.0222 203.376 17.4434C203.183 17.8569 202.997 18.208 202.812 18.4966C202.618 18.7852 202.526 19.0271 202.526 19.2377C202.526 19.4249 202.642 19.6434 202.874 19.8852C203.106 20.1271 203.369 20.3611 203.67 20.5873C203.972 20.8136 204.227 20.993 204.428 21.1334L204.019 21.7029C203.81 21.5781 203.493 21.3752 203.067 21.0788C202.634 20.7824 202.193 20.4547 201.737 20.0802C201.28 19.7058 200.894 19.3391 200.561 18.9725C200.236 18.6058 200.074 18.3094 200.074 18.0597C200.074 17.8023 200.166 17.5215 200.36 17.2172C200.545 16.913 200.739 16.5619 200.925 16.1484C201.11 15.7428 201.211 15.2591 201.211 14.7052V12.006C200.747 11.9514 200.298 11.928 199.873 11.928C199.509 11.928 199.115 12.0294 198.674 12.24C198.233 12.4507 197.869 12.8017 197.575 13.3088C197.606 13.7457 197.637 14.2293 197.668 14.7676C197.699 15.3059 197.714 15.8208 197.73 16.3279C197.745 16.8271 197.753 17.2562 197.753 17.5995C197.753 17.9427 197.653 18.286 197.444 18.559C197.235 18.8321 196.964 18.9725 196.616 18.9725C196.338 18.9725 196.005 18.8789 195.595 18.6994C195.193 18.52 194.791 18.286 194.396 17.9973C194.002 17.7087 193.669 17.3888 193.406 17.0378C193.143 16.6867 193.004 16.3435 193.004 16.008C193.004 15.2825 193.135 14.5648 193.406 13.8549C193.669 13.145 194.048 12.4975 194.528 11.9202C195.007 11.3429 195.564 10.8748 196.206 10.516C196.84 10.1571 197.521 9.98548 198.24 9.98548C198.79 9.98548 199.3 10.0323 199.772 10.1181C200.244 10.2039 200.723 10.3365 201.203 10.5082V8.35502C201.203 7.5593 201.412 6.95081 201.822 6.53734H197.49C197.065 6.56855 196.647 6.75578 196.253 7.08343C195.858 7.41108 195.549 7.73873 195.324 8.07418H194.76L192.207 5.29695L192.462 4.67285H202.874L204.575 6.54514C204.32 6.71677 204.096 6.97421 203.918 7.32526C203.74 7.66852 203.647 8.08198 203.647 8.55005V16.008L203.663 15.9846Z" fill="#EDE6D6"/>
<path d="M200.491 6.5217L199.896 4.64941H207.546L209.247 6.4905L207.932 7.89472H207.368C207.043 7.55147 206.656 7.23162 206.223 6.94297C205.782 6.65433 205.318 6.5139 204.815 6.5139H200.484L200.491 6.5217ZM207.994 19.3625C207.654 19.2065 207.259 18.9958 206.819 18.7228C206.378 18.4576 206.045 18.2313 205.798 18.0597C205.828 17.693 205.859 17.3108 205.875 16.9129C205.89 16.5151 205.898 16.125 205.898 15.7427V15.2981C205.898 15.142 205.89 14.9938 205.875 14.8534L206.107 14.6974C206.447 14.869 206.826 15.0796 207.244 15.3371C207.654 15.5867 207.971 15.7973 208.195 15.9768C208.226 16.203 208.257 16.4292 208.273 16.6633C208.288 16.8973 208.296 17.1392 208.296 17.381C208.296 17.6774 208.288 17.9817 208.273 18.3015C208.257 18.6214 208.242 18.9256 208.219 19.2221L207.987 19.3547L207.994 19.3625ZM208.041 13.5896C207.7 13.418 207.306 13.1995 206.873 12.9421C206.432 12.6847 206.091 12.4662 205.852 12.2946C205.867 12.0684 205.883 11.8343 205.89 11.5769C205.898 11.3273 205.906 11.0854 205.906 10.8592C205.906 10.6329 205.906 10.3833 205.89 10.1181C205.883 9.85282 205.867 9.60318 205.852 9.37695L206.084 9.22092C206.424 9.39255 206.803 9.60318 207.221 9.86062C207.631 10.1103 207.948 10.3209 208.172 10.5003C208.257 11.0542 208.304 11.6237 208.304 12.2166V12.8407C208.304 13.0669 208.296 13.2776 208.28 13.4648L208.048 13.5974L208.041 13.5896Z" fill="#EDE6D6"/>
<path d="M215.072 19.3315C215.072 19.8853 214.933 20.4236 214.662 20.9463C214.383 21.469 213.966 21.8981 213.401 22.2491L211.699 20.3768C211.955 20.1896 212.179 19.9243 212.357 19.5967C212.535 19.269 212.628 18.8868 212.628 18.4499V6.65448C212.628 6.1006 212.767 5.56231 213.038 5.03183C213.308 4.50135 213.734 4.07228 214.298 3.74463L216 5.61692C215.745 5.78855 215.52 6.03819 215.343 6.37364C215.165 6.70129 215.072 7.09135 215.072 7.54382V19.3393V19.3315Z" fill="#EDE6D6"/>
</svg>
