<svg width="235" height="22" viewBox="0 0 235 22" fill="none" xmlns="http://www.w3.org/2000/svg">
<path d="M9.04802 6.96149C8.80746 7.12473 8.59019 7.37701 8.40395 7.70349C8.20995 8.02998 8.11684 8.42324 8.11684 8.86845V10.7457C8.11684 10.8125 8.10908 10.8793 8.09356 10.9461C8.43499 10.8941 8.77643 10.8719 9.10234 10.8719C9.68433 10.8719 10.2275 10.9164 10.7319 10.998C11.2285 11.0796 11.7252 11.2132 12.2063 11.3913V8.42324C12.2063 8.32678 12.214 8.23774 12.2296 8.1487L9.95593 5.77427L10.212 5.18066H19.7722L21.4793 6.96149C21.2233 7.12473 20.9982 7.37701 20.8197 7.70349C20.6413 8.02998 20.5482 8.42324 20.5482 8.86845V15.9621C20.5482 16.4889 20.455 16.9489 20.261 17.3496C20.067 17.7429 19.8808 18.0768 19.6946 18.3513C19.5083 18.6259 19.4075 18.8559 19.4075 19.0562C19.4075 19.2343 19.5238 19.4421 19.7566 19.6721C19.9894 19.9021 20.2533 20.1247 20.5559 20.3399C20.8585 20.5551 21.1146 20.7258 21.3164 20.8593L20.9051 21.401C20.6956 21.2823 20.3774 21.0893 19.9506 20.8074C19.5238 20.5254 19.0738 20.2138 18.6237 19.8576C18.1659 19.5014 17.7779 19.1527 17.4442 18.804C17.1183 18.4552 16.9553 18.1732 16.9553 17.9358C16.9553 17.6909 17.0485 17.4238 17.2424 17.1344C17.4287 16.845 17.6227 16.5111 17.8089 16.1179C17.9952 15.732 18.096 15.272 18.096 14.7452V8.69037C18.096 7.93352 18.3055 7.35475 18.7168 6.96149H15.5896C15.3335 7.12473 15.1085 7.37701 14.93 7.70349C14.7515 8.02998 14.6584 8.42324 14.6584 8.86845V15.9621C14.6584 16.4889 14.5653 16.9489 14.3713 17.3496C14.1773 17.7429 13.9911 18.0768 13.8048 18.3513C13.6186 18.6259 13.5177 18.8559 13.5177 19.0562C13.5177 19.2343 13.6341 19.4421 13.8669 19.6721C14.0997 19.9021 14.3635 20.1247 14.6662 20.3399C14.9688 20.5551 15.2249 20.7258 15.4266 20.8593L15.0154 21.401C14.8058 21.2823 14.4877 21.0893 14.0609 20.8074C13.6263 20.5254 13.184 20.2138 12.7262 19.8576C12.2684 19.5014 11.8804 19.1527 11.5467 18.804C11.213 18.4552 11.0578 18.1732 11.0578 17.9358C11.0578 17.6909 11.1509 17.4238 11.3449 17.1344C11.5312 16.845 11.7252 16.5111 11.9114 16.1179C12.0977 15.732 12.1985 15.272 12.1985 14.7452V12.7714C11.8183 12.7195 11.4303 12.6972 11.0345 12.6972C10.5146 12.6972 9.95593 12.7492 9.3429 12.8456C8.72987 12.9421 8.05476 13.1573 7.30981 13.4912C7.9306 14.0032 8.46603 14.5893 8.9161 15.2497C9.36618 15.9101 9.59121 16.5482 9.59121 17.179C9.59121 17.7577 9.44377 18.292 9.1489 18.7965C8.85402 19.3011 8.43499 19.7018 7.88404 20.006C7.33309 20.3102 6.66574 20.4661 5.88975 20.4661C5.11377 20.4661 4.36882 20.2731 3.60059 19.8873C2.83236 19.5014 2.13397 18.982 1.50542 18.3439C0.876874 17.6984 0.372482 16.986 -0.00775146 16.1921L0.690637 15.7988C1.29591 16.7041 1.87014 17.3719 2.42109 17.8022C2.97204 18.2326 3.56955 18.4478 4.20586 18.4478C4.81113 18.4478 5.33104 18.292 5.77335 17.9877C6.21567 17.6835 6.54934 17.2977 6.79766 16.8228C7.03821 16.3553 7.16237 15.8656 7.16237 15.3536C7.16237 14.5448 6.87526 14.1441 6.30879 14.1441C5.84319 14.1441 5.39312 14.2777 4.96633 14.5374C4.53953 14.8045 4.19034 15.1236 3.93426 15.502L1.40455 13.7509C1.61406 13.2908 1.98654 12.905 2.52973 12.5859C3.07292 12.2743 3.65491 12.1184 4.2757 12.1184C4.36106 12.1184 4.44642 12.1184 4.52401 12.1333C4.60161 12.1407 4.67921 12.1555 4.77233 12.1704C5.16808 11.8736 5.4164 11.4877 5.52504 11.0203C5.62592 10.5528 5.68024 10.1299 5.68024 9.74402V8.70521C5.68024 7.94836 5.88975 7.36959 6.30103 6.97633H4.98185C4.61713 6.97633 4.26794 7.10247 3.91874 7.36217C3.56955 7.62187 3.30571 7.889 3.11948 8.16354H2.55301L0.232805 5.77427L0.48888 5.18066H7.34085L9.04802 6.96149Z" fill="#EDE6D6"/>
<path d="M36.7818 18.9969C36.7818 19.175 36.8749 19.3753 37.0689 19.5756C37.2551 19.7834 37.4879 19.9763 37.7518 20.1692C38.0156 20.3622 38.2562 20.518 38.4657 20.6516L38.0544 21.1932C37.8449 21.0745 37.5422 20.8816 37.1387 20.5996C36.7352 20.3176 36.3084 20.006 35.8739 19.6573C35.4316 19.3085 35.0668 18.9672 34.7642 18.6333C34.4616 18.292 34.3141 18.01 34.3141 17.78C34.3141 17.6464 34.3917 17.4164 34.5625 17.0899C34.7254 16.7634 34.9194 16.3553 35.1444 15.8804C35.3695 15.4055 35.5635 14.8713 35.7264 14.2851C35.8894 13.6989 35.9748 13.0831 35.9748 12.4449C35.9748 12.2669 35.9127 12.111 35.7963 11.9775C35.6721 11.8439 35.5169 11.7771 35.3307 11.7771C34.8108 11.7771 34.2443 12.0294 33.6235 12.534C33.0027 13.0385 32.4673 13.6247 32.0172 14.3V15.9546C32.0172 16.4815 31.9474 16.9415 31.7999 17.3422C31.6525 17.7355 31.5051 18.0694 31.3576 18.3439C31.2102 18.6184 31.1404 18.8485 31.1404 19.0488C31.1404 19.2269 31.2412 19.4347 31.4352 19.6647C31.6292 19.8947 31.862 20.1173 32.1336 20.3325C32.3975 20.5477 32.6225 20.7183 32.7932 20.8519L32.3819 21.3936C32.1724 21.26 31.862 21.0448 31.4352 20.748C31.0162 20.4512 30.5739 20.1173 30.1316 19.7463C29.6815 19.3753 29.3245 19.0266 29.0452 18.6926C28.7503 18.8114 28.4322 18.8633 28.0907 18.8633C27.8502 18.8633 27.5087 18.7965 27.0664 18.663C26.6241 18.5294 26.1585 18.3439 25.6541 18.0916C25.1575 17.8468 24.6764 17.55 24.2185 17.2012C23.7607 16.8525 23.3882 16.4592 23.1089 16.014C22.8295 15.5688 22.6821 15.0939 22.6821 14.5819C22.6821 13.5802 22.8683 12.7343 23.2486 12.0591C23.6288 11.3839 24.1254 10.8719 24.7462 10.5305C25.367 10.1818 26.0499 10.0111 26.7871 10.0111C27.3535 10.0111 27.8734 10.0631 28.3546 10.1595C28.8279 10.256 29.2314 10.3747 29.5573 10.5083V8.68295C29.5573 7.9261 29.7669 7.34733 30.1781 6.95407H27.1052C26.6784 6.96891 26.2516 7.13215 25.8404 7.45121C25.4291 7.77028 25.1109 8.08192 24.8859 8.41582H24.3194L21.7587 5.77427L22.0147 5.18066H37.5267L39.2339 6.96149L37.7595 8.42324H37.1931C36.8283 8.05966 36.4559 7.72576 36.0679 7.42153C35.6799 7.11731 35.2531 6.96149 34.7875 6.96149H32.9484C32.6923 7.12473 32.4673 7.37701 32.2888 7.70349C32.1103 8.02998 32.0172 8.42324 32.0172 8.86845V10.5009C32.2733 10.3376 32.5449 10.2041 32.8165 10.1076C33.0881 10.0111 33.3519 9.9592 33.5925 9.9592C34.1124 9.9592 34.6478 10.0928 35.2065 10.3525C35.7652 10.6196 36.2851 10.9535 36.774 11.3542C37.2551 11.7549 37.6509 12.1852 37.9613 12.6304C38.2717 13.0756 38.4269 13.4689 38.4269 13.8176C38.4269 14.4409 38.3415 15.0494 38.1786 15.6356C38.0156 16.2218 37.8216 16.7486 37.6121 17.2309C37.3948 17.7058 37.2086 18.1065 37.0456 18.4181C36.8827 18.7297 36.7973 18.9301 36.7973 19.0117L36.7818 18.9969ZM25.7938 17.0454C26.174 17.0454 26.6008 16.9489 27.0897 16.7486C27.5708 16.5482 28.0364 16.2737 28.471 15.9175C28.9055 15.5614 29.2702 15.1607 29.5418 14.7155V11.8958C29.3866 11.881 29.2469 11.8662 29.115 11.8587C28.9831 11.8513 28.859 11.8439 28.7426 11.8439C28.1761 11.8439 27.6174 11.9997 27.0587 12.3114C26.5077 12.623 26.0499 13.0979 25.6929 13.736C25.3282 14.3667 25.1497 15.1829 25.1497 16.1698C25.1497 16.3998 25.2041 16.6002 25.3049 16.7783C25.4058 16.9489 25.5688 17.038 25.7938 17.038V17.0454Z" fill="#EDE6D6"/>
<path d="M54.9244 6.96169C54.6683 7.12493 54.4433 7.37721 54.2648 7.7037C54.0863 8.03018 53.9932 8.42345 53.9932 8.86865V15.9623C53.9932 16.4891 53.9001 16.9491 53.7061 17.3498C53.5199 17.7431 53.3259 18.077 53.1396 18.3515C52.9456 18.6261 52.8525 18.8561 52.8525 19.0564C52.8525 19.2345 52.9689 19.4423 53.2017 19.6723C53.4345 19.9023 53.6983 20.1249 54.001 20.3401C54.3036 20.5553 54.5597 20.726 54.7614 20.8595L54.3502 21.4012C54.1407 21.2825 53.8225 21.0895 53.3957 20.8076C52.9612 20.5256 52.5188 20.214 52.061 19.8578C51.6032 19.5016 51.2152 19.1529 50.8893 18.8042C50.5634 18.4554 50.4004 18.1734 50.4004 17.936C50.4004 17.6911 50.4935 17.424 50.6875 17.1346C50.8737 16.8453 51.0677 16.5113 51.254 16.1181C51.4402 15.7322 51.5411 15.2722 51.5411 14.7454V13.0387C51.1764 13.0387 50.7806 13.0684 50.3383 13.1352C49.896 13.202 49.4149 13.3281 48.8795 13.5062C48.9803 13.8179 49.0347 14.1221 49.0347 14.4189C49.0347 15.1089 48.8795 15.7619 48.5846 16.3852C48.2819 17.0011 47.8396 17.4982 47.2654 17.8841C46.6912 18.2625 45.985 18.4554 45.1625 18.4554C44.402 18.4554 43.6338 18.2402 42.85 17.8099C42.0663 17.3795 41.3446 16.8081 40.6928 16.0958C40.041 15.3761 39.5133 14.5747 39.1175 13.6843L39.8159 13.291C40.4522 14.3818 41.0653 15.1757 41.655 15.6729C42.237 16.1774 42.85 16.4297 43.4863 16.4297C44.1227 16.4297 44.7046 16.2442 45.1702 15.8732C45.6358 15.5022 45.9928 15.0199 46.2411 14.4263C46.4894 13.8327 46.6136 13.2242 46.6136 12.601C46.6136 11.7922 46.4118 11.3915 46.0161 11.3915C45.5505 11.3915 45.1004 11.5992 44.6736 12.0222C44.2468 12.4451 43.8976 12.9349 43.6415 13.4914L41.1118 11.7402C41.3369 11.065 41.7171 10.5011 42.2525 10.0484C42.788 9.59582 43.3622 9.3658 43.983 9.3658C44.5029 9.3658 45.1004 9.56614 45.791 9.97424C46.4817 10.3749 47.1024 10.8943 47.6534 11.5176C48.2742 11.3173 48.9338 11.2208 49.6399 11.2208C49.9814 11.2208 50.315 11.2357 50.6332 11.2579C50.9513 11.2802 51.254 11.3395 51.5489 11.4212V8.70541C51.5489 7.94856 51.7584 7.36979 52.1696 6.97653H44.4175C43.9675 6.97653 43.5329 7.13977 43.0984 7.45883C42.6638 7.7779 42.3301 8.10438 42.0896 8.43829H41.5231L38.9623 5.79673L39.2184 5.20312H53.225L54.9322 6.98395L54.9244 6.96169Z" fill="#EDE6D6"/>
<path d="M62.5989 10.0705L63.9724 11.8291L63.8715 12.1481H63.3051C62.7851 12.1481 62.2652 12.2891 61.7453 12.5785C61.2177 12.8679 60.7831 13.2834 60.4261 13.8251C60.0692 14.3667 59.8985 15.0345 59.8985 15.8285C59.8985 16.1253 59.9916 16.385 60.1856 16.6076C60.3718 16.8302 60.6667 16.9415 61.0625 16.9415C61.4582 16.9415 61.9316 16.845 62.4282 16.6447C62.9248 16.4444 63.4137 16.1772 63.887 15.8285C64.3604 15.4798 64.7406 15.0865 65.0355 14.6413V8.68295C65.0355 7.9261 65.245 7.34733 65.6563 6.95407H60.6434C60.1933 6.95407 59.7588 7.11731 59.3242 7.43637C58.8974 7.75544 58.556 8.08192 58.3155 8.41582H57.749L55.1882 5.77427L55.4443 5.18066H66.7116L68.4188 6.96149C68.1627 7.12473 67.9377 7.37701 67.7592 7.70349C67.5807 8.02998 67.4876 8.42324 67.4876 8.86845V15.9621C67.4876 16.4889 67.3945 16.9489 67.2005 17.3496C67.0143 17.7429 66.8203 18.0768 66.634 18.3513C66.4478 18.6259 66.3469 18.8559 66.3469 19.0562C66.3469 19.2343 66.4633 19.4421 66.6961 19.6721C66.9289 19.9021 67.1928 20.1247 67.4954 20.3399C67.798 20.5551 68.0541 20.7258 68.2559 20.8593L67.8446 21.401C67.6195 21.2674 67.2781 21.0522 66.8125 20.748C66.3469 20.4438 65.8736 20.1025 65.3925 19.724C64.9113 19.3456 64.5234 18.982 64.2285 18.6333C63.9181 18.7297 63.6155 18.7817 63.3206 18.7817C63.0412 18.7817 62.6687 18.7149 62.1954 18.5739C61.722 18.4329 61.2099 18.2326 60.6589 17.9803C60.108 17.728 59.5881 17.409 59.0914 17.038C58.6026 16.667 58.1991 16.244 57.8731 15.7766C57.555 15.3091 57.392 14.7971 57.392 14.2554C57.392 13.8251 57.4619 13.4392 57.6093 13.0831C57.7567 12.7269 57.9585 12.4227 58.2146 12.1555H56.6083L55.2348 10.397L55.3357 10.0779H62.5756L62.5989 10.0705Z" fill="#EDE6D6"/>
<path d="M71.6237 6.63516C71.3133 6.3532 70.9951 5.95993 70.6692 5.44795C70.3433 4.93596 70.1803 4.44623 70.1803 3.96393C70.1803 3.35548 70.4597 2.79155 71.0106 2.27215C71.5616 1.75274 72.291 1.33722 73.1912 1.02557C74.0991 0.713927 75.069 0.558105 76.1011 0.558105C76.8771 0.558105 77.7307 0.773288 78.6619 1.21107C79.593 1.64886 80.5242 2.24247 81.4632 3.00674C82.4021 3.76358 83.2712 4.62432 84.0627 5.57409L83.5428 5.96735C82.5418 4.89886 81.5718 4.06781 80.6251 3.48162C79.6784 2.89543 78.6929 2.60605 77.6764 2.60605C76.6598 2.60605 75.8295 2.73961 75.0923 3.01416C74.3474 3.2887 73.7731 3.63744 73.3619 4.06781C72.9506 4.49817 72.7411 4.93596 72.7411 5.38117C72.7411 5.79669 72.873 6.18996 73.1446 6.58322C73.4084 6.96906 73.7033 7.28813 74.0137 7.53299C73.7576 7.69623 73.5326 7.94852 73.3541 8.275C73.1756 8.60148 73.0825 8.99475 73.0825 9.43995V15.9622C73.0825 16.489 72.9894 16.9491 72.7954 17.3498C72.6092 17.743 72.4152 18.0769 72.2289 18.3515C72.0349 18.626 71.9418 18.8561 71.9418 19.0564C71.9418 19.2345 72.0582 19.4422 72.291 19.6723C72.5238 19.9023 72.7876 20.1249 73.0903 20.3401C73.3929 20.5553 73.649 20.7259 73.8507 20.8595L73.4395 21.4011C73.23 21.2824 72.9118 21.0895 72.485 20.8075C72.0505 20.5256 71.6081 20.2139 71.1503 19.8578C70.6925 19.5016 70.3045 19.1529 69.9708 18.8041C69.6371 18.4554 69.4819 18.1734 69.4819 17.936C69.4819 17.6911 69.5751 17.424 69.7691 17.1346C69.9553 16.8452 70.1493 16.5113 70.3355 16.118C70.5218 15.7322 70.6226 15.2721 70.6226 14.7453V9.06153C70.6226 8.50502 70.708 8.03756 70.871 7.66655C71.0339 7.29555 71.29 6.95422 71.6314 6.64258L71.6237 6.63516Z" fill="#EDE6D6"/>
<path d="M85.1646 15.9546C85.1646 16.4815 85.0715 16.9415 84.8775 17.3422C84.6835 17.7355 84.4973 18.0694 84.311 18.3439C84.1248 18.6184 84.0239 18.8485 84.0239 19.0488C84.0239 19.2269 84.1403 19.4347 84.3731 19.6647C84.6059 19.8947 84.8697 20.1173 85.1724 20.3325C85.475 20.5477 85.7311 20.7183 85.9328 20.8519L85.5216 21.3936C85.312 21.2748 84.9939 21.0819 84.5671 20.8C84.1403 20.518 83.6902 20.2063 83.2402 19.8502C82.7823 19.494 82.3943 19.1453 82.0607 18.7965C81.7347 18.4478 81.5718 18.1658 81.5718 17.9284C81.5718 17.6835 81.6649 17.4164 81.8589 17.127C82.0451 16.8376 82.2391 16.5037 82.4254 16.1105C82.6116 15.7246 82.7125 15.2646 82.7125 14.7377V12.0442C82.5418 12.0294 82.3555 12.0146 82.1693 12.0071C81.9831 11.9997 81.7891 11.9923 81.6028 11.9923C80.951 11.9923 80.3302 12.2223 79.7405 12.6824C79.1585 13.1424 78.6774 13.7434 78.3049 14.4855C77.9324 15.2275 77.7462 16.0288 77.7462 16.8821C77.7462 17.4906 77.9479 18.1065 78.3514 18.7372C78.7549 19.3679 79.3602 19.9837 80.175 20.5922L79.6551 21.1339C78.2971 20.2138 77.2107 19.2566 76.3959 18.2697C75.5889 17.2828 75.1776 16.3702 75.1776 15.5243C75.1776 14.5226 75.4027 13.6099 75.8528 12.7937C76.3028 11.9775 76.8848 11.3245 77.6065 10.8422C78.3282 10.3599 79.0886 10.115 79.8801 10.115C80.4 10.115 80.8889 10.1447 81.3545 10.2115C81.8201 10.2783 82.2702 10.3747 82.697 10.5083V8.68295C82.697 7.9261 82.9065 7.34733 83.3178 6.95407H79.7017C79.2516 6.95407 78.817 7.11731 78.3825 7.43637C77.9557 7.75544 77.6142 8.08192 77.3737 8.41582H76.8072L74.2465 5.77427L74.5025 5.18066H84.3731L86.0803 6.96149C85.8242 7.12473 85.5992 7.37701 85.4207 7.70349C85.2422 8.02998 85.1491 8.42324 85.1491 8.86845V15.9621L85.1646 15.9546Z" fill="#EDE6D6"/>
<path d="M94.9343 8.69076C94.9343 7.93391 95.1438 7.35514 95.5551 6.96188H91.7062C91.2794 6.97672 90.8526 7.13996 90.4413 7.45902C90.03 7.77809 89.7119 8.08973 89.4868 8.42364H88.9204L86.3596 5.78208L86.6157 5.18848H96.6182L98.3253 6.9693C98.0693 7.13254 97.8442 7.38482 97.6658 7.71131C97.4873 8.03779 97.3942 8.43106 97.3942 8.87626V15.9699C97.3942 16.4967 97.301 16.9567 97.107 17.3574C96.9208 17.7507 96.7268 18.0846 96.5406 18.3591C96.3466 18.6337 96.2535 18.8637 96.2535 19.064C96.2535 19.2421 96.3699 19.4499 96.6026 19.6799C96.8354 19.9099 97.0993 20.1325 97.4019 20.3477C97.7046 20.5629 97.9606 20.7336 98.1624 20.8671L97.7511 21.4088C97.5416 21.2752 97.2157 21.0601 96.7579 20.7632C96.3 20.4664 95.8344 20.1325 95.3456 19.7615C94.8644 19.3905 94.4764 19.0418 94.1816 18.7079C93.941 18.7895 93.6927 18.8637 93.4289 18.9156C93.1728 18.975 92.9167 19.0047 92.6762 19.0047C92.4356 19.0047 92.0942 18.9379 91.6519 18.8043C91.2095 18.6708 90.7439 18.4779 90.2396 18.2256C89.7429 17.9733 89.2618 17.6616 88.804 17.2981C88.3461 16.9345 87.9737 16.5264 87.6943 16.0738C87.4072 15.6211 87.2675 15.1314 87.2675 14.6046C87.2675 13.5806 87.4693 12.7273 87.8728 12.0372C88.2763 11.3472 88.8117 10.8203 89.4791 10.4567C90.1387 10.0932 90.8603 9.91507 91.6363 9.91507C92.3114 9.91507 92.9322 9.96701 93.4987 10.0635C94.0652 10.1599 94.5385 10.2787 94.9188 10.4122V8.7056L94.9343 8.69076ZM90.6663 17.1645C91.0931 17.1645 91.582 17.068 92.1252 16.8677C92.6684 16.6674 93.1961 16.3928 93.7005 16.0366C94.2049 15.6805 94.6161 15.2798 94.9265 14.8346V11.822C94.6704 11.7924 94.4299 11.7627 94.2126 11.7478C93.9953 11.733 93.7936 11.7256 93.6073 11.7256C92.9555 11.7256 92.327 11.8962 91.7372 12.245C91.1397 12.5937 90.6664 13.0909 90.3016 13.7513C89.9369 14.4116 89.7584 15.2204 89.7584 16.1702C89.7584 16.4373 89.8283 16.6674 89.9757 16.8603C90.1232 17.0532 90.3482 17.1571 90.6586 17.1571L90.6663 17.1645Z" fill="#EDE6D6"/>
<path d="M103.028 15.9547C103.028 16.4816 102.935 16.9416 102.741 17.3423C102.554 17.7356 102.361 18.0695 102.174 18.344C101.988 18.6185 101.887 18.8486 101.887 19.0489C101.887 19.227 102.004 19.4348 102.236 19.6648C102.469 19.8948 102.733 20.1174 103.036 20.3326C103.338 20.5478 103.594 20.7184 103.796 20.852L103.385 21.3937C103.175 21.2749 102.857 21.082 102.43 20.8001C102.004 20.5181 101.553 20.2064 101.103 19.8503C100.646 19.4941 100.258 19.1454 99.9239 18.7966C99.598 18.4479 99.435 18.1659 99.435 17.9285C99.435 17.6836 99.5281 17.4165 99.7221 17.1271C99.9084 16.8377 100.102 16.5038 100.289 16.1106C100.475 15.7247 100.576 15.2647 100.576 14.7378V8.68304C100.576 7.92619 100.785 7.34743 101.197 6.95416H96.0828L95.5163 5.17334H102.26L103.967 6.95416C103.711 7.1174 103.486 7.36969 103.307 7.69617C103.129 8.02266 103.036 8.41592 103.036 8.86113V15.9547H103.028Z" fill="#EDE6D6"/>
<path d="M115.692 15.9549C115.692 16.4818 115.599 16.9418 115.405 17.3425C115.211 17.7358 115.025 18.0697 114.838 18.3442C114.644 18.6187 114.551 18.8488 114.551 19.0491C114.551 19.2272 114.668 19.435 114.9 19.665C115.133 19.895 115.397 20.1176 115.7 20.3328C116.002 20.548 116.258 20.7186 116.46 20.8522L116.049 21.3939C115.839 21.2751 115.521 21.0822 115.094 20.8003C114.66 20.5183 114.218 20.2066 113.76 19.8505C113.302 19.4943 112.914 19.1456 112.58 18.7968C112.247 18.4481 112.091 18.1661 112.091 17.9287C112.091 17.6838 112.185 17.4167 112.378 17.1273C112.565 16.8379 112.759 16.504 112.945 16.1108C113.131 15.7249 113.232 15.2649 113.232 14.738V12.1707C112.766 12.1187 112.316 12.0965 111.89 12.0965C111.525 12.0965 111.129 12.1929 110.687 12.3933C110.245 12.5936 109.88 12.9275 109.585 13.4098C109.616 13.8254 109.647 14.2854 109.678 14.7974C109.701 15.3094 109.725 15.7991 109.74 16.2814C109.756 16.7637 109.763 17.1644 109.763 17.4909C109.763 17.8396 109.663 18.1439 109.453 18.4036C109.244 18.6707 108.972 18.7968 108.623 18.7968C108.343 18.7968 108.01 18.7078 107.598 18.5371C107.195 18.3665 106.791 18.1439 106.396 17.8693C106 17.5948 105.666 17.2905 105.402 16.9566C105.139 16.6153 104.999 16.2963 104.999 15.9772C104.999 15.2871 105.131 14.6045 105.402 13.9292C105.666 13.254 106.046 12.6382 106.528 12.0891C107.009 11.54 107.567 11.0948 108.211 10.7534C108.848 10.4195 109.531 10.2489 110.252 10.2489C110.803 10.2489 111.315 10.2934 111.789 10.375C112.262 10.4566 112.743 10.5828 113.224 10.746V8.69808C113.224 7.94123 113.434 7.36247 113.845 6.9692H109.5C109.073 6.99888 108.654 7.17696 108.258 7.48861C107.862 7.80025 107.552 8.1119 107.327 8.43096H106.76L104.2 5.78941L104.456 5.1958H114.9L116.608 6.97662C116.352 7.13986 116.127 7.39215 115.948 7.71863C115.77 8.04512 115.676 8.43838 115.676 8.88359V15.9772L115.692 15.9549Z" fill="#EDE6D6"/>
<path d="M122.668 19.1453C122.668 19.6721 122.528 20.1841 122.257 20.6738C121.977 21.1709 121.558 21.5791 120.992 21.913L119.285 20.1321C119.541 19.9541 119.766 19.7018 119.944 19.3901C120.123 19.0785 120.216 18.7149 120.216 18.2994V7.08019C120.216 6.55337 120.356 6.04138 120.627 5.53682C120.899 5.03225 121.326 4.62414 121.892 4.3125L123.599 6.09332C123.343 6.25656 123.118 6.49401 122.94 6.81307C122.761 7.12471 122.668 7.49572 122.668 7.92608V19.1453Z" fill="#EDE6D6"/>
<path d="M137.373 6.96149C137.132 7.12473 136.915 7.37701 136.729 7.70349C136.535 8.02998 136.442 8.42324 136.442 8.86845V10.7457C136.442 10.8125 136.434 10.8793 136.419 10.9461C136.76 10.8941 137.101 10.8719 137.427 10.8719C138.009 10.8719 138.553 10.9164 139.057 10.998C139.554 11.0796 140.05 11.2132 140.531 11.3913V8.42324C140.531 8.32678 140.539 8.23774 140.555 8.1487L138.281 5.77427L138.537 5.18066H142.207L143.915 6.96149C143.659 7.12473 143.433 7.37701 143.255 7.70349C143.077 8.02998 142.983 8.42324 142.983 8.86845V15.9621C142.983 16.4889 142.89 16.9489 142.696 17.3496C142.502 17.7429 142.316 18.0768 142.13 18.3513C141.944 18.6259 141.843 18.8559 141.843 19.0562C141.843 19.2343 141.959 19.4421 142.192 19.6721C142.425 19.9021 142.689 20.1247 142.991 20.3399C143.294 20.5551 143.55 20.7258 143.752 20.8593L143.34 21.401C143.131 21.2823 142.813 21.0893 142.386 20.8074C141.951 20.5254 141.509 20.2138 141.051 19.8576C140.593 19.5014 140.205 19.1527 139.872 18.804C139.538 18.4552 139.383 18.1732 139.383 17.9358C139.383 17.6909 139.476 17.4238 139.67 17.1344C139.856 16.845 140.05 16.5111 140.236 16.1179C140.423 15.732 140.524 15.272 140.524 14.7452V12.7714C140.143 12.7195 139.755 12.6972 139.36 12.6972C138.84 12.6972 138.281 12.7492 137.668 12.8456C137.055 12.9421 136.38 13.1573 135.635 13.4912C136.256 14.0032 136.791 14.5893 137.241 15.2497C137.691 15.9101 137.916 16.5482 137.916 17.179C137.916 17.7577 137.769 18.292 137.474 18.7965C137.179 19.3011 136.76 19.7018 136.209 20.006C135.658 20.3102 134.991 20.4661 134.215 20.4661C133.439 20.4661 132.694 20.2731 131.926 19.8873C131.157 19.5014 130.459 18.982 129.83 18.3439C129.202 17.6984 128.697 16.986 128.317 16.1921L129.016 15.7988C129.621 16.7041 130.195 17.3719 130.746 17.8022C131.297 18.2326 131.895 18.4478 132.531 18.4478C133.136 18.4478 133.656 18.292 134.098 17.9877C134.541 17.6835 134.874 17.2977 135.123 16.8228C135.363 16.3553 135.487 15.8656 135.487 15.3536C135.487 14.5448 135.2 14.1441 134.634 14.1441C134.168 14.1441 133.718 14.2777 133.291 14.5374C132.865 14.8045 132.515 15.1236 132.259 15.502L129.73 13.7509C129.939 13.2908 130.312 12.905 130.855 12.5859C131.398 12.2743 131.98 12.1184 132.601 12.1184C132.686 12.1184 132.771 12.1184 132.849 12.1333C132.927 12.1407 133.004 12.1555 133.097 12.1704C133.493 11.8736 133.741 11.4877 133.85 11.0203C133.951 10.5528 134.005 10.1299 134.005 9.74402V8.70521C134.005 7.94836 134.215 7.36959 134.626 6.97633H133.307C132.942 6.97633 132.593 7.10247 132.244 7.36217C131.895 7.62187 131.631 7.889 131.444 8.16354H130.878L128.581 5.78911L128.837 5.1955H135.689L137.396 6.97633L137.373 6.96149Z" fill="#B2462D"/>
<path d="M157.254 6.96144C156.998 7.12468 156.773 7.37696 156.594 7.70345C156.416 8.02993 156.323 8.4232 156.323 8.8684V15.962C156.323 16.4888 156.23 16.9489 156.036 17.3496C155.842 17.7428 155.655 18.0767 155.469 18.3513C155.283 18.6258 155.182 18.8558 155.182 19.0562C155.182 19.2343 155.298 19.442 155.531 19.6721C155.764 19.9021 156.028 20.1247 156.33 20.3399C156.633 20.555 156.889 20.7257 157.091 20.8593L156.68 21.4009C156.47 21.2822 156.152 21.0893 155.725 20.8073C155.298 20.5254 154.848 20.2137 154.398 19.8576C153.94 19.5014 153.552 19.1526 153.219 18.8039C152.885 18.4552 152.73 18.1732 152.73 17.9358C152.73 17.6909 152.823 17.4238 153.017 17.1344C153.203 16.845 153.397 16.5111 153.583 16.1178C153.77 15.732 153.871 15.2719 153.871 14.7451V13.4614C153.77 13.4466 153.661 13.4392 153.56 13.4392H153.273C152.722 13.4392 152.148 13.4911 151.558 13.6024C150.961 13.7137 150.394 13.9289 149.843 14.2554V18.1138C149.843 18.4403 149.742 18.7445 149.533 19.0191C149.323 19.2936 149.052 19.4272 148.702 19.4272C148.446 19.4272 148.128 19.3233 147.756 19.1081C147.383 18.8929 147.011 18.611 146.646 18.2697C146.281 17.9283 145.963 17.5425 145.715 17.1195C145.467 16.6966 145.342 16.2811 145.342 15.873C145.342 15.3313 145.521 14.7822 145.886 14.2331C146.25 13.684 146.747 13.2017 147.383 12.7862V9.92206C147.042 9.69203 146.662 9.40265 146.258 9.05391C145.855 8.70516 145.513 8.35642 145.234 8.00025C144.954 7.64409 144.823 7.3547 144.823 7.12468C144.823 6.73142 144.978 6.33815 145.288 5.95231C145.598 5.56646 145.948 5.23998 146.351 4.97285C146.747 4.71315 147.065 4.57959 147.306 4.57959C147.461 4.57959 147.678 4.66863 147.95 4.85413C148.221 5.03222 148.508 5.25482 148.803 5.52194C149.098 5.78906 149.339 6.04135 149.541 6.28621C149.735 6.53107 149.835 6.71658 149.835 6.82788V11.7919C150.076 11.74 150.324 11.7029 150.573 11.6658C150.821 11.6361 151.077 11.6138 151.333 11.6138C151.799 11.6138 152.241 11.6435 152.652 11.7029C153.063 11.7622 153.467 11.8439 153.871 11.9626V8.69774C153.871 7.94089 154.08 7.36212 154.491 6.96886H153.692C153.413 6.9837 153.18 7.05048 152.978 7.15436C152.776 7.25824 152.629 7.38438 152.528 7.51053H152.039L150.309 5.68518L150.518 5.18804H155.562L157.269 6.96886L157.254 6.96144Z" fill="#B2462D"/>
<path d="M160.459 6.63516C160.148 6.3532 159.83 5.95993 159.504 5.44795C159.178 4.93596 159.015 4.44623 159.015 3.96393C159.015 3.35548 159.295 2.79155 159.846 2.27215C160.397 1.75274 161.126 1.33722 162.026 1.02557C162.934 0.713927 163.904 0.558105 164.936 0.558105C165.712 0.558105 166.566 0.773288 167.497 1.21107C168.428 1.64886 169.359 2.24247 170.298 3.00674C171.237 3.76358 172.106 4.62432 172.898 5.57409L172.378 5.96735C171.377 4.89886 170.407 4.06781 169.46 3.48162C168.513 2.89543 167.528 2.60605 166.511 2.60605C165.495 2.60605 164.665 2.73961 163.927 3.01416C163.182 3.2887 162.608 3.63744 162.197 4.06781C161.786 4.49817 161.576 4.93596 161.576 5.38117C161.576 5.79669 161.708 6.18996 161.98 6.58322C162.243 6.96906 162.538 7.28813 162.849 7.53299C162.593 7.69623 162.368 7.94852 162.189 8.275C162.011 8.60148 161.918 8.99475 161.918 9.43995V15.9622C161.918 16.489 161.824 16.9491 161.63 17.3498C161.444 17.743 161.25 18.0769 161.064 18.3515C160.87 18.626 160.777 18.8561 160.777 19.0564C160.777 19.2345 160.893 19.4422 161.126 19.6723C161.359 19.9023 161.623 20.1249 161.925 20.3401C162.228 20.5553 162.484 20.7259 162.686 20.8595L162.274 21.4011C162.065 21.2824 161.747 21.0895 161.32 20.8075C160.885 20.5256 160.443 20.2139 159.985 19.8578C159.527 19.5016 159.139 19.1529 158.806 18.8041C158.472 18.4554 158.317 18.1734 158.317 17.936C158.317 17.6911 158.41 17.424 158.604 17.1346C158.79 16.8452 158.984 16.5113 159.171 16.118C159.357 15.7322 159.458 15.2721 159.458 14.7453V9.06153C159.458 8.50502 159.543 8.03756 159.706 7.66655C159.869 7.29555 160.125 6.95422 160.466 6.64258L160.459 6.63516Z" fill="#B2462D"/>
<path d="M171.672 8.69076C171.672 7.93391 171.881 7.35514 172.292 6.96188H168.444C168.017 6.97672 167.59 7.13996 167.179 7.45902C166.767 7.77809 166.449 8.08973 166.224 8.42364H165.658L163.097 5.78208L163.353 5.18848H173.356L175.063 6.9693C174.807 7.13254 174.582 7.38482 174.403 7.71131C174.225 8.03779 174.132 8.43106 174.132 8.87626V15.9699C174.132 16.4967 174.038 16.9567 173.844 17.3574C173.658 17.7507 173.464 18.0846 173.278 18.3591C173.084 18.6337 172.991 18.8637 172.991 19.064C172.991 19.2421 173.107 19.4499 173.34 19.6799C173.573 19.9099 173.837 20.1325 174.139 20.3477C174.442 20.5629 174.698 20.7336 174.9 20.8671L174.489 21.4088C174.279 21.2752 173.953 21.0601 173.495 20.7632C173.037 20.4664 172.572 20.1325 172.083 19.7615C171.602 19.3905 171.214 19.0418 170.919 18.7079C170.678 18.7895 170.43 18.8637 170.166 18.9156C169.91 18.975 169.654 19.0047 169.414 19.0047C169.173 19.0047 168.832 18.9379 168.389 18.8043C167.947 18.6708 167.481 18.4779 166.977 18.2256C166.48 17.9733 165.999 17.6616 165.541 17.2981C165.084 16.9345 164.711 16.5264 164.432 16.0738C164.145 15.6211 164.005 15.1314 164.005 14.6046C164.005 13.5806 164.207 12.7273 164.61 12.0372C165.014 11.3472 165.549 10.8203 166.217 10.4567C166.876 10.0932 167.598 9.91507 168.374 9.91507C169.049 9.91507 169.67 9.96701 170.236 10.0635C170.803 10.1599 171.276 10.2787 171.656 10.4122V8.7056L171.672 8.69076ZM167.412 17.1645C167.838 17.1645 168.327 17.068 168.87 16.8677C169.414 16.6674 169.941 16.3928 170.446 16.0366C170.95 15.6805 171.361 15.2798 171.672 14.8346V11.822C171.416 11.7924 171.175 11.7627 170.958 11.7478C170.741 11.733 170.539 11.7256 170.353 11.7256C169.701 11.7256 169.072 11.8962 168.482 12.245C167.885 12.5937 167.412 13.0909 167.047 13.7513C166.682 14.4116 166.504 15.2204 166.504 16.1702C166.504 16.4373 166.573 16.6674 166.721 16.8603C166.868 17.0532 167.093 17.1571 167.404 17.1571L167.412 17.1645Z" fill="#B2462D"/>
<path d="M180.929 8.69076C180.929 7.93391 181.139 7.35514 181.55 6.96188H180.774C180.324 6.96188 179.889 7.12512 179.455 7.44418C179.028 7.76325 178.687 8.08973 178.446 8.42364H177.88L175.319 5.78208L175.575 5.18848H188.216L189.923 6.9693C189.667 7.13254 189.442 7.38482 189.263 7.72615C189.085 8.06747 188.992 8.49784 188.992 9.02466V15.4727C188.992 15.9995 188.899 16.4596 188.705 16.8603C188.518 17.2535 188.324 17.5874 188.138 17.862C187.944 18.1365 187.851 18.3666 187.851 18.5669C187.851 18.7969 187.983 19.064 188.255 19.3609C188.518 19.6577 188.829 19.9396 189.17 20.2142C189.512 20.4887 189.799 20.7039 190.024 20.8671L189.613 21.4088C189.388 21.2752 189.054 21.0526 188.604 20.741C188.154 20.4293 187.688 20.0732 187.191 19.6651C186.703 19.2644 186.284 18.8637 185.934 18.4779C185.585 18.092 185.407 17.7655 185.391 17.4984C184.964 17.6988 184.545 17.9436 184.134 18.2404C183.731 18.5372 183.343 18.9008 182.986 19.3312C182.621 19.3312 182.171 19.2273 181.612 19.0195C181.061 18.8118 180.487 18.5372 179.882 18.1811C179.276 17.8249 178.718 17.4168 178.19 16.9567C177.662 16.4967 177.236 16.0144 176.894 15.5098C176.56 15.0053 176.39 14.5007 176.39 13.9887C176.39 13.3135 176.599 12.7495 177.011 12.3043C177.422 11.8591 178.074 11.5475 178.95 11.362L180.914 10.939V8.69076H180.929ZM186.532 8.69076C186.532 7.93391 186.741 7.35514 187.153 6.96188H184.313C184.056 7.12512 183.831 7.3774 183.653 7.70389C183.474 8.03037 183.381 8.42364 183.381 8.86884V12.7495L181.03 13.3951C180.324 13.5954 179.804 13.8626 179.478 14.2113C179.152 14.5601 178.989 14.9904 178.989 15.5247C178.989 15.9995 179.199 16.4151 179.61 16.7638C180.021 17.1126 180.456 17.3426 180.906 17.4539C181.682 16.7119 182.536 16.0886 183.474 15.5914C184.413 15.0943 185.422 14.7381 186.509 14.5378C186.524 14.4859 186.532 14.3968 186.532 14.2632V8.7056V8.69076Z" fill="#B2462D"/>
<path d="M205.225 18.9969C205.225 19.175 205.318 19.3753 205.512 19.5756C205.699 19.7834 205.932 19.9763 206.195 20.1692C206.459 20.3622 206.7 20.518 206.909 20.6516L206.498 21.1932C206.288 21.0745 205.986 20.8816 205.582 20.5996C205.179 20.3176 204.752 20.006 204.317 19.6573C203.875 19.3085 203.51 18.9672 203.208 18.6333C202.905 18.292 202.758 18.01 202.758 17.78C202.758 17.6464 202.835 17.4164 203.006 17.0899C203.169 16.7634 203.363 16.3553 203.588 15.8804C203.813 15.4055 204.007 14.8713 204.17 14.2851C204.333 13.6989 204.418 13.0831 204.418 12.4449C204.418 12.2669 204.356 12.111 204.24 11.9775C204.116 11.8439 203.961 11.7771 203.774 11.7771C203.254 11.7771 202.688 12.0294 202.067 12.534C201.446 13.0385 200.911 13.6247 200.461 14.3V15.9546C200.461 16.4815 200.391 16.9415 200.244 17.3422C200.096 17.7355 199.949 18.0694 199.801 18.3439C199.654 18.6184 199.584 18.8485 199.584 19.0488C199.584 19.2269 199.685 19.4347 199.879 19.6647C200.073 19.8947 200.306 20.1173 200.577 20.3325C200.841 20.5477 201.066 20.7183 201.237 20.8519L200.826 21.3936C200.616 21.26 200.306 21.0448 199.879 20.748C199.46 20.4512 199.017 20.1173 198.575 19.7463C198.125 19.3753 197.768 19.0266 197.489 18.6926C197.194 18.8114 196.876 18.8633 196.534 18.8633C196.294 18.8633 195.952 18.7965 195.51 18.663C195.068 18.5294 194.602 18.3439 194.098 18.0916C193.601 17.8468 193.12 17.55 192.662 17.2012C192.204 16.8525 191.832 16.4592 191.552 16.014C191.273 15.5688 191.126 15.0939 191.126 14.5819C191.126 13.5802 191.312 12.7343 191.692 12.0591C192.072 11.3839 192.569 10.8719 193.19 10.5305C193.811 10.1818 194.493 10.0111 195.231 10.0111C195.797 10.0111 196.317 10.0631 196.798 10.1595C197.272 10.256 197.675 10.3747 198.001 10.5083V8.68295C198.001 7.9261 198.21 7.34733 198.622 6.95407H195.549C195.122 6.96891 194.695 7.13215 194.284 7.45121C193.873 7.77028 193.555 8.08192 193.329 8.41582H192.763L190.202 5.77427L190.458 5.18066H205.97L207.678 6.96149L206.203 8.42324H205.637C205.272 8.05966 204.899 7.72576 204.511 7.42153C204.123 7.11731 203.697 6.96149 203.231 6.96149H201.392C201.136 7.12473 200.911 7.37701 200.732 7.70349C200.554 8.02998 200.461 8.42324 200.461 8.86845V10.5009C200.717 10.3376 200.988 10.2041 201.26 10.1076C201.532 10.0111 201.796 9.9592 202.036 9.9592C202.556 9.9592 203.091 10.0928 203.65 10.3525C204.209 10.6196 204.729 10.9535 205.218 11.3542C205.699 11.7549 206.094 12.1852 206.405 12.6304C206.715 13.0756 206.87 13.4689 206.87 13.8176C206.87 14.4409 206.785 15.0494 206.622 15.6356C206.459 16.2218 206.265 16.7486 206.056 17.2309C205.838 17.7058 205.652 18.1065 205.489 18.4181C205.326 18.7297 205.241 18.9301 205.241 19.0117L205.225 18.9969ZM194.237 17.0454C194.618 17.0454 195.044 16.9489 195.533 16.7486C196.014 16.5482 196.48 16.2737 196.915 15.9175C197.349 15.5614 197.714 15.1607 197.985 14.7155V11.8958C197.83 11.881 197.691 11.8662 197.559 11.8587C197.427 11.8513 197.303 11.8439 197.186 11.8439C196.62 11.8439 196.061 11.9997 195.502 12.3114C194.951 12.623 194.493 13.0979 194.137 13.736C193.772 14.3667 193.593 15.1829 193.593 16.1698C193.593 16.3998 193.648 16.6002 193.749 16.7783C193.849 16.9489 194.012 17.038 194.237 17.038V17.0454Z" fill="#B2462D"/>
<path d="M218.433 15.9546C218.433 16.4815 218.34 16.9415 218.146 17.3422C217.952 17.7355 217.765 18.0694 217.579 18.3439C217.393 18.6184 217.292 18.8485 217.292 19.0488C217.292 19.2269 217.408 19.4347 217.641 19.6647C217.874 19.8947 218.138 20.1173 218.44 20.3325C218.743 20.5477 218.999 20.7183 219.201 20.8519L218.79 21.3936C218.58 21.2748 218.262 21.0819 217.835 20.8C217.408 20.518 216.958 20.2063 216.508 19.8502C216.05 19.494 215.662 19.1453 215.329 18.7965C215.003 18.4478 214.84 18.1658 214.84 17.9284C214.84 17.6835 214.933 17.4164 215.127 17.127C215.313 16.8376 215.507 16.5037 215.693 16.1105C215.88 15.7246 215.981 15.2646 215.981 14.7377V12.0442C215.81 12.0294 215.624 12.0146 215.437 12.0071C215.251 11.9997 215.057 11.9923 214.871 11.9923C214.219 11.9923 213.598 12.2223 213.009 12.6824C212.427 13.1424 211.945 13.7434 211.573 14.4855C211.2 15.2275 211.014 16.0288 211.014 16.8821C211.014 17.4906 211.216 18.1065 211.619 18.7372C212.023 19.3679 212.628 19.9837 213.443 20.5922L212.923 21.1339C211.565 20.2138 210.479 19.2566 209.664 18.2697C208.857 17.2828 208.446 16.3702 208.446 15.5243C208.446 14.5226 208.671 13.6099 209.121 12.7937C209.571 11.9775 210.153 11.3245 210.875 10.8422C211.596 10.3599 212.357 10.115 213.148 10.115C213.668 10.115 214.157 10.1447 214.623 10.2115C215.088 10.2783 215.538 10.3747 215.965 10.5083V8.68295C215.965 7.9261 216.175 7.34733 216.586 6.95407H212.97C212.52 6.95407 212.085 7.11731 211.651 7.43637C211.224 7.75544 210.882 8.08192 210.642 8.41582H210.075L207.515 5.77427L207.771 5.18066H217.641L219.348 6.96149C219.092 7.12473 218.867 7.37701 218.689 7.70349C218.51 8.02998 218.417 8.42324 218.417 8.86845V15.9621L218.433 15.9546Z" fill="#B2462D"/>
<path d="M222.569 6.63516C222.258 6.3532 221.94 5.95993 221.614 5.44795C221.288 4.93596 221.125 4.44623 221.125 3.96393C221.125 3.35548 221.405 2.79155 221.956 2.27215C222.507 1.75274 223.236 1.33722 224.136 1.02557C225.044 0.713927 226.014 0.558105 227.046 0.558105C227.822 0.558105 228.676 0.773288 229.607 1.21107C230.538 1.64886 231.469 2.24247 232.408 3.00674C233.347 3.76358 234.216 4.62432 235.008 5.57409L234.488 5.96735C233.487 4.89886 232.517 4.06781 231.57 3.48162C230.623 2.89543 229.638 2.60605 228.621 2.60605C227.605 2.60605 226.775 2.73961 226.037 3.01416C225.292 3.2887 224.718 3.63744 224.307 4.06781C223.896 4.49817 223.686 4.93596 223.686 5.38117C223.686 5.79669 223.818 6.18996 224.09 6.58322C224.353 6.96906 224.648 7.28813 224.959 7.53299C224.703 7.69623 224.478 7.94852 224.299 8.275C224.121 8.60148 224.028 8.99475 224.028 9.43995V15.9622C224.028 16.489 223.934 16.9491 223.74 17.3498C223.554 17.743 223.36 18.0769 223.174 18.3515C222.98 18.626 222.887 18.8561 222.887 19.0564C222.887 19.2345 223.003 19.4422 223.236 19.6723C223.469 19.9023 223.733 20.1249 224.035 20.3401C224.338 20.5553 224.594 20.7259 224.796 20.8595L224.385 21.4011C224.175 21.2824 223.857 21.0895 223.43 20.8075C222.996 20.5256 222.553 20.2139 222.095 19.8578C221.638 19.5016 221.25 19.1529 220.916 18.8041C220.582 18.4554 220.427 18.1734 220.427 17.936C220.427 17.6911 220.52 17.424 220.714 17.1346C220.9 16.8452 221.094 16.5113 221.281 16.118C221.467 15.7322 221.568 15.2721 221.568 14.7453V9.06153C221.568 8.50502 221.653 8.03756 221.816 7.66655C221.979 7.29555 222.235 6.95422 222.576 6.64258L222.569 6.63516Z" fill="#B2462D"/>
<path d="M220.83 6.96149L220.233 5.18066H227.907L229.615 6.93181L228.295 8.26742H227.729C227.403 7.94094 227.015 7.63671 226.581 7.36217C226.138 7.08763 225.673 6.95407 225.168 6.95407H220.823L220.83 6.96149ZM228.358 19.1675C228.016 19.0191 227.62 18.8188 227.178 18.5591C226.736 18.2994 226.402 18.0916 226.154 17.9284C226.185 17.5796 226.216 17.2235 226.231 16.8376C226.247 16.4592 226.255 16.0882 226.255 15.7246V15.3017C226.255 15.1533 226.247 15.0123 226.231 14.8787L226.464 14.7303C226.806 14.8936 227.186 15.0939 227.605 15.3388C228.016 15.5762 228.334 15.7766 228.559 15.9472C228.59 16.1624 228.621 16.3776 228.637 16.6002C228.652 16.8228 228.66 17.0454 228.66 17.2828C228.66 17.5648 228.652 17.8542 228.637 18.1584C228.621 18.4626 228.606 18.7594 228.583 19.034L228.35 19.1601L228.358 19.1675ZM228.404 13.6841C228.063 13.5208 227.667 13.3131 227.232 13.0682C226.79 12.8234 226.449 12.6156 226.208 12.4524C226.224 12.2372 226.239 12.0146 226.247 11.7697C226.255 11.5323 226.262 11.3022 226.262 11.0871C226.262 10.8719 226.262 10.6419 226.247 10.3821C226.239 10.1299 226.224 9.89242 226.208 9.67724L226.441 9.52884C226.782 9.69208 227.163 9.89242 227.582 10.1373C227.993 10.3747 228.311 10.5751 228.536 10.7457C228.621 11.2726 228.668 11.8142 228.668 12.3782V12.9718C228.668 13.1869 228.66 13.3873 228.645 13.5654L228.412 13.6915L228.404 13.6841Z" fill="#B2462D"/>
</svg>
