<svg width="72" height="22" viewBox="0 0 72 22" fill="none" xmlns="http://www.w3.org/2000/svg">
<path d="M9.28196 6.30563C9.04214 6.47157 8.82552 6.72803 8.63985 7.05991C8.44644 7.39179 8.35361 7.79156 8.35361 8.24413V10.1525C8.35361 10.2203 8.34588 10.2882 8.3304 10.3561C8.6708 10.3033 9.0112 10.2807 9.33612 10.2807C9.91634 10.2807 10.4579 10.3259 10.9607 10.4089C11.4559 10.4919 11.951 10.6277 12.4306 10.8087V7.79156C12.4306 7.6935 12.4384 7.60299 12.4538 7.51248L10.1871 5.09878L10.4424 4.49536H19.9735L21.6755 6.30563C21.4202 6.47157 21.1958 6.72803 21.0179 7.05991C20.84 7.39179 20.7471 7.79156 20.7471 8.24413V15.455C20.7471 15.9906 20.6543 16.4582 20.4609 16.8655C20.2675 17.2653 20.0818 17.6047 19.8961 17.8838C19.7105 18.1629 19.6099 18.3967 19.6099 18.6004C19.6099 18.7814 19.7259 18.9926 19.958 19.2264C20.1901 19.4603 20.4532 19.6865 20.7549 19.9053C21.0566 20.124 21.3119 20.2975 21.513 20.4333L21.103 20.9839C20.8941 20.8632 20.5769 20.6671 20.1514 20.3805C19.7259 20.0939 19.2772 19.7771 18.8285 19.415C18.3721 19.0529 17.9853 18.6984 17.6526 18.3439C17.3277 17.9894 17.1652 17.7028 17.1652 17.4614C17.1652 17.2125 17.2581 16.941 17.4515 16.6468C17.6371 16.3526 17.8306 16.0132 18.0162 15.6134C18.2019 15.2212 18.3025 14.7536 18.3025 14.218V8.0631C18.3025 7.29374 18.5114 6.7054 18.9214 6.30563H15.8037C15.5484 6.47157 15.324 6.72803 15.1461 7.05991C14.9681 7.39179 14.8753 7.79156 14.8753 8.24413V15.455C14.8753 15.9906 14.7825 16.4582 14.5891 16.8655C14.3956 17.2653 14.21 17.6047 14.0243 17.8838C13.8386 18.1629 13.7381 18.3967 13.7381 18.6004C13.7381 18.7814 13.8541 18.9926 14.0862 19.2264C14.3183 19.4603 14.5813 19.6865 14.883 19.9053C15.1847 20.124 15.44 20.2975 15.6412 20.4333L15.2312 20.9839C15.0223 20.8632 14.7051 20.6671 14.2796 20.3805C13.8464 20.0939 13.4054 19.7771 12.949 19.415C12.4925 19.0529 12.1057 18.6984 11.773 18.3439C11.4404 17.9894 11.2857 17.7028 11.2857 17.4614C11.2857 17.2125 11.3785 16.941 11.5719 16.6468C11.7576 16.3526 11.951 16.0132 12.1367 15.6134C12.3223 15.2212 12.4229 14.7536 12.4229 14.218V12.2116C12.0438 12.1588 11.657 12.1362 11.2624 12.1362C10.7441 12.1362 10.1871 12.189 9.57594 12.2871C8.96478 12.3851 8.29173 12.6039 7.54904 12.9433C8.16795 13.4637 8.70174 14.0596 9.15045 14.7309C9.59915 15.4022 9.8235 16.0509 9.8235 16.6921C9.8235 17.2804 9.67652 17.8235 9.38254 18.3364C9.08856 18.8493 8.6708 19.2566 8.12152 19.5659C7.57224 19.8751 6.90693 20.0335 6.1333 20.0335C5.35967 20.0335 4.61698 19.8374 3.85109 19.4452C3.0852 19.0529 2.38893 18.525 1.7623 17.8763C1.13566 17.2201 0.632801 16.4959 0.253723 15.6889L0.949984 15.2891C1.55341 16.2093 2.12591 16.8882 2.67518 17.3256C3.22446 17.7631 3.82016 17.9819 4.45453 17.9819C5.05796 17.9819 5.57628 17.8235 6.01725 17.5142C6.45822 17.205 6.79088 16.8127 7.03845 16.33C7.27827 15.8548 7.40205 15.357 7.40205 14.8365C7.40205 14.0144 7.1158 13.6071 6.55106 13.6071C6.08688 13.6071 5.63818 13.7428 5.21268 14.0068C4.78719 14.2784 4.43905 14.6027 4.18376 14.9874L1.66173 13.2073C1.87061 12.7396 2.24195 12.3474 2.78349 12.0231C3.32503 11.7063 3.90525 11.5479 4.52415 11.5479C4.60925 11.5479 4.69435 11.5479 4.77171 11.563C4.84907 11.5705 4.92644 11.5856 5.01928 11.6007C5.41383 11.299 5.66139 10.9067 5.7697 10.4315C5.87027 9.95634 5.92442 9.5264 5.92442 9.13418V8.07819C5.92442 7.30882 6.1333 6.72048 6.54332 6.32072H5.22816C4.86455 6.32072 4.51641 6.44894 4.16828 6.71294C3.82015 6.97694 3.55711 7.24848 3.37144 7.52756H2.8067L0.516754 5.11387L0.772053 4.51045H7.60319L9.30517 6.32072L9.28196 6.30563Z" fill="#EDE6D6"/>
<path d="M36.7535 15.4475C36.7535 15.9831 36.6607 16.4507 36.4673 16.858C36.2816 17.2578 36.0882 17.5972 35.9025 17.8763C35.7091 18.1554 35.6163 18.3892 35.6163 18.5929C35.6163 18.7739 35.7323 18.9851 35.9644 19.2189C36.1965 19.4527 36.4595 19.679 36.7612 19.8978C37.063 20.1165 37.3182 20.29 37.5194 20.4258L37.1094 20.9764C36.9005 20.8557 36.5833 20.6596 36.1578 20.373C35.7246 20.0863 35.2836 19.7695 34.8272 19.4075C34.3707 19.0454 33.9839 18.6909 33.6512 18.3364C33.3186 17.9819 33.1639 17.6953 33.1639 17.4539C33.1639 17.205 33.2567 16.9334 33.4501 16.6393C33.6358 16.3451 33.8292 16.0057 34.0149 15.6059C34.2005 15.2137 34.3011 14.746 34.3011 14.2105V10.7408C33.6667 10.9596 33.0865 11.4272 32.5759 12.1513C32.0576 12.8754 31.6553 13.7881 31.3613 14.8894C31.3304 15.2212 31.2607 15.5833 31.1524 15.968C31.0519 16.3527 30.9358 16.677 30.8198 16.9334C30.696 17.1899 30.5799 17.3257 30.4562 17.3257C30.3014 17.3257 30.0926 17.2578 29.8373 17.1145C29.582 16.9712 29.3189 16.7977 29.0636 16.5865C28.8083 16.3753 28.584 16.1565 28.4061 15.9303C28.2281 15.704 28.1353 15.5079 28.1353 15.3419C28.1894 14.9572 28.3209 14.5122 28.5376 14.0068C28.7542 13.5015 28.9863 13.0414 29.2493 12.6265V12.0457C29.2493 11.7591 29.1874 11.5026 29.0714 11.2764C28.9553 11.0501 28.7542 10.9369 28.4757 10.9369C28.0657 10.9369 27.6324 11.1481 27.176 11.5781C26.7195 12.008 26.3327 12.5737 26.0155 13.2752C25.6984 13.9767 25.5359 14.7611 25.5359 15.6135C25.5359 16.2471 25.6829 16.8052 25.9846 17.2729C26.2863 17.7405 26.6809 18.1554 27.1682 18.5024C27.6556 18.8493 28.1972 19.1661 28.7774 19.4301C29.3576 19.7017 29.9378 19.9506 30.5026 20.1844L30.1158 20.8406C29.288 20.5917 28.4602 20.2523 27.6324 19.8223C26.8046 19.3924 26.031 18.8946 25.327 18.3138C24.623 17.733 24.0583 17.0918 23.625 16.3828C23.1995 15.6738 22.9829 14.8969 22.9829 14.0596C22.9829 13.2224 23.1608 12.3776 23.509 11.6233C23.8649 10.869 24.3213 10.2581 24.886 9.79043C25.4508 9.32277 26.062 9.08895 26.7118 9.08895C27.3152 9.08895 27.9651 9.2926 28.6691 9.69237C29.3731 10.0921 29.961 10.5673 30.4252 11.1029C30.7501 10.6201 31.1524 10.1676 31.6243 9.74517C32.0963 9.33032 32.6455 9.11912 33.2644 9.11912C33.3882 9.11912 33.5275 9.14929 33.7054 9.21717C33.8756 9.28506 34.0767 9.37557 34.3011 9.49626V8.06313C34.3011 7.29376 34.51 6.70542 34.92 6.30566H27.3694C26.9207 6.30566 26.4875 6.4716 26.0542 6.79594C25.6287 7.12028 25.2883 7.45216 25.0485 7.79159H24.4838L21.9308 5.10635L22.1861 4.50293H35.9721L37.6741 6.3132C37.4188 6.47914 37.1945 6.72805 37.0165 7.05239C36.8386 7.37673 36.7458 7.76142 36.7458 8.1989V15.4626L36.7535 15.4475Z" fill="#EDE6D6"/>
<path d="M42.37 15.4476C42.37 15.9831 42.2772 16.4508 42.0838 16.8581C41.8981 17.2579 41.7047 17.5973 41.519 17.8764C41.3334 18.1554 41.2328 18.3893 41.2328 18.5929C41.2328 18.774 41.3488 18.9852 41.5809 19.219C41.813 19.4528 42.0761 19.6791 42.3778 19.8978C42.6795 20.1166 42.9348 20.2901 43.1359 20.4258L42.7259 20.9764C42.517 20.8558 42.1998 20.6597 41.7743 20.373C41.3488 20.0864 40.9001 19.7696 40.4514 19.4075C39.995 19.0455 39.6082 18.691 39.2755 18.3365C38.9506 17.982 38.7881 17.6953 38.7881 17.454C38.7881 17.2051 38.881 16.9335 39.0744 16.6393C39.2601 16.3452 39.4535 16.0058 39.6391 15.606C39.8248 15.2138 39.9254 14.7461 39.9254 14.2106V8.05565C39.9254 7.28629 40.1343 6.69795 40.5443 6.29818H35.4461L34.8813 4.48791H41.14C40.6062 3.65066 40.0801 3.03969 39.554 2.66255C39.028 2.28541 38.3781 2.09684 37.6122 2.09684C37.1867 2.09684 36.6993 2.1421 36.1578 2.22507C35.6163 2.30804 35.0206 2.43627 34.363 2.60221L33.1252 0.49023C34.3088 0.158347 35.361 -0.0151367 36.2661 -0.0151367C37.0243 -0.0151367 37.7205 0.16589 38.3626 0.527944C39.0047 0.889998 39.6082 1.37274 40.1652 1.97616C40.7222 2.57958 41.2637 3.25089 41.7743 3.99763C42.2927 4.74436 42.7955 5.50619 43.2984 6.29818C43.0431 6.46412 42.8187 6.72058 42.6408 7.05246C42.4629 7.38434 42.37 7.78411 42.37 8.23668V15.4476Z" fill="#EDE6D6"/>
<path d="M58.5543 18.54C58.5543 18.7211 58.6472 18.9247 58.8406 19.1284C59.0263 19.3396 59.2583 19.5357 59.5214 19.7318C59.7844 19.9279 60.0243 20.0863 60.2331 20.2221L59.8231 20.7727C59.6142 20.652 59.3125 20.4559 58.9102 20.1693C58.5079 19.8827 58.0824 19.5659 57.6492 19.2113C57.2082 18.8568 56.8446 18.5099 56.5429 18.1704C56.2412 17.8235 56.0942 17.5368 56.0942 17.303C56.0942 17.1672 56.1716 16.9334 56.3418 16.6015C56.5042 16.2697 56.6976 15.8548 56.922 15.3721C57.1464 14.8893 57.3398 14.3462 57.5022 13.7504C57.6647 13.1545 57.7498 12.5284 57.7498 11.8798C57.7498 11.6987 57.6879 11.5403 57.5718 11.4046C57.4481 11.2688 57.2933 11.2009 57.1077 11.2009C56.5893 11.2009 56.0246 11.4574 55.4057 11.9703C54.7868 12.4832 54.253 13.0791 53.8043 13.7655V15.4475C53.8043 15.983 53.7346 16.4507 53.5876 16.858C53.4407 17.2578 53.2937 17.5972 53.1467 17.8763C52.9997 18.1554 52.9301 18.3892 52.9301 18.5928C52.9301 18.7739 53.0306 18.9851 53.224 19.2189C53.4174 19.4527 53.6496 19.679 53.9203 19.8977C54.1834 20.1165 54.4077 20.29 54.5779 20.4257L54.1679 20.9764C53.959 20.8406 53.6495 20.6218 53.224 20.3201C52.8063 20.0184 52.3653 19.679 51.9243 19.3019C51.4756 18.9247 51.1198 18.5702 50.8413 18.2308C50.5473 18.3515 50.2301 18.4043 49.8897 18.4043C49.6499 18.4043 49.3095 18.3364 48.8685 18.2006C48.4276 18.0648 47.9634 17.8763 47.4605 17.6198C46.9654 17.3709 46.4857 17.0692 46.0293 16.7147C45.5729 16.3602 45.2015 15.9604 44.923 15.5078C44.6445 15.0553 44.4975 14.5725 44.4975 14.0521C44.4975 13.0338 44.6832 12.1739 45.0623 11.4875C45.4413 10.8011 45.9365 10.2807 46.5554 9.93371C47.1743 9.5792 47.8551 9.40572 48.59 9.40572C49.1548 9.40572 49.6731 9.45852 50.1528 9.55657C50.6247 9.65463 51.0269 9.77532 51.3519 9.91109V8.05556C51.3519 7.28619 51.5607 6.69786 51.9708 6.29809H48.9072C48.4817 6.31317 48.0562 6.47912 47.6462 6.80346C47.2362 7.1278 46.919 7.44459 46.6946 7.78402H46.1299L43.5769 5.09878L43.8322 4.49536H59.297L60.999 6.30563L59.5291 7.79156H58.9644C58.6008 7.42196 58.2294 7.08254 57.8426 6.77328C57.4558 6.46403 57.0303 6.30563 56.5661 6.30563H54.7326C54.4773 6.47157 54.253 6.72803 54.075 7.05991C53.8971 7.39179 53.8043 7.79156 53.8043 8.24413V9.90354C54.0596 9.7376 54.3303 9.60183 54.6011 9.50377C54.8719 9.40572 55.1349 9.35292 55.3747 9.35292C55.8931 9.35292 56.4269 9.48869 56.9839 9.75269C57.5409 10.0242 58.0592 10.3637 58.5466 10.771C59.0263 11.1783 59.4208 11.6158 59.7303 12.0683C60.0397 12.5209 60.1944 12.9207 60.1944 13.2752C60.1944 13.9088 60.1093 14.5273 59.9469 15.1232C59.7844 15.719 59.591 16.2546 59.3821 16.7449C59.1655 17.2276 58.9798 17.6349 58.8174 17.9517C58.6549 18.2685 58.5698 18.4722 58.5698 18.5551L58.5543 18.54ZM47.5998 16.5563C47.9788 16.5563 48.4044 16.4582 48.8917 16.2546C49.3714 16.0509 49.8356 15.7718 50.2688 15.4098C50.702 15.0477 51.0656 14.6404 51.3364 14.1878V11.3216C51.1817 11.3065 51.0424 11.2914 50.9109 11.2839C50.7794 11.2763 50.6556 11.2688 50.5396 11.2688C49.9748 11.2688 49.4178 11.4272 48.8608 11.744C48.3115 12.0608 47.8551 12.5435 47.4992 13.1922C47.1356 13.8333 46.9577 14.663 46.9577 15.6662C46.9577 15.9001 47.0118 16.1037 47.1124 16.2847C47.213 16.4582 47.3754 16.5487 47.5998 16.5487V16.5563Z" fill="#EDE6D6"/>
<path d="M56.4888 6.30563L55.8931 4.49536H63.5443L65.2462 6.27546L63.9311 7.63316H63.3663C63.0414 7.30128 62.6546 6.99202 62.2213 6.71294C61.7804 6.43386 61.3162 6.29809 60.8134 6.29809H56.481L56.4888 6.30563ZM63.9852 18.7135C63.6448 18.5627 63.2503 18.359 62.8093 18.095C62.3683 17.831 62.0357 17.6198 61.7881 17.4539C61.8191 17.0994 61.85 16.7373 61.8655 16.3451C61.8809 15.9604 61.8887 15.5833 61.8887 15.2137V14.7837C61.8887 14.6329 61.8809 14.4896 61.8655 14.3538L62.0976 14.2029C62.438 14.3689 62.817 14.5725 63.2348 14.8214C63.6448 15.0628 63.962 15.2665 64.1864 15.4399C64.2173 15.6587 64.2483 15.8774 64.2637 16.1037C64.2792 16.33 64.2869 16.5563 64.2869 16.7977C64.2869 17.0843 64.2792 17.3784 64.2637 17.6877C64.2483 17.997 64.2328 18.2987 64.2096 18.5778L63.9775 18.706L63.9852 18.7135ZM64.0394 13.1394C63.699 12.9735 63.3044 12.7623 62.8712 12.5133C62.4302 12.2644 62.0898 12.0532 61.85 11.8873C61.8655 11.6686 61.8809 11.4423 61.8887 11.1934C61.8964 10.952 61.9041 10.7182 61.9041 10.4994C61.9041 10.2807 61.9042 10.0469 61.8887 9.78286C61.8809 9.5264 61.8655 9.28503 61.85 9.06629L62.0821 8.91544C62.4225 9.08138 62.8016 9.28503 63.2193 9.53395C63.6293 9.77532 63.9465 9.97897 64.1709 10.1525C64.256 10.688 64.3024 11.2386 64.3024 11.8119V12.4153C64.3024 12.634 64.2947 12.8377 64.2792 13.0187L64.0471 13.1469L64.0394 13.1394Z" fill="#EDE6D6"/>
<path d="M71.0716 18.6911C71.0716 19.2266 70.9324 19.7471 70.6616 20.2449C70.3831 20.7503 69.9653 21.1651 69.4006 21.5045L67.6986 19.6943C67.9539 19.5132 68.1783 19.2568 68.3562 18.94C68.5341 18.6232 68.6269 18.2536 68.6269 17.8312V6.4265C68.6269 5.89096 68.7662 5.37051 69.037 4.8576C69.3077 4.34469 69.7332 3.92983 70.298 3.61304L72 5.42331C71.7447 5.58925 71.5203 5.83062 71.3424 6.15496C71.1645 6.47175 71.0716 6.84889 71.0716 7.28638V18.6911Z" fill="#EDE6D6"/>
</svg>
