<svg width="242" height="26" viewBox="0 0 242 26" fill="none" xmlns="http://www.w3.org/2000/svg">
<g clip-path="url(#clip0_283_145)">
<path d="M96.3157 5.99083C95.8486 5.14626 95.4204 4.46745 95.0155 3.93861C94.6107 3.40977 94.198 3.0309 93.7465 2.77832C93.2949 2.53363 92.7577 2.40734 92.1349 2.40734C91.7066 2.40734 91.2162 2.4547 90.6712 2.54153C90.1262 2.62835 89.5267 2.76254 88.8649 2.93618L87.6192 0.726106C88.8104 0.378808 89.8692 0.197266 90.7802 0.197266C91.5431 0.197266 92.2438 0.386701 92.8901 0.765572C93.5363 1.14444 94.1435 1.6496 94.7041 2.28105C95.2647 2.91251 95.8097 3.615 96.3235 4.39642C96.8451 5.17784 97.3512 5.97504 97.8495 6.80382L96.2924 5.99083H96.3157Z" fill="#EDE6D6"/>
<path d="M9.07805 6.81183C8.8367 6.98548 8.6187 7.24596 8.43185 7.60115C8.23721 7.94845 8.14378 8.36678 8.14378 8.84037V10.8373C8.14378 10.9084 8.13599 10.9794 8.12042 11.0504C8.46299 10.9952 8.80556 10.9715 9.13255 10.9715C9.71647 10.9715 10.2615 11.0189 10.7675 11.1057C11.2658 11.1925 11.7641 11.3346 12.2468 11.524V8.36678C12.2468 8.26417 12.2546 8.16945 12.2702 8.07474L9.98897 5.54893L10.2459 4.91748H13.9285L15.6413 6.81183C15.3844 6.98548 15.1586 7.24596 14.9795 7.60115C14.8005 7.95634 14.707 8.36678 14.707 8.84037V16.3862C14.707 16.9466 14.6136 17.436 14.419 17.8622C14.2243 18.2806 14.0375 18.6358 13.8506 18.9278C13.6638 19.2198 13.5626 19.4645 13.5626 19.6777C13.5626 19.8671 13.6793 20.0881 13.9129 20.3328C14.1465 20.5775 14.4112 20.8143 14.7148 21.0432C15.0185 21.2721 15.2754 21.4536 15.4778 21.5957L15.0652 22.1719C14.855 22.0456 14.5358 21.8404 14.1076 21.5404C13.6716 21.2405 13.2278 20.909 12.7684 20.5301C12.3091 20.1512 11.9198 19.7803 11.585 19.4093C11.258 19.0383 11.0945 18.7384 11.0945 18.4858C11.0945 18.2253 11.188 17.9412 11.3826 17.6333C11.5694 17.3255 11.7641 16.9703 11.9509 16.552C12.1378 16.1415 12.239 15.6522 12.239 15.0917V12.9843C11.8575 12.929 11.4682 12.9053 11.0712 12.9053C10.5495 12.9053 9.98897 12.9606 9.37391 13.0632C8.75884 13.1658 8.08149 13.3947 7.33408 13.7499C7.95692 14.2945 8.49413 14.9181 8.9457 15.6206C9.39726 16.3231 9.62304 17.0019 9.62304 17.6728C9.62304 18.2885 9.47512 18.8568 9.17927 19.3935C8.88341 19.9302 8.46299 20.3565 7.91021 20.6801C7.35743 21.0037 6.68787 21.1695 5.90931 21.1695C5.13075 21.1695 4.38333 20.9642 3.61256 20.5538C2.84178 20.1433 2.14108 19.5908 1.51044 18.912C0.879808 18.2253 0.373743 17.4676 -0.00775146 16.623L0.692953 16.2047C1.30023 17.1676 1.87637 17.878 2.42914 18.3358C2.98192 18.7936 3.58141 19.0225 4.21983 19.0225C4.82711 19.0225 5.34875 18.8568 5.79253 18.5331C6.23631 18.2095 6.57109 17.7991 6.82023 17.2939C7.06158 16.7967 7.18615 16.2757 7.18615 15.7311C7.18615 14.8707 6.89808 14.4445 6.32973 14.4445C5.8626 14.4445 5.41103 14.5866 4.98282 14.8628C4.55461 15.147 4.20426 15.4864 3.94734 15.8889L1.40923 14.0183C1.61944 13.5289 1.99315 13.1185 2.53814 12.779C3.08313 12.4475 3.66706 12.2818 4.2899 12.2818C4.37555 12.2818 4.46119 12.2818 4.53904 12.2976C4.6169 12.3055 4.69476 12.3212 4.78818 12.337C5.18525 12.0213 5.43439 11.6109 5.54339 11.1136C5.6446 10.6163 5.6991 10.1664 5.6991 9.76387V8.65883C5.6991 7.85373 5.90931 7.23806 6.32195 6.81973H4.99839C4.63247 6.81973 4.28212 6.95391 3.93177 7.23017C3.5892 7.49854 3.3167 7.79058 3.12985 8.08263H2.5615L0.233602 5.54893L0.490527 4.91748H7.36522L9.07805 6.81183Z" fill="#B2462D"/>
<path d="M24.5091 8.65085C24.5091 7.84575 24.7193 7.23009 25.1319 6.81175H21.2703C20.8421 6.82754 20.4139 7.00119 20.0012 7.34059C19.5886 7.68 19.2694 8.01151 19.0436 8.3667H18.4753L15.906 5.55674L16.1629 4.92529H26.1986L27.9114 6.81965C27.6545 6.9933 27.4287 7.25377 27.2496 7.60896C27.0706 7.95626 26.9771 8.37459 26.9771 8.84818V16.394C26.9771 16.9544 26.8837 17.4438 26.6891 17.87C26.4944 18.2963 26.3076 18.6436 26.1207 18.9356C25.9261 19.2277 25.8327 19.4723 25.8327 19.6855C25.8327 19.8749 25.9494 20.0959 26.183 20.3406C26.4166 20.5853 26.6813 20.8221 26.9849 21.051C27.2886 21.2799 27.5455 21.4614 27.7479 21.6035L27.3353 22.1797C27.1251 22.0376 26.7981 21.8087 26.3387 21.493C25.8794 21.1773 25.4122 20.8221 24.9217 20.4274C24.439 20.0328 24.0498 19.6618 23.7539 19.3066C23.5125 19.3934 23.2634 19.4723 22.9987 19.5276C22.7418 19.5907 22.4848 19.6223 22.2435 19.6223C22.0021 19.6223 21.6596 19.5513 21.2158 19.4092C20.772 19.2671 20.3049 19.0619 19.7988 18.7935C19.3005 18.5252 18.8178 18.1937 18.3585 17.8069C17.8991 17.4201 17.5254 16.986 17.2451 16.5045C16.9571 16.023 16.8169 15.5021 16.8169 14.9417C16.8169 13.8524 17.0193 12.9447 17.4242 12.2107C17.829 11.4766 18.3663 10.9162 19.0358 10.5294C19.7054 10.1427 20.4217 9.95322 21.2002 9.95322C21.8776 9.95322 22.5004 10.0085 23.0688 10.1111C23.6371 10.2137 24.112 10.34 24.4935 10.4821V8.66664L24.5091 8.65085ZM20.227 17.6648C20.6552 17.6648 21.1457 17.5622 21.6907 17.3491C22.2357 17.136 22.7651 16.8439 23.2712 16.4651C23.7773 16.0862 24.1899 15.66 24.5013 15.1864V11.9818C24.2444 11.9502 24.003 11.9186 23.785 11.9028C23.567 11.887 23.3646 11.8791 23.1778 11.8791C22.5238 11.8791 21.8931 12.0607 21.3014 12.4317C20.7019 12.8026 20.227 13.3315 19.8611 14.034C19.4952 14.7365 19.3161 15.5968 19.3161 16.6071C19.3161 16.8913 19.3862 17.136 19.5341 17.3412C19.682 17.5464 19.9078 17.6569 20.2192 17.6569L20.227 17.6648Z" fill="#B2462D"/>
<path d="M31.1191 6.46448C30.8077 6.16454 30.4885 5.74621 30.1615 5.20158C29.8345 4.65695 29.671 4.13601 29.671 3.62295C29.671 2.97571 29.9513 2.37583 30.504 1.82332C31.0568 1.2708 31.7887 0.82878 32.6918 0.497268C33.5949 0.165756 34.5759 0 35.6114 0C36.39 0 37.2464 0.228901 38.1807 0.694596C39.1149 1.16029 40.0492 1.79174 40.9913 2.60474C41.9333 3.40984 42.8053 4.32544 43.5994 5.33576L43.0778 5.7541C42.0735 4.61749 41.1003 3.73346 40.1504 3.1099C39.2006 2.48634 38.2118 2.17851 37.1919 2.17851C36.172 2.17851 35.3389 2.32058 34.5993 2.61263C33.8519 2.90468 33.2757 3.27565 32.8631 3.73346C32.4504 4.19126 32.2402 4.65695 32.2402 5.13054C32.2402 5.56466 32.3726 5.99089 32.6451 6.40923C32.9098 6.81967 33.2056 7.15908 33.5171 7.41955C33.2601 7.5932 33.0344 7.86157 32.8553 8.20887C32.6762 8.55616 32.5828 8.9745 32.5828 9.44809V16.3862C32.5828 16.9466 32.4894 17.4359 32.2947 17.8622C32.1001 18.2884 31.9132 18.6357 31.7264 18.9277C31.5317 19.2198 31.4383 19.4645 31.4383 19.6776C31.4383 19.867 31.5551 20.088 31.7887 20.3327C32.0222 20.5774 32.2869 20.8142 32.5906 21.0431C32.8942 21.272 33.1511 21.4536 33.3536 21.5956L32.9409 22.1718C32.7307 22.0455 32.4115 21.8403 31.9833 21.5404C31.5473 21.2404 31.1035 20.9089 30.6442 20.5301C30.1848 20.1512 29.7956 19.7802 29.4608 19.4092C29.1338 19.0383 28.9703 18.7383 28.9703 18.4857C28.9703 18.2253 29.0637 17.9411 29.2583 17.6333C29.4452 17.3254 29.6398 16.9702 29.8267 16.5519C30.0135 16.1415 30.1148 15.6521 30.1148 15.0917V9.04554C30.1148 8.45355 30.2004 7.95628 30.3639 7.56163C30.5274 7.16697 30.7843 6.80389 31.1269 6.47237L31.1191 6.46448Z" fill="#B2462D"/>
<path d="M42.891 6.81183C42.634 6.98548 42.4083 7.24596 42.2292 7.60115C42.0501 7.94845 41.9567 8.36678 41.9567 8.84037V12.1239C41.9567 13.3 41.7776 14.2472 41.4117 14.9733C41.0458 15.6995 40.5397 16.2678 39.8857 16.6704C39.4497 16.9151 39.0682 17.0571 38.7334 17.0887C38.3987 17.1203 38.2274 17.1913 38.2274 17.3018C38.2274 17.4755 38.3597 17.7359 38.6322 18.0753C38.8969 18.4147 39.2395 18.8015 39.6599 19.2356C40.0726 19.6619 40.5086 20.0881 40.9679 20.5143C41.4273 20.9327 41.8555 21.3115 42.2525 21.643L41.7309 22.2745C41.2638 21.9272 40.7266 21.4852 40.1115 20.9563C39.4964 20.4275 38.8814 19.8513 38.2585 19.2199C37.6357 18.5884 37.0595 17.9491 36.5223 17.3018C35.9851 16.6546 35.5569 16.031 35.2221 15.4311C34.8874 14.8313 34.7316 14.3103 34.7316 13.8525C34.7316 13.2605 34.8329 12.7712 35.0431 12.3923C35.2533 12.0134 35.5024 11.7293 35.7983 11.5398C36.0941 11.3504 36.3666 11.2478 36.6313 11.2478C36.896 11.2478 37.1841 11.3583 37.5033 11.5872C37.8225 11.8161 38.1184 12.045 38.3831 12.2739C38.6478 12.5028 38.8269 12.6133 38.9125 12.6133C39.0994 12.6133 39.2473 12.4475 39.3563 12.1239C39.4575 11.8003 39.512 11.3662 39.512 10.8215V8.64304C39.512 7.83794 39.7222 7.22228 40.1349 6.80394H39.0994C38.6712 6.83551 38.2507 7.02495 37.8537 7.35646C37.4566 7.68797 37.1452 8.01948 36.9194 8.35889H36.351L33.7818 5.54893L34.0387 4.91748H41.1937L42.9065 6.81183H42.891Z" fill="#B2462D"/>
<path d="M47.3755 16.3782C47.3755 16.9386 47.282 17.428 47.0874 17.8542C46.8927 18.2804 46.7059 18.6277 46.519 18.9198C46.3322 19.2118 46.231 19.4565 46.231 19.6696C46.231 19.8591 46.3478 20.0801 46.5813 20.3248C46.8149 20.5695 47.0796 20.8063 47.3832 21.0352C47.6869 21.2641 47.9438 21.4456 48.1462 21.5877L47.7336 22.1639C47.5234 22.0376 47.2042 21.8324 46.776 21.5324C46.3478 21.2325 45.8962 20.901 45.4446 20.5221C44.9853 20.1432 44.596 19.7723 44.2612 19.4013C43.9342 19.0303 43.7707 18.7304 43.7707 18.4778C43.7707 18.2173 43.8641 17.9331 44.0588 17.6253C44.2456 17.3175 44.4403 16.9623 44.6271 16.544C44.814 16.1256 44.9152 15.6441 44.9152 15.0837V8.64292C44.9152 7.83782 45.1254 7.22216 45.5381 6.80382H40.4073L39.839 4.90947H46.1375C45.6003 4.03333 45.0709 3.39399 44.5415 2.99933C44.0121 2.60467 43.3581 2.40734 42.5873 2.40734C42.1591 2.40734 41.6686 2.4547 41.1236 2.54153C40.5786 2.62835 39.9791 2.76254 39.3174 2.93618L38.0717 0.726106C39.2629 0.378808 40.3217 0.197266 41.2326 0.197266C41.9956 0.197266 42.6963 0.386701 43.3425 0.765572C43.9887 1.14444 44.596 1.6496 45.1566 2.28105C45.7171 2.91251 46.2621 3.615 46.776 4.39642C47.2898 5.17784 47.8037 5.97504 48.3097 6.80382C48.0528 6.97747 47.827 7.23795 47.648 7.59314C47.4689 7.94833 47.3755 8.35877 47.3755 8.83236V16.3782Z" fill="#B2462D"/>
<path d="M48.9637 8.22465C48.9637 8.13783 49.0727 8.03522 49.2907 7.90893C49.5087 7.78264 49.7345 7.68002 49.9758 7.5932C50.1004 7.00121 50.2639 6.45659 50.4819 5.95932C50.6999 5.46994 50.9334 5.07529 51.1982 4.77535C51.4551 4.47541 51.6809 4.32544 51.8755 4.32544C52.0857 4.32544 52.3738 4.42016 52.7475 4.61749C53.1212 4.81481 53.4949 5.04372 53.8608 5.31208C54.2345 5.58045 54.546 5.85671 54.8107 6.14086C55.0754 6.42501 55.2 6.64602 55.2 6.82756C55.2 7.15908 55.0365 7.50638 54.7172 7.86946C54.398 8.23254 54.0243 8.55616 53.6039 8.8561C53.1835 9.15604 52.802 9.40073 52.475 9.59016C52.4439 9.81906 52.4127 10.048 52.3971 10.2769C52.3816 10.5058 52.3738 10.7347 52.3738 10.9636C52.3738 11.2793 52.475 11.5871 52.6852 11.8871C53.0978 11.7134 53.5572 11.5477 54.0633 11.3898C54.5615 11.2319 55.0987 11.0741 55.6749 10.9162L57.232 13.0474C55.5892 13.592 54.3435 14.1366 53.4871 14.6812C52.6307 15.2259 52.2025 15.7863 52.2025 16.3625C52.2025 16.7492 52.3193 17.0886 52.5528 17.3886C52.7864 17.6885 53.0745 17.8385 53.4248 17.8385C53.9075 17.8385 54.4603 17.7359 55.0754 17.5386C55.6904 17.3412 56.2977 17.0492 56.8894 16.6703C57.4889 16.2914 58.0028 15.8415 58.431 15.3206V8.38251C58.431 8.2799 58.4388 8.18518 58.4543 8.09047L56.1732 5.56466L56.4301 4.93321H60.1127L61.8255 6.82756C61.5686 7.00121 61.3428 7.26169 61.1637 7.61688C60.9847 7.96418 60.8912 8.38251 60.8912 8.8561V16.4019C60.8912 16.9624 60.7978 17.4517 60.6032 17.878C60.4085 18.3042 60.2217 18.6515 60.0348 18.9435C59.8402 19.2356 59.7467 19.4803 59.7467 19.6934C59.7467 19.8828 59.8635 20.1038 60.0971 20.3485C60.3307 20.5932 60.5954 20.83 60.899 21.0589C61.2027 21.2878 61.4596 21.4693 61.662 21.6114L61.2494 22.1876C61.0392 22.0455 60.7122 21.8245 60.2606 21.5167C59.809 21.2089 59.3497 20.8616 58.8748 20.4669C58.3998 20.0723 58.0183 19.7013 57.7225 19.3461C56.9984 19.646 56.3289 19.796 55.7294 19.796C55.488 19.796 55.1299 19.7013 54.6627 19.5197C54.1956 19.3382 53.6895 19.0777 53.1368 18.7462C52.584 18.4147 52.0546 18.02 51.5407 17.5622C51.0269 17.1044 50.6142 16.6151 50.295 16.0783C49.9758 15.5416 49.8123 14.9891 49.8123 14.405C49.8123 14.0182 49.9914 13.6472 50.3573 13.2842C50.7232 12.9211 51.2293 12.5817 51.8911 12.2423C51.4084 11.8555 50.9802 11.4372 50.6064 10.9951C50.2327 10.5531 50.007 10.0243 49.9213 9.4323C49.6955 9.24287 49.4853 9.02186 49.2829 8.78506C49.0805 8.54827 48.987 8.36673 48.987 8.24833L48.9637 8.22465Z" fill="#B2462D"/>
<path d="M63.6629 24.7685L62.9388 23.845C63.3359 23.0399 63.6318 22.148 63.8342 21.1614C64.0366 20.1826 64.13 19.0381 64.13 17.7436L64.5193 17.5305L66.8005 18.896C66.8005 19.9695 66.5592 20.9956 66.0764 21.9822C65.5937 22.9689 64.9164 23.9003 64.0522 24.7527H63.6629V24.7685Z" fill="#B2462D"/>
<path d="M84.3337 16.3782C84.3337 16.9386 84.2403 17.428 84.0456 17.8543C83.851 18.2726 83.6641 18.6278 83.4773 18.9198C83.2904 19.2119 83.1892 19.4566 83.1892 19.6697C83.1892 19.8591 83.306 20.0801 83.5396 20.3248C83.7731 20.5695 84.0378 20.8063 84.3415 21.0352C84.6451 21.2641 84.902 21.4456 85.1045 21.5877L84.6918 22.1639C84.4816 22.0376 84.1624 21.8324 83.7342 21.5325C83.306 21.2325 82.8544 20.901 82.4029 20.5221C81.9435 20.1433 81.5542 19.7723 81.2195 19.4013C80.8925 19.0303 80.729 18.7304 80.729 18.4778C80.729 18.2173 80.8224 17.9332 81.017 17.6254C81.2039 17.3175 81.3985 16.9623 81.5854 16.544C81.7722 16.1257 81.8735 15.6442 81.8735 15.0838V13.7182C81.8034 13.7025 81.7333 13.6946 81.6632 13.6946H81.453C81.0015 13.6946 80.5032 13.813 79.9504 14.0498C79.3976 14.2866 78.8448 14.5944 78.2999 14.9733C77.7549 15.3521 77.2566 15.7468 76.805 16.1572C76.3535 16.5677 75.9953 16.9465 75.715 17.3017C75.4348 17.649 75.3024 17.9253 75.3024 18.1147C75.3024 18.3594 75.4581 18.6751 75.7695 19.0619C76.081 19.4487 76.478 19.867 76.9607 20.309C77.4434 20.751 77.9495 21.2009 78.4634 21.6351L77.9417 22.2665C77.4746 21.9192 76.9374 21.4772 76.3223 20.9484C75.7072 20.4195 75.0922 19.8433 74.4693 19.2119C73.8465 18.5804 73.2704 17.9411 72.7331 17.2938C72.1959 16.6466 71.7677 16.023 71.433 15.4232C71.0982 14.8233 70.9425 14.3023 70.9425 13.8445C70.9425 13.2526 71.0437 12.7711 71.2539 12.408C71.4641 12.0449 71.7132 11.7844 72.0091 11.6187C72.3049 11.4529 72.5774 11.3661 72.8421 11.3661C73.1069 11.3661 73.3949 11.4845 73.7141 11.7055C74.0333 11.9344 74.3292 12.1633 74.5939 12.3922C74.8586 12.6211 75.0377 12.7316 75.1233 12.7316C75.3102 12.7316 75.4581 12.5658 75.5671 12.2422C75.6683 11.9186 75.7228 11.4845 75.7228 10.9399V8.62717C75.7228 7.82207 75.933 7.20641 76.3457 6.78807H75.4659C75.0143 6.78807 74.5783 6.96172 74.1423 7.30113C73.7141 7.64053 73.3716 7.98783 73.1302 8.34302H72.5619L69.9926 5.53306L70.2495 4.90161H83.5551L85.268 6.79596C85.011 6.96961 84.7853 7.22219 84.6062 7.54581C84.4271 7.86943 84.3337 8.2562 84.3337 8.714V16.3624V16.3782ZM81.8657 8.65085C81.8657 7.84575 82.0759 7.23009 82.4885 6.81175H79.1173C78.8604 6.9854 78.6346 7.24587 78.4556 7.60106C78.2765 7.94836 78.1831 8.3667 78.1831 8.84029V12.258C78.9305 11.9265 79.6156 11.7607 80.2618 11.7607C80.5188 11.7607 80.7835 11.7765 81.056 11.816C81.3207 11.8476 81.5932 11.9028 81.8735 11.9739V8.65875L81.8657 8.65085Z" fill="#EDE6D6"/>
<path d="M92.2127 9.99269C92.5942 9.99269 92.9679 10.0085 93.3417 10.0479C93.7154 10.0795 94.0891 10.1348 94.4706 10.2058V8.65085C94.4706 7.84575 94.6808 7.23009 95.0934 6.81175H91.1228C90.6712 6.81175 90.2352 6.9854 89.7992 7.32481C89.3632 7.66421 89.0284 8.01151 88.7871 8.3667H88.2187L85.6495 5.55674L85.9064 4.92529H96.1523L97.8651 6.81965C97.6082 6.9933 97.3824 7.25377 97.2033 7.60896C97.0242 7.96415 96.9308 8.37459 96.9308 8.84818V11.7371L96.487 12.108C96.16 12.0765 95.7941 12.0449 95.3815 12.0133C94.9688 11.9818 94.6029 11.9739 94.2526 11.9739C93.3027 11.9739 92.4307 12.1633 91.6366 12.5501C90.8425 12.9368 90.2118 13.5051 89.7447 14.2471C89.2776 14.989 89.044 15.8968 89.044 16.9702C89.044 17.6569 89.4333 17.9963 90.2118 17.9963C90.6089 17.9963 90.9826 17.949 91.3408 17.8543C91.6989 17.7595 92.0337 17.6411 92.3685 17.4991C92.2672 17.3412 92.2127 17.1597 92.2127 16.9465C92.2127 16.4572 92.3607 15.9836 92.6565 15.5416C92.9524 15.0917 93.3417 14.7286 93.8399 14.4365C94.3382 14.1445 94.8832 14.0024 95.4905 14.0024C95.7318 14.0024 96.0199 14.1287 96.3469 14.3734C96.6739 14.6181 96.962 14.9022 97.2189 15.2179C97.468 15.5337 97.5926 15.7941 97.5926 16.0073C97.5926 16.5124 97.3279 17.0807 96.7907 17.7043C96.2535 18.3278 95.5839 18.8488 94.7664 19.2671C95.1635 19.8591 95.6151 20.3958 96.1289 20.8694C96.6428 21.343 97.1332 21.7535 97.6237 22.1087L97.0787 22.7638C96.596 22.4323 96.0199 21.9903 95.3581 21.4377C94.6886 20.8852 94.1358 20.3327 93.6842 19.7644C93.147 19.8907 92.6643 19.9459 92.2283 19.9459C91.6055 19.9459 90.967 19.8039 90.3131 19.5118C89.6591 19.2198 89.044 18.8409 88.4679 18.3515C87.8995 17.87 87.4402 17.3412 87.0976 16.765C86.7472 16.1888 86.576 15.6047 86.576 15.0285C86.576 13.9787 86.8329 13.071 87.339 12.3212C87.845 11.5713 88.5301 10.9951 89.3866 10.6005C90.243 10.2058 91.1928 10.0085 92.2283 10.0085L92.2127 9.99269Z" fill="#EDE6D6"/>
<path d="M105.573 10.1191L106.951 11.9897L106.85 12.3291H106.281C105.76 12.3291 105.238 12.487 104.716 12.7869C104.187 13.0948 103.751 13.5368 103.393 14.113C103.035 14.6892 102.863 15.3996 102.863 16.2441C102.863 16.5599 102.957 16.8361 103.152 17.0729C103.338 17.3097 103.634 17.4281 104.031 17.4281C104.428 17.4281 104.903 17.3255 105.402 17.1124C105.9 16.8993 106.39 16.6151 106.865 16.2441C107.34 15.8732 107.722 15.4548 108.018 14.9812V8.64304C108.018 7.83794 108.228 7.22228 108.64 6.80394H103.611C103.159 6.80394 102.723 6.97759 102.287 7.317C101.859 7.6564 101.517 8.0037 101.275 8.35889H100.707L98.1376 5.54893L98.3945 4.91748H109.699L111.412 6.81183C111.155 6.98548 110.929 7.24596 110.75 7.60115C110.571 7.94845 110.478 8.36678 110.478 8.84037V16.3862C110.478 16.9466 110.384 17.436 110.19 17.8622C109.995 18.2885 109.808 18.6358 109.621 18.9278C109.434 19.2198 109.333 19.4645 109.333 19.6777C109.333 19.8671 109.45 20.0881 109.684 20.3328C109.917 20.5775 110.182 20.8143 110.486 21.0432C110.789 21.2721 111.046 21.4536 111.249 21.5957L110.836 22.1719C110.61 22.0298 110.268 21.8009 109.8 21.4773C109.333 21.1537 108.858 20.7906 108.376 20.388C107.893 19.9855 107.504 19.5987 107.208 19.2356C106.896 19.3382 106.593 19.3935 106.297 19.3935C106.017 19.3935 105.643 19.3225 105.168 19.1725C104.693 19.0225 104.179 18.8173 103.626 18.541C103.074 18.2727 102.552 17.9333 102.054 17.5386C101.563 17.144 101.158 16.694 100.831 16.1968C100.504 15.6995 100.349 15.1549 100.349 14.5787C100.349 14.1209 100.419 13.7104 100.567 13.3316C100.715 12.9527 100.917 12.6291 101.174 12.3449H99.5623L98.1843 10.4821L98.2855 10.1427H105.549L105.573 10.1191Z" fill="#EDE6D6"/>
<path d="M111.015 26.0001L110.291 25.4239C109.793 25.0214 109.287 24.7293 108.788 24.5557C108.29 24.382 107.737 24.2952 107.13 24.2952C106.764 24.2952 106.359 24.3347 105.908 24.4294C105.456 24.5162 104.958 24.6504 104.405 24.824L103.159 22.6455C104.148 22.2982 105.028 22.1167 105.806 22.1167C106.585 22.1167 107.332 22.3535 108.111 22.8429C108.89 23.3243 109.785 23.9953 110.805 24.8556L111.529 25.4634L111.007 26.0159L111.015 26.0001Z" fill="#EDE6D6"/>
<path d="M126.602 6.81175C126.36 6.9854 126.142 7.24587 125.956 7.60106C125.761 7.94836 125.668 8.3667 125.668 8.84029V10.8609C126.08 11.3503 126.423 11.8713 126.68 12.4159C126.937 12.9605 127.069 13.4736 127.069 13.9629C127.069 14.9654 126.859 15.9046 126.446 16.7887C126.033 17.6727 125.473 18.462 124.772 19.1408C124.071 19.8275 123.293 20.3643 122.436 20.7589C121.58 21.1536 120.724 21.3509 119.859 21.3509C119.447 21.3509 118.941 21.2562 118.357 21.0589C117.773 20.8694 117.158 20.5932 116.527 20.2459C115.897 19.8986 115.305 19.4802 114.768 19.0066C114.23 18.5331 113.779 18.02 113.429 17.4517C113.086 16.8913 112.907 16.3072 112.907 15.6915C112.907 15.1311 113.125 14.626 113.569 14.1682C114.012 13.7104 114.635 13.2999 115.453 12.9289C114.83 12.4711 114.301 11.966 113.872 11.4135C113.444 10.8609 113.226 10.2689 113.226 9.6375C113.226 9.33756 113.257 9.03762 113.327 8.72978C113.397 8.42195 113.483 8.11412 113.584 7.79839L111.537 5.53306L111.794 4.90161H124.889L126.602 6.79596V6.81175ZM120.272 14.0419C118.754 14.4839 117.539 15.0048 116.644 15.6047C115.741 16.2125 115.297 16.8992 115.297 17.6648C115.297 18.1068 115.523 18.5015 115.974 18.8646C116.426 19.2277 116.948 19.4013 117.555 19.4013C118.333 19.4013 119.135 19.2198 119.953 18.8488C120.77 18.4778 121.533 17.9648 122.234 17.3096C122.935 16.6545 123.503 15.8889 123.931 15.0206C124.36 14.1524 124.578 13.221 124.578 12.2186C124.578 11.9186 124.523 11.6502 124.406 11.4056C124.297 11.1609 124.087 11.0346 123.799 11.0346C123.106 11.0346 122.343 11.6108 121.518 12.7711L119.649 10.7504C119.945 10.1742 120.342 9.70853 120.84 9.35334C121.339 9.00604 121.806 8.8245 122.242 8.8245C122.398 8.8245 122.553 8.84029 122.709 8.87975C122.865 8.91133 123.028 8.95868 123.199 9.01394V8.64296C123.199 7.83786 123.41 7.22219 123.822 6.80386H117.236C116.613 7.60896 116.2 8.44563 116.006 9.29809C115.811 10.1505 115.71 10.9714 115.71 11.745C115.71 12.1159 115.842 12.4238 116.099 12.6685C116.442 12.5264 116.823 12.408 117.228 12.2975C117.633 12.1949 118.053 12.0844 118.489 11.9818L120.28 14.034L120.272 14.0419Z" fill="#EDE6D6"/>
<path d="M132.075 16.3782C132.075 16.9386 131.982 17.4279 131.787 17.8542C131.592 18.2804 131.405 18.6277 131.219 18.9197C131.032 19.2118 130.931 19.4565 130.931 19.6696C130.931 19.859 131.047 20.08 131.281 20.3247C131.514 20.5694 131.779 20.8062 132.083 21.0351C132.386 21.264 132.643 21.4456 132.846 21.5876L132.433 22.1638C132.223 22.0375 131.904 21.8323 131.476 21.5324C131.047 21.2324 130.596 20.9009 130.144 20.5221C129.685 20.1432 129.296 19.7722 128.961 19.4012C128.634 19.0303 128.47 18.7303 128.47 18.4777C128.47 18.2173 128.564 17.9331 128.758 17.6253C128.945 17.3174 129.14 16.9622 129.327 16.5439C129.514 16.1256 129.615 15.6441 129.615 15.0837V8.64288C129.615 7.83778 129.825 7.22211 130.238 6.80378H125.107L124.539 4.90942H131.304L133.017 6.80378C132.76 6.97743 132.534 7.2379 132.355 7.59309C132.176 7.94828 132.083 8.35873 132.083 8.83231V16.3782H132.075Z" fill="#EDE6D6"/>
<path d="M136.972 16.0625C136.972 15.8336 137.05 15.5968 137.206 15.3521C137.361 15.1074 137.548 14.8943 137.766 14.7207C137.984 14.547 138.179 14.4602 138.35 14.4602C138.56 14.4602 138.817 14.5312 139.144 14.6812C139.464 14.8312 139.791 15.0048 140.118 15.1943C140.445 15.3916 140.701 15.5573 140.896 15.6915C141.706 15.1864 142.259 14.5233 142.547 13.7182C142.835 12.9131 143.006 12.0607 143.076 11.1688C143.107 10.5926 143.138 10.0085 143.17 9.41648C143.193 8.83239 143.208 8.24829 143.208 7.67209C143.208 7.41162 143.146 7.19851 143.014 7.04064C142.881 6.88278 142.726 6.80385 142.531 6.80385C142.235 6.80385 141.932 6.88278 141.612 7.04064C141.293 7.19851 141.021 7.44319 140.81 7.77471C140.6 8.10622 140.483 8.55613 140.483 9.11654V10.4347C140.483 10.8215 140.577 11.2082 140.772 11.5871C140.958 11.9739 141.246 12.2738 141.628 12.479L141.317 13.0868C140.849 12.8579 140.351 12.5422 139.822 12.1396C139.292 11.7371 138.849 11.295 138.49 10.8136C138.124 10.3321 137.945 9.86639 137.945 9.40858V8.06675C137.945 7.40373 138.109 6.81964 138.436 6.33026C138.763 5.84089 139.176 5.46202 139.682 5.20154C140.18 4.94107 140.694 4.80688 141.208 4.80688C141.589 4.80688 142.033 4.93318 142.547 5.18576C143.053 5.43834 143.559 5.77774 144.049 6.19608C144.54 6.61441 144.945 7.07222 145.272 7.56159C145.599 8.05096 145.754 8.52455 145.754 8.98236C145.754 9.62959 145.754 10.2768 145.739 10.9241C145.731 11.5713 145.692 12.2264 145.622 12.8974C145.552 13.5604 145.381 14.2313 145.116 14.8943C144.851 15.5573 144.501 16.173 144.08 16.7176C143.66 17.2702 143.162 17.7043 142.586 18.02C143.193 18.5646 143.816 19.1566 144.47 19.8038C145.116 20.4511 145.669 21.051 146.12 21.5956L145.396 22.1718C144.875 21.643 144.283 21.0431 143.606 20.3564C142.928 19.6697 142.243 19.0224 141.527 18.4147C141.426 18.4304 141.317 18.4462 141.2 18.4541C141.091 18.462 140.974 18.4699 140.849 18.4699C140.468 18.4699 140.055 18.3831 139.619 18.2173C139.176 18.0516 138.763 17.8385 138.358 17.5859C137.961 17.3333 137.634 17.0649 137.369 16.7808C137.105 16.4966 136.98 16.2519 136.98 16.0467L136.972 16.0625ZM151.78 6.81174C151.523 6.98539 151.298 7.24586 151.119 7.60106C150.94 7.94835 150.846 8.36669 150.846 8.84028V16.3861C150.846 16.9465 150.753 17.4359 150.558 17.8621C150.363 18.2884 150.177 18.6357 149.99 18.9277C149.795 19.2198 149.702 19.4644 149.702 19.6776C149.702 19.867 149.818 20.088 150.052 20.3327C150.286 20.5774 150.55 20.8142 150.854 21.0431C151.158 21.272 151.414 21.4535 151.617 21.5956L151.204 22.1718C150.994 22.0455 150.675 21.8403 150.247 21.5403C149.811 21.2404 149.367 20.9089 148.908 20.53C148.448 20.1511 148.059 19.7802 147.724 19.4092C147.397 19.0382 147.234 18.7383 147.234 18.4857C147.234 18.2252 147.327 17.9411 147.522 17.6332C147.709 17.3254 147.903 16.9702 148.09 16.5519C148.277 16.1414 148.378 15.6521 148.378 15.0916V8.65084C148.378 7.84574 148.588 7.23008 149.001 6.81174H148.612C148.285 6.82753 148.028 6.91435 147.833 7.07222C147.638 7.23008 147.475 7.38005 147.343 7.52212H146.774L145.038 5.54884L145.295 4.91739H150.068L151.78 6.81174Z" fill="#EDE6D6"/>
<path d="M156.498 16.3782C156.498 16.9386 156.405 17.4279 156.21 17.8542C156.016 18.2804 155.829 18.6277 155.642 18.9197C155.455 19.2118 155.354 19.4565 155.354 19.6696C155.354 19.859 155.471 20.08 155.704 20.3247C155.938 20.5694 156.203 20.8062 156.506 21.0351C156.81 21.264 157.067 21.4456 157.269 21.5876L156.857 22.1638C156.646 22.0375 156.327 21.8323 155.899 21.5324C155.471 21.2324 155.019 20.9009 154.568 20.5221C154.108 20.1432 153.719 19.7722 153.384 19.4012C153.057 19.0303 152.894 18.7303 152.894 18.4777C152.894 18.2173 152.987 17.9331 153.182 17.6253C153.369 17.3174 153.563 16.9622 153.75 16.5439C153.937 16.1256 154.038 15.6441 154.038 15.0837V8.64288C154.038 7.83778 154.248 7.22211 154.661 6.80378H149.53L148.962 4.90942H155.728L157.441 6.80378C157.184 6.97743 156.958 7.2379 156.779 7.59309C156.6 7.94828 156.506 8.35873 156.506 8.83231V16.3782H156.498Z" fill="#EDE6D6"/>
<path d="M169.205 16.3782C169.205 16.9386 169.111 17.4279 168.917 17.8542C168.722 18.2725 168.535 18.6277 168.348 18.9197C168.154 19.2118 168.06 19.4565 168.06 19.6696C168.06 19.859 168.177 20.08 168.41 20.3247C168.644 20.5694 168.909 20.8062 169.212 21.0351C169.516 21.264 169.773 21.4456 169.975 21.5876L169.563 22.1638C169.353 22.0375 169.033 21.8323 168.605 21.5324C168.169 21.2324 167.725 20.9009 167.266 20.5221C166.807 20.1432 166.417 19.7722 166.083 19.4012C165.756 19.0303 165.592 18.7303 165.592 18.4777C165.592 18.2173 165.686 17.9331 165.88 17.6253C166.067 17.3174 166.262 16.9622 166.449 16.5439C166.635 16.1335 166.737 15.6441 166.737 15.0837V12.3527C166.269 12.2974 165.818 12.2737 165.39 12.2737C165.024 12.2737 164.627 12.3763 164.183 12.5895C163.739 12.8026 163.373 13.1578 163.077 13.6708C163.108 14.1128 163.14 14.6022 163.171 15.1468C163.202 15.6915 163.217 16.2124 163.233 16.7255C163.249 17.2306 163.256 17.6647 163.256 18.012C163.256 18.3593 163.155 18.7066 162.945 18.9829C162.735 19.2592 162.462 19.4012 162.112 19.4012C161.832 19.4012 161.497 19.3065 161.084 19.125C160.679 18.9434 160.275 18.7066 159.877 18.4146C159.48 18.1225 159.146 17.7989 158.881 17.4437C158.616 17.0885 158.476 16.7412 158.476 16.4018C158.476 15.6678 158.608 14.9416 158.881 14.2233C159.146 13.5051 159.527 12.8499 160.01 12.2658C160.493 11.6817 161.053 11.2082 161.699 10.8451C162.338 10.482 163.023 10.3083 163.747 10.3083C164.3 10.3083 164.814 10.3557 165.288 10.4425C165.763 10.5293 166.246 10.6635 166.729 10.8372V8.65867C166.729 7.85357 166.939 7.2379 167.352 6.81957H162.992C162.563 6.85114 162.143 7.04057 161.746 7.37209C161.349 7.7036 161.038 8.03511 160.812 8.37451H160.243L157.674 5.56456L157.931 4.93311H168.41L170.123 6.82746C169.866 7.00111 169.641 7.26158 169.462 7.61677C169.282 7.96407 169.189 8.38241 169.189 8.856V16.4018L169.205 16.3782Z" fill="#EDE6D6"/>
<path d="M169.75 26.0001L169.026 25.4239C168.527 25.0214 168.021 24.7293 167.523 24.5557C167.025 24.382 166.472 24.2952 165.865 24.2952C165.499 24.2952 165.094 24.3347 164.642 24.4294C164.191 24.5162 163.692 24.6504 163.14 24.824L161.894 22.6455C162.883 22.2982 163.762 22.1167 164.541 22.1167C165.32 22.1167 166.067 22.3535 166.846 22.8429C167.624 23.3243 168.519 23.9953 169.539 24.8556L170.263 25.4634L169.742 26.0159L169.75 26.0001Z" fill="#EDE6D6"/>
<path d="M181.342 16.3783C181.342 16.9387 181.249 17.4281 181.054 17.8543C180.86 18.2727 180.673 18.6279 180.486 18.9199C180.299 19.212 180.198 19.4566 180.198 19.6698C180.198 19.8592 180.315 20.0802 180.548 20.3249C180.782 20.5696 181.046 20.8064 181.35 21.0353C181.654 21.2642 181.911 21.4457 182.113 21.5878L181.7 22.164C181.49 22.0377 181.171 21.8325 180.743 21.5325C180.315 21.2326 179.863 20.9011 179.412 20.5222C178.952 20.1433 178.563 19.7724 178.228 19.4014C177.901 19.0304 177.738 18.7305 177.738 18.4779C177.738 18.2174 177.831 17.9333 178.026 17.6254C178.213 17.3176 178.407 16.9624 178.594 16.5441C178.781 16.1257 178.882 15.6443 178.882 15.0838V12.2186C178.711 12.2028 178.524 12.1871 178.337 12.1792C178.15 12.1713 177.956 12.1634 177.769 12.1634C177.115 12.1634 176.492 12.4081 175.9 12.8974C175.308 13.3868 174.834 14.0262 174.46 14.8155C174.086 15.6048 173.899 16.4573 173.899 17.365C173.899 18.0122 174.102 18.6673 174.507 19.3382C174.911 20.0013 175.519 20.6643 176.336 21.3115L175.815 21.8877C174.452 20.909 173.362 19.8908 172.545 18.841C171.735 17.7912 171.322 16.8203 171.322 15.9205C171.322 14.8549 171.548 13.8841 172 13.0158C172.451 12.1476 173.035 11.453 173.759 10.9399C174.483 10.4269 175.246 10.1664 176.04 10.1664C176.562 10.1664 177.052 10.198 177.52 10.269C177.987 10.3401 178.438 10.4427 178.867 10.5848V8.64304C178.867 7.83794 179.077 7.22228 179.489 6.80394H175.861C175.41 6.80394 174.974 6.97759 174.538 7.317C174.11 7.6564 173.767 8.0037 173.526 8.35889H172.957L170.388 5.54893L170.645 4.91748H180.548L182.261 6.81183C182.004 6.98548 181.778 7.24596 181.599 7.60115C181.42 7.95634 181.327 8.36678 181.327 8.84037V16.3862L181.342 16.3783Z" fill="#EDE6D6"/>
<path d="M185.492 6.46448C185.181 6.16454 184.861 5.74621 184.534 5.20158C184.207 4.65695 184.044 4.13601 184.044 3.62295C184.044 2.97571 184.324 2.37583 184.877 1.82332C185.43 1.2708 186.162 0.82878 187.065 0.497268C187.968 0.165756 188.949 0 189.984 0C190.763 0 191.619 0.228901 192.554 0.694596C193.488 1.16029 194.422 1.79174 195.364 2.60474C196.306 3.40984 197.178 4.32544 197.972 5.33576L197.451 5.7541C196.446 4.61749 195.473 3.73346 194.523 3.1099C193.574 2.48634 192.585 2.17851 191.565 2.17851C190.545 2.17851 189.712 2.32058 188.972 2.61263C188.225 2.90468 187.649 3.27565 187.236 3.73346C186.823 4.19126 186.613 4.65695 186.613 5.13054C186.613 5.56466 186.746 5.99089 187.018 6.40923C187.283 6.81967 187.579 7.15908 187.89 7.41955C187.633 7.5932 187.407 7.86157 187.228 8.20887C187.049 8.55616 186.956 8.9745 186.956 9.44809V16.3862C186.956 16.9466 186.862 17.4359 186.668 17.8622C186.473 18.2884 186.286 18.6357 186.099 18.9277C185.905 19.2198 185.811 19.4645 185.811 19.6776C185.811 19.867 185.928 20.088 186.162 20.3327C186.395 20.5774 186.66 20.8142 186.964 21.0431C187.267 21.272 187.524 21.4536 187.727 21.5956L187.314 22.1718C187.104 22.0455 186.784 21.8403 186.356 21.5404C185.92 21.2404 185.477 20.9089 185.017 20.5301C184.558 20.1512 184.169 19.7802 183.834 19.4092C183.507 19.0383 183.343 18.7383 183.343 18.4857C183.343 18.2253 183.437 17.9411 183.631 17.6333C183.818 17.3254 184.013 16.9702 184.2 16.5519C184.387 16.1415 184.488 15.6521 184.488 15.0917V9.04554C184.488 8.45355 184.573 7.95628 184.737 7.56163C184.9 7.16697 185.157 6.80389 185.5 6.47237L185.492 6.46448Z" fill="#EDE6D6"/>
<path d="M189.307 16.2757C189.307 15.66 189.486 15.0444 189.852 14.4208C190.218 13.7973 190.716 13.2526 191.355 12.779V8.65094C191.355 7.84584 191.565 7.23017 191.978 6.81183C191.542 6.81183 191.222 6.89866 191.004 7.07231C190.786 7.24596 190.615 7.45118 190.475 7.68008H189.907L188.015 5.54893L188.272 4.91748H199.553L201.266 6.81183C201.009 6.98548 200.783 7.24596 200.604 7.60115C200.425 7.95634 200.331 8.36678 200.331 8.84037V16.3862C200.331 16.9466 200.238 17.436 200.043 17.8622C199.849 18.2806 199.662 18.6358 199.475 18.9278C199.288 19.2198 199.187 19.4645 199.187 19.6777C199.187 19.8671 199.304 20.0881 199.537 20.3328C199.771 20.5775 200.036 20.8143 200.339 21.0432C200.643 21.2721 200.9 21.4536 201.102 21.5957L200.69 22.1719C200.479 22.0456 200.16 21.8404 199.732 21.5404C199.304 21.2405 198.852 20.909 198.401 20.5301C197.941 20.1512 197.552 19.7803 197.217 19.4093C196.89 19.0383 196.727 18.7384 196.727 18.4858C196.727 18.2253 196.82 17.9412 197.015 17.6333C197.202 17.3255 197.396 16.9703 197.583 16.552C197.77 16.1336 197.871 15.6522 197.871 15.0917V13.4579C197.77 13.4579 197.661 13.4579 197.56 13.4421C197.459 13.4342 197.365 13.4263 197.272 13.4263C196.719 13.4263 196.143 13.4815 195.551 13.5999C194.952 13.7104 194.383 13.9472 193.83 14.2945V18.6594C193.83 19.0146 193.729 19.3304 193.519 19.6224C193.309 19.9144 193.036 20.0565 192.686 20.0565C192.429 20.0565 192.11 19.946 191.736 19.7171C191.362 19.4882 190.989 19.1883 190.623 18.8252C190.249 18.4542 189.938 18.0517 189.689 17.6018C189.439 17.1518 189.315 16.7098 189.315 16.2757H189.307ZM197.863 8.65094C197.863 7.84584 198.074 7.23017 198.486 6.81183H194.749C194.492 6.98548 194.266 7.24596 194.087 7.60115C193.908 7.95634 193.815 8.36678 193.815 8.84037V11.6819C194.056 11.6266 194.305 11.5872 194.555 11.5477C194.804 11.5161 195.061 11.4925 195.318 11.4925C195.785 11.4925 196.228 11.524 196.641 11.5872C197.054 11.6503 197.459 11.745 197.863 11.8634V8.65883V8.65094Z" fill="#EDE6D6"/>
<path d="M205.984 16.3782C205.984 16.9386 205.89 17.4279 205.696 17.8542C205.501 18.2804 205.314 18.6277 205.127 18.9197C204.941 19.2118 204.839 19.4565 204.839 19.6696C204.839 19.859 204.956 20.08 205.19 20.3247C205.423 20.5694 205.688 20.8062 205.992 21.0351C206.295 21.264 206.552 21.4456 206.755 21.5876L206.342 22.1638C206.132 22.0375 205.813 21.8323 205.384 21.5324C204.956 21.2324 204.505 20.9009 204.053 20.5221C203.594 20.1432 203.204 19.7722 202.87 19.4012C202.543 19.0303 202.379 18.7303 202.379 18.4777C202.379 18.2173 202.472 17.9331 202.667 17.6253C202.854 17.3174 203.049 16.9622 203.235 16.5439C203.422 16.1256 203.524 15.6441 203.524 15.0837V8.64288C203.524 7.83778 203.734 7.22211 204.146 6.80378H199.016L198.447 4.90942H205.213L206.926 6.80378C206.669 6.97743 206.443 7.2379 206.264 7.59309C206.085 7.94828 205.992 8.35873 205.992 8.83231V16.3782H205.984Z" fill="#EDE6D6"/>
<path d="M216.3 6.81183C216.043 6.98548 215.817 7.24596 215.638 7.60115C215.459 7.94845 215.365 8.36678 215.365 8.84037V12.1239C215.365 13.3 215.186 14.2472 214.82 14.9733C214.455 15.6995 213.948 16.2678 213.294 16.6704C212.858 16.9151 212.477 17.0571 212.142 17.0887C211.807 17.1203 211.636 17.1913 211.636 17.3018C211.636 17.4755 211.768 17.7359 212.041 18.0753C212.306 18.4147 212.648 18.8015 213.069 19.2356C213.481 19.6619 213.917 20.0881 214.377 20.5143C214.836 20.9327 215.264 21.3115 215.661 21.643L215.14 22.2745C214.673 21.9272 214.135 21.4852 213.52 20.9563C212.905 20.4275 212.29 19.8513 211.667 19.2199C211.044 18.5884 210.468 17.9491 209.931 17.3018C209.394 16.6546 208.966 16.031 208.631 15.4311C208.296 14.8313 208.14 14.3103 208.14 13.8525C208.14 13.2605 208.242 12.7712 208.452 12.3923C208.662 12.0134 208.911 11.7293 209.207 11.5398C209.503 11.3504 209.775 11.2478 210.04 11.2478C210.305 11.2478 210.593 11.3583 210.912 11.5872C211.231 11.8161 211.527 12.045 211.792 12.2739C212.057 12.5028 212.236 12.6133 212.321 12.6133C212.508 12.6133 212.656 12.4475 212.765 12.1239C212.866 11.8003 212.921 11.3662 212.921 10.8215V8.64304C212.921 7.83794 213.131 7.22228 213.544 6.80394H212.508C212.08 6.83551 211.659 7.02495 211.262 7.35646C210.865 7.68797 210.554 8.01948 210.328 8.35889H209.76L207.191 5.54893L207.447 4.91748H214.602L216.315 6.81183H216.3Z" fill="#EDE6D6"/>
<path d="M215.677 26.0001L214.953 25.4239C214.455 25.0214 213.949 24.7293 213.45 24.5557C212.952 24.382 212.399 24.2952 211.792 24.2952C211.426 24.2952 211.021 24.3347 210.57 24.4294C210.118 24.5162 209.62 24.6504 209.067 24.824L207.821 22.6455C208.81 22.2982 209.69 22.1167 210.468 22.1167C211.247 22.1167 211.994 22.3535 212.773 22.8429C213.551 23.3243 214.447 23.9953 215.467 24.8556L216.191 25.4634L215.669 26.0159L215.677 26.0001Z" fill="#EDE6D6"/>
<path d="M225.767 8.65077C225.767 7.84567 225.977 7.23001 226.39 6.81167H223.354C223.097 6.98532 222.871 7.2458 222.692 7.60099C222.513 7.94828 222.419 8.36662 222.419 8.84021V15.8099C222.419 16.3861 222.341 16.9465 222.186 17.4832C222.03 18.0199 221.812 18.4541 221.539 18.7856C221.259 19.1171 220.956 19.2828 220.605 19.2828C220.325 19.2828 219.99 19.1881 219.593 19.0066C219.196 18.825 218.815 18.5803 218.441 18.2725C218.067 17.9647 217.756 17.6253 217.507 17.2622C217.257 16.8912 217.133 16.5281 217.133 16.1571C217.133 15.4547 217.39 14.7522 217.896 14.0418C218.402 13.3314 219.095 12.7394 219.959 12.2658V8.66656C219.959 7.86146 220.169 7.2458 220.582 6.82746H220.348C219.897 6.82746 219.546 6.91428 219.297 7.08004C219.048 7.2458 218.838 7.45102 218.659 7.6957H218.09L216.199 5.56456L216.455 4.93311H227.449L229.162 6.82746C228.905 7.00111 228.679 7.26158 228.5 7.61677C228.321 7.97196 228.227 8.38241 228.227 8.856V16.4018C228.227 16.9622 228.134 17.4516 227.939 17.8779C227.745 18.2962 227.558 18.6514 227.371 18.9434C227.184 19.2355 227.083 19.4802 227.083 19.6933C227.083 19.8827 227.2 20.1037 227.433 20.3484C227.667 20.5931 227.931 20.8299 228.235 21.0588C228.539 21.2877 228.796 21.4692 228.998 21.6113L228.585 22.1875C228.375 22.0612 228.056 21.856 227.628 21.5561C227.2 21.2561 226.748 20.9246 226.296 20.5457C225.837 20.1669 225.448 19.7959 225.113 19.4249C224.786 19.0539 224.623 18.754 224.623 18.5014C224.623 18.2409 224.716 17.9568 224.911 17.649C225.097 17.3411 225.292 16.9859 225.479 16.5676C225.666 16.1493 225.767 15.6678 225.767 15.1074V8.66656V8.65077Z" fill="#EDE6D6"/>
<path d="M232.797 12.9605L230.851 10.8846V10.5926C231.147 10.2453 231.466 9.9059 231.824 9.59017C232.182 9.27445 232.564 8.99819 232.977 8.74561L234.923 10.7662L234.9 11.1057C234.518 11.3898 234.152 11.6897 233.81 12.0134C233.467 12.337 233.124 12.6527 232.797 12.9448V12.9605ZM232.797 21.1615L230.851 19.0856V18.7936C231.147 18.4463 231.466 18.1069 231.824 17.7911C232.182 17.4754 232.564 17.1992 232.977 16.9466L234.923 18.9751L234.9 19.3145C234.518 19.5987 234.152 19.8986 233.81 20.2222C233.467 20.5458 233.124 20.8537 232.797 21.1536V21.1615Z" fill="#EDE6D6"/>
<path d="M241.066 19.7724C241.066 20.3329 240.926 20.8775 240.653 21.4063C240.373 21.9352 239.952 22.3693 239.384 22.7245L237.671 20.8301C237.928 20.6407 238.154 20.3723 238.333 20.0408C238.512 19.7093 238.605 19.3225 238.605 18.8805V6.94609C238.605 6.38568 238.746 5.84105 239.018 5.30432C239.291 4.76759 239.719 4.33346 240.287 4.00195L242 5.89631C241.743 6.06996 241.517 6.32254 241.338 6.66194C241.159 6.99345 241.066 7.38811 241.066 7.84591V19.7803V19.7724Z" fill="#EDE6D6"/>
</g>
<defs>
<clipPath id="clip0_283_145">
<rect width="242" height="26" fill="white"/>
</clipPath>
</defs>
</svg>
