<svg width="160" height="27" viewBox="0 0 160 27" fill="none" xmlns="http://www.w3.org/2000/svg">
<path d="M14.2322 16.127C14.2322 16.6788 14.1395 17.1607 13.9463 17.5804C13.7531 17.9923 13.5677 18.342 13.3823 18.6296C13.1968 18.9172 13.0964 19.1581 13.0964 19.3679C13.0964 19.5545 13.2123 19.7721 13.4441 20.013C13.6759 20.254 13.9386 20.4871 14.2399 20.7125C14.5412 20.9379 14.7962 21.1167 14.9971 21.2565L14.5876 21.8239C14.379 21.6996 14.0622 21.4975 13.6372 21.2021C13.2123 20.9068 12.7641 20.5804 12.316 20.2073C11.8601 19.8343 11.4738 19.469 11.1416 19.1037C10.8171 18.7384 10.6548 18.4431 10.6548 18.1944C10.6548 17.9379 10.7475 17.6581 10.9407 17.355C11.1261 17.0519 11.3193 16.7021 11.5047 16.2902C11.6902 15.8783 11.7906 15.4042 11.7906 14.8524V13.5078C11.7211 13.4923 11.6515 13.4845 11.582 13.4845H11.3734C10.9252 13.4845 10.4308 13.6011 9.88217 13.8343C9.33359 14.0674 8.78501 14.3705 8.24416 14.7436C7.7033 15.1167 7.20881 15.5053 6.76067 15.9094C6.31254 16.3135 5.95712 16.6866 5.67896 17.0363C5.40081 17.3783 5.26946 17.6503 5.26946 17.8369C5.26946 18.0778 5.42399 18.3887 5.73305 18.7695C6.04211 19.1503 6.43616 19.5622 6.9152 19.9975C7.39424 20.4327 7.89646 20.8757 8.40641 21.3032L7.88874 21.9249C7.42515 21.583 6.89202 21.1477 6.28163 20.627C5.67124 20.1063 5.06085 19.5389 4.44273 18.9172C3.82461 18.2954 3.25285 17.6659 2.71972 17.0286C2.18659 16.3913 1.76164 15.7773 1.4294 15.1866C1.09716 14.5959 0.942631 14.083 0.942631 13.6322C0.942631 13.0493 1.04308 12.5752 1.25169 12.2177C1.46031 11.8602 1.70755 11.6037 2.00116 11.4405C2.29477 11.2773 2.56519 11.1918 2.82789 11.1918C3.09059 11.1918 3.37647 11.3084 3.69326 11.526C4.01004 11.7514 4.30365 11.9768 4.56635 12.2021C4.82905 12.4275 5.00676 12.5363 5.09175 12.5363C5.27719 12.5363 5.42399 12.3731 5.53216 12.0545C5.63261 11.7358 5.68669 11.3084 5.68669 10.7721V8.49489C5.68669 7.70214 5.89531 7.09593 6.30481 6.68401H5.43172C4.98358 6.68401 4.5509 6.85499 4.11822 7.18919C3.69326 7.52339 3.35329 7.86536 3.11377 8.2151H2.54974L0 5.4638L0.254974 4.84204H13.4595L15.1594 6.70733C14.9044 6.87831 14.6803 7.12702 14.5026 7.44567C14.3249 7.76432 14.2322 8.14515 14.2322 8.59593V16.127ZM11.7906 8.51821C11.7906 7.72546 11.9992 7.11924 12.4087 6.70733H9.06316C8.80819 6.87831 8.58412 7.13479 8.40641 7.48453C8.2287 7.8265 8.13599 8.23841 8.13599 8.70474V12.07C8.87773 11.7436 9.55766 11.5804 10.199 11.5804C10.4539 11.5804 10.7166 11.5959 10.9871 11.6348C11.2498 11.6659 11.5202 11.7203 11.7983 11.7902V8.52598L11.7906 8.51821Z" fill="#EDE6D6"/>
<path d="M14.773 25.6009L14.0544 25.0336C13.56 24.6372 13.0577 24.3496 12.5632 24.1787C12.0687 24.0077 11.5202 23.9222 10.9175 23.9222C10.5544 23.9222 10.1526 23.961 9.70444 24.0543C9.2563 24.1398 8.76181 24.2719 8.21323 24.4429L6.97699 22.2978C7.95825 21.9559 8.83135 21.7771 9.60399 21.7771C10.3766 21.7771 11.1184 22.0103 11.891 22.4921C12.6637 22.9662 13.5522 23.6268 14.5644 24.474L15.283 25.0724L14.7653 25.6165L14.773 25.6009Z" fill="#EDE6D6"/>
<path d="M23.9598 8.51825C23.9598 7.7255 24.1684 7.11928 24.5779 6.70737H20.7456C20.3206 6.72291 19.8957 6.8939 19.4862 7.22809C19.0767 7.56229 18.7599 7.88871 18.5358 8.23846H17.9718L15.4221 5.47162L15.677 4.84985H25.6365L27.3363 6.71514C27.0813 6.88612 26.8573 7.1426 26.6795 7.49234C26.5018 7.83431 26.4091 8.24623 26.4091 8.71255V16.1426C26.4091 16.6944 26.3164 17.1763 26.1232 17.596C25.9301 18.0157 25.7446 18.3576 25.5592 18.6452C25.366 18.9328 25.2733 19.1737 25.2733 19.3835C25.2733 19.5701 25.3892 19.7877 25.621 20.0286C25.8528 20.2695 26.1155 20.5027 26.4168 20.7281C26.7182 20.9535 26.9731 21.1322 27.174 21.2721L26.7645 21.8395C26.5559 21.6996 26.2314 21.4742 25.7755 21.1633C25.3197 20.8524 24.8561 20.5027 24.3693 20.1141C23.8903 19.7255 23.504 19.3602 23.2104 19.0105C22.9708 19.096 22.7236 19.1737 22.4609 19.2281C22.2059 19.2903 21.9509 19.3214 21.7114 19.3214C21.4719 19.3214 21.1319 19.2514 20.6915 19.1115C20.2511 18.9716 19.7875 18.7695 19.2853 18.5053C18.7908 18.241 18.3118 17.9146 17.8559 17.5338C17.4 17.153 17.0292 16.7255 16.751 16.2514C16.4651 15.7773 16.3261 15.2644 16.3261 14.7125C16.3261 13.64 16.5269 12.7462 16.9287 12.0234C17.3305 11.3006 17.8636 10.7488 18.5281 10.368C19.1926 9.98716 19.9034 9.80063 20.6761 9.80063C21.3483 9.80063 21.9664 9.85504 22.5304 9.95607C23.0945 10.0571 23.5658 10.1815 23.9444 10.3214V8.53379L23.9598 8.51825ZM19.7103 17.3939C20.1352 17.3939 20.622 17.2929 21.1628 17.083C21.7037 16.8732 22.2291 16.5856 22.7313 16.2125C23.2335 15.8395 23.643 15.4198 23.9521 14.9535V11.798C23.6971 11.767 23.4576 11.7359 23.2413 11.7203C23.0249 11.7048 22.824 11.697 22.6386 11.697C21.9896 11.697 21.3637 11.8758 20.7765 12.241C20.1816 12.6063 19.7103 13.1271 19.3471 13.8188C18.984 14.5105 18.8063 15.3576 18.8063 16.3524C18.8063 16.6322 18.8758 16.8732 19.0226 17.0752C19.1694 17.2773 19.3935 17.3861 19.7025 17.3861L19.7103 17.3939Z" fill="#EDE6D6"/>
<path d="M37.7825 16.127C37.7825 16.6788 37.6898 17.1607 37.4966 17.5803C37.3035 17.9923 37.118 18.342 36.9326 18.6296C36.7472 18.9171 36.6467 19.1581 36.6467 19.3679C36.6467 19.5544 36.7626 19.7721 36.9944 20.013C37.2262 20.2539 37.4889 20.4871 37.7903 20.7125C38.0916 20.9379 38.3466 21.1166 38.5474 21.2565L38.1379 21.8239C37.9525 21.7228 37.6744 21.5441 37.3112 21.2954C36.9481 21.0467 36.5617 20.7591 36.1522 20.4404C35.7427 20.1218 35.3641 19.7954 35.0164 19.4689C34.6688 19.1425 34.437 18.8472 34.2979 18.5907C34.1434 18.6218 33.9965 18.6529 33.8575 18.684C33.7184 18.7151 33.5793 18.7228 33.448 18.7228C33.0539 18.7228 32.6058 18.5985 32.0958 18.3575C31.5859 18.1166 31.0991 17.798 30.6123 17.4094C30.1333 17.0208 29.7315 16.6011 29.4147 16.1503C29.098 15.6995 28.9357 15.2721 28.9357 14.8524C28.9357 14.5259 29.0361 14.0752 29.2448 13.4923C29.4534 12.9094 29.5538 12.2565 29.5538 11.5104V8.51039C29.5538 8.23837 29.577 7.96635 29.6311 7.70988L27.5681 5.45599L27.8231 4.83423H36.9867L38.6865 6.69951C38.4315 6.8705 38.2075 7.12697 38.0298 7.47672C37.8521 7.82646 37.7593 8.2306 37.7593 8.69692V16.127H37.7825ZM35.3332 8.51817C35.3332 7.72542 35.5418 7.1192 35.9513 6.70729H32.938C32.683 6.87827 32.459 7.13475 32.2813 7.48449C32.1036 7.83423 32.0108 8.23837 32.0108 8.70469V12.8705C32.0108 13.3912 31.949 13.8575 31.8331 14.285C31.7095 14.7047 31.5936 15.0778 31.47 15.3964C31.3464 15.7151 31.2923 15.9871 31.2923 16.2125C31.2923 16.6088 31.4545 16.8109 31.779 16.8109C32.0881 16.8109 32.459 16.7332 32.8839 16.5778C33.3089 16.4223 33.7493 16.2047 34.1974 15.9171C34.6456 15.6296 35.0242 15.3109 35.3332 14.9456V8.52594V8.51817Z" fill="#EDE6D6"/>
<path d="M38.3234 25.6009L37.6048 25.0336C37.1103 24.6372 36.6081 24.3496 36.1136 24.1787C35.6191 24.0077 35.0705 23.9222 34.4679 23.9222C34.1047 23.9222 33.7029 23.961 33.2548 24.0543C32.8067 24.1398 32.3122 24.2719 31.7636 24.4429L30.5273 22.2978C31.5086 21.9559 32.3817 21.7771 33.1543 21.7771C33.927 21.7771 34.6687 22.0103 35.4414 22.4921C36.214 22.9662 37.1026 23.6268 38.1148 24.474L38.8333 25.0724L38.3156 25.6165L38.3234 25.6009Z" fill="#EDE6D6"/>
<path d="M48.0201 6.70733C47.7651 6.87831 47.541 7.13479 47.3633 7.48453C47.1856 7.8265 47.0929 8.23841 47.0929 8.70473V11.9379C47.0929 13.0959 46.9152 14.0286 46.5521 14.7436C46.1889 15.4586 45.6867 16.0182 45.0377 16.4146C44.605 16.6555 44.2264 16.7954 43.8941 16.8265C43.5619 16.8576 43.3919 16.9275 43.3919 17.0363C43.3919 17.2073 43.5233 17.4638 43.7937 17.798C44.0564 18.1322 44.3964 18.513 44.8136 18.9405C45.2231 19.3602 45.6558 19.7799 46.1116 20.1996C46.5675 20.6115 46.9925 20.9845 47.3865 21.311L46.8688 21.9327C46.4053 21.5907 45.8721 21.1555 45.2617 20.6348C44.6513 20.1141 44.0409 19.5467 43.4228 18.9249C42.8047 18.3032 42.233 17.6736 41.6998 17.0363C41.1667 16.399 40.7417 15.785 40.4095 15.1944C40.0773 14.6037 39.9227 14.0907 39.9227 13.64C39.9227 13.0571 40.0232 12.5752 40.2318 12.2021C40.4404 11.8291 40.6877 11.5493 40.9813 11.3628C41.2749 11.1762 41.5453 11.0752 41.808 11.0752C42.0707 11.0752 42.3566 11.184 42.6734 11.4094C42.9901 11.6348 43.2838 11.8602 43.5465 12.0856C43.8092 12.311 43.9869 12.4198 44.0719 12.4198C44.2573 12.4198 44.4041 12.2565 44.5123 11.9379C44.6127 11.6192 44.6668 11.1918 44.6668 10.6555V8.51043C44.6668 7.71769 44.8754 7.11147 45.2849 6.69955H44.2573C43.8323 6.73064 43.4151 6.91717 43.0211 7.24359C42.627 7.57002 42.3179 7.89645 42.0939 8.23064H41.5298L38.9801 5.4638L39.2351 4.84204H46.3357L48.0355 6.70733H48.0201Z" fill="#EDE6D6"/>
<path d="M56.5965 8.51825C56.5965 7.7255 56.8051 7.11928 57.2146 6.70737H53.3823C52.9573 6.72291 52.5323 6.8939 52.1228 7.22809C51.7133 7.56229 51.3966 7.88871 51.1725 8.23846H50.6085L48.0587 5.47162L48.3137 4.84985H58.2731L59.973 6.71514C59.718 6.88612 59.4939 7.1426 59.3162 7.49234C59.1385 7.83431 59.0458 8.24623 59.0458 8.71255V16.1426C59.0458 16.6944 58.9531 17.1763 58.7599 17.596C58.5667 18.0157 58.3813 18.3576 58.1959 18.6452C58.0027 18.9328 57.91 19.1737 57.91 19.3835C57.91 19.5701 58.0259 19.7877 58.2577 20.0286C58.4895 20.2695 58.7522 20.5027 59.0535 20.7281C59.3548 20.9535 59.6098 21.1322 59.8107 21.2721L59.4012 21.8395C59.1926 21.6996 58.8681 21.4742 58.4122 21.1633C57.9563 20.8524 57.4928 20.5027 57.006 20.1141C56.5269 19.7255 56.1406 19.3602 55.847 19.0105C55.6075 19.096 55.3602 19.1737 55.0975 19.2281C54.8426 19.2903 54.5876 19.3214 54.3481 19.3214C54.1085 19.3214 53.7686 19.2514 53.3282 19.1115C52.8878 18.9716 52.4242 18.7695 51.922 18.5053C51.4275 18.241 50.9484 17.9146 50.4926 17.5338C50.0367 17.153 49.6658 16.7255 49.3877 16.2514C49.1018 15.7773 48.9627 15.2644 48.9627 14.7125C48.9627 13.64 49.1636 12.7462 49.5654 12.0234C49.9672 11.3006 50.5003 10.7488 51.1648 10.368C51.8292 9.98716 52.5401 9.80063 53.3127 9.80063C53.9849 9.80063 54.603 9.85504 55.1671 9.95607C55.7311 10.0571 56.2024 10.1815 56.581 10.3214V8.53379L56.5965 8.51825ZM52.3469 17.3939C52.7719 17.3939 53.2586 17.2929 53.7995 17.083C54.3403 16.8732 54.8657 16.5856 55.368 16.2125C55.8702 15.8395 56.2797 15.4198 56.5888 14.9535V11.798C56.3338 11.767 56.0943 11.7359 55.8779 11.7203C55.6616 11.7048 55.4607 11.697 55.2753 11.697C54.6262 11.697 54.0004 11.8758 53.4132 12.241C52.8182 12.6063 52.3469 13.1271 51.9838 13.8188C51.6206 14.5105 51.4429 15.3576 51.4429 16.3524C51.4429 16.6322 51.5125 16.8732 51.6593 17.0752C51.8061 17.2773 52.0301 17.3861 52.3392 17.3861L52.3469 17.3939Z" fill="#EDE6D6"/>
<path d="M64.6474 16.127C64.6474 16.6788 64.5547 17.1607 64.3616 17.5803C64.1684 18 63.983 18.342 63.7975 18.6296C63.6121 18.9171 63.5117 19.1581 63.5117 19.3679C63.5117 19.5544 63.6276 19.7721 63.8593 20.013C64.0911 20.2539 64.3538 20.4871 64.6552 20.7125C64.9565 20.9379 65.2115 21.1166 65.4124 21.2565L65.0029 21.8239C64.7943 21.6995 64.4775 21.4974 64.0525 21.2021C63.6276 20.9068 63.1794 20.5803 62.7313 20.2073C62.2754 19.8342 61.8891 19.4689 61.5569 19.1037C61.2323 18.7384 61.0701 18.443 61.0701 18.1943C61.0701 17.9379 61.1628 17.6581 61.356 17.355C61.5414 17.0518 61.7346 16.7021 61.92 16.2902C62.1054 15.8783 62.2059 15.4042 62.2059 14.8524V8.51039C62.2059 7.71765 62.4145 7.11143 62.824 6.69951H57.7322L57.1682 4.83423H63.8825L65.5824 6.69951C65.3274 6.8705 65.1033 7.12697 64.9256 7.47672C64.7479 7.82646 64.6552 8.2306 64.6552 8.69692V16.127H64.6474Z" fill="#EDE6D6"/>
<path d="M78.6478 11.9068C78.1302 11.767 77.6357 11.6737 77.1566 11.6193C76.6776 11.5649 76.1908 11.5416 75.6886 11.5416C71.4158 11.5416 69.2833 13.3214 69.2833 16.8732C69.2833 17.2851 69.3992 17.4949 69.6465 17.4949C69.801 17.4949 70.0328 17.355 70.3419 17.083C70.6509 16.811 71.0063 16.469 71.4081 16.0571C71.8099 15.653 72.2426 15.241 72.7062 14.8291C73.1698 14.4172 73.6411 14.0675 74.1201 13.7954C74.5992 13.5234 75.055 13.3835 75.4877 13.3835C75.8818 13.3835 76.3222 13.5157 76.8012 13.7721C77.2802 14.0286 77.7438 14.355 78.192 14.7436C78.6401 15.1322 79.0033 15.5442 79.2969 15.9872C79.5905 16.4302 79.7373 16.8265 79.7373 17.1918C79.7373 17.6892 79.5982 18.2022 79.3123 18.7229C79.0264 19.2436 78.6478 19.7488 78.1688 20.2462L75.8818 18.6141C76.2217 18.2721 76.554 17.8369 76.8707 17.3162C77.1875 16.7955 77.3498 16.298 77.3498 15.8162C77.3498 15.4897 77.1953 15.3265 76.8862 15.3265C76.5771 15.3265 76.2063 15.5131 75.7659 15.8939C75.3254 16.2747 74.8619 16.7255 74.3596 17.2385C73.8651 17.7592 73.3629 18.21 72.8684 18.6063C73.3861 19.1737 73.9965 19.7644 74.7073 20.3706C75.4182 20.9768 76.0826 21.5131 76.7008 21.9716L76.1367 22.6711C75.4491 22.1892 74.7151 21.6374 73.927 21.0312C73.1389 20.4172 72.4666 19.8265 71.9181 19.2592C71.7944 19.3136 71.6708 19.3524 71.5472 19.3913C71.4158 19.4224 71.2922 19.4457 71.1763 19.4457C70.8673 19.4457 70.4655 19.3369 69.9787 19.1115C69.492 18.8861 69.0052 18.583 68.5261 18.2022C68.0471 17.8214 67.6453 17.3939 67.3131 16.9043C66.9886 16.4224 66.8263 15.9328 66.8263 15.4276C66.8263 13.3758 67.4058 11.8913 68.5648 10.9742C69.7237 10.0571 71.524 9.60633 73.9579 9.60633C74.406 9.60633 74.8464 9.63742 75.2868 9.69959C75.7272 9.76177 76.1831 9.83172 76.6621 9.91721V8.51825C76.6621 7.7255 76.8707 7.11928 77.2802 6.70737H71.2613C70.8286 6.73845 70.4191 6.92498 70.0251 7.25141C69.631 7.57783 69.322 7.90426 69.0979 8.23846H68.5339L65.9841 5.47162L66.2391 4.84985H78.3388L80.0386 6.71514C79.7836 6.88612 79.5596 7.1426 79.3818 7.49234C79.2041 7.84208 79.1114 8.24623 79.1114 8.71255V11.5571L78.671 11.9224L78.6478 11.9068Z" fill="#EDE6D6"/>
<path d="M92.9341 8.51804C92.9341 7.7253 93.1428 7.11908 93.5523 6.70716H90.5389C90.284 6.87815 90.0599 7.13462 89.8822 7.48436C89.7045 7.82633 89.6118 8.23825 89.6118 8.70457V15.5673C89.6118 16.1346 89.5345 16.6864 89.38 17.2149C89.2254 17.7434 89.0091 18.1709 88.7387 18.4973C88.4605 18.8237 88.1592 18.987 87.8115 18.987C87.5333 18.987 87.2011 18.8937 86.807 18.7149C86.413 18.5362 86.0344 18.2952 85.6635 17.9921C85.2927 17.689 84.9836 17.3548 84.7363 16.9973C84.4891 16.632 84.3655 16.2745 84.3655 15.9092C84.3655 15.2175 84.6204 14.5258 85.1227 13.8263C85.6249 13.1269 86.3125 12.544 87.1702 12.0776V8.53359C87.1702 7.74084 87.3788 7.13462 87.7883 6.72271H87.5565C87.1084 6.72271 86.7607 6.8082 86.5134 6.97141C86.2662 7.13462 86.0576 7.3367 85.8799 7.57763H85.3158L83.4383 5.47918L83.6933 4.85742H94.6031L96.3029 6.72271C96.0479 6.89369 95.8238 7.15017 95.6461 7.49991C95.4684 7.84965 95.3757 8.2538 95.3757 8.72012V16.1502C95.3757 16.702 95.283 17.1838 95.0898 17.6035C94.8967 18.0155 94.7112 18.3652 94.5258 18.6528C94.3404 18.9403 94.2399 19.1813 94.2399 19.3911C94.2399 19.5776 94.3558 19.7952 94.5876 20.0362C94.8194 20.2771 95.0821 20.5103 95.3834 20.7357C95.6848 20.961 95.9397 21.1398 96.1406 21.2797L95.7311 21.8471C95.5225 21.7227 95.2057 21.5206 94.7808 21.2253C94.3558 20.93 93.9077 20.6035 93.4595 20.2305C93.0037 19.8574 92.6174 19.4921 92.2851 19.1269C91.9606 18.7616 91.7983 18.4662 91.7983 18.2175C91.7983 17.961 91.8911 17.6813 92.0842 17.3781C92.2697 17.075 92.4628 16.7253 92.6483 16.3134C92.8337 15.9015 92.9341 15.4274 92.9341 14.8756V8.53359V8.51804Z" fill="#EDE6D6"/>
<path d="M93.1891 26.9999C92.7642 26.9999 92.2233 26.8911 91.582 26.6735C90.9407 26.4559 90.2994 26.1683 89.6659 25.803C89.0323 25.4377 88.4992 25.0491 88.0665 24.6217C87.6415 24.202 87.4252 23.7823 87.4252 23.3626C87.4252 22.9429 87.6492 22.6165 88.1051 22.3134C88.561 22.0103 89.1945 21.8237 89.9981 21.7538L93.2432 21.4973L94.8426 22.9507L94.7112 23.2849L91.2652 23.7279C90.3226 23.8678 89.8513 24.132 89.8513 24.5284C89.8513 24.7149 89.9904 24.8859 90.2762 25.018C90.5621 25.1579 90.8866 25.2279 91.2652 25.2279C91.8138 25.2279 92.4165 25.1657 93.0655 25.0336C93.7145 24.9015 94.2863 24.7382 94.7653 24.5284L96.1793 26.1838C95.8857 26.3937 95.4762 26.5724 94.943 26.7434C94.4099 26.9066 93.8304 26.9921 93.1969 26.9921L93.1891 26.9999Z" fill="#EDE6D6"/>
<path d="M109.376 11.9068C108.858 11.767 108.364 11.6737 107.885 11.6193C107.406 11.5649 106.919 11.5416 106.417 11.5416C102.144 11.5416 100.012 13.3214 100.012 16.8732C100.012 17.2851 100.128 17.4949 100.375 17.4949C100.529 17.4949 100.761 17.355 101.07 17.083C101.379 16.811 101.735 16.469 102.136 16.0571C102.538 15.653 102.971 15.241 103.434 14.8291C103.898 14.4172 104.369 14.0675 104.848 13.7954C105.327 13.5234 105.783 13.3835 106.216 13.3835C106.61 13.3835 107.05 13.5157 107.529 13.7721C108.009 14.0286 108.472 14.355 108.92 14.7436C109.368 15.1322 109.732 15.5442 110.025 15.9872C110.319 16.4302 110.466 16.8265 110.466 17.1918C110.466 17.6892 110.326 18.2022 110.041 18.7229C109.755 19.2436 109.376 19.7488 108.897 20.2462L106.61 18.6141C106.95 18.2721 107.282 17.8369 107.599 17.3162C107.916 16.7955 108.078 16.298 108.078 15.8162C108.078 15.4897 107.924 15.3265 107.614 15.3265C107.305 15.3265 106.935 15.5131 106.494 15.8939C106.054 16.2747 105.59 16.7255 105.088 17.2385C104.593 17.7592 104.091 18.21 103.597 18.6063C104.114 19.1737 104.725 19.7644 105.436 20.3706C106.146 20.9768 106.811 21.5131 107.429 21.9716L106.865 22.6711C106.177 22.1892 105.443 21.6374 104.655 21.0312C103.867 20.4172 103.195 19.8265 102.646 19.2592C102.523 19.3136 102.399 19.3524 102.275 19.3913C102.144 19.4224 102.02 19.4457 101.905 19.4457C101.596 19.4457 101.194 19.3369 100.707 19.1115C100.22 18.8861 99.7335 18.583 99.2544 18.2022C98.7754 17.8214 98.3736 17.3939 98.0414 16.9043C97.7168 16.4224 97.5546 15.9328 97.5546 15.4276C97.5546 13.3758 98.1341 11.8913 99.293 10.9742C100.452 10.0571 102.252 9.60633 104.686 9.60633C105.134 9.60633 105.575 9.63742 106.015 9.69959C106.456 9.76177 106.911 9.83172 107.39 9.91721V8.51825C107.39 7.7255 107.599 7.11928 108.009 6.70737H101.99C101.557 6.73845 101.147 6.92498 100.753 7.25141C100.359 7.57783 100.05 7.90426 99.8262 8.23846H99.2621L96.7124 5.47162L96.9674 4.84985H109.067L110.767 6.71514C110.512 6.88612 110.288 7.1426 110.11 7.49234C109.932 7.84208 109.84 8.24623 109.84 8.71255V11.5571L109.399 11.9224L109.376 11.9068Z" fill="#EDE6D6"/>
<path d="M110.303 25.6009L109.585 25.0336C109.09 24.6372 108.588 24.3496 108.094 24.1787C107.599 24.0077 107.05 23.9222 106.448 23.9222C106.085 23.9222 105.683 23.961 105.235 24.0543C104.787 24.1398 104.292 24.2719 103.744 24.4429L102.507 22.2978C103.489 21.9559 104.362 21.7771 105.134 21.7771C105.907 21.7771 106.649 22.0103 107.421 22.4921C108.194 22.9662 109.083 23.6268 110.095 24.474L110.813 25.0724L110.296 25.6165L110.303 25.6009Z" fill="#EDE6D6"/>
<path d="M125.849 16.127C125.849 16.6788 125.756 17.1607 125.563 17.5803C125.37 17.9923 125.184 18.342 124.999 18.6296C124.814 18.9171 124.713 19.1581 124.713 19.3679C124.713 19.5544 124.829 19.7721 125.061 20.013C125.293 20.2539 125.555 20.4871 125.857 20.7125C126.158 20.9379 126.413 21.1166 126.614 21.2565L126.204 21.8239C125.996 21.6995 125.679 21.4974 125.254 21.2021C124.829 20.9068 124.381 20.5803 123.933 20.2073C123.477 19.8342 123.091 19.4689 122.758 19.1037C122.434 18.7384 122.272 18.443 122.272 18.1943C122.272 17.9379 122.364 17.6581 122.557 17.355C122.743 17.0518 122.936 16.7021 123.122 16.2902C123.307 15.8783 123.407 15.4042 123.407 14.8524V8.51039C123.407 7.71765 123.616 7.11143 124.026 6.69951H121.63C121.375 6.8705 121.151 7.12697 120.974 7.47672C120.796 7.82646 120.703 8.2306 120.703 8.69692V15.0933C120.703 15.785 120.525 16.399 120.162 16.943C119.799 17.4871 119.359 17.9145 118.826 18.241C118.292 18.5674 117.752 18.7228 117.203 18.7228C116.778 18.7228 116.276 18.5985 115.712 18.3575C115.148 18.1166 114.591 17.798 114.051 17.4094C113.51 17.0208 113.062 16.6011 112.714 16.1503C112.359 15.6995 112.189 15.2721 112.189 14.8524C112.189 14.5259 112.289 14.0752 112.498 13.4923C112.706 12.9171 112.807 12.2565 112.807 11.5104V8.51039C112.807 8.23837 112.83 7.96635 112.884 7.70988L110.829 5.45599L111.084 4.83423H125.084L126.784 6.69951C126.529 6.8705 126.305 7.12697 126.127 7.47672C125.949 7.82646 125.857 8.2306 125.857 8.69692V16.127H125.849ZM118.254 8.51817C118.254 7.72542 118.462 7.1192 118.872 6.70729H116.168C115.913 6.87827 115.689 7.13475 115.511 7.48449C115.333 7.82646 115.24 8.23837 115.24 8.70469V12.8705C115.24 13.3912 115.179 13.8575 115.063 14.285C114.939 14.7047 114.823 15.0778 114.7 15.3964C114.576 15.7151 114.522 15.9871 114.522 16.2125C114.522 16.3835 114.615 16.5311 114.808 16.6399C114.993 16.7487 115.233 16.8109 115.526 16.8109C115.936 16.8109 116.353 16.7021 116.778 16.4767C117.195 16.2513 117.551 15.9171 117.837 15.4819C118.122 15.0467 118.262 14.4949 118.262 13.8342V8.52594L118.254 8.51817Z" fill="#EDE6D6"/>
<path d="M131.458 16.127C131.458 16.6788 131.366 17.1607 131.172 17.5803C130.979 18 130.794 18.342 130.608 18.6296C130.423 18.9171 130.323 19.1581 130.323 19.3679C130.323 19.5544 130.438 19.7721 130.67 20.013C130.902 20.2539 131.165 20.4871 131.466 20.7125C131.767 20.9379 132.022 21.1166 132.223 21.2565L131.814 21.8239C131.605 21.6995 131.288 21.4974 130.863 21.2021C130.438 20.9068 129.99 20.5803 129.542 20.2073C129.086 19.8342 128.7 19.4689 128.368 19.1037C128.043 18.7384 127.881 18.443 127.881 18.1943C127.881 17.9379 127.974 17.6581 128.167 17.355C128.352 17.0518 128.545 16.7021 128.731 16.2902C128.916 15.8783 129.017 15.4042 129.017 14.8524V8.51039C129.017 7.71765 129.225 7.11143 129.635 6.69951H124.543L123.979 4.83423H130.693L132.393 6.69951C132.138 6.8705 131.914 7.12697 131.737 7.47672C131.559 7.82646 131.466 8.2306 131.466 8.69692V16.127H131.458Z" fill="#EDE6D6"/>
<path d="M143.504 16.127C143.504 16.6788 143.411 17.1607 143.218 17.5804C143.025 17.9923 142.839 18.342 142.654 18.6296C142.469 18.9172 142.368 19.1581 142.368 19.3679C142.368 19.5545 142.484 19.7721 142.716 20.013C142.948 20.254 143.21 20.4871 143.512 20.7125C143.813 20.9379 144.068 21.1167 144.269 21.2565L143.859 21.8239C143.651 21.6996 143.334 21.4975 142.909 21.2021C142.484 20.9068 142.036 20.5804 141.588 20.2073C141.132 19.8343 140.746 19.469 140.413 19.1037C140.089 18.7384 139.927 18.4431 139.927 18.1944C139.927 17.9379 140.019 17.6581 140.212 17.355C140.398 17.0519 140.591 16.7021 140.777 16.2902C140.962 15.8783 141.062 15.4042 141.062 14.8524V12.0312C140.892 12.0156 140.707 12.0001 140.522 11.9923C140.336 11.9845 140.143 11.9768 139.958 11.9768C139.308 11.9768 138.69 12.2177 138.103 12.6996C137.516 13.1814 137.045 13.811 136.674 14.5882C136.303 15.3654 136.117 16.2047 136.117 17.0985C136.117 17.7358 136.318 18.3809 136.72 19.0415C137.122 19.6944 137.725 20.3472 138.536 20.9845L138.018 21.5519C136.666 20.5882 135.584 19.5856 134.773 18.5519C133.969 17.5182 133.56 16.5622 133.56 15.6762C133.56 14.627 133.784 13.6711 134.232 12.8161C134.68 11.9612 135.26 11.2773 135.978 10.7721C136.697 10.2669 137.454 10.0104 138.242 10.0104C138.76 10.0104 139.247 10.0415 139.71 10.1115C140.174 10.1814 140.622 10.2825 141.047 10.4224V8.51043C141.047 7.71769 141.256 7.11147 141.665 6.69955H138.065C137.616 6.69955 137.184 6.87054 136.751 7.20474C136.326 7.53893 135.986 7.8809 135.747 8.23064H135.183L132.633 5.4638L132.888 4.84204H142.716L144.416 6.70733C144.161 6.87831 143.937 7.13479 143.759 7.48453C143.581 7.83427 143.489 8.23841 143.489 8.70474V16.1348L143.504 16.127Z" fill="#EDE6D6"/>
<path d="M147.614 6.36528C147.305 6.06995 146.989 5.65803 146.664 5.12176C146.34 4.58549 146.177 4.07254 146.177 3.56736C146.177 2.93005 146.455 2.33938 147.004 1.79534C147.553 1.2513 148.279 0.816062 149.175 0.489637C150.071 0.163212 151.045 0 152.073 0C152.845 0 153.695 0.225389 154.622 0.683938C155.55 1.14249 156.477 1.76425 157.412 2.56477C158.347 3.35751 159.212 4.25907 160 5.25389L159.482 5.6658C158.486 4.54663 157.52 3.67617 156.577 3.06218C155.635 2.44819 154.653 2.14508 153.641 2.14508C152.629 2.14508 151.802 2.28497 151.068 2.57254C150.326 2.8601 149.755 3.22539 149.345 3.67617C148.936 4.12694 148.727 4.58549 148.727 5.05181C148.727 5.47927 148.858 5.89896 149.129 6.31088C149.392 6.71503 149.685 7.04922 149.994 7.3057C149.739 7.47668 149.515 7.74093 149.337 8.0829C149.16 8.42487 149.067 8.83679 149.067 9.30311V16.1347C149.067 16.6865 148.974 17.1684 148.781 17.5881C148.588 18.0078 148.403 18.3497 148.217 18.6373C148.024 18.9249 147.931 19.1658 147.931 19.3756C147.931 19.5622 148.047 19.7798 148.279 20.0207C148.511 20.2617 148.773 20.4948 149.075 20.7202C149.376 20.9456 149.631 21.1244 149.832 21.2642L149.422 21.8316C149.214 21.7073 148.897 21.5052 148.472 21.2098C148.039 20.9145 147.599 20.5881 147.143 20.215C146.687 19.842 146.301 19.4767 145.969 19.1114C145.644 18.7461 145.482 18.4508 145.482 18.2021C145.482 17.9456 145.575 17.6658 145.768 17.3627C145.953 17.0596 146.146 16.7098 146.332 16.2979C146.517 15.8938 146.618 15.4119 146.618 14.8601V8.90674C146.618 8.32383 146.703 7.8342 146.865 7.4456C147.027 7.05699 147.282 6.69948 147.622 6.37306L147.614 6.36528Z" fill="#EDE6D6"/>
<path d="M156.005 19.4689C156.005 20.0207 155.866 20.557 155.596 21.0777C155.318 21.5985 154.901 22.0259 154.336 22.3757L152.637 20.5104C152.892 20.3238 153.116 20.0596 153.293 19.7332C153.471 19.4068 153.564 19.0259 153.564 18.5907V6.83939C153.564 6.28758 153.703 5.75131 153.973 5.22281C154.244 4.69432 154.669 4.26685 155.233 3.94043L156.933 5.80571C156.678 5.9767 156.454 6.2254 156.276 6.5596C156.098 6.88602 156.005 7.27463 156.005 7.7254V19.4767V19.4689Z" fill="#EDE6D6"/>
</svg>
