<svg width="44" height="26" viewBox="0 0 44 26" fill="none" xmlns="http://www.w3.org/2000/svg">
<path d="M14.2502 15.9521C14.2502 16.4877 14.1574 16.9553 13.964 17.3626C13.7706 17.7624 13.5849 18.1018 13.3992 18.3809C13.2136 18.66 13.113 18.8938 13.113 19.0975C13.113 19.2785 13.229 19.4897 13.4611 19.7235C13.6932 19.9574 13.9563 20.1836 14.258 20.4024C14.5597 20.6211 14.815 20.7946 15.0161 20.9304L14.6061 21.481C14.3972 21.3603 14.08 21.1642 13.6545 20.8776C13.229 20.5909 12.7803 20.2742 12.3316 19.9121C11.8752 19.55 11.4884 19.1955 11.1557 18.841C10.8231 18.4865 10.6683 18.1999 10.6683 17.9585C10.6683 17.7096 10.7612 17.4381 10.9546 17.1439C11.1402 16.8497 11.3337 16.5103 11.5193 16.1105C11.705 15.7183 11.8056 15.2507 11.8056 14.7151V13.4102C11.7359 13.3951 11.6663 13.3876 11.5967 13.3876H11.3878C10.9391 13.3876 10.444 13.5007 9.8947 13.727C9.34543 13.9533 8.79615 14.2475 8.25461 14.6095C7.71307 14.9716 7.21795 15.3487 6.76925 15.7409C6.32054 16.1332 5.96467 16.4952 5.68617 16.8346C5.40766 17.1665 5.27614 17.4305 5.27614 17.6115C5.27614 17.8454 5.43087 18.1471 5.74032 18.5167C6.04977 18.8863 6.44432 19.286 6.92397 19.7084C7.40362 20.1384 7.90648 20.5608 8.41707 20.9756L7.89874 21.5791C7.43457 21.2472 6.90076 20.8248 6.2896 20.3194C5.67843 19.814 5.06726 19.2634 4.44836 18.66C3.82946 18.0566 3.25697 17.4456 2.72317 16.8271C2.18937 16.2086 1.76387 15.6127 1.43121 15.0395C1.10629 14.4737 0.943826 13.9684 0.943826 13.5309C0.943826 12.9652 1.0444 12.5051 1.25328 12.1581C1.46216 11.8187 1.70972 11.5622 2.0037 11.4038C2.29768 11.2454 2.56845 11.1625 2.83148 11.1625C3.09451 11.1625 3.38075 11.2681 3.69794 11.4868C4.01513 11.7055 4.30911 11.9243 4.57214 12.143C4.83518 12.3618 5.01311 12.4674 5.09821 12.4674C5.28388 12.4674 5.43087 12.309 5.53918 11.9997C5.63975 11.6905 5.6939 11.2756 5.6939 10.7551V8.54511C5.6939 7.77575 5.90278 7.18741 6.31281 6.78764H5.43861C4.9899 6.78764 4.55667 6.95358 4.12344 7.27792C3.69794 7.60226 3.35755 7.93415 3.11772 8.27357H2.55297L0 5.60342L0.255297 5H13.4766L15.1786 6.81027C14.9233 6.97621 14.6989 7.21758 14.521 7.52683C14.3431 7.83609 14.2502 8.21323 14.2502 8.64317V15.9521ZM11.8056 8.56774C11.8056 7.79837 12.0144 7.21004 12.4245 6.81027H9.07466C8.81936 6.97621 8.59501 7.23267 8.41707 7.56455C8.23914 7.89643 8.1463 8.2962 8.1463 8.74877V12.0148C8.88899 11.698 9.56978 11.5396 10.2119 11.5396C10.4672 11.5396 10.7302 11.5547 11.001 11.5924C11.264 11.6226 11.5348 11.6754 11.8133 11.7433V8.57528L11.8056 8.56774Z" fill="#EDE6D6"/>
<path d="M8.77127 26.3403C8.34577 26.3403 7.80423 26.2347 7.16212 26.0235C6.52001 25.8123 5.8779 25.5332 5.24352 25.1787C4.60915 24.8242 4.07534 24.4471 3.64211 24.0322C3.21662 23.6249 3 23.2176 3 22.8103C3 22.403 3.22435 22.0862 3.68079 21.792C4.13723 21.4978 4.77161 21.3168 5.57618 21.2489L8.82542 21L10.4268 22.4105L10.2953 22.7348L6.84493 23.1648C5.90111 23.3006 5.42919 23.557 5.42919 23.9417C5.42919 24.1227 5.56845 24.2887 5.85469 24.4169C6.14093 24.5527 6.46585 24.6205 6.84493 24.6205C7.39421 24.6205 7.99764 24.5602 8.64749 24.432C9.29733 24.3037 9.86982 24.1453 10.3495 23.9417L11.7652 25.5483C11.4712 25.752 11.0612 25.9254 10.5274 26.0914C9.9936 26.2498 9.41338 26.3328 8.779 26.3328L8.77127 26.3403Z" fill="#EDE6D6"/>
<path d="M25.9011 15.4477C25.9011 15.9832 25.8082 16.4509 25.6148 16.8582C25.4214 17.258 25.2358 17.5974 25.0501 17.8765C24.8644 18.1556 24.7638 18.3894 24.7638 18.5931C24.7638 18.7741 24.8799 18.9853 25.112 19.2191C25.3441 19.4529 25.6071 19.6792 25.9088 19.898C26.2105 20.1167 26.4658 20.2902 26.667 20.426L26.2569 20.9766C26.0635 20.8785 25.7928 20.705 25.4292 20.4637C25.0656 20.2223 24.6787 19.9432 24.2687 19.634C23.8587 19.3247 23.4796 19.0079 23.1315 18.6911C22.7911 18.3743 22.5513 18.0877 22.412 17.8388C22.2573 17.8689 22.1103 17.8991 21.971 17.9293C21.8318 17.9519 21.6925 17.967 21.561 17.967C21.151 17.967 20.6713 17.8463 20.1298 17.6125C19.5883 17.3787 19.0622 17.0694 18.5593 16.6923C18.0565 16.3151 17.631 15.9078 17.2983 15.4703C16.9657 15.0329 16.7955 14.618 16.7955 14.2107C16.7955 13.8939 16.896 13.4564 17.1049 12.8907C17.3138 12.3325 17.4144 11.6914 17.4144 10.9673V8.05578C17.4144 7.79178 17.4376 7.52778 17.4917 7.27887L15.4261 5.09146L15.6814 4.48804H25.112L26.814 6.29831C26.5587 6.46425 26.3343 6.7207 26.1564 7.05259C25.9784 7.38447 25.8856 7.78424 25.8856 8.2368V15.4477H25.9011ZM19.89 16.1039C20.184 16.1039 20.5398 16.036 20.9576 15.8927C21.3753 15.7494 21.8008 15.5458 22.2341 15.2893C22.6596 15.0329 23.0386 14.7311 23.3636 14.3993C22.7137 13.8939 22.0948 13.3508 21.5223 12.7625C20.9499 12.1741 20.3928 11.5783 19.859 10.9748V12.2797C19.859 12.7851 19.7971 13.2377 19.6811 13.6525C19.5651 14.0674 19.4413 14.4219 19.3175 14.7311C19.1937 15.0404 19.1396 15.3044 19.1396 15.5231C19.1396 15.6891 19.2092 15.8324 19.3484 15.938C19.4877 16.0511 19.6656 16.1039 19.89 16.1039ZM23.4487 8.06332C23.4487 7.29396 23.6576 6.70562 24.0676 6.30585H20.7951C20.5398 6.47179 20.3155 6.72825 20.1375 7.06013C19.9596 7.39201 19.8668 7.79178 19.8668 8.24435V9.60205C20.416 10.2206 20.9808 10.8466 21.5688 11.4877C22.149 12.1213 22.7834 12.7323 23.4487 13.3206V8.07086V8.06332Z" fill="#EDE6D6"/>
<path d="M26.4349 24.6498L25.7154 24.0992C25.2203 23.7145 24.7174 23.4354 24.2223 23.2694C23.7272 23.1035 23.1779 23.0205 22.5745 23.0205C22.2109 23.0205 21.8086 23.0658 21.3599 23.1488C20.9112 23.2317 20.416 23.36 19.8668 23.5259L18.629 21.4441C19.6115 21.1122 20.4857 20.9387 21.2593 20.9387C22.0329 20.9387 22.7756 21.1725 23.5492 21.6327C24.3229 22.0928 25.2125 22.7339 26.226 23.5561L26.9455 24.1369L26.4271 24.6649L26.4349 24.6498Z" fill="#EDE6D6"/>
<path d="M37.6447 11.8119C37.3198 11.7817 36.9562 11.7516 36.5462 11.7214C36.1439 11.6988 35.7726 11.6837 35.4244 11.6837C34.5348 11.6837 33.7224 11.8873 32.9875 12.2871C32.2603 12.6869 31.6801 13.2677 31.2468 14.022C30.8136 14.7762 30.6047 15.6889 30.6047 16.76C30.6047 17.2126 30.7595 17.5746 31.0689 17.8386C31.3784 18.1102 31.8657 18.2384 32.5388 18.2384C33.3975 18.2384 34.2098 17.9518 34.9757 17.371C35.7416 16.7902 36.3373 16.0962 36.7705 15.2741L39.1378 16.8807C38.7046 17.8537 38.0857 18.6306 37.2811 19.2189C36.4766 19.8073 35.5559 20.1014 34.527 20.1014C33.8385 20.1014 33.119 19.943 32.3763 19.6338C31.6259 19.3245 30.9297 18.9172 30.2875 18.4119C29.6454 17.9065 29.1271 17.3483 28.7248 16.7298C28.3303 16.1113 28.1291 15.5003 28.1291 14.8969C28.1291 13.8409 28.3689 12.9358 28.8409 12.174C29.3128 11.4122 29.9471 10.8238 30.7362 10.4165C31.5253 10.0092 32.415 9.79799 33.3898 9.79799C33.7689 9.79799 34.1402 9.81308 34.5115 9.85079C34.8829 9.88851 35.2542 9.93376 35.6333 10.0016V8.0707C35.6333 7.30133 35.8422 6.71299 36.2522 6.31322H32.6471C32.1984 6.31322 31.7652 6.47917 31.3319 6.80351C30.8987 7.12785 30.566 7.45973 30.3262 7.79915H29.7615L27.2085 5.11392L27.4638 4.5105H37.3043L39.0063 6.32077C38.751 6.48671 38.5267 6.74316 38.3487 7.07505C38.1708 7.40693 38.078 7.8067 38.078 8.25926V11.4725L37.637 11.827L37.6447 11.8119Z" fill="#EDE6D6"/>
<path d="M37.5983 5.52908C37.1342 4.72201 36.7087 4.07333 36.3064 3.56796C35.9118 3.06259 35.4941 2.70054 35.0454 2.45917C34.5967 2.22534 34.0629 2.10466 33.444 2.10466C33.0185 2.10466 32.5311 2.14991 31.9895 2.23288C31.448 2.31586 30.8523 2.44408 30.1947 2.61002L28.9569 0.498043C30.1406 0.16616 31.1927 -0.00732422 32.0978 -0.00732422C32.856 -0.00732422 33.5523 0.173703 34.1944 0.535757C34.8365 0.897811 35.4399 1.38055 35.9969 1.98397C36.5539 2.5874 37.0955 3.2587 37.6061 4.00544C38.1244 4.75218 38.6273 5.514 39.1224 6.30599L37.5751 5.52908H37.5983Z" fill="#EDE6D6"/>
<path d="M35.0453 6.30587L34.4496 4.49561H42.1008L43.8028 6.2757L42.4876 7.63341H41.9229C41.598 7.30152 41.2112 6.99227 40.7779 6.71319C40.337 6.4341 39.8728 6.29833 39.3699 6.29833H35.0376L35.0453 6.30587ZM42.5418 18.7138C42.2014 18.5629 41.8069 18.3593 41.3659 18.0953C40.9249 17.8313 40.5923 17.6201 40.3447 17.4541C40.3756 17.0996 40.4066 16.7376 40.4221 16.3453C40.4375 15.9606 40.4453 15.5835 40.4453 15.2139V14.784C40.4453 14.6331 40.4375 14.4898 40.4221 14.354L40.6541 14.2032C40.9945 14.3691 41.3736 14.5728 41.7914 14.8217C42.2014 15.0631 42.5186 15.2667 42.7429 15.4402C42.7739 15.6589 42.8048 15.8777 42.8203 16.104C42.8358 16.3302 42.8435 16.5565 42.8435 16.7979C42.8435 17.0845 42.8358 17.3787 42.8203 17.6879C42.8048 17.9972 42.7894 18.2989 42.7661 18.578L42.5341 18.7062L42.5418 18.7138ZM42.596 13.1396C42.2556 12.9737 41.861 12.7625 41.4278 12.5136C40.9868 12.2647 40.6464 12.0535 40.4066 11.8875C40.4221 11.6688 40.4375 11.4425 40.4453 11.1936C40.453 10.9522 40.4607 10.7184 40.4607 10.4997C40.4607 10.2809 40.4607 10.0471 40.4453 9.7831C40.4375 9.52665 40.4221 9.28528 40.4066 9.06654L40.6387 8.91568C40.9791 9.08162 41.3581 9.28528 41.7759 9.53419C42.1859 9.77556 42.5031 9.97921 42.7275 10.1527C42.8126 10.6882 42.859 11.2389 42.859 11.8121V12.4155C42.859 12.6343 42.8512 12.8379 42.8358 13.019L42.6037 13.1472L42.596 13.1396Z" fill="#EDE6D6"/>
</svg>
