<svg width="213" height="25" viewBox="0 0 213 25" fill="none" xmlns="http://www.w3.org/2000/svg">
<path d="M12.3754 6.54979C12.1204 6.71676 11.8964 6.96722 11.7187 7.30875C11.5411 7.65028 11.4484 8.04494 11.4484 8.50031V15.7559C11.4484 16.2948 11.3557 16.7653 11.1625 17.1752C10.9694 17.5774 10.784 17.919 10.5986 18.1998C10.4132 18.4806 10.3128 18.7159 10.3128 18.9208C10.3128 19.1029 10.4287 19.3154 10.6604 19.5507C10.8922 19.786 11.1548 20.0137 11.4561 20.2338C11.7574 20.4539 12.0123 20.6284 12.2131 20.765L11.8037 21.3191C11.5951 21.1976 11.2784 21.0003 10.8536 20.7119C10.4287 20.4235 9.98063 20.1047 9.53259 19.7404C9.07681 19.3761 8.69057 19.0194 8.35839 18.6627C8.03395 18.306 7.87172 18.0176 7.87172 17.7747C7.87172 17.5243 7.96442 17.2511 8.15755 16.9551C8.34294 16.6591 8.53607 16.3176 8.72147 15.9153C8.90686 15.5131 9.00729 15.0501 9.00729 14.5112V13.1982C8.90686 13.1831 8.79872 13.1755 8.69829 13.1755H8.41247C7.864 13.1755 7.29235 13.2286 6.70525 13.3424C6.11043 13.4487 5.54651 13.6764 4.99804 14.0103V17.9569C4.99804 18.2984 4.89762 18.602 4.68904 18.8828C4.48047 19.1636 4.2101 19.3003 3.86247 19.3003C3.60755 19.3003 3.29083 19.194 2.92003 18.9739C2.54923 18.7538 2.17844 18.4654 1.81536 18.1163C1.44457 17.7596 1.13557 17.3725 0.888369 16.9399C0.641171 16.5073 0.517572 16.0823 0.517572 15.6649C0.517572 15.1108 0.695245 14.5492 1.05832 13.98C1.42139 13.4183 1.91579 12.925 2.54923 12.5V9.57044C2.20933 9.33516 1.83081 9.03917 1.42912 8.68246C1.02742 8.32575 0.68752 7.96904 0.409422 7.60474C0.131324 7.24044 0 6.94445 0 6.70918C0 6.30693 0.154499 5.90468 0.463497 5.51003C0.772495 5.11537 1.12012 4.78143 1.52181 4.5082C1.92351 4.23498 2.23251 4.10596 2.47198 4.10596C2.62648 4.10596 2.84278 4.19703 3.11315 4.38677C3.38353 4.57651 3.66935 4.79661 3.9629 5.06983C4.25645 5.34305 4.49592 5.6011 4.69677 5.85156C4.88989 6.10201 4.99032 6.29175 4.99032 6.40559V11.4906C5.22979 11.4375 5.47699 11.3995 5.72419 11.3616C5.97138 11.3312 6.22631 11.3084 6.48123 11.3084C6.94473 11.3084 7.38505 11.3388 7.79447 11.3995C8.20389 11.4602 8.60559 11.5513 9.00729 11.6652V8.32575C9.00729 7.55162 9.21586 6.95963 9.62528 6.55738H8.82961C8.55152 6.57256 8.31977 6.64087 8.11892 6.74712C7.91807 6.86097 7.7713 6.9824 7.67087 7.11142H7.1842L5.46154 5.24439L5.67011 4.73589H10.6913L12.3908 6.55738L12.3754 6.54979Z" fill="#EDE6D6"/>
<path d="M21.1741 8.31811C21.1741 7.54398 21.3826 6.95199 21.7921 6.54974H17.9605C17.5356 6.56492 17.1107 6.73189 16.7013 7.05824C16.2919 7.3846 15.9752 7.70336 15.7512 8.04489H15.1872L12.638 5.343L12.8929 4.73584H22.8504L24.5499 6.55733C24.2949 6.7243 24.0709 6.97476 23.8932 7.31629C23.7156 7.65023 23.6229 8.05248 23.6229 8.50785V15.7635C23.6229 16.3023 23.5302 16.7729 23.3371 17.1827C23.1439 17.5925 22.9585 17.9265 22.7731 18.2073C22.58 18.4881 22.4873 18.7234 22.4873 18.9283C22.4873 19.1105 22.6032 19.323 22.8349 19.5582C23.0667 19.7935 23.3293 20.0212 23.6306 20.2413C23.9319 20.4614 24.1868 20.636 24.3876 20.7726L23.9782 21.3266C23.7697 21.19 23.4452 20.9699 22.9894 20.6663C22.5337 20.3627 22.0702 20.0212 21.5835 19.6417C21.1045 19.2623 20.7183 18.9055 20.4247 18.564C20.1853 18.6475 19.9381 18.7234 19.6754 18.7765C19.4205 18.8372 19.1656 18.8676 18.9261 18.8676C18.6866 18.8676 18.3467 18.7993 17.9064 18.6627C17.4661 18.5261 17.0026 18.3287 16.5005 18.0707C16.0061 17.8126 15.5271 17.4939 15.0714 17.122C14.6156 16.7501 14.2448 16.3327 13.9667 15.8697C13.6809 15.4068 13.5418 14.9058 13.5418 14.367C13.5418 13.3196 13.7427 12.4468 14.1444 11.741C14.5461 11.0352 15.0791 10.4963 15.7434 10.1244C16.4078 9.75254 17.1185 9.57039 17.891 9.57039C18.563 9.57039 19.181 9.62352 19.745 9.72218C20.3089 9.82084 20.7801 9.94228 21.1586 10.0789V8.33329L21.1741 8.31811ZM16.9331 16.9854C17.3579 16.9854 17.8446 16.8867 18.3854 16.6818C18.9261 16.4769 19.4514 16.1961 19.9535 15.8318C20.4556 15.4675 20.8651 15.0576 21.1741 14.6023V11.5209C20.9191 11.4905 20.6797 11.4602 20.4634 11.445C20.2471 11.4298 20.0462 11.4222 19.8608 11.4222C19.2119 11.4222 18.5862 11.5968 17.9991 11.9535C17.4043 12.3102 16.9331 12.8187 16.57 13.4942C16.2069 14.1697 16.0293 14.9969 16.0293 15.9684C16.0293 16.2416 16.0988 16.4769 16.2456 16.6742C16.3923 16.8715 16.6163 16.9778 16.9253 16.9778L16.9331 16.9854Z" fill="#EDE6D6"/>
<path d="M35.6661 15.7483C35.6661 16.2872 35.5734 16.7577 35.3803 17.1676C35.1872 17.5698 35.0018 17.9113 34.8164 18.1921C34.631 18.473 34.5306 18.7082 34.5306 18.9132C34.5306 19.0953 34.6464 19.3078 34.8782 19.5431C35.1099 19.7784 35.3726 20.0061 35.6738 20.2261C35.9751 20.4462 36.23 20.6208 36.4309 20.7574L36.0215 21.3115C35.8129 21.19 35.4962 20.9927 35.0713 20.7043C34.6464 20.4159 34.1984 20.0971 33.7503 19.7328C33.2946 19.3685 32.9083 19.0118 32.5761 18.6551C32.2517 18.2984 32.0895 18.01 32.0895 17.7671C32.0895 17.5167 32.1822 17.2435 32.3753 16.9475C32.5607 16.6515 32.7538 16.3099 32.9392 15.9077C33.1246 15.5054 33.225 15.0425 33.225 14.5036V11.7486C33.0551 11.7334 32.8697 11.7183 32.6843 11.7107C32.4989 11.7031 32.3058 11.6955 32.1204 11.6955C31.4715 11.6955 30.8535 11.9308 30.2664 12.4013C29.6793 12.8719 29.2081 13.4866 28.8373 14.2456C28.4665 15.0045 28.2811 15.8242 28.2811 16.697C28.2811 17.3193 28.4819 17.9493 28.8836 18.5944C29.2853 19.2319 29.8879 19.8694 30.699 20.4918L30.1814 21.0458C28.8295 20.1047 27.748 19.1257 26.9369 18.1163C26.1335 17.1068 25.7241 16.1733 25.7241 15.3081C25.7241 14.2835 25.9481 13.35 26.3962 12.5152C26.8442 11.6803 27.4236 11.0124 28.142 10.5191C28.8604 10.0258 29.6175 9.77533 30.4054 9.77533C30.923 9.77533 31.4097 9.80569 31.8732 9.87399C32.3367 9.9423 32.7847 10.041 33.2096 10.1776V8.31054C33.2096 7.53641 33.4182 6.94442 33.8276 6.54218H30.2278C29.7797 6.54218 29.3471 6.70915 28.9145 7.0355C28.4896 7.36185 28.1497 7.69579 27.9103 8.03732H27.3464L24.7971 5.33544L25.052 4.72827H34.8782L36.5777 6.54977C36.3227 6.71674 36.0987 6.96719 35.921 7.30872C35.7434 7.65025 35.6507 8.04491 35.6507 8.50028V15.7559L35.6661 15.7483Z" fill="#EDE6D6"/>
<path d="M39.7758 6.21585C39.4668 5.92744 39.15 5.5252 38.8256 5.00152C38.5011 4.47784 38.3389 3.97693 38.3389 3.48361C38.3389 2.86126 38.617 2.28446 39.1655 1.75319C39.714 1.22192 40.4401 0.796903 41.3362 0.478142C42.2323 0.159381 43.2056 0 44.2331 0C45.0056 0 45.8553 0.220097 46.7823 0.667881C47.7093 1.11566 48.6363 1.72283 49.571 2.50455C50.5057 3.27869 51.3709 4.15908 52.1589 5.13054L51.6413 5.53279C50.6448 4.43989 49.6791 3.58986 48.7367 2.99029C47.7943 2.39071 46.8132 2.09472 45.8012 2.09472C44.7893 2.09472 43.9627 2.23133 43.2288 2.51214C42.4872 2.79296 41.9156 3.14967 41.5062 3.58986C41.0967 4.03006 40.8882 4.47784 40.8882 4.93321C40.8882 5.35064 41.0195 5.76047 41.2899 6.16272C41.5525 6.55738 41.846 6.88373 42.155 7.13418C41.9001 7.30115 41.6761 7.5592 41.4984 7.89314C41.3208 8.22708 41.2281 8.62933 41.2281 9.0847V15.7559C41.2281 16.2948 41.1354 16.7653 40.9422 17.1752C40.7491 17.585 40.5637 17.9189 40.3783 18.1998C40.1852 18.4806 40.0925 18.7158 40.0925 18.9208C40.0925 19.1029 40.2084 19.3154 40.4401 19.5507C40.6719 19.786 40.9345 20.0137 41.2358 20.2338C41.5371 20.4539 41.792 20.6284 41.9928 20.765L41.5834 21.3191C41.3748 21.1976 41.0581 21.0003 40.6332 20.7119C40.2006 20.4235 39.7603 20.1047 39.3045 19.7404C38.8488 19.3761 38.4625 19.0194 38.1303 18.6627C37.8059 18.306 37.6437 18.0176 37.6437 17.7747C37.6437 17.5243 37.7364 17.2511 37.9295 16.9551C38.1149 16.6591 38.308 16.3175 38.4934 15.9153C38.6788 15.5206 38.7792 15.0501 38.7792 14.5112V8.69763C38.7792 8.12842 38.8642 7.65027 39.0264 7.2708C39.1887 6.89132 39.4436 6.5422 39.7835 6.22344L39.7758 6.21585Z" fill="#EDE6D6"/>
<path d="M48.1651 19.0118C48.1651 19.5507 48.026 20.0744 47.7557 20.5829C47.4776 21.0914 47.0604 21.5088 46.4965 21.8503L44.797 20.0288C45.0519 19.8467 45.2759 19.5886 45.4536 19.2699C45.6313 18.9511 45.724 18.5792 45.724 18.1542V6.67881C45.724 6.13995 45.863 5.61627 46.1334 5.10018C46.4038 4.58409 46.8287 4.16666 47.3926 3.8479L49.0921 5.66939C48.8371 5.83636 48.6131 6.07923 48.4354 6.40558C48.2578 6.72434 48.1651 7.10382 48.1651 7.54401V19.0194V19.0118Z" fill="#EDE6D6"/>
<path d="M68.134 15.7484C68.134 16.2872 68.0413 16.7578 67.8482 17.1676C67.6551 17.5698 67.4697 17.9114 67.2843 18.1922C67.0989 18.473 66.9985 18.7083 66.9985 18.9132C66.9985 19.0953 67.1143 19.3079 67.3461 19.5431C67.5778 19.7784 67.8405 20.0061 68.1417 20.2262C68.443 20.4463 68.6979 20.6208 68.8988 20.7575L68.4894 21.3115C68.2808 21.1901 67.9641 20.9927 67.5392 20.7043C67.1143 20.4159 66.6663 20.0972 66.2182 19.7329C65.7625 19.3686 65.3762 19.0119 65.044 18.6552C64.7196 18.2984 64.5574 18.01 64.5574 17.7672C64.5574 17.5167 64.6501 17.2435 64.8432 16.9475C65.0286 16.6515 65.2217 16.31 65.4071 15.9077C65.5925 15.5055 65.6929 15.0425 65.6929 14.5037V13.1907C65.6234 13.1755 65.5539 13.1679 65.4844 13.1679H65.2758C64.8277 13.1679 64.3333 13.2817 63.7849 13.5094C63.2364 13.7371 62.6879 14.0331 62.1472 14.3974C61.6064 14.7617 61.112 15.1412 60.664 15.5358C60.2159 15.9305 59.8606 16.2948 59.5825 16.6363C59.3044 16.9703 59.1731 17.2359 59.1731 17.4181C59.1731 17.6533 59.3276 17.9569 59.6366 18.3288C59.9456 18.7007 60.3395 19.1029 60.8185 19.528C61.2974 19.953 61.7996 20.3856 62.3094 20.803L61.7918 21.4102C61.3283 21.0762 60.7953 20.6512 60.185 20.1427C59.5748 19.6342 58.9645 19.0802 58.3465 18.473C57.7285 17.8658 57.1569 17.2511 56.6238 16.6287C56.0908 16.0064 55.6659 15.4068 55.3338 14.83C55.0016 14.2532 54.8471 13.7523 54.8471 13.3121C54.8471 12.7429 54.9475 12.2799 55.1561 11.9308C55.3647 11.5817 55.6119 11.3312 55.9054 11.1718C56.199 11.0125 56.4693 10.929 56.732 10.929C56.9946 10.929 57.2805 11.0428 57.5972 11.2553C57.9139 11.4754 58.2075 11.6955 58.4701 11.9156C58.7328 12.1357 58.9104 12.242 58.9954 12.242C59.1808 12.242 59.3276 12.0826 59.4357 11.7714C59.5362 11.4603 59.5902 11.0428 59.5902 10.5191V8.29541C59.5902 7.52127 59.7988 6.92929 60.2082 6.52704H59.3353C58.8873 6.52704 58.4547 6.69401 58.0221 7.02036C57.5972 7.34671 57.2573 7.68065 57.0178 8.02218H56.4539L53.9047 5.3203L54.1596 4.71313H67.3615L69.061 6.53463C68.8061 6.7016 68.5821 6.94446 68.4044 7.25564C68.2267 7.56681 68.134 7.9387 68.134 8.37889V15.7332V15.7484ZM65.6929 8.31817C65.6929 7.54404 65.9015 6.95205 66.3109 6.54981H62.966C62.7111 6.71678 62.4871 6.96723 62.3094 7.30876C62.1317 7.6427 62.039 8.04495 62.039 8.50032V11.7866C62.7806 11.4678 63.4604 11.3085 64.1016 11.3085C64.3565 11.3085 64.6192 11.3236 64.8895 11.3616C65.1522 11.3919 65.4226 11.4451 65.7007 11.5134V8.32576L65.6929 8.31817Z" fill="#B2462D"/>
<path d="M70.4747 15.6496C70.4747 15.0577 70.6524 14.4657 71.0155 13.8661C71.3785 13.2665 71.8729 12.7428 72.5064 12.2875V8.31813C72.5064 7.544 72.715 6.95201 73.1244 6.54977C72.6918 6.54977 72.3751 6.63325 72.1588 6.80022C71.9425 6.96719 71.7725 7.16452 71.6335 7.38462H71.0695L69.1924 5.33544L69.4473 4.72827H80.6408L82.3402 6.54977C82.0853 6.71674 81.8613 6.96719 81.6836 7.30872C81.5059 7.65025 81.4133 8.04491 81.4133 8.50028V15.7559C81.4133 16.2948 81.3205 16.7653 81.1274 17.1751C80.9343 17.5774 80.7489 17.9189 80.5635 18.1997C80.3781 18.4805 80.2777 18.7158 80.2777 18.9207C80.2777 19.1029 80.3936 19.3154 80.6253 19.5507C80.8571 19.786 81.1197 20.0136 81.421 20.2337C81.7223 20.4538 81.9772 20.6284 82.178 20.765L81.7686 21.319C81.56 21.1976 81.2433 21.0003 80.8184 20.7119C80.3936 20.4235 79.9455 20.1047 79.4975 19.7404C79.0417 19.3761 78.6554 19.0194 78.3233 18.6627C77.9988 18.306 77.8366 18.0176 77.8366 17.7747C77.8366 17.5243 77.9293 17.251 78.1224 16.955C78.3078 16.6591 78.5009 16.3175 78.6863 15.9153C78.8717 15.513 78.9722 15.0501 78.9722 14.5112V12.9402C78.8717 12.9402 78.7636 12.9402 78.6632 12.925C78.5627 12.9174 78.47 12.9098 78.3773 12.9098C77.8289 12.9098 77.2572 12.9629 76.6701 13.0768C76.0753 13.183 75.5114 13.4107 74.9629 13.7447V17.9417C74.9629 18.2832 74.8625 18.5868 74.6539 18.8676C74.4453 19.1484 74.175 19.285 73.8274 19.285C73.5724 19.285 73.2557 19.1788 72.8849 18.9587C72.5141 18.7386 72.1433 18.4502 71.7802 18.1011C71.4094 17.7444 71.1004 17.3573 70.8532 16.9247C70.606 16.4921 70.4824 16.0671 70.4824 15.6496H70.4747ZM78.9644 8.31813C78.9644 7.544 79.173 6.95201 79.5824 6.54977H75.8745C75.6195 6.71674 75.3955 6.96719 75.2178 7.30872C75.0402 7.65025 74.9475 8.04491 74.9475 8.50028V11.2325C75.1869 11.1794 75.4341 11.1414 75.6813 11.1035C75.9285 11.0731 76.1835 11.0504 76.4384 11.0504C76.9019 11.0504 77.3422 11.0807 77.7516 11.1414C78.161 11.2022 78.5627 11.2932 78.9644 11.4071V8.32572V8.31813Z" fill="#B2462D"/>
<path d="M91.6488 6.54977C91.3939 6.71674 91.1698 6.96719 90.9922 7.30872C90.8145 7.64266 90.7218 8.04491 90.7218 8.50028V11.6575C90.7218 12.7884 90.5441 13.6991 90.181 14.3974C89.818 15.0956 89.3158 15.6421 88.667 16.0291C88.2344 16.2644 87.8558 16.401 87.5237 16.4314C87.1915 16.4617 87.0215 16.53 87.0215 16.6363C87.0215 16.8033 87.1529 17.0537 87.4232 17.3801C87.6859 17.7064 88.0258 18.0783 88.4429 18.4957C88.8524 18.9056 89.2849 19.3154 89.7407 19.7252C90.1965 20.1275 90.6214 20.4918 91.0153 20.8105L90.4978 21.4177C90.0343 21.0838 89.5012 20.6588 88.891 20.1503C88.2807 19.6418 87.6704 19.0877 87.0524 18.4805C86.4344 17.8734 85.8628 17.2586 85.3298 16.6363C84.7968 16.0139 84.3719 15.4144 84.0397 14.8376C83.7075 14.2608 83.553 13.7598 83.553 13.3196C83.553 12.7504 83.6535 12.2799 83.862 11.9156C84.0706 11.5513 84.3178 11.2781 84.6114 11.0959C84.9049 10.9138 85.1753 10.8151 85.4379 10.8151C85.7006 10.8151 85.9864 10.9214 86.3031 11.1414C86.6198 11.3615 86.9134 11.5816 87.176 11.8017C87.4387 12.0218 87.6164 12.1281 87.7013 12.1281C87.8867 12.1281 88.0335 11.9687 88.1417 11.6575C88.2421 11.3464 88.2962 10.9289 88.2962 10.4053V8.31054C88.2962 7.53641 88.5047 6.94442 88.9142 6.54218H87.8867C87.4619 6.57253 87.0447 6.75468 86.6507 7.07344C86.2568 7.39221 85.9478 7.71097 85.7237 8.03732H85.1598L82.6106 5.33544L82.8655 4.72827H89.9647L91.6642 6.54977H91.6488Z" fill="#B2462D"/>
<path d="M91.0308 24.9999L90.3124 24.4459C89.818 24.0588 89.3159 23.778 88.8215 23.611C88.3271 23.4441 87.7786 23.3606 87.1761 23.3606C86.813 23.3606 86.4113 23.3985 85.9632 23.4896C85.5152 23.5731 85.0208 23.7021 84.4723 23.8691L83.2363 21.7744C84.2174 21.4404 85.0903 21.2659 85.8628 21.2659C86.6353 21.2659 87.3769 21.4936 88.1494 21.9641C88.9219 22.4271 89.8103 23.0722 90.8222 23.8994L91.5406 24.4838L91.0231 25.0151L91.0308 24.9999Z" fill="#B2462D"/>
<path d="M101.869 15.7483C101.869 16.2872 101.776 16.7577 101.583 17.1676C101.39 17.5698 101.205 17.9114 101.019 18.1922C100.834 18.473 100.733 18.7083 100.733 18.9132C100.733 19.0953 100.849 19.3078 101.081 19.5431C101.313 19.7784 101.575 20.0061 101.877 20.2262C102.178 20.4463 102.433 20.6208 102.634 20.7574L102.224 21.3115C102.039 21.2128 101.761 21.0383 101.398 20.7954C101.035 20.5525 100.648 20.2717 100.239 19.9605C99.8295 19.6494 99.451 19.3306 99.1033 19.0118C98.7557 18.6931 98.524 18.4047 98.3849 18.1542C98.2304 18.1846 98.0837 18.2149 97.9446 18.2453C97.8056 18.2757 97.6665 18.2832 97.5352 18.2832C97.1412 18.2832 96.6932 18.1618 96.1833 17.9265C95.6735 17.6913 95.1868 17.3801 94.7001 17.0006C94.2212 16.6211 93.8195 16.2113 93.5028 15.7711C93.186 15.3309 93.0238 14.9135 93.0238 14.5036C93.0238 14.1849 93.1242 13.7447 93.3328 13.1755C93.5414 12.6063 93.6418 11.9687 93.6418 11.2401V8.31056C93.6418 8.04493 93.665 7.77929 93.7191 7.52884L91.6565 5.32787L91.9114 4.7207H101.073L102.773 6.5422C102.518 6.70917 102.294 6.95962 102.116 7.30115C101.938 7.64268 101.846 8.03734 101.846 8.49271V15.7483H101.869ZM99.4201 8.31815C99.4201 7.54402 99.6286 6.95203 100.038 6.54979H97.0253C96.7704 6.71676 96.5464 6.96721 96.3687 7.30874C96.191 7.65027 96.0983 8.04493 96.0983 8.5003V12.5683C96.0983 13.0768 96.0365 13.5322 95.9207 13.9496C95.7971 14.3594 95.6812 14.7237 95.5576 15.0349C95.434 15.3461 95.3799 15.6117 95.3799 15.8318C95.3799 16.2189 95.5421 16.4162 95.8666 16.4162C96.1756 16.4162 96.5464 16.3403 96.9713 16.1885C97.3961 16.0367 97.8365 15.8242 98.2845 15.5434C98.7325 15.2626 99.1111 14.9514 99.4201 14.5947V8.32574V8.31815Z" fill="#B2462D"/>
<path d="M117.952 15.7483C117.952 16.2872 117.86 16.7577 117.666 17.1676C117.473 17.5698 117.288 17.9114 117.102 18.1922C116.917 18.473 116.817 18.7083 116.817 18.9132C116.817 19.0953 116.933 19.3078 117.164 19.5431C117.396 19.7784 117.659 20.0061 117.96 20.2262C118.261 20.4463 118.516 20.6208 118.717 20.7574L118.308 21.3115C118.099 21.19 117.782 20.9927 117.357 20.7043C116.933 20.4159 116.484 20.0971 116.036 19.7328C115.581 19.3685 115.194 19.0118 114.862 18.6551C114.538 18.2984 114.376 18.01 114.376 17.7672C114.376 17.5167 114.468 17.2435 114.661 16.9475C114.847 16.6515 115.04 16.31 115.225 15.9077C115.411 15.5055 115.511 15.0425 115.511 14.5036V8.31056C115.511 7.53643 115.72 6.94444 116.129 6.5422H113.734C113.479 6.70917 113.255 6.95962 113.078 7.30115C112.9 7.64268 112.807 8.03734 112.807 8.49271V14.7389C112.807 15.4144 112.63 16.014 112.267 16.5452C111.904 17.0765 111.463 17.4939 110.93 17.8127C110.397 18.1315 109.856 18.2832 109.308 18.2832C108.883 18.2832 108.381 18.1618 107.817 17.9265C107.253 17.6913 106.697 17.3801 106.156 17.0006C105.615 16.6211 105.167 16.2113 104.82 15.7711C104.464 15.3309 104.295 14.9135 104.295 14.5036C104.295 14.1849 104.395 13.7447 104.604 13.1755C104.812 12.6138 104.913 11.9687 104.913 11.2401V8.31056C104.913 8.04493 104.936 7.77929 104.99 7.52884L102.935 5.32787L103.19 4.7207H117.187L118.887 6.5422C118.632 6.70917 118.408 6.95962 118.23 7.30115C118.053 7.64268 117.96 8.03734 117.96 8.49271V15.7483H117.952ZM110.359 8.31815C110.359 7.54402 110.567 6.95203 110.977 6.54979H108.273C108.018 6.71676 107.794 6.96721 107.616 7.30874C107.439 7.64268 107.346 8.04493 107.346 8.5003V12.5683C107.346 13.0768 107.284 13.5322 107.168 13.9496C107.045 14.3594 106.929 14.7237 106.805 15.0349C106.682 15.3461 106.627 15.6117 106.627 15.8318C106.627 15.9988 106.72 16.143 106.913 16.2492C107.099 16.3555 107.338 16.4162 107.632 16.4162C108.041 16.4162 108.458 16.31 108.883 16.0899C109.3 15.8698 109.656 15.5434 109.941 15.1184C110.227 14.6934 110.366 14.1545 110.366 13.5094V8.32574L110.359 8.31815Z" fill="#B2462D"/>
<path d="M120.725 23.8161L120.007 22.9281C120.401 22.154 120.695 21.2963 120.895 20.3476C121.096 19.4065 121.189 18.3061 121.189 17.0614L121.575 16.8564L123.839 18.1694C123.839 19.2016 123.599 20.1883 123.12 21.137C122.641 22.0857 121.969 22.9812 121.112 23.8009H120.725V23.8161Z" fill="#B2462D"/>
<path d="M132.591 8.31811C132.591 7.54398 132.8 6.95199 133.209 6.54974H132.436C131.988 6.54974 131.556 6.71671 131.123 7.04307C130.698 7.36942 130.358 7.70336 130.119 8.04489H129.555L127.006 5.343L127.261 4.73584H139.845L141.544 6.55733C141.289 6.7243 141.065 6.98235 140.888 7.33147C140.71 7.68059 140.617 8.12078 140.617 8.65964V15.255C140.617 15.7938 140.525 16.2644 140.331 16.6742C140.138 17.084 139.953 17.418 139.767 17.6988C139.574 17.9796 139.482 18.2149 139.482 18.4198C139.482 18.6551 139.613 18.9283 139.883 19.2319C140.154 19.5355 140.455 19.8239 140.795 20.1047C141.135 20.3855 141.421 20.6056 141.645 20.7726L141.235 21.3266C141.011 21.19 140.679 20.9623 140.231 20.6436C139.783 20.3248 139.319 19.9605 138.825 19.5431C138.338 19.1332 137.921 18.7234 137.574 18.3287C137.226 17.9341 137.048 17.6001 137.033 17.3269C136.608 17.5318 136.191 17.7823 135.781 18.0859C135.38 18.3895 134.993 18.7613 134.638 19.2015C134.275 19.2015 133.827 19.0953 133.271 18.8828C132.722 18.6703 132.151 18.3895 131.548 18.0252C130.946 17.6609 130.389 17.2434 129.864 16.7729C129.339 16.3023 128.914 15.809 128.574 15.2929C128.242 14.7768 128.072 14.2607 128.072 13.7371C128.072 13.0464 128.28 12.4696 128.69 12.0218C129.099 11.574 129.748 11.2477 130.621 11.0579L132.576 10.6253V8.3257L132.591 8.31811ZM138.176 8.31811C138.176 7.54398 138.385 6.95199 138.794 6.54974H135.967C135.712 6.71671 135.488 6.96717 135.31 7.3087C135.133 7.65023 135.04 8.04489 135.04 8.50026V12.4696L132.699 13.1299C131.996 13.3348 131.479 13.608 131.154 13.9647C130.83 14.3215 130.667 14.7692 130.667 15.3081C130.667 15.7938 130.876 16.2188 131.285 16.5755C131.695 16.9323 132.127 17.1675 132.576 17.2814C133.348 16.5224 134.198 15.8849 135.132 15.3688C136.067 14.8527 137.071 14.496 138.153 14.2911C138.168 14.238 138.176 14.1469 138.176 14.0103V8.31811Z" fill="#EDE6D6"/>
<path d="M152.66 15.7483C152.66 16.2872 152.568 16.7577 152.375 17.1676C152.181 17.5698 151.996 17.9113 151.811 18.1921C151.625 18.473 151.525 18.7082 151.525 18.9132C151.525 19.0953 151.641 19.3078 151.873 19.5431C152.104 19.7784 152.367 20.0061 152.668 20.2261C152.969 20.4462 153.224 20.6208 153.425 20.7574L153.016 21.3115C152.807 21.19 152.49 20.9927 152.066 20.7043C151.641 20.4159 151.193 20.0971 150.745 19.7328C150.289 19.3685 149.903 19.0118 149.57 18.6551C149.246 18.2984 149.084 18.01 149.084 17.7671C149.084 17.5167 149.176 17.2435 149.37 16.9475C149.555 16.6515 149.748 16.3099 149.934 15.9077C150.119 15.5054 150.219 15.0425 150.219 14.5036V11.7486C150.049 11.7334 149.864 11.7183 149.679 11.7107C149.493 11.7031 149.3 11.6955 149.115 11.6955C148.466 11.6955 147.848 11.9308 147.261 12.4013C146.674 12.8719 146.202 13.4866 145.832 14.2456C145.461 15.0045 145.275 15.8242 145.275 16.697C145.275 17.3193 145.476 17.9493 145.878 18.5944C146.28 19.2319 146.882 19.8694 147.693 20.4918L147.176 21.0458C145.824 20.1047 144.742 19.1257 143.931 18.1163C143.128 17.1068 142.718 16.1733 142.718 15.3081C142.718 14.2835 142.942 13.35 143.391 12.5152C143.839 11.6803 144.418 11.0124 145.136 10.5191C145.855 10.0258 146.612 9.77533 147.4 9.77533C147.917 9.77533 148.404 9.80569 148.867 9.87399C149.331 9.9423 149.779 10.041 150.204 10.1776V8.31054C150.204 7.53641 150.412 6.94442 150.822 6.54218H147.222C146.774 6.54218 146.341 6.70915 145.909 7.0355C145.484 7.36185 145.144 7.69579 144.905 8.03732H144.341L141.791 5.33544L142.046 4.72827H151.873L153.572 6.54977C153.317 6.71674 153.093 6.96719 152.915 7.30872C152.738 7.65025 152.645 8.04491 152.645 8.50028V15.7559L152.66 15.7483Z" fill="#EDE6D6"/>
<path d="M153.201 24.9999L152.483 24.4459C151.988 24.0588 151.486 23.778 150.992 23.611C150.497 23.4441 149.949 23.3606 149.346 23.3606C148.983 23.3606 148.582 23.3985 148.134 23.4896C147.686 23.5731 147.191 23.7021 146.643 23.8691L145.407 21.7744C146.388 21.4404 147.261 21.2659 148.033 21.2659C148.806 21.2659 149.547 21.4936 150.32 21.9641C151.092 22.4271 151.981 23.0722 152.993 23.8994L153.711 24.4838L153.193 25.0151L153.201 24.9999Z" fill="#EDE6D6"/>
<path d="M162.904 6.54977C162.649 6.71674 162.425 6.96719 162.247 7.30872C162.069 7.64266 161.977 8.04491 161.977 8.50028V11.6575C161.977 12.7884 161.799 13.6991 161.436 14.3974C161.073 15.0956 160.571 15.6421 159.922 16.0291C159.489 16.2644 159.111 16.401 158.779 16.4314C158.446 16.4617 158.276 16.53 158.276 16.6363C158.276 16.8033 158.408 17.0537 158.678 17.3801C158.941 17.7064 159.281 18.0783 159.698 18.4957C160.107 18.9056 160.54 19.3154 160.996 19.7252C161.451 20.1275 161.876 20.4918 162.27 20.8105L161.753 21.4177C161.289 21.0838 160.756 20.6588 160.146 20.1503C159.536 19.6418 158.925 19.0877 158.307 18.4805C157.689 17.8734 157.118 17.2586 156.585 16.6363C156.052 16.0139 155.627 15.4144 155.295 14.8376C154.962 14.2608 154.808 13.7598 154.808 13.3196C154.808 12.7504 154.908 12.2799 155.117 11.9156C155.326 11.5513 155.573 11.2781 155.866 11.0959C156.16 10.9138 156.43 10.8151 156.693 10.8151C156.955 10.8151 157.241 10.9214 157.558 11.1414C157.875 11.3615 158.168 11.5816 158.431 11.8017C158.694 12.0218 158.871 12.1281 158.956 12.1281C159.142 12.1281 159.288 11.9687 159.397 11.6575C159.497 11.3464 159.551 10.9289 159.551 10.4053V8.31054C159.551 7.53641 159.76 6.94442 160.169 6.54218H159.142C158.717 6.57253 158.3 6.75468 157.906 7.07344C157.512 7.39221 157.203 7.71097 156.979 8.03732H156.415L153.865 5.33544L154.12 4.72827H161.22L162.919 6.54977H162.904Z" fill="#EDE6D6"/>
<path d="M181.683 15.7483C181.683 16.234 181.614 16.6666 181.467 17.0385C181.32 17.4104 181.173 17.7216 181.026 17.9872C180.88 18.2453 180.81 18.4729 180.81 18.6551C180.81 18.86 180.926 19.0953 181.158 19.3609C181.389 19.6266 181.652 19.8922 181.953 20.1426C182.255 20.3931 182.51 20.598 182.71 20.7498L182.301 21.3038C182.092 21.1672 181.776 20.9471 181.351 20.6436C180.918 20.34 180.478 19.9984 180.022 19.6038C179.566 19.2167 179.18 18.8296 178.848 18.4502C178.524 18.0707 178.361 17.7519 178.361 17.5015C178.361 17.2662 178.431 17.0157 178.578 16.7425C178.724 16.4769 178.871 16.1581 179.018 15.7938C179.165 15.4295 179.234 14.9969 179.234 14.496V11.5133C178.531 11.2249 177.821 11.0124 177.11 10.8834C176.399 10.7468 175.727 10.6785 175.086 10.6785C174.128 10.6785 173.255 10.8075 172.475 11.0731C171.695 11.3312 171.084 11.6727 170.636 12.0977C170.188 12.5227 169.964 12.9629 169.964 13.4411C169.964 13.775 170.072 13.9496 170.296 13.9496C170.381 13.9496 170.544 13.8737 170.775 13.7219C171.007 13.5701 171.301 13.3955 171.664 13.2058C172.027 13.016 172.413 12.8415 172.838 12.6897C173.255 12.5379 173.68 12.462 174.113 12.462C174.437 12.462 174.792 12.5834 175.171 12.8187C175.549 13.054 175.905 13.3652 176.252 13.7446C176.592 14.1241 176.878 14.5264 177.102 14.959C177.326 15.3916 177.434 15.7938 177.434 16.1885C177.434 16.5452 177.326 16.9323 177.11 17.3497C176.894 17.7671 176.592 18.1769 176.198 18.564C175.804 18.9511 175.333 19.2698 174.792 19.5127C174.252 19.7556 173.657 19.877 173 19.877C172.127 19.877 171.285 19.6493 170.482 19.1939C169.678 18.7386 168.937 18.1694 168.265 17.4863C167.593 16.8032 167.037 16.1278 166.588 15.4523L167.129 15.0728C167.933 16.2037 168.697 16.9474 169.408 17.3117C170.119 17.676 170.876 17.8582 171.687 17.8582C172.166 17.8582 172.614 17.7519 173.039 17.5318C173.456 17.3117 173.827 17.0461 174.136 16.7198C174.445 16.3934 174.692 16.0898 174.87 15.7862C175.047 15.4827 175.14 15.255 175.14 15.1032C175.14 14.8375 175.04 14.7009 174.831 14.7009C174.522 14.7009 174.19 14.7768 173.842 14.9286C173.487 15.0804 173.147 15.2474 172.815 15.4371C172.483 15.6193 172.189 15.7938 171.942 15.9456C171.695 16.0974 171.525 16.1733 171.44 16.1733C171.316 16.1733 171.061 16.0367 170.652 15.7711C170.25 15.5054 169.818 15.1411 169.362 14.6933C168.906 14.2456 168.512 13.7674 168.18 13.2513C167.848 12.7352 167.678 12.2419 167.678 11.7714C167.678 11.1338 167.933 10.5798 168.45 10.1168C168.968 9.65387 169.648 9.29716 170.497 9.03912C171.347 8.78866 172.266 8.65964 173.263 8.65964C174.174 8.65964 175.155 8.74313 176.221 8.9101C177.288 9.07707 178.292 9.41101 179.234 9.89674V8.3257C179.234 7.55157 179.443 6.95958 179.852 6.55733H170.845C170.482 6.55733 170.134 6.68636 169.787 6.95199C169.447 7.21004 169.176 7.49085 168.991 7.77166H168.427L166.14 5.343L166.395 4.73584H180.911L182.61 6.55733C182.355 6.7243 182.131 6.97476 181.953 7.31629C181.776 7.65782 181.683 8.05248 181.683 8.50785V15.7635V15.7483Z" fill="#EDE6D6"/>
<path d="M184.665 2.58035C184.101 2.58035 183.653 2.82321 183.328 3.31653C183.004 3.80985 182.795 4.50809 182.71 5.41125L182.61 6.54968L180.269 5.69206L180.37 4.5764C180.493 3.37725 180.787 2.44373 181.258 1.76067C181.729 1.07761 182.332 0.736084 183.074 0.736084C183.591 0.736084 184.14 0.910644 184.719 1.26735C185.298 1.62406 185.878 2.09461 186.457 2.69419C187.036 3.29376 187.554 3.96924 188.018 4.72819C187.878 4.96347 187.724 5.26705 187.554 5.63894C187.384 6.01083 187.299 6.48138 187.299 7.05818V15.7558C187.299 16.2947 187.206 16.7652 187.013 17.1751C186.82 17.5849 186.635 17.9188 186.449 18.1997C186.264 18.4805 186.164 18.7157 186.164 18.9207C186.164 19.1028 186.279 19.3153 186.511 19.5506C186.743 19.7859 187.006 20.0136 187.307 20.2337C187.608 20.4538 187.863 20.6283 188.064 20.7649L187.654 21.319C187.446 21.1975 187.129 21.0002 186.704 20.7118C186.279 20.4234 185.831 20.1046 185.383 19.7403C184.928 19.376 184.541 19.0193 184.209 18.6626C183.885 18.3059 183.722 18.0175 183.722 17.7746C183.722 17.5242 183.815 17.251 184.008 16.955C184.194 16.659 184.387 16.3174 184.572 15.9152C184.758 15.513 184.858 15.05 184.858 14.5111V6.21574C184.858 5.62376 184.974 5.10767 185.206 4.65988C185.437 4.2121 185.669 3.85539 185.916 3.58217C185.816 3.27859 185.654 3.03572 185.43 2.84598C185.206 2.66383 184.958 2.56517 184.68 2.56517L184.665 2.58035Z" fill="#EDE6D6"/>
<path d="M197.017 8.31811C197.017 7.54398 197.226 6.95199 197.635 6.54974H193.804C193.379 6.56492 192.954 6.73189 192.544 7.05824C192.135 7.3846 191.818 7.70336 191.594 8.04489H191.03L188.481 5.343L188.736 4.73584H198.693L200.393 6.55733C200.138 6.7243 199.914 6.97476 199.736 7.31629C199.559 7.65023 199.466 8.05248 199.466 8.50785V15.7635C199.466 16.3023 199.373 16.7729 199.18 17.1827C198.987 17.5925 198.802 17.9265 198.616 18.2073C198.423 18.4881 198.33 18.7234 198.33 18.9283C198.33 19.1105 198.446 19.323 198.678 19.5582C198.91 19.7935 199.172 20.0212 199.474 20.2413C199.775 20.4614 200.03 20.636 200.231 20.7726L199.821 21.3266C199.613 21.19 199.288 20.9699 198.832 20.6663C198.377 20.3627 197.913 20.0212 197.427 19.6417C196.948 19.2623 196.561 18.9055 196.268 18.564C196.028 18.6475 195.781 18.7234 195.518 18.7765C195.264 18.8372 195.009 18.8676 194.769 18.8676C194.53 18.8676 194.19 18.7993 193.749 18.6627C193.309 18.5261 192.846 18.3287 192.343 18.0707C191.849 17.8126 191.37 17.4939 190.914 17.122C190.459 16.7501 190.088 16.3327 189.81 15.8697C189.524 15.4068 189.385 14.9058 189.385 14.367C189.385 13.3196 189.586 12.4468 189.987 11.741C190.389 11.0352 190.922 10.4963 191.586 10.1244C192.251 9.75254 192.961 9.57039 193.734 9.57039C194.406 9.57039 195.024 9.62352 195.588 9.72218C196.152 9.82084 196.623 9.94228 197.002 10.0789V8.33329L197.017 8.31811ZM192.768 16.9854C193.193 16.9854 193.68 16.8867 194.221 16.6818C194.761 16.4769 195.287 16.1961 195.789 15.8318C196.291 15.4675 196.7 15.0576 197.009 14.6023V11.5209C196.754 11.4905 196.515 11.4602 196.299 11.445C196.082 11.4298 195.882 11.4222 195.696 11.4222C195.047 11.4222 194.421 11.5968 193.834 11.9535C193.24 12.3102 192.768 12.8187 192.405 13.4942C192.042 14.1697 191.865 14.9969 191.865 15.9684C191.865 16.2416 191.934 16.4769 192.081 16.6742C192.228 16.8715 192.452 16.9778 192.761 16.9778L192.768 16.9854Z" fill="#EDE6D6"/>
<path d="M212.073 15.7483C212.073 16.2871 211.98 16.7577 211.787 17.1675C211.594 17.5698 211.409 17.9113 211.223 18.1921C211.03 18.4729 210.937 18.7082 210.937 18.9131C210.937 19.0953 211.053 19.3078 211.285 19.543C211.517 19.7783 211.779 20.006 212.081 20.2261C212.382 20.4462 212.637 20.6208 212.838 20.7574L212.428 21.3114C212.22 21.19 211.903 20.9927 211.478 20.7042C211.046 20.4158 210.605 20.0971 210.149 19.7328C209.694 19.3685 209.307 19.0118 208.975 18.6551C208.651 18.2984 208.489 18.01 208.489 17.7671C208.489 17.5166 208.581 17.2434 208.774 16.9474C208.96 16.6514 209.153 16.3099 209.338 15.9076C209.524 15.513 209.624 15.0424 209.624 14.5036V11.8776C209.161 11.8245 208.713 11.8017 208.288 11.8017C207.925 11.8017 207.531 11.9004 207.09 12.1053C206.65 12.3102 206.287 12.6517 205.993 13.145C206.024 13.5701 206.055 14.0406 206.086 14.5643C206.117 15.088 206.132 15.5889 206.148 16.0822C206.163 16.5679 206.171 16.9854 206.171 17.3193C206.171 17.6532 206.071 17.9872 205.862 18.2528C205.654 18.5185 205.383 18.6551 205.036 18.6551C204.757 18.6551 204.425 18.564 204.016 18.3894C203.614 18.2149 203.212 17.9872 202.818 17.7064C202.425 17.4256 202.092 17.1144 201.83 16.7729C201.567 16.4313 201.428 16.0974 201.428 15.771C201.428 15.0652 201.559 14.367 201.83 13.6763C202.092 12.9857 202.471 12.3557 202.95 11.7941C203.429 11.2325 203.985 10.7771 204.626 10.428C205.26 10.0789 205.939 9.9119 206.658 9.9119C207.206 9.9119 207.716 9.95743 208.187 10.0409C208.659 10.1244 209.137 10.2534 209.616 10.4204V8.32568C209.616 7.55154 209.825 6.95956 210.234 6.55731H205.908C205.484 6.58767 205.066 6.76982 204.672 7.08858C204.279 7.40734 203.97 7.7261 203.745 8.05246H203.182L200.632 5.35057L200.887 4.74341H211.285L212.985 6.5649C212.73 6.73187 212.506 6.98233 212.328 7.32386C212.15 7.6578 212.058 8.06005 212.058 8.51542V15.771L212.073 15.7483Z" fill="#EDE6D6"/>
</svg>
