<svg width="264" height="29" viewBox="0 0 264 29" fill="none" xmlns="http://www.w3.org/2000/svg">
<g clip-path="url(#clip0_283_91)">
<path d="M7.60381 12.4839L8.97546 14.3205L8.87472 14.6537H8.30901C7.7898 14.6537 7.27058 14.8009 6.75137 15.1032C6.2244 15.4054 5.79043 15.8394 5.43396 16.4051C5.07748 16.9708 4.90699 17.6682 4.90699 18.4974C4.90699 18.8074 4.99999 19.0787 5.19372 19.3111C5.37971 19.5436 5.67419 19.6599 6.06941 19.6599C6.46464 19.6599 6.93735 19.5591 7.43332 19.3499C7.92929 19.1406 8.4175 18.8617 8.89022 18.4974C9.36294 18.1332 9.74266 17.7225 10.0371 17.2575V11.0347C10.0371 10.2443 10.2464 9.6398 10.6571 9.22908H5.65094C5.20147 9.22908 4.7675 9.39956 4.33353 9.73279C3.90731 10.066 3.56633 10.407 3.3261 10.7557H2.76039L0.203064 7.99691L0.458797 7.37695H11.711L13.4159 9.23683C13.1602 9.40731 12.9354 9.6708 12.7572 10.0118C12.579 10.3528 12.486 10.7635 12.486 11.2284V18.6369C12.486 19.1871 12.393 19.6676 12.1992 20.0861C12.0133 20.4968 11.8195 20.8455 11.6335 21.1323C11.4475 21.419 11.3468 21.6592 11.3468 21.8685C11.3468 22.0545 11.463 22.2714 11.6955 22.5117C11.928 22.7519 12.1915 22.9844 12.4937 23.2091C12.796 23.4339 13.0517 23.6121 13.2532 23.7516L12.8425 24.3173C12.6177 24.1778 12.2767 23.9531 11.8118 23.6353C11.3468 23.3176 10.8741 22.9611 10.3936 22.5659C9.91315 22.1707 9.52568 21.791 9.2312 21.4267C8.92122 21.5275 8.61899 21.5817 8.32451 21.5817C8.04553 21.5817 7.67355 21.512 7.20084 21.3647C6.72812 21.2175 6.21665 21.0083 5.66644 20.7448C5.11623 20.4813 4.59701 20.1481 4.10105 19.7606C3.61283 19.3731 3.20986 18.9314 2.88438 18.4432C2.56665 17.955 2.40391 17.4203 2.40391 16.8546C2.40391 16.4051 2.47366 16.0021 2.6209 15.6301C2.76814 15.2582 2.96962 14.9404 3.22536 14.6615H1.64447L0.272809 12.8171L0.373552 12.4839H7.60381Z" fill="#B2462D"/>
<path d="M3.39586 0.758662C4.24055 0.588174 5.03099 0.50293 5.76719 0.50293C6.90637 0.50293 7.8673 0.758662 8.67324 1.26238C9.47144 1.77384 10.1534 2.4403 10.7114 3.27724C11.2693 4.11418 11.7653 5.04412 12.1993 6.0748C12.6332 7.10548 13.0362 8.15941 13.4159 9.22108L11.9978 8.11291C11.3468 7.15198 10.7036 6.50102 10.0759 6.16779C9.44819 5.83457 8.6655 5.66408 7.74331 5.66408C7.31709 5.66408 6.83662 5.68733 6.30966 5.74157C5.78269 5.79582 5.20148 5.88106 4.56603 5.9973L3.32611 4.05994C3.86082 3.92045 4.35679 3.8352 4.82176 3.7887C5.28673 3.74221 5.7362 3.72671 6.16242 3.72671C7.50308 3.72671 8.6345 4.05994 9.55668 4.71864C10.4789 5.3851 11.3623 6.32278 12.1993 7.5472C11.7498 6.47777 11.2926 5.57108 10.8198 4.81164C10.3471 4.05219 9.78917 3.47098 9.15371 3.068C8.51826 2.66503 7.72006 2.46355 6.75138 2.46355C6.11592 2.46355 5.36422 2.54104 4.50403 2.69603L3.39586 0.758662Z" fill="#B2462D"/>
<path d="M24.5596 18.6214C24.5596 19.1716 24.4666 19.6521 24.2729 20.0705C24.0792 20.4812 23.8932 20.83 23.7072 21.1167C23.5212 21.4034 23.4205 21.6437 23.4205 21.8529C23.4205 22.0389 23.5367 22.2559 23.7692 22.4961C24.0017 22.7363 24.2652 22.9688 24.5674 23.1936C24.8696 23.4183 25.1253 23.5965 25.3268 23.736L24.9161 24.3017C24.7069 24.1777 24.3891 23.9763 23.9629 23.6818C23.5367 23.3873 23.0872 23.0618 22.6378 22.6898C22.1805 22.3179 21.7931 21.9536 21.4598 21.5894C21.1344 21.2252 20.9716 20.9307 20.9716 20.6827C20.9716 20.427 21.0646 20.148 21.2584 19.8458C21.4443 19.5436 21.6381 19.1948 21.8241 18.7841C22.0101 18.3811 22.1108 17.9007 22.1108 17.3505V14.5374C21.9403 14.5219 21.7543 14.5064 21.5683 14.4987C21.3823 14.4909 21.1886 14.4832 21.0026 14.4832C20.3517 14.4832 19.7317 14.7234 19.1428 15.2039C18.5615 15.6843 18.0811 16.312 17.7091 17.087C17.3371 17.8619 17.1511 18.6989 17.1511 19.5901C17.1511 20.2255 17.3526 20.8687 17.7556 21.5274C18.1586 22.1861 18.763 22.8293 19.5767 23.4648L19.0575 24.0305C17.7014 23.0696 16.6164 22.0699 15.8027 21.0392C14.9968 20.0085 14.5861 19.0553 14.5861 18.1719C14.5861 17.1257 14.8108 16.1725 15.2603 15.3201C15.7097 14.4677 16.2909 13.7857 17.0116 13.282C17.7323 12.7783 18.4918 12.5225 19.2822 12.5225C19.8015 12.5225 20.2897 12.5535 20.7546 12.6233C21.2196 12.693 21.6691 12.7938 22.0953 12.9333V11.0269C22.0953 10.2364 22.3045 9.63199 22.7153 9.22126H19.104C18.6545 9.22126 18.2206 9.39175 17.7866 9.72498C17.3604 10.0582 17.0194 10.3992 16.7792 10.7479H16.2135L13.6561 7.9891L13.9119 7.36914H23.7692L25.4741 9.22901C25.2183 9.3995 24.9936 9.66298 24.8154 10.004C24.6371 10.3449 24.5441 10.7557 24.5441 11.2206V18.6291L24.5596 18.6214Z" fill="#B2462D"/>
<path d="M37.2068 18.621C37.2068 19.1712 37.1138 19.6517 36.92 20.0702C36.7263 20.4809 36.5403 20.8296 36.3543 21.1163C36.1606 21.4031 36.0676 21.6433 36.0676 21.8525C36.0676 22.0385 36.1838 22.2555 36.4163 22.4957C36.6488 22.736 36.9123 22.9685 37.2145 23.1932C37.5167 23.4179 37.7725 23.5962 37.974 23.7357L37.5632 24.3014C37.354 24.1774 37.0363 23.9759 36.6101 23.6814C36.1761 23.3869 35.7344 23.0615 35.2771 22.6895C34.8199 22.3175 34.4325 21.9533 34.0992 21.5891C33.766 21.2248 33.611 20.9304 33.611 20.6824C33.611 20.4266 33.704 20.1477 33.8977 19.8454C34.0837 19.5432 34.2775 19.1945 34.4635 18.7837C34.6494 18.3808 34.7502 17.9003 34.7502 17.3501V14.6688C34.2852 14.6145 33.8357 14.5913 33.4095 14.5913C33.0453 14.5913 32.6501 14.692 32.2084 14.9013C31.7666 15.1105 31.4024 15.4592 31.1079 15.9629C31.1389 16.3969 31.1699 16.8774 31.2009 17.4121C31.2242 17.9468 31.2474 18.4583 31.2629 18.962C31.2784 19.4657 31.2862 19.8842 31.2862 20.2251C31.2862 20.5894 31.1854 20.9071 30.9762 21.1783C30.767 21.4573 30.4957 21.5891 30.147 21.5891C29.868 21.5891 29.5348 21.4961 29.1241 21.3178C28.7211 21.1396 28.3181 20.9071 27.9229 20.6204C27.5277 20.3336 27.1944 20.0159 26.931 19.6672C26.6675 19.3107 26.528 18.9775 26.528 18.6443C26.528 17.9236 26.6597 17.2106 26.931 16.5054C27.1944 15.8002 27.5742 15.157 28.0546 14.5835C28.5351 14.0101 29.0931 13.5451 29.7363 13.1886C30.3717 12.8399 31.0537 12.6617 31.7744 12.6617C32.3246 12.6617 32.8361 12.7082 33.3088 12.7934C33.7815 12.8787 34.262 13.0104 34.7424 13.1809V11.042C34.7424 10.2516 34.9517 9.64712 35.3624 9.2364H31.0227C30.5965 9.2674 30.178 9.45339 29.7828 9.77886C29.3875 10.1043 29.0776 10.4298 28.8528 10.763H28.2871L25.7298 8.00424L25.9855 7.38428H36.4163L38.1212 9.24415C37.8655 9.41464 37.6407 9.67812 37.4625 10.0191C37.2843 10.3601 37.1913 10.7708 37.1913 11.2358V18.6443L37.2068 18.621Z" fill="#B2462D"/>
<path d="M37.7493 28.0676L37.0286 27.5019C36.5326 27.1067 36.0289 26.82 35.5329 26.6495C35.037 26.479 34.4867 26.3937 33.8823 26.3937C33.5181 26.3937 33.1151 26.4402 32.6656 26.5255C32.2161 26.6107 31.7202 26.7425 31.17 26.913L29.9301 24.7741C30.9142 24.4331 31.7899 24.2549 32.5649 24.2549C33.3398 24.2549 34.0838 24.4951 34.8587 24.9678C35.6337 25.4406 36.5249 26.0993 37.54 26.9439L38.2607 27.5407L37.7415 28.0831L37.7493 28.0676Z" fill="#B2462D"/>
<path d="M43.9953 11.0347C43.9953 10.2443 44.2046 9.6398 44.6153 9.22908H43.8403C43.3909 9.22908 42.9569 9.39956 42.5229 9.73279C42.0967 10.066 41.7557 10.407 41.5155 10.7557H40.9498L38.3925 7.99691L38.6482 7.37695H51.2721L52.977 9.23683C52.7212 9.40731 52.4965 9.6708 52.3183 10.0273C52.14 10.3837 52.047 10.8332 52.047 11.3834V18.1177C52.047 18.6679 51.954 19.1484 51.7603 19.5669C51.5743 19.9776 51.3806 20.3263 51.1946 20.613C51.0008 20.8998 50.9079 21.14 50.9079 21.3492C50.9079 21.5895 51.0396 21.8685 51.3108 22.1784C51.5743 22.4884 51.8843 22.7829 52.2253 23.0696C52.5662 23.3564 52.853 23.5811 53.0777 23.7516L52.667 24.3173C52.4422 24.1778 52.109 23.9453 51.6596 23.6198C51.2101 23.2944 50.7451 22.9224 50.2491 22.4962C49.7609 22.0777 49.3425 21.6592 48.9937 21.2563C48.645 20.8533 48.4668 20.5123 48.4513 20.2333C48.025 20.4426 47.6066 20.6983 47.1959 21.0083C46.7929 21.3182 46.4054 21.698 46.0489 22.1474C45.6847 22.1474 45.2352 22.0389 44.6773 21.822C44.1271 21.605 43.5536 21.3182 42.9491 20.9463C42.3447 20.5743 41.7867 20.1481 41.2598 19.6676C40.7328 19.1871 40.3066 18.6834 39.9656 18.1565C39.6324 17.6295 39.4619 17.1025 39.4619 16.5678C39.4619 15.8626 39.6711 15.2737 40.0818 14.8087C40.4926 14.3437 41.1435 14.0182 42.0192 13.8245L43.9798 13.3828V11.0347H43.9953ZM49.5982 11.0347C49.5982 10.2443 49.8074 9.6398 50.2181 9.22908H47.3818C47.1261 9.39956 46.9014 9.66305 46.7231 10.004C46.5449 10.345 46.4519 10.7557 46.4519 11.2207V15.2737L44.1038 15.9479C43.3986 16.1571 42.8794 16.4361 42.5539 16.8003C42.2284 17.1645 42.0657 17.614 42.0657 18.172C42.0657 18.6679 42.2749 19.1019 42.6857 19.4661C43.0964 19.8304 43.5304 20.0706 43.9798 20.1868C44.7548 19.4119 45.6072 18.7609 46.5449 18.2417C47.4826 17.7225 48.49 17.3505 49.5749 17.1413C49.5904 17.087 49.5982 16.994 49.5982 16.8546V11.0502V11.0347Z" fill="#B2462D"/>
<path d="M48.8232 4.16861C49.1177 3.95938 49.4819 3.76564 49.9237 3.5719C50.3654 3.38591 50.7606 3.23093 51.1248 3.10693C51.7603 3.5409 52.357 4.05237 52.9072 4.65683V4.88931C52.5817 5.0133 52.1865 5.16829 51.7293 5.36978C51.2721 5.57127 50.9001 5.765 50.6056 5.95099C50.3344 5.65651 50.0399 5.39303 49.7377 5.15279C49.4355 4.91256 49.1332 4.66458 48.8232 4.4011V4.16861Z" fill="#B2462D"/>
<path d="M65.5234 9.22901C65.2831 9.3995 65.0662 9.66298 64.8802 10.004C64.6864 10.3449 64.5934 10.7557 64.5934 11.2206V13.1812C64.5934 13.251 64.5857 13.3207 64.5702 13.3905C64.9112 13.3362 65.2521 13.313 65.5776 13.313C66.1588 13.313 66.7013 13.3595 67.205 13.4447C67.701 13.53 68.1969 13.6695 68.6774 13.8554V10.7557C68.6774 10.6549 68.6852 10.5619 68.7007 10.4689L66.4301 7.9891L66.6858 7.36914H76.2331L77.938 9.22901C77.6823 9.3995 77.4576 9.66298 77.2793 10.004C77.1011 10.3449 77.0081 10.7557 77.0081 11.2206V18.6291C77.0081 19.1793 76.9151 19.6598 76.7214 20.0783C76.5276 20.489 76.3416 20.8377 76.1556 21.1244C75.9697 21.4112 75.8689 21.6514 75.8689 21.8607C75.8689 22.0466 75.9852 22.2636 76.2176 22.5039C76.4501 22.7441 76.7136 22.9766 77.0158 23.2013C77.3181 23.426 77.5738 23.6043 77.7753 23.7438L77.3646 24.3095C77.1553 24.1855 76.8376 23.984 76.4114 23.6895C75.9852 23.395 75.5357 23.0696 75.0862 22.6976C74.629 22.3256 74.2415 21.9614 73.9083 21.5972C73.5828 21.2329 73.4201 20.9385 73.4201 20.6905C73.4201 20.4347 73.5131 20.1558 73.7068 19.8535C73.8928 19.5513 74.0865 19.2026 74.2725 18.7919C74.4585 18.3889 74.5593 17.9084 74.5593 17.3582V11.0346C74.5593 10.2442 74.7685 9.63974 75.1792 9.22901H72.0562C71.8004 9.3995 71.5757 9.66298 71.3975 10.004C71.2192 10.3449 71.1262 10.7557 71.1262 11.2206V18.6291C71.1262 19.1793 71.0332 19.6598 70.8395 20.0783C70.6458 20.489 70.4598 20.8377 70.2738 21.1244C70.0878 21.4112 69.9871 21.6514 69.9871 21.8607C69.9871 22.0466 70.1033 22.2636 70.3358 22.5039C70.5683 22.7441 70.8318 22.9766 71.134 23.2013C71.4362 23.426 71.6919 23.6043 71.8934 23.7438L71.4827 24.3095C71.2735 24.1855 70.9557 23.984 70.5295 23.6895C70.0956 23.395 69.6538 23.0696 69.1966 22.6976C68.7394 22.3256 68.3519 21.9614 68.0187 21.5972C67.6855 21.2329 67.5305 20.9385 67.5305 20.6905C67.5305 20.4347 67.6235 20.1558 67.8172 19.8535C68.0032 19.5513 68.1969 19.2026 68.3829 18.7919C68.5689 18.3889 68.6697 17.9084 68.6697 17.3582V15.2968C68.2899 15.2426 67.9025 15.2194 67.5072 15.2194C66.988 15.2194 66.4301 15.2736 65.8179 15.3743C65.2056 15.4751 64.5314 15.6998 63.7875 16.0485C64.4074 16.5833 64.9422 17.1955 65.3916 17.8852C65.8411 18.5749 66.0658 19.2413 66.0658 19.9C66.0658 20.5045 65.9186 21.0625 65.6241 21.5894C65.3296 22.1164 64.9112 22.5349 64.361 22.8526C63.8107 23.1703 63.1443 23.333 62.3693 23.333C61.5944 23.333 60.8504 23.1316 60.0832 22.7286C59.316 22.3256 58.6186 21.7832 57.9909 21.1167C57.3632 20.4425 56.8595 19.6985 56.4797 18.8694L57.1772 18.4586C57.7816 19.4041 58.3551 20.1015 58.9053 20.551C59.4555 21.0005 60.0522 21.2252 60.6877 21.2252C61.2922 21.2252 61.8114 21.0625 62.2531 20.7447C62.6948 20.427 63.028 20.024 63.276 19.5281C63.5163 19.0398 63.6403 18.5284 63.6403 17.9937C63.6403 17.149 63.3535 16.7305 62.7878 16.7305C62.3228 16.7305 61.8734 16.87 61.4471 17.1412C61.0209 17.4202 60.6722 17.7534 60.4165 18.1487L57.8901 16.3198C58.0994 15.8393 58.4714 15.4363 59.0138 15.1031C59.5563 14.7776 60.1375 14.6149 60.7574 14.6149C60.8427 14.6149 60.9279 14.6149 61.0054 14.6304C61.0829 14.6381 61.1604 14.6536 61.2534 14.6691C61.6486 14.3592 61.8966 13.9562 62.0051 13.468C62.1059 12.9798 62.1601 12.538 62.1601 12.1351V11.0501C62.1601 10.2597 62.3693 9.65523 62.7801 9.24451H61.4626C61.0984 9.24451 60.7497 9.37625 60.401 9.64749C60.0522 9.91872 59.7888 10.1977 59.6028 10.4844H59.0371L56.7432 8.0046L56.999 7.38464H63.8417L65.5466 9.24451L65.5234 9.22901Z" fill="#EDE6D6"/>
<path d="M92.476 18.6212C92.476 19.1715 92.383 19.6519 92.1893 20.0704C91.9955 20.4811 91.8095 20.8298 91.6236 21.1166C91.4376 21.4033 91.3368 21.6435 91.3368 21.8528C91.3368 22.0388 91.4531 22.2557 91.6855 22.496C91.918 22.7362 92.1815 22.9687 92.4837 23.1934C92.786 23.4182 93.0417 23.5964 93.2432 23.7359L92.8325 24.3016C92.6232 24.1776 92.3055 23.9761 91.8793 23.6816C91.4531 23.3872 91.0036 23.0617 90.5541 22.6897C90.0969 22.3177 89.7094 21.9535 89.3762 21.5893C89.043 21.2251 88.888 20.9306 88.888 20.6826C88.888 20.4269 88.981 20.1479 89.1747 19.8457C89.3607 19.5434 89.5545 19.1947 89.7404 18.784C89.9264 18.381 90.0272 17.9005 90.0272 17.3503V16.0097C89.9574 15.9942 89.8877 15.9864 89.8179 15.9864H89.6087C89.1592 15.9864 88.6633 16.1027 88.113 16.3352C87.5628 16.5676 87.0126 16.8699 86.4702 17.2418C85.9277 17.6138 85.4317 18.0013 84.9823 18.4043C84.5328 18.8072 84.1763 19.1792 83.8973 19.5279C83.6184 19.8689 83.4866 20.1401 83.4866 20.3261C83.4866 20.5664 83.6416 20.8763 83.9516 21.2561C84.2616 21.6358 84.6568 22.0465 85.1373 22.4805C85.6177 22.9222 86.1214 23.3562 86.6329 23.7824L86.1137 24.4023C85.6487 24.0614 85.114 23.6274 84.5018 23.1082C83.8896 22.589 83.2774 22.0233 82.6574 21.4033C82.0375 20.7833 81.464 20.1556 80.9293 19.5202C80.3946 18.8847 79.9684 18.2725 79.6351 17.6836C79.3097 17.1023 79.1469 16.5831 79.1469 16.1337C79.1469 15.5525 79.2477 15.0797 79.4569 14.7233C79.6661 14.3745 79.9141 14.1111 80.2086 13.9483C80.5031 13.7856 80.7743 13.7003 81.0378 13.7003C81.3013 13.7003 81.588 13.8088 81.9057 14.0336C82.2235 14.2583 82.5179 14.483 82.7814 14.7078C83.0449 14.9325 83.2231 15.041 83.3084 15.041C83.4944 15.041 83.6416 14.8783 83.7501 14.5605C83.8508 14.2428 83.9051 13.8166 83.9051 13.2819V11.0113C83.9051 10.2208 84.1143 9.61636 84.525 9.20564H83.6494C83.1999 9.20564 82.7659 9.37613 82.3319 9.70935C81.9057 10.0426 81.5647 10.3836 81.3245 10.7323H80.7588L78.2015 7.97347L78.4572 7.35352H91.7011L93.4059 9.21339C93.1502 9.38388 92.9255 9.63186 92.7472 9.94959C92.569 10.2673 92.476 10.6548 92.476 11.0965V18.6057V18.6212ZM90.0194 11.0345C90.0194 10.2441 90.2287 9.63961 90.6394 9.22889H87.2839C87.0281 9.39938 86.8034 9.66286 86.6251 10.0038C86.4469 10.3448 86.3539 10.7555 86.3539 11.2205V14.576C87.0979 14.2505 87.7798 14.0878 88.423 14.0878C88.6788 14.0878 88.9422 14.1033 89.2135 14.1421C89.477 14.173 89.7482 14.2273 90.0272 14.297V11.0423L90.0194 11.0345Z" fill="#EDE6D6"/>
<path d="M93.0185 28.0676L92.2978 27.5019C91.8018 27.1067 91.2981 26.82 90.8021 26.6495C90.3062 26.479 89.756 26.3937 89.1515 26.3937C88.7873 26.3937 88.3843 26.4402 87.9348 26.5255C87.4854 26.6107 86.9894 26.7425 86.4392 26.913L85.1993 24.7741C86.1835 24.4331 87.0591 24.2549 87.8341 24.2549C88.609 24.2549 89.353 24.4951 90.1279 24.9678C90.9029 25.4406 91.7941 26.0993 92.8093 26.9439L93.53 27.5407L93.0107 28.0831L93.0185 28.0676Z" fill="#EDE6D6"/>
<path d="M104.557 18.6214C104.557 19.1716 104.464 19.6521 104.271 20.0705C104.077 20.4812 103.891 20.83 103.705 21.1167C103.519 21.4034 103.418 21.6437 103.418 21.8529C103.418 22.0389 103.535 22.2559 103.767 22.4961C103.999 22.7363 104.263 22.9688 104.565 23.1936C104.867 23.4183 105.123 23.5965 105.325 23.736L104.914 24.3017C104.705 24.1777 104.387 23.9763 103.961 23.6818C103.535 23.3873 103.085 23.0618 102.636 22.6898C102.178 22.3179 101.791 21.9536 101.458 21.5894C101.132 21.2252 100.969 20.9307 100.969 20.6827C100.969 20.427 101.062 20.148 101.256 19.8458C101.442 19.5436 101.636 19.1948 101.822 18.7841C102.008 18.3811 102.109 17.9007 102.109 17.3505V14.5374C101.938 14.5219 101.752 14.5064 101.566 14.4987C101.38 14.4909 101.186 14.4832 101 14.4832C100.349 14.4832 99.7295 14.7234 99.1406 15.2039C98.5593 15.6843 98.0789 16.312 97.7069 17.087C97.3349 17.8619 97.1489 18.6989 97.1489 19.5901C97.1489 20.2255 97.3504 20.8687 97.7534 21.5274C98.1564 22.1861 98.7608 22.8293 99.5745 23.4648L99.0553 24.0305C97.6992 23.0696 96.6142 22.0699 95.8005 21.0392C94.9946 20.0085 94.5839 19.0553 94.5839 18.1719C94.5839 17.1257 94.8086 16.1725 95.2581 15.3201C95.7075 14.4677 96.2888 13.7857 97.0095 13.282C97.7302 12.7783 98.4896 12.5225 99.28 12.5225C99.7993 12.5225 100.287 12.5535 100.752 12.6233C101.217 12.693 101.667 12.7938 102.093 12.9333V11.0269C102.093 10.2364 102.302 9.63199 102.713 9.22126H99.1018C98.6523 9.22126 98.2184 9.39175 97.7844 9.72498C97.3582 10.0582 97.0172 10.3992 96.777 10.7479H96.2113L93.6539 7.9891L93.9097 7.36914H103.767L105.472 9.22901C105.216 9.3995 104.991 9.66298 104.813 10.004C104.635 10.3449 104.542 10.7557 104.542 11.2206V18.6291L104.557 18.6214Z" fill="#EDE6D6"/>
<path d="M108.68 8.89564C108.37 8.60116 108.052 8.19044 107.727 7.65573C107.401 7.12102 107.239 6.60955 107.239 6.10584C107.239 5.47038 107.518 4.88142 108.068 4.33896C108.618 3.79649 109.347 3.36252 110.246 3.03704C111.152 2.71157 112.121 2.54883 113.152 2.54883C113.927 2.54883 114.779 2.77356 115.709 3.23078C116.639 3.688 117.569 4.30796 118.506 5.10615C119.444 5.8966 120.312 6.79554 121.103 7.78747L120.583 8.19819C119.584 7.08227 118.615 6.21433 117.669 5.60212C116.724 4.98991 115.74 4.68768 114.725 4.68768C113.71 4.68768 112.88 4.82717 112.144 5.1139C111.4 5.40063 110.827 5.76486 110.416 6.21433C110.005 6.6638 109.796 7.12102 109.796 7.58598C109.796 8.01995 109.928 8.43068 110.199 8.8414C110.462 9.24437 110.757 9.5776 111.067 9.83333C110.811 10.0038 110.586 10.2673 110.408 10.6083C110.23 10.9493 110.137 11.36 110.137 11.8249V18.6367C110.137 19.1869 110.044 19.6674 109.85 20.0859C109.664 20.4966 109.471 20.8453 109.285 21.1321C109.091 21.4188 108.998 21.659 108.998 21.8683C108.998 22.0542 109.114 22.2712 109.347 22.5115C109.579 22.7517 109.843 22.9842 110.145 23.2089C110.447 23.4337 110.703 23.6119 110.904 23.7514L110.493 24.3171C110.284 24.1931 109.967 23.9916 109.54 23.6971C109.106 23.4027 108.665 23.0772 108.207 22.7052C107.75 22.3332 107.363 21.969 107.029 21.6048C106.696 21.2406 106.541 20.9461 106.541 20.6981C106.541 20.4424 106.634 20.1634 106.828 19.8611C107.014 19.5589 107.208 19.2102 107.394 18.7995C107.58 18.3965 107.68 17.916 107.68 17.3658V11.4297C107.68 10.8485 107.766 10.3603 107.928 9.97282C108.091 9.58535 108.347 9.22887 108.688 8.90339L108.68 8.89564Z" fill="#EDE6D6"/>
<path d="M122.211 18.6214C122.211 19.1716 122.118 19.6521 121.924 20.0705C121.73 20.4812 121.544 20.83 121.358 21.1167C121.172 21.4034 121.072 21.6437 121.072 21.8529C121.072 22.0389 121.188 22.2559 121.42 22.4961C121.653 22.7363 121.916 22.9688 122.219 23.1936C122.521 23.4183 122.776 23.5965 122.978 23.736L122.567 24.3017C122.358 24.1777 122.04 23.9763 121.614 23.6818C121.188 23.3873 120.738 23.0618 120.289 22.6898C119.832 22.3179 119.444 21.9536 119.111 21.5894C118.785 21.2252 118.623 20.9307 118.623 20.6827C118.623 20.427 118.716 20.148 118.909 19.8458C119.095 19.5436 119.289 19.1948 119.475 18.7841C119.661 18.3811 119.762 17.9007 119.762 17.3505V14.5374C119.591 14.5219 119.405 14.5064 119.219 14.4987C119.033 14.4909 118.84 14.4832 118.654 14.4832C118.003 14.4832 117.383 14.7234 116.794 15.2039C116.213 15.6843 115.732 16.312 115.36 17.087C114.988 17.8619 114.802 18.6989 114.802 19.5901C114.802 20.2255 115.004 20.8687 115.407 21.5274C115.81 22.1861 116.414 22.8293 117.228 23.4648L116.709 24.0305C115.352 23.0696 114.268 22.0699 113.454 21.0392C112.648 20.0085 112.237 19.0553 112.237 18.1719C112.237 17.1257 112.462 16.1725 112.911 15.3201C113.361 14.4677 113.942 13.7857 114.663 13.282C115.383 12.7783 116.143 12.5225 116.933 12.5225C117.453 12.5225 117.941 12.5535 118.406 12.6233C118.871 12.693 119.32 12.7938 119.746 12.9333V11.0269C119.746 10.2364 119.956 9.63199 120.366 9.22126H116.755C116.306 9.22126 115.872 9.39175 115.438 9.72498C115.011 10.0582 114.671 10.3992 114.43 10.7479H113.865L111.307 7.9891L111.563 7.36914H121.42L123.125 9.22901C122.869 9.3995 122.645 9.66298 122.466 10.004C122.288 10.3449 122.195 10.7557 122.195 11.2206V18.6291L122.211 18.6214Z" fill="#EDE6D6"/>
<path d="M122.753 28.0676L122.032 27.5019C121.537 27.1067 121.033 26.82 120.537 26.6495C120.041 26.479 119.491 26.3937 118.886 26.3937C118.522 26.3937 118.119 26.4402 117.67 26.5255C117.22 26.6107 116.724 26.7425 116.174 26.913L114.934 24.7741C115.918 24.4331 116.794 24.2549 117.569 24.2549C118.344 24.2549 119.088 24.4951 119.863 24.9678C120.638 25.4406 121.529 26.0993 122.544 26.9439L123.265 27.5407L122.745 28.0831L122.753 28.0676Z" fill="#EDE6D6"/>
<path d="M131.967 11.0347C131.967 10.2443 132.177 9.6398 132.587 9.22908H128.743C128.317 9.24458 127.891 9.41506 127.48 9.74829C127.07 10.0815 126.752 10.407 126.527 10.7557H125.961L123.404 7.99691L123.66 7.37695H133.649L135.354 9.23683C135.098 9.40731 134.873 9.6708 134.695 10.0118C134.517 10.3528 134.424 10.7635 134.424 11.2284V18.6369C134.424 19.1871 134.331 19.6676 134.137 20.0861C133.951 20.4968 133.757 20.8455 133.571 21.1323C133.378 21.419 133.285 21.6592 133.285 21.8685C133.285 22.0545 133.401 22.2714 133.633 22.5117C133.866 22.7519 134.129 22.9844 134.432 23.2091C134.734 23.4339 134.99 23.6121 135.191 23.7516L134.78 24.3173C134.571 24.1778 134.246 23.9531 133.788 23.6431C133.331 23.3331 132.866 22.9844 132.378 22.5969C131.898 22.2094 131.51 21.8452 131.216 21.4965C130.975 21.5817 130.727 21.6592 130.464 21.7135C130.208 21.7755 129.952 21.8065 129.712 21.8065C129.472 21.8065 129.131 21.7367 128.689 21.5972C128.248 21.4577 127.783 21.2563 127.279 20.9928C126.783 20.7293 126.302 20.4038 125.845 20.0241C125.388 19.6444 125.016 19.2181 124.737 18.7454C124.45 18.2727 124.311 17.7612 124.311 17.211C124.311 16.1416 124.512 15.2504 124.915 14.5297C125.318 13.809 125.853 13.2588 126.519 12.8791C127.178 12.4994 127.899 12.3134 128.674 12.3134C129.348 12.3134 129.968 12.3676 130.534 12.4684C131.099 12.5691 131.572 12.6931 131.952 12.8326V11.0502L131.967 11.0347ZM127.705 19.8923C128.131 19.8923 128.62 19.7916 129.162 19.5824C129.704 19.3731 130.231 19.0864 130.735 18.7144C131.239 18.3425 131.65 17.924 131.96 17.459V14.3127C131.704 14.2817 131.464 14.2507 131.247 14.2352C131.03 14.2197 130.828 14.212 130.642 14.212C129.991 14.212 129.363 14.3902 128.774 14.7544C128.178 15.1187 127.705 15.6379 127.341 16.3276C126.977 17.0173 126.798 17.862 126.798 18.8539C126.798 19.1329 126.868 19.3731 127.015 19.5746C127.163 19.7761 127.387 19.8846 127.697 19.8846L127.705 19.8923Z" fill="#EDE6D6"/>
<path d="M149.876 18.6212C149.876 19.1715 149.783 19.6519 149.59 20.0704C149.396 20.4811 149.21 20.8298 149.024 21.1166C148.838 21.4033 148.737 21.6435 148.737 21.8528C148.737 22.0388 148.853 22.2557 149.086 22.496C149.318 22.7362 149.582 22.9687 149.884 23.1934C150.186 23.4182 150.442 23.5964 150.644 23.7359L150.233 24.3016C150.024 24.1776 149.706 23.9761 149.28 23.6816C148.853 23.3872 148.404 23.0617 147.954 22.6897C147.497 22.3177 147.11 21.9535 146.777 21.5893C146.443 21.2251 146.288 20.9306 146.288 20.6826C146.288 20.4269 146.381 20.1479 146.575 19.8457C146.761 19.5434 146.955 19.1947 147.141 18.784C147.327 18.381 147.428 17.9005 147.428 17.3503V16.0097C147.358 15.9942 147.288 15.9864 147.218 15.9864H147.009C146.56 15.9864 146.064 16.1027 145.513 16.3352C144.963 16.5676 144.413 16.8699 143.87 17.2418C143.328 17.6138 142.832 18.0013 142.383 18.4043C141.933 18.8072 141.577 19.1792 141.298 19.5279C141.019 19.8689 140.887 20.1401 140.887 20.3261C140.887 20.5664 141.042 20.8763 141.352 21.2561C141.662 21.6358 142.057 22.0465 142.538 22.4805C143.018 22.9222 143.522 23.3562 144.033 23.7824L143.514 24.4023C143.049 24.0614 142.514 23.6274 141.902 23.1082C141.29 22.589 140.678 22.0233 140.058 21.4033C139.438 20.7833 138.864 20.1556 138.33 19.5202C137.795 18.8847 137.369 18.2725 137.035 17.6836C136.71 17.1023 136.547 16.5831 136.547 16.1337C136.547 15.5525 136.648 15.0797 136.857 14.7233C137.066 14.3745 137.314 14.1111 137.609 13.9483C137.903 13.7856 138.175 13.7003 138.438 13.7003C138.702 13.7003 138.988 13.8088 139.306 14.0336C139.624 14.2583 139.918 14.483 140.182 14.7078C140.445 14.9325 140.623 15.041 140.709 15.041C140.895 15.041 141.042 14.8783 141.15 14.5605C141.251 14.2428 141.305 13.8166 141.305 13.2819V11.0113C141.305 10.2208 141.515 9.61636 141.925 9.20564H141.05C140.6 9.20564 140.166 9.37613 139.732 9.70935C139.306 10.0426 138.965 10.3836 138.725 10.7323H138.159L135.602 7.97347L135.858 7.35352H149.101L150.806 9.21339C150.551 9.38388 150.326 9.63186 150.148 9.94959C149.969 10.2673 149.876 10.6548 149.876 11.0965V18.6057V18.6212ZM147.428 11.0345C147.428 10.2441 147.637 9.63961 148.047 9.22889H144.692C144.436 9.39938 144.211 9.66286 144.033 10.0038C143.855 10.3448 143.762 10.7555 143.762 11.2205V14.576C144.506 14.2505 145.188 14.0878 145.831 14.0878C146.087 14.0878 146.35 14.1033 146.622 14.1421C146.885 14.173 147.156 14.2273 147.435 14.297V11.0423L147.428 11.0345Z" fill="#EDE6D6"/>
<path d="M150.419 28.0676L149.698 27.5019C149.202 27.1067 148.698 26.82 148.202 26.6495C147.707 26.479 147.156 26.3937 146.552 26.3937C146.188 26.3937 145.785 26.4402 145.335 26.5255C144.886 26.6107 144.39 26.7425 143.84 26.913L142.6 24.7741C143.584 24.4331 144.459 24.2549 145.234 24.2549C146.009 24.2549 146.753 24.4951 147.528 24.9678C148.303 25.4406 149.194 26.0993 150.21 26.9439L150.93 27.5407L150.411 28.0831L150.419 28.0676Z" fill="#EDE6D6"/>
<path d="M156.673 11.0347C156.673 10.2443 156.882 9.6398 157.293 9.22908H156.518C156.068 9.22908 155.634 9.39956 155.2 9.73279C154.774 10.066 154.433 10.407 154.193 10.7557H153.627L151.07 7.99691L151.325 7.37695H163.949L165.654 9.23683C165.399 9.40731 165.174 9.6708 164.996 10.0273C164.817 10.3837 164.724 10.8332 164.724 11.3834V18.1177C164.724 18.6679 164.631 19.1484 164.438 19.5669C164.252 19.9776 164.058 20.3263 163.872 20.613C163.678 20.8998 163.585 21.14 163.585 21.3492C163.585 21.5895 163.717 21.8685 163.988 22.1784C164.252 22.4884 164.562 22.7829 164.903 23.0696C165.244 23.3564 165.53 23.5811 165.755 23.7516L165.344 24.3173C165.12 24.1778 164.786 23.9453 164.337 23.6198C163.887 23.2944 163.422 22.9224 162.926 22.4962C162.438 22.0777 162.02 21.6592 161.671 21.2563C161.322 20.8533 161.144 20.5123 161.129 20.2333C160.702 20.4426 160.284 20.6983 159.873 21.0083C159.47 21.3182 159.083 21.698 158.726 22.1474C158.362 22.1474 157.913 22.0389 157.355 21.822C156.804 21.605 156.231 21.3182 155.626 20.9463C155.022 20.5743 154.464 20.1481 153.937 19.6676C153.41 19.1871 152.984 18.6834 152.643 18.1565C152.31 17.6295 152.139 17.1025 152.139 16.5678C152.139 15.8626 152.348 15.2737 152.759 14.8087C153.17 14.3437 153.821 14.0182 154.697 13.8245L156.657 13.3828V11.0347H156.673ZM162.268 11.0347C162.268 10.2443 162.477 9.6398 162.888 9.22908H160.051C159.796 9.39956 159.571 9.66305 159.393 10.004C159.214 10.345 159.121 10.7557 159.121 11.2207V15.2737L156.773 15.9479C156.068 16.1571 155.549 16.4361 155.223 16.8003C154.898 17.1645 154.735 17.614 154.735 18.172C154.735 18.6679 154.944 19.1019 155.355 19.4661C155.766 19.8304 156.2 20.0706 156.649 20.1868C157.424 19.4119 158.277 18.7609 159.214 18.2417C160.152 17.7225 161.16 17.3505 162.244 17.1413C162.26 17.087 162.268 16.994 162.268 16.8546V11.0502V11.0347Z" fill="#EDE6D6"/>
<path d="M179.487 18.6213C179.487 19.1715 179.394 19.652 179.2 20.0705C179.007 20.4812 178.821 20.8299 178.635 21.1166C178.449 21.4034 178.348 21.6436 178.348 21.8528C178.348 22.0388 178.464 22.2558 178.697 22.496C178.929 22.7363 179.193 22.9688 179.495 23.1935C179.797 23.4182 180.053 23.5965 180.254 23.736L179.844 24.3017C179.658 24.2009 179.379 24.0227 179.014 23.7747C178.65 23.5267 178.263 23.24 177.852 22.9223C177.441 22.6045 177.061 22.2791 176.713 21.9536C176.372 21.6281 176.132 21.3336 175.992 21.0779C175.837 21.1089 175.69 21.1399 175.55 21.1709C175.411 21.1941 175.271 21.2096 175.14 21.2096C174.744 21.2096 174.295 21.0856 173.783 20.8454C173.272 20.6052 172.784 20.2874 172.296 19.9C171.815 19.5125 171.412 19.094 171.094 18.6446C170.777 18.1951 170.614 17.7689 170.614 17.3504C170.614 17.0249 170.715 16.5754 170.924 15.9942C171.133 15.4208 171.234 14.7621 171.234 14.0181V11.0268C171.234 10.7556 171.257 10.4844 171.311 10.2286L169.242 7.98129L169.498 7.36133H178.689L180.394 9.2212C180.138 9.39169 179.913 9.65517 179.735 9.99615C179.557 10.3371 179.464 10.7478 179.464 11.2128V18.6213H179.487ZM177.038 11.0346C177.038 10.2441 177.247 9.63967 177.658 9.22895H174.636C174.38 9.39944 174.155 9.66292 173.977 10.0039C173.799 10.3449 173.706 10.7556 173.706 11.2206V15.3743C173.706 15.8935 173.644 16.3585 173.528 16.7847C173.411 17.2109 173.287 17.5751 173.163 17.8929C173.039 18.2106 172.985 18.4818 172.985 18.7066C172.985 19.1018 173.148 19.3033 173.473 19.3033C173.783 19.3033 174.155 19.2258 174.582 19.0708C175.008 18.9158 175.45 18.6988 175.899 18.4121C176.349 18.1253 176.728 17.8076 177.038 17.4434V11.0423V11.0346Z" fill="#EDE6D6"/>
<path d="M180.03 28.0676L179.309 27.5019C178.813 27.1067 178.309 26.82 177.813 26.6495C177.317 26.479 176.767 26.3937 176.163 26.3937C175.798 26.3937 175.395 26.4402 174.946 26.5255C174.496 26.6107 174 26.7425 173.45 26.913L172.21 24.7741C173.195 24.4331 174.07 24.2549 174.845 24.2549C175.62 24.2549 176.364 24.4951 177.139 24.9678C177.914 25.4406 178.805 26.0993 179.82 26.9439L180.541 27.5407L180.022 28.0831L180.03 28.0676Z" fill="#EDE6D6"/>
<path d="M189.763 9.22901C189.507 9.3995 189.282 9.66298 189.104 10.004C188.926 10.3449 188.833 10.7557 188.833 11.2206V14.4444C188.833 15.5991 188.655 16.529 188.29 17.242C187.926 17.9549 187.423 18.5129 186.772 18.9081C186.338 19.1483 185.958 19.2878 185.625 19.3188C185.291 19.3498 185.121 19.4196 185.121 19.5281C185.121 19.6985 185.253 19.9543 185.524 20.2875C185.787 20.6207 186.128 21.0005 186.547 21.4267C186.958 21.8451 187.392 22.2636 187.849 22.6821C188.306 23.0928 188.732 23.4648 189.127 23.7903L188.608 24.4102C188.143 24.0693 187.609 23.6353 186.996 23.1161C186.384 22.5968 185.772 22.0311 185.152 21.4112C184.532 20.7912 183.959 20.1635 183.424 19.5281C182.889 18.8926 182.463 18.2804 182.13 17.6914C181.804 17.1102 181.641 16.591 181.641 16.1415C181.641 15.5603 181.742 15.0799 181.951 14.7079C182.161 14.3359 182.409 14.0569 182.703 13.8709C182.998 13.685 183.269 13.5842 183.532 13.5842C183.796 13.5842 184.083 13.6927 184.4 13.9174C184.718 14.1422 185.012 14.3669 185.276 14.5916C185.539 14.8164 185.718 14.9249 185.803 14.9249C185.989 14.9249 186.136 14.7621 186.245 14.4444C186.345 14.1267 186.4 13.7005 186.4 13.1657V11.0269C186.4 10.2364 186.609 9.63199 187.02 9.22126H185.989C185.563 9.25226 185.144 9.43825 184.749 9.76373C184.354 10.0892 184.044 10.4147 183.819 10.7479H183.253L180.696 7.9891L180.952 7.36914H188.073L189.778 9.22901H189.763Z" fill="#EDE6D6"/>
<path d="M201.116 11.0345C201.116 10.2441 201.325 9.63964 201.736 9.22892H201.527C201.147 9.24442 200.845 9.33741 200.62 9.50015C200.395 9.66289 200.209 9.85663 200.054 10.0814H199.488L197.605 7.989L197.861 7.36905H202.79L204.495 9.22892C204.239 9.39941 204.014 9.64739 203.836 9.98062C203.658 10.3061 203.565 10.6936 203.565 11.143V18.1098C203.565 18.66 203.472 19.1405 203.278 19.559C203.084 19.9697 202.898 20.3184 202.712 20.6051C202.526 20.8919 202.425 21.1321 202.425 21.3413C202.425 21.5816 202.557 21.8606 202.828 22.1705C203.092 22.4805 203.402 22.775 203.743 23.0617C204.084 23.3485 204.371 23.5732 204.595 23.7437L204.185 24.3094C203.975 24.1699 203.658 23.9452 203.216 23.6352C202.774 23.3252 202.325 22.9687 201.852 22.5658C201.379 22.1628 200.969 21.7598 200.612 21.3646C200.256 20.9694 200.046 20.6284 199.977 20.3339C198.892 20.7989 197.954 21.4266 197.164 22.217C196.784 22.217 196.327 22.1163 195.784 21.9071C195.242 21.6978 194.676 21.4188 194.079 21.0701C193.483 20.7136 192.932 20.3184 192.413 19.8689C191.894 19.4195 191.476 18.939 191.15 18.4198C190.825 17.9006 190.662 17.3891 190.662 16.8699C190.662 16.1492 190.933 15.5912 191.476 15.1883C192.018 14.793 192.762 14.4598 193.707 14.1808L195.769 13.5841V10.0969C195.769 9.91087 195.722 9.74038 195.629 9.60864C195.536 9.46915 195.42 9.39941 195.28 9.39941C195.071 9.39941 194.808 9.46915 194.49 9.61639C194.172 9.76363 193.886 9.98062 193.638 10.2596C193.39 10.5386 193.266 10.9106 193.266 11.36C193.266 11.5848 193.312 11.8172 193.405 12.073C193.498 12.321 193.669 12.5922 193.909 12.8867L193.343 13.3284C192.762 12.8479 192.212 12.321 191.7 11.7397C191.189 11.1663 190.941 10.5463 190.941 9.89537C190.941 9.08943 191.212 8.43847 191.754 7.95801C192.297 7.47754 192.971 7.2373 193.785 7.2373C194.18 7.2373 194.63 7.36905 195.141 7.64028C195.645 7.90376 196.141 8.26024 196.613 8.70195C197.086 9.14367 197.474 9.60864 197.776 10.1124C198.078 10.6083 198.225 11.0965 198.225 11.5615V15.4827L195.776 16.3119C195.002 16.5677 194.389 16.8621 193.932 17.1799C193.475 17.4976 193.25 17.9316 193.25 18.4818C193.25 18.9468 193.436 19.3342 193.808 19.6442C194.18 19.9542 194.606 20.1634 195.087 20.2642C195.877 19.5745 196.799 18.9623 197.861 18.4198C198.923 17.8773 200 17.5054 201.1 17.2961C201.1 17.2109 201.1 17.1334 201.116 17.0636C201.124 16.9939 201.131 16.9241 201.131 16.8544V11.05L201.116 11.0345Z" fill="#EDE6D6"/>
<path d="M205.921 18.5206C205.921 17.9162 206.099 17.3117 206.463 16.6995C206.827 16.0873 207.323 15.5526 207.959 15.0876V11.0346C207.959 10.2442 208.168 9.63974 208.579 9.22901C208.145 9.22901 207.827 9.31426 207.61 9.48475C207.393 9.65523 207.222 9.85672 207.083 10.0815H206.517L204.634 7.9891L204.89 7.36914H216.119L217.824 9.22901C217.568 9.3995 217.343 9.66298 217.165 10.004C216.987 10.3449 216.894 10.7557 216.894 11.2206V18.6291C216.894 19.1793 216.801 19.6598 216.607 20.0783C216.413 20.489 216.227 20.8377 216.041 21.1244C215.855 21.4112 215.755 21.6514 215.755 21.8607C215.755 22.0466 215.871 22.2636 216.103 22.5039C216.336 22.7441 216.599 22.9766 216.902 23.2013C217.204 23.426 217.459 23.6043 217.661 23.7438L217.25 24.3095C217.041 24.1855 216.723 23.984 216.297 23.6895C215.871 23.395 215.421 23.0696 214.972 22.6976C214.515 22.3256 214.127 21.9614 213.794 21.5972C213.461 21.2329 213.306 20.9385 213.306 20.6905C213.306 20.4347 213.399 20.1558 213.592 19.8535C213.778 19.5513 213.972 19.2026 214.158 18.7919C214.344 18.3889 214.445 17.9084 214.445 17.3582V15.7618C214.344 15.7618 214.236 15.7618 214.135 15.7463C214.034 15.7386 213.941 15.7308 213.848 15.7308C213.298 15.7308 212.725 15.7851 212.136 15.9013C211.539 16.0175 210.973 16.2423 210.423 16.5833V20.8687C210.423 21.2097 210.322 21.5274 210.113 21.8142C209.904 22.1009 209.633 22.2404 209.284 22.2404C209.028 22.2404 208.71 22.1319 208.338 21.9071C207.966 21.6824 207.594 21.3879 207.23 21.0315C206.866 20.675 206.548 20.272 206.3 19.8303C206.052 19.3886 205.928 18.9546 205.928 18.5284L205.921 18.5206ZM214.437 11.0346C214.437 10.2442 214.646 9.63974 215.057 9.22901H211.337C211.082 9.3995 210.857 9.66298 210.679 10.004C210.5 10.3449 210.407 10.7557 210.407 11.2206V14.0104C210.648 13.9562 210.896 13.9174 211.144 13.8787C211.392 13.8477 211.647 13.8244 211.903 13.8244C212.368 13.8244 212.81 13.8554 213.221 13.9174C213.631 13.9794 214.034 14.0647 214.437 14.1887V11.0424V11.0346Z" fill="#EDE6D6"/>
<path d="M222.512 18.6213C222.512 19.1715 222.419 19.652 222.225 20.0705C222.039 20.4812 221.846 20.8299 221.66 21.1166C221.474 21.4034 221.373 21.6436 221.373 21.8528C221.373 22.0388 221.489 22.2558 221.722 22.496C221.954 22.7363 222.218 22.9688 222.52 23.1935C222.822 23.4182 223.078 23.5965 223.279 23.736L222.869 24.3017C222.659 24.1777 222.342 23.9762 221.915 23.6817C221.489 23.3872 221.04 23.0618 220.59 22.6898C220.133 22.3178 219.746 21.9536 219.412 21.5894C219.087 21.2251 218.924 20.9307 218.924 20.6827C218.924 20.4269 219.017 20.148 219.211 19.8457C219.397 19.5435 219.591 19.1948 219.777 18.784C219.963 18.3811 220.063 17.9006 220.063 17.3504V11.0268C220.063 10.2364 220.272 9.63192 220.683 9.2212H215.576L215.011 7.36133H221.745L223.45 9.2212C223.194 9.39169 222.969 9.65517 222.791 9.99615C222.613 10.3371 222.52 10.7478 222.52 11.2128V18.6213H222.512Z" fill="#EDE6D6"/>
<path d="M240.119 9.22879C239.863 9.39928 239.638 9.66276 239.46 10.0037C239.282 10.3447 239.189 10.7554 239.189 11.2204V18.6289C239.189 19.1791 239.096 19.6596 238.902 20.078C238.708 20.4888 238.522 20.8375 238.336 21.1242C238.151 21.411 238.05 21.6512 238.05 21.8604C238.05 22.0464 238.166 22.2634 238.399 22.5036C238.631 22.7439 238.894 22.9764 239.197 23.2011C239.499 23.4258 239.755 23.6041 239.956 23.7435L239.545 24.3093C239.336 24.1853 239.018 23.9838 238.592 23.6893C238.166 23.3948 237.717 23.0693 237.267 22.6974C236.81 22.3254 236.422 21.9612 236.089 21.5969C235.756 21.2327 235.601 20.9382 235.601 20.6903C235.601 20.4345 235.694 20.1555 235.888 19.8533C236.074 19.5511 236.267 19.2024 236.453 18.7916C236.639 18.3887 236.74 17.9082 236.74 17.358V16.0173C236.639 16.0018 236.531 15.9941 236.43 15.9941H236.143C235.593 15.9941 235.02 16.0483 234.431 16.1646C233.834 16.2808 233.268 16.5055 232.718 16.8465V20.8762C232.718 21.2172 232.617 21.5349 232.408 21.8217C232.199 22.1084 231.928 22.2479 231.579 22.2479C231.323 22.2479 231.005 22.1394 230.634 21.9147C230.262 21.6899 229.89 21.3955 229.525 21.039C229.161 20.6825 228.843 20.2795 228.595 19.8378C228.347 19.3961 228.223 18.9621 228.223 18.5359C228.223 17.9702 228.402 17.3967 228.766 16.8233C229.13 16.2498 229.626 15.7461 230.262 15.3121V12.3208C229.921 12.0806 229.541 11.7784 229.138 11.4141C228.735 11.0499 228.394 10.6857 228.115 10.3137C227.836 9.94174 227.704 9.63951 227.704 9.39928C227.704 8.98856 227.859 8.57783 228.169 8.17486C228.479 7.77189 228.828 7.43091 229.231 7.15193C229.626 6.8807 229.944 6.74121 230.184 6.74121C230.339 6.74121 230.556 6.8342 230.827 7.02794C231.098 7.21393 231.385 7.44641 231.68 7.72539C231.974 8.00437 232.214 8.26786 232.416 8.52359C232.61 8.77932 232.71 8.97306 232.71 9.0893V14.2737C232.951 14.2194 233.199 14.1807 233.447 14.142C233.695 14.111 233.95 14.0877 234.206 14.0877C234.671 14.0877 235.113 14.1187 235.523 14.1807C235.934 14.2427 236.337 14.3279 236.74 14.4519V11.0422C236.74 10.2517 236.949 9.64726 237.36 9.23654H236.562C236.283 9.25204 236.05 9.32178 235.849 9.43028C235.647 9.53877 235.5 9.67051 235.399 9.80225H234.911L233.183 7.89588L233.392 7.37667H238.43L240.134 9.23654L240.119 9.22879Z" fill="#EDE6D6"/>
<path d="M244.815 18.6213C244.815 19.1715 244.722 19.652 244.528 20.0705C244.342 20.4812 244.149 20.8299 243.963 21.1166C243.777 21.4034 243.676 21.6436 243.676 21.8528C243.676 22.0388 243.792 22.2558 244.025 22.496C244.257 22.7363 244.521 22.9688 244.823 23.1935C245.125 23.4182 245.381 23.5965 245.582 23.736L245.172 24.3017C244.962 24.1777 244.645 23.9762 244.218 23.6817C243.792 23.3872 243.343 23.0618 242.893 22.6898C242.436 22.3178 242.049 21.9536 241.715 21.5894C241.39 21.2251 241.227 20.9307 241.227 20.6827C241.227 20.4269 241.32 20.148 241.514 19.8457C241.7 19.5435 241.894 19.1948 242.08 18.784C242.266 18.3811 242.366 17.9006 242.366 17.3504V11.0268C242.366 10.2364 242.575 9.63192 242.986 9.2212H237.879L237.314 7.36133H244.048L245.753 9.2212C245.497 9.39169 245.272 9.65517 245.094 9.99615C244.916 10.3371 244.823 10.7478 244.823 11.2128V18.6213H244.815Z" fill="#EDE6D6"/>
<path d="M254.572 11.0347C254.572 10.2443 254.781 9.6398 255.192 9.22908H251.348C250.922 9.24458 250.495 9.41506 250.085 9.74829C249.674 10.0815 249.356 10.407 249.132 10.7557H248.566L246.009 7.99691L246.264 7.37695H256.253L257.958 9.23683C257.702 9.40731 257.478 9.6708 257.3 10.0118C257.121 10.3528 257.028 10.7635 257.028 11.2284V18.6369C257.028 19.1871 256.935 19.6676 256.742 20.0861C256.556 20.4968 256.362 20.8455 256.176 21.1323C255.982 21.419 255.889 21.6592 255.889 21.8685C255.889 22.0545 256.005 22.2714 256.238 22.5117C256.47 22.7519 256.734 22.9844 257.036 23.2091C257.338 23.4339 257.594 23.6121 257.795 23.7516L257.385 24.3173C257.176 24.1778 256.85 23.9531 256.393 23.6431C255.936 23.3331 255.471 22.9844 254.982 22.5969C254.502 22.2094 254.114 21.8452 253.82 21.4965C253.58 21.5817 253.332 21.6592 253.068 21.7135C252.813 21.7755 252.557 21.8065 252.317 21.8065C252.076 21.8065 251.735 21.7367 251.294 21.5972C250.852 21.4577 250.387 21.2563 249.883 20.9928C249.387 20.7293 248.907 20.4038 248.45 20.0241C247.992 19.6444 247.62 19.2181 247.341 18.7454C247.055 18.2727 246.915 17.7612 246.915 17.211C246.915 16.1416 247.117 15.2504 247.52 14.5297C247.923 13.809 248.457 13.2588 249.124 12.8791C249.783 12.4994 250.503 12.3134 251.278 12.3134C251.952 12.3134 252.572 12.3676 253.138 12.4684C253.704 12.5691 254.176 12.6931 254.556 12.8326V11.0502L254.572 11.0347ZM250.317 19.8923C250.743 19.8923 251.232 19.7916 251.774 19.5824C252.317 19.3731 252.844 19.0864 253.347 18.7144C253.851 18.3425 254.262 17.924 254.572 17.459V14.3127C254.316 14.2817 254.076 14.2507 253.859 14.2352C253.642 14.2197 253.44 14.212 253.254 14.212C252.603 14.212 251.976 14.3902 251.387 14.7544C250.79 15.1187 250.317 15.6379 249.953 16.3276C249.589 17.0173 249.411 17.862 249.411 18.8539C249.411 19.1329 249.48 19.3731 249.628 19.5746C249.775 19.7761 250 19.8846 250.309 19.8846L250.317 19.8923Z" fill="#EDE6D6"/>
<path d="M261.569 15.2657L259.632 13.2275V12.9408C259.927 12.5998 260.244 12.2666 260.601 11.9566C260.957 11.6467 261.337 11.3754 261.748 11.1274L263.685 13.1113L263.662 13.4445C263.282 13.7235 262.918 14.018 262.577 14.3357C262.236 14.6535 261.895 14.9634 261.569 15.2502V15.2657ZM261.569 23.3174L259.632 21.2792V20.9925C259.927 20.6515 260.244 20.3183 260.601 20.0083C260.957 19.6984 261.337 19.4271 261.748 19.1791L263.685 21.163L263.662 21.4962C263.282 21.7752 262.918 22.0697 262.577 22.3874C262.236 22.7051 261.895 23.0151 261.569 23.3019V23.3174Z" fill="#EDE6D6"/>
</g>
<defs>
<clipPath id="clip0_283_91">
<rect width="263.49" height="27.5649" fill="white" transform="translate(0.195312 0.50293)"/>
</clipPath>
</defs>
</svg>
