<svg width="242" height="26" viewBox="0 0 242 26" fill="none" xmlns="http://www.w3.org/2000/svg">
<g clip-path="url(#clip0_283_173)">
<path d="M1.29798 16.2757C1.29798 15.66 1.47675 15.0444 1.84205 14.4208C2.20735 13.7973 2.70478 13.2526 3.34211 12.779V8.65094C3.34211 7.84584 3.55197 7.23017 3.9639 6.81183C3.52865 6.81183 3.20998 6.89866 2.99236 7.07231C2.77473 7.24596 2.60374 7.45118 2.46384 7.68008H1.89645L0 5.54893L0.256488 4.91748H11.5186L13.2285 6.81183C12.9721 6.98548 12.7467 7.24596 12.5679 7.60115C12.3891 7.95634 12.2959 8.36678 12.2959 8.84037V16.3862C12.2959 16.9466 12.2026 17.436 12.0083 17.8622C11.814 18.2806 11.6274 18.6358 11.4409 18.9278C11.2544 19.2198 11.1533 19.4645 11.1533 19.6777C11.1533 19.8671 11.2699 20.0881 11.5031 20.3328C11.7363 20.5775 12.0005 20.8143 12.3036 21.0432C12.6068 21.2721 12.8632 21.4536 13.0653 21.5957L12.6534 22.1719C12.4435 22.0456 12.1249 21.8404 11.6974 21.5404C11.2699 21.2405 10.8191 20.909 10.3683 20.5301C9.90975 20.1512 9.52113 19.7803 9.18692 19.4093C8.86048 19.0383 8.69726 18.7384 8.69726 18.4858C8.69726 18.2253 8.79053 17.9412 8.98484 17.6333C9.17138 17.3255 9.36569 16.9703 9.55222 16.552C9.73876 16.1336 9.8398 15.6522 9.8398 15.0917V13.4579C9.73876 13.4579 9.62995 13.4579 9.52891 13.4421C9.42787 13.4342 9.3346 13.4263 9.24133 13.4263C8.68949 13.4263 8.11434 13.4815 7.52364 13.5999C6.92517 13.7104 6.35779 13.9472 5.80595 14.2945V18.6594C5.80595 19.0146 5.70491 19.3304 5.49505 19.6224C5.2852 19.9144 5.01317 20.0565 4.66341 20.0565C4.40692 20.0565 4.08826 19.946 3.71519 19.7171C3.34211 19.4882 2.96904 19.1883 2.60374 18.8252C2.23067 18.4542 1.91977 18.0517 1.67106 17.6018C1.42234 17.1518 1.29798 16.7098 1.29798 16.2757ZM9.8398 8.65094C9.8398 7.84584 10.0497 7.23017 10.4616 6.81183H6.73086C6.47437 6.98548 6.24897 7.24596 6.07021 7.60115C5.89144 7.95634 5.79818 8.36678 5.79818 8.84037V11.6819C6.03912 11.6266 6.28783 11.5872 6.53655 11.5477C6.78526 11.5161 7.04175 11.4925 7.29824 11.4925C7.76458 11.4925 8.20761 11.524 8.61954 11.5872C9.03148 11.6503 9.43564 11.745 9.8398 11.8634V8.65883V8.65094Z" fill="#B2462D"/>
<path d="M17.9386 16.3782C17.9386 16.9386 17.8453 17.4279 17.651 17.8542C17.4567 18.2804 17.2702 18.6277 17.0837 18.9197C16.8971 19.2118 16.7961 19.4565 16.7961 19.6696C16.7961 19.859 16.9127 20.08 17.1458 20.3247C17.379 20.5694 17.6433 20.8062 17.9464 21.0351C18.2495 21.264 18.506 21.4456 18.7081 21.5876L18.2961 22.1638C18.0863 22.0375 17.7676 21.8323 17.3401 21.5324C16.9127 21.2324 16.4619 20.9009 16.0111 20.5221C15.5525 20.1432 15.1639 19.7722 14.8297 19.4012C14.5032 19.0303 14.34 18.7303 14.34 18.4777C14.34 18.2173 14.4333 17.9331 14.6276 17.6253C14.8141 17.3174 15.0084 16.9622 15.195 16.5439C15.3815 16.1256 15.4826 15.6441 15.4826 15.0837V8.64288C15.4826 7.83778 15.6924 7.22211 16.1043 6.80378H10.9824L10.415 4.90942H17.1692L18.8791 6.80378C18.6226 6.97743 18.3972 7.2379 18.2184 7.59309C18.0397 7.94828 17.9464 8.35873 17.9464 8.83231V16.3782H17.9386Z" fill="#B2462D"/>
<path d="M24.7472 8.65085C24.7472 7.84575 24.957 7.23009 25.3689 6.81175H24.5917C24.1409 6.81175 23.7057 6.9854 23.2704 7.32481C22.8429 7.66421 22.5009 8.01151 22.26 8.3667H21.6926L19.1277 5.55674L19.3842 4.92529H32.0454L33.7553 6.81965C33.4988 6.9933 33.2734 7.26166 33.0947 7.62475C32.9159 7.98783 32.8226 8.44563 32.8226 9.00605V15.8652C32.8226 16.4256 32.7294 16.915 32.5351 17.3412C32.3407 17.7674 32.1542 18.1147 31.9677 18.4068C31.7734 18.6988 31.6801 18.9435 31.6801 19.1566C31.6801 19.4013 31.8122 19.6855 32.0843 20.0012C32.3563 20.3169 32.6594 20.6169 33.0014 20.9089C33.3434 21.2009 33.631 21.4298 33.8564 21.6035L33.4444 22.1797C33.219 22.0376 32.8848 21.8008 32.434 21.4693C31.9832 21.1378 31.5169 20.7589 31.0194 20.3248C30.5298 19.8986 30.1101 19.4723 29.7603 19.0619C29.4106 18.6515 29.2318 18.3042 29.2163 18.02C28.7888 18.2331 28.3691 18.4936 27.9571 18.8093C27.553 19.1251 27.1644 19.5118 26.8068 19.9696C26.4415 19.9696 25.9907 19.8591 25.4311 19.6381C24.8793 19.4171 24.3041 19.1251 23.6979 18.7462C23.0916 18.3673 22.532 17.9332 22.0035 17.4438C21.475 16.9544 21.0475 16.4414 20.7055 15.9046C20.3713 15.3679 20.2003 14.8312 20.2003 14.2866C20.2003 13.5683 20.4102 12.9684 20.8221 12.5027C21.2341 12.037 21.8869 11.6976 22.7652 11.5003L24.7316 11.0504V8.65875L24.7472 8.65085ZM30.3666 8.65085C30.3666 7.84575 30.5764 7.23009 30.9884 6.81175H28.1437C27.8872 6.9854 27.6618 7.24588 27.483 7.60107C27.3043 7.95626 27.211 8.3667 27.211 8.84029V12.9684L24.856 13.6551C24.1487 13.8682 23.6279 14.1524 23.3015 14.5233C22.9751 14.8943 22.8118 15.36 22.8118 15.9204C22.8118 16.4256 23.0217 16.8676 23.4336 17.2386C23.8456 17.6096 24.2808 17.8543 24.7316 17.9727C25.5088 17.1833 26.3638 16.5203 27.3043 15.9836C28.2447 15.4468 29.2551 15.0759 30.3433 14.8628C30.3588 14.8075 30.3666 14.7128 30.3666 14.5707V8.65085Z" fill="#B2462D"/>
<path d="M38.4732 16.3782C38.4732 16.9386 38.3799 17.4279 38.1856 17.8542C37.9913 18.2804 37.8047 18.6277 37.6182 18.9197C37.4317 19.2118 37.3306 19.4565 37.3306 19.6696C37.3306 19.859 37.4472 20.08 37.6804 20.3247C37.9136 20.5694 38.1778 20.8062 38.4809 21.0351C38.7841 21.264 39.0405 21.4456 39.2426 21.5876L38.8307 22.1638C38.6208 22.0375 38.3022 21.8323 37.8747 21.5324C37.4472 21.2324 36.9964 20.9009 36.5456 20.5221C36.0871 20.1432 35.6984 19.7722 35.3642 19.4012C35.0378 19.0303 34.8746 18.7303 34.8746 18.4777C34.8746 18.2173 34.9678 17.9331 35.1621 17.6253C35.3487 17.3174 35.543 16.9622 35.7295 16.5439C35.9161 16.1256 36.0171 15.6441 36.0171 15.0837V8.64288C36.0171 7.83778 36.227 7.22211 36.6389 6.80378H31.5169L30.9495 4.90942H37.7037L39.4136 6.80378C39.1571 6.97743 38.9317 7.2379 38.753 7.59309C38.5742 7.94828 38.4809 8.35873 38.4809 8.83231V16.3782H38.4732Z" fill="#B2462D"/>
<path d="M41.2634 24.7685L40.5406 23.845C40.937 23.0399 41.2323 22.148 41.4344 21.1614C41.6365 20.1826 41.7298 19.0381 41.7298 17.7436L42.1184 17.5305L44.3957 18.896C44.3957 19.9695 44.1547 20.9956 43.6728 21.9822C43.191 22.9689 42.5148 23.9003 41.652 24.7527H41.2634V24.7685Z" fill="#B2462D"/>
<path d="M53.2017 8.65085C53.2017 7.84575 53.4116 7.23009 53.8235 6.81175H53.0463C52.5955 6.81175 52.1603 6.9854 51.725 7.32481C51.2975 7.66421 50.9555 8.01151 50.7146 8.3667H50.1472L47.5823 5.55674L47.8388 4.92529H60.5L62.2099 6.81965C61.9534 6.9933 61.728 7.26166 61.5493 7.62475C61.3705 7.98783 61.2772 8.44563 61.2772 9.00605V15.8652C61.2772 16.4256 61.184 16.915 60.9896 17.3412C60.7953 17.7674 60.6088 18.1147 60.4223 18.4068C60.228 18.6988 60.1347 18.9435 60.1347 19.1566C60.1347 19.4013 60.2668 19.6855 60.5388 20.0012C60.8109 20.3169 61.114 20.6169 61.456 20.9089C61.798 21.2009 62.0855 21.4298 62.3109 21.6035L61.899 22.1797C61.6736 22.0376 61.3394 21.8008 60.8886 21.4693C60.4378 21.1378 59.9715 20.7589 59.474 20.3248C58.9844 19.8986 58.5647 19.4723 58.2149 19.0619C57.8652 18.6515 57.6864 18.3042 57.6708 18.02C57.2434 18.2331 56.8237 18.4936 56.4117 18.8093C56.0076 19.1251 55.6189 19.5118 55.2614 19.9696C54.8961 19.9696 54.4453 19.8591 53.8857 19.6381C53.3339 19.4171 52.7587 19.1251 52.1525 18.7462C51.5462 18.3673 50.9866 17.9332 50.4581 17.4438C49.9296 16.9544 49.5021 16.4414 49.1601 15.9046C48.8259 15.3679 48.6549 14.8312 48.6549 14.2866C48.6549 13.5683 48.8648 12.9684 49.2767 12.5027C49.6886 12.037 50.3415 11.6976 51.2198 11.5003L53.1862 11.0504V8.65875L53.2017 8.65085ZM58.8212 8.65085C58.8212 7.84575 59.031 7.23009 59.443 6.81175H56.5983C56.3418 6.9854 56.1164 7.24588 55.9376 7.60107C55.7589 7.95626 55.6656 8.3667 55.6656 8.84029V12.9684L53.3106 13.6551C52.6033 13.8682 52.0825 14.1524 51.7561 14.5233C51.4296 14.8943 51.2664 15.36 51.2664 15.9204C51.2664 16.4256 51.4763 16.8676 51.8882 17.2386C52.3002 17.6096 52.7354 17.8543 53.1862 17.9727C53.9634 17.1833 54.8184 16.5203 55.7589 15.9836C56.6993 15.4468 57.7097 15.0759 58.7978 14.8628C58.8134 14.8075 58.8212 14.7128 58.8212 14.5707V8.65085Z" fill="#EDE6D6"/>
<path d="M73.3943 16.3783C73.3943 16.9387 73.301 17.4281 73.1067 17.8543C72.9124 18.2727 72.7259 18.6279 72.5394 18.9199C72.3528 19.212 72.2518 19.4566 72.2518 19.6698C72.2518 19.8592 72.3684 20.0802 72.6015 20.3249C72.8347 20.5696 73.099 20.8064 73.4021 21.0353C73.7052 21.2642 73.9617 21.4457 74.1638 21.5878L73.7518 22.164C73.542 22.0377 73.2233 21.8325 72.7959 21.5325C72.3684 21.2326 71.9176 20.9011 71.4668 20.5222C71.0082 20.1433 70.6196 19.7724 70.2854 19.4014C69.9589 19.0304 69.7957 18.7305 69.7957 18.4779C69.7957 18.2174 69.889 17.9333 70.0833 17.6254C70.2698 17.3176 70.4641 16.9624 70.6507 16.5441C70.8372 16.1257 70.9383 15.6443 70.9383 15.0838V12.2186C70.7673 12.2028 70.5807 12.1871 70.3942 12.1792C70.2077 12.1713 70.0133 12.1634 69.8268 12.1634C69.1739 12.1634 68.5521 12.4081 67.9614 12.8974C67.3707 13.3868 66.8966 14.0262 66.5236 14.8155C66.1505 15.6048 65.964 16.4573 65.964 17.365C65.964 18.0122 66.166 18.6673 66.5702 19.3382C66.9744 20.0013 67.5806 20.6643 68.3967 21.3115L67.8759 21.8877C66.5158 20.909 65.4277 19.8908 64.6116 18.841C63.8032 17.7912 63.3913 16.8203 63.3913 15.9205C63.3913 14.8549 63.6167 13.8841 64.0675 13.0158C64.5183 12.1476 65.1012 11.453 65.824 10.9399C66.5469 10.4269 67.3086 10.1664 68.1013 10.1664C68.6221 10.1664 69.1118 10.198 69.5781 10.269C70.0444 10.3401 70.4952 10.4427 70.9227 10.5848V8.64304C70.9227 7.83794 71.1326 7.22228 71.5445 6.80394H67.9226C67.4718 6.80394 67.0365 6.97759 66.6013 7.317C66.1738 7.6564 65.8318 8.0037 65.5909 8.35889H65.0235L62.4586 5.54893L62.7151 4.91748H72.6015L74.3115 6.81183C74.055 6.98548 73.8296 7.24596 73.6508 7.60115C73.472 7.95634 73.3788 8.36678 73.3788 8.84037V16.3862L73.3943 16.3783Z" fill="#EDE6D6"/>
<path d="M73.9384 26.0001L73.2156 25.4239C72.7182 25.0214 72.213 24.7293 71.7155 24.5557C71.2181 24.382 70.6663 24.2952 70.06 24.2952C69.6947 24.2952 69.2906 24.3347 68.8398 24.4294C68.389 24.5162 67.8915 24.6504 67.3397 24.824L66.0961 22.6455C67.0832 22.2982 67.9615 22.1167 68.7387 22.1167C69.516 22.1167 70.2621 22.3535 71.0393 22.8429C71.8166 23.3243 72.7104 23.9953 73.7286 24.8556L74.4514 25.4634L73.9307 26.0159L73.9384 26.0001Z" fill="#EDE6D6"/>
<path d="M83.6927 6.81183C83.4362 6.98548 83.2108 7.24596 83.0321 7.60115C82.8533 7.94845 82.76 8.36678 82.76 8.84037V12.1239C82.76 13.3 82.5813 14.2472 82.216 14.9733C81.8507 15.6995 81.3455 16.2678 80.6926 16.6704C80.2573 16.9151 79.8765 17.0571 79.5423 17.0887C79.2081 17.1203 79.0371 17.1913 79.0371 17.3018C79.0371 17.4755 79.1692 17.7359 79.4412 18.0753C79.7055 18.4147 80.0475 18.8015 80.4672 19.2356C80.8791 19.6619 81.3144 20.0881 81.7729 20.5143C82.2315 20.9327 82.659 21.3115 83.0554 21.643L82.5346 22.2745C82.0683 21.9272 81.532 21.4852 80.918 20.9563C80.304 20.4275 79.69 19.8513 79.0682 19.2199C78.4464 18.5884 77.8712 17.9491 77.3349 17.3018C76.7986 16.6546 76.3712 16.031 76.0369 15.4311C75.7027 14.8313 75.5473 14.3103 75.5473 13.8525C75.5473 13.2605 75.6483 12.7712 75.8582 12.3923C76.068 12.0134 76.3167 11.7293 76.6121 11.5398C76.9074 11.3504 77.1795 11.2478 77.4437 11.2478C77.708 11.2478 77.9956 11.3583 78.3142 11.5872C78.6329 11.8161 78.9283 12.045 79.1925 12.2739C79.4568 12.5028 79.6355 12.6133 79.721 12.6133C79.9076 12.6133 80.0552 12.4475 80.1641 12.1239C80.2651 11.8003 80.3195 11.3662 80.3195 10.8215V8.64304C80.3195 7.83794 80.5294 7.22228 80.9413 6.80394H79.9076C79.4801 6.83551 79.0604 7.02495 78.664 7.35646C78.2676 7.68797 77.9567 8.01948 77.7313 8.35889H77.1639L74.5991 5.54893L74.8555 4.91748H81.9983L83.7083 6.81183H83.6927Z" fill="#EDE6D6"/>
<path d="M95.6854 8.65085C95.6854 7.84575 95.8953 7.23009 96.3072 6.81175H92.4521C92.0247 6.82754 91.5972 7.00119 91.1852 7.34059C90.7733 7.68 90.4546 8.01151 90.2292 8.3667H89.6619L87.097 5.55674L87.3535 4.92529H97.372L99.082 6.81965C98.8255 6.9933 98.6001 7.25377 98.4213 7.60896C98.2425 7.95626 98.1493 8.37459 98.1493 8.84818V16.394C98.1493 16.9544 98.056 17.4438 97.8617 17.87C97.6674 18.2963 97.4809 18.6436 97.2943 18.9356C97.1 19.2277 97.0067 19.4723 97.0067 19.6855C97.0067 19.8749 97.1233 20.0959 97.3565 20.3406C97.5897 20.5853 97.8539 20.8221 98.157 21.051C98.4602 21.2799 98.7167 21.4614 98.9187 21.6035L98.5068 22.1797C98.2969 22.0376 97.9705 21.8087 97.5119 21.493C97.0534 21.1773 96.587 20.8221 96.0974 20.4274C95.6155 20.0328 95.2269 19.6618 94.9315 19.3066C94.6906 19.3934 94.4419 19.4723 94.1776 19.5276C93.9211 19.5907 93.6646 19.6223 93.4237 19.6223C93.1827 19.6223 92.8408 19.5513 92.3977 19.4092C91.9547 19.2671 91.4884 19.0619 90.9832 18.7935C90.4857 18.5252 90.0038 18.1937 89.5453 17.8069C89.0867 17.4201 88.7136 16.986 88.4338 16.5045C88.1463 16.023 88.0064 15.5021 88.0064 14.9417C88.0064 13.8524 88.2084 12.9447 88.6126 12.2107C89.0168 11.4766 89.5531 10.9162 90.2215 10.5294C90.8899 10.1427 91.605 9.95322 92.3822 9.95322C93.0584 9.95322 93.6802 10.0085 94.2476 10.1111C94.8149 10.2137 95.289 10.34 95.6699 10.4821V8.66664L95.6854 8.65085ZM91.4106 17.6648C91.8381 17.6648 92.3278 17.5622 92.8718 17.3491C93.4159 17.136 93.9444 16.8439 94.4496 16.4651C94.9548 16.0862 95.3668 15.66 95.6777 15.1864V11.9818C95.4212 11.9502 95.1802 11.9186 94.9626 11.9028C94.745 11.887 94.5429 11.8791 94.3564 11.8791C93.7035 11.8791 93.0739 12.0607 92.4832 12.4317C91.8848 12.8026 91.4106 13.3315 91.0453 14.034C90.68 14.7365 90.5013 15.5968 90.5013 16.6071C90.5013 16.8913 90.5712 17.136 90.7189 17.3412C90.8666 17.5464 91.092 17.6569 91.4029 17.6569L91.4106 17.6648Z" fill="#EDE6D6"/>
<path d="M103.784 16.3782C103.784 16.9386 103.691 17.4279 103.497 17.8542C103.302 18.2804 103.116 18.6277 102.929 18.9197C102.743 19.2118 102.642 19.4565 102.642 19.6696C102.642 19.859 102.758 20.08 102.991 20.3247C103.225 20.5694 103.489 20.8062 103.792 21.0351C104.095 21.264 104.352 21.4456 104.554 21.5876L104.142 22.1638C103.932 22.0375 103.613 21.8323 103.186 21.5324C102.758 21.2324 102.308 20.9009 101.857 20.5221C101.398 20.1432 101.01 19.7722 100.675 19.4012C100.349 19.0303 100.186 18.7303 100.186 18.4777C100.186 18.2173 100.279 17.9331 100.473 17.6253C100.66 17.3174 100.854 16.9622 101.041 16.5439C101.227 16.1256 101.328 15.6441 101.328 15.0837V8.64288C101.328 7.83778 101.538 7.22211 101.95 6.80378H96.828L96.2606 4.90942H103.015L104.725 6.80378C104.468 6.97743 104.243 7.2379 104.064 7.59309C103.885 7.94828 103.792 8.35873 103.792 8.83231V16.3782H103.784Z" fill="#EDE6D6"/>
<path d="M119.29 16.3782C119.29 16.9386 119.197 17.428 119.002 17.8543C118.808 18.2726 118.622 18.6278 118.435 18.9198C118.249 19.2119 118.148 19.4566 118.148 19.6697C118.148 19.8591 118.264 20.0801 118.497 20.3248C118.73 20.5695 118.995 20.8063 119.298 21.0352C119.601 21.2641 119.857 21.4456 120.06 21.5877L119.648 22.1639C119.438 22.0376 119.119 21.8324 118.692 21.5325C118.264 21.2325 117.813 20.901 117.363 20.5221C116.904 20.1433 116.515 19.7723 116.181 19.4013C115.855 19.0303 115.691 18.7304 115.691 18.4778C115.691 18.2173 115.785 17.9332 115.979 17.6254C116.166 17.3175 116.36 16.9623 116.546 16.544C116.733 16.1257 116.834 15.6442 116.834 15.0838V13.7182C116.764 13.7025 116.694 13.6946 116.624 13.6946H116.414C115.963 13.6946 115.466 13.813 114.914 14.0498C114.362 14.2866 113.811 14.5944 113.266 14.9733C112.722 15.3521 112.225 15.7468 111.774 16.1572C111.323 16.5677 110.966 16.9465 110.686 17.3017C110.406 17.649 110.274 17.9253 110.274 18.1147C110.274 18.3594 110.43 18.6751 110.74 19.0619C111.051 19.4487 111.448 19.867 111.93 20.309C112.412 20.751 112.917 21.2009 113.43 21.6351L112.909 22.2665C112.443 21.9192 111.906 21.4772 111.292 20.9484C110.678 20.4195 110.064 19.8433 109.442 19.2119C108.821 18.5804 108.246 17.9411 107.709 17.2938C107.173 16.6466 106.745 16.023 106.411 15.4232C106.077 14.8233 105.922 14.3023 105.922 13.8445C105.922 13.2526 106.023 12.7711 106.233 12.408C106.442 12.0449 106.691 11.7844 106.986 11.6187C107.282 11.4529 107.554 11.3661 107.818 11.3661C108.082 11.3661 108.37 11.4845 108.689 11.7055C109.007 11.9344 109.303 12.1633 109.567 12.3922C109.831 12.6211 110.01 12.7316 110.095 12.7316C110.282 12.7316 110.43 12.5658 110.538 12.2422C110.639 11.9186 110.694 11.4845 110.694 10.9399V8.62717C110.694 7.82207 110.904 7.20641 111.316 6.78807H110.437C109.987 6.78807 109.551 6.96172 109.116 7.30113C108.689 7.64053 108.347 7.98783 108.106 8.34302H107.538L104.973 5.53306L105.23 4.90161H118.513L120.223 6.79596C119.966 6.96961 119.741 7.22219 119.562 7.54581C119.383 7.86943 119.29 8.2562 119.29 8.714V16.3624V16.3782ZM116.834 8.65085C116.834 7.84575 117.044 7.23009 117.456 6.81175H114.09C113.834 6.9854 113.608 7.24587 113.43 7.60106C113.251 7.94836 113.158 8.3667 113.158 8.84029V12.258C113.904 11.9265 114.588 11.7607 115.233 11.7607C115.489 11.7607 115.754 11.7765 116.026 11.816C116.29 11.8476 116.562 11.9028 116.842 11.9739V8.65875L116.834 8.65085Z" fill="#EDE6D6"/>
<path d="M119.834 26.0001L119.111 25.4239C118.614 25.0214 118.109 24.7293 117.611 24.5557C117.114 24.382 116.562 24.2952 115.956 24.2952C115.59 24.2952 115.186 24.3347 114.735 24.4294C114.285 24.5162 113.787 24.6504 113.235 24.824L111.992 22.6455C112.979 22.2982 113.857 22.1167 114.634 22.1167C115.412 22.1167 116.158 22.3535 116.935 22.8429C117.712 23.3243 118.606 23.9953 119.624 24.8556L120.347 25.4634L119.826 26.0159L119.834 26.0001Z" fill="#EDE6D6"/>
<path d="M131.407 16.3783C131.407 16.9387 131.314 17.4281 131.12 17.8543C130.925 18.2727 130.739 18.6279 130.552 18.9199C130.366 19.212 130.265 19.4566 130.265 19.6698C130.265 19.8592 130.381 20.0802 130.614 20.3249C130.848 20.5696 131.112 20.8064 131.415 21.0353C131.718 21.2642 131.975 21.4457 132.177 21.5878L131.765 22.164C131.555 22.0377 131.236 21.8325 130.809 21.5325C130.381 21.2326 129.93 20.9011 129.48 20.5222C129.021 20.1433 128.632 19.7724 128.298 19.4014C127.972 19.0304 127.809 18.7305 127.809 18.4779C127.809 18.2174 127.902 17.9333 128.096 17.6254C128.283 17.3176 128.477 16.9624 128.664 16.5441C128.85 16.1257 128.951 15.6443 128.951 15.0838V12.2186C128.78 12.2028 128.594 12.1871 128.407 12.1792C128.221 12.1713 128.026 12.1634 127.84 12.1634C127.187 12.1634 126.565 12.4081 125.974 12.8974C125.384 13.3868 124.91 14.0262 124.536 14.8155C124.163 15.6048 123.977 16.4573 123.977 17.365C123.977 18.0122 124.179 18.6673 124.583 19.3382C124.987 20.0013 125.593 20.6643 126.41 21.3115L125.889 21.8877C124.529 20.909 123.441 19.8908 122.624 18.841C121.816 17.7912 121.404 16.8203 121.404 15.9205C121.404 14.8549 121.63 13.8841 122.08 13.0158C122.531 12.1476 123.114 11.453 123.837 10.9399C124.56 10.4269 125.321 10.1664 126.114 10.1664C126.635 10.1664 127.125 10.198 127.591 10.269C128.057 10.3401 128.508 10.4427 128.936 10.5848V8.64304C128.936 7.83794 129.145 7.22228 129.557 6.80394H125.935C125.485 6.80394 125.049 6.97759 124.614 7.317C124.187 7.6564 123.845 8.0037 123.604 8.35889H123.036L120.471 5.54893L120.728 4.91748H130.614L132.324 6.81183C132.068 6.98548 131.842 7.24596 131.664 7.60115C131.485 7.95634 131.392 8.36678 131.392 8.84037V16.3862L131.407 16.3783Z" fill="#EDE6D6"/>
<path d="M141.193 8.65085C141.193 7.84575 141.402 7.23009 141.814 6.81175H137.959C137.532 6.82754 137.104 7.00119 136.692 7.34059C136.28 7.68 135.962 8.01151 135.736 8.3667H135.169L132.604 5.55674L132.861 4.92529H142.879L144.589 6.81965C144.333 6.9933 144.107 7.25377 143.928 7.60896C143.75 7.95626 143.656 8.37459 143.656 8.84818V16.394C143.656 16.9544 143.563 17.4438 143.369 17.87C143.175 18.2963 142.988 18.6436 142.801 18.9356C142.607 19.2277 142.514 19.4723 142.514 19.6855C142.514 19.8749 142.63 20.0959 142.864 20.3406C143.097 20.5853 143.361 20.8221 143.664 21.051C143.967 21.2799 144.224 21.4614 144.426 21.6035L144.014 22.1797C143.804 22.0376 143.478 21.8087 143.019 21.493C142.561 21.1773 142.094 20.8221 141.605 20.4274C141.123 20.0328 140.734 19.6618 140.439 19.3066C140.198 19.3934 139.949 19.4723 139.685 19.5276C139.428 19.5907 139.172 19.6223 138.931 19.6223C138.69 19.6223 138.348 19.5513 137.905 19.4092C137.462 19.2671 136.996 19.0619 136.49 18.7935C135.993 18.5252 135.511 18.1937 135.052 17.8069C134.594 17.4201 134.221 16.986 133.941 16.5045C133.653 16.023 133.513 15.5021 133.513 14.9417C133.513 13.8524 133.716 12.9447 134.12 12.2107C134.524 11.4766 135.06 10.9162 135.729 10.5294C136.397 10.1427 137.112 9.95322 137.889 9.95322C138.566 9.95322 139.187 10.0085 139.755 10.1111C140.322 10.2137 140.796 10.34 141.177 10.4821V8.66664L141.193 8.65085ZM136.926 17.6648C137.353 17.6648 137.843 17.5622 138.387 17.3491C138.931 17.136 139.459 16.8439 139.965 16.4651C140.47 16.0862 140.882 15.66 141.193 15.1864V11.9818C140.936 11.9502 140.695 11.9186 140.478 11.9028C140.26 11.887 140.058 11.8791 139.871 11.8791C139.218 11.8791 138.589 12.0607 137.998 12.4317C137.4 12.8026 136.926 13.3315 136.56 14.034C136.195 14.7365 136.016 15.5968 136.016 16.6071C136.016 16.8913 136.086 17.136 136.234 17.3412C136.381 17.5464 136.607 17.6569 136.918 17.6569L136.926 17.6648Z" fill="#EDE6D6"/>
<path d="M147.799 6.46448C147.488 6.16454 147.17 5.74621 146.843 5.20158C146.517 4.65695 146.353 4.13601 146.353 3.62295C146.353 2.97571 146.633 2.37583 147.185 1.82332C147.737 1.2708 148.468 0.82878 149.369 0.497268C150.271 0.165756 151.25 0 152.284 0C153.061 0 153.916 0.228901 154.849 0.694596C155.781 1.16029 156.714 1.79174 157.654 2.60474C158.595 3.40984 159.465 4.32544 160.258 5.33576L159.737 5.7541C158.735 4.61749 157.763 3.73346 156.815 3.1099C155.867 2.48634 154.88 2.17851 153.862 2.17851C152.843 2.17851 152.012 2.32058 151.273 2.61263C150.527 2.90468 149.952 3.27565 149.54 3.73346C149.128 4.19126 148.918 4.65695 148.918 5.13054C148.918 5.56466 149.05 5.99089 149.322 6.40923C149.587 6.81967 149.882 7.15908 150.193 7.41955C149.937 7.5932 149.711 7.86157 149.532 8.20887C149.354 8.55616 149.26 8.9745 149.26 9.44809V16.3862C149.26 16.9466 149.167 17.4359 148.973 17.8622C148.778 18.2884 148.592 18.6357 148.405 18.9277C148.211 19.2198 148.118 19.4645 148.118 19.6776C148.118 19.867 148.234 20.088 148.468 20.3327C148.701 20.5774 148.965 20.8142 149.268 21.0431C149.571 21.272 149.828 21.4536 150.03 21.5956L149.618 22.1718C149.408 22.0455 149.089 21.8403 148.662 21.5404C148.227 21.2404 147.784 20.9089 147.325 20.5301C146.866 20.1512 146.478 19.7802 146.144 19.4092C145.817 19.0383 145.654 18.7383 145.654 18.4857C145.654 18.2253 145.747 17.9411 145.942 17.6333C146.128 17.3254 146.322 16.9702 146.509 16.5519C146.695 16.1415 146.796 15.6521 146.796 15.0917V9.04554C146.796 8.45355 146.882 7.95628 147.045 7.56163C147.208 7.16697 147.465 6.80389 147.807 6.47237L147.799 6.46448Z" fill="#EDE6D6"/>
<path d="M165.504 19.6143C165.504 19.8117 165.598 20.0169 165.792 20.23C165.986 20.4431 166.212 20.6562 166.476 20.8615C166.74 21.0667 166.981 21.2324 167.191 21.3745L166.779 21.9507C166.569 21.8244 166.266 21.6192 165.862 21.3193C165.458 21.0193 165.03 20.6878 164.595 20.3168C164.152 19.9459 163.787 19.5828 163.484 19.2276C163.181 18.8645 163.033 18.5646 163.033 18.3199C163.033 18.1778 163.111 17.9331 163.282 17.5858C163.445 17.2385 163.639 16.8044 163.865 16.2992C164.09 15.7941 164.284 15.2258 164.447 14.6022C164.611 13.9786 164.696 13.3235 164.696 12.6447C164.696 12.4553 164.634 12.2816 164.517 12.1474C164.401 12.0132 164.238 11.9343 164.051 11.9343C163.53 11.9343 162.963 12.2027 162.341 12.7394C161.719 13.2762 161.183 13.8997 160.732 14.618V16.3782C160.732 16.9386 160.662 17.4279 160.515 17.8542C160.367 18.2804 160.219 18.6277 160.072 18.9197C159.924 19.2118 159.854 19.4565 159.854 19.6696C159.854 19.859 159.955 20.08 160.149 20.3247C160.344 20.5694 160.577 20.8062 160.849 21.0351C161.113 21.264 161.339 21.4456 161.51 21.5876L161.098 22.1638C160.888 22.0217 160.577 21.7928 160.149 21.4771C159.73 21.1614 159.287 20.8062 158.844 20.4116C158.393 20.0169 158.035 19.6459 157.755 19.2907C157.46 19.417 157.141 19.4723 156.799 19.4723C156.559 19.4723 156.217 19.4012 155.774 19.2592C155.33 19.1171 154.864 18.9197 154.359 18.6514C153.862 18.3909 153.38 18.0752 152.921 17.7042C152.462 17.3332 152.089 16.9149 151.81 16.4413C151.53 15.9677 151.382 15.4626 151.382 14.9179C151.382 13.8524 151.569 12.9525 151.95 12.2343C152.33 11.516 152.828 10.9714 153.45 10.6004C154.071 10.2294 154.755 10.0479 155.494 10.0479C156.061 10.0479 156.582 10.1031 157.064 10.2057C157.538 10.3083 157.942 10.4346 158.268 10.5767V8.63499C158.268 7.82989 158.478 7.21422 158.89 6.79588H155.812C155.385 6.81167 154.957 6.98532 154.545 7.32472C154.134 7.66413 153.815 7.99564 153.589 8.35083H153.022L150.457 5.54088L150.714 4.90942H166.251L167.961 6.80378L166.484 8.35083H165.916C165.551 7.96407 165.178 7.60888 164.789 7.28526C164.401 6.96164 163.973 6.79588 163.507 6.79588H161.665C161.408 6.96953 161.183 7.23001 161.004 7.5852C160.826 7.94039 160.732 8.35083 160.732 8.82442V10.5609C160.989 10.3873 161.261 10.2452 161.533 10.1426C161.813 10.04 162.069 9.98471 162.31 9.98471C162.831 9.98471 163.367 10.1268 163.927 10.403C164.486 10.6872 165.007 11.0424 165.497 11.4686C165.979 11.8949 166.375 12.3527 166.686 12.8183C166.997 13.284 167.152 13.7103 167.152 14.0813C167.152 14.7443 167.067 15.3915 166.904 16.0151C166.74 16.6386 166.546 17.199 166.336 17.7121C166.119 18.2173 165.932 18.6435 165.769 18.975C165.606 19.3065 165.52 19.5196 165.52 19.6064L165.504 19.6143ZM154.499 17.5384C154.88 17.5384 155.307 17.4358 155.797 17.2227C156.279 17.0096 156.745 16.7176 157.18 16.3387C157.616 15.9598 157.981 15.5336 158.253 15.06V12.0606C158.097 12.0448 157.958 12.029 157.825 12.0211C157.693 12.0132 157.569 12.0054 157.452 12.0054C156.885 12.0054 156.325 12.1711 155.766 12.5026C155.206 12.8341 154.755 13.3393 154.398 14.0181C154.032 14.6969 153.854 15.5573 153.854 16.6071C153.854 16.8517 153.908 17.0649 154.009 17.2543C154.11 17.4358 154.273 17.5306 154.499 17.5306V17.5384Z" fill="#EDE6D6"/>
<path d="M178.733 16.3783C178.733 16.9387 178.64 17.4281 178.445 17.8543C178.251 18.2727 178.065 18.6279 177.878 18.9199C177.692 19.212 177.591 19.4566 177.591 19.6698C177.591 19.8592 177.707 20.0802 177.94 20.3249C178.173 20.5696 178.438 20.8064 178.741 21.0353C179.044 21.2642 179.3 21.4457 179.503 21.5878L179.091 22.164C178.881 22.0377 178.562 21.8325 178.135 21.5325C177.707 21.2326 177.256 20.9011 176.806 20.5222C176.347 20.1433 175.958 19.7724 175.624 19.4014C175.298 19.0304 175.134 18.7305 175.134 18.4779C175.134 18.2174 175.228 17.9333 175.422 17.6254C175.609 17.3176 175.803 16.9624 175.989 16.5441C176.176 16.1257 176.277 15.6443 176.277 15.0838V12.2186C176.106 12.2028 175.919 12.1871 175.733 12.1792C175.546 12.1713 175.352 12.1634 175.166 12.1634C174.513 12.1634 173.891 12.4081 173.3 12.8974C172.709 13.3868 172.235 14.0262 171.862 14.8155C171.489 15.6048 171.303 16.4573 171.303 17.365C171.303 18.0122 171.505 18.6673 171.909 19.3382C172.313 20.0013 172.919 20.6643 173.735 21.3115L173.215 21.8877C171.855 20.909 170.766 19.8908 169.95 18.841C169.142 17.7912 168.73 16.8203 168.73 15.9205C168.73 14.8549 168.955 13.8841 169.406 13.0158C169.857 12.1476 170.44 11.453 171.163 10.9399C171.886 10.4269 172.647 10.1664 173.44 10.1664C173.961 10.1664 174.451 10.198 174.917 10.269C175.383 10.3401 175.834 10.4427 176.261 10.5848V8.64304C176.261 7.83794 176.471 7.22228 176.883 6.80394H173.261C172.811 6.80394 172.375 6.97759 171.94 7.317C171.513 7.6564 171.171 8.0037 170.93 8.35889H170.362L167.797 5.54893L168.054 4.91748H177.94L179.65 6.81183C179.394 6.98548 179.168 7.24596 178.99 7.60115C178.811 7.95634 178.718 8.36678 178.718 8.84037V16.3862L178.733 16.3783Z" fill="#EDE6D6"/>
<path d="M184.376 16.3782C184.376 16.9386 184.282 17.4279 184.088 17.8542C183.894 18.2804 183.707 18.6277 183.521 18.9197C183.334 19.2118 183.233 19.4565 183.233 19.6696C183.233 19.859 183.35 20.08 183.583 20.3247C183.816 20.5694 184.08 20.8062 184.384 21.0351C184.687 21.264 184.943 21.4456 185.145 21.5876L184.733 22.1638C184.523 22.0375 184.205 21.8323 183.777 21.5324C183.35 21.2324 182.899 20.9009 182.448 20.5221C181.99 20.1432 181.601 19.7722 181.267 19.4012C180.94 19.0303 180.777 18.7303 180.777 18.4777C180.777 18.2173 180.87 17.9331 181.065 17.6253C181.251 17.3174 181.446 16.9622 181.632 16.5439C181.819 16.1256 181.92 15.6441 181.92 15.0837V8.64288C181.92 7.83778 182.13 7.22211 182.541 6.80378H177.42L176.852 4.90942H183.606L185.316 6.80378C185.06 6.97743 184.834 7.2379 184.656 7.59309C184.477 7.94828 184.384 8.35873 184.384 8.83231V16.3782H184.376Z" fill="#EDE6D6"/>
<path d="M199.182 16.3782C199.182 16.9386 199.089 17.4279 198.895 17.8542C198.7 18.2725 198.514 18.6277 198.327 18.9197C198.141 19.2118 198.04 19.4565 198.04 19.6696C198.04 19.859 198.156 20.08 198.389 20.3247C198.622 20.5694 198.887 20.8062 199.19 21.0351C199.493 21.264 199.749 21.4456 199.952 21.5876L199.54 22.1638C199.353 22.0612 199.073 21.8797 198.708 21.6271C198.343 21.3745 197.954 21.0825 197.542 20.7588C197.13 20.4352 196.749 20.1037 196.4 19.7722C196.05 19.4407 195.817 19.1408 195.677 18.8803C195.521 18.9119 195.374 18.9434 195.234 18.975C195.094 19.0066 194.954 19.0145 194.822 19.0145C194.425 19.0145 193.975 18.8882 193.462 18.6435C192.949 18.3988 192.459 18.0752 191.969 17.6805C191.487 17.2859 191.083 16.8596 190.765 16.4018C190.446 15.944 190.283 15.5099 190.283 15.0837C190.283 14.7522 190.384 14.2944 190.594 13.7024C190.803 13.1104 190.905 12.4474 190.905 11.6896V8.64288C190.905 8.36662 190.928 8.09036 190.982 7.82989L188.907 5.54088L189.164 4.90942H198.382L200.091 6.80378C199.835 6.97743 199.61 7.2379 199.431 7.59309C199.252 7.94828 199.159 8.35873 199.159 8.83231V16.3782H199.182ZM196.726 8.65077C196.726 7.84567 196.936 7.23001 197.348 6.81167H194.317C194.06 6.98532 193.835 7.24579 193.656 7.60098C193.477 7.95618 193.384 8.36662 193.384 8.84021V13.0709C193.384 13.5998 193.322 14.0734 193.205 14.5075C193.081 14.9337 192.964 15.3126 192.84 15.6362C192.715 15.9598 192.661 16.2361 192.661 16.465C192.661 16.8675 192.824 17.0728 193.151 17.0728C193.462 17.0728 193.835 16.9938 194.262 16.836C194.69 16.6781 195.133 16.4571 195.583 16.165C196.034 15.873 196.415 15.5494 196.726 15.1784V8.65867V8.65077Z" fill="#EDE6D6"/>
<path d="M199.726 26.0001L199.003 25.4239C198.506 25.0214 198.001 24.7293 197.503 24.5557C197.006 24.382 196.454 24.2952 195.848 24.2952C195.483 24.2952 195.078 24.3347 194.628 24.4294C194.177 24.5162 193.679 24.6504 193.127 24.824L191.884 22.6455C192.871 22.2982 193.749 22.1167 194.527 22.1167C195.304 22.1167 196.05 22.3535 196.827 22.8429C197.604 23.3243 198.498 23.9953 199.516 24.8556L200.239 25.4634L199.718 26.0159L199.726 26.0001Z" fill="#EDE6D6"/>
<path d="M209.488 6.81183C209.232 6.98548 209.006 7.24596 208.828 7.60115C208.649 7.94845 208.556 8.36678 208.556 8.84037V12.1239C208.556 13.3 208.377 14.2472 208.012 14.9733C207.646 15.6995 207.141 16.2678 206.488 16.6704C206.053 16.9151 205.672 17.0571 205.338 17.0887C205.004 17.1203 204.833 17.1913 204.833 17.3018C204.833 17.4755 204.965 17.7359 205.237 18.0753C205.501 18.4147 205.843 18.8015 206.263 19.2356C206.675 19.6619 207.11 20.0881 207.568 20.5143C208.027 20.9327 208.455 21.3115 208.851 21.643L208.33 22.2745C207.864 21.9272 207.328 21.4852 206.714 20.9563C206.1 20.4275 205.485 19.8513 204.864 19.2199C204.242 18.5884 203.667 17.9491 203.13 17.3018C202.594 16.6546 202.167 16.031 201.832 15.4311C201.498 14.8313 201.343 14.3103 201.343 13.8525C201.343 13.2605 201.444 12.7712 201.654 12.3923C201.864 12.0134 202.112 11.7293 202.408 11.5398C202.703 11.3504 202.975 11.2478 203.239 11.2478C203.504 11.2478 203.791 11.3583 204.11 11.5872C204.428 11.8161 204.724 12.045 204.988 12.2739C205.252 12.5028 205.431 12.6133 205.517 12.6133C205.703 12.6133 205.851 12.4475 205.96 12.1239C206.061 11.8003 206.115 11.3662 206.115 10.8215V8.64304C206.115 7.83794 206.325 7.22228 206.737 6.80394H205.703C205.276 6.83551 204.856 7.02495 204.46 7.35646C204.063 7.68797 203.752 8.01948 203.527 8.35889H202.959L200.395 5.54893L200.651 4.91748H207.794L209.504 6.81183H209.488Z" fill="#EDE6D6"/>
<path d="M209.846 16.0625C209.846 15.8336 209.924 15.5968 210.079 15.3521C210.234 15.1074 210.421 14.8943 210.639 14.7207C210.856 14.547 211.05 14.4602 211.221 14.4602C211.431 14.4602 211.688 14.5312 212.014 14.6812C212.333 14.8312 212.659 15.0048 212.986 15.1943C213.312 15.3916 213.569 15.5573 213.763 15.6915C214.571 15.1864 215.123 14.5233 215.411 13.7182C215.698 12.9131 215.869 12.0607 215.939 11.1688C215.97 10.5926 216.001 10.0085 216.033 9.41648C216.056 8.83239 216.071 8.24829 216.071 7.67209C216.071 7.41162 216.009 7.19851 215.877 7.04064C215.745 6.88278 215.59 6.80385 215.395 6.80385C215.1 6.80385 214.797 6.88278 214.478 7.04064C214.159 7.19851 213.887 7.44319 213.678 7.77471C213.468 8.10622 213.351 8.55613 213.351 9.11654V10.4347C213.351 10.8215 213.444 11.2082 213.639 11.5871C213.825 11.9739 214.113 12.2738 214.494 12.479L214.183 13.0868C213.716 12.8579 213.219 12.5422 212.69 12.1396C212.162 11.7371 211.719 11.295 211.361 10.8136C210.996 10.3321 210.817 9.86639 210.817 9.40858V8.06675C210.817 7.40373 210.981 6.81964 211.307 6.33026C211.633 5.84089 212.045 5.46202 212.551 5.20154C213.048 4.94107 213.561 4.80688 214.074 4.80688C214.455 4.80688 214.898 4.93318 215.411 5.18576C215.916 5.43834 216.421 5.77774 216.911 6.19608C217.4 6.61441 217.805 7.07222 218.131 7.56159C218.458 8.05096 218.613 8.52455 218.613 8.98236C218.613 9.62959 218.613 10.2768 218.597 10.9241C218.59 11.5713 218.551 12.2264 218.481 12.8974C218.411 13.5604 218.24 14.2313 217.976 14.8943C217.711 15.5573 217.362 16.173 216.942 16.7176C216.522 17.2702 216.025 17.7043 215.45 18.02C216.056 18.5646 216.678 19.1566 217.331 19.8038C217.976 20.4511 218.527 21.051 218.978 21.5956L218.255 22.1718C217.735 21.643 217.144 21.0431 216.468 20.3564C215.792 19.6697 215.108 19.0224 214.393 18.4147C214.292 18.4304 214.183 18.4462 214.066 18.4541C213.957 18.462 213.841 18.4699 213.716 18.4699C213.336 18.4699 212.924 18.3831 212.488 18.2173C212.045 18.0516 211.633 17.8385 211.229 17.5859C210.833 17.3333 210.506 17.0649 210.242 16.7808C209.978 16.4966 209.854 16.2519 209.854 16.0467L209.846 16.0625ZM224.629 6.81174C224.372 6.98539 224.147 7.24586 223.968 7.60106C223.789 7.94835 223.696 8.36669 223.696 8.84028V16.3861C223.696 16.9465 223.603 17.4359 223.409 17.8621C223.214 18.2884 223.028 18.6357 222.841 18.9277C222.647 19.2198 222.554 19.4644 222.554 19.6776C222.554 19.867 222.67 20.088 222.903 20.3327C223.137 20.5774 223.401 20.8142 223.704 21.0431C224.007 21.272 224.263 21.4535 224.466 21.5956L224.054 22.1718C223.844 22.0455 223.525 21.8403 223.098 21.5403C222.662 21.2404 222.219 20.9089 221.761 20.53C221.302 20.1511 220.914 19.7802 220.579 19.4092C220.253 19.0382 220.09 18.7383 220.09 18.4857C220.09 18.2252 220.183 17.9411 220.377 17.6332C220.564 17.3254 220.758 16.9702 220.945 16.5519C221.131 16.1414 221.232 15.6521 221.232 15.0916V8.65084C221.232 7.84574 221.442 7.23008 221.854 6.81174H221.465C221.139 6.82753 220.883 6.91435 220.688 7.07222C220.494 7.23008 220.331 7.38005 220.199 7.52212H219.631L217.898 5.54884L218.154 4.91739H222.919L224.629 6.81174Z" fill="#EDE6D6"/>
<path d="M224.24 26.0001L223.517 25.4239C223.02 25.0214 222.515 24.7293 222.017 24.5557C221.52 24.382 220.968 24.2952 220.362 24.2952C219.996 24.2952 219.592 24.3347 219.142 24.4294C218.691 24.5162 218.193 24.6504 217.641 24.824L216.398 22.6455C217.385 22.2982 218.263 22.1167 219.04 22.1167C219.818 22.1167 220.564 22.3535 221.341 22.8429C222.118 23.3243 223.012 23.9953 224.03 24.8556L224.753 25.4634L224.232 26.0159L224.24 26.0001Z" fill="#EDE6D6"/>
<path d="M236.381 16.3782C236.381 16.9386 236.287 17.4279 236.093 17.8542C235.899 18.2725 235.712 18.6277 235.526 18.9197C235.331 19.2118 235.238 19.4565 235.238 19.6696C235.238 19.859 235.355 20.08 235.588 20.3247C235.821 20.5694 236.085 20.8062 236.388 21.0351C236.692 21.264 236.948 21.4456 237.15 21.5876L236.738 22.1638C236.528 22.0375 236.21 21.8323 235.782 21.5324C235.347 21.2324 234.904 20.9009 234.445 20.5221C233.987 20.1432 233.598 19.7722 233.264 19.4012C232.937 19.0303 232.774 18.7303 232.774 18.4777C232.774 18.2173 232.867 17.9331 233.062 17.6253C233.248 17.3174 233.443 16.9622 233.629 16.5439C233.816 16.1335 233.917 15.6441 233.917 15.0837V12.3527C233.45 12.2974 233 12.2737 232.572 12.2737C232.207 12.2737 231.81 12.3763 231.367 12.5895C230.924 12.8026 230.559 13.1578 230.264 13.6708C230.295 14.1128 230.326 14.6022 230.357 15.1468C230.388 15.6915 230.404 16.2124 230.419 16.7255C230.435 17.2306 230.443 17.6647 230.443 18.012C230.443 18.3593 230.341 18.7066 230.132 18.9829C229.922 19.2592 229.65 19.4012 229.3 19.4012C229.02 19.4012 228.686 19.3065 228.274 19.125C227.87 18.9434 227.466 18.7066 227.069 18.4146C226.673 18.1225 226.339 17.7989 226.074 17.4437C225.81 17.0885 225.67 16.7412 225.67 16.4018C225.67 15.6678 225.802 14.9416 226.074 14.2233C226.339 13.5051 226.72 12.8499 227.201 12.2658C227.683 11.6817 228.243 11.2082 228.888 10.8451C229.525 10.482 230.209 10.3083 230.932 10.3083C231.484 10.3083 231.997 10.3557 232.471 10.4425C232.945 10.5293 233.427 10.6635 233.909 10.8372V8.65867C233.909 7.85357 234.119 7.2379 234.531 6.81957H230.178C229.751 6.85114 229.331 7.04057 228.935 7.37209C228.538 7.7036 228.227 8.03511 228.002 8.37451H227.435L224.87 5.56456L225.126 4.93311H235.588L237.298 6.82746C237.041 7.00111 236.816 7.26158 236.637 7.61677C236.458 7.96407 236.365 8.38241 236.365 8.856V16.4018L236.381 16.3782Z" fill="#EDE6D6"/>
<path d="M233.202 6.81183L232.603 4.91748H240.29L242 6.78026L240.679 8.20103H240.111C239.785 7.85373 239.396 7.53011 238.961 7.23806C238.518 6.94602 238.052 6.80394 237.546 6.80394H233.194L233.202 6.81183ZM240.733 19.796C240.391 19.6382 239.995 19.4251 239.552 19.1488C239.109 18.8804 238.774 18.6515 238.526 18.4779C238.557 18.1069 238.588 17.7202 238.603 17.3176C238.619 16.9151 238.627 16.5204 238.627 16.1336V15.6837C238.627 15.5259 238.619 15.3759 238.603 15.2338L238.837 15.076C239.179 15.2496 239.559 15.4627 239.979 15.7232C240.391 15.9758 240.71 16.1889 240.935 16.3704C240.966 16.5993 240.997 16.8282 241.013 17.065C241.028 17.3018 241.036 17.5465 241.036 17.7912C241.036 18.0911 241.028 18.399 241.013 18.7226C240.997 19.0462 240.982 19.354 240.958 19.654L240.725 19.7882L240.733 19.796ZM240.787 13.963C240.446 13.7894 240.049 13.5684 239.614 13.3079C239.171 13.0474 238.829 12.8264 238.588 12.6528C238.603 12.4239 238.619 12.1871 238.627 11.9266C238.635 11.674 238.642 11.4293 238.642 11.2004C238.642 10.9715 238.642 10.7189 238.627 10.4506C238.619 10.1822 238.603 9.92962 238.588 9.70072L238.821 9.54286C239.163 9.71651 239.544 9.92962 239.964 10.1901C240.376 10.4427 240.694 10.6558 240.92 10.8373C241.005 11.3977 241.052 11.9739 241.052 12.5738V13.2053C241.052 13.4342 241.044 13.6473 241.028 13.8367L240.795 13.9709L240.787 13.963Z" fill="#EDE6D6"/>
</g>
<defs>
<clipPath id="clip0_283_173">
<rect width="242" height="26" fill="white"/>
</clipPath>
</defs>
</svg>
