<svg width="38" height="22" viewBox="0 0 38 22" fill="none" xmlns="http://www.w3.org/2000/svg">
<path d="M9.14698 6.39531C8.90725 6.56361 8.69071 6.81606 8.50511 7.16031C8.31178 7.4969 8.21897 7.90235 8.21897 8.36135V10.2968C8.21897 10.3656 8.21124 10.4345 8.19577 10.5033C8.53604 10.4498 8.87631 10.4268 9.20111 10.4268C9.78111 10.4268 10.3224 10.4727 10.8251 10.5569C11.32 10.641 11.815 10.7787 12.2944 10.9623V7.90235C12.2944 7.8029 12.3022 7.7111 12.3176 7.6193L10.0518 5.17132L10.307 4.55933H13.9648L15.6662 6.39531C15.411 6.56361 15.1867 6.81606 15.0088 7.16031C14.831 7.50455 14.7382 7.90235 14.7382 8.36135V15.6747C14.7382 16.2178 14.6454 16.6921 14.452 17.1052C14.2587 17.5107 14.0731 17.8549 13.8875 18.138C13.7019 18.421 13.6014 18.6582 13.6014 18.8647C13.6014 19.0483 13.7174 19.2625 13.9494 19.4997C14.1814 19.7368 14.4443 19.9663 14.7459 20.1882C15.0475 20.41 15.3027 20.5859 15.5038 20.7236L15.0939 21.2821C14.8851 21.1597 14.568 20.9608 14.1427 20.6701C13.7096 20.3794 13.2688 20.0581 12.8126 19.6909C12.3563 19.3237 11.9696 18.9642 11.6371 18.6046C11.3123 18.2451 11.1499 17.9544 11.1499 17.7096C11.1499 17.4571 11.2427 17.1817 11.436 16.8834C11.6216 16.585 11.815 16.2408 12.0006 15.8353C12.1862 15.4375 12.2867 14.9632 12.2867 14.4201V12.3776C11.9078 12.324 11.5211 12.3011 11.1267 12.3011C10.6086 12.3011 10.0518 12.3546 9.44084 12.4541C8.82991 12.5535 8.15711 12.7754 7.41471 13.1196C8.03338 13.6475 8.56698 14.2518 9.01552 14.9326C9.46405 15.6135 9.68831 16.2714 9.68831 16.9216C9.68831 17.5183 9.54137 18.0691 9.24751 18.5893C8.95364 19.1095 8.53605 19.5226 7.98698 19.8363C7.43792 20.1499 6.77284 20.3106 5.99951 20.3106C5.22618 20.3106 4.48378 20.1117 3.71818 19.7139C2.95258 19.3161 2.25659 18.7806 1.63019 18.1227C1.00379 17.4571 0.501125 16.7227 0.122192 15.9042L0.818187 15.4987C1.42139 16.432 1.99365 17.1205 2.54271 17.5642C3.09178 18.0079 3.68725 18.2298 4.32138 18.2298C4.92458 18.2298 5.44272 18.0691 5.88352 17.7555C6.32432 17.4418 6.65684 17.044 6.90431 16.5544C7.14404 16.0725 7.26778 15.5676 7.26778 15.0397C7.26778 14.2059 6.98165 13.7928 6.41712 13.7928C5.95312 13.7928 5.50458 13.9305 5.07924 14.1982C4.65391 14.4736 4.30591 14.8026 4.05071 15.1927L1.52965 13.3797C1.73845 12.9054 2.10965 12.5076 2.65098 12.1787C3.19231 11.8574 3.77231 11.6967 4.39098 11.6967C4.47605 11.6967 4.56112 11.6967 4.63845 11.712C4.71578 11.7197 4.79311 11.735 4.88591 11.7503C5.28031 11.4443 5.52778 11.0465 5.63604 10.5645C5.73658 10.0826 5.79071 9.64654 5.79071 9.25639V8.1854C5.79071 7.4051 5.99951 6.80841 6.40938 6.40296H5.09471C4.73125 6.40296 4.38325 6.53301 4.03525 6.80076C3.69499 7.06086 3.42432 7.3439 3.23872 7.62695H2.67418L0.385123 5.17897L0.640324 4.56698H7.46885L9.17018 6.40296L9.14698 6.39531Z" fill="#EDE6D6"/>
<path d="M25.3019 8.17783C25.3019 7.39753 25.5107 6.80084 25.9205 6.39539H22.9045C22.6493 6.56369 22.4251 6.81614 22.2472 7.16039C22.0693 7.49698 21.9765 7.90243 21.9765 8.36143V15.1163C21.9765 15.6748 21.8992 16.2179 21.7445 16.7381C21.5899 17.2583 21.3733 17.6791 21.1027 18.0004C20.8243 18.3216 20.5227 18.4823 20.1747 18.4823C19.8963 18.4823 19.5637 18.3905 19.1693 18.2145C18.7749 18.0386 18.396 17.8015 18.0248 17.5031C17.6536 17.2048 17.3443 16.8758 17.0968 16.5239C16.8493 16.1644 16.7256 15.8125 16.7256 15.4529C16.7256 14.7721 16.9808 14.0912 17.4835 13.4027C17.9861 12.7142 18.6744 12.1405 19.5328 11.6815V8.19313C19.5328 7.41283 19.7416 6.81614 20.1515 6.41069H19.9195C19.4709 6.41069 19.1229 6.49484 18.8755 6.65549C18.628 6.81614 18.4192 7.01504 18.2414 7.25219H17.6768L15.7976 5.1867L16.0528 4.57471H26.9723L28.6736 6.41069C28.4184 6.57899 28.1941 6.83144 28.0163 7.17569C27.8384 7.51993 27.7456 7.91773 27.7456 8.37673V15.6901C27.7456 16.2332 27.6528 16.7075 27.4595 17.1206C27.2661 17.5261 27.0805 17.8703 26.8949 18.1533C26.7093 18.4364 26.6088 18.6735 26.6088 18.8801C26.6088 19.0637 26.7248 19.2779 26.9568 19.515C27.1888 19.7522 27.4517 19.9817 27.7533 20.2035C28.0549 20.4254 28.3101 20.6013 28.5112 20.739L28.1013 21.2975C27.8925 21.1751 27.5755 20.9762 27.1501 20.6855C26.7248 20.3948 26.2763 20.0735 25.8277 19.7063C25.3715 19.3391 24.9848 18.9795 24.6523 18.62C24.3275 18.2604 24.1651 17.9698 24.1651 17.725C24.1651 17.4725 24.2579 17.1971 24.4512 16.8988C24.6368 16.6004 24.8301 16.2562 25.0157 15.8507C25.2013 15.4453 25.3019 14.9786 25.3019 14.4355V8.19313V8.17783Z" fill="#EDE6D6"/>
<path d="M38 6.39531C37.7448 6.56361 37.5206 6.81606 37.3427 7.16031C37.1648 7.4969 37.072 7.90235 37.072 8.36135V11.5437C37.072 12.6836 36.8942 13.6016 36.5307 14.3054C36.1672 15.0091 35.6645 15.5599 35.0149 15.9501C34.5819 16.1872 34.203 16.3249 33.8704 16.3555C33.5379 16.3861 33.3678 16.455 33.3678 16.5621C33.3678 16.7304 33.4992 16.9828 33.7699 17.3118C34.0328 17.6407 34.3731 18.0156 34.7907 18.4363C35.2006 18.8494 35.6336 19.2625 36.0899 19.6756C36.5462 20.0811 36.9715 20.4482 37.3659 20.7695L36.8478 21.3815C36.3838 21.0449 35.8502 20.6165 35.2392 20.104C34.6283 19.5915 34.0174 19.033 33.3987 18.421C32.78 17.809 32.2078 17.1894 31.6742 16.5621C31.1406 15.9348 30.7152 15.3304 30.3827 14.749C30.0502 14.1677 29.8955 13.6628 29.8955 13.2191C29.8955 12.6453 29.996 12.171 30.2048 11.8038C30.4136 11.4366 30.6611 11.1612 30.955 10.9776C31.2488 10.794 31.5195 10.6946 31.7824 10.6946C32.0454 10.6946 32.3315 10.8017 32.6486 11.0235C32.9656 11.2454 33.2595 11.4672 33.5224 11.6891C33.7854 11.9109 33.9632 12.018 34.0483 12.018C34.2339 12.018 34.3808 11.8574 34.4891 11.5437C34.5896 11.2301 34.6438 10.8093 34.6438 10.2815V8.1701C34.6438 7.3898 34.8526 6.79311 35.2624 6.38766H34.2339C33.8086 6.41826 33.391 6.60186 32.9966 6.92316C32.6022 7.24446 32.2928 7.56575 32.0686 7.8947H31.504L28.952 5.17132L29.2072 4.55933H36.3142L38.0155 6.39531H38Z" fill="#EDE6D6"/>
<path d="M36.2213 5.60749C35.7573 4.78894 35.332 4.13105 34.9298 3.6185C34.5354 3.10596 34.1178 2.73876 33.6693 2.49396C33.2208 2.25681 32.6872 2.13441 32.0685 2.13441C31.6432 2.13441 31.156 2.18031 30.6147 2.26446C30.0733 2.34861 29.4779 2.47866 28.8205 2.64696L27.5832 0.504978C28.7664 0.16838 29.8181 -0.00756836 30.7229 -0.00756836C31.4808 -0.00756836 32.1768 0.17603 32.8186 0.543227C33.4605 0.910424 34.0637 1.40002 34.6205 2.01202C35.1773 2.62401 35.7186 3.30486 36.229 4.0622C36.7472 4.81954 37.2498 5.59219 37.7448 6.39543L36.1981 5.60749H36.2213Z" fill="#EDE6D6"/>
</svg>
