<svg width="229" height="27" viewBox="0 0 229 27" fill="none" xmlns="http://www.w3.org/2000/svg">
<path d="M10.9954 11.3159C9.94707 11.106 8.96867 11.005 8.07568 11.005C7.1827 11.005 6.42172 11.1294 5.76169 11.3781C5.10166 11.6268 4.5814 11.9687 4.20867 12.3884C3.83595 12.8081 3.64959 13.2822 3.64959 13.8029C3.64959 14.1993 3.78159 14.4014 4.03784 14.4014C4.20867 14.4014 4.50375 14.2693 4.93083 13.9972C5.35014 13.733 5.8704 13.4687 6.48384 13.2045C7.09728 12.948 7.75732 12.8159 8.46394 12.8159C8.77454 12.8159 9.1395 12.9325 9.56658 13.1656C9.99366 13.3988 10.3974 13.7097 10.7935 14.0983C11.1895 14.4869 11.5156 14.9143 11.7796 15.3807C12.0436 15.847 12.1679 16.3133 12.1679 16.7796C12.1679 17.3159 11.966 17.9221 11.5622 18.5905C11.1584 19.2667 10.6149 19.8729 9.94707 20.4247L12.9444 22.1112L12.5561 22.7097L10.2033 21.4661C9.25598 20.9687 8.50276 20.5957 7.95144 20.3547C7.40012 20.1138 6.98857 19.9584 6.70903 19.8884C6.42949 19.8185 6.22759 19.7874 6.08782 19.7874C5.96358 19.7874 5.80828 19.8884 5.62192 20.0827C5.42779 20.2848 5.23366 20.4791 5.02401 20.6656C4.81435 20.8522 4.62022 20.9532 4.4261 20.9532C4.25526 20.9532 3.98349 20.891 3.62629 20.7589C3.26133 20.6268 2.88861 20.4636 2.50036 20.2537C2.1121 20.0439 1.78597 19.834 1.51419 19.6086C1.25018 19.3832 1.11041 19.1889 1.11041 19.0102C1.11041 18.8703 1.18806 18.676 1.35889 18.4273C1.52196 18.1786 1.72385 17.9454 1.96457 17.7434C2.20528 17.5335 2.43047 17.4325 2.64013 17.4325C3.72724 17.4325 5.31132 17.9687 7.40012 19.0335C8.1611 18.4273 8.75901 17.7822 9.20162 17.0905C9.64423 16.3988 9.86165 15.8703 9.86165 15.5128C9.86165 15.2174 9.76071 15.0698 9.55105 15.0698C9.20939 15.0698 8.82113 15.1553 8.40182 15.3185C7.9825 15.4817 7.56319 15.6682 7.1594 15.8781C6.75562 16.0879 6.39066 16.2744 6.07229 16.4377C5.75393 16.6009 5.51321 16.6864 5.35791 16.6864C5.14825 16.6864 4.82988 16.5775 4.38727 16.3599C3.94466 16.1423 3.48652 15.847 3.00509 15.4661C2.52365 15.0853 2.1121 14.6501 1.7782 14.1604C1.44431 13.6708 1.27347 13.1501 1.27347 12.5905C1.27347 11.7978 1.4909 11.1371 1.93351 10.6086C2.37611 10.0801 2.96626 9.68377 3.71947 9.41952C4.47269 9.15527 5.31132 9.01537 6.24312 9.01537C6.6935 9.01537 7.1594 9.04646 7.64084 9.10864C8.12227 9.17081 8.60371 9.24076 9.09291 9.32625V8.52573C9.09291 7.73299 9.30257 7.12677 9.71412 6.71485H4.74446C4.37951 6.71485 4.03008 6.84698 3.68065 7.119C3.33122 7.39102 3.06721 7.67081 2.88085 7.95838H2.31399L0 5.46356L0.256248 4.8418H10.7546L12.463 6.70708C12.2067 6.87807 11.9815 7.14231 11.8029 7.48428C11.6243 7.82625 11.5311 8.23817 11.5311 8.70449V10.8263L10.9876 11.3159H10.9954Z" fill="#B2462D"/>
<path d="M20.2746 9.96356L21.649 11.8055L21.5481 12.1397H20.9812C20.461 12.1397 19.9407 12.2874 19.4204 12.5905C18.8924 12.8936 18.4576 13.3288 18.1004 13.8962C17.7432 14.4636 17.5724 15.163 17.5724 15.9946C17.5724 16.3055 17.6655 16.5775 17.8597 16.8107C18.046 17.0439 18.3411 17.1604 18.7371 17.1604C19.1331 17.1604 19.6068 17.0594 20.1038 16.8496C20.6007 16.6397 21.0899 16.3599 21.5636 15.9946C22.0373 15.6294 22.4178 15.2174 22.7128 14.7511V8.51019C22.7128 7.71744 22.9225 7.11123 23.334 6.69931H18.3178C17.8674 6.69931 17.4326 6.87029 16.9977 7.20449C16.5707 7.53869 16.229 7.88066 15.9883 8.2304H15.4214L12.8589 5.46356L13.1152 4.8418H24.3901L26.0984 6.70708C25.8422 6.87807 25.617 7.14232 25.4384 7.48428C25.2598 7.82625 25.1666 8.23817 25.1666 8.70449V16.1345C25.1666 16.6864 25.0734 17.1682 24.8793 17.5879C24.6929 17.9998 24.4988 18.3496 24.3124 18.6371C24.1261 18.9247 24.0251 19.1656 24.0251 19.3755C24.0251 19.562 24.1416 19.7796 24.3746 20.0206C24.6075 20.2615 24.8715 20.4946 25.1744 20.72C25.4772 20.9454 25.7335 21.1242 25.9353 21.2641L25.5238 21.8314C25.2986 21.6915 24.9569 21.4661 24.491 21.1475C24.0251 20.8288 23.5515 20.4713 23.07 20.075C22.5886 19.6786 22.2003 19.2978 21.9053 18.9325C21.5947 19.0335 21.2918 19.0879 20.9968 19.0879C20.7172 19.0879 20.3445 19.018 19.8708 18.8703C19.3971 18.7226 18.8847 18.5128 18.3333 18.2485C17.782 17.9843 17.2617 17.6501 16.7648 17.2615C16.2756 16.8729 15.8718 16.4299 15.5457 15.9402C15.2273 15.4506 15.0642 14.9143 15.0642 14.347C15.0642 13.8962 15.1341 13.4921 15.2817 13.119C15.4292 12.7459 15.6311 12.4273 15.8873 12.1475H14.28L12.9055 10.3055L13.0065 9.97133H20.2513L20.2746 9.96356Z" fill="#B2462D"/>
<path d="M25.7102 25.6012L24.9881 25.0338C24.4911 24.6374 23.9864 24.3499 23.4894 24.1789C22.9924 24.0079 22.4411 23.9224 21.8354 23.9224C21.4705 23.9224 21.0667 23.9691 20.6163 24.0545C20.1659 24.14 19.669 24.2722 19.1177 24.4431L17.8752 22.2981C18.8614 21.9561 19.7389 21.7773 20.5154 21.7773C21.2919 21.7773 22.0373 22.0183 22.8138 22.4924C23.5903 22.9665 24.4833 23.6271 25.5006 24.4742L26.2227 25.0727L25.7024 25.6167L25.7102 25.6012Z" fill="#B2462D"/>
<path d="M41.2559 6.70704C41.0152 6.87803 40.7978 7.14227 40.6114 7.48424C40.4173 7.82621 40.3241 8.23813 40.3241 8.70445V10.6941C40.7356 11.176 41.0773 11.6889 41.3336 12.2174C41.5898 12.7537 41.7218 13.2589 41.7218 13.7485C41.7218 14.7355 41.5122 15.6604 41.1006 16.5309C40.6891 17.4013 40.13 18.1785 39.4311 18.8469C38.7323 19.5231 37.9557 20.0516 37.1016 20.4402C36.2474 20.8288 35.3933 21.0231 34.5313 21.0231C34.1198 21.0231 33.6151 20.9298 33.0327 20.7355C32.4503 20.549 31.8369 20.277 31.2079 19.935C30.5789 19.5931 29.9888 19.1811 29.453 18.7148C28.9172 18.2485 28.4668 17.7433 28.1174 17.1837C27.7757 16.6319 27.5971 16.0568 27.5971 15.4506C27.5971 14.8988 27.8145 14.4013 28.2572 13.9506C28.6998 13.4998 29.321 13.0956 30.1363 12.7304C29.5151 12.2796 28.9871 11.7822 28.56 11.2381C28.1329 10.6941 27.9155 10.1112 27.9155 9.48942C27.9155 9.19409 27.9466 8.89875 28.0164 8.59564C28.0863 8.29253 28.1717 7.98942 28.2727 7.67854L26.2305 5.45575L26.4867 4.83398H39.5476L41.2559 6.69927V6.70704ZM34.9429 13.8262C33.4287 14.2614 32.2173 14.7744 31.3244 15.3651C30.4236 15.9635 29.981 16.6397 29.981 17.3936C29.981 17.8288 30.2062 18.2174 30.6566 18.5749C31.1069 18.9324 31.6272 19.1034 32.2329 19.1034C33.0094 19.1034 33.8092 18.9247 34.6245 18.5594C35.4399 18.1941 36.2008 17.6889 36.8997 17.0438C37.5985 16.3988 38.1654 15.6449 38.5925 14.7899C39.0196 13.935 39.237 13.0179 39.237 12.0309C39.237 11.7355 39.1826 11.4713 39.0662 11.2304C38.9574 10.9894 38.7478 10.8651 38.4605 10.8651C37.7694 10.8651 37.0084 11.4324 36.1853 12.5749L34.3217 10.5853C34.6168 10.0179 35.0128 9.55937 35.5097 9.20963C36.0067 8.86766 36.4726 8.68891 36.9075 8.68891C37.0628 8.68891 37.2181 8.70445 37.3734 8.74331C37.5287 8.7744 37.6917 8.82103 37.8626 8.87543V8.51015C37.8626 7.7174 38.0722 7.11119 38.4838 6.69927H31.9145C31.2933 7.49202 30.8818 8.31585 30.6876 9.15523C30.4935 10.0024 30.3926 10.8029 30.3926 11.5646C30.3926 11.9298 30.5246 12.2252 30.7808 12.4739C31.1225 12.334 31.503 12.2174 31.9067 12.1086C32.3105 12.0076 32.7298 11.8988 33.1647 11.7977L34.9507 13.8184L34.9429 13.8262Z" fill="#B2462D"/>
<path d="M46.7147 16.1267C46.7147 16.6785 46.6215 17.1604 46.4274 17.5801C46.241 17.992 46.0469 18.3418 45.8606 18.6293C45.6742 18.9169 45.5733 19.1578 45.5733 19.3677C45.5733 19.5542 45.6897 19.7718 45.9227 20.0127C46.1556 20.2537 46.4196 20.4868 46.7225 20.7122C47.0253 20.9376 47.2816 21.1164 47.4835 21.2563L47.0719 21.8236C46.8623 21.6993 46.5439 21.4972 46.1168 21.2019C45.6897 20.9065 45.2394 20.5801 44.789 20.207C44.3308 19.834 43.9426 19.4687 43.6087 19.1034C43.2826 18.7381 43.1195 18.4428 43.1195 18.1941C43.1195 17.9376 43.2127 17.6578 43.4068 17.3547C43.5932 17.0516 43.7873 16.7019 43.9736 16.2899C44.16 15.8858 44.261 15.4039 44.261 14.8521V8.51015C44.261 7.7174 44.4706 7.11119 44.8822 6.69927H39.765L39.1981 4.83398H45.946L47.6543 6.69927C47.398 6.87025 47.1729 7.1345 46.9943 7.47647C46.8157 7.81844 46.7225 8.23036 46.7225 8.69668V16.1267H46.7147Z" fill="#B2462D"/>
<path d="M49.5024 24.3887L48.7803 23.4793C49.1763 22.6866 49.4714 21.8084 49.6733 20.8368C49.8752 19.8731 49.9683 18.7462 49.9683 17.4716L50.3566 17.2617L52.6318 18.6063C52.6318 19.6555 52.391 20.6736 51.9096 21.6451C51.4282 22.6166 50.7526 23.5337 49.8907 24.3731H49.5024V24.3887Z" fill="#B2462D"/>
<path d="M65.281 6.70716C65.0403 6.87815 64.8229 7.1424 64.6365 7.48436C64.4424 7.82633 64.3492 8.23825 64.3492 8.70457V10.4688C64.3492 11.075 64.2638 11.6657 64.1007 12.2408C63.9377 12.816 63.6115 13.2901 63.1301 13.6553C63.7358 14.1761 64.2483 14.7667 64.6676 15.4274C65.0869 16.088 65.3043 16.7486 65.3043 17.4092C65.3043 18.0155 65.1568 18.575 64.8617 19.1035C64.5666 19.632 64.1473 20.0517 63.596 20.3704C63.0447 20.689 62.3769 20.8522 61.6004 20.8522C60.8239 20.8522 60.0784 20.6502 59.3097 20.246C58.5409 19.8419 57.8421 19.2978 57.2131 18.6294C56.5841 17.9533 56.0794 17.2072 55.6989 16.3756L56.3978 15.9636C57.0034 16.9118 57.5781 17.6113 58.1294 18.0621C58.6807 18.5129 59.2786 18.7383 59.9154 18.7383C60.521 18.7383 61.0413 18.575 61.4839 18.2564C61.9265 17.9377 62.2604 17.5336 62.5089 17.0362C62.7496 16.5465 62.8738 16.0336 62.8738 15.4973C62.8738 14.6502 62.5865 14.2305 62.0197 14.2305C61.5538 14.2305 61.1034 14.3704 60.6763 14.6424C60.2492 14.9222 59.8998 15.2564 59.6436 15.6528L57.1122 13.8186C57.3218 13.3367 57.6945 12.9326 58.2381 12.5984C58.7816 12.2719 59.364 12.1087 59.9852 12.1087C60.2415 12.1087 60.5288 12.1631 60.8394 12.2642C61.2898 11.9533 61.5771 11.5414 61.7091 11.0362C61.8411 10.531 61.9032 10.0569 61.9032 9.62167V8.53359C61.9032 7.74084 62.1129 7.13462 62.5244 6.72271H60.6841C60.3191 6.72271 59.9697 6.85483 59.6203 7.12685C59.2708 7.39887 59.0068 7.67867 58.8205 7.96623H58.2536L55.9552 5.47918L56.2114 4.85742H63.5805L65.2888 6.72271L65.281 6.70716Z" fill="#EDE6D6"/>
<path d="M73.147 9.96356L74.5215 11.8055L74.4205 12.1397H73.8537C73.3334 12.1397 72.8131 12.2874 72.2929 12.5905C71.7648 12.8936 71.33 13.3288 70.9728 13.8962C70.6156 14.4636 70.4448 15.163 70.4448 15.9946C70.4448 16.3055 70.538 16.5775 70.7321 16.8107C70.9185 17.0439 71.2135 17.1604 71.6096 17.1604C72.0056 17.1604 72.4792 17.0594 72.9762 16.8496C73.4732 16.6397 73.9624 16.3599 74.436 15.9946C74.9097 15.6294 75.2902 15.2174 75.5853 14.7511V8.51019C75.5853 7.71744 75.7949 7.11123 76.2065 6.69931H71.1902C70.7399 6.69931 70.305 6.87029 69.8702 7.20449C69.4431 7.53869 69.1014 7.88066 68.8607 8.2304H68.2939L65.7314 5.46356L65.9876 4.8418H77.2625L78.9708 6.70708C78.7146 6.87807 78.4894 7.14232 78.3108 7.48428C78.1322 7.82625 78.039 8.23817 78.039 8.70449V16.1345C78.039 16.6864 77.9459 17.1682 77.7517 17.5879C77.5654 17.9998 77.3712 18.3496 77.1849 18.6371C76.9985 18.9247 76.8976 19.1656 76.8976 19.3755C76.8976 19.562 77.014 19.7796 77.247 20.0206C77.48 20.2615 77.744 20.4946 78.0468 20.72C78.3496 20.9454 78.6059 21.1242 78.8078 21.2641L78.3962 21.8314C78.171 21.6915 77.8294 21.4661 77.3635 21.1475C76.8976 20.8288 76.4239 20.4713 75.9425 20.075C75.461 19.6786 75.0728 19.2978 74.7777 18.9325C74.4671 19.0335 74.1643 19.0879 73.8692 19.0879C73.5896 19.0879 73.2169 19.018 72.7433 18.8703C72.2696 18.7226 71.7571 18.5128 71.2058 18.2485C70.6544 17.9843 70.1342 17.6501 69.6372 17.2615C69.148 16.8729 68.7442 16.4299 68.4181 15.9402C68.0997 15.4506 67.9367 14.9143 67.9367 14.347C67.9367 13.8962 68.0065 13.4921 68.1541 13.119C68.3016 12.7459 68.5035 12.4273 68.7598 12.1475H67.1524L65.778 10.3055L65.8789 9.97133H73.1237L73.147 9.96356Z" fill="#EDE6D6"/>
<path d="M78.5748 25.6012L77.8527 25.0338C77.3557 24.6374 76.851 24.3499 76.354 24.1789C75.8571 24.0079 75.3057 23.9224 74.7001 23.9224C74.3351 23.9224 73.9313 23.9691 73.4809 24.0545C73.0306 24.14 72.5336 24.2722 71.9823 24.4431L70.7399 22.2981C71.726 21.9561 72.6035 21.7773 73.38 21.7773C74.1565 21.7773 74.902 22.0183 75.6785 22.4924C76.455 22.9665 77.348 23.6271 78.3652 24.4742L79.0873 25.0727L78.5671 25.6167L78.5748 25.6012Z" fill="#EDE6D6"/>
<path d="M86.6428 9.96356L88.0172 11.8055L87.9162 12.1397H87.3494C86.8291 12.1397 86.3089 12.2874 85.7886 12.5905C85.2606 12.8936 84.8257 13.3288 84.4685 13.8962C84.1113 14.4636 83.9405 15.163 83.9405 15.9946C83.9405 16.3055 84.0337 16.5775 84.2278 16.8107C84.4142 17.0439 84.7093 17.1604 85.1053 17.1604C85.5013 17.1604 85.975 17.0594 86.4719 16.8496C86.9689 16.6397 87.4581 16.3599 87.9318 15.9946C88.4054 15.6294 88.7859 15.2174 89.081 14.7511V8.51019C89.081 7.71744 89.2907 7.11123 89.7022 6.69931H84.686C84.2356 6.69931 83.8007 6.87029 83.3659 7.20449C82.9388 7.53869 82.5972 7.88066 82.3564 8.2304H81.7896L79.2271 5.46356L79.4834 4.8418H90.7583L92.4666 6.70708C92.2103 6.87807 91.9851 7.14232 91.8065 7.48428C91.6279 7.82625 91.5348 8.23817 91.5348 8.70449V16.1345C91.5348 16.6864 91.4416 17.1682 91.2475 17.5879C91.0611 17.9998 90.867 18.3496 90.6806 18.6371C90.4942 18.9247 90.3933 19.1656 90.3933 19.3755C90.3933 19.562 90.5098 19.7796 90.7427 20.0206C90.9757 20.2615 91.2397 20.4946 91.5425 20.72C91.8454 20.9454 92.1016 21.1242 92.3035 21.2641L91.892 21.8314C91.6668 21.6915 91.3251 21.4661 90.8592 21.1475C90.3933 20.8288 89.9196 20.4713 89.4382 20.075C88.9568 19.6786 88.5685 19.2978 88.2734 18.9325C87.9628 19.0335 87.66 19.0879 87.3649 19.0879C87.0854 19.0879 86.7126 19.018 86.239 18.8703C85.7653 18.7226 85.2528 18.5128 84.7015 18.2485C84.1502 17.9843 83.6299 17.6501 83.1329 17.2615C82.6437 16.8729 82.24 16.4299 81.9138 15.9402C81.5955 15.4506 81.4324 14.9143 81.4324 14.347C81.4324 13.8962 81.5023 13.4921 81.6498 13.119C81.7974 12.7459 81.9992 12.4273 82.2555 12.1475H80.6481L79.2737 10.3055L79.3747 9.97133H86.6195L86.6428 9.96356Z" fill="#EDE6D6"/>
<path d="M103.641 16.1268C103.641 16.6786 103.547 17.1605 103.353 17.5801C103.159 17.9921 102.973 18.3418 102.786 18.6294C102.6 18.9169 102.499 19.1579 102.499 19.3677C102.499 19.5542 102.616 19.7718 102.849 20.0128C103.081 20.2537 103.345 20.4869 103.648 20.7123C103.951 20.9377 104.207 21.1164 104.409 21.2563L103.998 21.8237C103.788 21.6993 103.47 21.4972 103.043 21.2019C102.616 20.9066 102.165 20.5801 101.715 20.2071C101.257 19.834 100.868 19.4687 100.535 19.1035C100.208 18.7382 100.045 18.4428 100.045 18.1941C100.045 17.9377 100.139 17.6579 100.333 17.3548C100.519 17.0516 100.713 16.7019 100.899 16.29C101.086 15.8858 101.187 15.404 101.187 14.8522V12.0309C101.016 12.0154 100.83 11.9998 100.643 11.9921C100.457 11.9843 100.263 11.9765 100.076 11.9765C99.4241 11.9765 98.8029 12.2174 98.2128 12.6993C97.6304 13.1812 97.1489 13.8107 96.7762 14.5879C96.4035 15.3651 96.2171 16.2045 96.2171 17.0983C96.2171 17.7356 96.419 18.3807 96.8228 19.0413C97.2266 19.7019 97.8323 20.347 98.6476 20.9843L98.1274 21.5516C96.7685 20.5879 95.6813 19.5853 94.866 18.5516C94.0584 17.518 93.6469 16.562 93.6469 15.676C93.6469 14.6268 93.8721 13.6708 94.3225 12.8159C94.7728 11.961 95.3552 11.277 96.0774 10.7718C96.7995 10.2667 97.5605 10.0102 98.3525 10.0102C98.8728 10.0102 99.362 10.0413 99.8279 10.1112C100.294 10.1812 100.744 10.2822 101.171 10.4221V8.51019C101.171 7.71744 101.381 7.11123 101.792 6.69931H98.1739C97.7236 6.69931 97.2887 6.87029 96.8539 7.20449C96.4268 7.53869 96.0851 7.88066 95.8444 8.2304H95.2776L92.7151 5.46356L92.9713 4.8418H102.849L104.557 6.70708C104.301 6.87807 104.075 7.14232 103.897 7.48428C103.718 7.82625 103.625 8.23817 103.625 8.70449V16.1345L103.641 16.1268Z" fill="#EDE6D6"/>
<path d="M113.929 6.70708C113.673 6.87807 113.448 7.14231 113.269 7.48428C113.091 7.82625 112.997 8.23817 112.997 8.70449V11.9377C112.997 13.0957 112.819 14.0283 112.454 14.7434C112.089 15.4584 111.584 16.018 110.932 16.4143C110.497 16.6553 110.117 16.7952 109.783 16.8263C109.449 16.8573 109.278 16.9273 109.278 17.0361C109.278 17.2071 109.41 17.4636 109.682 17.7978C109.946 18.132 110.287 18.5128 110.707 18.9402C111.118 19.3599 111.553 19.7796 112.011 20.1993C112.469 20.6112 112.896 20.9843 113.293 21.3107L112.772 21.9325C112.306 21.5905 111.771 21.1553 111.157 20.6345C110.544 20.1138 109.93 19.5465 109.309 18.9247C108.688 18.3029 108.113 17.6734 107.577 17.0361C107.042 16.3988 106.615 15.7848 106.281 15.1941C105.955 14.6112 105.791 14.0905 105.791 13.6397C105.791 13.0568 105.892 12.575 106.102 12.2019C106.312 11.8288 106.56 11.549 106.855 11.3625C107.15 11.176 107.422 11.075 107.686 11.075C107.95 11.075 108.237 11.1838 108.556 11.4092C108.874 11.6345 109.169 11.8599 109.433 12.0853C109.697 12.3107 109.876 12.4195 109.961 12.4195C110.148 12.4195 110.295 12.2563 110.404 11.9377C110.505 11.619 110.559 11.1915 110.559 10.6553V8.51019C110.559 7.71744 110.769 7.11123 111.18 6.69931H110.148C109.721 6.7304 109.301 6.91693 108.905 7.24335C108.509 7.56978 108.199 7.8962 107.973 8.2304H107.407L104.844 5.46356L105.1 4.8418H112.236L113.945 6.70708H113.929Z" fill="#EDE6D6"/>
<path d="M115.117 16.0257C115.117 15.4195 115.296 14.8133 115.661 14.1993C116.026 13.5853 116.523 13.0491 117.16 12.5827V8.51796C117.16 7.72522 117.369 7.119 117.781 6.70708C117.346 6.70708 117.028 6.79257 116.81 6.96356C116.593 7.13454 116.422 7.33662 116.282 7.562H115.715L113.828 5.46356L114.085 4.8418H125.336L127.044 6.70708C126.788 6.87807 126.563 7.14232 126.384 7.48428C126.206 7.82625 126.113 8.23817 126.113 8.70449V16.1345C126.113 16.6864 126.019 17.1682 125.825 17.5879C125.631 17.9998 125.445 18.3496 125.259 18.6371C125.072 18.9247 124.971 19.1656 124.971 19.3755C124.971 19.562 125.088 19.7796 125.321 20.0206C125.554 20.2615 125.818 20.4946 126.12 20.72C126.423 20.9454 126.68 21.1242 126.881 21.2641L126.47 21.8314C126.26 21.7071 125.942 21.505 125.515 21.2097C125.088 20.9143 124.637 20.5879 124.187 20.2149C123.729 19.8418 123.341 19.4765 123.007 19.1112C122.673 18.7459 122.517 18.4506 122.517 18.2019C122.517 17.9454 122.611 17.6656 122.805 17.3625C122.991 17.0594 123.185 16.7097 123.372 16.2978C123.558 15.8936 123.659 15.4117 123.659 14.8599V13.2589C123.558 13.2589 123.449 13.2589 123.348 13.2434C123.247 13.2356 123.154 13.2278 123.061 13.2278C122.51 13.2278 121.935 13.2822 121.345 13.3988C120.747 13.5154 120.18 13.7408 119.629 14.0827V18.3807C119.629 18.7226 119.528 19.0413 119.318 19.3288C119.109 19.6164 118.837 19.7563 118.487 19.7563C118.231 19.7563 117.913 19.6475 117.54 19.4221C117.167 19.1967 116.795 18.9014 116.43 18.5439C116.065 18.1864 115.746 17.7822 115.498 17.3392C115.249 16.8962 115.125 16.461 115.125 16.0335L115.117 16.0257ZM123.659 8.51796C123.659 7.72522 123.869 7.119 124.28 6.70708H120.553C120.297 6.87807 120.071 7.14232 119.893 7.48428C119.714 7.82625 119.621 8.23817 119.621 8.70449V11.5024C119.862 11.448 120.11 11.4092 120.359 11.3703C120.607 11.3392 120.863 11.3159 121.12 11.3159C121.586 11.3159 122.028 11.347 122.44 11.4092C122.851 11.4713 123.255 11.5568 123.659 11.6812V8.52573V8.51796Z" fill="#EDE6D6"/>
<path d="M140.905 16.1267C140.905 16.6785 140.812 17.1604 140.618 17.5801C140.424 17.992 140.237 18.3418 140.051 18.6293C139.865 18.9169 139.764 19.1578 139.764 19.3677C139.764 19.5542 139.88 19.7718 140.113 20.0127C140.346 20.2537 140.61 20.4868 140.913 20.7122C141.216 20.9376 141.472 21.1164 141.674 21.2563L141.262 21.8236C141.076 21.7226 140.796 21.5438 140.431 21.2951C140.067 21.0464 139.678 20.7589 139.267 20.4402C138.855 20.1215 138.475 19.7951 138.125 19.4687C137.784 19.1423 137.543 18.8469 137.403 18.5905C137.248 18.6215 137.1 18.6526 136.96 18.6837C136.821 18.707 136.681 18.7226 136.549 18.7226C136.153 18.7226 135.703 18.5982 135.19 18.3573C134.678 18.1164 134.188 17.7977 133.699 17.4091C133.218 17.0205 132.814 16.6008 132.496 16.15C132.177 15.6993 132.014 15.2718 132.014 14.8521C132.014 14.5257 132.115 14.0749 132.325 13.492C132.534 12.9169 132.635 12.2563 132.635 11.5102V8.51015C132.635 8.23813 132.659 7.96611 132.713 7.70963L130.64 5.45575L130.896 4.83398H140.105L141.814 6.69927C141.557 6.87025 141.332 7.1345 141.154 7.47647C140.975 7.81844 140.882 8.23036 140.882 8.69668V16.1267H140.905ZM138.451 8.51792C138.451 7.72518 138.661 7.11896 139.073 6.70704H136.044C135.788 6.87803 135.563 7.14227 135.384 7.48424C135.206 7.82621 135.112 8.23813 135.112 8.70445V12.8703C135.112 13.391 135.05 13.8573 134.934 14.2848C134.817 14.7122 134.693 15.0775 134.569 15.3962C134.445 15.7148 134.39 15.9868 134.39 16.2122C134.39 16.6086 134.553 16.8107 134.879 16.8107C135.19 16.8107 135.563 16.7329 135.99 16.5775C136.417 16.4221 136.86 16.2045 137.31 15.9169C137.76 15.6293 138.141 15.3107 138.451 14.9454V8.52569V8.51792Z" fill="#EDE6D6"/>
<path d="M141.449 25.6012L140.727 25.0338C140.23 24.6374 139.725 24.3499 139.228 24.1789C138.731 24.0079 138.18 23.9224 137.574 23.9224C137.209 23.9224 136.805 23.9691 136.355 24.0545C135.904 24.14 135.407 24.2722 134.856 24.4431L133.614 22.2981C134.6 21.9561 135.477 21.7773 136.254 21.7773C137.03 21.7773 137.776 22.0183 138.552 22.4924C139.329 22.9665 140.222 23.6271 141.239 24.4742L141.961 25.0727L141.441 25.6167L141.449 25.6012Z" fill="#EDE6D6"/>
<path d="M151.202 6.70708C150.945 6.87807 150.72 7.14231 150.542 7.48428C150.363 7.82625 150.27 8.23817 150.27 8.70449V11.9377C150.27 13.0957 150.091 14.0283 149.726 14.7434C149.361 15.4584 148.857 16.018 148.204 16.4143C147.769 16.6553 147.389 16.7952 147.055 16.8263C146.721 16.8573 146.55 16.9273 146.55 17.0361C146.55 17.2071 146.682 17.4636 146.954 17.7978C147.218 18.132 147.56 18.5128 147.979 18.9402C148.391 19.3599 148.826 19.7796 149.284 20.1993C149.742 20.6112 150.169 20.9843 150.565 21.3107L150.045 21.9325C149.579 21.5905 149.043 21.1553 148.43 20.6345C147.816 20.1138 147.203 19.5465 146.581 18.9247C145.96 18.3029 145.386 17.6734 144.85 17.0361C144.314 16.3988 143.887 15.7848 143.553 15.1941C143.227 14.6112 143.064 14.0905 143.064 13.6397C143.064 13.0568 143.165 12.575 143.374 12.2019C143.584 11.8288 143.833 11.549 144.128 11.3625C144.423 11.176 144.695 11.075 144.959 11.075C145.223 11.075 145.51 11.1838 145.828 11.4092C146.147 11.6345 146.442 11.8599 146.706 12.0853C146.97 12.3107 147.148 12.4195 147.234 12.4195C147.42 12.4195 147.568 12.2563 147.676 11.9377C147.777 11.619 147.832 11.1915 147.832 10.6553V8.51019C147.832 7.71744 148.041 7.11123 148.453 6.69931H147.42C146.993 6.7304 146.574 6.91693 146.178 7.24335C145.782 7.56978 145.471 7.8962 145.246 8.2304H144.679L142.117 5.46356L142.373 4.8418H149.509L151.217 6.70708H151.202Z" fill="#EDE6D6"/>
<path d="M155.674 16.1267C155.674 16.6785 155.581 17.1604 155.387 17.5801C155.201 17.992 155.007 18.3418 154.82 18.6293C154.634 18.9169 154.533 19.1578 154.533 19.3677C154.533 19.5542 154.649 19.7718 154.882 20.0127C155.115 20.2537 155.379 20.4868 155.682 20.7122C155.985 20.9376 156.241 21.1164 156.443 21.2563L156.032 21.8236C155.822 21.6993 155.503 21.4972 155.076 21.2019C154.649 20.9065 154.199 20.5801 153.749 20.207C153.29 19.834 152.902 19.4687 152.568 19.1034C152.242 18.7381 152.079 18.4428 152.079 18.1941C152.079 17.9376 152.172 17.6578 152.366 17.3547C152.553 17.0516 152.747 16.7019 152.933 16.2899C153.12 15.8858 153.221 15.4039 153.221 14.8521V8.51015C153.221 7.7174 153.43 7.11119 153.842 6.69927H148.725L148.158 4.83398H154.906L156.614 6.69927C156.358 6.87025 156.132 7.1345 155.954 7.47647C155.775 7.81844 155.682 8.23036 155.682 8.69668V16.1267H155.674Z" fill="#EDE6D6"/>
<path d="M167.105 16.1267C167.105 16.6785 167.011 17.1604 166.817 17.5801C166.623 17.992 166.437 18.3418 166.25 18.6293C166.064 18.9169 165.963 19.1578 165.963 19.3677C165.963 19.5542 166.08 19.7718 166.313 20.0127C166.545 20.2537 166.809 20.4868 167.112 20.7122C167.415 20.9376 167.671 21.1164 167.873 21.2563L167.462 21.8236C167.275 21.7226 166.996 21.5438 166.631 21.2951C166.266 21.0464 165.878 20.7589 165.466 20.4402C165.055 20.1215 164.674 19.7951 164.325 19.4687C163.983 19.1423 163.742 18.8469 163.603 18.5905C163.447 18.6215 163.3 18.6526 163.16 18.6837C163.02 18.707 162.88 18.7226 162.748 18.7226C162.352 18.7226 161.902 18.5982 161.389 18.3573C160.877 18.1164 160.388 17.7977 159.899 17.4091C159.417 17.0205 159.013 16.6008 158.695 16.15C158.377 15.6993 158.214 15.2718 158.214 14.8521C158.214 14.5257 158.314 14.0749 158.524 13.492C158.734 12.9169 158.835 12.2563 158.835 11.5102V8.51015C158.835 8.23813 158.858 7.96611 158.912 7.70963L156.839 5.45575L157.095 4.83398H166.305L168.013 6.69927C167.757 6.87025 167.532 7.1345 167.353 7.47647C167.174 7.81844 167.081 8.23036 167.081 8.69668V16.1267H167.105ZM164.651 8.51792C164.651 7.72518 164.86 7.11896 165.272 6.70704H162.244C161.987 6.87803 161.762 7.14227 161.584 7.48424C161.405 7.82621 161.312 8.23813 161.312 8.70445V12.8703C161.312 13.391 161.25 13.8573 161.133 14.2848C161.017 14.7122 160.892 15.0775 160.768 15.3962C160.644 15.7148 160.59 15.9868 160.59 16.2122C160.59 16.6086 160.753 16.8107 161.079 16.8107C161.389 16.8107 161.762 16.7329 162.189 16.5775C162.616 16.4221 163.059 16.2045 163.509 15.9169C163.96 15.6293 164.34 15.3107 164.651 14.9454V8.52569V8.51792Z" fill="#EDE6D6"/>
<path d="M167.648 25.6012L166.926 25.0338C166.429 24.6374 165.924 24.3499 165.427 24.1789C164.93 24.0079 164.379 23.9224 163.773 23.9224C163.408 23.9224 163.005 23.9691 162.554 24.0545C162.104 24.14 161.607 24.2722 161.056 24.4431L159.813 22.2981C160.799 21.9561 161.677 21.7773 162.453 21.7773C163.23 21.7773 163.975 22.0183 164.752 22.4924C165.528 22.9665 166.421 23.6271 167.438 24.4742L168.161 25.0727L167.64 25.6167L167.648 25.6012Z" fill="#EDE6D6"/>
<path d="M179.21 16.1268C179.21 16.6786 179.117 17.1605 178.923 17.5801C178.729 17.9921 178.542 18.3418 178.356 18.6294C178.17 18.9169 178.069 19.1579 178.069 19.3677C178.069 19.5542 178.185 19.7718 178.418 20.0128C178.651 20.2537 178.915 20.4869 179.218 20.7123C179.521 20.9377 179.777 21.1164 179.979 21.2563L179.567 21.8237C179.358 21.6993 179.039 21.4972 178.612 21.2019C178.185 20.9066 177.735 20.5801 177.285 20.2071C176.826 19.834 176.438 19.4687 176.104 19.1035C175.778 18.7382 175.615 18.4428 175.615 18.1941C175.615 17.9377 175.708 17.6579 175.902 17.3548C176.089 17.0516 176.283 16.7019 176.469 16.29C176.656 15.8858 176.756 15.404 176.756 14.8522V12.0309C176.586 12.0154 176.399 11.9998 176.213 11.9921C176.027 11.9843 175.832 11.9765 175.646 11.9765C174.994 11.9765 174.373 12.2174 173.782 12.6993C173.2 13.1812 172.719 13.8107 172.346 14.5879C171.973 15.3651 171.787 16.2045 171.787 17.0983C171.787 17.7356 171.989 18.3807 172.393 19.0413C172.796 19.7019 173.402 20.347 174.217 20.9843L173.697 21.5516C172.338 20.5879 171.251 19.5853 170.436 18.5516C169.628 17.518 169.217 16.562 169.217 15.676C169.217 14.6268 169.442 13.6708 169.892 12.8159C170.343 11.961 170.925 11.277 171.647 10.7718C172.369 10.2667 173.13 10.0102 173.922 10.0102C174.442 10.0102 174.932 10.0413 175.398 10.1112C175.864 10.1812 176.314 10.2822 176.741 10.4221V8.51019C176.741 7.71744 176.951 7.11123 177.362 6.69931H173.744C173.293 6.69931 172.858 6.87029 172.424 7.20449C171.997 7.53869 171.655 7.88066 171.414 8.2304H170.847L168.285 5.46356L168.541 4.8418H178.418L180.127 6.70708C179.87 6.87807 179.645 7.14232 179.467 7.48428C179.288 7.82625 179.195 8.23817 179.195 8.70449V16.1345L179.21 16.1268Z" fill="#EDE6D6"/>
<path d="M183.349 6.36528C183.038 6.06995 182.72 5.65803 182.394 5.12176C182.068 4.58549 181.905 4.07254 181.905 3.56736C181.905 2.93005 182.184 2.33938 182.736 1.79534C183.287 1.2513 184.017 0.816062 184.918 0.489637C185.826 0.163212 186.797 0 187.83 0C188.606 0 189.46 0.225389 190.392 0.683938C191.324 1.14249 192.256 1.76425 193.195 2.56477C194.135 3.35751 195.004 4.25907 195.797 5.25389L195.276 5.6658C194.275 4.54663 193.304 3.67617 192.357 3.06218C191.409 2.44819 190.423 2.14508 189.406 2.14508C188.389 2.14508 187.558 2.28497 186.82 2.57254C186.075 2.8601 185.5 3.22539 185.088 3.67617C184.677 4.12694 184.467 4.58549 184.467 5.05181C184.467 5.48705 184.599 5.89896 184.871 6.31088C185.135 6.71503 185.43 7.04922 185.741 7.3057C185.484 7.47668 185.259 7.74093 185.081 8.0829C184.902 8.42487 184.809 8.83679 184.809 9.30311V16.1347C184.809 16.6865 184.716 17.1684 184.522 17.5881C184.335 18 184.141 18.3497 183.955 18.6373C183.761 18.9249 183.667 19.1658 183.667 19.3756C183.667 19.5622 183.784 19.7798 184.017 20.0207C184.25 20.2617 184.514 20.4948 184.817 20.7202C185.12 20.9456 185.376 21.1244 185.578 21.2642L185.166 21.8316C184.956 21.7073 184.638 21.5052 184.211 21.2098C183.776 20.9145 183.334 20.5881 182.875 20.215C182.417 19.842 182.029 19.4767 181.695 19.1114C181.361 18.7461 181.206 18.4508 181.206 18.2021C181.206 17.9456 181.299 17.6658 181.493 17.3627C181.68 17.0596 181.874 16.7098 182.06 16.2979C182.246 15.8938 182.347 15.4119 182.347 14.8601V8.90674C182.347 8.32383 182.433 7.8342 182.596 7.4456C182.759 7.05699 183.015 6.69948 183.357 6.37306L183.349 6.36528Z" fill="#EDE6D6"/>
<path d="M202.226 11.9066C201.706 11.7667 201.209 11.6734 200.727 11.619C200.246 11.5646 199.757 11.5413 199.252 11.5413C194.958 11.5413 192.815 13.3211 192.815 16.8729C192.815 17.2848 192.931 17.4946 193.18 17.4946C193.335 17.4946 193.568 17.3548 193.879 17.0827C194.189 16.8107 194.546 16.4687 194.95 16.0568C195.354 15.6527 195.789 15.2408 196.255 14.8288C196.721 14.4169 197.194 14.0672 197.676 13.7952C198.157 13.5231 198.615 13.3832 199.05 13.3832C199.446 13.3832 199.889 13.5154 200.37 13.7718C200.852 14.0283 201.317 14.3547 201.768 14.7434C202.218 15.132 202.583 15.5439 202.878 15.9869C203.173 16.4299 203.321 16.8263 203.321 17.1915C203.321 17.6889 203.181 18.2019 202.894 18.7226C202.606 19.2434 202.226 19.7485 201.745 20.2459L199.446 18.6138C199.788 18.2718 200.122 17.8366 200.44 17.3159C200.758 16.7952 200.921 16.2978 200.921 15.8159C200.921 15.4895 200.766 15.3263 200.456 15.3263C200.145 15.3263 199.772 15.5128 199.33 15.8936C198.887 16.2744 198.421 16.7252 197.916 17.2382C197.419 17.7589 196.915 18.2097 196.418 18.6138C196.938 19.1812 197.551 19.7718 198.266 20.3781C198.98 20.9843 199.648 21.5206 200.269 21.9791L199.702 22.6786C199.011 22.1967 198.274 21.6449 197.482 21.0309C196.689 20.4169 196.014 19.8263 195.463 19.2589C195.338 19.3133 195.214 19.3522 195.09 19.391C194.958 19.4221 194.834 19.4454 194.717 19.4454C194.407 19.4454 194.003 19.3366 193.514 19.1112C193.024 18.8858 192.535 18.5827 192.054 18.2019C191.572 17.8211 191.169 17.3936 190.835 16.904C190.501 16.4143 190.345 15.9325 190.345 15.4273C190.345 13.3755 190.928 11.891 192.093 10.9739C193.257 10.0568 195.067 9.59827 197.513 9.59827C197.963 9.59827 198.406 9.62936 198.848 9.69154C199.291 9.75371 199.749 9.82366 200.23 9.90915V8.51019C200.23 7.71744 200.44 7.11123 200.852 6.69931H194.803C194.368 6.7304 193.956 6.91693 193.56 7.24335C193.164 7.56978 192.854 7.8962 192.628 8.2304H192.062L189.499 5.46356L189.755 4.8418H201.915L203.624 6.70708C203.367 6.87807 203.142 7.14232 202.964 7.48428C202.785 7.82625 202.692 8.23817 202.692 8.70449V11.549L202.249 11.9143L202.226 11.9066Z" fill="#EDE6D6"/>
<path d="M214.72 16.1268C214.72 16.6786 214.627 17.1605 214.433 17.5801C214.239 17.9921 214.052 18.3418 213.866 18.6294C213.68 18.9169 213.579 19.1579 213.579 19.3677C213.579 19.5542 213.695 19.7718 213.928 20.0128C214.161 20.2537 214.425 20.4869 214.728 20.7123C215.031 20.9377 215.287 21.1164 215.489 21.2563L215.077 21.8237C214.868 21.6993 214.549 21.4972 214.122 21.2019C213.695 20.9066 213.245 20.5801 212.794 20.2071C212.336 19.834 211.948 19.4687 211.614 19.1035C211.288 18.7382 211.125 18.4428 211.125 18.1941C211.125 17.9377 211.218 17.6579 211.412 17.3548C211.598 17.0516 211.793 16.7019 211.979 16.29C212.165 15.8858 212.266 15.404 212.266 14.8522V12.0309C212.095 12.0154 211.909 11.9998 211.723 11.9921C211.536 11.9843 211.342 11.9765 211.156 11.9765C210.504 11.9765 209.882 12.2174 209.292 12.6993C208.71 13.1812 208.228 13.8107 207.856 14.5879C207.483 15.3651 207.297 16.2045 207.297 17.0983C207.297 17.7356 207.498 18.3807 207.902 19.0413C208.306 19.7019 208.912 20.347 209.727 20.9843L209.207 21.5516C207.848 20.5879 206.761 19.5853 205.945 18.5516C205.138 17.518 204.726 16.562 204.726 15.676C204.726 14.6268 204.952 13.6708 205.402 12.8159C205.852 11.961 206.435 11.277 207.157 10.7718C207.879 10.2667 208.64 10.0102 209.432 10.0102C209.952 10.0102 210.441 10.0413 210.907 10.1112C211.373 10.1812 211.824 10.2822 212.251 10.4221V8.51019C212.251 7.71744 212.46 7.11123 212.872 6.69931H209.253C208.803 6.69931 208.368 6.87029 207.933 7.20449C207.506 7.53869 207.165 7.88066 206.924 8.2304H206.357L203.795 5.46356L204.051 4.8418H213.928L215.636 6.70708C215.38 6.87807 215.155 7.14232 214.976 7.48428C214.798 7.82625 214.704 8.23817 214.704 8.70449V16.1345L214.72 16.1268Z" fill="#EDE6D6"/>
<path d="M206.054 22.8573C206.932 23.5957 207.77 24.1786 208.578 24.606C209.378 25.0257 210.092 25.2433 210.713 25.2433C211.249 25.2433 211.746 25.1812 212.212 25.0646C212.678 24.9402 213.058 24.7848 213.346 24.5983C213.641 24.4117 213.788 24.2174 213.788 24.0309C213.788 23.6501 213.54 23.4636 213.035 23.4636C212.608 23.4636 212.064 23.518 211.42 23.6345C210.775 23.7433 210.232 23.8677 209.805 24.0076L208.407 22.0646C208.857 21.8936 209.323 21.777 209.82 21.7148C210.309 21.6527 210.799 21.6216 211.28 21.6216C211.661 21.6216 212.127 21.7226 212.678 21.9325C213.229 22.1423 213.773 22.4221 214.308 22.7718C214.844 23.1216 215.287 23.5102 215.644 23.9376C216.001 24.3573 216.172 24.7848 216.172 25.22C216.172 25.461 216.025 25.7174 215.73 25.9972C215.434 26.2693 215.038 26.5102 214.526 26.7123C214.021 26.9066 213.454 27.0076 212.833 27.0076C212.057 27.0076 211.234 26.8444 210.364 26.5257C209.494 26.2071 208.632 25.7718 207.794 25.2278C206.947 24.6838 206.147 24.0775 205.386 23.4014L206.062 22.8573H206.054Z" fill="#EDE6D6"/>
<path d="M217.073 16.0257C217.073 15.4195 217.251 14.8133 217.616 14.1993C217.981 13.5853 218.478 13.0491 219.115 12.5827V8.51796C219.115 7.72522 219.325 7.119 219.736 6.70708C219.301 6.70708 218.983 6.79257 218.766 6.96356C218.548 7.13454 218.377 7.33662 218.238 7.562H217.671L215.784 5.46356L216.04 4.8418H227.292L229 6.70708C228.744 6.87807 228.519 7.14232 228.34 7.48428C228.161 7.82625 228.068 8.23817 228.068 8.70449V16.1345C228.068 16.6864 227.975 17.1682 227.781 17.5879C227.587 17.9998 227.4 18.3496 227.214 18.6371C227.028 18.9247 226.927 19.1656 226.927 19.3755C226.927 19.562 227.043 19.7796 227.276 20.0206C227.509 20.2615 227.773 20.4946 228.076 20.72C228.379 20.9454 228.635 21.1242 228.837 21.2641L228.425 21.8314C228.216 21.7071 227.897 21.505 227.47 21.2097C227.043 20.9143 226.593 20.5879 226.142 20.2149C225.684 19.8418 225.296 19.4765 224.962 19.1112C224.628 18.7459 224.473 18.4506 224.473 18.2019C224.473 17.9454 224.566 17.6656 224.76 17.3625C224.947 17.0594 225.141 16.7097 225.327 16.2978C225.513 15.8936 225.614 15.4117 225.614 14.8599V13.2589C225.513 13.2589 225.405 13.2589 225.304 13.2434C225.203 13.2356 225.11 13.2278 225.016 13.2278C224.465 13.2278 223.891 13.2822 223.3 13.3988C222.702 13.5154 222.136 13.7408 221.584 14.0827V18.3807C221.584 18.7226 221.483 19.0413 221.274 19.3288C221.064 19.6164 220.792 19.7563 220.443 19.7563C220.187 19.7563 219.868 19.6475 219.496 19.4221C219.123 19.1967 218.75 18.9014 218.385 18.5439C218.02 18.1864 217.702 17.7822 217.453 17.3392C217.205 16.8962 217.081 16.461 217.081 16.0335L217.073 16.0257ZM225.607 8.51796C225.607 7.72522 225.816 7.119 226.228 6.70708H222.501C222.244 6.87807 222.019 7.14232 221.841 7.48428C221.662 7.82625 221.569 8.23817 221.569 8.70449V11.5024C221.81 11.448 222.058 11.4092 222.306 11.3703C222.555 11.3392 222.811 11.3159 223.067 11.3159C223.533 11.3159 223.976 11.347 224.388 11.4092C224.799 11.4713 225.203 11.5568 225.607 11.6812V8.52573V8.51796Z" fill="#EDE6D6"/>
</svg>
