<svg width="571" height="1073" viewBox="0 0 571 1073" fill="none" xmlns="http://www.w3.org/2000/svg">
<path d="M570.465 803.878C570.465 811.75 570.09 817.072 569.94 819.171C561.102 931.393 478.485 1058.53 318.121 1072.1C313.177 1072.55 308.908 1068.88 308.458 1063.93C308.009 1058.91 311.679 1054.71 316.623 1054.26C467.475 1041.52 543.575 926.22 552.188 817.747C553.012 807.701 558.555 717.669 498.634 645.628C469.048 610.62 430.848 582.958 388.154 565.791C353.025 551.548 317.971 548.849 280.819 546.001C265.015 544.801 248.687 543.527 232.208 541.353C195.881 536.405 161.801 523.961 130.866 504.47C26.2284 440.301 -21.484 319.833 9.1508 197.566C23.2323 140.143 57.013 88.7923 104.276 52.9592C151.539 17.1262 210.187 -1.61492 269.509 0.109261C274.453 0.259189 278.048 4.3822 278.198 9.32986C278.048 14.2775 273.928 18.1757 268.985 18.0258C213.707 16.4515 159.029 33.9183 115.062 67.2775C71.0945 100.637 39.6358 148.464 26.4531 201.914C-2.30917 316.384 42.3323 429.206 140.079 489.252C168.991 507.394 200.675 518.938 234.38 523.586C250.334 525.685 266.438 526.96 281.943 528.084C318.795 530.933 356.995 533.781 394.595 549.074C439.986 567.365 480.582 596.751 512.116 634.009C564.098 696.454 570.39 771.344 570.39 803.728L570.465 803.878Z" fill="#D8D2C3" fill-opacity="0.05"/>
<path d="M520.131 804.703C520.131 681.237 419.612 581.159 295.575 581.159C171.538 581.159 71.0198 681.237 71.0198 804.703C71.0198 928.17 171.538 1028.25 295.575 1028.25C419.612 1028.25 520.131 928.17 520.131 804.703Z" fill="#D8D2C3" fill-opacity="0.05"/>
<path d="M495.413 268.857C495.413 390.674 395.868 489.702 273.629 489.702C151.389 489.702 51.8445 390.599 51.8445 268.857C51.8445 147.115 151.389 48.0116 273.629 48.0116C395.868 48.0116 495.413 147.115 495.413 268.857ZM70.5699 268.857C70.5699 380.254 161.65 470.886 273.554 470.886C385.457 470.886 476.537 380.254 476.537 268.857C476.537 157.46 385.457 66.8276 273.554 66.8277C161.65 66.8277 70.5699 157.46 70.5699 268.857Z" fill="#D8D2C3" fill-opacity="0.05"/>
</svg>
