<svg width="1771" height="937" viewBox="0 0 1771 937" fill="none" xmlns="http://www.w3.org/2000/svg">
<g clip-path="url(#clip0_394_228)">
<path d="M443.091 937C430.088 937 421.296 936.385 417.828 936.139C232.443 921.621 22.4149 785.919 0.000299768 522.51C-0.742725 514.39 5.32531 507.378 13.4986 506.639C21.7957 505.901 28.7306 511.93 29.4736 520.05C50.526 767.833 240.988 892.832 420.181 906.981C436.775 908.334 585.504 917.438 704.512 819.014C762.344 770.417 808.04 707.671 836.399 637.544C859.928 579.843 864.386 522.264 869.092 461.241C871.073 435.282 873.179 408.461 876.77 381.394C884.943 321.725 905.5 265.746 937.698 214.934C1043.7 43.0607 1242.71 -35.3097 1444.69 15.0098C1539.55 38.1395 1624.38 93.6262 1683.57 171.258C1742.77 248.891 1773.72 345.224 1770.88 442.664C1770.63 450.784 1763.82 456.689 1755.64 456.935C1747.47 456.689 1741.03 449.922 1741.28 441.802C1743.88 351.006 1715.03 261.194 1659.92 188.975C1604.81 116.756 1525.8 65.0832 1437.51 43.4298C1248.41 -3.81388 1062.03 69.5123 962.837 230.067C932.868 277.557 913.797 329.599 906.119 384.962C902.652 411.168 900.547 437.619 898.689 463.087C893.983 523.618 889.277 586.363 864.015 648.125C833.798 722.681 785.254 789.363 723.707 841.159C620.55 926.542 496.836 936.877 443.339 936.877L443.091 937Z" fill="#D8D2C3" fill-opacity="0.02"/>
<path d="M441.728 854.323C645.689 854.323 811.012 689.216 811.012 485.478C811.012 281.74 645.689 116.633 441.728 116.633C237.768 116.633 72.4448 281.74 72.4448 485.478C72.4448 689.216 237.768 854.323 441.728 854.323Z" fill="#D8D2C3" fill-opacity="0.02"/>
<path d="M1326.92 813.723C1125.68 813.723 962.094 650.216 962.094 449.43C962.094 248.644 1125.81 85.137 1326.92 85.137C1528.03 85.137 1691.74 248.644 1691.74 449.43C1691.74 650.216 1528.03 813.723 1326.92 813.723ZM1326.92 115.895C1142.9 115.895 993.177 265.5 993.177 449.307C993.177 633.115 1142.9 782.72 1326.92 782.72C1510.94 782.72 1660.66 633.115 1660.66 449.307C1660.66 265.5 1510.94 115.895 1326.92 115.895Z" fill="#D8D2C3" fill-opacity="0.02"/>
</g>
<defs>
<clipPath id="clip0_394_228">
<rect width="1771" height="937" fill="white"/>
</clipPath>
</defs>
</svg>
