<svg width="575" height="54" viewBox="0 0 575 54" fill="none" xmlns="http://www.w3.org/2000/svg">
<path d="M192.389 25.7453C193.14 12.3921 203.064 4.28151 213.846 3.12478C214.753 3.02331 223.168 2.2454 230.095 7.69082C233.45 10.3696 236.101 13.8262 237.82 17.7767C239.849 22.4036 239.68 27.0982 240.471 31.9889C240.992 35.1141 242.169 38.0973 243.928 40.7287C249.955 49.9554 260.589 53.5339 271.033 50.5913C276.019 49.2181 280.382 46.1673 283.392 41.9463C286.409 37.7252 287.89 32.5977 287.593 27.4093" stroke="#D3C9B2" stroke-width="2.39" stroke-miterlimit="10" stroke-linecap="round"/>
<path d="M215.186 6.78414C226.32 6.47297 235.601 15.2939 235.919 26.4891C236.237 37.6844 227.463 47.0126 216.329 47.3238C205.195 47.635 195.914 38.8141 195.596 27.6188C195.278 16.4236 204.051 7.0953 215.186 6.78414Z" fill="#D3C9B2"/>
<path d="M263.606 8.50931C274.138 8.21167 282.919 16.5591 283.216 27.1455C283.514 37.7387 275.214 46.5596 264.682 46.8573C254.149 47.1549 245.369 38.8075 245.071 28.2211C244.774 17.6279 253.074 8.80695 263.606 8.50931Z" stroke="#D3C9B2" stroke-width="2.51" stroke-miterlimit="10"/>
<path d="M287.769 25.7453C288.52 12.3921 298.443 4.2815 309.226 3.12477C310.132 3.02331 318.548 2.24539 325.474 7.69081C328.83 10.3696 331.481 13.8262 333.199 17.7767C335.229 22.4036 335.06 27.0982 335.851 31.9889C336.372 35.1141 337.549 38.0973 339.308 40.7286C345.335 49.9554 355.969 53.5339 366.413 50.5913C371.399 49.2181 375.762 46.1673 378.772 41.9463C381.789 37.7252 383.27 32.5977 382.973 27.4093" stroke="#D3C9B2" stroke-width="2.39" stroke-miterlimit="10" stroke-linecap="round"/>
<path d="M310.565 6.78414C321.7 6.47297 330.98 15.2939 331.298 26.4891C331.616 37.6844 322.843 47.0126 311.708 47.3238C300.574 47.635 291.293 38.8141 290.975 27.6188C290.657 16.4236 299.431 7.0953 310.565 6.78414Z" fill="#D3C9B2"/>
<path d="M358.986 8.50931C369.518 8.21167 378.299 16.5591 378.596 27.1455C378.894 37.7387 370.594 46.5596 360.061 46.8573C349.529 47.1549 340.749 38.8075 340.451 28.2211C340.153 17.6279 348.454 8.80695 358.986 8.50931Z" stroke="#D3C9B2" stroke-width="2.51" stroke-miterlimit="10"/>
<path d="M24.4265 5.56173C35.5609 5.25056 44.8418 14.0715 45.1597 25.2667C45.4776 36.462 36.7041 45.7902 25.5697 46.1014C14.4353 46.4126 5.15443 37.5916 4.8365 26.3964C4.51857 15.2011 13.2921 5.87289 24.4265 5.56173Z" fill="#D3C9B2"/>
<path d="M72.8472 7.28665C83.3795 6.98901 92.1598 15.3364 92.4575 25.9229C92.7551 36.5161 84.4551 45.337 73.9227 45.6346C63.3904 45.9323 54.6101 37.5849 54.3124 26.9984C54.0148 16.4052 62.3149 7.58429 72.8472 7.28665Z" stroke="#D3C9B2" stroke-width="2.51" stroke-miterlimit="10"/>
<path d="M1.63037 24.5226C2.38123 11.1695 12.3048 3.05885 23.0874 1.90212C23.9938 1.80066 32.4089 1.02274 39.3357 6.46816C42.6909 9.14691 45.3426 12.6036 47.0608 16.554C49.0901 21.181 48.921 25.8755 49.7125 30.7663C50.2333 33.8915 51.4103 36.8746 53.1691 39.506C59.1963 48.7328 69.8301 52.3112 80.2745 49.3686C85.2599 47.9954 89.623 44.9447 92.6332 40.7236C95.6502 36.5026 97.1316 31.3751 96.834 26.1867" stroke="#D3C9B2" stroke-width="2.39" stroke-miterlimit="10" stroke-linecap="round"/>
<path d="M168.227 7.28665C178.759 6.98901 187.539 15.3364 187.837 25.9229C188.135 36.5161 179.834 45.337 169.302 45.6346C158.77 45.9323 149.989 37.5849 149.692 26.9984C149.394 16.4052 157.694 7.58429 168.227 7.28665Z" stroke="#D3C9B2" stroke-width="2.51" stroke-miterlimit="10"/>
<path d="M119.806 5.56173C130.941 5.25056 140.222 14.0715 140.54 25.2667C140.858 36.462 132.084 45.7902 120.95 46.1014C109.815 46.4126 100.534 37.5916 100.216 26.3964C99.8985 15.2011 108.672 5.87289 119.806 5.56173Z" fill="#D3C9B2"/>
<path d="M97.0098 24.5226C97.7606 11.1695 107.684 3.05885 118.467 1.90212C119.373 1.80066 127.788 1.02274 134.715 6.46816C138.07 9.14691 140.722 12.6036 142.44 16.554C144.47 21.181 144.3 25.8755 145.092 30.7663C145.613 33.8915 146.79 36.8746 148.549 39.506C154.576 48.7328 165.209 52.3112 175.654 49.3686C180.639 47.9954 185.002 44.9447 188.013 40.7236C191.03 36.5026 192.511 31.3751 192.213 26.1867" stroke="#D3C9B2" stroke-width="2.39" stroke-miterlimit="10" stroke-linecap="round"/>
<path d="M405.816 7.59102C416.951 7.27985 426.231 16.1008 426.549 27.296C426.867 38.4913 418.094 47.8195 406.959 48.1307C395.825 48.4419 386.544 39.6209 386.226 28.4257C385.908 17.2304 394.682 7.90219 405.816 7.59102Z" fill="#D3C9B2"/>
<path d="M454.237 9.31595C464.769 9.01831 473.549 17.3657 473.847 27.9522C474.145 38.5454 465.845 47.3663 455.312 47.6639C444.78 47.9616 436 39.6142 435.702 29.0277C435.404 18.4345 443.705 9.61359 454.237 9.31595Z" stroke="#D3C9B2" stroke-width="2.51" stroke-miterlimit="10"/>
<path d="M383.02 26.5519C383.771 13.1988 393.694 5.08815 404.477 3.93142C405.383 3.82995 413.799 3.05204 420.725 8.49746C424.081 11.1762 426.732 14.6329 428.45 18.5833C430.48 23.2103 430.311 27.9048 431.102 32.7956C431.623 35.9208 432.8 38.9039 434.559 41.5353C440.586 50.7621 451.22 54.3405 461.664 51.3979C466.65 50.0247 471.013 46.974 474.023 42.7529C477.04 38.5319 478.521 33.4044 478.224 28.216" stroke="#D3C9B2" stroke-width="2.39" stroke-miterlimit="10" stroke-linecap="round"/>
<path d="M549.616 9.31595C560.149 9.01831 568.929 17.3657 569.227 27.9522C569.524 38.5454 561.224 47.3663 550.692 47.6639C540.159 47.9616 531.379 39.6142 531.081 29.0277C530.784 18.4345 539.084 9.61359 549.616 9.31595Z" stroke="#D3C9B2" stroke-width="2.51" stroke-miterlimit="10"/>
<path d="M501.196 7.59102C512.33 7.27985 521.611 16.1008 521.929 27.296C522.247 38.4913 513.474 47.8195 502.339 48.1307C491.205 48.4419 481.924 39.6209 481.606 28.4257C481.288 17.2304 490.062 7.90219 501.196 7.59102Z" fill="#D3C9B2"/>
<path d="M478.399 26.5519C479.15 13.1988 489.074 5.08815 499.856 3.93142C500.763 3.82995 509.178 3.05204 516.105 8.49746C519.46 11.1762 522.112 14.6329 523.83 18.5833C525.859 23.2103 525.69 27.9048 526.481 32.7956C527.002 35.9208 528.179 38.9039 529.938 41.5353C535.965 50.7621 546.599 54.3405 557.044 51.3979C562.029 50.0247 566.392 46.974 569.402 42.7529C572.419 38.5319 573.901 33.4044 573.603 28.216" stroke="#D3C9B2" stroke-width="2.39" stroke-miterlimit="10" stroke-linecap="round"/>
</svg>
