<svg width="80" height="43" viewBox="0 0 80 43" fill="none" xmlns="http://www.w3.org/2000/svg">
<path d="M2.08206 21.4807C2.35574 31.8031 10.0574 38.2948 18.6168 39.4424C19.3363 39.5418 26.0158 40.3428 31.6637 36.2998C34.4014 34.3139 36.5979 31.7045 38.061 28.7003C39.7917 25.1763 39.7716 21.5526 40.5209 17.7973C41.0099 15.3965 42.0207 13.1251 43.4853 11.1359C48.5077 4.15919 57.0608 1.64882 65.3032 4.16314C69.2379 5.34161 72.6379 7.79966 74.9351 11.127C77.2328 14.4543 78.2887 18.4494 77.9271 22.4455" stroke="#D7D1C3" stroke-width="3" stroke-miterlimit="10" stroke-linecap="round"/>
<path d="M19.7727 36.649C28.6309 37.1534 36.236 30.5653 36.7593 21.9342C37.2826 13.303 30.5258 5.89716 21.6676 5.39277C12.8094 4.88838 5.20423 11.4764 4.68097 20.1076C4.15771 28.7388 10.9145 36.1446 19.7727 36.649Z" fill="#D7D1C3"/>
<path d="M58.368 36.464C66.7477 36.9411 73.9418 30.7091 74.4368 22.5444C74.9318 14.3796 68.5402 7.37403 60.1605 6.89689C51.7809 6.41976 44.5865 12.6518 44.0915 20.8165C43.5966 28.9812 49.9884 35.9869 58.368 36.464Z" stroke="#D7D1C3" stroke-width="3.16" stroke-miterlimit="10"/>
</svg>
