<svg width="1687" height="42" viewBox="0 0 1687 42" fill="none" xmlns="http://www.w3.org/2000/svg">
<path d="M1.0673 13.7179C1.51316 6.24366 7.01071 1.72555 12.9662 1.10269C13.4669 1.04797 18.1144 0.63176 21.9258 3.6964C23.7718 5.20385 25.2277 7.14522 26.167 9.36091C27.2765 11.956 27.1721 14.584 27.5975 17.324C27.8778 19.0749 28.5206 20.7478 29.4854 22.225C32.7912 27.4047 38.6534 29.4326 44.4264 27.8091C47.182 27.0517 49.5979 25.3537 51.2697 22.9974C52.9451 20.6411 53.775 17.7737 53.6229 14.8682" stroke="#EDE6D6" stroke-opacity="0.8" stroke-width="1.46011" stroke-miterlimit="10" stroke-linecap="round"/>
<path d="M13.697 3.15452C19.8447 3.00588 24.9478 7.96575 25.097 14.2344C25.2463 20.503 20.3808 25.7054 14.233 25.8541C8.08529 26.0027 2.98223 21.0428 2.83297 14.7742C2.68372 8.50562 7.54926 3.30316 13.697 3.15452Z" fill="#EDE6D6" fill-opacity="0.8"/>
<path d="M40.4247 4.23161C46.24 4.08916 51.0678 8.78278 51.2073 14.7105C51.3468 20.642 46.7438 25.5615 40.9285 25.7039C35.1132 25.8464 30.2854 21.1528 30.1459 15.2251C30.0064 9.29356 34.6094 4.37406 40.4247 4.23161Z" stroke="#EDE6D6" stroke-opacity="0.8" stroke-width="1.53342" stroke-miterlimit="10"/>
<path d="M53.7238 13.9368C54.1697 6.46253 59.6672 1.94442 65.6228 1.32157C66.1234 1.26684 70.771 0.850632 74.5823 3.91527C76.4284 5.42272 77.8842 7.36409 78.8235 9.57978C79.933 12.1749 79.8286 14.8029 80.2541 17.5429C80.5343 19.2938 81.1771 20.9666 82.1419 22.4439C85.4477 27.6236 91.31 29.6514 97.0829 28.028C99.8385 27.2706 102.254 25.5726 103.926 23.2162C105.602 20.8599 106.432 17.9926 106.279 15.0871" stroke="#EDE6D6" stroke-opacity="0.8" stroke-width="1.46011" stroke-miterlimit="10" stroke-linecap="round"/>
<path d="M66.3535 3.37339C72.5012 3.22475 77.6043 8.18463 77.7536 14.4532C77.9028 20.7218 73.0373 25.9243 66.8895 26.0729C60.7418 26.2216 55.6388 21.2617 55.4895 14.9931C55.3402 8.72449 60.2058 3.52204 66.3535 3.37339Z" fill="#EDE6D6" fill-opacity="0.8"/>
<path d="M93.0812 4.45048C98.8965 4.30803 103.724 9.00165 103.864 14.9294C104.003 20.8609 99.4003 25.7804 93.585 25.9228C87.7697 26.0653 82.9419 21.3716 82.8024 15.4439C82.6629 9.51243 87.2659 4.59293 93.0812 4.45048Z" stroke="#EDE6D6" stroke-opacity="0.8" stroke-width="1.53342" stroke-miterlimit="10"/>
<path d="M211.618 15.7297C212.064 8.25538 217.561 3.73727 223.517 3.11441C224.017 3.05969 228.665 2.64348 232.476 5.70812C234.322 7.21557 235.778 9.15694 236.718 11.3726C237.827 13.9678 237.723 16.5957 238.148 19.3357C238.428 21.0866 239.071 22.7595 240.036 24.2368C243.342 29.4164 249.204 31.4443 254.977 29.8208C257.733 29.0634 260.148 27.3654 261.82 25.0091C263.496 22.6528 264.326 19.7855 264.173 16.88" stroke="#EDE6D6" stroke-opacity="0.8" stroke-width="1.46011" stroke-miterlimit="10" stroke-linecap="round"/>
<path d="M224.248 5.16637C230.395 5.01772 235.498 9.9776 235.648 16.2462C235.797 22.5148 230.931 27.7173 224.784 27.8659C218.636 28.0146 213.533 23.0547 213.384 16.7861C213.234 10.5175 218.1 5.31501 224.248 5.16637Z" fill="#EDE6D6" fill-opacity="0.8"/>
<path d="M250.975 6.24333C256.791 6.10088 261.618 10.7945 261.758 16.7222C261.897 22.6537 257.294 27.5732 251.479 27.7157C245.664 27.8581 240.836 23.1645 240.696 17.2368C240.557 11.3053 245.16 6.38578 250.975 6.24333Z" stroke="#EDE6D6" stroke-opacity="0.8" stroke-width="1.53342" stroke-miterlimit="10"/>
<path d="M264.275 15.9487C264.72 8.47437 270.218 3.95626 276.173 3.33341C276.674 3.27868 281.322 2.86247 285.133 5.92711C286.979 7.43456 288.435 9.37593 289.374 11.5916C290.484 14.1868 290.379 16.8147 290.805 19.5547C291.085 21.3056 291.728 22.9785 292.693 24.4558C295.998 29.6354 301.861 31.6633 307.634 30.0398C310.389 29.2824 312.805 27.5844 314.477 25.2281C316.152 22.8718 316.982 20.0045 316.83 17.099" stroke="#EDE6D6" stroke-opacity="0.8" stroke-width="1.46011" stroke-miterlimit="10" stroke-linecap="round"/>
<path d="M276.904 5.38536C283.052 5.23672 288.155 10.1966 288.304 16.4652C288.453 22.7338 283.588 27.9363 277.44 28.0849C271.292 28.2336 266.189 23.2737 266.04 17.0051C265.891 10.7365 270.756 5.534 276.904 5.38536Z" fill="#EDE6D6" fill-opacity="0.8"/>
<path d="M303.632 6.46232C309.447 6.31987 314.275 11.0135 314.414 16.9412C314.554 22.8727 309.951 27.7922 304.136 27.9347C298.32 28.0771 293.492 23.3835 293.353 17.4558C293.213 11.5243 297.816 6.60477 303.632 6.46232Z" stroke="#EDE6D6" stroke-opacity="0.8" stroke-width="1.53342" stroke-miterlimit="10"/>
<path d="M118.937 4.04393C125.085 3.89529 130.188 8.85516 130.337 15.1238C130.487 21.3924 125.621 26.5948 119.473 26.7435C113.326 26.8921 108.223 21.9322 108.073 15.6636C107.924 9.39503 112.79 4.19257 118.937 4.04393Z" fill="#EDE6D6" fill-opacity="0.8"/>
<path d="M145.665 5.12065C151.48 4.9782 156.308 9.67182 156.448 15.5995C156.587 21.531 151.984 26.4505 146.169 26.593C140.353 26.7354 135.526 22.0418 135.386 16.1141C135.247 10.1826 139.85 5.2631 145.665 5.12065Z" stroke="#EDE6D6" stroke-opacity="0.8" stroke-width="1.53342" stroke-miterlimit="10"/>
<path d="M106.308 14.6071C106.753 7.13282 112.251 2.61471 118.206 1.99186C118.707 1.93713 123.355 1.52092 127.166 4.58556C129.012 6.09301 130.468 8.03438 131.407 10.2501C132.517 12.8452 132.412 15.4732 132.838 18.2132C133.118 19.9641 133.761 21.6369 134.726 23.1142C138.031 28.2938 143.894 30.3217 149.667 28.6982C152.422 27.9409 154.838 26.2429 156.51 23.8865C158.185 21.5302 159.015 18.6629 158.863 15.7574" stroke="#EDE6D6" stroke-opacity="0.8" stroke-width="1.46011" stroke-miterlimit="10" stroke-linecap="round"/>
<path d="M198.322 5.33989C204.137 5.19744 208.965 9.89105 209.104 15.8188C209.244 21.7503 204.641 26.6698 198.825 26.8122C193.01 26.9547 188.182 22.261 188.043 16.3333C187.903 10.4018 192.506 5.48234 198.322 5.33989Z" stroke="#EDE6D6" stroke-opacity="0.8" stroke-width="1.53342" stroke-miterlimit="10"/>
<path d="M171.594 4.2628C177.742 4.11416 182.845 9.07403 182.994 15.3426C183.143 21.6113 178.278 26.8137 172.13 26.9624C165.982 27.111 160.879 22.1511 160.73 15.8825C160.581 9.6139 165.446 4.41144 171.594 4.2628Z" fill="#EDE6D6" fill-opacity="0.8"/>
<path d="M158.964 14.8261C159.41 7.35182 164.908 2.83371 170.863 2.21085C171.364 2.15612 176.011 1.73992 179.823 4.80455C181.669 6.312 183.125 8.25337 184.064 10.4691C185.173 13.0642 185.069 15.6922 185.494 18.4321C185.775 20.183 186.417 21.8559 187.382 23.3332C190.688 28.5128 196.55 30.5407 202.323 28.9172C205.079 28.1599 207.495 26.4619 209.167 24.1055C210.842 21.7492 211.672 18.8819 211.52 15.9764" stroke="#EDE6D6" stroke-opacity="0.8" stroke-width="1.46011" stroke-miterlimit="10" stroke-linecap="round"/>
<path d="M329.488 6.05577C335.636 5.90713 340.739 10.867 340.888 17.1356C341.037 23.4042 336.172 28.6067 330.024 28.7553C323.876 28.904 318.773 23.9441 318.624 17.6755C318.475 11.4069 323.34 6.20441 329.488 6.05577Z" fill="#EDE6D6" fill-opacity="0.8"/>
<path d="M356.215 7.13286C362.031 6.99041 366.859 11.684 366.998 17.6117C367.138 23.5432 362.535 28.4627 356.719 28.6052C350.904 28.7476 346.076 24.054 345.937 18.1263C345.797 12.1948 350.4 7.27531 356.215 7.13286Z" stroke="#EDE6D6" stroke-opacity="0.8" stroke-width="1.53342" stroke-miterlimit="10"/>
<path d="M316.858 16.6192C317.304 9.14491 322.801 4.6268 328.757 4.00394C329.258 3.94921 333.905 3.53301 337.717 6.59764C339.563 8.10509 341.018 10.0465 341.958 12.2622C343.067 14.8573 342.963 17.4852 343.388 20.2252C343.669 21.9761 344.311 23.649 345.276 25.1263C348.582 30.3059 354.444 32.3338 360.217 30.7103C362.973 29.953 365.389 28.2549 367.06 25.8986C368.736 23.5423 369.566 20.675 369.414 17.7695" stroke="#EDE6D6" stroke-opacity="0.8" stroke-width="1.46011" stroke-miterlimit="10" stroke-linecap="round"/>
<path d="M408.872 7.35173C414.687 7.20928 419.515 11.9029 419.655 17.8306C419.794 23.7621 415.191 28.6816 409.376 28.8241C403.561 28.9665 398.733 24.2729 398.593 18.3452C398.454 12.4137 403.057 7.49418 408.872 7.35173Z" stroke="#EDE6D6" stroke-opacity="0.8" stroke-width="1.53342" stroke-miterlimit="10"/>
<path d="M382.144 6.27476C388.292 6.12612 393.395 11.086 393.544 17.3546C393.694 23.6232 388.828 28.8257 382.68 28.9743C376.533 29.123 371.43 24.1631 371.28 17.8945C371.131 11.6259 375.997 6.42341 382.144 6.27476Z" fill="#EDE6D6" fill-opacity="0.8"/>
<path d="M369.515 16.8382C369.961 9.3639 375.458 4.84579 381.414 4.22294C381.914 4.16821 386.562 3.752 390.373 6.81664C392.219 8.32409 393.675 10.2655 394.614 12.4812C395.724 15.0763 395.619 17.7042 396.045 20.4442C396.325 22.1951 396.968 23.868 397.933 25.3453C401.239 30.5249 407.101 32.5528 412.874 30.9293C415.629 30.172 418.045 28.4739 419.717 26.1176C421.393 23.7613 422.222 20.894 422.07 17.9885" stroke="#EDE6D6" stroke-opacity="0.8" stroke-width="1.46011" stroke-miterlimit="10" stroke-linecap="round"/>
<path d="M421.947 15.4684C422.393 7.99415 427.89 3.47604 433.846 2.85318C434.346 2.79846 438.994 2.38225 442.805 5.44688C444.651 6.95434 446.107 8.8957 447.046 11.1114C448.156 13.7065 448.052 16.3345 448.477 19.0745C448.757 20.8254 449.4 22.4983 450.365 23.9755C453.671 29.1552 459.533 31.183 465.306 29.5596C468.061 28.8022 470.477 27.1042 472.149 24.7479C473.825 22.3916 474.654 19.5242 474.502 16.6187" stroke="#EDE6D6" stroke-opacity="0.8" stroke-width="1.46011" stroke-miterlimit="10" stroke-linecap="round"/>
<path d="M434.576 4.90525C440.724 4.75661 445.827 9.71649 445.976 15.9851C446.126 22.2537 441.26 27.4562 435.112 27.6048C428.965 27.7535 423.862 22.7936 423.712 16.525C423.563 10.2564 428.429 5.0539 434.576 4.90525Z" fill="#EDE6D6" fill-opacity="0.8"/>
<path d="M461.304 5.98222C467.119 5.83977 471.947 10.5334 472.087 16.4611C472.226 22.3926 467.623 27.3121 461.808 27.4546C455.993 27.597 451.165 22.9034 451.025 16.9757C450.886 11.0442 455.489 6.12467 461.304 5.98222Z" stroke="#EDE6D6" stroke-opacity="0.8" stroke-width="1.53342" stroke-miterlimit="10"/>
<path d="M474.603 15.6874C475.049 8.21314 480.547 3.69503 486.502 3.07218C487.003 3.01745 491.65 2.60124 495.462 5.66588C497.308 7.17333 498.764 9.1147 499.703 11.3304C500.812 13.9255 500.708 16.5535 501.133 19.2935C501.414 21.0444 502.056 22.7172 503.021 24.1945C506.327 29.3742 512.189 31.402 517.962 29.7786C520.718 29.0212 523.134 27.3232 524.806 24.9669C526.481 22.6106 527.311 19.7432 527.159 16.8377" stroke="#EDE6D6" stroke-opacity="0.8" stroke-width="1.46011" stroke-miterlimit="10" stroke-linecap="round"/>
<path d="M487.233 5.12425C493.381 4.9756 498.484 9.93548 498.633 16.2041C498.782 22.4727 493.917 27.6752 487.769 27.8238C481.621 27.9724 476.518 23.0126 476.369 16.744C476.22 10.4753 481.085 5.27289 487.233 5.12425Z" fill="#EDE6D6" fill-opacity="0.8"/>
<path d="M513.961 6.20121C519.776 6.05876 524.604 10.7524 524.743 16.6801C524.883 22.6116 520.28 27.5311 514.464 27.6735C508.649 27.816 503.821 23.1224 503.682 17.1947C503.542 11.2632 508.145 6.34366 513.961 6.20121Z" stroke="#EDE6D6" stroke-opacity="0.8" stroke-width="1.53342" stroke-miterlimit="10"/>
<path d="M632.497 17.4804C632.943 10.0061 638.441 5.488 644.396 4.86515C644.897 4.81042 649.544 4.39421 653.356 7.45885C655.202 8.9663 656.658 10.9077 657.597 13.1234C658.706 15.7185 658.602 18.3465 659.027 21.0864C659.308 22.8373 659.95 24.5102 660.915 25.9875C664.221 31.1671 670.083 33.195 675.856 31.5715C678.612 30.8142 681.028 29.1162 682.7 26.7598C684.375 24.4035 685.205 21.5362 685.053 18.6307" stroke="#EDE6D6" stroke-opacity="0.8" stroke-width="1.46011" stroke-miterlimit="10" stroke-linecap="round"/>
<path d="M645.127 6.91698C651.275 6.76833 656.378 11.7282 656.527 17.9968C656.676 24.2654 651.811 29.4679 645.663 29.6165C639.515 29.7652 634.412 24.8053 634.263 18.5367C634.114 12.2681 638.979 7.06562 645.127 6.91698Z" fill="#EDE6D6" fill-opacity="0.8"/>
<path d="M671.855 7.99394C677.67 7.85149 682.498 12.5451 682.637 18.4728C682.777 24.4043 678.174 29.3238 672.358 29.4663C666.543 29.6087 661.715 24.9151 661.576 18.9874C661.436 13.0559 666.039 8.13639 671.855 7.99394Z" stroke="#EDE6D6" stroke-opacity="0.8" stroke-width="1.53342" stroke-miterlimit="10"/>
<path d="M685.154 17.6995C685.6 10.2252 691.097 5.70712 697.053 5.08426C697.553 5.02954 702.201 4.61333 706.012 7.67796C707.858 9.18542 709.314 11.1268 710.254 13.3425C711.363 15.9376 711.259 18.5656 711.684 21.3056C711.964 23.0565 712.607 24.7293 713.572 26.2066C716.878 31.3862 722.74 33.4141 728.513 31.7907C731.269 31.0333 733.684 29.3353 735.356 26.9789C737.032 24.6226 737.862 21.7553 737.709 18.8498" stroke="#EDE6D6" stroke-opacity="0.8" stroke-width="1.46011" stroke-miterlimit="10" stroke-linecap="round"/>
<path d="M697.784 7.13597C703.931 6.98733 709.034 11.9472 709.184 18.2158C709.333 24.4844 704.467 29.6869 698.32 29.8355C692.172 29.9842 687.069 25.0243 686.92 18.7557C686.77 12.4871 691.636 7.28461 697.784 7.13597Z" fill="#EDE6D6" fill-opacity="0.8"/>
<path d="M724.511 8.21306C730.326 8.0706 735.154 12.7642 735.294 18.6919C735.433 24.6234 730.83 29.5429 725.015 29.6854C719.2 29.8278 714.372 25.1342 714.232 19.2065C714.093 13.275 718.696 8.35551 724.511 8.21306Z" stroke="#EDE6D6" stroke-opacity="0.8" stroke-width="1.53342" stroke-miterlimit="10"/>
<path d="M539.817 5.79442C545.964 5.64577 551.067 10.6056 551.217 16.8743C551.366 23.1429 546.5 28.3453 540.353 28.494C534.205 28.6426 529.102 23.6827 528.953 17.4141C528.803 11.1455 533.669 5.94306 539.817 5.79442Z" fill="#EDE6D6" fill-opacity="0.8"/>
<path d="M566.544 6.8715C572.36 6.72905 577.187 11.4227 577.327 17.3504C577.466 23.2819 572.863 28.2014 567.048 28.3438C561.233 28.4863 556.405 23.7927 556.265 17.865C556.126 11.9335 560.729 7.01395 566.544 6.8715Z" stroke="#EDE6D6" stroke-opacity="0.8" stroke-width="1.53342" stroke-miterlimit="10"/>
<path d="M527.187 16.3577C527.633 8.88343 533.13 4.36532 539.086 3.74247C539.587 3.68774 544.234 3.27153 548.045 6.33617C549.891 7.84362 551.347 9.78499 552.287 12.0007C553.396 14.5958 553.292 17.2238 553.717 19.9638C553.997 21.7147 554.64 23.3875 555.605 24.8648C558.911 30.0445 564.773 32.0723 570.546 30.4489C573.302 29.6915 575.718 27.9935 577.389 25.6371C579.065 23.2808 579.895 20.4135 579.743 17.508" stroke="#EDE6D6" stroke-opacity="0.8" stroke-width="1.46011" stroke-miterlimit="10" stroke-linecap="round"/>
<path d="M619.201 7.0905C625.016 6.94805 629.844 11.6417 629.984 17.5694C630.123 23.5009 625.52 28.4204 619.705 28.5628C613.889 28.7053 609.062 24.0117 608.922 18.0839C608.783 12.1524 613.386 7.23295 619.201 7.0905Z" stroke="#EDE6D6" stroke-opacity="0.8" stroke-width="1.53342" stroke-miterlimit="10"/>
<path d="M592.473 6.01353C598.621 5.86489 603.724 10.8248 603.873 17.0934C604.022 23.362 599.157 28.5644 593.009 28.7131C586.861 28.8617 581.758 23.9019 581.609 17.6332C581.46 11.3646 586.325 6.16218 592.473 6.01353Z" fill="#EDE6D6" fill-opacity="0.8"/>
<path d="M579.843 16.5768C580.289 9.10255 585.787 4.58444 591.742 3.96158C592.243 3.90686 596.891 3.49065 600.702 6.55528C602.548 8.06274 604.004 10.0041 604.943 12.2198C606.053 14.8149 605.948 17.4429 606.374 20.1829C606.654 21.9338 607.297 23.6067 608.262 25.0839C611.567 30.2636 617.43 32.2914 623.203 30.668C625.958 29.9106 628.374 28.2126 630.046 25.8563C631.721 23.5 632.551 20.6326 632.399 17.7271" stroke="#EDE6D6" stroke-opacity="0.8" stroke-width="1.46011" stroke-miterlimit="10" stroke-linecap="round"/>
<path d="M750.367 7.80638C756.515 7.65774 761.618 12.6176 761.767 18.8862C761.917 25.1548 757.051 30.3573 750.903 30.5059C744.756 30.6546 739.653 25.6947 739.503 19.4261C739.354 13.1575 744.22 7.95502 750.367 7.80638Z" fill="#EDE6D6" fill-opacity="0.8"/>
<path d="M777.095 8.88347C782.91 8.74102 787.738 13.4346 787.878 19.3623C788.017 25.2938 783.414 30.2133 777.599 30.3558C771.784 30.4982 766.956 25.8046 766.816 19.8769C766.677 13.9454 771.28 9.02592 777.095 8.88347Z" stroke="#EDE6D6" stroke-opacity="0.8" stroke-width="1.53342" stroke-miterlimit="10"/>
<path d="M737.738 18.3697C738.183 10.8954 743.681 6.37728 749.636 5.75443C750.137 5.6997 754.785 5.2835 758.596 8.34813C760.442 9.85558 761.898 11.797 762.837 14.0126C763.947 16.6078 763.842 19.2357 764.268 21.9757C764.548 23.7266 765.191 25.3995 766.156 26.8768C769.461 32.0564 775.324 34.0843 781.097 32.4608C783.852 31.7035 786.268 30.0054 787.94 27.6491C789.615 25.2928 790.445 22.4255 790.293 19.52" stroke="#EDE6D6" stroke-opacity="0.8" stroke-width="1.46011" stroke-miterlimit="10" stroke-linecap="round"/>
<path d="M829.752 9.10246C835.567 8.96001 840.395 13.6536 840.534 19.5813C840.674 25.5128 836.071 30.4323 830.255 30.5748C824.44 30.7172 819.612 26.0236 819.473 20.0959C819.333 14.1644 823.936 9.24491 829.752 9.10246Z" stroke="#EDE6D6" stroke-opacity="0.8" stroke-width="1.53342" stroke-miterlimit="10"/>
<path d="M803.024 8.0255C809.172 7.87685 814.275 12.8367 814.424 19.1053C814.573 25.374 809.708 30.5764 803.56 30.725C797.412 30.8737 792.309 25.9138 792.16 19.6452C792.011 13.3766 796.876 8.17414 803.024 8.0255Z" fill="#EDE6D6" fill-opacity="0.8"/>
<path d="M790.394 18.5888C790.84 11.1145 796.338 6.5964 802.293 5.97355C802.794 5.91882 807.441 5.50261 811.253 8.56725C813.099 10.0747 814.555 12.0161 815.494 14.2318C816.603 16.8269 816.499 19.4548 816.924 22.1948C817.205 23.9457 817.847 25.6186 818.812 27.0959C822.118 32.2755 827.98 34.3034 833.753 32.6799C836.509 31.9226 838.925 30.2246 840.596 27.8682C842.272 25.5119 843.102 22.6446 842.95 19.7391" stroke="#EDE6D6" stroke-opacity="0.8" stroke-width="1.46011" stroke-miterlimit="10" stroke-linecap="round"/>
<path d="M843.135 19.1867C843.581 11.7124 849.079 7.1943 855.034 6.57144C855.535 6.51672 860.183 6.10051 863.994 9.16515C865.84 10.6726 867.296 12.614 868.235 14.8297C869.345 17.4248 869.24 20.0527 869.666 22.7927C869.946 24.5436 870.589 26.2165 871.554 27.6938C874.859 32.8734 880.722 34.9013 886.495 33.2778C889.25 32.5205 891.666 30.8225 893.338 28.4661C895.013 26.1098 895.843 23.2425 895.691 20.337" stroke="#EDE6D6" stroke-opacity="0.8" stroke-width="1.46011" stroke-miterlimit="10" stroke-linecap="round"/>
<path d="M855.765 8.62339C861.913 8.47475 867.016 13.4346 867.165 19.7032C867.315 25.9718 862.449 31.1743 856.301 31.3229C850.154 31.4716 845.051 26.5117 844.901 20.2431C844.752 13.9745 849.618 8.77204 855.765 8.62339Z" fill="#EDE6D6" fill-opacity="0.8"/>
<path d="M882.493 9.7006C888.308 9.55815 893.136 14.2518 893.276 20.1795C893.415 26.111 888.812 31.0305 882.997 31.1729C877.181 31.3154 872.354 26.6218 872.214 20.6941C872.075 14.7626 876.678 9.84305 882.493 9.7006Z" stroke="#EDE6D6" stroke-opacity="0.8" stroke-width="1.53342" stroke-miterlimit="10"/>
<path d="M895.792 19.4057C896.238 11.9314 901.736 7.41329 907.691 6.79044C908.192 6.73571 912.839 6.3195 916.651 9.38414C918.497 10.8916 919.953 12.833 920.892 15.0487C922.001 17.6438 921.897 20.2717 922.322 23.0117C922.603 24.7626 923.245 26.4355 924.21 27.9128C927.516 33.0924 933.378 35.1203 939.151 33.4968C941.907 32.7395 944.323 31.0414 945.995 28.6851C947.67 26.3288 948.5 23.4615 948.348 20.556" stroke="#EDE6D6" stroke-opacity="0.8" stroke-width="1.46011" stroke-miterlimit="10" stroke-linecap="round"/>
<path d="M908.422 8.84251C914.57 8.69387 919.673 13.6537 919.822 19.9224C919.971 26.191 915.106 31.3934 908.958 31.5421C902.81 31.6907 897.707 26.7308 897.558 20.4622C897.409 14.1936 902.274 8.99115 908.422 8.84251Z" fill="#EDE6D6" fill-opacity="0.8"/>
<path d="M935.149 9.91935C940.965 9.7769 945.793 14.4705 945.932 20.3982C946.072 26.3297 941.469 31.2492 935.653 31.3917C929.838 31.5341 925.01 26.8405 924.871 20.9128C924.731 14.9813 929.334 10.0618 935.149 9.91935Z" stroke="#EDE6D6" stroke-opacity="0.8" stroke-width="1.53342" stroke-miterlimit="10"/>
<path d="M1053.69 21.1985C1054.13 13.7243 1059.63 9.20614 1065.59 8.58329C1066.09 8.52856 1070.73 8.11235 1074.54 11.177C1076.39 12.6844 1077.85 14.6258 1078.79 16.8415C1079.9 19.4366 1079.79 22.0646 1080.22 24.8046C1080.5 26.5555 1081.14 28.2284 1082.1 29.7056C1085.41 34.8853 1091.27 36.9131 1097.05 35.2897C1099.8 34.5323 1102.22 32.8343 1103.89 30.478C1105.56 28.1217 1106.39 25.2543 1106.24 22.3488" stroke="#EDE6D6" stroke-opacity="0.8" stroke-width="1.46011" stroke-miterlimit="10" stroke-linecap="round"/>
<path d="M1066.32 10.6351C1072.46 10.4865 1077.57 15.4463 1077.72 21.715C1077.87 27.9836 1073 33.186 1066.85 33.3347C1060.7 33.4833 1055.6 28.5234 1055.45 22.2548C1055.3 15.9862 1060.17 10.7838 1066.32 10.6351Z" fill="#EDE6D6" fill-opacity="0.8"/>
<path d="M1093.04 11.7123C1098.86 11.5699 1103.69 16.2635 1103.83 22.1912C1103.97 28.1227 1099.36 33.0422 1093.55 33.1847C1087.73 33.3271 1082.9 28.6335 1082.76 22.7058C1082.63 16.7743 1087.23 11.8548 1093.04 11.7123Z" stroke="#EDE6D6" stroke-opacity="0.8" stroke-width="1.53342" stroke-miterlimit="10"/>
<path d="M1106.34 21.4177C1106.79 13.9434 1112.29 9.42526 1118.24 8.8024C1118.74 8.74768 1123.39 8.33147 1127.2 11.3961C1129.05 12.9036 1130.5 14.8449 1131.44 17.0606C1132.55 19.6558 1132.45 22.2837 1132.87 25.0237C1133.15 26.7746 1133.8 28.4475 1134.76 29.9248C1138.07 35.1044 1143.93 37.1323 1149.7 35.5088C1152.46 34.7514 1154.87 33.0534 1156.54 30.6971C1158.22 28.3408 1159.05 25.4734 1158.9 22.568" stroke="#EDE6D6" stroke-opacity="0.8" stroke-width="1.46011" stroke-miterlimit="10" stroke-linecap="round"/>
<path d="M1118.97 10.8541C1125.12 10.7055 1130.22 15.6653 1130.37 21.934C1130.52 28.2026 1125.66 33.405 1119.51 33.5537C1113.36 33.7023 1108.26 28.7424 1108.11 22.4738C1107.96 16.2052 1112.82 11.0028 1118.97 10.8541Z" fill="#EDE6D6" fill-opacity="0.8"/>
<path d="M1145.7 11.9313C1151.52 11.7889 1156.34 16.4825 1156.48 22.4102C1156.62 28.3417 1152.02 33.2612 1146.2 33.4036C1140.39 33.5461 1135.56 28.8525 1135.42 22.9248C1135.28 16.9933 1139.88 12.0738 1145.7 11.9313Z" stroke="#EDE6D6" stroke-opacity="0.8" stroke-width="1.53342" stroke-miterlimit="10"/>
<path d="M961.006 9.5128C967.153 9.36416 972.256 14.324 972.406 20.5926C972.555 26.8613 967.689 32.0637 961.542 32.2124C955.394 32.361 950.291 27.4011 950.142 21.1325C949.992 14.8639 954.858 9.66144 961.006 9.5128Z" fill="#EDE6D6" fill-opacity="0.8"/>
<path d="M987.733 10.5898C993.548 10.4473 998.376 15.1409 998.516 21.0686C998.655 27.0001 994.052 31.9196 988.237 32.0621C982.422 32.2045 977.594 27.5109 977.454 21.5832C977.315 15.6517 981.918 10.7322 987.733 10.5898Z" stroke="#EDE6D6" stroke-opacity="0.8" stroke-width="1.53342" stroke-miterlimit="10"/>
<path d="M948.376 20.076C948.822 12.6017 954.319 8.08358 960.275 7.46073C960.775 7.406 965.423 6.98979 969.234 10.0544C971.08 11.5619 972.536 13.5033 973.475 15.7189C974.585 18.3141 974.48 20.942 974.906 23.682C975.186 25.4329 975.829 27.1058 976.794 28.5831C980.1 33.7627 985.962 35.7906 991.735 34.1671C994.49 33.4098 996.906 31.7117 998.578 29.3554C1000.25 26.9991 1001.08 24.1318 1000.93 21.2263" stroke="#EDE6D6" stroke-opacity="0.8" stroke-width="1.46011" stroke-miterlimit="10" stroke-linecap="round"/>
<path d="M1040.39 10.8089C1046.21 10.6664 1051.03 15.36 1051.17 21.2878C1051.31 27.2193 1046.71 32.1388 1040.89 32.2812C1035.08 32.4237 1030.25 27.73 1030.11 21.8023C1029.97 15.8708 1034.57 10.9513 1040.39 10.8089Z" stroke="#EDE6D6" stroke-opacity="0.8" stroke-width="1.53342" stroke-miterlimit="10"/>
<path d="M1013.66 9.73179C1019.81 9.58315 1024.91 14.543 1025.06 20.8116C1025.21 27.0802 1020.35 32.2827 1014.2 32.4313C1008.05 32.58 1002.95 27.6201 1002.8 21.3515C1002.65 15.0829 1007.51 9.88044 1013.66 9.73179Z" fill="#EDE6D6" fill-opacity="0.8"/>
<path d="M1001.03 20.2951C1001.48 12.8208 1006.98 8.3027 1012.93 7.67984C1013.43 7.62512 1018.08 7.20891 1021.89 10.2735C1023.74 11.781 1025.19 13.7224 1026.13 15.9381C1027.24 18.5332 1027.14 21.1611 1027.56 23.9011C1027.84 25.652 1028.49 27.3249 1029.45 28.8022C1032.76 33.9818 1038.62 36.0097 1044.39 34.3862C1047.15 33.6289 1049.56 31.9308 1051.23 29.5745C1052.91 27.2182 1053.74 24.3509 1053.59 21.4454" stroke="#EDE6D6" stroke-opacity="0.8" stroke-width="1.46011" stroke-miterlimit="10" stroke-linecap="round"/>
<path d="M1171.56 11.5248C1177.7 11.3761 1182.81 16.336 1182.96 22.6046C1183.11 28.8732 1178.24 34.0757 1172.09 34.2243C1165.94 34.373 1160.84 29.4131 1160.69 23.1445C1160.54 16.8759 1165.41 11.6734 1171.56 11.5248Z" fill="#EDE6D6" fill-opacity="0.8"/>
<path d="M1198.28 12.6017C1204.1 12.4593 1208.93 17.1529 1209.07 23.0806C1209.21 29.0121 1204.6 33.9316 1198.79 34.0741C1192.97 34.2165 1188.14 29.5229 1188.01 23.5952C1187.87 17.6637 1192.47 12.7442 1198.28 12.6017Z" stroke="#EDE6D6" stroke-opacity="0.8" stroke-width="1.53342" stroke-miterlimit="10"/>
<path d="M1158.93 22.0881C1159.37 14.6138 1164.87 10.0957 1170.83 9.47281C1171.33 9.41809 1175.97 9.00188 1179.78 12.0665C1181.63 13.574 1183.09 15.5153 1184.03 17.731C1185.14 20.3262 1185.03 22.9541 1185.46 25.6941C1185.74 27.445 1186.38 29.1179 1187.34 30.5952C1190.65 35.7748 1196.51 37.8027 1202.29 36.1792C1205.04 35.4218 1207.46 33.7238 1209.13 31.3675C1210.8 29.0112 1211.63 26.1439 1211.48 23.2384" stroke="#EDE6D6" stroke-opacity="0.8" stroke-width="1.46011" stroke-miterlimit="10" stroke-linecap="round"/>
<path d="M1250.94 12.8207C1256.76 12.6783 1261.58 17.3719 1261.72 23.2996C1261.86 29.2311 1257.26 34.1506 1251.44 34.2931C1245.63 34.4355 1240.8 29.7419 1240.66 23.8142C1240.52 17.8827 1245.13 12.9632 1250.94 12.8207Z" stroke="#EDE6D6" stroke-opacity="0.8" stroke-width="1.53342" stroke-miterlimit="10"/>
<path d="M1224.21 11.7439C1230.36 11.5952 1235.46 16.5551 1235.61 22.8237C1235.76 29.0923 1230.9 34.2948 1224.75 34.4434C1218.6 34.5921 1213.5 29.6322 1213.35 23.3636C1213.2 17.095 1218.06 11.8925 1224.21 11.7439Z" fill="#EDE6D6" fill-opacity="0.8"/>
<path d="M1211.58 22.3071C1212.03 14.8328 1217.53 10.3147 1223.48 9.69181C1223.98 9.63708 1228.63 9.22087 1232.44 12.2855C1234.29 13.793 1235.74 15.7343 1236.68 17.95C1237.79 20.5452 1237.69 23.1731 1238.11 25.9131C1238.39 27.664 1239.04 29.3369 1240 30.8142C1243.31 35.9938 1249.17 38.0217 1254.94 36.3982C1257.7 35.6408 1260.11 33.9428 1261.79 31.5865C1263.46 29.2302 1264.29 26.3629 1264.14 23.4574" stroke="#EDE6D6" stroke-opacity="0.8" stroke-width="1.46011" stroke-miterlimit="10" stroke-linecap="round"/>
<path d="M1264.27 22.7175C1264.71 15.2432 1270.21 10.7251 1276.17 10.1022C1276.67 10.0475 1281.31 9.63127 1285.13 12.6959C1286.97 14.2034 1288.43 16.1447 1289.37 18.3604C1290.48 20.9556 1290.37 23.5835 1290.8 26.3235C1291.08 28.0744 1291.72 29.7473 1292.69 31.2246C1295.99 36.4042 1301.85 38.4321 1307.63 36.8086C1310.38 36.0512 1312.8 34.3532 1314.47 31.9969C1316.15 29.6406 1316.98 26.7733 1316.82 23.8678" stroke="#EDE6D6" stroke-opacity="0.8" stroke-width="1.46011" stroke-miterlimit="10" stroke-linecap="round"/>
<path d="M1276.9 12.1542C1283.04 12.0055 1288.15 16.9654 1288.3 23.234C1288.45 29.5026 1283.58 34.7051 1277.43 34.8537C1271.29 35.0024 1266.18 30.0425 1266.03 23.7739C1265.88 17.5053 1270.75 12.3028 1276.9 12.1542Z" fill="#EDE6D6" fill-opacity="0.8"/>
<path d="M1303.62 13.2314C1309.44 13.0889 1314.27 17.7825 1314.41 23.7102C1314.55 29.6417 1309.94 34.5612 1304.13 34.7037C1298.31 34.8461 1293.49 30.1525 1293.35 24.2248C1293.21 18.2933 1297.81 13.3738 1303.62 13.2314Z" stroke="#EDE6D6" stroke-opacity="0.8" stroke-width="1.53342" stroke-miterlimit="10"/>
<path d="M1316.92 22.9365C1317.37 15.4622 1322.87 10.9441 1328.82 10.3212C1329.32 10.2665 1333.97 9.85027 1337.78 12.9149C1339.63 14.4224 1341.08 16.3637 1342.02 18.5794C1343.13 21.1745 1343.03 23.8025 1343.45 26.5425C1343.73 28.2934 1344.38 29.9663 1345.34 31.4435C1348.65 36.6232 1354.51 38.6511 1360.28 37.0276C1363.04 36.2702 1365.45 34.5722 1367.13 32.2159C1368.8 29.8596 1369.63 26.9922 1369.48 24.0868" stroke="#EDE6D6" stroke-opacity="0.8" stroke-width="1.46011" stroke-miterlimit="10" stroke-linecap="round"/>
<path d="M1329.55 12.3733C1335.7 12.2246 1340.8 17.1845 1340.95 23.4531C1341.1 29.7217 1336.24 34.9242 1330.09 35.0728C1323.94 35.2215 1318.84 30.2616 1318.69 23.993C1318.54 17.7244 1323.41 12.5219 1329.55 12.3733Z" fill="#EDE6D6" fill-opacity="0.8"/>
<path d="M1356.28 13.4501C1362.1 13.3077 1366.92 18.0013 1367.06 23.929C1367.2 29.8605 1362.6 34.78 1356.79 34.9224C1350.97 35.0649 1346.14 30.3713 1346 24.4436C1345.86 18.5121 1350.47 13.5926 1356.28 13.4501Z" stroke="#EDE6D6" stroke-opacity="0.8" stroke-width="1.53342" stroke-miterlimit="10"/>
<path d="M1474.82 24.7293C1475.26 17.255 1480.76 12.7369 1486.72 12.114C1487.22 12.0593 1491.87 11.6431 1495.68 14.7077C1497.52 16.2152 1498.98 18.1566 1499.92 20.3723C1501.03 22.9674 1500.92 25.5954 1501.35 28.3353C1501.63 30.0862 1502.27 31.7591 1503.24 33.2364C1506.54 38.416 1512.4 40.4439 1518.18 38.8204C1520.93 38.0631 1523.35 36.3651 1525.02 34.0087C1526.7 31.6524 1527.53 28.7851 1527.37 25.8796" stroke="#EDE6D6" stroke-opacity="0.8" stroke-width="1.46011" stroke-miterlimit="10" stroke-linecap="round"/>
<path d="M1487.45 14.1659C1493.6 14.0172 1498.7 18.9771 1498.85 25.2457C1499 31.5143 1494.13 36.7168 1487.98 36.8654C1481.84 37.0141 1476.73 32.0542 1476.58 25.7856C1476.43 19.517 1481.3 14.3145 1487.45 14.1659Z" fill="#EDE6D6" fill-opacity="0.8"/>
<path d="M1514.18 15.2431C1519.99 15.1006 1524.82 19.7943 1524.96 25.722C1525.1 31.6535 1520.49 36.573 1514.68 36.7154C1508.86 36.8579 1504.04 32.1642 1503.9 26.2365C1503.76 20.305 1508.36 15.3855 1514.18 15.2431Z" stroke="#EDE6D6" stroke-opacity="0.8" stroke-width="1.53342" stroke-miterlimit="10"/>
<path d="M1527.47 24.9484C1527.92 17.4741 1533.42 12.956 1539.37 12.3332C1539.87 12.2784 1544.52 11.8622 1548.33 14.9269C1550.18 16.4343 1551.63 18.3757 1552.57 20.5914C1553.68 23.1865 1553.58 25.8145 1554 28.5545C1554.28 30.3054 1554.93 31.9782 1555.89 33.4555C1559.2 38.6351 1565.06 40.663 1570.83 39.0396C1573.59 38.2822 1576.01 36.5842 1577.68 34.2278C1579.35 31.8715 1580.18 29.0042 1580.03 26.0987" stroke="#EDE6D6" stroke-opacity="0.8" stroke-width="1.46011" stroke-miterlimit="10" stroke-linecap="round"/>
<path d="M1540.1 14.3849C1546.25 14.2362 1551.36 19.1961 1551.5 25.4647C1551.65 31.7333 1546.79 36.9358 1540.64 37.0844C1534.49 37.2331 1529.39 32.2732 1529.24 26.0046C1529.09 19.736 1533.96 14.5335 1540.1 14.3849Z" fill="#EDE6D6" fill-opacity="0.8"/>
<path d="M1566.83 15.4621C1572.65 15.3196 1577.48 20.0132 1577.61 25.941C1577.75 31.8725 1573.15 36.792 1567.34 36.9344C1561.52 37.0769 1556.69 32.3832 1556.55 26.4555C1556.41 20.524 1561.02 15.6045 1566.83 15.4621Z" stroke="#EDE6D6" stroke-opacity="0.8" stroke-width="1.53342" stroke-miterlimit="10"/>
<path d="M1382.14 13.0436C1388.29 12.8949 1393.39 17.8548 1393.54 24.1234C1393.69 30.392 1388.82 35.5945 1382.67 35.7431C1376.53 35.8918 1371.42 30.9319 1371.27 24.6633C1371.12 18.3947 1375.99 13.1922 1382.14 13.0436Z" fill="#EDE6D6" fill-opacity="0.8"/>
<path d="M1408.86 14.1205C1414.68 13.9781 1419.51 18.6717 1419.65 24.5994C1419.79 30.5309 1415.18 35.4504 1409.37 35.5929C1403.55 35.7353 1398.73 31.0417 1398.59 25.114C1398.45 19.1825 1403.05 14.263 1408.86 14.1205Z" stroke="#EDE6D6" stroke-opacity="0.8" stroke-width="1.53342" stroke-miterlimit="10"/>
<path d="M1369.51 23.6067C1369.95 16.1325 1375.45 11.6143 1381.41 10.9915C1381.91 10.9368 1386.55 10.5206 1390.37 13.5852C1392.21 15.0926 1393.67 17.034 1394.61 19.2497C1395.72 21.8448 1395.61 24.4728 1396.04 27.2128C1396.32 28.9637 1396.96 30.6366 1397.93 32.1138C1401.23 37.2935 1407.09 39.3213 1412.87 37.6979C1415.62 36.9405 1418.04 35.2425 1419.71 32.8862C1421.39 30.5299 1422.22 27.6625 1422.06 24.757" stroke="#EDE6D6" stroke-opacity="0.8" stroke-width="1.46011" stroke-miterlimit="10" stroke-linecap="round"/>
<path d="M1461.52 14.3396C1467.34 14.1972 1472.16 18.8908 1472.3 24.8185C1472.44 30.75 1467.84 35.6695 1462.03 35.812C1456.21 35.9544 1451.38 31.2608 1451.24 25.3331C1451.1 19.4016 1455.71 14.4821 1461.52 14.3396Z" stroke="#EDE6D6" stroke-opacity="0.8" stroke-width="1.53342" stroke-miterlimit="10"/>
<path d="M1434.79 13.2626C1440.94 13.1139 1446.04 18.0738 1446.19 24.3424C1446.34 30.611 1441.48 35.8135 1435.33 35.9621C1429.18 36.1108 1424.08 31.1509 1423.93 24.8823C1423.78 18.6137 1428.65 13.4112 1434.79 13.2626Z" fill="#EDE6D6" fill-opacity="0.8"/>
<path d="M1422.16 23.8259C1422.61 16.3516 1428.11 11.8335 1434.06 11.2106C1434.56 11.1559 1439.21 10.7397 1443.02 13.8043C1444.87 15.3118 1446.32 17.2531 1447.26 19.4688C1448.37 22.064 1448.27 24.6919 1448.69 27.4319C1448.97 29.1828 1449.62 30.8557 1450.58 32.333C1453.89 37.5126 1459.75 39.5405 1465.52 37.917C1468.28 37.1596 1470.69 35.4616 1472.37 33.1053C1474.04 30.749 1474.87 27.8817 1474.72 24.9762" stroke="#EDE6D6" stroke-opacity="0.8" stroke-width="1.46011" stroke-miterlimit="10" stroke-linecap="round"/>
<path d="M1592.69 15.0555C1598.84 14.9069 1603.94 19.8668 1604.09 26.1354C1604.24 32.404 1599.37 37.6064 1593.22 37.7551C1587.08 37.9037 1581.97 32.9438 1581.82 26.6752C1581.67 20.4066 1586.54 15.2042 1592.69 15.0555Z" fill="#EDE6D6" fill-opacity="0.8"/>
<path d="M1619.42 16.1325C1625.23 15.99 1630.06 20.6837 1630.2 26.6114C1630.34 32.5429 1625.73 37.4624 1619.92 37.6048C1614.1 37.7473 1609.28 33.0537 1609.14 27.1259C1609 21.1944 1613.6 16.2749 1619.42 16.1325Z" stroke="#EDE6D6" stroke-opacity="0.8" stroke-width="1.53342" stroke-miterlimit="10"/>
<path d="M1580.06 25.6188C1580.5 18.1445 1586 13.6264 1591.96 13.0036C1592.46 12.9488 1597.11 12.5326 1600.92 15.5973C1602.76 17.1047 1604.22 19.0461 1605.16 21.2618C1606.27 23.8569 1606.16 26.4849 1606.59 29.2249C1606.87 30.9758 1607.51 32.6486 1608.48 34.1259C1611.78 39.3056 1617.64 41.3334 1623.42 39.71C1626.17 38.9526 1628.59 37.2546 1630.26 34.8983C1631.94 32.5419 1632.77 29.6746 1632.61 26.7691" stroke="#EDE6D6" stroke-opacity="0.8" stroke-width="1.46011" stroke-miterlimit="10" stroke-linecap="round"/>
<path d="M1672.07 16.3515C1677.89 16.209 1682.72 20.9026 1682.85 26.8304C1682.99 32.7619 1678.39 37.6814 1672.58 37.8238C1666.76 37.9663 1661.93 33.2726 1661.79 27.3449C1661.65 21.4134 1666.26 16.4939 1672.07 16.3515Z" stroke="#EDE6D6" stroke-opacity="0.8" stroke-width="1.53342" stroke-miterlimit="10"/>
<path d="M1645.34 15.2746C1651.49 15.126 1656.6 20.0859 1656.74 26.3545C1656.89 32.6231 1652.03 37.8256 1645.88 37.9742C1639.73 38.1228 1634.63 33.163 1634.48 26.8944C1634.33 20.6257 1639.2 15.4233 1645.34 15.2746Z" fill="#EDE6D6" fill-opacity="0.8"/>
<path d="M1632.71 25.8378C1633.16 18.3635 1638.66 13.8454 1644.61 13.2226C1645.11 13.1678 1649.76 12.7516 1653.57 15.8163C1655.42 17.3237 1656.88 19.2651 1657.81 21.4808C1658.92 24.0759 1658.82 26.7039 1659.25 29.4439C1659.53 31.1948 1660.17 32.8676 1661.13 34.3449C1664.44 39.5246 1670.3 41.5524 1676.07 39.929C1678.83 39.1716 1681.25 37.4736 1682.92 35.1173C1684.59 32.7609 1685.42 29.8936 1685.27 26.9881" stroke="#EDE6D6" stroke-opacity="0.8" stroke-width="1.46011" stroke-miterlimit="10" stroke-linecap="round"/>
</svg>
