<svg width="1529" height="54" viewBox="0 0 1529 54" fill="none" xmlns="http://www.w3.org/2000/svg">
<path d="M2 24.1282C2.75086 11.1206 12.6744 3.21981 23.457 2.09301C24.3634 1.99417 32.7785 1.23638 39.7053 6.5409C43.0605 9.15033 45.7122 12.5175 47.4304 16.3658C49.4598 20.873 49.2906 25.4461 50.0821 30.2103C50.603 33.2546 51.78 36.1606 53.5387 38.7239C59.5659 47.7119 70.1997 51.1977 80.6441 48.3313C85.6295 46.9937 89.9927 44.0218 93.0029 39.91C96.0198 35.7981 97.5012 30.8033 97.2036 25.7492" stroke="#EDE6D6" stroke-opacity="0.8" stroke-width="2.39" stroke-miterlimit="10" stroke-linecap="round"/>
<path d="M24.7964 5.65778C35.9307 5.35466 45.2116 13.9473 45.5296 24.8529C45.8475 35.7585 37.0739 44.8454 25.9396 45.1485C14.8052 45.4516 5.5243 36.8589 5.20637 25.9533C4.88844 15.0478 13.662 5.96089 24.7964 5.65778Z" fill="#EDE6D6" fill-opacity="0.8"/>
<path d="M73.2168 7.33832C83.7491 7.04838 92.5295 15.1798 92.8271 25.4923C93.1248 35.8114 84.8247 44.4041 74.2924 44.694C63.76 44.984 54.9797 36.8526 54.6821 26.54C54.3844 16.2209 62.6845 7.62826 73.2168 7.33832Z" stroke="#EDE6D6" stroke-opacity="0.8" stroke-width="2.51" stroke-miterlimit="10"/>
<path d="M97.3794 24.1282C98.1303 11.1206 108.054 3.21981 118.836 2.09301C119.743 1.99417 128.158 1.23638 135.085 6.5409C138.44 9.15033 141.092 12.5175 142.81 16.3658C144.839 20.873 144.67 25.4461 145.461 30.2103C145.982 33.2546 147.159 36.1606 148.918 38.7239C154.945 47.7119 165.579 51.1977 176.024 48.3313C181.009 46.9937 185.372 44.0218 188.382 39.91C191.399 35.7981 192.881 30.8033 192.583 25.7492" stroke="#EDE6D6" stroke-opacity="0.8" stroke-width="2.39" stroke-miterlimit="10" stroke-linecap="round"/>
<path d="M120.176 5.65778C131.31 5.35466 140.591 13.9473 140.909 24.8529C141.227 35.7585 132.453 44.8454 121.319 45.1485C110.185 45.4516 100.904 36.8589 100.586 25.9533C100.268 15.0478 109.041 5.96089 120.176 5.65778Z" fill="#EDE6D6" fill-opacity="0.8"/>
<path d="M168.596 7.33832C179.129 7.04838 187.909 15.1798 188.207 25.4923C188.504 35.8114 180.204 44.4041 169.672 44.694C159.139 44.984 150.359 36.8526 150.061 26.54C149.764 16.2209 158.064 7.62826 168.596 7.33832Z" stroke="#EDE6D6" stroke-opacity="0.8" stroke-width="2.51" stroke-miterlimit="10"/>
<path d="M383.389 26.1046C384.14 13.097 394.064 5.19625 404.846 4.06945C405.753 3.97061 414.168 3.21282 421.095 8.51734C424.45 11.1268 427.102 14.494 428.82 18.3422C430.849 22.8494 430.68 27.4225 431.471 32.1867C431.992 35.2311 433.169 38.137 434.928 40.7003C440.955 49.6883 451.589 53.1742 462.034 50.3078C467.019 48.9701 471.382 45.9982 474.392 41.8864C477.409 37.7746 478.891 32.7798 478.593 27.7256" stroke="#EDE6D6" stroke-opacity="0.8" stroke-width="2.39" stroke-miterlimit="10" stroke-linecap="round"/>
<path d="M406.186 7.63434C417.32 7.33123 426.601 15.9239 426.919 26.8295C427.237 37.735 418.463 46.8219 407.329 47.125C396.194 47.4281 386.914 38.8355 386.596 27.9299C386.278 17.0243 395.051 7.93746 406.186 7.63434Z" fill="#EDE6D6" fill-opacity="0.8"/>
<path d="M454.606 9.31476C465.138 9.02482 473.919 17.1562 474.216 27.4687C474.514 37.7879 466.214 46.3805 455.682 46.6705C445.149 46.9604 436.369 38.829 436.071 28.5165C435.774 18.1974 444.074 9.6047 454.606 9.31476Z" stroke="#EDE6D6" stroke-opacity="0.8" stroke-width="2.51" stroke-miterlimit="10"/>
<path d="M478.769 26.1046C479.52 13.097 489.443 5.19625 500.226 4.06945C501.132 3.97061 509.547 3.21282 516.474 8.51734C519.829 11.1268 522.481 14.494 524.199 18.3422C526.229 22.8494 526.059 27.4225 526.851 32.1867C527.372 35.2311 528.549 38.137 530.308 40.7003C536.335 49.6883 546.969 53.1742 557.413 50.3078C562.398 48.9701 566.761 45.9982 569.772 41.8864C572.789 37.7746 574.27 32.7798 573.972 27.7256" stroke="#EDE6D6" stroke-opacity="0.8" stroke-width="2.39" stroke-miterlimit="10" stroke-linecap="round"/>
<path d="M501.565 7.63434C512.7 7.33123 521.98 15.9239 522.298 26.8295C522.616 37.735 513.843 46.8219 502.708 47.125C491.574 47.4281 482.293 38.8355 481.975 27.9299C481.657 17.0243 490.431 7.93746 501.565 7.63434Z" fill="#EDE6D6" fill-opacity="0.8"/>
<path d="M549.986 9.31476C560.518 9.02482 569.298 17.1562 569.596 27.4687C569.894 37.7879 561.593 46.3805 551.061 46.6705C540.529 46.9604 531.749 38.829 531.451 28.5165C531.153 18.1974 539.453 9.6047 549.986 9.31476Z" stroke="#EDE6D6" stroke-opacity="0.8" stroke-width="2.51" stroke-miterlimit="10"/>
<path d="M215.427 6.4433C226.561 6.14019 235.842 14.7329 236.16 25.6384C236.478 36.544 227.704 45.6309 216.57 45.934C205.436 46.2371 196.155 37.6444 195.837 26.7389C195.519 15.8333 204.292 6.74642 215.427 6.4433Z" fill="#EDE6D6" fill-opacity="0.8"/>
<path d="M263.847 8.12384C274.38 7.8339 283.16 15.9653 283.457 26.2778C283.755 36.5969 275.455 45.1896 264.923 45.4795C254.39 45.7695 245.61 37.6381 245.312 27.3256C245.015 17.0064 253.315 8.41378 263.847 8.12384Z" stroke="#EDE6D6" stroke-opacity="0.8" stroke-width="2.51" stroke-miterlimit="10"/>
<path d="M192.63 24.9137C193.381 11.9061 203.305 4.00533 214.087 2.87853C214.994 2.77969 223.409 2.0219 230.336 7.32643C233.691 9.93586 236.343 13.3031 238.061 17.1513C240.09 21.6585 239.921 26.2316 240.712 30.9958C241.233 34.0401 242.41 36.9461 244.169 39.5094C250.196 48.4974 260.83 51.9833 271.274 49.1168C276.26 47.7792 280.623 44.8073 283.633 40.6955C286.65 36.5837 288.132 31.5889 287.834 26.5347" stroke="#EDE6D6" stroke-opacity="0.8" stroke-width="2.39" stroke-miterlimit="10" stroke-linecap="round"/>
<path d="M359.227 8.12384C369.759 7.8339 378.539 15.9653 378.837 26.2778C379.135 36.5969 370.834 45.1896 360.302 45.4795C349.77 45.7695 340.989 37.6381 340.692 27.3256C340.394 17.0064 348.694 8.41378 359.227 8.12384Z" stroke="#EDE6D6" stroke-opacity="0.8" stroke-width="2.51" stroke-miterlimit="10"/>
<path d="M310.806 6.4433C321.941 6.14019 331.221 14.7329 331.539 25.6384C331.857 36.544 323.084 45.6309 311.949 45.934C300.815 46.2371 291.534 37.6444 291.216 26.7389C290.898 15.8333 299.672 6.74642 310.806 6.4433Z" fill="#EDE6D6" fill-opacity="0.8"/>
<path d="M288.01 24.9137C288.761 11.9061 298.684 4.00533 309.467 2.87853C310.373 2.77969 318.788 2.0219 325.715 7.32643C329.07 9.93586 331.722 13.3031 333.44 17.1513C335.47 21.6585 335.301 26.2316 336.092 30.9958C336.613 34.0401 337.79 36.9461 339.549 39.5094C345.576 48.4974 356.21 51.9833 366.654 49.1168C371.639 47.7792 376.003 44.8073 379.013 40.6955C382.03 36.5837 383.511 31.5889 383.213 26.5347" stroke="#EDE6D6" stroke-opacity="0.8" stroke-width="2.39" stroke-miterlimit="10" stroke-linecap="round"/>
<path d="M596.816 8.42011C607.951 8.11699 617.231 16.7097 617.549 27.6152C617.867 38.5208 609.094 47.6077 597.959 47.9108C586.825 48.2139 577.544 39.6212 577.226 28.7157C576.908 17.8101 585.682 8.72322 596.816 8.42011Z" fill="#EDE6D6" fill-opacity="0.8"/>
<path d="M645.237 10.1006C655.769 9.81071 664.549 17.9421 664.847 28.2546C665.145 38.5737 656.844 47.1664 646.312 47.4563C635.78 47.7463 626.999 39.6149 626.702 29.3024C626.404 18.9833 634.704 10.3906 645.237 10.1006Z" stroke="#EDE6D6" stroke-opacity="0.8" stroke-width="2.51" stroke-miterlimit="10"/>
<path d="M574.02 26.8905C574.771 13.8829 584.694 5.98214 595.477 4.85534C596.383 4.7565 604.798 3.99871 611.725 9.30323C615.08 11.9127 617.732 15.2799 619.45 19.1281C621.48 23.6353 621.31 28.2084 622.102 32.9726C622.623 36.0169 623.8 38.9229 625.559 41.4862C631.586 50.4742 642.219 53.9601 652.664 51.0936C657.649 49.756 662.012 46.7841 665.023 42.6723C668.04 38.5605 669.521 33.5657 669.223 28.5115" stroke="#EDE6D6" stroke-opacity="0.8" stroke-width="2.39" stroke-miterlimit="10" stroke-linecap="round"/>
<path d="M740.616 10.1006C751.148 9.81071 759.929 17.9421 760.226 28.2546C760.524 38.5737 752.224 47.1664 741.692 47.4563C731.159 47.7463 722.379 39.6149 722.081 29.3024C721.784 18.9833 730.084 10.3906 740.616 10.1006Z" stroke="#EDE6D6" stroke-opacity="0.8" stroke-width="2.51" stroke-miterlimit="10"/>
<path d="M692.196 8.42011C703.33 8.11699 712.611 16.7097 712.929 27.6152C713.247 38.5208 704.473 47.6077 693.339 47.9108C682.204 48.2139 672.923 39.6212 672.606 28.7157C672.288 17.8101 681.061 8.72322 692.196 8.42011Z" fill="#EDE6D6" fill-opacity="0.8"/>
<path d="M669.399 26.8905C670.15 13.8829 680.074 5.98214 690.856 4.85534C691.763 4.7565 700.178 3.99871 707.105 9.30323C710.46 11.9127 713.112 15.2799 714.83 19.1281C716.859 23.6353 716.69 28.2084 717.481 32.9726C718.002 36.0169 719.179 38.9229 720.938 41.4862C726.965 50.4742 737.599 53.9601 748.043 51.0936C753.029 49.756 757.392 46.7841 760.402 42.6723C763.419 38.5605 764.901 33.5657 764.603 28.5115" stroke="#EDE6D6" stroke-opacity="0.8" stroke-width="2.39" stroke-miterlimit="10" stroke-linecap="round"/>
<path d="M764.359 24.1282C765.11 11.1206 775.034 3.21981 785.817 2.09301C786.723 1.99417 795.138 1.23638 802.065 6.5409C805.42 9.15033 808.072 12.5175 809.79 16.3658C811.819 20.873 811.65 25.4461 812.442 30.2103C812.962 33.2546 814.139 36.1606 815.898 38.7239C821.925 47.7119 832.559 51.1977 843.004 48.3313C847.989 46.9937 852.352 44.0218 855.362 39.91C858.379 35.7981 859.861 30.8033 859.563 25.7492" stroke="#EDE6D6" stroke-opacity="0.8" stroke-width="2.39" stroke-miterlimit="10" stroke-linecap="round"/>
<path d="M787.156 5.65778C798.29 5.35466 807.571 13.9473 807.889 24.8529C808.207 35.7585 799.433 44.8454 788.299 45.1485C777.165 45.4516 767.884 36.8589 767.566 25.9533C767.248 15.0478 776.021 5.96089 787.156 5.65778Z" fill="#EDE6D6" fill-opacity="0.8"/>
<path d="M835.576 7.33832C846.109 7.04838 854.889 15.1798 855.187 25.4923C855.484 35.8114 847.184 44.4041 836.652 44.694C826.12 44.984 817.339 36.8526 817.042 26.54C816.744 16.2209 825.044 7.62826 835.576 7.33832Z" stroke="#EDE6D6" stroke-opacity="0.8" stroke-width="2.51" stroke-miterlimit="10"/>
<path d="M859.739 24.1282C860.49 11.1206 870.413 3.21981 881.196 2.09301C882.102 1.99417 890.517 1.23638 897.444 6.5409C900.799 9.15033 903.451 12.5175 905.169 16.3658C907.199 20.873 907.03 25.4461 907.821 30.2103C908.342 33.2546 909.519 36.1606 911.278 38.7239C917.305 47.7119 927.939 51.1977 938.383 48.3313C943.368 46.9937 947.732 44.0218 950.742 39.91C953.759 35.7981 955.24 30.8033 954.943 25.7492" stroke="#EDE6D6" stroke-opacity="0.8" stroke-width="2.39" stroke-miterlimit="10" stroke-linecap="round"/>
<path d="M882.535 5.65778C893.67 5.35466 902.951 13.9473 903.268 24.8529C903.586 35.7585 894.813 44.8454 883.678 45.1485C872.544 45.4516 863.263 36.8589 862.945 25.9533C862.627 15.0478 871.401 5.96089 882.535 5.65778Z" fill="#EDE6D6" fill-opacity="0.8"/>
<path d="M930.956 7.33832C941.488 7.04838 950.268 15.1798 950.566 25.4923C950.864 35.8114 942.564 44.4041 932.031 44.694C921.499 44.984 912.719 36.8526 912.421 26.54C912.123 16.2209 920.423 7.62826 930.956 7.33832Z" stroke="#EDE6D6" stroke-opacity="0.8" stroke-width="2.51" stroke-miterlimit="10"/>
<path d="M1145.75 26.1046C1146.5 13.097 1156.42 5.19625 1167.21 4.06945C1168.11 3.97061 1176.53 3.21282 1183.45 8.51734C1186.81 11.1268 1189.46 14.494 1191.18 18.3422C1193.21 22.8494 1193.04 27.4225 1193.83 32.1867C1194.35 35.2311 1195.53 38.137 1197.29 40.7003C1203.31 49.6883 1213.95 53.1742 1224.39 50.3078C1229.38 48.9701 1233.74 45.9982 1236.75 41.8864C1239.77 37.7746 1241.25 32.7798 1240.95 27.7256" stroke="#EDE6D6" stroke-opacity="0.8" stroke-width="2.39" stroke-miterlimit="10" stroke-linecap="round"/>
<path d="M1168.55 7.63434C1179.68 7.33123 1188.96 15.9239 1189.28 26.8295C1189.6 37.735 1180.82 46.8219 1169.69 47.125C1158.55 47.4281 1149.27 38.8355 1148.96 27.9299C1148.64 17.0243 1157.41 7.93746 1168.55 7.63434Z" fill="#EDE6D6" fill-opacity="0.8"/>
<path d="M1216.97 9.31476C1227.5 9.02482 1236.28 17.1562 1236.58 27.4687C1236.87 37.7879 1228.57 46.3805 1218.04 46.6705C1207.51 46.9604 1198.73 38.829 1198.43 28.5165C1198.13 18.1974 1206.43 9.6047 1216.97 9.31476Z" stroke="#EDE6D6" stroke-opacity="0.8" stroke-width="2.51" stroke-miterlimit="10"/>
<path d="M1241.13 26.1046C1241.88 13.097 1251.8 5.19625 1262.59 4.06945C1263.49 3.97061 1271.91 3.21282 1278.83 8.51734C1282.19 11.1268 1284.84 14.494 1286.56 18.3422C1288.59 22.8494 1288.42 27.4225 1289.21 32.1867C1289.73 35.2311 1290.91 38.137 1292.67 40.7003C1298.69 49.6883 1309.33 53.1742 1319.77 50.3078C1324.76 48.9701 1329.12 45.9982 1332.13 41.8864C1335.15 37.7746 1336.63 32.7798 1336.33 27.7256" stroke="#EDE6D6" stroke-opacity="0.8" stroke-width="2.39" stroke-miterlimit="10" stroke-linecap="round"/>
<path d="M1263.92 7.63434C1275.06 7.33123 1284.34 15.9239 1284.66 26.8295C1284.98 37.735 1276.2 46.8219 1265.07 47.125C1253.93 47.4281 1244.65 38.8355 1244.33 27.9299C1244.02 17.0243 1252.79 7.93746 1263.92 7.63434Z" fill="#EDE6D6" fill-opacity="0.8"/>
<path d="M1312.35 9.31476C1322.88 9.02482 1331.66 17.1562 1331.96 27.4687C1332.25 37.7879 1323.95 46.3805 1313.42 46.6705C1302.89 46.9604 1294.11 38.829 1293.81 28.5165C1293.51 18.1974 1301.81 9.60469 1312.35 9.31476Z" stroke="#EDE6D6" stroke-opacity="0.8" stroke-width="2.51" stroke-miterlimit="10"/>
<path d="M977.786 6.4433C988.921 6.14019 998.202 14.7329 998.519 25.6384C998.837 36.544 990.064 45.6309 978.929 45.934C967.795 46.2371 958.514 37.6444 958.196 26.7389C957.878 15.8333 966.652 6.74642 977.786 6.4433Z" fill="#EDE6D6" fill-opacity="0.8"/>
<path d="M1026.21 8.12384C1036.74 7.8339 1045.52 15.9653 1045.82 26.2778C1046.11 36.5969 1037.81 45.1896 1027.28 45.4795C1016.75 45.7695 1007.97 37.6381 1007.67 27.3256C1007.37 17.0064 1015.67 8.41378 1026.21 8.12384Z" stroke="#EDE6D6" stroke-opacity="0.8" stroke-width="2.51" stroke-miterlimit="10"/>
<path d="M954.99 24.9137C955.741 11.9061 965.664 4.00533 976.447 2.87853C977.353 2.77969 985.768 2.0219 992.695 7.32643C996.05 9.93586 998.702 13.3031 1000.42 17.1513C1002.45 21.6585 1002.28 26.2316 1003.07 30.9958C1003.59 34.0401 1004.77 36.9461 1006.53 39.5094C1012.56 48.4974 1023.19 51.9833 1033.63 49.1168C1038.62 47.7792 1042.98 44.8073 1045.99 40.6955C1049.01 36.5837 1050.49 31.5889 1050.19 26.5347" stroke="#EDE6D6" stroke-opacity="0.8" stroke-width="2.39" stroke-miterlimit="10" stroke-linecap="round"/>
<path d="M1121.59 8.12384C1132.12 7.8339 1140.9 15.9653 1141.2 26.2778C1141.49 36.5969 1133.19 45.1896 1122.66 45.4795C1112.13 45.7695 1103.35 37.6381 1103.05 27.3256C1102.75 17.0064 1111.05 8.41378 1121.59 8.12384Z" stroke="#EDE6D6" stroke-opacity="0.8" stroke-width="2.51" stroke-miterlimit="10"/>
<path d="M1073.17 6.4433C1084.3 6.14019 1093.58 14.7329 1093.9 25.6384C1094.22 36.544 1085.44 45.6309 1074.31 45.934C1063.17 46.2371 1053.89 37.6444 1053.58 26.7389C1053.26 15.8333 1062.03 6.74642 1073.17 6.4433Z" fill="#EDE6D6" fill-opacity="0.8"/>
<path d="M1050.37 24.9137C1051.12 11.9061 1061.04 4.00533 1071.83 2.87853C1072.73 2.77969 1081.15 2.0219 1088.07 7.32643C1091.43 9.93586 1094.08 13.3031 1095.8 17.1513C1097.83 21.6585 1097.66 26.2316 1098.45 30.9958C1098.97 34.0401 1100.15 36.9461 1101.91 39.5094C1107.94 48.4974 1118.57 51.9833 1129.01 49.1168C1134 47.7792 1138.36 44.8073 1141.37 40.6955C1144.39 36.5837 1145.87 31.5889 1145.57 26.5347" stroke="#EDE6D6" stroke-opacity="0.8" stroke-width="2.39" stroke-miterlimit="10" stroke-linecap="round"/>
<path d="M1359.18 8.42011C1370.31 8.11699 1379.59 16.7097 1379.91 27.6152C1380.23 38.5208 1371.45 47.6077 1360.32 47.9108C1349.18 48.2139 1339.9 39.6212 1339.59 28.7157C1339.27 17.8101 1348.04 8.72322 1359.18 8.42011Z" fill="#EDE6D6" fill-opacity="0.8"/>
<path d="M1407.6 10.1006C1418.13 9.81071 1426.91 17.9421 1427.21 28.2546C1427.5 38.5737 1419.2 47.1664 1408.67 47.4563C1398.14 47.7463 1389.36 39.6149 1389.06 29.3024C1388.76 18.9833 1397.06 10.3906 1407.6 10.1006Z" stroke="#EDE6D6" stroke-opacity="0.8" stroke-width="2.51" stroke-miterlimit="10"/>
<path d="M1336.38 26.8905C1337.13 13.8829 1347.05 5.98214 1357.84 4.85534C1358.74 4.7565 1367.16 3.99871 1374.08 9.30323C1377.44 11.9127 1380.09 15.2799 1381.81 19.1281C1383.84 23.6353 1383.67 28.2084 1384.46 32.9726C1384.98 36.0169 1386.16 38.9229 1387.92 41.4862C1393.95 50.4742 1404.58 53.9601 1415.02 51.0936C1420.01 49.756 1424.37 46.7841 1427.38 42.6723C1430.4 38.5605 1431.88 33.5657 1431.58 28.5115" stroke="#EDE6D6" stroke-opacity="0.8" stroke-width="2.39" stroke-miterlimit="10" stroke-linecap="round"/>
<path d="M1502.98 10.1006C1513.51 9.81071 1522.29 17.9421 1522.59 28.2546C1522.88 38.5737 1514.58 47.1664 1504.05 47.4563C1493.52 47.7463 1484.74 39.6149 1484.44 29.3024C1484.14 18.9833 1492.44 10.3906 1502.98 10.1006Z" stroke="#EDE6D6" stroke-opacity="0.8" stroke-width="2.51" stroke-miterlimit="10"/>
<path d="M1454.56 8.42011C1465.69 8.11699 1474.97 16.7097 1475.29 27.6152C1475.61 38.5208 1466.83 47.6077 1455.7 47.9108C1444.56 48.2139 1435.28 39.6212 1434.97 28.7157C1434.65 17.8101 1443.42 8.72322 1454.56 8.42011Z" fill="#EDE6D6" fill-opacity="0.8"/>
<path d="M1431.76 26.8905C1432.51 13.8829 1442.43 5.98214 1453.22 4.85534C1454.12 4.7565 1462.54 3.99871 1469.46 9.30323C1472.82 11.9127 1475.47 15.2799 1477.19 19.1281C1479.22 23.6353 1479.05 28.2084 1479.84 32.9726C1480.36 36.0169 1481.54 38.9229 1483.3 41.4862C1489.32 50.4742 1499.96 53.9601 1510.4 51.0936C1515.39 49.756 1519.75 46.7841 1522.76 42.6723C1525.78 38.5605 1527.26 33.5657 1526.96 28.5115" stroke="#EDE6D6" stroke-opacity="0.8" stroke-width="2.39" stroke-miterlimit="10" stroke-linecap="round"/>
</svg>
