<svg width="1264" height="52" viewBox="0 0 1264 52" fill="none" xmlns="http://www.w3.org/2000/svg">
<path d="M-29.8144 25.736C-29.3742 33.9988 -23.3516 39.0289 -16.7984 39.7575C-16.2475 39.8213 -11.1329 40.3127 -6.91552 36.9518C-4.87266 35.2984 -3.25651 33.1629 -2.20723 30.7207C-0.967966 27.8603 -1.06506 24.9555 -0.577989 21.9304C-0.257554 19.9974 0.461583 18.1531 1.53393 16.5271C5.20904 10.8255 11.6776 8.62414 18.0231 10.4573C21.0521 11.3128 23.7007 13.2057 25.5254 15.8209C27.3543 18.4362 28.2486 21.6104 28.0614 24.8202" stroke="#F3EEE4" stroke-opacity="0.4" stroke-width="2.39" stroke-miterlimit="10" stroke-linecap="round"/>
<path d="M13.4569 36.4854C19.8591 36.6821 25.2068 31.5279 25.4006 24.9782C25.5944 18.4243 20.5596 12.9567 14.1574 12.7599C7.7552 12.5632 2.40753 17.7174 2.21372 24.2671C2.0199 30.821 7.05471 36.2886 13.4569 36.4854Z" stroke="#F3EEE4" stroke-opacity="0.4" stroke-width="2.51" stroke-miterlimit="10"/>
<path d="M28.1663 25.8502C28.6065 34.1129 34.6291 39.143 41.1824 39.8716C41.7333 39.9355 46.8478 40.4269 51.0652 37.0659C53.1081 35.4125 54.7242 33.277 55.7735 30.8348C57.0127 27.9745 56.9157 25.0696 57.4027 22.0446C57.7232 20.1116 58.4423 18.2672 59.5146 16.6412C63.1898 10.9396 69.6583 8.73828 76.0038 10.5714C79.0328 11.427 81.6814 13.3198 83.5061 15.935C85.335 18.5503 86.2293 21.7246 86.0421 24.9344" stroke="#F3EEE4" stroke-opacity="0.4" stroke-width="2.39" stroke-miterlimit="10" stroke-linecap="round"/>
<path d="M42.0009 37.609C48.769 37.8148 54.4216 32.3682 54.6285 25.4418C54.8353 18.5155 49.5133 12.7334 42.7452 12.5275C35.977 12.3217 30.3245 17.7683 30.1176 24.6947C29.9107 31.621 35.2327 37.4031 42.0009 37.609Z" fill="#F3EEE4" fill-opacity="0.4"/>
<path d="M71.4376 36.5995C77.8398 36.7963 83.1875 31.642 83.3813 25.0923C83.5751 18.5384 78.5403 13.0708 72.1381 12.8741C65.7359 12.6773 60.3882 17.8315 60.1944 24.3812C60.0006 30.9351 65.0354 36.4028 71.4376 36.5995Z" stroke="#F3EEE4" stroke-opacity="0.4" stroke-width="2.51" stroke-miterlimit="10"/>
<path d="M202.033 24.9366C202.473 33.1993 208.495 38.2294 215.049 38.958C215.599 39.0219 220.714 39.5133 224.931 36.1523C226.974 34.499 228.59 32.3634 229.64 29.9212C230.879 27.0609 230.782 24.156 231.269 21.131C231.589 19.198 232.309 17.3536 233.381 15.7276C237.056 10.026 243.525 7.8247 249.87 9.65782C252.899 10.5134 255.548 12.4062 257.372 15.0215C259.201 17.6367 260.096 20.811 259.908 24.0208" stroke="#F3EEE4" stroke-opacity="0.4" stroke-width="2.39" stroke-miterlimit="10" stroke-linecap="round"/>
<path d="M215.867 36.6954C222.635 36.9012 228.288 31.4546 228.495 24.5283C228.702 17.6019 223.38 11.8198 216.612 11.614C209.843 11.4081 204.191 16.8547 203.984 23.7811C203.777 30.7075 209.099 36.4896 215.867 36.6954Z" fill="#F3EEE4" fill-opacity="0.4"/>
<path d="M245.304 35.6859C251.706 35.8827 257.054 30.7285 257.247 24.1787C257.441 17.6248 252.406 12.1572 246.004 11.9605C239.602 11.7637 234.254 16.918 234.061 23.4677C233.867 30.0216 238.902 35.4892 245.304 35.6859Z" stroke="#F3EEE4" stroke-opacity="0.4" stroke-width="2.51" stroke-miterlimit="10"/>
<path d="M260.013 25.0506C260.453 33.3134 266.476 38.3435 273.029 39.072C273.58 39.1359 278.695 39.6273 282.912 36.2664C284.955 34.613 286.571 32.4774 287.62 30.0352C288.86 27.1749 288.763 24.2701 289.25 21.245C289.57 19.312 290.289 17.4677 291.362 15.8417C295.037 10.1401 301.505 7.93872 307.851 9.77183C310.88 10.6274 313.528 12.5202 315.353 15.1355C317.182 17.7507 318.076 20.925 317.889 24.1348" stroke="#F3EEE4" stroke-opacity="0.4" stroke-width="2.39" stroke-miterlimit="10" stroke-linecap="round"/>
<path d="M273.848 36.8094C280.616 37.0152 286.269 31.5686 286.476 24.6423C286.683 17.7159 281.36 11.9338 274.592 11.728C267.824 11.5221 262.172 16.9687 261.965 23.8951C261.758 30.8215 267.08 36.6036 273.848 36.8094Z" fill="#F3EEE4" fill-opacity="0.4"/>
<path d="M303.285 35.7999C309.687 35.9967 315.034 30.8425 315.228 24.2928C315.422 17.7389 310.387 12.2712 303.985 12.0745C297.583 11.8777 292.235 17.032 292.041 23.5817C291.848 30.1356 296.882 35.6032 303.285 35.7999Z" stroke="#F3EEE4" stroke-opacity="0.4" stroke-width="2.51" stroke-miterlimit="10"/>
<path d="M99.9044 37.2238C106.673 37.4297 112.325 31.9831 112.532 25.0567C112.739 18.1303 107.417 12.3482 100.649 12.1424C93.8806 11.9366 88.228 17.3832 88.0211 24.3095C87.8142 31.2359 93.1363 37.018 99.9044 37.2238Z" fill="#F3EEE4" fill-opacity="0.4"/>
<path d="M129.341 36.2144C135.743 36.4111 141.091 31.2569 141.285 24.7072C141.479 18.1533 136.444 12.6857 130.042 12.4889C123.639 12.2922 118.292 17.4464 118.098 23.9961C117.904 30.55 122.939 36.0176 129.341 36.2144Z" stroke="#F3EEE4" stroke-opacity="0.4" stroke-width="2.51" stroke-miterlimit="10"/>
<path d="M86.0699 25.465C86.5101 33.7278 92.5326 38.7579 99.0859 39.4865C99.6368 39.5503 104.751 40.0417 108.969 36.6808C111.012 35.0274 112.628 32.8919 113.677 30.4497C114.916 27.5893 114.819 24.6845 115.306 21.6594C115.627 19.7264 116.346 17.8821 117.418 16.2561C121.093 10.5545 127.562 8.35315 133.907 10.1863C136.936 11.0418 139.585 12.9347 141.41 15.5499C143.239 18.1652 144.133 21.3394 143.946 24.5492" stroke="#F3EEE4" stroke-opacity="0.4" stroke-width="2.39" stroke-miterlimit="10" stroke-linecap="round"/>
<path d="M187.322 36.3284C193.724 36.5251 199.072 31.3709 199.266 24.8212C199.459 18.2673 194.425 12.7997 188.022 12.6029C181.62 12.4062 176.273 17.5604 176.079 24.1101C175.885 30.664 180.92 36.1316 187.322 36.3284Z" stroke="#F3EEE4" stroke-opacity="0.4" stroke-width="2.51" stroke-miterlimit="10"/>
<path d="M157.885 37.3378C164.653 37.5437 170.306 32.0971 170.513 25.1707C170.72 18.2443 165.398 12.4623 158.629 12.2564C151.861 12.0506 146.209 17.4972 146.002 24.4236C145.795 31.3499 151.117 37.132 157.885 37.3378Z" fill="#F3EEE4" fill-opacity="0.4"/>
<path d="M144.051 25.579C144.491 33.8418 150.513 38.8719 157.067 39.6005C157.618 39.6644 162.732 40.1557 166.949 36.7948C168.992 35.1414 170.608 33.0059 171.658 30.5637C172.897 27.7033 172.8 24.7985 173.287 21.7734C173.607 19.8404 174.327 17.9961 175.399 16.3701C179.074 10.6685 185.543 8.46716 191.888 10.3003C194.917 11.1559 197.566 13.0487 199.39 15.6639C201.219 18.2792 202.114 21.4535 201.926 24.6633" stroke="#F3EEE4" stroke-opacity="0.4" stroke-width="2.39" stroke-miterlimit="10" stroke-linecap="round"/>
<path d="M331.751 36.4242C338.52 36.63 344.172 31.1834 344.379 24.257C344.586 17.3307 339.264 11.5486 332.496 11.3427C325.727 11.1369 320.075 16.5835 319.868 23.5099C319.661 30.4362 324.983 36.2183 331.751 36.4242Z" fill="#F3EEE4" fill-opacity="0.4"/>
<path d="M361.188 35.4147C367.59 35.6114 372.938 30.4572 373.132 23.9075C373.326 17.3536 368.291 11.886 361.889 11.6892C355.486 11.4925 350.139 16.6467 349.945 23.1964C349.751 29.7503 354.786 35.2179 361.188 35.4147Z" stroke="#F3EEE4" stroke-opacity="0.4" stroke-width="2.51" stroke-miterlimit="10"/>
<path d="M317.917 24.6653C318.357 32.9281 324.38 37.9582 330.933 38.6868C331.484 38.7507 336.598 39.242 340.816 35.8811C342.859 34.2277 344.475 32.0922 345.524 29.65C346.763 26.7896 346.666 23.8848 347.153 20.8597C347.474 18.9267 348.193 17.0824 349.265 15.4564C352.94 9.7548 359.409 7.55346 365.754 9.38658C368.783 10.2422 371.432 12.135 373.257 14.7502C375.085 17.3655 375.98 20.5398 375.793 23.7496" stroke="#F3EEE4" stroke-opacity="0.4" stroke-width="2.39" stroke-miterlimit="10" stroke-linecap="round"/>
<path d="M419.169 35.5287C425.571 35.7255 430.919 30.5712 431.112 24.0215C431.306 17.4676 426.271 12 419.869 11.8033C413.467 11.6065 408.119 16.7607 407.926 23.3104C407.732 29.8643 412.767 35.332 419.169 35.5287Z" stroke="#F3EEE4" stroke-opacity="0.4" stroke-width="2.51" stroke-miterlimit="10"/>
<path d="M389.732 36.5382C396.5 36.744 402.153 31.2974 402.36 24.371C402.567 17.4447 397.244 11.6626 390.476 11.4567C383.708 11.2509 378.056 16.6975 377.849 23.6239C377.642 30.5502 382.964 36.3323 389.732 36.5382Z" fill="#F3EEE4" fill-opacity="0.4"/>
<path d="M375.975 26.176C376.814 34.4079 383.072 39.1414 389.653 39.5527C390.206 39.5899 395.339 39.8337 399.389 36.2731C401.35 34.523 402.861 32.3119 403.791 29.8219C404.891 26.9051 404.653 24.0083 404.994 20.9633C405.221 19.017 405.85 17.1401 406.842 15.4643C410.238 9.59186 416.593 7.08077 423.019 8.60537C426.086 9.31371 428.823 11.0764 430.772 13.6005C432.725 16.1244 433.771 19.2518 433.739 22.4669" stroke="#F3EEE4" stroke-opacity="0.4" stroke-width="2.39" stroke-miterlimit="10" stroke-linecap="round"/>
<path d="M433.62 26.6475C434.061 34.9103 440.083 39.9404 446.636 40.669C447.187 40.7328 452.302 41.2242 456.519 37.8633C458.562 36.2099 460.178 34.0744 461.228 31.6322C462.467 28.7718 462.37 25.867 462.857 22.8419C463.177 20.9089 463.896 19.0646 464.969 17.4386C468.644 11.737 475.112 9.53564 481.458 11.3688C484.487 12.2243 487.135 14.1172 488.96 16.7324C490.789 19.3477 491.683 22.5219 491.496 25.7317" stroke="#F3EEE4" stroke-opacity="0.4" stroke-width="2.39" stroke-miterlimit="10" stroke-linecap="round"/>
<path d="M447.455 38.4063C454.223 38.6122 459.876 33.1656 460.083 26.2392C460.289 19.3128 454.967 13.5307 448.199 13.3249C441.431 13.1191 435.779 18.5657 435.572 25.492C435.365 32.4184 440.687 38.2005 447.455 38.4063Z" fill="#F3EEE4" fill-opacity="0.4"/>
<path d="M476.892 37.3969C483.294 37.5936 488.642 32.4394 488.835 25.8897C489.029 19.3358 483.994 13.8682 477.592 13.6714C471.19 13.4747 465.842 18.6289 465.649 25.1786C465.455 31.7325 470.49 37.2001 476.892 37.3969Z" stroke="#F3EEE4" stroke-opacity="0.4" stroke-width="2.51" stroke-miterlimit="10"/>
<path d="M491.601 26.7617C492.041 35.0244 498.064 40.0545 504.617 40.7831C505.168 40.847 510.282 41.3383 514.5 37.9774C516.543 36.324 518.159 34.1885 519.208 31.7463C520.447 28.886 520.35 25.9811 520.837 22.9561C521.158 21.0231 521.877 19.1787 522.949 17.5527C526.624 11.8511 533.093 9.64978 539.438 11.4829C542.467 12.3385 545.116 14.2313 546.941 16.8465C548.77 19.4618 549.664 22.6361 549.477 25.8459" stroke="#F3EEE4" stroke-opacity="0.4" stroke-width="2.39" stroke-miterlimit="10" stroke-linecap="round"/>
<path d="M505.435 38.5205C512.204 38.7263 517.856 33.2797 518.063 26.3533C518.27 19.427 512.948 13.6449 506.18 13.439C499.412 13.2332 493.759 18.6798 493.552 25.6062C493.345 32.5325 498.667 38.3146 505.435 38.5205Z" fill="#F3EEE4" fill-opacity="0.4"/>
<path d="M534.872 37.511C541.274 37.7078 546.622 32.5535 546.816 26.0038C547.01 19.4499 541.975 13.9823 535.573 13.7856C529.17 13.5888 523.823 18.743 523.629 25.2927C523.435 31.8466 528.47 37.3143 534.872 37.511Z" stroke="#F3EEE4" stroke-opacity="0.4" stroke-width="2.51" stroke-miterlimit="10"/>
<path d="M665.467 25.8481C665.908 34.1108 671.93 39.1409 678.483 39.8695C679.034 39.9334 684.149 40.4248 688.366 37.0638C690.409 35.4105 692.025 33.2749 693.075 30.8327C694.314 27.9724 694.217 25.0675 694.704 22.0425C695.024 20.1095 695.743 18.2651 696.816 16.6391C700.491 10.9375 706.959 8.7362 713.305 10.5693C716.334 11.4249 718.982 13.3177 720.807 15.933C722.636 18.5482 723.53 21.7225 723.343 24.9323" stroke="#F3EEE4" stroke-opacity="0.4" stroke-width="2.39" stroke-miterlimit="10" stroke-linecap="round"/>
<path d="M679.302 37.607C686.07 37.8129 691.723 32.3663 691.929 25.4399C692.136 18.5135 686.814 12.7314 680.046 12.5256C673.278 12.3198 667.625 17.7663 667.419 24.6927C667.212 31.6191 672.534 37.4012 679.302 37.607Z" fill="#F3EEE4" fill-opacity="0.4"/>
<path d="M708.738 36.5976C715.141 36.7943 720.488 31.6401 720.682 25.0904C720.876 18.5365 715.841 13.0689 709.439 12.8721C703.037 12.6754 697.689 17.8296 697.495 24.3793C697.301 30.9332 702.336 36.4008 708.738 36.5976Z" stroke="#F3EEE4" stroke-opacity="0.4" stroke-width="2.51" stroke-miterlimit="10"/>
<path d="M723.448 25.9622C723.888 34.225 729.911 39.2551 736.464 39.9837C737.015 40.0475 742.129 40.5389 746.347 37.178C748.39 35.5246 750.006 33.3891 751.055 30.9469C752.294 28.0865 752.197 25.1817 752.684 22.1566C753.005 20.2236 753.724 18.3793 754.796 16.7533C758.471 11.0517 764.94 8.85034 771.285 10.6835C774.314 11.539 776.963 13.4318 778.788 16.0471C780.616 18.6624 781.511 21.8366 781.324 25.0464" stroke="#F3EEE4" stroke-opacity="0.4" stroke-width="2.39" stroke-miterlimit="10" stroke-linecap="round"/>
<path d="M737.283 37.721C744.051 37.9269 749.703 32.4803 749.91 25.5539C750.117 18.6275 744.795 12.8454 738.027 12.6396C731.259 12.4338 725.606 17.8804 725.399 24.8067C725.192 31.7331 730.514 37.5152 737.283 37.721Z" fill="#F3EEE4" fill-opacity="0.4"/>
<path d="M766.719 36.7116C773.121 36.9083 778.469 31.7541 778.663 25.2044C778.857 18.6505 773.822 13.1829 767.42 12.9861C761.017 12.7894 755.67 17.9436 755.476 24.4933C755.282 31.0472 760.317 36.5148 766.719 36.7116Z" stroke="#F3EEE4" stroke-opacity="0.4" stroke-width="2.51" stroke-miterlimit="10"/>
<path d="M563.339 38.1353C570.107 38.3412 575.76 32.8946 575.967 25.9682C576.173 19.0418 570.851 13.2597 564.083 13.0539C557.315 12.8481 551.663 18.2947 551.456 25.221C551.249 32.1474 556.571 37.9295 563.339 38.1353Z" fill="#F3EEE4" fill-opacity="0.4"/>
<path d="M592.776 37.1259C599.178 37.3226 604.526 32.1684 604.719 25.6187C604.913 19.0648 599.878 13.5972 593.476 13.4004C587.074 13.2037 581.726 18.3579 581.533 24.9076C581.339 31.4615 586.374 36.9291 592.776 37.1259Z" stroke="#F3EEE4" stroke-opacity="0.4" stroke-width="2.51" stroke-miterlimit="10"/>
<path d="M549.504 26.3765C549.945 34.6393 555.967 39.6694 562.52 40.398C563.071 40.4618 568.186 40.9532 572.403 37.5923C574.446 35.9389 576.062 33.8034 577.112 31.3612C578.351 28.5008 578.254 25.596 578.741 22.5709C579.061 20.6379 579.78 18.7936 580.853 17.1676C584.528 11.466 590.996 9.26465 597.342 11.0978C600.371 11.9533 603.02 13.8462 604.844 16.4614C606.673 19.0767 607.567 22.2509 607.38 25.4607" stroke="#F3EEE4" stroke-opacity="0.4" stroke-width="2.39" stroke-miterlimit="10" stroke-linecap="round"/>
<path d="M650.756 37.2399C657.159 37.4366 662.506 32.2824 662.7 25.7327C662.894 19.1788 657.859 13.7112 651.457 13.5144C645.055 13.3177 639.707 18.4719 639.513 25.0216C639.319 31.5755 644.354 37.0431 650.756 37.2399Z" stroke="#F3EEE4" stroke-opacity="0.4" stroke-width="2.51" stroke-miterlimit="10"/>
<path d="M621.32 38.2493C628.088 38.4552 633.74 33.0086 633.947 26.0822C634.154 19.1558 628.832 13.3738 622.064 13.1679C615.296 12.9621 609.643 18.4087 609.436 25.3351C609.23 32.2614 614.552 38.0435 621.32 38.2493Z" fill="#F3EEE4" fill-opacity="0.4"/>
<path d="M607.485 26.4905C607.925 34.7533 613.948 39.7834 620.501 40.512C621.052 40.5759 626.167 41.0672 630.384 37.7063C632.427 36.0529 634.043 33.9174 635.092 31.4752C636.332 28.6148 636.235 25.71 636.722 22.6849C637.042 20.7519 637.761 18.9076 638.833 17.2816C642.509 11.58 648.977 9.37866 655.323 11.2118C658.352 12.0674 661 13.9602 662.825 16.5754C664.654 19.1907 665.548 22.365 665.361 25.5748" stroke="#F3EEE4" stroke-opacity="0.4" stroke-width="2.39" stroke-miterlimit="10" stroke-linecap="round"/>
<path d="M795.186 37.3357C801.954 37.5415 807.607 32.0949 807.814 25.1685C808.02 18.2422 802.698 12.4601 795.93 12.2542C789.162 12.0484 783.51 17.495 783.303 24.4214C783.096 31.3477 788.418 37.1298 795.186 37.3357Z" fill="#F3EEE4" fill-opacity="0.4"/>
<path d="M824.623 36.3262C831.025 36.5229 836.373 31.3687 836.566 24.819C836.76 18.2651 831.725 12.7975 825.323 12.6007C818.921 12.404 813.573 17.5582 813.379 24.1079C813.186 30.6618 818.22 36.1294 824.623 36.3262Z" stroke="#F3EEE4" stroke-opacity="0.4" stroke-width="2.51" stroke-miterlimit="10"/>
<path d="M781.351 25.5768C781.792 33.8396 787.814 38.8697 794.367 39.5983C794.918 39.6622 800.033 40.1535 804.25 36.7926C806.293 35.1392 807.909 33.0037 808.959 30.5615C810.198 27.7011 810.101 24.7963 810.588 21.7712C810.908 19.8382 811.627 17.9939 812.7 16.3679C816.375 10.6663 822.843 8.46496 829.189 10.2981C832.218 11.1537 834.866 13.0465 836.691 15.6617C838.52 18.277 839.414 21.4513 839.227 24.6611" stroke="#F3EEE4" stroke-opacity="0.4" stroke-width="2.39" stroke-miterlimit="10" stroke-linecap="round"/>
<path d="M882.603 36.4402C889.006 36.637 894.353 31.4827 894.547 24.933C894.741 18.3791 889.706 12.9115 883.304 12.7148C876.902 12.518 871.554 17.6722 871.36 24.2219C871.166 30.7758 876.201 36.2435 882.603 36.4402Z" stroke="#F3EEE4" stroke-opacity="0.4" stroke-width="2.51" stroke-miterlimit="10"/>
<path d="M853.167 37.4497C859.935 37.6555 865.587 32.2089 865.794 25.2825C866.001 18.3562 860.679 12.5741 853.911 12.3682C847.143 12.1624 841.49 17.609 841.283 24.5354C841.076 31.4617 846.399 37.2438 853.167 37.4497Z" fill="#F3EEE4" fill-opacity="0.4"/>
<path d="M839.332 25.6908C839.772 33.9536 845.795 38.9837 852.348 39.7123C852.899 39.7762 858.014 40.2675 862.231 36.9066C864.274 35.2532 865.89 33.1177 866.939 30.6755C868.179 27.8152 868.081 24.9103 868.568 21.8853C868.889 19.9522 869.608 18.1079 870.68 16.4819C874.356 10.7803 880.824 8.57898 887.17 10.4121C890.199 11.2677 892.847 13.1605 894.672 15.7757C896.501 18.391 897.395 21.5653 897.208 24.7751" stroke="#F3EEE4" stroke-opacity="0.4" stroke-width="2.39" stroke-miterlimit="10" stroke-linecap="round"/>
<path d="M894.903 25.629C895.343 33.8917 901.365 38.9218 907.919 39.6504C908.47 39.7143 913.584 40.2057 917.802 36.8447C919.844 35.1913 921.461 33.0558 922.51 30.6136C923.749 27.7533 923.652 24.8484 924.139 21.8234C924.459 19.8904 925.179 18.046 926.251 16.42C929.926 10.7184 936.395 8.51709 942.74 10.3502C945.769 11.2058 948.418 13.0986 950.242 15.7139C952.071 18.3291 952.966 21.5034 952.778 24.7132" stroke="#F3EEE4" stroke-opacity="0.4" stroke-width="2.39" stroke-miterlimit="10" stroke-linecap="round"/>
<path d="M908.737 37.3878C915.505 37.5936 921.158 32.147 921.365 25.2206C921.572 18.2943 916.25 12.5122 909.481 12.3064C902.713 12.1005 897.061 17.5471 896.854 24.4735C896.647 31.3999 901.969 37.1819 908.737 37.3878Z" fill="#F3EEE4" fill-opacity="0.4"/>
<path d="M938.174 36.3783C944.576 36.5751 949.924 31.4208 950.118 24.8711C950.311 18.3172 945.277 12.8496 938.874 12.6529C932.472 12.4561 927.125 17.6103 926.931 24.1601C926.737 30.714 931.772 36.1816 938.174 36.3783Z" stroke="#F3EEE4" stroke-opacity="0.4" stroke-width="2.51" stroke-miterlimit="10"/>
<path d="M952.883 25.7431C953.323 34.0059 959.346 39.036 965.899 39.7646C966.45 39.8284 971.565 40.3198 975.782 36.9589C977.825 35.3055 979.441 33.1699 980.49 30.7278C981.73 27.8674 981.632 24.9626 982.12 21.9375C982.44 20.0045 983.159 18.1602 984.231 16.5342C987.907 10.8326 994.375 8.63122 1000.72 10.4643C1003.75 11.3199 1006.4 13.2127 1008.22 15.828C1010.05 18.4433 1010.95 21.6175 1010.76 24.8273" stroke="#F3EEE4" stroke-opacity="0.4" stroke-width="2.39" stroke-miterlimit="10" stroke-linecap="round"/>
<path d="M966.718 37.5019C973.486 37.7078 979.138 32.2612 979.345 25.3348C979.552 18.4084 974.23 12.6263 967.462 12.4205C960.694 12.2146 955.041 17.6612 954.834 24.5876C954.627 31.514 959.95 37.2961 966.718 37.5019Z" fill="#F3EEE4" fill-opacity="0.4"/>
<path d="M996.154 36.4925C1002.56 36.6892 1007.9 31.535 1008.1 24.9853C1008.29 18.4314 1003.26 12.9637 996.855 12.767C990.453 12.5703 985.105 17.7245 984.911 24.2742C984.717 30.8281 989.752 36.2957 996.154 36.4925Z" stroke="#F3EEE4" stroke-opacity="0.4" stroke-width="2.51" stroke-miterlimit="10"/>
<path d="M1126.75 24.8295C1127.19 33.0923 1133.21 38.1224 1139.77 38.851C1140.32 38.9148 1145.43 39.4062 1149.65 36.0453C1151.69 34.3919 1153.31 32.2564 1154.36 29.8142C1155.6 26.9538 1155.5 24.049 1155.99 21.0239C1156.31 19.0909 1157.03 17.2466 1158.1 15.6206C1161.77 9.91898 1168.24 7.71765 1174.59 9.55076C1177.62 10.4063 1180.26 12.2992 1182.09 14.9144C1183.92 17.5297 1184.81 20.7039 1184.63 23.9137" stroke="#F3EEE4" stroke-opacity="0.4" stroke-width="2.39" stroke-miterlimit="10" stroke-linecap="round"/>
<path d="M1140.58 36.5885C1147.35 36.7943 1153 31.3477 1153.21 24.4213C1153.42 17.495 1148.1 11.7129 1141.33 11.507C1134.56 11.3012 1128.91 16.7478 1128.7 23.6742C1128.49 30.6005 1133.82 36.3826 1140.58 36.5885Z" fill="#F3EEE4" fill-opacity="0.4"/>
<path d="M1170.02 35.579C1176.42 35.7757 1181.77 30.6215 1181.96 24.0718C1182.16 17.5179 1177.12 12.0503 1170.72 11.8535C1164.32 11.6568 1158.97 16.811 1158.78 23.3607C1158.58 29.9146 1163.62 35.3823 1170.02 35.579Z" stroke="#F3EEE4" stroke-opacity="0.4" stroke-width="2.51" stroke-miterlimit="10"/>
<path d="M1184.73 24.9437C1185.17 33.2064 1191.19 38.2365 1197.75 38.9651C1198.3 39.029 1203.41 39.5204 1207.63 36.1594C1209.67 34.506 1211.29 32.3705 1212.34 29.9283C1213.58 27.068 1213.48 24.1631 1213.97 21.1381C1214.29 19.2051 1215.01 17.3607 1216.08 15.7347C1219.75 10.0331 1226.22 7.83178 1232.57 9.6649C1235.6 10.5205 1238.25 12.4133 1240.07 15.0285C1241.9 17.6438 1242.79 20.8181 1242.61 24.0279" stroke="#F3EEE4" stroke-opacity="0.4" stroke-width="2.39" stroke-miterlimit="10" stroke-linecap="round"/>
<path d="M1198.56 36.7025C1205.33 36.9083 1210.99 31.4617 1211.19 24.5353C1211.4 17.609 1206.08 11.8269 1199.31 11.621C1192.54 11.4152 1186.89 16.8618 1186.68 23.7882C1186.47 30.7145 1191.8 36.4966 1198.56 36.7025Z" fill="#F3EEE4" fill-opacity="0.4"/>
<path d="M1228 35.693C1234.4 35.8898 1239.75 30.7355 1239.94 24.1858C1240.14 17.6319 1235.1 12.1643 1228.7 11.9676C1222.3 11.7708 1216.95 16.925 1216.76 23.4747C1216.56 30.0286 1221.6 35.4963 1228 35.693Z" stroke="#F3EEE4" stroke-opacity="0.4" stroke-width="2.51" stroke-miterlimit="10"/>
<path d="M1024.62 37.1168C1031.39 37.3226 1037.04 31.876 1037.25 24.9496C1037.46 18.0233 1032.13 12.2412 1025.37 12.0354C1018.6 11.8295 1012.94 17.2761 1012.74 24.2025C1012.53 31.1289 1017.85 36.9109 1024.62 37.1168Z" fill="#F3EEE4" fill-opacity="0.4"/>
<path d="M1054.06 36.1073C1060.46 36.3041 1065.81 31.1498 1066 24.6001C1066.2 18.0462 1061.16 12.5786 1054.76 12.3819C1048.36 12.1851 1043.01 17.3393 1042.81 23.8891C1042.62 30.443 1047.66 35.9106 1054.06 36.1073Z" stroke="#F3EEE4" stroke-opacity="0.4" stroke-width="2.51" stroke-miterlimit="10"/>
<path d="M1010.79 25.358C1011.23 33.6207 1017.25 38.6508 1023.8 39.3794C1024.35 39.4433 1029.47 39.9347 1033.69 36.5737C1035.73 34.9203 1037.34 32.7848 1038.39 30.3426C1039.63 27.4823 1039.54 24.5774 1040.02 21.5524C1040.34 19.6194 1041.06 17.775 1042.14 16.149C1045.81 10.4474 1052.28 8.24609 1058.62 10.0792C1061.65 10.9348 1064.3 12.8276 1066.13 15.4429C1067.96 18.0581 1068.85 21.2324 1068.66 24.4422" stroke="#F3EEE4" stroke-opacity="0.4" stroke-width="2.39" stroke-miterlimit="10" stroke-linecap="round"/>
<path d="M1112.04 36.2213C1118.44 36.4181 1123.79 31.2639 1123.98 24.7141C1124.18 18.1602 1119.14 12.6926 1112.74 12.4959C1106.34 12.2991 1100.99 17.4534 1100.8 24.0031C1100.6 30.557 1105.64 36.0246 1112.04 36.2213Z" stroke="#F3EEE4" stroke-opacity="0.4" stroke-width="2.51" stroke-miterlimit="10"/>
<path d="M1082.6 37.2308C1089.37 37.4366 1095.02 31.99 1095.23 25.0637C1095.44 18.1373 1090.11 12.3552 1083.35 12.1494C1076.58 11.9435 1070.93 17.3901 1070.72 24.3165C1070.51 31.2429 1075.83 37.025 1082.6 37.2308Z" fill="#F3EEE4" fill-opacity="0.4"/>
<path d="M1068.77 25.472C1069.21 33.7347 1075.23 38.7648 1081.78 39.4934C1082.33 39.5573 1087.45 40.0487 1091.67 36.6877C1093.71 35.0344 1095.33 32.8988 1096.37 30.4566C1097.61 27.5963 1097.52 24.6914 1098 21.6664C1098.32 19.7334 1099.04 17.889 1100.12 16.263C1103.79 10.5614 1110.26 8.3601 1116.6 10.1932C1119.63 11.0488 1122.28 12.9416 1124.11 15.5569C1125.94 18.1721 1126.83 21.3464 1126.64 24.5562" stroke="#F3EEE4" stroke-opacity="0.4" stroke-width="2.39" stroke-miterlimit="10" stroke-linecap="round"/>
<path d="M1256.47 36.3171C1263.24 36.5229 1268.89 31.0763 1269.1 24.15C1269.3 17.2236 1263.98 11.4415 1257.21 11.2357C1250.44 11.0298 1244.79 16.4764 1244.58 23.4028C1244.38 30.3292 1249.7 36.1113 1256.47 36.3171Z" fill="#F3EEE4" fill-opacity="0.4"/>
<path d="M1242.63 24.5583C1243.07 32.8211 1249.1 37.8511 1255.65 38.5797C1256.2 38.6436 1261.32 39.135 1265.53 35.7741C1267.58 34.1207 1269.19 31.9851 1270.24 29.5429C1271.48 26.6826 1271.38 23.7777 1271.87 20.7527C1272.19 18.8197 1272.91 16.9753 1273.98 15.3494C1277.66 9.64774 1284.13 7.44641 1290.47 9.27952C1293.5 10.1351 1296.15 12.0279 1297.97 14.6432C1299.8 17.2584 1300.7 20.4327 1300.51 23.6425" stroke="#F3EEE4" stroke-opacity="0.4" stroke-width="2.39" stroke-miterlimit="10" stroke-linecap="round"/>
</svg>
