<svg xmlns="http://www.w3.org/2000/svg" viewBox="0 0 143.01 76.18"><defs><style>.cls-1,.cls-3{fill:none;stroke:#192514;stroke-miterlimit:10;}.cls-1{stroke-linecap:round;stroke-width:2.39px;}.cls-2{fill:#192514;}.cls-3{stroke-width:2.51px;}</style></defs><g id="Layer_2" data-name="Layer 2"><g id="Layer_1-2" data-name="Layer 1"><path class="cls-1" d="M1.19,42.38c1.67,19.7,16.67,31.27,32.65,32.53,1.35.12,13.81.92,23.82-7.42a39,39,0,0,0,11-15.23C71.47,45.34,71,38.41,72,31.15a33,33,0,0,1,4.74-13C85.25,4.22,100.82-1.51,116.37,2.39A33.57,33.57,0,0,1,141.81,36"/><path class="cls-2" d="M35.67,69.45a30,30,0,1,0-29.82-30A29.89,29.89,0,0,0,35.67,69.45Z"/><path class="cls-3" d="M107.15,64.9A28.36,28.36,0,1,0,78.94,36.54,28.28,28.28,0,0,0,107.15,64.9Z"/></g></g></svg>