<?xml version="1.0" encoding="UTF-8"?>
<svg id="Layer_2" data-name="Layer 2" xmlns="http://www.w3.org/2000/svg" viewBox="0 0 751.73 194.94">
  <defs>
    <style>
      .cls-1 {
        fill: #e3dfd6;
      }
    </style>
  </defs>
  <g id="Layer_1-2" data-name="Layer 1">
    <g>
      <ellipse class="cls-1" cx="192.87" cy="96.96" rx="76.83" ry="77.23" transform="translate(-3.96 8.32) rotate(-2.45)"/>
      <path class="cls-1" d="m376.4,18.73c43.77-1.87,80.77,32.28,82.65,76.28,1.88,44-32.08,81.18-75.84,83.05-43.77,1.87-80.77-32.28-82.65-76.28-1.88-44,32.08-81.18,75.84-83.05Z"/>
      <ellipse class="cls-1" cx="567.08" cy="98.09" rx="76.83" ry="77.23" transform="translate(-3.67 24.29) rotate(-2.45)"/>
    </g>
    <path class="cls-1" d="m567.54,194.94c-10.57,0-20.96-1.71-30.87-5.13-19.49-6.73-36.11-19.78-48.06-37.74-7.22-10.63-12.04-22.47-14.32-35.18-1.02-5.85-1.71-11.68-2.38-17.31-1.59-13.45-3.09-26.15-8.79-38.8-6.86-15.35-17.42-28.89-30.52-39.17-26.95-20.88-59.38-17.45-62.99-16.99-39.02,4.8-79.38,34.46-81.67,89.88,1.47,20.92-4.18,41.91-15.91,59.11-11.76,17.21-29.12,29.89-48.88,35.72-20.55,6.18-41.53,5.96-60.68-.65-19.49-6.72-36.11-19.77-48.06-37.74-7.23-10.62-12.05-22.46-14.33-35.19-1.02-5.85-1.71-11.67-2.38-17.31-1.59-13.45-3.09-26.15-8.79-38.8-6.87-15.36-17.42-28.9-30.51-39.17C37.61,4.39,13.86,2.65,1.55,3.05.73,3.07.03,2.43,0,1.6-.03.77.62.08,1.45.05c12.71-.42,37.25,1.39,58.79,18.06,13.48,10.58,24.34,24.51,31.4,40.31,5.89,13.07,7.42,25.99,9.03,39.67.66,5.59,1.35,11.38,2.35,17.14,2.2,12.3,6.86,23.75,13.86,34.04,23.21,34.88,64.57,49.47,105.4,37.18,19.11-5.63,35.89-17.89,47.26-34.53,11.37-16.67,16.84-37.01,15.39-57.29v-.08s0-.08,0-.08c1.03-25.39,10.32-47.76,26.86-64.69,15.08-15.44,35.48-25.43,57.44-28.13,3.73-.47,37.29-4.02,65.21,17.6,13.49,10.58,24.35,24.52,31.41,40.31,5.89,13.06,7.42,25.99,9.03,39.67.66,5.59,1.34,11.38,2.35,17.14,2.2,12.28,6.86,23.73,13.85,34.03,23.21,34.88,64.58,49.48,105.41,37.19,19.11-5.64,35.89-17.91,47.25-34.54,11.32-16.57,16.99-37.67,15.55-57.89v-.08s0-.08,0-.08c1.03-25.42,10.35-47.89,26.93-64.99,15.17-15.63,35.59-25.73,57.51-28.43.81-.11,3.07-.37,6.44-.47.79-.05,1.52.62,1.54,1.45.03.83-.63,1.52-1.45,1.54-3.23.1-5.37.35-6.15.45-37.82,4.66-79.53,34.95-81.82,90.48,1.47,20.86-4.39,42.61-16.07,59.71-11.75,17.2-29.1,29.89-48.87,35.72-9.92,2.99-19.95,4.48-29.82,4.48Z"/>
  </g>
</svg>