<?xml version="1.0" encoding="UTF-8"?>
<svg id="Layer_2" data-name="Layer 2" xmlns="http://www.w3.org/2000/svg" viewBox="0 0 653 76.82">
  <defs>
    <style>
      .cls-1 {
        fill: #d5d0c1;
      }
    </style>
  </defs>
  <g id="Layer_1-2" data-name="Layer 1">
    <g id="Layer_2-2" data-name="Layer 2">
      <g id="Layer_1-2" data-name="Layer 1-2">
        <path class="cls-1" d="m194,13.96c-4.09-.21-8.13.95-11.48,3.3-2.72,2.01-4.28,5.22-4.17,8.6-.07,2.09.31,4.17,1.13,6.09.88,1.7,2.19,3.14,3.8,4.17,1.6,1.09,3.3,2.02,5.09,2.75,1.63.67,3.8,1.38,6.55,2.21s3.84,1.17,4.88,1.54c1.42.54,2.82,1.15,4.17,1.84,1.46.64,2.79,1.55,3.92,2.67.98,1.1,1.77,2.35,2.34,3.71.71,1.69,1.06,3.51,1.04,5.34,0,4.03-2.08,7.77-5.51,9.89-3.46,2.49-7.63,3.84-11.89,3.84-2.77.05-5.53-.42-8.14-1.38-1.79-.63-3.48-1.53-5.01-2.67-1.27-1.07-2.47-2.23-3.59-3.46l-.83-.92-.75-.79c-.31-.27-.34-.75-.07-1.06.02-.02.04-.05.07-.07.21-.28.6-.33.88-.13.05.04.09.08.13.13.3.29.57.6.83.92l.88.92c1.07,1.23,2.19,2.4,3.38,3.51,1.43,1.04,3,1.85,4.67,2.42,2.42.88,4.98,1.3,7.55,1.25,3.83-.1,7.54-1.35,10.64-3.59,3.13-1.78,5.1-5.08,5.18-8.68,0-1.63-.34-3.23-1-4.72-.52-1.21-1.23-2.34-2.09-3.34-1-1.04-2.17-1.9-3.46-2.55-1.63-.75-2.96-1.34-4.17-1.71s-2.63-.83-4.72-1.42c-2.8-.83-5.01-1.54-6.59-2.21-1.88-.81-3.68-1.78-5.38-2.92-1.81-1.18-3.25-2.84-4.17-4.8-.98-2.17-1.47-4.54-1.42-6.93-.08-3.83,1.73-7.45,4.84-9.68,3.63-2.63,8.05-3.94,12.52-3.71,6.14.04,11.95,2.83,15.82,7.6l.71.75.58.67c.42.33.42.71,0,1.09-.21.28-.6.33-.88.13-.05-.04-.09-.08-.13-.13-.19-.29-.41-.56-.67-.79-.24-.23-.5-.43-.79-.58-1.02-1.16-2.11-2.26-3.26-3.3-1.36-1.07-2.88-1.91-4.51-2.5-2.2-.89-4.56-1.33-6.93-1.29Z"/>
        <path class="cls-1" d="m235.45,68.04c-.54,0-.67-.46-.38-.92l19.53-51.38c.35-1.24,1.51-2.07,2.8-2,1.31-.07,2.51.75,2.92,2l19.91,51.38c.16.31.05.68-.26.85-.08.04-.16.06-.24.07h0c-.32.01-.61-.19-.71-.5l-3.92-10.02h-34.85l-3.8,10.02c-.25.54-.58.71-1,.5Zm20.66-51.79l-15.23,39.86h33.39l-15.44-39.86c-.21-.64-.83-1.05-1.5-1-.57.05-1.06.45-1.21,1Z"/>
        <path class="cls-1" d="m308.28,68.54c-.34.05-.66-.19-.71-.53,0-.06,0-.12,0-.18V16.17c-.05-.34.19-.66.53-.71.06,0,.12,0,.18,0h22.12c2.52.01,4.99.63,7.22,1.79,4.85,2.2,7.78,7.22,7.3,12.52.1,3.09-1.03,6.09-3.13,8.35-2.24,2.28-5.18,3.75-8.35,4.17l12.1,25.04c.19.42.07.75-.38,1-.11.05-.23.05-.33,0-.29.04-.57-.14-.67-.42l-12.52-25.42h-22.58v25.04c0,.75-.21,1-.79,1Zm.79-51.58v24.33h21.66c2.2-.1,4.37-.61,6.39-1.5,4.05-1.62,6.6-5.66,6.3-10.02.14-3.41-1.18-6.72-3.63-9.1-2.57-2.39-5.96-3.72-9.47-3.71h-21.24Z"/>
        <path class="cls-1" d="m408.73,16.5c.46.29.63.63.42,1l-16.15,46.83c-.38,1.42-1.67,2.09-3.88,2.09s-3.34-.67-3.8-2l-17.24-47.08c-.19-.39-.07-.72.38-1,.45-.28.78-.11,1,.5l17.24,46.99c.29.75,1.09,1.09,2.42,1.09s2.21-.33,2.5-1.09l16.11-46.99c.19-.37.63-.52,1-.33Z"/>
        <path class="cls-1" d="m428.77,68.04c-.54,0-.67-.46-.38-.92l19.62-51.38c.35-1.24,1.51-2.07,2.8-2,1.31-.07,2.51.75,2.92,2l19.91,51.38c.16.31.05.68-.26.85-.08.04-.16.06-.24.07h0c-.32.01-.61-.19-.71-.5l-3.92-10.02h-34.93l-3.67,10.1c-.38.46-.71.63-1.13.42Zm20.87-51.79l-15.57,39.86h33.39l-15.44-39.86c-.18-.55-.67-.95-1.25-1-.62,0-1.17.41-1.34,1h.21Z"/>
        <path class="cls-1" d="m489.49,18.05c-.5,0-.71-.21-.71-.71s0-.79.71-.79h37.56c.39-.05.74.23.79.61,0,.06,0,.12,0,.18,0,.5-.25.71-.79.71h-18.82v50.08c0,.46-.29.71-.83.71-.34.05-.66-.19-.71-.53,0-.06,0-.12,0-.18V18.05h-17.2Z"/>
        <path class="cls-1" d="m588.03,16.5c.46.29.63.63.42,1l-16.15,46.83c-.38,1.42-1.67,2.09-3.88,2.09s-3.34-.67-3.8-2l-17.24-47.08c-.22-.39-.1-.72.38-1,.47-.28.81-.11,1,.5l17.24,46.99c.29.75,1.09,1.09,2.42,1.09s2.21-.33,2.5-1.09l16.11-46.99c.19-.37.63-.52,1-.33Z"/>
        <path class="cls-1" d="m608.06,68.04c-.54,0-.67-.46-.38-.92l19.62-51.38c.35-1.24,1.51-2.07,2.8-2,1.31-.07,2.51.75,2.92,2l19.91,51.38c.16.31.05.68-.26.85-.08.04-.16.06-.24.07h0c-.32.01-.61-.19-.71-.5l-3.92-10.02h-34.72l-3.84,10.02c-.42.54-.75.71-1.17.5Zm20.87-51.79l-15.4,39.86h33.39l-15.44-39.86c-.21-.64-.83-1.05-1.5-1-.59.03-1.09.43-1.25,1h.21Z"/>
      </g>
    </g>
    <path class="cls-1" d="m36.27,76.82C17.28,76.82,1.24,62.01,0,42.79c-.04-.66.46-1.24,1.12-1.28.66-.14,1.24.46,1.28,1.12,1.21,18.69,17.42,32.88,36.08,31.7,6.89-.45,13.39-2.94,18.82-7.21,4.7-3.94,8.41-9.07,10.7-14.8,1.92-4.73,2.29-9.44,2.68-14.42.17-2.13.33-4.27.63-6.43.63-4.81,2.35-9.52,4.95-13.62C84.67,3.75,101.64-3.08,117.49,1.32c7.69,1.89,14.58,6.43,19.36,12.77,4.83,6.35,7.36,14.25,7.13,22.23-.02.65-.55,1.17-1.2,1.17h-.04c-.66-.02-1.19-.57-1.17-1.24.22-7.43-2.14-14.78-6.64-20.7-4.46-5.91-10.87-10.14-18.05-11.9-14.85-4.07-30.7,2.27-38.57,15.46-2.47,3.9-4.02,8.15-4.61,12.68-.29,2.12-.45,4.21-.61,6.3-.39,4.94-.79,10.06-2.85,15.13-2.43,6.09-6.38,11.55-11.42,15.77-5.84,4.6-12.81,7.27-20.18,7.74-.79.05-1.58.08-2.37.08Z"/>
    <path class="cls-1" d="m35.77,69.98c16.66.16,30.31-13.21,30.47-29.88.16-16.66-13.21-30.31-29.88-30.47S6.06,22.84,5.9,39.51c0,.1,0,.2,0,.29-.05,16.57,13.31,30.06,29.88,30.18Z"/>
    <path class="cls-1" d="m108.05,66.68h-.18c-7.94-.02-15.4-3.14-21.01-8.77-5.6-5.64-8.68-13.12-8.65-21.07.05-8.14,3.19-15.62,8.86-21.22,5.67-5.6,13.16-8.64,21.15-8.61,16.45.1,29.76,13.56,29.66,30.01-.1,16.39-13.46,29.66-29.83,29.66Zm-.01-57.14c-7.23,0-14.03,2.79-19.18,7.88-5.19,5.13-8.07,11.96-8.11,19.26-.02,7.43,2.79,14.28,7.91,19.43,5.13,5.15,11.95,8.01,19.22,8.03h.17c7.23,0,14.03-2.79,19.18-7.88,5.19-5.13,8.07-11.96,8.11-19.26.09-15.05-12.09-27.37-27.14-27.46h-.17Z"/>
  </g>
</svg>