<svg width="135" height="33" viewBox="0 0 135 33" fill="none" xmlns="http://www.w3.org/2000/svg">
<path d="M11.7263 8.43524C11.4239 8.65296 11.1567 8.97601 10.9177 9.40442C10.6786 9.83282 10.5591 10.3455 10.5591 10.9284V13.3865C10.5591 13.4708 10.545 13.5621 10.5239 13.6463C10.9528 13.5831 11.3747 13.548 11.7896 13.548C12.5208 13.548 13.2029 13.6042 13.8287 13.7095C14.4545 13.8149 15.0732 13.9905 15.678 14.2293V10.3455C15.678 10.2191 15.692 10.0997 15.7131 9.98733L12.8654 6.88315L13.1888 6.10359H17.7874L19.9249 8.43524C19.6015 8.65296 19.3273 8.97601 19.1023 9.40442C18.8773 9.83282 18.7648 10.3455 18.7648 10.9284V20.2129C18.7648 20.9012 18.6452 21.5051 18.4061 22.0248C18.1671 22.5445 17.928 22.98 17.696 23.3381C17.4569 23.6963 17.3374 23.9983 17.3374 24.2582C17.3374 24.4969 17.485 24.7638 17.7733 25.0658C18.0616 25.3678 18.3991 25.6628 18.7788 25.9367C19.1585 26.2176 19.4749 26.4423 19.7351 26.6179L19.2148 27.3272C18.9546 27.1727 18.5538 26.9199 18.0194 26.5477C17.478 26.1825 16.9225 25.7681 16.353 25.3046C15.7834 24.8411 15.2912 24.3846 14.8764 23.9281C14.4615 23.4716 14.2576 23.0994 14.2576 22.7974C14.2576 22.4743 14.3771 22.1232 14.6162 21.7439C14.8553 21.3647 15.0873 20.9222 15.3264 20.4166C15.5654 19.9109 15.685 19.3139 15.685 18.6187V16.0272C15.2068 15.9639 14.7217 15.9288 14.2295 15.9288C13.5826 15.9288 12.8724 15.992 12.106 16.1255C11.3396 16.2519 10.4887 16.5328 9.56059 16.9682C10.3411 17.6354 11.0091 18.4009 11.5716 19.2648C12.1341 20.1286 12.4154 20.9714 12.4154 21.786C12.4154 22.5445 12.2325 23.2468 11.8669 23.907C11.5013 24.5672 10.9739 25.0939 10.2778 25.4942C9.58872 25.8945 8.75198 26.0912 7.78164 26.0912C6.8113 26.0912 5.87612 25.8383 4.91281 25.3327C3.9495 24.827 3.07761 24.1528 2.29009 23.31C1.50257 22.4673 0.869739 21.5332 0.391602 20.4938L1.2635 19.9741C2.01587 21.161 2.7401 22.0319 3.43622 22.5937C4.1253 23.1555 4.87062 23.4365 5.67221 23.4365C6.4316 23.4365 7.0785 23.2398 7.63399 22.8395C8.18244 22.4392 8.61135 21.9335 8.9137 21.3155C9.21605 20.6975 9.37075 20.0584 9.37075 19.3912C9.37075 18.3377 9.01215 17.804 8.30197 17.804C7.71836 17.804 7.15584 17.9796 6.61442 18.3237C6.073 18.6678 5.64408 19.0892 5.32064 19.5878L2.14243 17.2913C2.4026 16.6873 2.8737 16.1817 3.54872 15.7673C4.23077 15.36 4.955 15.1493 5.73549 15.1493C5.84096 15.1493 5.94643 15.1493 6.04487 15.1633C6.14331 15.1774 6.24176 15.1914 6.35426 15.2125C6.85349 14.8262 7.16287 14.3206 7.29647 13.7095C7.42303 13.0915 7.49335 12.5367 7.49335 12.0451V10.6826C7.49335 9.69237 7.75351 8.93388 8.27384 8.41418H6.62146C6.16441 8.41418 5.72846 8.58272 5.29251 8.91281C4.8636 9.24991 4.52608 9.60106 4.28701 9.96626H3.57684L0.693948 6.86208L1.0174 6.08252H9.60278L11.7403 8.41418L11.7263 8.43524Z" fill="#B2462D"/>
<path d="M36.6457 8.43527C36.3222 8.65299 36.048 8.97604 35.823 9.40445C35.598 9.83285 35.4855 10.3455 35.4855 10.9285V20.2129C35.4855 20.9012 35.366 21.5052 35.1269 22.0249C34.8878 22.5446 34.6487 22.98 34.4167 23.3382C34.1776 23.6964 34.0581 23.9983 34.0581 24.2582C34.0581 24.497 34.2058 24.7638 34.4941 25.0658C34.7894 25.3678 35.1199 25.6628 35.4995 25.9367C35.8792 26.2176 36.1957 26.4424 36.4558 26.6179L35.9355 27.3273C35.6753 27.1728 35.2745 26.9199 34.7331 26.5477C34.1917 26.1755 33.6362 25.7682 33.0667 25.3046C32.4971 24.8411 32.0049 24.3846 31.5901 23.9281C31.1822 23.4716 30.9713 23.0994 30.9713 22.7974C30.9713 22.4743 31.0908 22.1232 31.3299 21.7439C31.569 21.3647 31.808 20.9222 32.0401 20.4166C32.2792 19.9109 32.3987 19.314 32.3987 18.6187V16.9332C32.2721 16.9121 32.1385 16.898 32.012 16.898H31.6534C30.9643 16.898 30.2471 16.9683 29.5017 17.1087C28.7564 17.2492 28.0392 17.5371 27.3501 17.9655V23.0151C27.3501 23.4435 27.2235 23.8368 26.9634 24.195C26.7032 24.5532 26.3587 24.7287 25.9298 24.7287C25.6063 24.7287 25.2126 24.5883 24.7485 24.3073C24.2844 24.0264 23.8203 23.6612 23.3563 23.2047C22.8922 22.7482 22.5055 22.2496 22.189 21.7018C21.8726 21.154 21.7179 20.6062 21.7179 20.0654C21.7179 19.3561 21.9429 18.6398 22.4 17.9164C22.857 17.193 23.4828 16.5609 24.2774 16.0202V12.2698C23.8414 11.9679 23.3774 11.5886 22.8711 11.1391C22.3648 10.6897 21.9359 10.2261 21.5914 9.76263C21.2468 9.29911 21.071 8.91284 21.071 8.61085C21.071 8.09114 21.2679 7.57846 21.6547 7.0728C22.0414 6.56714 22.4844 6.13873 22.9836 5.7946C23.4828 5.45047 23.8766 5.2749 24.1789 5.2749C24.3758 5.2749 24.643 5.39429 24.9876 5.63307C25.3321 5.87186 25.6907 6.15981 26.0563 6.50394C26.422 6.84806 26.7313 7.18517 26.9774 7.50823C27.2235 7.83129 27.3501 8.07008 27.3501 8.21756V14.7209C27.6525 14.6577 27.9618 14.6015 28.2712 14.5594C28.5876 14.5172 28.9041 14.4962 29.2275 14.4962C29.8111 14.4962 30.3596 14.5313 30.8799 14.6085C31.4002 14.6858 31.9065 14.7982 32.4057 14.9456V10.6756C32.4057 9.68538 32.6659 8.92688 33.1862 8.40717H32.1807C31.8362 8.42824 31.5409 8.51252 31.2877 8.65299C31.0416 8.79345 30.8518 8.94795 30.7182 9.12353H30.0994L27.9267 6.72867L28.1869 6.08255H34.5011L36.6386 8.4142L36.6457 8.43527Z" fill="#B2462D"/>
<path d="M40.6607 8.01394C40.2739 7.64874 39.8731 7.12904 39.4583 6.46185C39.0505 5.79466 38.8395 5.14853 38.8395 4.52348C38.8395 3.72285 39.1841 2.98544 39.8731 2.30421C40.5622 1.62297 41.4763 1.0822 42.6084 0.667836C43.7404 0.260499 44.9569 0.0498047 46.2507 0.0498047C47.221 0.0498047 48.2898 0.33775 49.457 0.906617C50.6242 1.47548 51.7914 2.26206 52.9727 3.25231C54.147 4.24256 55.2368 5.36625 56.2283 6.61636L55.5814 7.13605C54.3298 5.73145 53.1063 4.6499 51.918 3.88439C50.7297 3.11888 49.4992 2.7326 48.2265 2.7326C46.9538 2.7326 45.9131 2.90819 44.985 3.26636C44.0568 3.62454 43.3326 4.08103 42.8123 4.64287C42.292 5.20472 42.0318 5.77358 42.0318 6.3565C42.0318 6.89727 42.2005 7.41698 42.531 7.92264C42.8685 8.4283 43.2271 8.84265 43.6139 9.16571C43.2904 9.38343 43.0162 9.70649 42.7912 10.1349C42.5662 10.5633 42.4537 11.076 42.4537 11.6589V20.1989C42.4537 20.8872 42.3341 21.4912 42.0951 22.0109C41.856 22.5306 41.6169 22.966 41.3849 23.3242C41.1458 23.6824 41.0263 23.9843 41.0263 24.2442C41.0263 24.483 41.174 24.7499 41.4623 25.0519C41.7505 25.3538 42.088 25.6488 42.4677 25.9227C42.8474 26.2036 43.1639 26.4284 43.424 26.6039L42.9037 27.3133C42.6435 27.1588 42.2427 26.9059 41.7083 26.5337C41.1669 26.1685 40.6114 25.7542 40.0419 25.2906C39.4724 24.8271 38.9801 24.3706 38.5653 23.9141C38.1575 23.4576 37.9465 23.0854 37.9465 22.7834C37.9465 22.4603 38.0661 22.1092 38.3051 21.7299C38.5442 21.3507 38.7762 20.9082 39.0153 20.4026C39.2544 19.8969 39.3739 19.3 39.3739 18.6047V11.1603C39.3739 10.4299 39.4794 9.81886 39.6833 9.33427C39.8872 8.84968 40.2107 8.4002 40.6396 7.99287L40.6607 8.01394Z" fill="#B2462D"/>
<path d="M54.7236 10.6965C54.7236 9.70628 54.9837 8.94779 55.504 8.42808H50.6734C50.132 8.44915 49.6047 8.66687 49.0843 9.07421C48.564 9.48155 48.1632 9.90292 47.882 10.3384H47.1718L43.9655 6.87599L44.2889 6.09644H56.826L58.9635 8.42808C58.6401 8.6458 58.3658 8.96886 58.1408 9.39726C57.9158 9.82567 57.8033 10.3384 57.8033 10.9213V20.2057C57.8033 20.894 57.6838 21.498 57.4447 22.0177C57.2057 22.5374 56.9666 22.9728 56.7345 23.331C56.5025 23.6892 56.3759 23.9912 56.3759 24.251C56.3759 24.4898 56.5236 24.7567 56.8119 25.0587C57.1072 25.3606 57.4377 25.6556 57.8174 25.9295C58.1971 26.2104 58.5135 26.4352 58.7737 26.6107L58.2533 27.3201C57.9932 27.1445 57.5783 26.8636 57.0088 26.4773C56.4392 26.091 55.8486 25.6486 55.2439 25.164C54.6392 24.6794 54.154 24.2229 53.7884 23.7875C53.486 23.8928 53.1696 23.9841 52.8462 24.0614C52.5227 24.1386 52.2063 24.1738 51.9039 24.1738C51.6016 24.1738 51.1727 24.0895 50.6242 23.9139C50.0758 23.7383 49.4851 23.4855 48.8593 23.1554C48.2335 22.8183 47.6359 22.418 47.0593 21.9404C46.4897 21.4629 46.0257 20.9291 45.6671 20.3392C45.3085 19.7492 45.1327 19.1031 45.1327 18.4149C45.1327 17.0805 45.3858 15.9568 45.8921 15.0508C46.3983 14.1448 47.0663 13.4566 47.9031 12.979C48.7328 12.5015 49.6328 12.2697 50.6102 12.2697C51.4539 12.2697 52.2274 12.3329 52.9446 12.4663C53.6548 12.5927 54.2525 12.7473 54.7236 12.9228V10.6895V10.6965ZM49.3726 21.8C49.9141 21.8 50.5258 21.6735 51.2008 21.4137C51.8828 21.1538 52.5368 20.7957 53.1766 20.3322C53.8165 19.8686 54.3298 19.3419 54.7165 18.766V14.8191C54.3931 14.7769 54.0978 14.7418 53.8235 14.7207C53.5563 14.6997 53.2962 14.6856 53.0641 14.6856C52.2415 14.6856 51.461 14.9104 50.7156 15.3669C49.9703 15.8234 49.3726 16.4765 48.9156 17.3403C48.4585 18.2042 48.2335 19.2576 48.2335 20.5147C48.2335 20.8589 48.3249 21.1609 48.5078 21.4207C48.6906 21.6806 48.9789 21.807 49.3656 21.807L49.3726 21.8Z" fill="#B2462D"/>
<path d="M58.4784 32.0537L57.5713 31.3444C56.9455 30.8457 56.3197 30.4946 55.6939 30.2769C55.0681 30.0591 54.379 29.9538 53.6196 29.9538C53.1696 29.9538 52.6563 30.01 52.0938 30.1153C51.5313 30.2207 50.9055 30.3822 50.2164 30.5999L48.6625 27.9171C49.893 27.4887 50.9969 27.271 51.9672 27.271C52.9376 27.271 53.8798 27.566 54.8501 28.1629C55.8205 28.7529 56.9455 29.5816 58.2182 30.635L59.1252 31.3795L58.4784 32.0607V32.0537Z" fill="#B2462D"/>
<path d="M66.3183 10.6965C66.3183 9.70628 66.5785 8.94779 67.0988 8.42808H66.1285C65.566 8.42808 65.0175 8.63878 64.4761 9.06016C63.9347 9.48154 63.5128 9.90994 63.2105 10.3384H62.5003L59.2939 6.87599L59.6174 6.09644H75.4592L77.5968 8.42808C77.2733 8.6458 76.9991 8.97588 76.7741 9.41833C76.5491 9.86079 76.4366 10.4297 76.4366 11.1179V19.5666C76.4366 20.2549 76.3171 20.8589 76.078 21.3786C75.8389 21.8983 75.5998 22.3337 75.3678 22.6919C75.1287 23.0501 75.0092 23.3521 75.0092 23.6119C75.0092 23.9139 75.178 24.258 75.5084 24.6443C75.8459 25.0306 76.2256 25.4028 76.6616 25.761C77.0905 26.1191 77.4491 26.4001 77.7304 26.6178L77.21 27.3271C76.9288 27.1515 76.5069 26.8636 75.9444 26.4562C75.3819 26.0489 74.7912 25.5784 74.1795 25.0516C73.5607 24.5249 73.0404 24.0052 72.6045 23.4995C72.1755 22.9939 71.9435 22.5655 71.9224 22.2213C71.381 22.4812 70.8606 22.8043 70.3544 23.1905C69.8481 23.5768 69.363 24.0544 68.9129 24.6162C68.4629 24.6162 67.8864 24.4828 67.1973 24.2089C66.5082 23.942 65.784 23.5698 65.0246 23.1063C64.2652 22.6427 63.562 22.109 62.9011 21.505C62.2401 20.901 61.6987 20.2689 61.2838 19.6088C60.8619 18.9486 60.651 18.2884 60.651 17.6213C60.651 16.7364 60.9112 16.006 61.4315 15.423C61.9518 14.8401 62.7604 14.4328 63.8644 14.194L66.3254 13.6462V10.7036L66.3183 10.6965ZM73.3498 10.6965C73.3498 9.70628 73.61 8.94779 74.1303 8.42808H70.5653C70.2419 8.6458 69.9677 8.96886 69.7427 9.39726C69.5176 9.82567 69.4052 10.3384 69.4052 10.9213V15.9989L66.459 16.8417C65.573 17.1016 64.9261 17.4597 64.5183 17.9092C64.1105 18.3657 63.8995 18.9346 63.8995 19.6228C63.8995 20.2479 64.1597 20.7886 64.68 21.2381C65.2004 21.6946 65.7347 21.9966 66.2973 22.1441C67.2676 21.1749 68.3434 20.3602 69.5177 19.7001C70.6919 19.0399 71.9646 18.5834 73.3217 18.3236C73.3427 18.2604 73.3568 18.141 73.3568 17.9654V10.6825L73.3498 10.6965Z" fill="#B2462D"/>
<path d="M96.7716 24.1879C96.7716 24.4267 96.8911 24.6795 97.1302 24.9464C97.3693 25.2133 97.6505 25.4731 97.988 25.726C98.3255 25.9718 98.6208 26.1825 98.881 26.3581L98.3607 27.0674C98.1005 26.9129 97.7208 26.66 97.2146 26.2878C96.7083 25.9226 96.1809 25.5083 95.6254 25.0588C95.07 24.6093 94.6129 24.1598 94.2332 23.7174C93.8535 23.2749 93.6637 22.9027 93.6637 22.6007C93.6637 22.4251 93.7692 22.1232 93.9731 21.6947C94.177 21.2663 94.4231 20.7326 94.7043 20.1075C94.9856 19.4825 95.2317 18.7872 95.4356 18.0217C95.6395 17.2562 95.745 16.4556 95.745 15.6128C95.745 15.374 95.6676 15.1703 95.52 14.9948C95.3723 14.8192 95.1754 14.7349 94.9364 14.7349C94.2895 14.7349 93.5723 15.065 92.7988 15.7252C92.0183 16.3853 91.3503 17.1579 90.7878 18.0357V20.2059C90.7878 20.8941 90.6964 21.4981 90.5136 22.0178C90.3308 22.5375 90.148 22.9729 89.9651 23.3311C89.7823 23.6893 89.6909 23.9913 89.6909 24.2511C89.6909 24.4899 89.8175 24.7568 90.0636 25.0588C90.3097 25.3608 90.605 25.6558 90.9355 25.9297C91.273 26.2106 91.5472 26.4353 91.7652 26.6109L91.2449 27.3202C90.9847 27.1446 90.5909 26.8637 90.0636 26.4774C89.5362 26.0912 88.9878 25.6487 88.4253 25.1641C87.8627 24.6795 87.4127 24.223 87.0612 23.7876C86.6955 23.9351 86.2947 24.0124 85.8588 24.0124C85.5564 24.0124 85.1275 23.9281 84.5791 23.7525C84.0306 23.5769 83.44 23.3311 82.8142 23.0081C82.1884 22.685 81.5907 22.2987 81.0141 21.8422C80.4446 21.3857 79.9805 20.873 79.6219 20.2901C79.2633 19.7072 79.0875 19.0822 79.0875 18.415C79.0875 17.1017 79.3266 15.9991 79.7977 15.1142C80.2688 14.2293 80.9016 13.5621 81.6751 13.1056C82.4485 12.6491 83.3064 12.4243 84.2345 12.4243C84.9447 12.4243 85.5986 12.4875 86.1963 12.621C86.7869 12.7474 87.2932 12.9019 87.701 13.0775V10.6826C87.701 9.69237 87.9612 8.93388 88.4815 8.41418H84.6283C84.0869 8.43524 83.5595 8.65296 83.0392 9.06029C82.5188 9.46763 82.1181 9.88902 81.8368 10.3244H81.1266L77.9203 6.86208L78.2437 6.08252H97.6857L99.8232 8.41418L97.9739 10.3244H97.2638C96.8138 9.84688 96.3427 9.41144 95.8575 9.01113C95.3723 8.61081 94.8379 8.41418 94.2543 8.41418H91.955C91.6316 8.63189 91.3574 8.95494 91.1324 9.38335C90.9074 9.81175 90.7949 10.3244 90.7949 10.9074V13.0424C91.1183 12.8246 91.4558 12.6561 91.8003 12.5227C92.1449 12.3962 92.4683 12.326 92.7707 12.326C93.4176 12.326 94.0926 12.5016 94.7957 12.8457C95.4989 13.1898 96.1528 13.6253 96.7575 14.159C97.3622 14.6857 97.8615 15.2406 98.2482 15.8235C98.6349 16.4064 98.8318 16.9261 98.8318 17.3756C98.8318 18.1973 98.7263 18.9909 98.5224 19.7564C98.3185 20.5219 98.0794 21.2172 97.8122 21.8422C97.545 22.4673 97.306 22.987 97.1021 23.3943C96.8981 23.8017 96.7927 24.0615 96.7927 24.1739L96.7716 24.1879ZM83.004 21.6315C83.4822 21.6315 84.0165 21.5051 84.6212 21.2453C85.226 20.9854 85.8025 20.6272 86.351 20.1637C86.8994 19.7002 87.3494 19.1735 87.694 18.5976V14.9105C87.4971 14.8894 87.3213 14.8754 87.1596 14.8613C86.9979 14.8473 86.8432 14.8473 86.6885 14.8473C85.9783 14.8473 85.2752 15.0509 84.5791 15.4653C83.89 15.8726 83.3134 16.4977 82.8634 17.3264C82.4063 18.1551 82.1813 19.2226 82.1813 20.5149C82.1813 20.8169 82.2446 21.0837 82.3782 21.3085C82.5048 21.5332 82.7157 21.6456 82.997 21.6456L83.004 21.6315Z" fill="#B2462D"/>
<path d="M98.8459 32.0537L97.9389 31.3444C97.3131 30.8457 96.6873 30.4946 96.0615 30.2769C95.4357 30.0591 94.7466 29.9538 93.9872 29.9538C93.5372 29.9538 93.0239 30.01 92.4614 30.1153C91.8988 30.2207 91.2731 30.3822 90.584 30.5999L89.03 27.9171C90.2605 27.4887 91.3645 27.271 92.3348 27.271C93.3051 27.271 94.2473 27.566 95.2177 28.1629C96.188 28.7529 97.3131 29.5816 98.5858 30.635L99.4928 31.3795L98.8459 32.0607V32.0537Z" fill="#B2462D"/>
<path d="M113.331 20.2129C113.331 20.9012 113.211 21.5052 112.972 22.0249C112.733 22.5446 112.494 22.98 112.262 23.3382C112.023 23.6964 111.903 23.9984 111.903 24.2582C111.903 24.497 112.051 24.7639 112.339 25.0659C112.627 25.3679 112.965 25.6628 113.345 25.9367C113.724 26.2176 114.041 26.4424 114.301 26.618L113.781 27.3273C113.52 27.1728 113.12 26.9199 112.585 26.5477C112.044 26.1825 111.488 25.7682 110.919 25.3047C110.349 24.8411 109.857 24.3846 109.442 23.9281C109.027 23.4716 108.823 23.0994 108.823 22.7974C108.823 22.4744 108.943 22.1232 109.182 21.744C109.421 21.3647 109.66 20.9223 109.892 20.4166C110.131 19.9109 110.251 19.314 110.251 18.6187V15.0931C110.033 15.0721 109.808 15.058 109.569 15.044C109.33 15.0299 109.091 15.0299 108.859 15.0299C108.036 15.0299 107.262 15.3319 106.524 15.9359C105.793 16.5399 105.188 17.3265 104.724 18.2956C104.26 19.2648 104.028 20.3113 104.028 21.4349C104.028 22.2356 104.281 23.0432 104.787 23.8649C105.294 24.6866 106.053 25.4943 107.073 26.2949L106.426 27.0042C104.717 25.7963 103.36 24.5462 102.347 23.2469C101.328 21.9547 100.822 20.7537 100.822 19.6581C100.822 18.3448 101.103 17.1509 101.665 16.0834C102.228 15.0159 102.959 14.1661 103.866 13.527C104.773 12.8879 105.723 12.5719 106.714 12.5719C107.361 12.5719 107.98 12.614 108.563 12.6983C109.147 12.7826 109.709 12.916 110.251 13.0845V10.6897C110.251 9.69944 110.511 8.94095 111.031 8.42125H106.496C105.934 8.42125 105.385 8.63193 104.844 9.05331C104.302 9.4747 103.88 9.90311 103.578 10.3315H102.868L99.6615 6.86916L99.9849 6.0896H112.36L114.498 8.42125C114.174 8.63896 113.9 8.96202 113.675 9.39043C113.45 9.81883 113.338 10.3315 113.338 10.9144V20.1989L113.331 20.2129Z" fill="#B2462D"/>
<path d="M118.513 8.01394C118.126 7.64874 117.725 7.12904 117.31 6.46185C116.903 5.79466 116.692 5.14853 116.692 4.52348C116.692 3.72285 117.036 2.98544 117.725 2.30421C118.414 1.62297 119.328 1.0822 120.46 0.667836C121.592 0.260499 122.809 0.0498047 124.103 0.0498047C125.073 0.0498047 126.142 0.33775 127.309 0.906617C128.476 1.47548 129.643 2.26206 130.825 3.25231C131.999 4.24256 133.089 5.36625 134.08 6.61636L133.433 7.13605C132.182 5.73145 130.958 4.6499 129.77 3.88439C128.582 3.11888 127.351 2.7326 126.079 2.7326C124.806 2.7326 123.765 2.90819 122.837 3.26636C121.909 3.62454 121.185 4.08103 120.664 4.64287C120.144 5.20472 119.884 5.77358 119.884 6.3565C119.884 6.89727 120.053 7.41698 120.383 7.92264C120.721 8.4283 121.079 8.84265 121.466 9.16571C121.142 9.38343 120.868 9.70649 120.643 10.1349C120.418 10.5633 120.306 11.076 120.306 11.6589V20.1989C120.306 20.8872 120.186 21.4912 119.947 22.0109C119.708 22.5306 119.469 22.966 119.237 23.3242C118.998 23.6824 118.878 23.9843 118.878 24.2442C118.878 24.483 119.026 24.7499 119.314 25.0519C119.603 25.3538 119.94 25.6488 120.32 25.9227C120.7 26.2036 121.016 26.4284 121.276 26.6039L120.756 27.3133C120.496 27.1588 120.095 26.9059 119.56 26.5337C119.019 26.1685 118.464 25.7542 117.894 25.2906C117.324 24.8271 116.832 24.3706 116.417 23.9141C116.01 23.4576 115.799 23.0854 115.799 22.7834C115.799 22.4603 115.918 22.1092 116.157 21.7299C116.396 21.3507 116.628 20.9082 116.867 20.4026C117.106 19.8969 117.226 19.3 117.226 18.6047V11.1603C117.226 10.4299 117.331 9.81886 117.535 9.33427C117.739 8.84968 118.063 8.4002 118.492 7.99287L118.513 8.01394Z" fill="#B2462D"/>
<path d="M116.34 8.43517L115.595 6.10352H125.214L127.351 8.40005L125.699 10.1488H124.989C124.581 9.72039 124.096 9.32709 123.547 8.96892C122.999 8.61074 122.408 8.43517 121.782 8.43517H116.34ZM125.769 24.4196C125.34 24.223 124.848 23.9631 124.293 23.626C123.744 23.2889 123.315 23.015 123.013 22.7973C123.055 22.3408 123.09 21.8703 123.111 21.3716C123.132 20.873 123.146 20.3884 123.146 19.9178V19.37C123.146 19.1734 123.132 18.9908 123.111 18.8223L123.4 18.6256C123.836 18.8433 124.307 19.1032 124.827 19.4192C125.347 19.7353 125.748 19.9951 126.029 20.2128C126.072 20.4937 126.107 20.7817 126.128 21.0696C126.149 21.3576 126.163 21.6596 126.163 21.9616C126.163 22.3268 126.149 22.713 126.128 23.1133C126.107 23.5136 126.086 23.8929 126.065 24.2651L125.769 24.4266V24.4196ZM125.832 17.235C125.397 17.0173 124.911 16.7505 124.356 16.4274C123.807 16.1043 123.379 15.8375 123.076 15.6197C123.097 15.3388 123.111 15.0439 123.125 14.7278C123.132 14.4188 123.139 14.1168 123.139 13.8359C123.139 13.555 123.139 13.246 123.125 12.9159C123.111 12.5788 123.097 12.2768 123.076 11.9959L123.371 11.7992C123.8 12.0169 124.279 12.2768 124.799 12.5928C125.319 12.9089 125.713 13.1687 125.994 13.3864C126.1 14.0747 126.156 14.791 126.156 15.5214V16.301C126.156 16.5819 126.142 16.8418 126.121 17.0805L125.832 17.2421V17.235Z" fill="#B2462D"/>
<path d="M129.433 30.5366L128.526 29.4059C129.025 28.4157 129.397 27.313 129.644 26.1051C129.89 24.8971 130.016 23.4925 130.016 21.8983L130.501 21.6384L133.349 23.324C133.349 24.6373 133.047 25.9084 132.442 27.1234C131.837 28.3384 130.994 29.4832 129.918 30.5366H129.433Z" fill="#EDE6D6"/>
</svg>
