<svg width="145" height="34" viewBox="0 0 145 34" fill="none" xmlns="http://www.w3.org/2000/svg">
<path d="M19.2662 24.0483C19.2662 24.2871 19.3857 24.5399 19.6248 24.8068C19.8638 25.0736 20.1521 25.3335 20.4826 25.5863C20.8201 25.8321 21.1154 26.0428 21.3756 26.2184L20.8553 26.9277C20.5951 26.7803 20.2154 26.5204 19.7021 26.1482C19.1958 25.783 18.6685 25.3686 18.113 24.9191C17.5645 24.4626 17.1005 24.0202 16.7208 23.5777C16.3411 23.1353 16.1512 22.7631 16.1512 22.4611C16.1512 22.2855 16.2567 21.9835 16.4606 21.5551C16.6645 21.1267 16.9106 20.5929 17.1919 19.9679C17.4731 19.3428 17.7192 18.6476 17.9231 17.882C18.127 17.1165 18.2325 16.3159 18.2325 15.4731C18.2325 15.2344 18.1552 15.0307 18.0075 14.8551C17.8598 14.6795 17.663 14.5953 17.4239 14.5953C16.777 14.5953 16.0598 14.9254 15.2863 15.5855C14.5059 16.2457 13.8379 17.0182 13.2754 17.8961V20.0662C13.2754 20.7545 13.1839 21.3585 13.0011 21.8782C12.8183 22.3979 12.6355 22.8333 12.4527 23.1915C12.2699 23.5496 12.1785 23.8516 12.1785 24.1115C12.1785 24.3503 12.305 24.6171 12.5511 24.9191C12.7972 25.2211 13.0926 25.5091 13.423 25.79C13.7605 26.0709 14.0348 26.2957 14.2457 26.4712L13.7254 27.1806C13.4652 27.005 13.0715 26.7241 12.5441 26.3378C12.0167 25.9515 11.4683 25.5161 10.9058 25.0245C10.3433 24.5329 9.89325 24.0834 9.54871 23.648C9.18307 23.7954 8.78226 23.8727 8.34632 23.8727C8.04396 23.8727 7.61504 23.7884 7.06659 23.6129C6.51814 23.4373 5.92749 23.1915 5.30169 22.8684C4.67589 22.5454 4.07822 22.1591 3.50164 21.7026C2.9321 21.2461 2.46804 20.7334 2.10943 20.1505C1.75083 19.5676 1.57504 18.9425 1.57504 18.2753C1.57504 16.962 1.81411 15.8594 2.28522 14.9745C2.75633 14.0896 3.38914 13.4224 4.1626 12.9659C4.94309 12.5094 5.7939 12.2847 6.72205 12.2847C7.43223 12.2847 8.08618 12.3479 8.68385 12.4813C9.27449 12.6077 9.78073 12.7622 10.1885 12.9378V10.543C10.1885 9.55271 10.4487 8.79423 10.9691 8.27453H7.11581C6.57439 8.2956 6.04703 8.5133 5.5267 8.92064C5.00638 9.32797 4.60561 9.74937 4.32435 10.1848H3.61417L0.407837 6.72242L0.731256 5.94287H20.1732L22.3107 8.27453L20.4615 10.1848H19.7513C19.3013 9.70723 18.8302 9.2718 18.345 8.87149C17.8599 8.47118 17.3255 8.27453 16.7419 8.27453H14.4426C14.1191 8.49224 13.8449 8.81531 13.6199 9.24371C13.3949 9.67212 13.2824 10.1848 13.2824 10.7677V12.9027C13.6058 12.685 13.9433 12.5165 14.2879 12.383C14.6324 12.2566 14.9559 12.1864 15.2582 12.1864C15.9051 12.1864 16.5801 12.3619 17.2833 12.7061C17.9864 13.0502 18.6403 13.4856 19.245 14.0194C19.8497 14.5461 20.349 15.1009 20.7357 15.6838C21.1224 16.2667 21.3193 16.7864 21.3193 17.2359C21.3193 18.0576 21.2139 18.8512 21.0099 19.6167C20.806 20.3823 20.567 21.0775 20.2998 21.7026C20.0326 22.3276 19.7935 22.8473 19.5896 23.2547C19.3857 23.662 19.2802 23.9219 19.2802 24.0342L19.2662 24.0483ZM5.49155 21.4919C5.96969 21.4919 6.50407 21.3655 7.10878 21.1056C7.71348 20.8458 8.29007 20.4876 8.83852 20.0241C9.38698 19.5605 9.83697 19.0338 10.1815 18.4579V14.7708C9.98463 14.7498 9.80888 14.7357 9.64716 14.7217C9.48543 14.7076 9.33071 14.7076 9.17602 14.7076C8.46585 14.7076 7.76271 14.9113 7.07363 15.3256C6.38455 15.733 5.80797 16.3581 5.35795 17.1868C4.90794 18.0155 4.67593 19.083 4.67593 20.3752C4.67593 20.6772 4.73919 20.9441 4.87278 21.1688C4.99935 21.3936 5.20326 21.5059 5.49155 21.5059V21.4919Z" fill="#EDE6D6"/>
<path d="M24.2163 33.7822C23.3515 32.7288 22.6061 31.8649 21.9803 31.2118C21.3545 30.5516 20.7568 30.06 20.2014 29.7369C19.6459 29.4139 19.0131 29.2523 18.324 29.2523C17.9794 29.2523 17.5435 29.2594 17.0302 29.2874C16.5169 29.3155 16.0106 29.3647 15.5255 29.449C15.0403 29.5333 14.6325 29.6597 14.295 29.8212C13.9575 29.9827 13.7957 30.2145 13.7957 30.5165C13.7957 30.7763 13.9223 30.994 14.1824 31.1766C14.4426 31.3592 14.8012 31.4506 15.2512 31.4506C15.7927 31.4506 16.3833 31.3944 17.0302 31.289C17.6771 31.1837 18.2326 31.0502 18.6826 30.9028L20.9537 32.8762C20.6725 33.0939 20.2225 33.2765 19.6107 33.424C18.999 33.5715 18.3521 33.6488 17.6841 33.6488C17.206 33.6488 16.5802 33.5013 15.8067 33.2133C15.0332 32.9254 14.2598 32.5321 13.4934 32.0475C12.727 31.5629 12.08 31.0292 11.5457 30.4463C11.0183 29.8634 10.7511 29.2945 10.7511 28.7326C10.7511 28.3253 10.941 28.0022 11.3207 27.7635C11.7004 27.5247 12.1715 27.3491 12.727 27.2297C13.2825 27.1103 13.845 27.033 14.3934 27.005C14.9419 26.9698 15.3919 26.9558 15.7364 26.9558C16.756 26.9558 17.7052 27.1524 18.6052 27.5387C19.5053 27.925 20.335 28.4377 21.1014 29.0768C21.8678 29.7159 22.585 30.4041 23.253 31.1486C23.921 31.893 24.5398 32.6234 25.1023 33.3327L24.2304 33.7822H24.2163Z" fill="#EDE6D6"/>
<path d="M33.547 8.28854C33.2236 8.50626 32.9493 8.82932 32.7243 9.25773C32.4993 9.68613 32.3868 10.1988 32.3868 10.7817V14.827C32.3868 16.2737 32.1618 17.4466 31.7048 18.3385C31.2477 19.2304 30.6149 19.9328 29.7922 20.4244C29.2508 20.7264 28.7727 20.9019 28.3508 20.9441C27.9289 20.9862 27.7179 21.0705 27.7179 21.2039C27.7179 21.4216 27.8867 21.7377 28.2172 22.1591C28.5477 22.5804 28.9766 23.051 29.4969 23.5847C30.0172 24.1115 30.5587 24.6382 31.1352 25.1509C31.7048 25.6706 32.2392 26.1341 32.7384 26.5414L32.0915 27.321C31.5079 26.8856 30.8329 26.3518 30.0665 25.7057C29.3 25.0596 28.5266 24.3432 27.7531 23.5707C26.9726 22.7911 26.2484 22.0045 25.5804 21.2109C24.9124 20.4103 24.371 19.6448 23.9632 18.9144C23.5553 18.184 23.3444 17.5309 23.3444 16.976C23.3444 16.2457 23.471 15.6417 23.7311 15.1781C23.9913 14.7146 24.3007 14.3635 24.6734 14.1247C25.039 13.8859 25.3835 13.7665 25.707 13.7665C26.0304 13.7665 26.3961 13.907 26.7898 14.1879C27.1906 14.4688 27.5562 14.7498 27.8937 15.0307C28.2312 15.3116 28.4492 15.4521 28.5547 15.4521C28.7937 15.4521 28.9766 15.2554 29.1032 14.8551C29.2297 14.4548 29.3 13.921 29.3 13.2538V10.571C29.3 9.58078 29.5602 8.82229 30.0805 8.30258H28.7867C28.2453 8.34472 27.732 8.56946 27.2328 8.98382C26.7335 9.39116 26.3468 9.80551 26.0656 10.2129H25.3554L22.149 6.7505L22.4725 5.97095H31.4165L33.5541 8.30258L33.547 8.28854Z" fill="#EDE6D6"/>
<path d="M32.7736 31.9072L31.8666 31.1979C31.2408 30.6992 30.615 30.3481 29.9892 30.1304C29.3634 29.9127 28.6743 29.8073 27.9149 29.8073C27.4579 29.8073 26.9516 29.8635 26.3891 29.9688C25.8266 30.0742 25.2008 30.2357 24.5117 30.4534L22.9578 27.7706C24.1883 27.3422 25.2922 27.1245 26.2625 27.1245C27.2329 27.1245 28.1751 27.4195 29.1454 28.0164C30.1158 28.6134 31.2408 29.4351 32.5135 30.4956L33.4205 31.24L32.7736 31.9212V31.9072Z" fill="#EDE6D6"/>
<path d="M41.9426 12.2005C42.4207 12.2005 42.8848 12.2215 43.3489 12.2637C43.8129 12.3058 44.284 12.369 44.7552 12.4603V10.55C44.7552 9.55979 45.0153 8.80129 45.5356 8.28159H40.5785C40.016 8.28159 39.4675 8.49229 38.9261 8.91368C38.3846 9.33506 37.9628 9.76345 37.6604 10.1919H36.9502L33.7439 6.7295L34.0674 5.94995H46.8646L49.0021 8.28159C48.6787 8.4993 48.4045 8.82236 48.1795 9.25077C47.9545 9.67918 47.8419 10.1919 47.8419 10.7748V14.3355L47.2935 14.792C46.8857 14.7498 46.4216 14.7077 45.9153 14.6796C45.4091 14.6445 44.9379 14.6304 44.509 14.6304C43.3207 14.6304 42.2309 14.8692 41.2394 15.3398C40.248 15.8173 39.4604 16.5126 38.8768 17.4256C38.2932 18.3456 38.0049 19.4623 38.0049 20.7756C38.0049 21.6184 38.4901 22.0398 39.4605 22.0398C39.9597 22.0398 40.4238 21.9836 40.8667 21.8642C41.3097 21.7448 41.7387 21.5973 42.1465 21.4287C42.0199 21.2321 41.9496 21.0073 41.9496 20.7475C41.9496 20.1435 42.1324 19.5676 42.498 19.0128C42.8637 18.458 43.3559 18.0085 43.9746 17.6503C44.5934 17.2922 45.2755 17.1166 46.0349 17.1166C46.3372 17.1166 46.6958 17.2711 47.1036 17.5731C47.5115 17.8751 47.8771 18.2192 48.1865 18.6055C48.5029 18.9917 48.6576 19.3148 48.6576 19.5747C48.6576 20.1997 48.3201 20.895 47.6521 21.6605C46.9841 22.426 46.1403 23.0651 45.1278 23.5848C45.627 24.3152 46.1896 24.9754 46.8294 25.5583C47.4693 26.1412 48.088 26.6469 48.6927 27.0823L48.0107 27.8899C47.406 27.4826 46.6888 26.9348 45.8591 26.2536C45.0294 25.5723 44.3332 24.8911 43.7707 24.1958C43.1027 24.3503 42.498 24.4206 41.9566 24.4206C41.1761 24.4206 40.3816 24.245 39.5589 23.8868C38.7362 23.5286 37.9698 23.0581 37.2596 22.4611C36.5494 21.8712 35.9729 21.2181 35.5439 20.5017C35.115 19.7924 34.8971 19.076 34.8971 18.3667C34.8971 17.0744 35.2135 15.9648 35.8533 15.0307C36.4932 14.1037 37.344 13.3944 38.4128 12.9098C39.4816 12.4252 40.6628 12.1794 41.9566 12.1794L41.9426 12.2005Z" fill="#EDE6D6"/>
<path d="M63.7119 20.0663C63.7119 20.7546 63.5924 21.3586 63.3533 21.8783C63.1143 22.398 62.8752 22.8334 62.6432 23.1916C62.4041 23.5498 62.2845 23.8518 62.2845 24.1116C62.2845 24.3504 62.4322 24.6173 62.7205 24.9193C63.0088 25.2212 63.3463 25.5092 63.726 25.7901C64.1057 26.071 64.4221 26.2958 64.6822 26.4714L64.1619 27.1807C63.9018 27.0262 63.501 26.7733 62.9666 26.4011C62.4252 26.0359 61.8697 25.6216 61.3001 25.158C60.7306 24.6945 60.2384 24.238 59.8235 23.7815C59.4157 23.325 59.2048 22.9528 59.2048 22.6508C59.2048 22.3278 59.3243 21.9766 59.5634 21.5974C59.8024 21.2181 60.0415 20.7757 60.2736 20.27C60.5126 19.7643 60.6321 19.1674 60.6321 18.4721V15.1081C60.0485 15.0449 59.486 15.0097 58.9446 15.0097C58.4876 15.0097 57.9883 15.1362 57.4399 15.396C56.8914 15.6559 56.4273 16.0983 56.0617 16.7234C56.1039 17.2641 56.1461 17.8681 56.1742 18.5353C56.2094 19.2025 56.2305 19.8486 56.2586 20.4737C56.2797 21.0987 56.2937 21.6255 56.2937 22.0609C56.2937 22.5174 56.1672 22.9107 55.907 23.2548C55.6469 23.5989 55.3023 23.7745 54.8734 23.7745C54.5288 23.7745 54.1 23.6621 53.5937 23.4374C53.0874 23.2127 52.5812 22.9177 52.089 22.5666C51.5968 22.2154 51.1749 21.8151 50.8444 21.3726C50.5069 20.9302 50.3452 20.5018 50.3452 20.0944C50.3452 19.1885 50.5139 18.2965 50.8444 17.4116C51.1819 16.5267 51.646 15.7261 52.2507 15.0027C52.8554 14.2793 53.5585 13.6964 54.3601 13.254C55.1617 12.8115 56.0125 12.5938 56.9196 12.5938C57.6086 12.5938 58.2555 12.65 58.8462 12.7554C59.4368 12.8607 60.0415 13.0222 60.6462 13.2399V10.5571C60.6462 9.56689 60.9064 8.80839 61.4267 8.28869H55.9844C55.4429 8.33083 54.9226 8.55556 54.4304 8.96992C53.9312 9.37726 53.5445 9.79162 53.2632 10.199H52.553L49.3467 6.7366L49.6701 5.95703H62.7556L64.8932 8.28869C64.5697 8.5064 64.2955 8.82947 64.0705 9.25787C63.8455 9.68628 63.733 10.199 63.733 10.7819V20.0663H63.7119Z" fill="#EDE6D6"/>
<path d="M83.1186 20.0663C83.1186 20.7546 82.9991 21.3586 82.76 21.8783C82.521 22.398 82.2819 22.8334 82.0499 23.1916C81.8108 23.5498 81.6912 23.8518 81.6912 24.1116C81.6912 24.3504 81.8389 24.6173 82.1272 24.9193C82.4155 25.2212 82.753 25.5092 83.1327 25.7901C83.5124 26.071 83.8288 26.2958 84.089 26.4714L83.5687 27.1807C83.3085 27.0262 82.9077 26.7733 82.3663 26.4011C81.8249 26.0289 81.2694 25.6216 80.6998 25.158C80.1303 24.6945 79.6381 24.238 79.2232 23.7815C78.8154 23.325 78.6044 22.9528 78.6044 22.6508C78.6044 22.3278 78.724 21.9766 78.963 21.5974C79.2021 21.2181 79.4412 20.7757 79.6732 20.27C79.9123 19.7643 80.0318 19.1674 80.0318 18.4721V16.7866C79.9475 16.7655 79.8561 16.7515 79.7717 16.7515H79.5115C78.949 16.7515 78.3232 16.8989 77.6341 17.1869C76.9451 17.4748 76.2559 17.8541 75.5739 18.3176C74.8918 18.7811 74.2731 19.2657 73.7106 19.7714C73.1481 20.277 72.6981 20.7476 72.3535 21.176C72.009 21.6044 71.8332 21.9415 71.8332 22.1803C71.8332 22.4823 72.03 22.8685 72.4168 23.3461C72.8035 23.8237 73.3027 24.3363 73.9074 24.8841C74.5121 25.4319 75.138 25.9797 75.7849 26.5205L75.1379 27.3001C74.5543 26.8646 73.8793 26.3309 73.1129 25.6848C72.3465 25.0386 71.573 24.3223 70.7996 23.5498C70.0191 22.7702 69.3019 21.9836 68.6269 21.19C67.9589 20.3894 67.4174 19.6239 67.0096 18.8935C66.6018 18.1631 66.3908 17.5099 66.3908 16.9551C66.3908 16.2247 66.5174 15.6348 66.7776 15.1924C67.0378 14.7499 67.3471 14.4268 67.7198 14.2232C68.0854 14.0195 68.43 13.9142 68.7534 13.9142C69.0769 13.9142 69.4355 14.0546 69.8362 14.3355C70.237 14.6165 70.6027 14.8974 70.9402 15.1783C71.2777 15.4592 71.4957 15.5997 71.6011 15.5997C71.8402 15.5997 72.023 15.403 72.1496 15.0027C72.2761 14.6024 72.3465 14.0687 72.3465 13.4015V10.5571C72.3465 9.56689 72.6066 8.80839 73.127 8.28869H72.023C71.4605 8.28869 70.9121 8.49937 70.3706 8.92076C69.8292 9.34214 69.4073 9.77055 69.105 10.199H68.3948L65.1885 6.7366L65.5119 5.95703H82.1342L84.2718 8.28869C83.9484 8.5064 83.6741 8.81541 83.4491 9.2087C83.2241 9.60902 83.1116 10.0866 83.1116 10.6484V20.0663H83.1186ZM80.0389 10.5501C80.0389 9.55986 80.299 8.80136 80.8194 8.28166H76.6075C76.2841 8.49937 76.0099 8.82244 75.7849 9.25084C75.5599 9.67925 75.4473 10.1919 75.4473 10.7749V14.9816C76.3755 14.5743 77.2403 14.3636 78.0419 14.3636C78.3654 14.3636 78.6959 14.3847 79.0334 14.4268C79.3639 14.469 79.7084 14.5322 80.0529 14.6235V10.5431L80.0389 10.5501Z" fill="#EDE6D6"/>
<path d="M83.8007 31.9072L82.8937 31.1979C82.2679 30.6992 81.6421 30.3481 81.0163 30.1304C80.3905 29.9127 79.7014 29.8073 78.942 29.8073C78.485 29.8073 77.9787 29.8635 77.4162 29.9688C76.8537 30.0742 76.2279 30.2357 75.5388 30.4534L73.9849 27.7706C75.2154 27.3422 76.3193 27.1245 77.2896 27.1245C78.2599 27.1245 79.2022 27.4195 80.1725 28.0164C81.1429 28.6134 82.2679 29.4351 83.5406 30.4956L84.4476 31.24L83.8007 31.9212V31.9072Z" fill="#EDE6D6"/>
<path d="M91.6409 10.55C91.6409 9.55979 91.901 8.80129 92.4213 8.28159H91.451C90.8885 8.28159 90.34 8.49229 89.7986 8.91368C89.2572 9.33506 88.8353 9.76345 88.533 10.1919H87.8228L84.6165 6.7295L84.9399 5.94995H100.782L102.919 8.28159C102.596 8.4993 102.322 8.82939 102.097 9.27184C101.872 9.71429 101.759 10.2832 101.759 10.9714V19.4201C101.759 20.1084 101.64 20.7124 101.4 21.2321C101.161 21.7518 100.922 22.1872 100.69 22.5454C100.458 22.9036 100.332 23.2056 100.332 23.4654C100.332 23.7674 100.5 24.1115 100.831 24.4978C101.168 24.8841 101.548 25.2563 101.984 25.6145C102.413 25.9727 102.772 26.2536 103.053 26.4713L102.533 27.1806C102.251 27.005 101.829 26.7171 101.267 26.3098C100.704 25.9024 100.114 25.4319 99.502 24.9051C98.8832 24.3784 98.3629 23.8587 97.934 23.3531C97.4981 22.8474 97.273 22.419 97.2519 22.0749C96.7105 22.3347 96.1902 22.6578 95.6839 23.044C95.1777 23.4303 94.6925 23.9079 94.2425 24.4697C93.7855 24.4697 93.2159 24.3363 92.5268 24.0624C91.8377 23.7955 91.1135 23.4233 90.3541 22.9598C89.5947 22.4962 88.8915 21.9625 88.2306 21.3585C87.5696 20.7545 87.0352 20.1224 86.6134 19.4623C86.1915 18.8021 85.9806 18.142 85.9806 17.4748C85.9806 16.5899 86.2407 15.8595 86.761 15.2766C87.2814 14.6936 88.09 14.2863 89.1939 14.0475L91.6549 13.4997V10.5571L91.6409 10.55ZM98.6723 10.55C98.6723 9.55979 98.9324 8.80129 99.4528 8.28159H95.8878C95.5644 8.4993 95.2902 8.82236 95.0581 9.25077C94.8331 9.67918 94.7206 10.1919 94.7206 10.7748V15.8524L91.7745 16.6952C90.8885 16.9551 90.2416 17.3132 89.8267 17.7627C89.4119 18.2122 89.208 18.7881 89.208 19.4763C89.208 20.1014 89.4681 20.6422 89.9884 21.0916C90.5088 21.5481 91.0432 21.8501 91.6057 21.9976C92.576 21.0284 93.6518 20.2138 94.8261 19.5536C96.0003 18.8934 97.273 18.4369 98.6301 18.1771C98.6512 18.1139 98.6653 17.9945 98.6653 17.8189V10.536L98.6723 10.55Z" fill="#EDE6D6"/>
<path d="M126.306 24.0483C126.306 24.2871 126.425 24.5399 126.664 24.8068C126.903 25.0736 127.185 25.3335 127.522 25.5863C127.86 25.8321 128.155 26.0428 128.415 26.2184L127.895 26.9277C127.635 26.7803 127.255 26.5204 126.749 26.1482C126.242 25.783 125.715 25.3686 125.16 24.9191C124.611 24.4626 124.147 24.0202 123.767 23.5777C123.388 23.1353 123.198 22.7631 123.198 22.4611C123.198 22.2855 123.303 21.9835 123.507 21.5551C123.711 21.1267 123.957 20.5929 124.239 19.9679C124.52 19.3428 124.766 18.6476 124.97 17.882C125.174 17.1165 125.279 16.3159 125.279 15.4731C125.279 15.2344 125.202 15.0307 125.054 14.8551C124.907 14.6795 124.71 14.5953 124.471 14.5953C123.824 14.5953 123.106 14.9254 122.333 15.5855C121.552 16.2457 120.885 17.0182 120.322 17.8961V20.0662C120.322 20.7545 120.231 21.3585 120.048 21.8782C119.865 22.3979 119.682 22.8333 119.499 23.1915C119.317 23.5496 119.225 23.8516 119.225 24.1115C119.225 24.3503 119.352 24.6171 119.598 24.9191C119.844 25.2211 120.139 25.5091 120.47 25.79C120.8 26.0709 121.081 26.2957 121.299 26.4712L120.779 27.1806C120.519 27.005 120.125 26.7241 119.598 26.3378C119.07 25.9515 118.522 25.5161 117.959 25.0245C117.397 24.5329 116.947 24.0834 116.595 23.648C116.23 23.7954 115.829 23.8727 115.393 23.8727C115.091 23.8727 114.662 23.7884 114.113 23.6129C113.565 23.4373 112.974 23.1915 112.348 22.8684C111.723 22.5454 111.125 22.1591 110.548 21.7026C109.979 21.2461 109.515 20.7334 109.156 20.1505C108.797 19.5676 108.622 18.9425 108.622 18.2753C108.622 16.962 108.861 15.8594 109.332 14.9745C109.803 14.0896 110.436 13.4224 111.209 12.9659C111.983 12.5094 112.841 12.2847 113.769 12.2847C114.479 12.2847 115.133 12.3479 115.73 12.4813C116.321 12.6077 116.827 12.7622 117.235 12.9378V10.543C117.235 9.55271 117.495 8.79423 118.016 8.27453H114.162C113.621 8.2956 113.094 8.5133 112.573 8.92064C112.053 9.32797 111.652 9.74937 111.371 10.1848H110.661L107.454 6.72242L107.778 5.94287H127.22L129.357 8.27453L127.508 10.1848H126.798C126.348 9.70723 125.877 9.2718 125.392 8.87149C124.907 8.47118 124.372 8.27453 123.788 8.27453H121.489C121.166 8.49224 120.892 8.81531 120.667 9.24371C120.442 9.67212 120.329 10.1848 120.329 10.7677V12.9027C120.652 12.685 120.99 12.5165 121.335 12.383C121.679 12.2566 122.003 12.1864 122.305 12.1864C122.952 12.1864 123.627 12.3619 124.33 12.7061C125.033 13.0502 125.687 13.4856 126.292 14.0194C126.896 14.5461 127.396 15.1009 127.782 15.6838C128.169 16.2667 128.366 16.7864 128.366 17.2359C128.366 18.0576 128.26 18.8512 128.057 19.6167C127.853 20.3823 127.614 21.0775 127.346 21.7026C127.079 22.3276 126.84 22.8473 126.636 23.2547C126.432 23.662 126.327 23.9219 126.327 24.0342L126.306 24.0483ZM112.538 21.4919C113.016 21.4919 113.551 21.3655 114.155 21.1056C114.76 20.8458 115.337 20.4876 115.885 20.0241C116.434 19.5605 116.884 19.0338 117.228 18.4579V14.7708C117.031 14.7498 116.856 14.7357 116.694 14.7217C116.532 14.7076 116.377 14.7076 116.223 14.7076C115.512 14.7076 114.809 14.9113 114.113 15.3256C113.424 15.733 112.848 16.3581 112.398 17.1868C111.941 18.0155 111.716 19.083 111.716 20.3752C111.716 20.6772 111.779 20.9441 111.912 21.1688C112.039 21.3936 112.25 21.5059 112.531 21.5059L112.538 21.4919Z" fill="#EDE6D6"/>
<path d="M124.942 33.6559C124.4 33.6559 123.725 33.5225 122.917 33.2486C122.108 32.9817 121.299 32.6165 120.505 32.167C119.703 31.7105 119.035 31.2259 118.494 30.6922C117.952 30.1654 117.685 29.6387 117.685 29.119C117.685 28.5993 117.973 28.1849 118.543 27.8057C119.113 27.4265 119.907 27.1947 120.927 27.1104L125.005 26.7874L127.016 28.5993L126.854 29.0207L122.516 29.5685C121.327 29.7441 120.73 30.0741 120.73 30.5728C120.73 30.8116 120.906 31.0152 121.264 31.1908C121.623 31.3664 122.038 31.4507 122.509 31.4507C123.198 31.4507 123.957 31.3664 124.773 31.2049C125.596 31.0433 126.306 30.8326 126.91 30.5728L128.696 32.6446C128.331 32.9044 127.81 33.1362 127.142 33.3399C126.474 33.5435 125.736 33.6489 124.942 33.6489V33.6559Z" fill="#EDE6D6"/>
<path d="M142.858 20.0662C142.858 20.7545 142.738 21.3585 142.499 21.8782C142.26 22.3979 142.021 22.8333 141.789 23.1915C141.55 23.5496 141.43 23.8516 141.43 24.1115C141.43 24.3503 141.578 24.6171 141.866 24.9191C142.155 25.2211 142.492 25.5091 142.872 25.79C143.251 26.0709 143.568 26.2957 143.828 26.4712L143.308 27.1806C143.048 27.026 142.647 26.7732 142.112 26.401C141.571 26.0358 141.015 25.6214 140.446 25.1579C139.876 24.6944 139.384 24.2379 138.969 23.7814C138.554 23.3249 138.351 22.9527 138.351 22.6507C138.351 22.3276 138.47 21.9765 138.709 21.5972C138.948 21.218 139.187 20.7755 139.419 20.2699C139.658 19.7642 139.778 19.1673 139.778 18.472V14.9464C139.56 14.9254 139.335 14.9113 139.096 14.8973C138.857 14.8832 138.618 14.8832 138.386 14.8832C137.563 14.8832 136.79 15.1852 136.051 15.7892C135.32 16.3932 134.715 17.1797 134.251 18.1489C133.787 19.1181 133.555 20.1645 133.555 21.2882C133.555 22.0889 133.808 22.8965 134.315 23.7182C134.821 24.5399 135.58 25.3475 136.6 26.1482L135.953 26.8575C134.244 25.6495 132.887 24.3994 131.875 23.1002C130.855 21.8079 130.349 20.607 130.349 19.5114C130.349 18.1981 130.63 17.0042 131.193 15.9367C131.755 14.8692 132.486 14.0194 133.393 13.3803C134.3 12.7412 135.25 12.4251 136.241 12.4251C136.888 12.4251 137.507 12.4673 138.09 12.5516C138.674 12.6358 139.237 12.7693 139.778 12.9378V10.543C139.778 9.55271 140.038 8.79423 140.558 8.27453H136.023C135.461 8.27453 134.912 8.48521 134.371 8.9066C133.829 9.32798 133.407 9.75639 133.105 10.1848H132.395L129.189 6.72242L129.512 5.94287H141.887L144.025 8.27453C143.702 8.49224 143.427 8.81531 143.202 9.24371C142.977 9.67212 142.865 10.1848 142.865 10.7677V20.0522L142.858 20.0662Z" fill="#EDE6D6"/>
<path d="M142.084 7.28446C141.501 6.25208 140.959 5.40931 140.467 4.76319C139.975 4.11707 139.441 3.63951 138.878 3.33752C138.316 3.03553 137.648 2.88102 136.867 2.88102C136.326 2.88102 135.721 2.93719 135.039 3.04254C134.357 3.14788 133.612 3.30942 132.789 3.52713L131.235 0.809216C132.726 0.38081 134.04 0.163086 135.187 0.163086C136.136 0.163086 137.015 0.394861 137.823 0.858382C138.632 1.3219 139.391 1.93993 140.094 2.71948C140.798 3.49904 141.473 4.36287 142.12 5.32503C142.766 6.28719 143.406 7.27041 144.032 8.28875L142.091 7.28446H142.084Z" fill="#EDE6D6"/>
</svg>
