<svg width="150" height="34" viewBox="0 0 150 34" fill="none" xmlns="http://www.w3.org/2000/svg">
<path d="M18.1066 20.2128C18.1066 20.9011 17.9871 21.5051 17.748 22.0248C17.509 22.5445 17.2699 22.9799 17.0378 23.3381C16.7988 23.6963 16.6792 23.9982 16.6792 24.2581C16.6792 24.4969 16.8269 24.7637 17.1152 25.0657C17.4035 25.3677 17.741 25.6627 18.1207 25.9366C18.5004 26.2175 18.8168 26.4423 19.077 26.6178L18.5567 27.3272C18.2965 27.1727 17.8957 26.9198 17.3543 26.5476C16.8128 26.1824 16.2574 25.7681 15.6878 25.3045C15.1183 24.841 14.6261 24.3845 14.2112 23.928C13.7964 23.4715 13.5925 23.0993 13.5925 22.7973C13.5925 22.4742 13.712 22.1231 13.951 21.7438C14.1901 21.3646 14.4221 20.9221 14.6612 20.4165C14.9003 19.9108 15.0198 19.3139 15.0198 18.6186V16.9331C14.9355 16.912 14.844 16.8979 14.7597 16.8979H14.4995C13.937 16.8979 13.3112 17.0454 12.6221 17.3334C11.933 17.6213 11.244 18.0006 10.5619 18.4641C9.87987 18.9276 9.26109 19.4122 8.69857 19.9178C8.13606 20.4235 7.67901 20.894 7.33447 21.3225C6.98993 21.7509 6.81415 22.088 6.81415 22.3268C6.81415 22.6287 7.01104 23.015 7.39777 23.4926C7.7845 23.9701 8.28373 24.4828 8.88843 25.0306C9.49314 25.5784 10.1189 26.1262 10.7658 26.667L10.1189 27.4466C9.53533 27.0111 8.8603 26.4774 8.09388 25.8313C7.32745 25.1851 6.55397 24.4688 5.78051 23.6962C5.00002 22.9167 4.2758 22.1301 3.60782 21.3365C2.93983 20.5359 2.39842 19.7704 1.99059 19.04C1.58277 18.3096 1.37182 17.6564 1.37182 17.1016C1.37182 16.3712 1.49838 15.7813 1.75855 15.3388C2.01871 14.8964 2.32807 14.5733 2.70073 14.3696C3.06637 14.166 3.41093 14.0606 3.73438 14.0606C4.05782 14.0606 4.42344 14.2011 4.8172 14.482C5.218 14.7629 5.58364 15.0439 5.92114 15.3248C6.25865 15.6057 6.47663 15.7462 6.5821 15.7462C6.82117 15.7462 7.00401 15.5495 7.13057 15.1492C7.25714 14.7489 7.32743 14.2151 7.32743 13.5479V10.7036C7.32743 9.71336 7.58759 8.95488 8.10791 8.43517H7.00401C6.4415 8.43517 5.89302 8.64586 5.3516 9.06724C4.81018 9.48862 4.3883 9.91704 4.08595 10.3454H3.37577L0.169434 6.88307L0.492895 6.10352H17.1152L19.2528 8.43517C18.9293 8.65289 18.6551 8.9619 18.4301 9.35519C18.2051 9.7555 18.0926 10.2331 18.0926 10.7949V20.2128H18.1066ZM15.0269 10.6966C15.0269 9.70634 15.287 8.94785 15.8073 8.42814H11.5955C11.2721 8.64586 10.9979 8.96892 10.7729 9.39733C10.5478 9.82573 10.4353 10.3384 10.4353 10.9213V15.1281C11.3635 14.7208 12.2283 14.5101 13.0299 14.5101C13.3534 14.5101 13.6839 14.5312 14.0214 14.5733C14.3589 14.6154 14.6964 14.6787 15.0409 14.77V10.6896L15.0269 10.6966Z" fill="#EDE6D6"/>
<path d="M15.3503 33.8024C14.8089 33.8024 14.1339 33.669 13.3253 33.3951C12.5166 33.1282 11.708 32.763 10.9135 32.3136C10.1189 31.8641 9.44388 31.3725 8.90246 30.8387C8.36104 30.312 8.09387 29.7853 8.09387 29.2726C8.09387 28.7599 8.38214 28.3385 8.95169 27.9593C9.52123 27.58 10.3158 27.3483 11.3354 27.264L15.4136 26.9409L17.4246 28.7529L17.2629 29.1743L12.9245 29.722C11.7362 29.8976 11.1455 30.2277 11.1455 30.7263C11.1455 30.9651 11.3213 31.1688 11.6799 31.3444C12.0385 31.5199 12.4534 31.6042 12.9245 31.6042C13.6135 31.6042 14.3729 31.5199 15.1956 31.3584C16.0183 31.1969 16.7284 30.9862 17.3331 30.7263L19.1121 32.7981C18.7465 33.058 18.2261 33.2898 17.5582 33.4934C16.8902 33.6971 16.1519 33.8024 15.3573 33.8024H15.3503Z" fill="#EDE6D6"/>
<path d="M32.7532 20.2128C32.7532 20.9011 32.6337 21.5051 32.3946 22.0248C32.1555 22.5445 31.9165 22.9799 31.6844 23.3381C31.4453 23.6963 31.3258 23.9982 31.3258 24.2581C31.3258 24.4969 31.4735 24.7637 31.7618 25.0657C32.05 25.3677 32.3875 25.6627 32.7672 25.9366C33.1469 26.2175 33.4634 26.4423 33.7235 26.6178L33.2032 27.3272C32.9641 27.2007 32.6196 26.976 32.1696 26.667C31.7125 26.358 31.2274 25.9998 30.7141 25.5995C30.1937 25.1992 29.7226 24.7989 29.2867 24.3845C28.8507 23.9772 28.5554 23.6049 28.3796 23.2819C28.1828 23.324 28 23.3662 27.8312 23.3943C27.6554 23.4294 27.4866 23.4434 27.3108 23.4434C26.7905 23.4434 26.1928 23.2959 25.5108 22.9869C24.8287 22.6849 24.1678 22.2916 23.535 21.807C22.8951 21.3225 22.3678 20.7957 21.9459 20.2409C21.524 19.6791 21.313 19.1383 21.313 18.6256C21.313 18.2183 21.4396 17.6494 21.6998 16.926C21.9599 16.2027 22.0865 15.381 22.0865 14.4539V10.7036C22.0865 10.3595 22.1217 10.0224 22.1849 9.69932L19.5903 6.88307L19.9138 6.10352H31.7688L33.9063 8.43517C33.5829 8.65289 33.3087 8.97594 33.0837 9.40434C32.8587 9.83275 32.7462 10.3454 32.7462 10.9284V20.2128H32.7532ZM25.2014 21.0556C25.567 21.0556 26.0171 20.9643 26.5444 20.7817C27.0718 20.5991 27.6062 20.3392 28.1476 20.0021C28.689 19.665 29.1601 19.2858 29.575 18.8503C28.7523 18.2042 27.9789 17.5019 27.2617 16.7434C26.5374 15.992 25.8413 15.2194 25.1733 14.4469V16.1324C25.1733 16.7785 25.0959 17.3685 24.9483 17.8952C24.8006 18.4219 24.646 18.8855 24.4913 19.2858C24.3436 19.6861 24.2663 20.0232 24.2663 20.3041C24.2663 20.5218 24.3506 20.6974 24.5264 20.8379C24.7022 20.9783 24.9272 21.0486 25.2084 21.0486L25.2014 21.0556ZM29.6734 10.6966C29.6734 9.70634 29.9336 8.94785 30.4539 8.42814H26.3405C26.0171 8.64586 25.7428 8.96892 25.5178 9.39733C25.2928 9.82573 25.1803 10.3384 25.1803 10.9213V12.6701C25.8694 13.4707 26.5866 14.2783 27.3179 15.1C28.0491 15.9217 28.8437 16.7083 29.6805 17.4598V10.6966H29.6734Z" fill="#EDE6D6"/>
<path d="M33.4282 32.0537L32.5211 31.3444C31.8953 30.8457 31.2695 30.4946 30.6437 30.2769C30.0179 30.0591 29.3289 29.9538 28.5695 29.9538C28.1194 29.9538 27.6062 30.01 27.0437 30.1153C26.4811 30.2207 25.8553 30.3822 25.1662 30.5999L23.6123 27.9171C24.8428 27.4887 25.9467 27.271 26.917 27.271C27.8874 27.271 28.8296 27.566 29.8 28.1629C30.7703 28.7529 31.8953 29.5816 33.168 30.635L34.0751 31.3795L33.4282 32.0607V32.0537Z" fill="#EDE6D6"/>
<path d="M47.5262 15.5214C47.1184 15.4793 46.6543 15.4371 46.1481 15.409C45.6418 15.3739 45.1707 15.3599 44.7418 15.3599C43.6168 15.3599 42.5972 15.6197 41.6831 16.1395C40.769 16.6592 40.0377 17.4036 39.4963 18.3728C38.9549 19.342 38.6877 20.5218 38.6877 21.8983C38.6877 22.4813 38.8846 22.9448 39.2713 23.2889C39.658 23.633 40.2768 23.8086 41.1206 23.8086C42.2034 23.8086 43.223 23.4364 44.1793 22.692C45.1356 21.9475 45.8879 21.0486 46.4293 19.9881L49.4107 22.0599C48.8692 23.31 48.0958 24.3143 47.0762 25.0728C46.0637 25.8313 44.9035 26.2035 43.6097 26.2035C42.7449 26.2035 41.8448 26.0068 40.9026 25.6065C39.9604 25.2062 39.0885 24.6865 38.2799 24.0404C37.4713 23.3943 36.8173 22.6709 36.3181 21.8702C35.8189 21.0696 35.5728 20.2831 35.5728 19.5105C35.5728 18.148 35.8681 16.9822 36.4658 15.999C37.0634 15.0158 37.851 14.2643 38.8494 13.7305C39.8409 13.2038 40.9589 12.9369 42.1894 12.9369C42.6675 12.9369 43.1316 12.958 43.5957 13.0002C44.0597 13.0423 44.5308 13.1055 45.0019 13.1968V10.7036C45.0019 9.71336 45.2621 8.95488 45.7824 8.43517H41.2471C40.6846 8.43517 40.1362 8.64586 39.5948 9.06724C39.0533 9.48862 38.6315 9.91703 38.3291 10.3454H37.6189L34.4126 6.88307L34.736 6.10352H47.1114L49.2489 8.43517C48.9255 8.65289 48.6513 8.97594 48.4263 9.40434C48.2012 9.83275 48.0888 10.3454 48.0888 10.9284V15.0719L47.5403 15.5284L47.5262 15.5214Z" fill="#EDE6D6"/>
<path d="M47.4558 7.43094C46.8722 6.39855 46.3308 5.55579 45.8386 4.90967C45.3464 4.26355 44.812 3.78598 44.2495 3.48399C43.687 3.182 43.019 3.0275 42.2385 3.0275C41.6971 3.0275 41.0924 3.08368 40.4103 3.18902C39.7283 3.29437 38.983 3.4559 38.1603 3.67361L36.6063 0.955689C38.097 0.527283 39.4119 0.30957 40.558 0.30957C41.5072 0.30957 42.3862 0.541335 43.1948 1.00486C44.0034 1.46838 44.7628 2.0864 45.4659 2.86596C46.1691 3.64552 46.8441 4.50936 47.491 5.47151C48.1379 6.43367 48.7778 7.4169 49.4035 8.43524L47.4629 7.43094H47.4558Z" fill="#EDE6D6"/>
<path d="M44.2495 8.43517L43.5042 6.10352H53.1232L55.2607 8.40005L53.6083 10.1488H52.8981C52.4903 9.72039 52.0052 9.32709 51.4567 8.96892C50.9083 8.61074 50.3176 8.43517 49.6918 8.43517H44.2495ZM53.6786 24.4196C53.2427 24.223 52.7575 23.9631 52.202 23.626C51.6536 23.2889 51.2247 23.015 50.9223 22.7973C50.9645 22.3408 50.9997 21.8703 51.0208 21.3716C51.0419 20.873 51.0559 20.3884 51.0559 19.9178V19.37C51.0559 19.1734 51.0419 18.9908 51.0208 18.8223L51.3161 18.6256C51.745 18.8433 52.2231 19.1032 52.7435 19.4192C53.2638 19.7353 53.6575 19.9951 53.9458 20.2128C53.988 20.4937 54.0232 20.7817 54.0443 21.0696C54.0654 21.3576 54.0794 21.6596 54.0794 21.9616C54.0794 22.3268 54.0654 22.713 54.0443 23.1133C54.0232 23.5136 54.0021 23.8929 53.981 24.2651L53.6927 24.4266L53.6786 24.4196ZM53.7419 17.235C53.306 17.0173 52.8208 16.7505 52.2653 16.4274C51.7169 16.1043 51.288 15.8375 50.9856 15.6197C51.0067 15.3388 51.0208 15.0439 51.0348 14.7278C51.0489 14.4188 51.0489 14.1168 51.0489 13.8359C51.0489 13.555 51.0489 13.246 51.0348 12.9159C51.0208 12.5788 51.0067 12.2768 50.9856 11.9959L51.2739 11.7992C51.7098 12.0169 52.181 12.2768 52.7013 12.5928C53.2216 12.9089 53.6224 13.1687 53.9036 13.3864C54.0091 14.0747 54.0654 14.791 54.0654 15.5214V16.301C54.0654 16.5819 54.0513 16.8418 54.0302 17.0805L53.7349 17.2421L53.7419 17.235Z" fill="#EDE6D6"/>
<path d="M70.7511 8.43513C70.4487 8.65285 70.1815 8.9759 69.9424 9.40431C69.7034 9.83271 69.5839 10.3454 69.5839 10.9283V13.3864C69.5839 13.4707 69.5698 13.562 69.5487 13.6462C69.9776 13.583 70.3995 13.5479 70.8144 13.5479C71.5456 13.5479 72.2277 13.6041 72.8534 13.7094C73.4792 13.8148 74.098 13.9904 74.7027 14.2291V10.3454C74.7027 10.219 74.7168 10.0996 74.7379 9.98722L71.8901 6.88304L72.2136 6.10348H84.2022L86.3397 8.43513C86.0163 8.65285 85.7421 8.9759 85.5171 9.40431C85.2921 9.83271 85.1796 10.3454 85.1796 10.9283V20.2128C85.1796 20.901 85.06 21.505 84.821 22.0247C84.5819 22.5444 84.3428 22.9799 84.1108 23.338C83.8788 23.6962 83.7522 23.9982 83.7522 24.2581C83.7522 24.4968 83.8998 24.7637 84.1881 25.0657C84.4834 25.3677 84.8139 25.6627 85.1936 25.9366C85.5733 26.2175 85.8898 26.4422 86.1499 26.6178L85.6296 27.3271C85.3694 27.1726 84.9686 26.9198 84.4272 26.5476C83.8858 26.1753 83.3303 25.768 82.7608 25.3045C82.1912 24.841 81.699 24.3845 81.2841 23.928C80.8763 23.4715 80.6654 23.0992 80.6654 22.7973C80.6654 22.4742 80.7849 22.123 81.024 21.7438C81.263 21.3646 81.5021 20.9221 81.7342 20.4164C81.9732 19.9108 82.0928 19.3138 82.0928 18.6185V10.6895C82.0928 9.69927 82.3529 8.94079 82.8732 8.42108H78.9497C78.6262 8.6388 78.352 8.96186 78.127 9.39027C77.902 9.81867 77.7895 10.3314 77.7895 10.9143V20.1987C77.7895 20.887 77.67 21.491 77.4309 22.0107C77.1919 22.5304 76.9528 22.9658 76.7207 23.324C76.4817 23.6822 76.3621 23.9841 76.3621 24.244C76.3621 24.4828 76.5098 24.7497 76.7981 25.0517C77.0864 25.3537 77.4239 25.6486 77.8036 25.9225C78.1833 26.2034 78.4997 26.4282 78.7599 26.6037L78.2396 27.3131C77.9794 27.1586 77.5786 26.9057 77.0442 26.5335C76.5028 26.1683 75.9473 25.754 75.3778 25.2904C74.8082 24.8269 74.316 24.3704 73.9011 23.9139C73.4863 23.4574 73.2824 23.0852 73.2824 22.7832C73.2824 22.4601 73.4019 22.109 73.641 21.7298C73.88 21.3505 74.1121 20.9081 74.3511 20.4024C74.5902 19.8967 74.7098 19.2998 74.7098 18.6045V16.013C74.2316 15.9498 73.7464 15.9147 73.2542 15.9147C72.6074 15.9147 71.8972 15.9779 71.1307 16.1113C70.3643 16.2377 69.5135 16.5187 68.5854 16.9541C69.3659 17.6213 70.0338 18.3868 70.5963 19.2506C71.1589 20.1145 71.4401 20.9572 71.4401 21.7719C71.4401 22.5304 71.2573 23.2327 70.8917 23.8929C70.5261 24.553 69.9987 25.0798 69.3026 25.4801C68.6135 25.8804 67.7768 26.077 66.8064 26.077C65.8361 26.077 64.9009 25.8242 63.9376 25.3185C62.9743 24.8129 62.1024 24.1387 61.3149 23.2959C60.5274 22.4531 59.8945 21.5191 59.4164 20.4797L60.2883 19.96C61.0406 21.1468 61.7649 22.0177 62.461 22.5795C63.1501 23.1414 63.8954 23.4223 64.697 23.4223C65.4564 23.4223 66.1033 23.2257 66.6588 22.8253C67.2072 22.425 67.6361 21.9194 67.9385 21.3013C68.2408 20.6833 68.3955 20.0442 68.3955 19.377C68.3955 18.3236 68.0369 17.7898 67.3267 17.7898C66.7431 17.7898 66.1806 17.9654 65.6392 18.3095C65.0978 18.6537 64.6689 19.075 64.3454 19.5737L61.1672 17.2771C61.4274 16.6732 61.8985 16.1675 62.5735 15.7531C63.2555 15.3458 63.9798 15.1351 64.7603 15.1351C64.8657 15.1351 64.9712 15.1351 65.0696 15.1492C65.1681 15.1632 65.2665 15.1772 65.379 15.1983C65.8783 14.812 66.1877 14.3064 66.3213 13.6954C66.4478 13.0774 66.5181 12.5225 66.5181 12.0309V10.6685C66.5181 9.67821 66.7783 8.91972 67.2986 8.40002H65.6462C65.1892 8.40002 64.7532 8.56857 64.3173 8.89866C63.8884 9.23576 63.5509 9.58691 63.3118 9.95211H62.6016L59.7187 6.84792L60.0422 6.06836H68.6275L70.7651 8.40002L70.7511 8.43513Z" fill="#EDE6D6"/>
<path d="M105.289 20.2129C105.289 20.9012 105.17 21.5051 104.931 22.0248C104.692 22.5445 104.453 22.98 104.221 23.3381C103.989 23.6963 103.862 23.9983 103.862 24.2582C103.862 24.4969 104.01 24.7638 104.298 25.0658C104.593 25.3678 104.924 25.6628 105.304 25.9367C105.683 26.2176 106 26.4423 106.26 26.6179L105.739 27.3272C105.479 27.1727 105.078 26.9199 104.537 26.5477C103.996 26.1755 103.44 25.7681 102.871 25.3046C102.301 24.8411 101.809 24.3846 101.394 23.9281C100.986 23.4716 100.775 23.0994 100.775 22.7974C100.775 22.4743 100.895 22.1232 101.134 21.7439C101.373 21.3647 101.612 20.9222 101.844 20.4166C102.083 19.9109 102.203 19.3139 102.203 18.6187V14.152C101.401 14.4329 100.677 15.0369 100.03 15.9639C99.383 16.891 98.8768 18.0709 98.5041 19.4895C98.4619 19.9179 98.3775 20.3814 98.2439 20.8801C98.1174 21.3787 97.9767 21.7931 97.8221 22.1232C97.6674 22.4603 97.5197 22.6218 97.365 22.6218C97.1681 22.6218 96.908 22.5305 96.5845 22.3479C96.2611 22.1653 95.9376 21.9406 95.6142 21.6667C95.2907 21.3998 95.0165 21.1189 94.7915 20.8239C94.5665 20.5289 94.454 20.2761 94.454 20.0654C94.5173 19.5668 94.686 18.9979 94.9532 18.3518C95.2204 17.7057 95.5228 17.1087 95.8462 16.575V15.8305C95.8462 15.4653 95.7689 15.1352 95.6212 14.8403C95.4665 14.5523 95.2204 14.4048 94.8759 14.4048C94.3556 14.4048 93.8141 14.6787 93.2375 15.2265C92.668 15.7743 92.1758 16.5047 91.782 17.4107C91.3883 18.3167 91.1844 19.321 91.1844 20.4236C91.1844 21.2453 91.3742 21.9546 91.7539 22.5586C92.1336 23.1626 92.6258 23.6893 93.2446 24.1458C93.8633 24.6023 94.5313 24.9956 95.2696 25.3397C96.0009 25.6838 96.7252 26.0069 97.4424 26.3089L96.9572 27.1517C95.9236 26.8286 94.8759 26.3932 93.8282 25.8383C92.7805 25.2906 91.8172 24.6374 90.9313 23.9C90.0453 23.1555 89.3351 22.3268 88.7937 21.4068C88.2522 20.4868 87.9851 19.4895 87.9851 18.415C87.9851 17.3405 88.2031 16.2449 88.6531 15.2757C89.0961 14.3065 89.6726 13.5199 90.3828 12.9159C91.093 12.312 91.8594 12.01 92.6821 12.01C93.4344 12.01 94.2571 12.2698 95.1431 12.7895C96.029 13.3092 96.7603 13.9132 97.3439 14.6015C97.7517 13.9764 98.258 13.3935 98.8487 12.8527C99.4393 12.312 100.128 12.0451 100.909 12.0451C101.057 12.0451 101.246 12.0872 101.457 12.1715C101.675 12.2558 101.921 12.3752 102.203 12.5297V10.6826C102.203 9.69237 102.463 8.93388 102.983 8.41418H93.4907C92.9282 8.41418 92.3797 8.62486 91.8383 9.04625C91.2969 9.46763 90.875 9.89604 90.5726 10.3244H89.8625L86.6561 6.86208L86.9796 6.08252H104.312L106.45 8.41418C106.126 8.63189 105.852 8.94793 105.627 9.36931C105.402 9.79069 105.289 10.2823 105.289 10.8441V20.1988V20.2129Z" fill="#EDE6D6"/>
<path d="M112.349 20.2128C112.349 20.901 112.23 21.505 111.99 22.0247C111.751 22.5444 111.512 22.9798 111.28 23.338C111.041 23.6962 110.922 23.9982 110.922 24.258C110.922 24.4968 111.069 24.7637 111.358 25.0657C111.646 25.3677 111.983 25.6626 112.363 25.9365C112.743 26.2175 113.059 26.4422 113.319 26.6178L112.799 27.3271C112.539 27.1726 112.138 26.9198 111.604 26.5475C111.062 26.1823 110.507 25.768 109.937 25.3045C109.368 24.841 108.876 24.3845 108.461 23.928C108.053 23.4715 107.842 23.0992 107.842 22.7972C107.842 22.4742 107.961 22.123 108.201 21.7438C108.44 21.3645 108.672 20.9221 108.911 20.4164C109.15 19.9108 109.269 19.3138 109.269 18.6185V10.6895C109.269 9.69926 109.529 8.94077 110.05 8.42107H103.637L102.927 6.08942H110.802C110.134 5.00787 109.466 4.22831 108.812 3.74372C108.151 3.25913 107.336 3.01333 106.365 3.01333C105.824 3.01333 105.212 3.06951 104.537 3.17485C103.855 3.2802 103.103 3.44173 102.287 3.65944L100.733 0.941529C102.224 0.513123 103.539 0.29541 104.685 0.29541C105.634 0.29541 106.513 0.527164 107.329 0.990685C108.137 1.45421 108.897 2.07224 109.593 2.8518C110.289 3.63136 110.971 4.49518 111.618 5.45734C112.265 6.4195 112.905 7.40273 113.53 8.42107C113.207 8.63878 112.933 8.96185 112.708 9.39025C112.483 9.81866 112.37 10.3313 112.37 10.9143V20.1987L112.349 20.2128Z" fill="#EDE6D6"/>
<path d="M132.698 24.1879C132.698 24.4267 132.817 24.6795 133.057 24.9464C133.296 25.2133 133.584 25.4731 133.914 25.726C134.252 25.9718 134.547 26.1825 134.807 26.3581L134.287 27.0674C134.027 26.9129 133.647 26.66 133.134 26.2878C132.628 25.9226 132.1 25.5083 131.545 25.0588C130.996 24.6023 130.532 24.1598 130.153 23.7174C129.773 23.2749 129.583 22.9027 129.583 22.6007C129.583 22.4251 129.688 22.1232 129.892 21.6947C130.096 21.2663 130.342 20.7326 130.624 20.1075C130.905 19.4825 131.151 18.7872 131.355 18.0217C131.559 17.2562 131.664 16.4556 131.664 15.6128C131.664 15.374 131.587 15.1703 131.439 14.9948C131.292 14.8192 131.095 14.7349 130.856 14.7349C130.209 14.7349 129.492 15.065 128.718 15.7252C127.938 16.3853 127.27 17.1579 126.707 18.0357V20.2059C126.707 20.8941 126.616 21.4981 126.433 22.0178C126.25 22.5375 126.067 22.9729 125.884 23.3311C125.702 23.6893 125.61 23.9913 125.61 24.2511C125.61 24.4899 125.737 24.7568 125.983 25.0588C126.229 25.3608 126.524 25.6558 126.855 25.9297C127.192 26.2106 127.467 26.4353 127.678 26.6109L127.157 27.3202C126.897 27.1446 126.503 26.8637 125.976 26.4774C125.449 26.0912 124.9 25.6487 124.338 25.1641C123.775 24.6795 123.325 24.223 122.98 23.7876C122.615 23.9351 122.214 24.0124 121.778 24.0124C121.476 24.0124 121.047 23.9281 120.498 23.7525C119.95 23.5769 119.359 23.3311 118.733 23.0081C118.108 22.685 117.51 22.2987 116.933 21.8422C116.364 21.3857 115.9 20.873 115.541 20.2901C115.183 19.7072 115.007 19.0822 115.007 18.415C115.007 17.1017 115.246 15.9991 115.717 15.1142C116.188 14.2293 116.821 13.5621 117.594 13.1056C118.375 12.6491 119.226 12.4243 120.154 12.4243C120.864 12.4243 121.518 12.4875 122.116 12.621C122.706 12.7474 123.213 12.9019 123.62 13.0775V10.6826C123.62 9.69237 123.881 8.93388 124.401 8.41418H120.548C120.006 8.43524 119.479 8.65296 118.959 9.06029C118.438 9.46763 118.037 9.88902 117.756 10.3244H117.046L113.84 6.86208L114.163 6.08252H133.605L135.743 8.41418L133.893 10.3244H133.183C132.733 9.84688 132.262 9.41144 131.777 9.01113C131.292 8.61081 130.757 8.41418 130.174 8.41418H127.874C127.551 8.63189 127.277 8.95494 127.052 9.38335C126.827 9.81175 126.714 10.3244 126.714 10.9074V13.0424C127.038 12.8246 127.375 12.6561 127.72 12.5227C128.064 12.3962 128.388 12.326 128.69 12.326C129.337 12.326 130.012 12.5016 130.715 12.8457C131.418 13.1898 132.072 13.6253 132.677 14.159C133.282 14.6857 133.781 15.2406 134.168 15.8235C134.554 16.4064 134.751 16.9261 134.751 17.3756C134.751 18.1973 134.646 18.9909 134.442 19.7564C134.238 20.5219 133.999 21.2172 133.732 21.8422C133.464 22.4673 133.225 22.987 133.021 23.3943C132.817 23.8017 132.712 24.0615 132.712 24.1739L132.698 24.1879ZM118.93 21.6315C119.409 21.6315 119.943 21.5051 120.548 21.2453C121.152 20.9854 121.729 20.6272 122.277 20.1637C122.826 19.7002 123.276 19.1735 123.62 18.5976V14.9105C123.423 14.8894 123.248 14.8754 123.086 14.8613C122.924 14.8473 122.77 14.8473 122.615 14.8473C121.905 14.8473 121.202 15.0509 120.512 15.4653C119.823 15.8726 119.247 16.4977 118.797 17.3264C118.347 18.1551 118.115 19.2226 118.115 20.5149C118.115 20.8169 118.178 21.0837 118.312 21.3085C118.438 21.5332 118.642 21.6456 118.93 21.6456V21.6315Z" fill="#EDE6D6"/>
<path d="M130.103 8.43517L129.358 6.10352H138.977L141.115 8.40005L139.462 10.1488H138.752C138.344 9.72039 137.859 9.32709 137.311 8.96892C136.762 8.61074 136.172 8.43517 135.546 8.43517H130.103ZM139.533 24.4196C139.104 24.223 138.611 23.9631 138.056 23.626C137.507 23.2889 137.079 23.015 136.776 22.7973C136.818 22.3408 136.854 21.8703 136.875 21.3716C136.896 20.873 136.91 20.3884 136.91 19.9178V19.37C136.91 19.1734 136.896 18.9908 136.875 18.8223L137.163 18.6256C137.599 18.8433 138.07 19.1032 138.59 19.4192C139.111 19.7353 139.511 19.9951 139.793 20.2128C139.835 20.4937 139.87 20.7817 139.891 21.0696C139.912 21.3576 139.926 21.6596 139.926 21.9616C139.926 22.3268 139.912 22.713 139.891 23.1133C139.87 23.5136 139.849 23.8929 139.828 24.2651L139.533 24.4266V24.4196ZM139.596 17.235C139.16 17.0173 138.675 16.7505 138.119 16.4274C137.571 16.1043 137.142 15.8375 136.839 15.6197C136.861 15.3388 136.875 15.0439 136.889 14.7278C136.896 14.4188 136.903 14.1168 136.903 13.8359C136.903 13.555 136.903 13.246 136.889 12.9159C136.875 12.5788 136.861 12.2768 136.839 11.9959L137.135 11.7992C137.564 12.0169 138.042 12.2768 138.562 12.5928C139.083 12.9089 139.476 13.1687 139.758 13.3864C139.863 14.0747 139.919 14.791 139.919 15.5214V16.301C139.919 16.5819 139.905 16.8418 139.884 17.0805L139.596 17.2421V17.235Z" fill="#EDE6D6"/>
<path d="M148.441 24.3845C148.441 25.0728 148.266 25.747 147.921 26.3931C147.576 27.0392 147.049 27.58 146.332 28.0084L144.194 25.6768C144.518 25.438 144.792 25.1149 145.024 24.7076C145.256 24.3003 145.362 23.8227 145.362 23.2819V8.58971C145.362 7.90146 145.537 7.22724 145.882 6.56707C146.226 5.90691 146.754 5.37316 147.471 4.96582L149.609 7.29747C149.285 7.51518 149.011 7.8242 148.786 8.23856C148.561 8.6459 148.448 9.13751 148.448 9.69233V24.3845H148.441Z" fill="#EDE6D6"/>
</svg>
