<svg width="433" height="33" viewBox="0 0 433 33" fill="none" xmlns="http://www.w3.org/2000/svg">
<path d="M2.8708 11.4036C2.8708 11.0594 2.90595 10.7223 2.96924 10.3993L0.374634 7.58304L0.698074 6.80347H12.2296L14.3672 9.13512C14.0437 9.35284 13.7695 9.6759 13.5445 10.1043C13.3195 10.5327 13.207 11.0454 13.207 11.6283V18.6514C13.207 19.8172 12.8695 20.9409 12.1875 22.0154C11.5054 23.0969 10.6476 23.9467 9.61394 24.5718L14.5078 26.8683L14.0578 27.8094L6.76621 24.5086C5.40211 23.8835 4.29114 23.1812 3.41221 22.4017C2.54031 21.6221 2.09733 20.8074 2.09733 19.9436C2.09733 19.5363 2.2239 18.9674 2.48407 18.244C2.74423 17.5206 2.8708 16.6989 2.8708 15.7649V11.3965V11.4036ZM5.03648 21.6291C5.03648 21.8468 5.12085 22.0575 5.29664 22.2612C5.47243 22.4649 5.824 22.7177 6.36542 23.0197C7.44826 22.4368 8.34125 21.6221 9.05143 20.5757C9.7616 19.5292 10.1202 18.3283 10.1202 16.9658V11.3965C10.1202 10.4063 10.3804 9.64781 10.9007 9.13512H7.11075C6.78731 9.35284 6.51308 9.6759 6.28808 10.1043C6.06307 10.5327 5.95056 11.0454 5.95056 11.6283V17.4504C5.95056 18.0965 5.87322 18.6865 5.72556 19.2132C5.57087 19.7399 5.4232 20.2035 5.26851 20.6038C5.11382 21.0041 5.04351 21.3412 5.04351 21.6221L5.03648 21.6291Z" fill="#EDE6D6"/>
<path d="M33.549 24.9018C33.549 25.1406 33.6686 25.3934 33.9076 25.6603C34.1467 25.9272 34.435 26.187 34.7655 26.4398C35.103 26.6857 35.3983 26.8963 35.6585 27.0719L35.1382 27.7812C34.878 27.6338 34.4983 27.3739 33.985 27.0017C33.4787 26.6365 32.9514 26.2221 32.3959 25.7726C31.8474 25.3162 31.3834 24.8737 31.0037 24.4312C30.624 23.9888 30.4341 23.6166 30.4341 23.3146C30.4341 23.139 30.5396 22.837 30.7435 22.4086C30.9474 21.9802 31.1935 21.4465 31.4748 20.8214C31.756 20.1964 31.9951 19.5011 32.206 18.7356C32.41 17.9701 32.5154 17.1624 32.5154 16.3266C32.5154 16.0879 32.4381 15.8842 32.2904 15.7086C32.1357 15.5331 31.9459 15.4488 31.7068 15.4488C31.0599 15.4488 30.3427 15.7788 29.5693 16.439C28.7888 17.0992 28.1208 17.8717 27.5583 18.7496V20.9197C27.5583 21.608 27.4669 22.212 27.284 22.7317C27.1012 23.2514 26.9184 23.6868 26.7356 24.045C26.5528 24.4032 26.4613 24.7051 26.4613 24.965C26.4613 25.2038 26.5879 25.4707 26.834 25.7726C27.0801 26.0746 27.3754 26.3626 27.7059 26.6435C28.0364 26.9244 28.3176 27.1492 28.5286 27.3247L28.0083 28.0341C27.7481 27.8585 27.3543 27.5846 26.827 27.1913C26.2996 26.805 25.7512 26.3626 25.1887 25.878C24.6261 25.3934 24.1761 24.9369 23.8316 24.5015C23.466 24.649 23.0652 24.7262 22.6363 24.7262C22.3339 24.7262 21.905 24.6419 21.3565 24.4664C20.8081 24.2908 20.2174 24.045 19.5916 23.7219C18.9658 23.3989 18.3682 23.0126 17.7916 22.5561C17.222 22.1066 16.758 21.5869 16.3994 21.004C16.0408 20.4211 15.865 19.796 15.865 19.1289C15.865 17.8155 16.104 16.7129 16.5751 15.828C17.0533 14.9431 17.6791 14.2759 18.4525 13.8194C19.233 13.3629 20.0838 13.1382 21.012 13.1382C21.7222 13.1382 22.3761 13.2014 22.9738 13.3348C23.5714 13.4613 24.0707 13.6158 24.4785 13.7843V11.3894C24.4785 10.3992 24.7387 9.6407 25.259 9.12802H21.4058C20.8643 9.14909 20.337 9.36681 19.8166 9.77415C19.2963 10.1815 18.8955 10.6029 18.6143 11.0383H17.9041L14.6978 7.57593L15.0212 6.79639H34.4631L36.6007 9.12802L34.7514 11.0383H34.0412C33.5842 10.5607 33.1201 10.1253 32.635 9.72498C32.1498 9.32467 31.6154 9.12802 31.0318 9.12802H28.7325C28.4091 9.34574 28.1348 9.6688 27.9028 10.0972C27.6778 10.5256 27.5653 11.0383 27.5653 11.6212V13.7562C27.8887 13.5385 28.2262 13.3699 28.5708 13.2365C28.9153 13.1101 29.2388 13.0399 29.5411 13.0399C30.188 13.0399 30.863 13.2155 31.5662 13.5596C32.2693 13.9037 32.9232 14.3391 33.5279 14.8729C34.1326 15.3996 34.6319 15.9544 35.0186 16.5373C35.4053 17.1203 35.6022 17.64 35.6022 18.0894C35.6022 18.9111 35.4968 19.7047 35.2928 20.4703C35.0889 21.2358 34.8499 21.9311 34.5827 22.5561C34.3155 23.1812 34.0764 23.7009 33.8725 24.1082C33.6686 24.5155 33.5631 24.7754 33.5631 24.8877L33.549 24.9018ZM19.7815 22.3454C20.2526 22.3454 20.794 22.219 21.3987 21.9591C22.0034 21.6993 22.58 21.3411 23.1285 20.8776C23.6769 20.4141 24.1269 19.8873 24.4715 19.3044V15.6173C24.2746 15.5963 24.0988 15.5822 23.9371 15.5682C23.7753 15.5541 23.6207 15.5541 23.466 15.5541C22.7558 15.5541 22.0526 15.7578 21.3565 16.1722C20.6674 16.5795 20.0909 17.2045 19.6409 18.0333C19.1908 18.862 18.9588 19.9295 18.9588 21.2217C18.9588 21.5237 19.0221 21.7906 19.1557 22.0153C19.2822 22.2401 19.4932 22.3524 19.7745 22.3524L19.7815 22.3454Z" fill="#EDE6D6"/>
<path d="M30.9544 9.1422L30.2091 6.81055H39.8281L41.9657 9.10707L40.3133 10.8558H39.6031C39.1953 10.4274 38.7101 10.0341 38.1617 9.67596C37.6132 9.31779 37.0226 9.1422 36.3968 9.1422H30.9544ZM40.3836 25.1267C39.9547 24.93 39.4625 24.6702 38.907 24.3331C38.3515 23.9959 37.9296 23.722 37.6273 23.5043C37.6695 23.0548 37.7046 22.5773 37.7257 22.0786C37.7468 21.58 37.7538 21.0954 37.7538 20.6249V20.0771C37.7538 19.8804 37.7398 19.6978 37.7257 19.5293L38.014 19.3326C38.4429 19.5504 38.9211 19.8102 39.4414 20.1262C39.9617 20.4423 40.3555 20.7021 40.6438 20.9198C40.686 21.2008 40.7211 21.4887 40.7422 21.7767C40.7633 22.0716 40.7703 22.3666 40.7703 22.6686C40.7703 23.0338 40.7563 23.42 40.7422 23.8204C40.7211 24.2207 40.7 24.5999 40.6789 24.9722L40.3836 25.1337V25.1267ZM40.4469 17.9421C40.0109 17.7244 39.5258 17.4575 38.9703 17.1344C38.4148 16.8114 37.9929 16.5445 37.6906 16.3268C37.7117 16.0458 37.7257 15.7509 37.7398 15.4348C37.7468 15.1258 37.7538 14.8238 37.7538 14.5429C37.7538 14.262 37.7538 13.953 37.7398 13.6229C37.7257 13.2858 37.7117 12.9838 37.6906 12.7029L37.9859 12.5062C38.4148 12.724 38.8929 12.9838 39.4133 13.2998C39.9336 13.6159 40.3344 13.8757 40.6086 14.0934C40.7141 14.7817 40.7703 15.4981 40.7703 16.2285V17.008C40.7703 17.2889 40.7563 17.5488 40.7422 17.7876L40.4469 17.9491V17.9421Z" fill="#EDE6D6"/>
<path d="M64.1639 20.9196C64.1639 21.6079 64.0444 22.2119 63.8053 22.7316C63.5663 23.2513 63.3272 23.6867 63.0952 24.0449C62.8631 24.4031 62.7366 24.7051 62.7366 24.9649C62.7366 25.2037 62.8842 25.4706 63.1725 25.7726C63.4608 26.0746 63.7983 26.3625 64.178 26.6434C64.5577 26.9243 64.8741 27.1491 65.1343 27.3247L64.6139 28.034C64.3538 27.8865 63.953 27.6267 63.4116 27.2544C62.8701 26.8893 62.3147 26.4749 61.7451 26.0114C61.1756 25.5478 60.6834 25.0913 60.2685 24.6348C59.8607 24.1854 59.6498 23.8061 59.6498 23.5041C59.6498 23.1811 59.7693 22.8299 60.0084 22.4507C60.2474 22.0714 60.4795 21.629 60.7185 21.1233C60.9576 20.6177 61.0771 20.0207 61.0771 19.3254V17.6399C60.9928 17.6188 60.9013 17.6118 60.817 17.6118H60.5568C59.9943 17.6118 59.3685 17.7593 58.6794 18.0472C57.9903 18.3422 57.3012 18.7144 56.6192 19.1779C55.9371 19.6415 55.3184 20.126 54.7559 20.6317C54.1934 21.1374 53.7433 21.6079 53.3918 22.0363C53.0472 22.4647 52.8714 22.8018 52.8714 23.0406C52.8714 23.3426 53.0683 23.7289 53.455 24.2064C53.8418 24.684 54.341 25.1967 54.9457 25.7445C55.5504 26.2923 56.1762 26.8401 56.8231 27.3809L56.1762 28.1604C55.5926 27.725 54.9176 27.1912 54.1512 26.5451C53.3847 25.899 52.6113 25.1826 51.8378 24.4101C51.0644 23.6376 50.3331 22.844 49.6651 22.0504C48.9971 21.2568 48.4557 20.4842 48.0479 19.7538C47.6401 19.0234 47.4291 18.3703 47.4291 17.8084C47.4291 17.078 47.5557 16.4881 47.8158 16.0457C48.076 15.6032 48.3854 15.2801 48.758 15.0765C49.1237 14.8728 49.4682 14.7675 49.7917 14.7675C50.1151 14.7675 50.4807 14.9079 50.8745 15.1888C51.2683 15.4698 51.6409 15.7507 51.9784 16.0316C52.316 16.3125 52.5339 16.453 52.6464 16.453C52.8855 16.453 53.0683 16.2564 53.1949 15.856C53.3215 15.4557 53.3918 14.922 53.3918 14.2548V11.4104C53.3918 10.4202 53.6519 9.66172 54.1723 9.14904H53.0683C52.5058 9.14904 51.9574 9.35973 51.4159 9.78111C50.8745 10.2025 50.4526 10.6309 50.1503 11.0593H49.4401L46.2338 7.59693L46.5572 6.81738H63.1795L65.3171 9.14904C64.9936 9.36675 64.7194 9.67577 64.4874 10.0691C64.2624 10.4694 64.1499 10.9469 64.1499 11.5088V20.9267L64.1639 20.9196ZM61.0842 11.4034C61.0842 10.4132 61.3443 9.65469 61.8647 9.14201H57.6528C57.3294 9.35972 57.0551 9.68279 56.8231 10.1112C56.5981 10.5396 56.4856 11.0523 56.4856 11.6352V15.842C57.4138 15.4347 58.2786 15.224 59.0802 15.224C59.4036 15.224 59.7341 15.245 60.0646 15.2872C60.4021 15.3293 60.7396 15.3925 61.0842 15.4838V11.4034Z" fill="#EDE6D6"/>
<path d="M71.2235 20.9199C71.2235 21.6081 71.104 22.2121 70.8649 22.7318C70.6258 23.2515 70.3867 23.6869 70.1547 24.0451C69.9156 24.4033 69.7961 24.7053 69.7961 24.9651C69.7961 25.2039 69.9438 25.4708 70.232 25.7728C70.5203 26.0748 70.8579 26.3627 71.2375 26.6436C71.6172 26.9246 71.9337 27.1493 72.1938 27.3249L71.6735 28.0342C71.4133 27.8867 71.0125 27.6269 70.4782 27.2547C69.9367 26.8895 69.3813 26.4751 68.8117 26.0116C68.2422 25.548 67.75 25.0916 67.3351 24.6351C66.9273 24.1856 66.7163 23.8063 66.7163 23.5043C66.7163 23.1813 66.8359 22.8301 67.0749 22.4509C67.314 22.0716 67.546 21.6292 67.7851 21.1235C68.0242 20.6179 68.1437 20.0209 68.1437 19.3256V11.3966C68.1437 10.4064 68.4039 9.64787 68.9242 9.13519H62.5115L61.8014 6.80353H69.6766C69.0086 5.72198 68.3406 4.94243 67.6867 4.45784C67.0257 3.97325 66.2101 3.72746 65.2397 3.72746C64.6983 3.72746 64.0866 3.78363 63.4116 3.88897C62.7295 3.99432 61.9771 4.15585 61.1615 4.37357L59.6075 1.65565C61.0982 1.22725 62.4131 1.00952 63.5592 1.00952C64.5085 1.00952 65.3874 1.2413 66.203 1.70482C67.0187 2.16834 67.771 2.78636 68.4672 3.56592C69.1703 4.34548 69.8453 5.20931 70.4922 6.17146C71.1391 7.13362 71.779 8.11685 72.4048 9.13519C72.0813 9.3529 71.8071 9.67597 71.5821 10.1044C71.3571 10.5328 71.2446 11.0455 71.2446 11.6284V20.9128L71.2235 20.9199Z" fill="#EDE6D6"/>
<path d="M85.5465 20.9198C85.5465 21.608 85.4269 22.212 85.1879 22.7317C84.9488 23.2515 84.7097 23.6869 84.4777 24.0451C84.2386 24.4032 84.1191 24.7052 84.1191 24.9651C84.1191 25.2039 84.2668 25.4707 84.5551 25.7727C84.8433 26.0747 85.1808 26.3626 85.5605 26.6436C85.9402 26.9245 86.2567 27.1492 86.5168 27.3248L85.9965 28.0341C85.7574 27.9077 85.4129 27.683 84.9629 27.374C84.5129 27.065 84.0207 26.7068 83.5074 26.3065C82.987 25.9062 82.5159 25.5058 82.08 25.0915C81.644 24.6841 81.3487 24.3119 81.1729 23.9889C80.9761 24.031 80.7932 24.0731 80.6245 24.1012C80.4487 24.1293 80.2799 24.1504 80.1041 24.1504C79.6049 24.1504 79.0424 24.0029 78.4025 23.7009C77.7627 23.3989 77.1439 23.0056 76.5392 22.521C75.9345 22.0365 75.4353 21.5097 75.0345 20.9479C74.6337 20.386 74.4368 19.8453 74.4368 19.3326C74.4368 18.9253 74.5634 18.3564 74.8235 17.633C75.0837 16.9096 75.2103 16.0879 75.2103 15.1609V11.4036C75.2103 11.0594 75.2454 10.7223 75.3087 10.3993L72.7141 7.58304L73.0376 6.80347H84.5691L86.7067 9.13512C86.3832 9.35284 86.109 9.6759 85.884 10.1043C85.659 10.5327 85.5465 11.0454 85.5465 11.6283V20.9128V20.9198ZM82.4667 11.4036C82.4667 10.4133 82.7269 9.65483 83.2472 9.14215H79.4573C79.1338 9.35987 78.8596 9.68293 78.6346 10.1113C78.4096 10.5397 78.2971 11.0524 78.2971 11.6353V16.8464C78.2971 17.4926 78.2197 18.0825 78.0721 18.6092C77.9174 19.1359 77.7697 19.5995 77.615 19.9998C77.4603 20.4001 77.39 20.7372 77.39 21.0181C77.39 21.5168 77.5939 21.7626 78.0088 21.7626C78.3955 21.7626 78.8596 21.6642 79.401 21.4676C79.9424 21.2709 80.4909 20.9971 81.0534 20.6459C81.6159 20.2948 82.087 19.8874 82.4808 19.4309V11.4036H82.4667Z" fill="#EDE6D6"/>
<path d="M92.606 20.9198C92.606 21.608 92.4865 22.212 92.2474 22.7317C92.0084 23.2515 91.7693 23.6869 91.5372 24.0451C91.3052 24.4032 91.1786 24.7052 91.1786 24.9651C91.1786 25.2039 91.3263 25.4707 91.6146 25.7727C91.9099 26.0747 92.2404 26.3626 92.6201 26.6436C92.9998 26.9245 93.3162 27.1492 93.5764 27.3248L93.056 28.0341C92.7959 27.8867 92.3951 27.6268 91.8537 27.2546C91.3123 26.8894 90.7568 26.475 90.1872 26.0115C89.6177 25.548 89.1255 25.0915 88.7106 24.635C88.3028 24.1855 88.0918 23.8063 88.0918 23.5043C88.0918 23.1812 88.2114 22.8301 88.4505 22.4508C88.6895 22.0716 88.9286 21.6291 89.1606 21.1235C89.3997 20.6178 89.5192 20.0208 89.5192 19.3256V11.3965C89.5192 10.4063 89.7794 9.64781 90.2997 9.13512H83.887L83.1769 6.80347H91.6357L93.7732 9.13512C93.4498 9.35284 93.1756 9.6759 92.9506 10.1043C92.7256 10.5327 92.6131 11.0454 92.6131 11.6283V20.9128L92.606 20.9198Z" fill="#EDE6D6"/>
<path d="M108.483 20.9197C108.483 21.608 108.364 22.212 108.124 22.7317C107.885 23.2514 107.646 23.6868 107.414 24.045C107.175 24.4032 107.056 24.7051 107.056 24.965C107.056 25.2038 107.203 25.4707 107.492 25.7726C107.787 26.0746 108.117 26.3626 108.497 26.6435C108.877 26.9244 109.193 27.1492 109.453 27.3247L108.933 28.0341C108.673 27.8866 108.272 27.6267 107.738 27.2545C107.196 26.8893 106.641 26.4749 106.071 26.0114C105.502 25.5479 105.01 25.0914 104.595 24.6349C104.18 24.1784 103.976 23.8062 103.976 23.5042C103.976 23.1811 104.095 22.83 104.335 22.4507C104.574 22.0715 104.813 21.6291 105.045 21.1234C105.284 20.6177 105.403 20.0208 105.403 19.3255V15.9615C104.82 15.8982 104.257 15.8631 103.716 15.8631C103.266 15.8631 102.76 15.9895 102.211 16.2494C101.663 16.5093 101.199 16.9517 100.833 17.5768C100.875 18.1175 100.917 18.7215 100.945 19.3887C100.981 20.0559 101.002 20.709 101.03 21.3341C101.051 21.9591 101.065 22.4859 101.065 22.9213C101.065 23.3567 100.931 23.7711 100.678 24.1152C100.425 24.4593 100.073 24.6349 99.6446 24.6349C99.3 24.6349 98.8711 24.5225 98.3649 24.2978C97.8586 24.0731 97.3523 23.7781 96.8601 23.427C96.3609 23.0688 95.9461 22.6755 95.6156 22.233C95.2781 21.7906 95.1163 21.3622 95.1163 20.9548C95.1163 20.0489 95.2851 19.1569 95.6156 18.272C95.9531 17.3871 96.4172 16.5865 97.0219 15.8631C97.6266 15.1398 98.3297 14.5568 99.1243 14.1144C99.9258 13.6719 100.777 13.4542 101.684 13.4542C102.373 13.4542 103.02 13.5104 103.61 13.6158C104.201 13.7211 104.806 13.8826 105.41 14.1003V11.4175C105.41 10.4273 105.671 9.6688 106.191 9.15612H100.749C100.207 9.19826 99.6868 9.423 99.1946 9.83736C98.6953 10.2447 98.3086 10.6591 98.0274 11.0664H97.3172L94.1108 7.60403L94.4343 6.82446H107.52L109.657 9.15612C109.334 9.37383 109.06 9.6969 108.835 10.1253C108.61 10.5537 108.497 11.0664 108.497 11.6493V20.9338L108.483 20.9197Z" fill="#EDE6D6"/>
<path d="M104.496 9.1422L103.751 6.81055H113.37L115.507 9.10707L113.855 10.8558H113.145C112.737 10.4274 112.252 10.0341 111.703 9.67596C111.155 9.31779 110.564 9.1422 109.939 9.1422H104.496ZM113.925 25.1267C113.489 24.93 113.004 24.6702 112.449 24.3331C111.893 23.9959 111.471 23.722 111.169 23.5043C111.211 23.0548 111.246 22.5773 111.267 22.0786C111.289 21.58 111.303 21.0954 111.303 20.6249V20.0771C111.303 19.8804 111.289 19.6978 111.267 19.5293L111.563 19.3326C111.992 19.5504 112.47 19.8102 112.99 20.1262C113.511 20.4423 113.904 20.7021 114.193 20.9198C114.235 21.2008 114.27 21.4887 114.291 21.7767C114.312 22.0716 114.326 22.3666 114.326 22.6686C114.326 23.0338 114.312 23.42 114.291 23.8204C114.27 24.2207 114.249 24.5999 114.228 24.9722L113.939 25.1337L113.925 25.1267ZM113.989 17.9421C113.553 17.7244 113.068 17.4575 112.512 17.1344C111.957 16.8114 111.535 16.5445 111.232 16.3268C111.253 16.0458 111.267 15.7509 111.282 15.4348C111.296 15.1258 111.296 14.8238 111.296 14.5429C111.296 14.262 111.296 13.953 111.282 13.6229C111.267 13.2858 111.253 12.9838 111.232 12.7029L111.521 12.5062C111.957 12.724 112.428 12.9838 112.948 13.2998C113.468 13.6159 113.869 13.8757 114.15 14.0934C114.256 14.7817 114.312 15.4981 114.312 16.2285V17.008C114.312 17.2889 114.298 17.5488 114.277 17.7876L113.982 17.9491L113.989 17.9421Z" fill="#EDE6D6"/>
<path d="M122.834 25.0916C122.834 25.7798 122.658 26.4541 122.314 27.1002C121.969 27.7463 121.442 28.2871 120.725 28.7155L118.587 26.3838C118.911 26.145 119.185 25.822 119.41 25.4146C119.635 25.0073 119.747 24.5297 119.747 23.9889V9.29675C119.747 8.60849 119.923 7.93427 120.268 7.27411C120.612 6.61394 121.14 6.08019 121.857 5.67285L123.994 8.00451C123.671 8.22222 123.397 8.53123 123.172 8.94559C122.947 9.35293 122.834 9.84455 122.834 10.3994V25.0916Z" fill="#EDE6D6"/>
<path d="M141.271 9.14208C140.968 9.3598 140.701 9.68286 140.462 10.1113C140.223 10.5397 140.103 11.0523 140.103 11.6353V14.0933C140.103 14.1776 140.089 14.2689 140.068 14.3532C140.497 14.29 140.919 14.2549 141.334 14.2549C142.065 14.2549 142.747 14.311 143.373 14.4164C143.999 14.5217 144.618 14.6973 145.222 14.9361V11.0524C145.222 10.9259 145.236 10.8065 145.258 10.6942L142.41 7.58999L142.733 6.81043H147.332L149.469 9.14208C149.146 9.3598 148.872 9.68286 148.647 10.1113C148.422 10.5397 148.309 11.0523 148.309 11.6353V20.9197C148.309 21.608 148.19 22.212 147.951 22.7317C147.712 23.2514 147.472 23.6868 147.24 24.045C147.001 24.4032 146.882 24.7051 146.882 24.965C146.882 25.2038 147.029 25.4707 147.318 25.7726C147.613 26.0746 147.944 26.3626 148.323 26.6435C148.703 26.9244 149.019 27.1492 149.28 27.3247L148.759 28.0341C148.499 27.8866 148.098 27.6267 147.564 27.2545C147.022 26.8893 146.467 26.4749 145.897 26.0114C145.328 25.5479 144.836 25.0914 144.421 24.6349C144.006 24.1784 143.802 23.8062 143.802 23.5042C143.802 23.1811 143.922 22.83 144.161 22.4507C144.4 22.0715 144.632 21.6291 144.871 21.1234C145.11 20.6177 145.229 20.0208 145.229 19.3255V16.734C144.751 16.6708 144.266 16.6357 143.774 16.6357C143.127 16.6357 142.417 16.6989 141.65 16.8323C140.884 16.9657 140.033 17.2396 139.105 17.6751C139.886 18.3423 140.554 19.1078 141.116 19.9716C141.679 20.8354 141.96 21.6782 141.96 22.4929C141.96 23.2514 141.777 23.9537 141.411 24.6138C141.046 25.274 140.518 25.8008 139.822 26.2011C139.133 26.6014 138.296 26.798 137.326 26.798C136.356 26.798 135.421 26.5452 134.457 26.0395C133.494 25.5339 132.622 24.8597 131.835 24.0169C131.047 23.1741 130.414 22.233 129.936 21.2006L130.808 20.6809C131.56 21.8678 132.285 22.7387 132.981 23.3005C133.677 23.8624 134.415 24.1433 135.217 24.1433C135.976 24.1433 136.623 23.9467 137.178 23.5464C137.727 23.146 138.156 22.6404 138.458 22.0223C138.76 21.4043 138.915 20.7652 138.915 20.098C138.915 19.0446 138.557 18.5108 137.846 18.5108C137.263 18.5108 136.7 18.6864 136.159 19.0305C135.617 19.3746 135.189 19.796 134.865 20.2947L131.687 17.9981C131.947 17.3941 132.418 16.8885 133.093 16.4741C133.775 16.0668 134.499 15.8561 135.28 15.8561C135.385 15.8561 135.491 15.8561 135.589 15.8701C135.688 15.8842 135.786 15.8982 135.899 15.9193C136.398 15.533 136.707 15.0274 136.841 14.4164C136.967 13.7984 137.038 13.2435 137.038 12.7519V11.3894C137.038 10.3992 137.298 9.6407 137.818 9.12802H136.166C135.709 9.12802 135.273 9.29659 134.837 9.62667C134.408 9.96378 134.071 10.3149 133.831 10.6801H133.121L130.238 7.57593L130.562 6.79639H139.147L141.285 9.12802L141.271 9.14208Z" fill="#B2462D"/>
<path d="M160.544 11.4036C160.544 10.4134 160.804 9.65489 161.324 9.1422H156.494C155.952 9.16327 155.425 9.38097 154.905 9.78831C154.384 10.1956 153.983 10.617 153.702 11.0525H152.992L149.786 7.59012L150.109 6.81055H162.646L164.784 9.1422C164.46 9.35992 164.186 9.68298 163.954 10.1114C163.729 10.5398 163.616 11.0525 163.616 11.6354V20.9198C163.616 21.6081 163.497 22.2121 163.258 22.7318C163.019 23.2515 162.78 23.6869 162.548 24.0451C162.316 24.4033 162.189 24.7053 162.189 24.9651C162.189 25.2039 162.337 25.4708 162.625 25.7728C162.913 26.0748 163.251 26.3627 163.631 26.6436C164.01 26.9245 164.327 27.1493 164.587 27.3249L164.066 28.0342C163.806 27.8586 163.391 27.5847 162.822 27.1914C162.252 26.8051 161.662 26.3627 161.057 25.8781C160.452 25.3935 159.967 24.937 159.602 24.5016C159.299 24.6069 158.983 24.6983 158.659 24.7755C158.336 24.8528 158.019 24.8879 157.717 24.8879C157.415 24.8879 156.986 24.8036 156.437 24.628C155.889 24.4524 155.298 24.1996 154.673 23.8695C154.047 23.5324 153.449 23.1321 152.872 22.6545C152.303 22.177 151.839 21.6432 151.48 21.0533C151.122 20.4633 150.946 19.8172 150.946 19.129C150.946 17.7946 151.199 16.6709 151.705 15.7649C152.211 14.859 152.879 14.1707 153.716 13.6931C154.546 13.2226 155.446 12.9838 156.423 12.9838C157.267 12.9838 158.041 13.047 158.758 13.1805C159.468 13.3069 160.066 13.4614 160.537 13.6299V11.3966L160.544 11.4036ZM155.2 22.5071C155.741 22.5071 156.346 22.3806 157.028 22.1208C157.71 21.8609 158.364 21.5028 159.004 21.0392C159.644 20.5757 160.15 20.049 160.544 19.4731V15.5261C160.22 15.484 159.925 15.4489 159.651 15.4278C159.384 15.4067 159.123 15.3927 158.891 15.3927C158.069 15.3927 157.288 15.6174 156.543 16.0739C155.798 16.5304 155.2 17.1836 154.743 18.0474C154.286 18.9113 154.061 19.9647 154.061 21.2148C154.061 21.5589 154.152 21.8609 154.335 22.1208C154.518 22.3806 154.806 22.5071 155.193 22.5071H155.2Z" fill="#B2462D"/>
<path d="M168.806 8.72072C168.419 8.35552 168.018 7.83582 167.603 7.16864C167.196 6.50145 166.985 5.85532 166.985 5.23027C166.985 4.42964 167.329 3.69222 168.018 3.01098C168.707 2.32975 169.621 1.78898 170.753 1.37462C171.886 0.967287 173.102 0.756592 174.396 0.756592C175.366 0.756592 176.435 1.04454 177.602 1.6134C178.769 2.18227 179.944 2.96885 181.118 3.9591C182.292 4.94935 183.382 6.07304 184.373 7.32314L183.726 7.84284C182.475 6.43823 181.251 5.35668 180.063 4.59117C178.875 3.82566 177.644 3.44641 176.372 3.44641C175.099 3.44641 174.058 3.62199 173.13 3.98017C172.202 4.33834 171.478 4.79483 170.957 5.35668C170.437 5.91852 170.177 6.48739 170.177 7.0703C170.177 7.61108 170.346 8.13079 170.676 8.63645C171.014 9.14211 171.372 9.55646 171.759 9.87952C171.436 10.0972 171.161 10.4203 170.936 10.8487C170.711 11.2841 170.599 11.7898 170.599 12.3727V20.9127C170.599 21.601 170.479 22.205 170.24 22.7247C170.001 23.2444 169.762 23.6798 169.53 24.038C169.298 24.3962 169.171 24.6981 169.171 24.958C169.171 25.1968 169.319 25.4637 169.607 25.7656C169.903 26.0676 170.233 26.3556 170.613 26.6365C170.993 26.9174 171.309 27.1422 171.569 27.3178L171.049 28.0271C170.789 27.8796 170.388 27.6197 169.846 27.2475C169.305 26.8823 168.75 26.468 168.18 26.0044C167.61 25.5409 167.118 25.0844 166.703 24.6279C166.296 24.1784 166.085 23.7992 166.085 23.4972C166.085 23.1742 166.204 22.823 166.443 22.4438C166.682 22.0645 166.921 21.6221 167.153 21.1164C167.392 20.6107 167.512 20.0138 167.512 19.3185V11.8741C167.512 11.1437 167.61 10.5327 167.821 10.0481C168.025 9.5635 168.342 9.11402 168.778 8.70668L168.806 8.72072Z" fill="#B2462D"/>
<path d="M183.516 9.14208C183.192 9.3598 182.918 9.68286 182.686 10.1113C182.461 10.5397 182.348 11.0523 182.348 11.6353V15.6805C182.348 17.1273 182.123 18.3001 181.666 19.1921C181.216 20.091 180.576 20.7863 179.754 21.2779C179.212 21.5799 178.734 21.7555 178.312 21.7976C177.89 21.8397 177.679 21.924 177.679 22.0575C177.679 22.2752 177.848 22.5912 178.179 23.0126C178.516 23.434 178.938 23.9045 179.458 24.4383C179.979 24.965 180.52 25.4917 181.097 26.0044C181.666 26.5241 182.201 26.9876 182.7 27.395L182.053 28.1745C181.469 27.7391 180.794 27.2053 180.028 26.5592C179.261 25.9131 178.488 25.1968 177.715 24.4242C176.941 23.6517 176.217 22.8581 175.542 22.0645C174.867 21.2709 174.332 20.4983 173.925 19.768C173.517 19.0376 173.306 18.3844 173.306 17.8226C173.306 17.0922 173.432 16.4882 173.693 16.0247C173.953 15.5611 174.262 15.21 174.635 14.9712C175 14.7324 175.345 14.613 175.668 14.613C175.992 14.613 176.35 14.7535 176.751 15.0344C177.152 15.3153 177.518 15.5963 177.855 15.8772C178.193 16.1581 178.411 16.2986 178.523 16.2986C178.762 16.2986 178.945 16.1019 179.072 15.7016C179.198 15.3013 179.269 14.7675 179.269 14.1003V11.4175C179.269 10.4273 179.529 9.6688 180.049 9.15612H178.755C178.214 9.19826 177.693 9.423 177.201 9.83736C176.702 10.2447 176.315 10.6591 176.034 11.0664H175.324L172.118 7.60403L172.441 6.82446H181.385L183.523 9.15612L183.516 9.14208Z" fill="#B2462D"/>
<path d="M189.12 20.9199C189.12 21.6081 189 22.2121 188.761 22.7318C188.522 23.2515 188.283 23.6869 188.051 24.0451C187.812 24.4033 187.692 24.7053 187.692 24.9651C187.692 25.2039 187.84 25.4708 188.128 25.7728C188.423 26.0748 188.754 26.3627 189.134 26.6436C189.513 26.9246 189.83 27.1493 190.09 27.3249L189.57 28.0342C189.309 27.8867 188.909 27.6269 188.374 27.2547C187.833 26.8895 187.277 26.4751 186.708 26.0116C186.138 25.548 185.646 25.0916 185.231 24.6351C184.816 24.1786 184.612 23.8063 184.612 23.5043C184.612 23.1813 184.732 22.8301 184.971 22.4509C185.21 22.0716 185.449 21.6292 185.681 21.1235C185.92 20.6179 186.04 20.0209 186.04 19.3256V11.3966C186.04 10.4064 186.3 9.64787 186.82 9.13519H180.408L179.697 6.80353H187.573C186.905 5.72198 186.237 4.94243 185.583 4.45784C184.922 3.97325 184.106 3.72746 183.136 3.72746C182.594 3.72746 181.983 3.78363 181.308 3.88897C180.626 3.99432 179.873 4.15585 179.058 4.37357L177.504 1.65565C178.994 1.22725 180.309 1.00952 181.455 1.00952C182.405 1.00952 183.284 1.2413 184.092 1.70482C184.901 2.16834 185.66 2.78636 186.363 3.56592C187.066 4.34548 187.741 5.20931 188.388 6.17146C189.035 7.13362 189.675 8.11685 190.301 9.13519C189.977 9.3529 189.703 9.67597 189.478 10.1044C189.253 10.5328 189.141 11.0455 189.141 11.6284V20.9128L189.12 20.9199Z" fill="#B2462D"/>
<path d="M191.095 10.8908C191.095 10.7855 191.229 10.6521 191.503 10.5046C191.778 10.3571 192.059 10.2237 192.361 10.1183C192.509 9.38791 192.72 8.71371 192.994 8.10973C193.261 7.50574 193.563 7.02115 193.887 6.65595C194.21 6.29075 194.492 6.10815 194.731 6.10815C194.991 6.10815 195.349 6.22755 195.814 6.46634C196.278 6.70512 196.742 6.98604 197.206 7.32315C197.67 7.66026 198.064 7.99735 198.387 8.34148C198.711 8.68561 198.872 8.96654 198.872 9.18425C198.872 9.59159 198.675 10.02 198.275 10.4625C197.874 10.9049 197.41 11.3122 196.882 11.6774C196.355 12.0426 195.884 12.3446 195.476 12.5834C195.434 12.8643 195.399 13.1453 195.378 13.4262C195.357 13.7071 195.342 13.988 195.342 14.2689C195.342 14.6552 195.469 15.0345 195.729 15.3997C196.25 15.1819 196.819 14.9783 197.445 14.7816C198.071 14.585 198.739 14.3953 199.456 14.1987L201.404 16.8183C199.35 17.4855 197.789 18.1527 196.721 18.8269C195.652 19.4941 195.117 20.1894 195.117 20.8987C195.117 21.3763 195.265 21.7906 195.553 22.1628C195.842 22.5351 196.207 22.7106 196.636 22.7106C197.241 22.7106 197.923 22.5842 198.696 22.3384C199.463 22.0926 200.222 21.7344 200.961 21.2709C201.706 20.8074 202.346 20.2526 202.887 19.6064V11.0664C202.887 10.94 202.894 10.8206 202.922 10.7082L200.075 7.60407L200.398 6.8245H204.997L207.134 9.15615C206.811 9.37387 206.537 9.69693 206.312 10.1253C206.086 10.5537 205.974 11.0664 205.974 11.6493V20.9338C205.974 21.6221 205.854 22.226 205.615 22.7458C205.376 23.2655 205.137 23.7009 204.905 24.0591C204.666 24.4172 204.547 24.7192 204.547 24.9791C204.547 25.2179 204.694 25.4847 204.983 25.7867C205.278 26.0887 205.608 26.3767 205.988 26.6576C206.368 26.9385 206.684 27.1633 206.944 27.3388L206.424 28.0481C206.164 27.8726 205.756 27.5987 205.194 27.2265C204.631 26.8472 204.054 26.4188 203.464 25.9342C202.866 25.4496 202.388 24.9931 202.022 24.5577C201.115 24.9229 200.286 25.1055 199.526 25.1055C199.224 25.1055 198.781 24.9931 198.197 24.7684C197.614 24.5437 196.974 24.2206 196.285 23.8132C195.596 23.4059 194.928 22.9143 194.295 22.3595C193.655 21.7976 193.142 21.1866 192.741 20.5335C192.34 19.8733 192.143 19.1921 192.143 18.4757C192.143 17.9982 192.368 17.5417 192.825 17.0992C193.282 16.6568 193.915 16.2284 194.738 15.821C194.133 15.3435 193.599 14.8308 193.135 14.283C192.67 13.7352 192.382 13.0891 192.277 12.3587C191.995 12.1199 191.728 11.86 191.482 11.5651C191.236 11.2701 191.11 11.0524 191.11 10.9049L191.095 10.8908Z" fill="#B2462D"/>
<path d="M209.469 31.2437L208.562 30.1129C209.061 29.1227 209.433 28.0201 209.68 26.8121C209.926 25.6042 210.052 24.1995 210.052 22.6053L210.537 22.3455L213.385 24.031C213.385 25.3443 213.083 26.6155 212.478 27.8305C211.873 29.0454 211.03 30.1902 209.954 31.2437H209.469Z" fill="#B2462D"/>
<path d="M235.288 20.9196C235.288 21.6079 235.168 22.2119 234.929 22.7316C234.69 23.2513 234.451 23.6867 234.219 24.0449C233.98 24.4031 233.861 24.7051 233.861 24.9649C233.861 25.2037 234.008 25.4706 234.297 25.7726C234.585 26.0746 234.922 26.3625 235.302 26.6434C235.682 26.9243 235.998 27.1491 236.258 27.3247L235.738 28.034C235.478 27.8865 235.077 27.6267 234.536 27.2544C233.994 26.8893 233.439 26.4749 232.869 26.0114C232.3 25.5478 231.807 25.0913 231.393 24.6348C230.978 24.1783 230.774 23.8061 230.774 23.5041C230.774 23.1811 230.893 22.8299 231.132 22.4507C231.372 22.0714 231.604 21.629 231.843 21.1233C232.082 20.6177 232.201 20.0207 232.201 19.3254V17.6399C232.117 17.6188 232.025 17.6118 231.941 17.6118H231.681C231.118 17.6118 230.493 17.7593 229.804 18.0472C229.114 18.3422 228.425 18.7144 227.743 19.1779C227.061 19.6415 226.442 20.126 225.88 20.6317C225.317 21.1374 224.86 21.6079 224.516 22.0363C224.171 22.4647 223.996 22.8018 223.996 23.0406C223.996 23.3426 224.192 23.7289 224.579 24.2064C224.966 24.684 225.465 25.1967 226.07 25.7445C226.675 26.2923 227.3 26.8401 227.947 27.3809L227.3 28.1604C226.717 27.725 226.042 27.1912 225.275 26.5451C224.509 25.899 223.735 25.1826 222.962 24.4101C222.181 23.6305 221.457 22.844 220.789 22.0504C220.121 21.2497 219.58 20.4842 219.172 19.7538C218.764 19.0234 218.553 18.3703 218.553 17.8084C218.553 17.078 218.68 16.4881 218.94 16.0457C219.2 15.6032 219.509 15.2801 219.882 15.0765C220.255 14.8728 220.592 14.7675 220.916 14.7675C221.239 14.7675 221.605 14.9079 221.999 15.1888C222.399 15.4698 222.765 15.7507 223.103 16.0316C223.44 16.3125 223.658 16.453 223.764 16.453C224.003 16.453 224.185 16.2564 224.312 15.856C224.439 15.4557 224.509 14.922 224.509 14.2548V11.4104C224.509 10.4202 224.769 9.66172 225.289 9.14904H224.185C223.623 9.14904 223.074 9.35973 222.533 9.78111C221.992 10.2025 221.57 10.6309 221.267 11.0593H220.557L217.351 7.59693L217.674 6.81738H234.297L236.434 9.14904C236.111 9.36675 235.836 9.67577 235.611 10.0691C235.386 10.4694 235.274 10.9469 235.274 11.5088V20.9267L235.288 20.9196ZM232.208 11.4034C232.208 10.4132 232.468 9.65469 232.989 9.14201H228.777C228.453 9.35972 228.179 9.68279 227.954 10.1112C227.729 10.5396 227.617 11.0523 227.617 11.6352V15.842C228.545 15.4347 229.41 15.224 230.211 15.224C230.535 15.224 230.865 15.245 231.203 15.2872C231.54 15.3293 231.878 15.3925 232.222 15.4838V11.4034H232.208Z" fill="#EDE6D6"/>
<path d="M245.132 13.054C245.603 13.054 246.074 13.0751 246.538 13.1172C247.002 13.1594 247.473 13.2226 247.945 13.3139V11.4036C247.945 10.4134 248.205 9.65489 248.725 9.1422H243.768C243.205 9.1422 242.657 9.35289 242.116 9.77427C241.574 10.1957 241.152 10.6241 240.85 11.0525H240.14L236.933 7.59012L237.257 6.81055H250.054L252.192 9.1422C251.868 9.35992 251.594 9.68298 251.362 10.1114C251.137 10.5398 251.024 11.0525 251.024 11.6354V15.1961L250.476 15.6526C250.068 15.6104 249.604 15.5683 249.098 15.5402C248.591 15.5051 248.12 15.491 247.691 15.491C246.503 15.491 245.413 15.7298 244.422 16.2004C243.43 16.6779 242.636 17.3732 242.059 18.2862C241.476 19.2062 241.187 20.3229 241.187 21.6362C241.187 22.479 241.673 22.9003 242.643 22.9003C243.142 22.9003 243.613 22.8442 244.049 22.7248C244.492 22.6054 244.921 22.4579 245.329 22.2893C245.202 22.0927 245.132 21.868 245.132 21.6081C245.132 21.0041 245.315 20.4282 245.68 19.8734C246.046 19.3256 246.538 18.8691 247.157 18.518C247.776 18.1598 248.458 17.9842 249.217 17.9842C249.52 17.9842 249.878 18.1387 250.286 18.4407C250.694 18.7427 251.06 19.0868 251.369 19.4731C251.685 19.8594 251.84 20.1824 251.84 20.4423C251.84 21.0673 251.503 21.7626 250.835 22.5281C250.167 23.2936 249.323 23.9327 248.31 24.4524C248.809 25.1828 249.372 25.843 250.012 26.4259C250.652 27.0088 251.27 27.5145 251.875 27.9499L251.193 28.7576C250.588 28.3502 249.871 27.8024 249.041 27.1212C248.212 26.44 247.516 25.7587 246.953 25.0634C246.285 25.2109 245.68 25.2882 245.139 25.2882C244.359 25.2882 243.564 25.1126 242.741 24.7544C241.919 24.3962 241.152 23.9257 240.442 23.3287C239.732 22.7318 239.155 22.0857 238.726 21.3693C238.29 20.66 238.079 19.9436 238.079 19.2343C238.079 17.9421 238.396 16.8324 239.036 15.8984C239.676 14.9713 240.526 14.262 241.595 13.7774C242.664 13.2928 243.845 13.047 245.139 13.047L245.132 13.054Z" fill="#EDE6D6"/>
<path d="M250.251 8.13774C249.667 7.10535 249.126 6.26256 248.634 5.61644C248.134 4.97032 247.607 4.49276 247.045 4.19077C246.482 3.88878 245.814 3.73427 245.034 3.73427C244.492 3.73427 243.88 3.79046 243.205 3.89581C242.523 4.00116 241.771 4.16269 240.955 4.3804L239.401 1.66249C240.892 1.23408 242.207 1.01636 243.353 1.01636C244.302 1.01636 245.181 1.24811 245.997 1.71163C246.805 2.17515 247.565 2.7932 248.261 3.57276C248.964 4.35231 249.639 5.21614 250.286 6.1783C250.933 7.14046 251.573 8.12368 252.199 9.14203L250.258 8.13774H250.251Z" fill="#EDE6D6"/>
<path d="M261.818 13.2156L263.533 15.5121L263.407 15.9335H262.697C262.05 15.9335 261.396 16.1231 260.735 16.5023C260.074 16.8816 259.525 17.4224 259.082 18.1387C258.639 18.8551 258.421 19.7259 258.421 20.7583C258.421 21.1446 258.541 21.4887 258.78 21.7767C259.019 22.0716 259.385 22.2121 259.884 22.2121C260.383 22.2121 260.974 22.0787 261.6 21.8258C262.225 21.566 262.837 21.2078 263.428 20.7583C264.018 20.3089 264.504 19.7891 264.869 19.2062V11.4036C264.869 10.4134 265.129 9.65489 265.65 9.1422H259.364C258.801 9.1422 258.253 9.35289 257.711 9.77427C257.17 10.1957 256.748 10.6241 256.446 11.0525H255.735L252.529 7.59012L252.853 6.81055H266.979L269.116 9.1422C268.793 9.35992 268.519 9.68298 268.294 10.1114C268.069 10.5398 267.956 11.0525 267.956 11.6354V20.9198C267.956 21.6081 267.836 22.2121 267.597 22.7318C267.358 23.2515 267.119 23.6869 266.887 24.0451C266.655 24.4033 266.529 24.7053 266.529 24.9651C266.529 25.2039 266.676 25.4708 266.965 25.7728C267.26 26.0748 267.59 26.3627 267.97 26.6436C268.35 26.9245 268.666 27.1493 268.926 27.3249L268.406 28.0342C268.125 27.8586 267.696 27.5777 267.112 27.1774C266.529 26.7771 265.938 26.3276 265.333 25.836C264.729 25.3373 264.243 24.8668 263.878 24.4103C263.491 24.5367 263.111 24.6069 262.746 24.6069C262.401 24.6069 261.93 24.5157 261.339 24.3331C260.749 24.1505 260.102 23.8906 259.413 23.5535C258.724 23.2164 258.07 22.809 257.451 22.3245C256.832 21.8399 256.326 21.2921 255.925 20.674C255.524 20.056 255.328 19.3958 255.328 18.6865C255.328 18.1247 255.419 17.612 255.602 17.1485C255.785 16.6849 256.038 16.2776 256.361 15.9335H254.35L252.635 13.6369L252.761 13.2156H261.832H261.818Z" fill="#EDE6D6"/>
<path d="M268.624 32.7607L267.717 32.0514C267.091 31.5527 266.465 31.2016 265.84 30.9839C265.214 30.7662 264.525 30.6608 263.765 30.6608C263.315 30.6608 262.802 30.717 262.239 30.8224C261.677 30.9277 261.051 31.0892 260.362 31.3069L258.808 28.6241C260.039 28.1887 261.143 27.978 262.113 27.978C263.083 27.978 264.025 28.273 264.996 28.8699C265.966 29.4599 267.091 30.2886 268.364 31.3421L269.271 32.0865L268.624 32.7677V32.7607Z" fill="#EDE6D6"/>
<path d="M288.094 9.14208C287.792 9.3598 287.525 9.68286 287.285 10.1113C287.046 10.5397 286.927 11.0523 286.927 11.6353V14.1284C287.447 14.7324 287.869 15.3715 288.193 16.0387C288.516 16.7059 288.678 17.345 288.678 17.949C288.678 19.178 288.418 20.3368 287.897 21.4254C287.377 22.514 286.681 23.4831 285.809 24.3189C284.937 25.1616 283.96 25.8218 282.891 26.3064C281.822 26.791 280.746 27.0368 279.663 27.0368C279.143 27.0368 278.517 26.9174 277.786 26.6786C277.055 26.4398 276.288 26.1098 275.501 25.6743C274.713 25.2459 273.975 24.7332 273.3 24.1503C272.618 23.5674 272.062 22.9353 271.634 22.2401C271.198 21.5518 270.987 20.8284 270.987 20.0699C270.987 19.3817 271.261 18.7566 271.809 18.1948C272.358 17.6329 273.145 17.1273 274.158 16.6708C273.377 16.1089 272.723 15.4909 272.182 14.8097C271.641 14.1284 271.373 13.4051 271.373 12.6255C271.373 12.2603 271.416 11.8881 271.5 11.5088C271.584 11.1296 271.697 10.7503 271.823 10.3571L269.264 7.57593L269.587 6.79639H285.95L288.087 9.12802L288.094 9.14208ZM280.191 18.0403C278.292 18.581 276.781 19.2202 275.656 19.9646C274.53 20.709 273.968 21.5588 273.968 22.5069C273.968 23.0477 274.249 23.5393 274.812 23.9818C275.374 24.4242 276.028 24.6419 276.788 24.6419C277.758 24.6419 278.756 24.4172 279.783 23.9607C280.81 23.5042 281.759 22.8792 282.631 22.0645C283.503 21.2498 284.213 20.3157 284.754 19.2482C285.296 18.1807 285.563 17.0289 285.563 15.7999C285.563 15.4347 285.492 15.0976 285.352 14.7956C285.211 14.4936 284.958 14.3462 284.592 14.3462C283.728 14.3462 282.778 15.0555 281.745 16.4812L279.41 13.988C279.776 13.2787 280.275 12.7028 280.901 12.2744C281.527 11.8459 282.11 11.6282 282.652 11.6282C282.849 11.6282 283.039 11.6493 283.235 11.6915C283.432 11.7336 283.636 11.7898 283.854 11.853V11.3965C283.854 10.4062 284.114 9.64773 284.635 9.13505H276.408C275.627 10.1253 275.114 11.1507 274.868 12.2111C274.622 13.2716 274.495 14.2689 274.495 15.224C274.495 15.6735 274.657 16.0528 274.98 16.3547C275.409 16.1792 275.881 16.0317 276.387 15.8982C276.893 15.7718 277.42 15.6384 277.955 15.512L280.191 18.0333V18.0403Z" fill="#EDE6D6"/>
<path d="M294.929 20.9198C294.929 21.608 294.809 22.212 294.57 22.7317C294.331 23.2515 294.092 23.6869 293.86 24.0451C293.628 24.4032 293.501 24.7052 293.501 24.9651C293.501 25.2039 293.649 25.4707 293.937 25.7727C294.226 26.0747 294.563 26.3626 294.943 26.6436C295.322 26.9245 295.639 27.1492 295.899 27.3248L295.379 28.0341C295.119 27.8867 294.718 27.6268 294.176 27.2546C293.635 26.8894 293.079 26.475 292.51 26.0115C291.94 25.548 291.448 25.0915 291.033 24.635C290.618 24.1785 290.414 23.8063 290.414 23.5043C290.414 23.1812 290.534 22.8301 290.773 22.4508C291.012 22.0716 291.244 21.6291 291.483 21.1235C291.722 20.6178 291.842 20.0208 291.842 19.3256V11.3965C291.842 10.4063 292.102 9.64781 292.622 9.13512H286.21L285.5 6.80347H293.958L296.096 9.13512C295.772 9.35284 295.498 9.6759 295.266 10.1043C295.041 10.5327 294.929 11.0454 294.929 11.6283V20.9128V20.9198Z" fill="#EDE6D6"/>
<path d="M301.053 20.5336C301.053 20.2527 301.151 19.9647 301.348 19.6627C301.545 19.3607 301.777 19.1009 302.044 18.8832C302.312 18.6654 302.558 18.5601 302.776 18.5601C303.036 18.5601 303.366 18.6514 303.767 18.834C304.168 19.0166 304.569 19.2273 304.984 19.4661C305.391 19.7048 305.715 19.9085 305.954 20.0841C306.966 19.459 307.656 18.6514 308.014 17.6541C308.373 16.6639 308.591 15.6174 308.675 14.5148C308.717 13.8055 308.759 13.0821 308.788 12.3658C308.823 11.6424 308.837 10.9261 308.837 10.2167C308.837 9.89366 308.752 9.6338 308.591 9.43715C308.429 9.24051 308.232 9.14923 307.993 9.14923C307.627 9.14923 307.241 9.24753 306.84 9.43715C306.439 9.6338 306.109 9.9358 305.834 10.3431C305.567 10.7505 305.427 11.3053 305.427 11.9936V13.6088C305.427 14.0864 305.546 14.557 305.785 15.0345C306.024 15.5121 306.376 15.8773 306.854 16.1371L306.467 16.8816C305.884 16.6007 305.265 16.2144 304.604 15.7158C303.943 15.2171 303.387 14.6764 302.937 14.0794C302.48 13.4895 302.255 12.9066 302.255 12.3517V10.7013C302.255 9.87962 302.459 9.17029 302.874 8.5663C303.282 7.96232 303.802 7.49879 304.428 7.17573C305.054 6.85267 305.694 6.69116 306.341 6.69116C306.819 6.69116 307.374 6.84566 308.007 7.16169C308.647 7.47773 309.273 7.89208 309.884 8.40477C310.503 8.92447 311.009 9.48633 311.41 10.0903C311.811 10.6943 312.008 11.2772 312.008 11.839C312.008 12.6397 312.008 13.4333 311.994 14.2339C311.98 15.0345 311.938 15.8422 311.846 16.6639C311.762 17.4856 311.551 18.3002 311.213 19.1219C310.876 19.9436 310.447 20.6881 309.92 21.3693C309.392 22.0506 308.766 22.5843 308.056 22.9706C308.816 23.6378 309.596 24.3752 310.405 25.1688C311.213 25.9694 311.902 26.6998 312.465 27.367L311.558 28.0763C310.911 27.4302 310.166 26.6858 309.322 25.843C308.478 25.0002 307.613 24.2066 306.727 23.4481C306.601 23.4692 306.46 23.4833 306.32 23.4973C306.179 23.5114 306.031 23.5113 305.884 23.5113C305.405 23.5113 304.892 23.413 304.344 23.2023C303.795 22.9987 303.268 22.7388 302.776 22.4228C302.276 22.1067 301.869 21.7837 301.545 21.4325C301.222 21.0884 301.06 20.7864 301.06 20.5265L301.053 20.5336ZM319.553 9.1422C319.229 9.35991 318.955 9.68298 318.73 10.1114C318.505 10.5398 318.392 11.0525 318.392 11.6354V20.9198C318.392 21.6081 318.273 22.2121 318.034 22.7318C317.795 23.2515 317.556 23.6869 317.324 24.0451C317.092 24.4033 316.965 24.7053 316.965 24.9651C316.965 25.2039 317.113 25.4708 317.401 25.7728C317.696 26.0748 318.027 26.3627 318.407 26.6436C318.786 26.9245 319.103 27.1493 319.363 27.3249L318.843 28.0342C318.582 27.8867 318.182 27.6269 317.64 27.2546C317.099 26.8894 316.543 26.4751 315.974 26.0115C315.404 25.548 314.912 25.0915 314.497 24.635C314.089 24.1856 313.878 23.8063 313.878 23.5043C313.878 23.1813 313.998 22.8301 314.237 22.4509C314.476 22.0716 314.715 21.6292 314.947 21.1235C315.186 20.6179 315.306 20.0209 315.306 19.3256V11.3966C315.306 10.4063 315.566 9.64785 316.086 9.13517H315.601C315.193 9.15624 314.87 9.26158 314.631 9.45822C314.392 9.65487 314.188 9.83747 314.012 10.006H313.302L311.129 7.57605L311.452 6.7965H317.415L319.553 9.12814V9.1422Z" fill="#EDE6D6"/>
<path d="M325.445 20.9198C325.445 21.608 325.326 22.212 325.087 22.7317C324.847 23.2515 324.608 23.6869 324.376 24.0451C324.144 24.4032 324.018 24.7052 324.018 24.9651C324.018 25.2039 324.165 25.4707 324.454 25.7727C324.742 26.0747 325.08 26.3626 325.459 26.6436C325.839 26.9245 326.155 27.1492 326.415 27.3248L325.895 28.0341C325.635 27.8867 325.234 27.6268 324.693 27.2546C324.151 26.8894 323.596 26.475 323.026 26.0115C322.457 25.548 321.965 25.0915 321.55 24.635C321.135 24.1785 320.931 23.8063 320.931 23.5043C320.931 23.1812 321.051 22.8301 321.29 22.4508C321.529 22.0716 321.761 21.6291 322 21.1235C322.239 20.6178 322.358 20.0208 322.358 19.3256V11.3965C322.358 10.4063 322.618 9.64781 323.139 9.13512H316.726L316.016 6.80347H324.475L326.612 9.13512C326.289 9.35284 326.015 9.6759 325.783 10.1043C325.558 10.5327 325.445 11.0454 325.445 11.6283V20.9128V20.9198Z" fill="#EDE6D6"/>
<path d="M341.322 20.9197C341.322 21.608 341.203 22.212 340.963 22.7317C340.724 23.2514 340.485 23.6868 340.253 24.045C340.021 24.4032 339.895 24.7051 339.895 24.965C339.895 25.2038 340.042 25.4707 340.331 25.7726C340.626 26.0746 340.956 26.3626 341.336 26.6435C341.716 26.9244 342.032 27.1492 342.292 27.3247L341.772 28.0341C341.512 27.8866 341.111 27.6267 340.57 27.2545C340.028 26.8893 339.473 26.4749 338.903 26.0114C338.334 25.5479 337.842 25.0914 337.427 24.6349C337.019 24.1854 336.808 23.8062 336.808 23.5042C336.808 23.1811 336.927 22.83 337.166 22.4507C337.406 22.0715 337.645 21.6291 337.877 21.1234C338.116 20.6177 338.235 20.0208 338.235 19.3255V15.9615C337.652 15.8982 337.089 15.8631 336.548 15.8631C336.091 15.8631 335.591 15.9895 335.043 16.2494C334.495 16.5093 334.03 16.9517 333.665 17.5768C333.707 18.1175 333.749 18.7215 333.777 19.3887C333.812 20.0559 333.834 20.709 333.862 21.3341C333.883 21.9591 333.897 22.4859 333.897 22.9213C333.897 23.3567 333.77 23.7711 333.51 24.1152C333.25 24.4593 332.905 24.6349 332.477 24.6349C332.132 24.6349 331.703 24.5225 331.197 24.2978C330.691 24.0731 330.184 23.7781 329.692 23.427C329.193 23.0688 328.778 22.6755 328.448 22.233C328.117 21.7906 327.948 21.3622 327.948 20.9548C327.948 20.0489 328.117 19.1569 328.448 18.272C328.785 17.3871 329.249 16.5865 329.854 15.8631C330.459 15.1398 331.162 14.5568 331.963 14.1144C332.765 13.6719 333.616 13.4542 334.523 13.4542C335.212 13.4542 335.859 13.5104 336.449 13.6158C337.047 13.7211 337.645 13.8826 338.249 14.1003V11.4175C338.249 10.4273 338.51 9.6688 339.03 9.15612H333.588C333.046 9.19826 332.533 9.423 332.034 9.83736C331.534 10.2447 331.148 10.6591 330.866 11.0664H330.156L326.95 7.60403L327.273 6.82446H340.366L342.503 9.15612C342.18 9.37383 341.906 9.6969 341.681 10.1253C341.456 10.5537 341.343 11.0664 341.343 11.6493V20.9338L341.322 20.9197Z" fill="#EDE6D6"/>
<path d="M342.004 32.7607L341.097 32.0514C340.471 31.5527 339.845 31.2016 339.22 30.9839C338.594 30.7662 337.905 30.6608 337.145 30.6608C336.695 30.6608 336.182 30.717 335.62 30.8224C335.057 30.9277 334.431 31.0892 333.742 31.3069L332.188 28.6241C333.419 28.1887 334.523 27.978 335.493 27.978C336.463 27.978 337.406 28.273 338.376 28.8699C339.346 29.4599 340.471 30.2886 341.744 31.3421L342.651 32.0865L342.004 32.7677V32.7607Z" fill="#EDE6D6"/>
<path d="M356.482 20.9198C356.482 21.6081 356.362 22.2121 356.123 22.7318C355.884 23.2515 355.645 23.6869 355.413 24.0451C355.174 24.4033 355.054 24.7053 355.054 24.9651C355.054 25.2039 355.202 25.4708 355.49 25.7728C355.786 26.0748 356.116 26.3627 356.496 26.6436C356.876 26.9245 357.192 27.1493 357.452 27.3249L356.932 28.0342C356.672 27.8867 356.271 27.6269 355.737 27.2546C355.195 26.8894 354.64 26.4751 354.07 26.0116C353.501 25.548 353.008 25.0915 352.593 24.635C352.179 24.1785 351.975 23.8063 351.975 23.5043C351.975 23.1813 352.094 22.8301 352.333 22.4509C352.572 22.0716 352.811 21.6292 353.043 21.1235C353.283 20.6179 353.402 20.0209 353.402 19.3256V15.8C353.184 15.779 352.959 15.7649 352.72 15.7509C352.481 15.7439 352.242 15.7368 352.01 15.7368C351.187 15.7368 350.414 16.0388 349.675 16.6428C348.944 17.2468 348.339 18.0334 347.875 19.0026C347.411 19.9717 347.179 21.0182 347.179 22.1419C347.179 22.9425 347.432 23.7501 347.939 24.5718C348.445 25.3935 349.204 26.2012 350.224 27.0018L349.577 27.7111C347.868 26.5032 346.511 25.2531 345.499 23.9608C344.479 22.6686 343.973 21.4676 343.973 20.372C343.973 19.0587 344.254 17.8648 344.817 16.7973C345.379 15.7298 346.11 14.88 347.018 14.2409C347.925 13.6018 348.874 13.2858 349.865 13.2858C350.512 13.2858 351.131 13.3279 351.715 13.4122C352.298 13.4965 352.861 13.6299 353.402 13.7985V11.4036C353.402 10.4134 353.662 9.65489 354.183 9.1422H349.647C349.085 9.1422 348.536 9.35289 347.995 9.77427C347.453 10.1957 347.032 10.6241 346.729 11.0525H346.019L342.813 7.59012L343.136 6.81055H355.512L357.649 9.1422C357.326 9.35992 357.051 9.68298 356.826 10.1114C356.601 10.5398 356.489 11.0525 356.489 11.6354V20.9198H356.482Z" fill="#EDE6D6"/>
<path d="M361.671 8.72072C361.284 8.35552 360.884 7.83582 360.469 7.16864C360.061 6.50145 359.85 5.85532 359.85 5.23027C359.85 4.42964 360.194 3.69222 360.884 3.01098C361.573 2.32975 362.487 1.78898 363.619 1.37462C364.751 0.967287 365.967 0.756592 367.261 0.756592C368.231 0.756592 369.3 1.04454 370.467 1.6134C371.635 2.18227 372.802 2.96885 373.983 3.9591C375.157 4.94935 376.247 6.07304 377.239 7.32314L376.592 7.84284C375.34 6.43823 374.117 5.35668 372.928 4.59117C371.74 3.82566 370.51 3.44641 369.237 3.44641C367.964 3.44641 366.924 3.62199 365.995 3.98017C365.067 4.33834 364.343 4.79483 363.823 5.35668C363.302 5.91852 363.042 6.48739 363.042 7.0703C363.042 7.61108 363.211 8.13079 363.541 8.63645C363.879 9.14211 364.238 9.55646 364.624 9.87952C364.301 10.0972 364.027 10.4203 363.802 10.8487C363.577 11.2841 363.464 11.7898 363.464 12.3727V20.9127C363.464 21.601 363.345 22.205 363.105 22.7247C362.866 23.2444 362.627 23.6798 362.395 24.038C362.156 24.3962 362.037 24.6981 362.037 24.958C362.037 25.1968 362.184 25.4637 362.473 25.7656C362.761 26.0676 363.098 26.3556 363.478 26.6365C363.858 26.9174 364.174 27.1422 364.434 27.3178L363.914 28.0271C363.654 27.8796 363.253 27.6197 362.719 27.2475C362.177 26.8823 361.622 26.468 361.052 26.0044C360.483 25.5409 359.991 25.0844 359.576 24.6279C359.168 24.1784 358.957 23.7992 358.957 23.4972C358.957 23.1742 359.076 22.823 359.316 22.4438C359.555 22.0645 359.787 21.6221 360.026 21.1164C360.265 20.6107 360.384 20.0138 360.384 19.3185V11.8741C360.384 11.1437 360.49 10.5327 360.694 10.0481C360.898 9.5635 361.221 9.11402 361.65 8.70668L361.671 8.72072Z" fill="#EDE6D6"/>
<path d="M366.431 20.7932C366.431 20.0347 366.656 19.2763 367.113 18.5107C367.57 17.7452 368.196 17.071 368.991 16.4881V11.4104C368.991 10.4202 369.251 9.66172 369.771 9.14904C369.23 9.14904 368.829 9.25438 368.555 9.47209C368.281 9.68981 368.063 9.93561 367.894 10.2165H367.184L364.821 7.59693L365.145 6.81738H379.236L381.373 9.14904C381.05 9.36675 380.775 9.6898 380.55 10.1182C380.325 10.5466 380.213 11.0593 380.213 11.6422V20.9267C380.213 21.6149 380.093 22.2189 379.854 22.7386C379.615 23.2583 379.376 23.6937 379.144 24.0519C378.905 24.4101 378.786 24.7121 378.786 24.972C378.786 25.2107 378.933 25.4776 379.222 25.7796C379.517 26.0816 379.847 26.3695 380.227 26.6505C380.607 26.9314 380.923 27.1561 381.183 27.3317L380.663 28.041C380.403 27.8935 380.002 27.6337 379.461 27.2615C378.919 26.8963 378.364 26.4819 377.794 26.0184C377.225 25.5549 376.732 25.0984 376.318 24.6419C375.903 24.1854 375.699 23.8131 375.699 23.5112C375.699 23.1881 375.818 22.8369 376.057 22.4577C376.296 22.0785 376.529 21.636 376.768 21.1304C377.007 20.6247 377.126 20.0277 377.126 19.3325V17.3239C377 17.3239 376.866 17.3239 376.739 17.3098C376.613 17.2958 376.493 17.2958 376.381 17.2958C375.692 17.2958 374.975 17.366 374.229 17.5065C373.484 17.6469 372.767 17.9349 372.078 18.3633V23.7359C372.078 24.1643 371.951 24.5576 371.691 24.9158C371.431 25.2739 371.086 25.4495 370.657 25.4495C370.334 25.4495 369.94 25.3091 369.476 25.0281C369.012 24.7472 368.548 24.382 368.084 23.9255C367.62 23.469 367.233 22.9704 366.917 22.4226C366.6 21.8748 366.445 21.327 366.445 20.7862L366.431 20.7932ZM377.119 11.4034C377.119 10.4132 377.379 9.65469 377.9 9.14201H373.238C372.914 9.35972 372.64 9.68279 372.415 10.1112C372.19 10.5396 372.078 11.0523 372.078 11.6352V15.1327C372.38 15.0695 372.689 15.0133 372.999 14.9711C373.315 14.929 373.632 14.9079 373.955 14.9079C374.539 14.9079 375.087 14.943 375.607 15.0203C376.128 15.0975 376.634 15.2099 377.133 15.3574V11.4104L377.119 11.4034Z" fill="#EDE6D6"/>
<path d="M387.266 20.9198C387.266 21.608 387.146 22.212 386.907 22.7317C386.668 23.2515 386.429 23.6869 386.197 24.0451C385.965 24.4032 385.838 24.7052 385.838 24.9651C385.838 25.2039 385.986 25.4707 386.274 25.7727C386.569 26.0747 386.9 26.3626 387.28 26.6436C387.659 26.9245 387.976 27.1492 388.236 27.3248L387.716 28.0341C387.455 27.8867 387.055 27.6268 386.513 27.2546C385.972 26.8894 385.416 26.475 384.847 26.0115C384.277 25.548 383.785 25.0915 383.37 24.635C382.962 24.1855 382.751 23.8063 382.751 23.5043C382.751 23.1812 382.871 22.8301 383.11 22.4508C383.349 22.0716 383.588 21.6291 383.82 21.1235C384.059 20.6178 384.179 20.0208 384.179 19.3256V11.3965C384.179 10.4063 384.439 9.64781 384.959 9.13512H378.547L377.836 6.80347H386.295L388.433 9.13512C388.109 9.35284 387.835 9.6759 387.61 10.1043C387.385 10.5327 387.273 11.0454 387.273 11.6283V20.9128L387.266 20.9198Z" fill="#EDE6D6"/>
<path d="M400.154 9.14208C399.831 9.3598 399.556 9.68286 399.324 10.1113C399.099 10.5397 398.987 11.0523 398.987 11.6353V15.6805C398.987 17.1273 398.762 18.3001 398.305 19.1921C397.855 20.091 397.215 20.7863 396.392 21.2779C395.851 21.5799 395.373 21.7555 394.951 21.7976C394.529 21.8397 394.318 21.924 394.318 22.0575C394.318 22.2752 394.487 22.5912 394.817 23.0126C395.155 23.434 395.577 23.9045 396.097 24.4383C396.617 24.965 397.159 25.4917 397.735 26.0044C398.305 26.5241 398.839 26.9876 399.338 27.395L398.692 28.1745C398.108 27.7391 397.433 27.2053 396.666 26.5592C395.9 25.9131 395.127 25.1968 394.353 24.4242C393.58 23.6517 392.848 22.8581 392.18 22.0645C391.512 21.2709 390.971 20.4983 390.563 19.768C390.155 19.0376 389.944 18.3844 389.944 17.8226C389.944 17.0922 390.071 16.4882 390.331 16.0247C390.591 15.5611 390.901 15.21 391.273 14.9712C391.639 14.7324 391.984 14.613 392.307 14.613C392.63 14.613 392.996 14.7535 393.39 15.0344C393.784 15.3153 394.156 15.5963 394.494 15.8772C394.831 16.1581 395.049 16.2986 395.162 16.2986C395.401 16.2986 395.584 16.1019 395.71 15.7016C395.837 15.3013 395.907 14.7675 395.907 14.1003V11.4175C395.907 10.4273 396.167 9.6688 396.688 9.15612H395.394C394.852 9.19826 394.332 9.423 393.84 9.83736C393.341 10.2447 392.954 10.6591 392.673 11.0664H391.962L388.756 7.60403L389.08 6.82446H398.024L400.161 9.15612L400.154 9.14208Z" fill="#EDE6D6"/>
<path d="M399.381 32.7607L398.474 32.0514C397.848 31.5527 397.222 31.2016 396.596 30.9839C395.97 30.7662 395.281 30.6608 394.522 30.6608C394.065 30.6608 393.559 30.717 392.996 30.8224C392.434 30.9277 391.808 31.0892 391.119 31.3069L389.565 28.6241C390.795 28.1887 391.899 27.978 392.87 27.978C393.84 27.978 394.782 28.273 395.752 28.8699C396.723 29.4599 397.848 30.2886 399.121 31.3421L400.028 32.0865L399.381 32.7677V32.7607Z" fill="#EDE6D6"/>
<path d="M411.981 11.4036C411.981 10.4133 412.241 9.65481 412.761 9.14213H408.972C408.648 9.35985 408.374 9.68291 408.149 10.1113C407.924 10.5397 407.811 11.0524 407.811 11.6353V20.2105C407.811 20.9198 407.713 21.608 407.523 22.2682C407.326 22.9284 407.059 23.4621 406.714 23.8695C406.37 24.2768 405.983 24.4875 405.547 24.4875C405.203 24.4875 404.781 24.3751 404.282 24.1504C403.782 23.9256 403.304 23.6236 402.84 23.2444C402.376 22.8652 401.989 22.4508 401.673 22.0013C401.356 21.5448 401.202 21.0954 401.202 20.6459C401.202 19.782 401.518 18.9112 402.158 18.0403C402.798 17.1695 403.656 16.4391 404.732 15.8562V11.4246C404.732 10.4344 404.992 9.67588 405.512 9.1632H405.224C404.661 9.1632 404.225 9.26855 403.909 9.47221C403.593 9.67588 403.332 9.9287 403.114 10.2307H402.404L400.042 7.61111L400.365 6.83154H414.105L416.242 9.1632C415.919 9.38091 415.644 9.70398 415.412 10.1324C415.187 10.5608 415.075 11.0735 415.075 11.6564V20.9408C415.075 21.6291 414.955 22.2331 414.716 22.7528C414.477 23.2725 414.238 23.7079 414.006 24.0661C413.774 24.4243 413.647 24.7263 413.647 24.9861C413.647 25.2249 413.795 25.4918 414.083 25.7938C414.372 26.0958 414.709 26.3837 415.089 26.6646C415.469 26.9455 415.785 27.1703 416.045 27.3459L415.525 28.0552C415.265 27.9077 414.864 27.6479 414.322 27.2756C413.781 26.9104 413.226 26.4961 412.656 26.0325C412.086 25.569 411.594 25.1125 411.179 24.656C410.772 24.2066 410.561 23.8273 410.561 23.5253C410.561 23.2023 410.68 22.8511 410.919 22.4719C411.158 22.0926 411.39 21.6502 411.629 21.1445C411.868 20.6389 411.988 20.0419 411.988 19.3466V11.4176L411.981 11.4036Z" fill="#EDE6D6"/>
<path d="M420.763 16.7131L418.33 14.1567V13.7985C418.696 13.3701 419.104 12.9558 419.547 12.5695C419.99 12.1832 420.468 11.8391 420.988 11.5371L423.421 14.0303L423.386 14.4517C422.908 14.7958 422.458 15.168 422.022 15.5683C421.593 15.9686 421.171 16.3479 420.756 16.7131H420.763ZM420.763 26.8122L418.33 24.2558V23.8977C418.696 23.4693 419.104 23.0549 419.547 22.6686C419.99 22.2824 420.468 21.9382 420.988 21.6363L423.421 24.1294L423.386 24.5508C422.908 24.8949 422.458 25.2672 422.022 25.6675C421.593 26.0678 421.171 26.447 420.756 26.8192L420.763 26.8122Z" fill="#EDE6D6"/>
<path d="M431.092 25.0916C431.092 25.7798 430.917 26.4541 430.572 27.1002C430.228 27.7463 429.7 28.2871 428.983 28.7155L426.845 26.3838C427.169 26.145 427.443 25.822 427.675 25.4146C427.9 25.0073 428.013 24.5297 428.013 23.9889V9.29675C428.013 8.60849 428.188 7.93427 428.533 7.27411C428.878 6.61394 429.405 6.08019 430.122 5.67285L432.26 8.00451C431.936 8.22222 431.662 8.53123 431.43 8.94559C431.205 9.35293 431.092 9.84455 431.092 10.3994V25.0916Z" fill="#EDE6D6"/>
</svg>
