<svg width="134" height="32" viewBox="0 0 134 32" fill="none" xmlns="http://www.w3.org/2000/svg">
<path d="M11.7504 8.28876C11.4481 8.50647 11.1809 8.82954 10.9418 9.25794C10.7028 9.68635 10.5832 10.199 10.5832 10.782V13.24C10.5832 13.3243 10.5692 13.4156 10.5481 13.4999C10.977 13.4367 11.3989 13.4015 11.8137 13.4015C12.545 13.4015 13.2271 13.4577 13.8529 13.5631C14.4786 13.6684 15.0974 13.844 15.7021 14.0828V10.199C15.7021 10.0726 15.7162 9.95322 15.7373 9.84085L12.8895 6.73667L13.213 5.9571H17.8115L19.9491 8.28876C19.6257 8.50647 19.3514 8.82954 19.1264 9.25794C18.9014 9.68635 18.7889 10.199 18.7889 10.782V20.0664C18.7889 20.7547 18.6694 21.3587 18.4303 21.8784C18.1912 22.3981 17.9522 22.8335 17.7201 23.1917C17.4811 23.5498 17.3615 23.8518 17.3615 24.1117C17.3615 24.3505 17.5092 24.6173 17.7975 24.9193C18.0858 25.2213 18.4233 25.5093 18.803 25.7902C19.1827 26.0711 19.4991 26.2959 19.7593 26.4714L19.2389 27.1807C18.9788 27.0262 18.578 26.7734 18.0436 26.4012C17.5022 26.036 16.9467 25.6216 16.3771 25.1581C15.8076 24.6946 15.3154 24.2381 14.9005 23.7816C14.4857 23.3251 14.2818 22.9529 14.2818 22.6509C14.2818 22.3278 14.4013 21.9767 14.6404 21.5974C14.8794 21.2182 15.1115 20.7757 15.3505 20.2701C15.5896 19.7644 15.7092 19.1675 15.7092 18.4722V15.8807C15.231 15.8175 14.7458 15.7824 14.2536 15.7824C13.6067 15.7824 12.8966 15.8456 12.1301 15.979C11.3637 16.1054 10.5129 16.3863 9.58476 16.8218C10.3653 17.4889 11.0332 18.2545 11.5958 19.1183C12.1583 19.9821 12.4395 20.8249 12.4395 21.6396C12.4395 22.3981 12.2567 23.1004 11.8911 23.7605C11.5254 24.4207 10.9981 24.9474 10.302 25.3477C9.61289 25.7481 8.77615 25.9447 7.80581 25.9447C6.83547 25.9447 5.90029 25.6919 4.93698 25.1862C3.97367 24.6805 3.10178 24.0063 2.31426 23.1636C1.52674 22.3208 0.893909 21.3867 0.415771 20.3473L1.28766 19.8276C2.04003 21.0145 2.76427 21.8854 3.46039 22.4472C4.14947 23.0091 4.89479 23.29 5.69638 23.29C6.45577 23.29 7.10267 23.0933 7.65815 22.693C8.20661 22.2927 8.63552 21.787 8.93787 21.169C9.24022 20.551 9.39491 19.9119 9.39491 19.2447C9.39491 18.1913 9.03631 17.6575 8.32614 17.6575C7.74253 17.6575 7.18001 17.8331 6.63859 18.1772C6.09717 18.5213 5.66825 18.9427 5.34481 19.4414L2.16659 17.1448C2.42676 16.5408 2.89786 16.0352 3.57288 15.6208C4.25493 15.2135 4.97917 15.0028 5.75966 15.0028C5.86513 15.0028 5.9706 15.0028 6.06904 15.0168C6.16748 15.0309 6.26593 15.0449 6.37843 15.066C6.87766 14.6797 7.18704 14.1741 7.32064 13.5631C7.4472 12.945 7.51752 12.3902 7.51752 11.8986V10.5361C7.51752 9.54589 7.77768 8.7874 8.29801 8.26769H6.64563C6.18858 8.26769 5.75263 8.43624 5.31668 8.76632C4.88777 9.10343 4.55025 9.45458 4.31118 9.81978H3.60101L0.718118 6.7156L1.04157 5.93604H9.62695L11.7645 8.26769L11.7504 8.28876Z" fill="#B2462D"/>
<path d="M31.0307 10.55C31.0307 9.55979 31.2909 8.80129 31.8112 8.28159H26.9806C26.4392 8.30265 25.9118 8.52038 25.3915 8.92772C24.8711 9.33505 24.4704 9.75643 24.1891 10.1919H23.4789L20.2726 6.7295L20.596 5.94995H33.1331L35.2706 8.28159C34.9472 8.4993 34.673 8.82236 34.4409 9.25077C34.2159 9.67918 34.1034 10.1919 34.1034 10.7748V20.0592C34.1034 20.7475 33.9839 21.3515 33.7448 21.8712C33.5058 22.3909 33.2667 22.8263 33.0347 23.1845C32.8026 23.5427 32.676 23.8447 32.676 24.1045C32.676 24.3433 32.8237 24.6102 33.112 24.9122C33.4003 25.2142 33.7378 25.5021 34.1175 25.783C34.4972 26.0639 34.8136 26.2887 35.0738 26.4643L34.5534 27.1736C34.2933 26.998 33.8784 26.7171 33.3089 26.3308C32.7393 25.9446 32.1487 25.5091 31.544 25.0175C30.9393 24.5329 30.4541 24.0764 30.0885 23.641C29.7861 23.7463 29.4697 23.8376 29.1463 23.9149C28.8228 23.9921 28.5064 24.0273 28.204 24.0273C27.9017 24.0273 27.4728 23.943 26.9243 23.7674C26.3759 23.5918 25.7852 23.339 25.1594 23.0089C24.5336 22.6718 23.936 22.2715 23.3594 21.7939C22.7898 21.3164 22.3258 20.7826 21.9672 20.1927C21.6086 19.6028 21.4328 18.9566 21.4328 18.2684C21.4328 16.934 21.6859 15.8103 22.1922 14.9043C22.6984 13.9984 23.3664 13.3101 24.2032 12.8325C25.0329 12.355 25.9329 12.1232 26.9103 12.1232C27.754 12.1232 28.5275 12.1864 29.2447 12.3198C29.9549 12.4463 30.5526 12.6008 31.0237 12.7764V10.543L31.0307 10.55ZM25.6798 21.6535C26.2212 21.6535 26.8259 21.5271 27.5079 21.2672C28.19 21.0074 28.8439 20.6492 29.4838 20.1857C30.1236 19.7221 30.6299 19.1954 31.0237 18.6195V14.6726C30.7002 14.6304 30.4049 14.5953 30.1307 14.5743C29.8635 14.5532 29.6033 14.5391 29.3713 14.5391C28.5486 14.5391 27.7681 14.7639 27.0228 15.2204C26.2774 15.6769 25.6798 16.33 25.2227 17.1938C24.7657 18.0577 24.5407 19.1111 24.5407 20.3683C24.5407 20.7124 24.6321 21.0144 24.8149 21.2742C24.9977 21.5341 25.286 21.6605 25.6727 21.6605L25.6798 21.6535Z" fill="#B2462D"/>
<path d="M46.999 8.28854C46.6756 8.50626 46.4014 8.82932 46.1764 9.25773C45.9514 9.68613 45.8388 10.1988 45.8388 10.7817V14.827C45.8388 16.2737 45.6138 17.4466 45.1568 18.3385C44.6998 19.2304 44.0669 19.9328 43.2442 20.4244C42.7028 20.7264 42.2247 20.9019 41.8028 20.9441C41.3809 20.9862 41.17 21.0705 41.17 21.2039C41.17 21.4216 41.3387 21.7377 41.6692 22.1591C41.9997 22.5804 42.4286 23.051 42.9489 23.5847C43.4693 24.1115 44.0107 24.6382 44.5873 25.1509C45.1568 25.6706 45.6912 26.1341 46.1904 26.5414L45.5435 27.321C44.9599 26.8856 44.2849 26.3518 43.5185 25.7057C42.7521 25.0596 41.9786 24.3432 41.2051 23.5707C40.4246 22.7911 39.7004 22.0045 39.0324 21.2109C38.3644 20.4103 37.823 19.6448 37.4152 18.9144C37.0074 18.184 36.7964 17.5309 36.7964 16.976C36.7964 16.2457 36.923 15.6417 37.1831 15.1781C37.4433 14.7146 37.7527 14.3635 38.1254 14.1247C38.491 13.8859 38.8355 13.7665 39.159 13.7665C39.4824 13.7665 39.8481 13.907 40.2418 14.1879C40.6426 14.4688 41.0082 14.7498 41.3458 15.0307C41.6833 15.3116 41.9012 15.4521 42.0067 15.4521C42.2458 15.4521 42.4286 15.2554 42.5552 14.8551C42.6817 14.4548 42.752 13.921 42.752 13.2538V10.571C42.752 9.58078 43.0122 8.82229 43.5325 8.30258H42.2388C41.6973 8.34472 41.184 8.56946 40.6848 8.98382C40.1856 9.39116 39.7988 9.80551 39.5176 10.2129H38.8074L35.6011 6.7505L35.9245 5.97095H44.8685L47.0061 8.30258L46.999 8.28854Z" fill="#B2462D"/>
<path d="M52.6032 20.0663C52.6032 20.7545 52.4837 21.3585 52.2446 21.8782C52.0055 22.3979 51.7664 22.8334 51.5344 23.1915C51.3024 23.5497 51.1758 23.8517 51.1758 24.1116C51.1758 24.3503 51.3235 24.6172 51.6118 24.9192C51.9 25.2212 52.2375 25.5091 52.6172 25.7901C52.9969 26.071 53.3134 26.2957 53.5735 26.4713L53.0532 27.1806C52.793 27.0261 52.3922 26.7733 51.8508 26.4011C51.3094 26.0359 50.7539 25.6215 50.1844 25.158C49.6148 24.6945 49.1226 24.238 48.7078 23.7815C48.2929 23.325 48.089 22.9528 48.089 22.6508C48.089 22.3277 48.2085 21.9766 48.4476 21.5973C48.6867 21.2181 48.9187 20.7756 49.1578 20.2699C49.3968 19.7643 49.5164 19.1673 49.5164 18.472V10.543C49.5164 9.55278 49.7766 8.7943 50.2969 8.27459H43.8842L43.174 5.94294H51.0492C50.3813 4.86139 49.7133 4.08183 49.0593 3.59724C48.4054 3.11265 47.5827 2.86684 46.6124 2.86684C46.071 2.86684 45.4663 2.92303 44.7842 3.02838C44.1022 3.13372 43.3568 3.29526 42.5342 3.51297L40.9802 0.795055C42.4709 0.36665 43.7858 0.148926 44.9319 0.148926C45.8811 0.148926 46.7601 0.380679 47.5687 0.8442C48.3773 1.30772 49.1367 1.92577 49.8398 2.70532C50.543 3.48488 51.218 4.34871 51.8649 5.31087C52.5118 6.27303 53.1516 7.25625 53.7774 8.27459C53.454 8.49231 53.1798 8.81537 52.9477 9.24378C52.7227 9.67218 52.6102 10.1849 52.6102 10.7678V20.0522L52.6032 20.0663Z" fill="#B2462D"/>
<path d="M54.579 10.0373C54.579 9.93199 54.7126 9.79856 54.9868 9.65107C55.254 9.50359 55.5423 9.37016 55.8446 9.26481C55.9923 8.53442 56.2032 7.86019 56.4775 7.25621C56.7447 6.65223 57.047 6.16763 57.3705 5.80244C57.6939 5.43724 57.9752 5.25464 58.2142 5.25464C58.4744 5.25464 58.833 5.37404 59.2971 5.61282C59.7612 5.8516 60.2252 6.13955 60.6893 6.46963C61.1534 6.80674 61.5471 7.14385 61.8706 7.48798C62.194 7.83211 62.3557 8.11302 62.3557 8.33074C62.3557 8.73807 62.1589 9.16648 61.7581 9.60894C61.3573 10.0514 60.8932 10.4587 60.3659 10.8239C59.8385 11.1891 59.3674 11.4911 58.9596 11.7299C58.9174 12.0108 58.8822 12.2917 58.8611 12.5727C58.84 12.8536 58.833 13.1345 58.833 13.4154C58.833 13.8017 58.9596 14.1809 59.2197 14.5461C59.74 14.3284 60.3096 14.1247 60.9354 13.9281C61.5612 13.7315 62.2292 13.5418 62.9464 13.3452L64.8871 15.9648C62.8339 16.632 61.2729 17.2992 60.2041 17.9734C59.1353 18.6406 58.601 19.3358 58.601 20.0452C58.601 20.5227 58.7486 20.9371 59.0369 21.3093C59.3252 21.6745 59.6908 21.8571 60.1197 21.8571C60.7244 21.8571 61.4135 21.7307 62.18 21.4849C62.9464 21.2391 63.7058 20.8809 64.4511 20.4174C65.1964 19.9539 65.8363 19.3991 66.3777 18.7529V10.2129C66.3777 10.0865 66.3918 9.96711 66.4129 9.85475L63.5651 6.75055L63.8886 5.971H68.4872L70.6247 8.30264C70.3013 8.52035 70.027 8.84342 69.795 9.27182C69.57 9.70023 69.4575 10.2129 69.4575 10.7958V20.0803C69.4575 20.7686 69.338 21.3725 69.0989 21.8922C68.8598 22.4119 68.6208 22.8474 68.3887 23.2055C68.1567 23.5637 68.0301 23.8657 68.0301 24.1256C68.0301 24.3644 68.1778 24.6312 68.4661 24.9332C68.7543 25.2352 69.0919 25.5232 69.4716 25.8041C69.8513 26.085 70.1677 26.3097 70.4278 26.4853L69.9075 27.1946C69.6474 27.0191 69.2395 26.7452 68.677 26.3659C68.1145 25.9867 67.5379 25.5583 66.9473 25.0737C66.3566 24.5891 65.8715 24.1326 65.5058 23.6972C64.5988 24.0624 63.7691 24.245 63.0097 24.245C62.7073 24.245 62.2643 24.1326 61.6807 23.9078C61.0971 23.6831 60.4573 23.3601 59.7682 22.9527C59.0791 22.5454 58.4111 22.0608 57.7783 21.4989C57.1384 20.9371 56.6251 20.3261 56.2243 19.6729C55.8235 19.0128 55.6267 18.3316 55.6267 17.6152C55.6267 17.1376 55.8517 16.6811 56.3087 16.2387C56.7658 15.7962 57.3986 15.3678 58.2213 14.9605C57.6166 14.4829 57.0822 13.9702 56.6181 13.4224C56.154 12.8746 55.8657 12.2285 55.7603 11.4981C55.479 11.2594 55.2118 10.9995 54.9657 10.7045C54.7196 10.4096 54.593 10.1918 54.593 10.0444L54.579 10.0373Z" fill="#B2462D"/>
<path d="M65.4636 8.28869L64.7183 5.95703H74.3373L76.4748 8.25358L74.8224 10.0023H74.1123C73.7044 9.57391 73.2193 9.18062 72.6708 8.82245C72.1224 8.46427 71.5317 8.28869 70.9059 8.28869H65.4636ZM74.8928 24.2731C74.4638 24.0765 73.9716 23.8166 73.4161 23.4795C72.8677 23.1424 72.4388 22.8685 72.1364 22.6508C72.1786 22.1943 72.2138 21.7238 72.2349 21.2251C72.256 20.7265 72.27 20.2419 72.27 19.7714V19.2236C72.27 19.0269 72.256 18.8443 72.2349 18.6758L72.5232 18.4791C72.9591 18.6968 73.4302 18.9567 73.9505 19.2727C74.4709 19.5888 74.8717 19.8486 75.1529 20.0663C75.1951 20.3472 75.2303 20.6352 75.2514 20.9231C75.2725 21.2111 75.2865 21.5131 75.2865 21.8151C75.2865 22.1803 75.2725 22.5665 75.2514 22.9668C75.2303 23.3672 75.2092 23.7464 75.1881 24.1186L74.8928 24.2802V24.2731ZM74.956 17.0886C74.5201 16.8708 74.0349 16.604 73.4794 16.2809C72.931 15.9579 72.5021 15.691 72.1997 15.4733C72.2208 15.1923 72.2349 14.8974 72.2489 14.5813C72.256 14.2723 72.263 13.9703 72.263 13.6894C72.263 13.4085 72.263 13.0995 72.2489 12.7694C72.2349 12.4323 72.2208 12.1303 72.1997 11.8494L72.495 11.6527C72.9239 11.8704 73.4021 12.1303 73.9224 12.4463C74.4427 12.7624 74.8365 13.0222 75.1178 13.2399C75.2232 13.9282 75.2795 14.6445 75.2795 15.3749V16.1545C75.2795 16.4354 75.2654 16.6953 75.2443 16.9341L74.956 17.0956V17.0886Z" fill="#B2462D"/>
<path d="M78.5562 30.3901L77.6492 29.2594C78.1484 28.2692 78.5211 27.1666 78.7672 25.9586C79.0133 24.7506 79.1399 23.346 79.1399 21.7518L79.625 21.4919L82.4727 23.1775C82.4727 24.4908 82.1704 25.762 81.5657 26.9769C80.961 28.1989 80.1172 29.3367 79.0414 30.3901H78.5562Z" fill="#B2462D"/>
<path d="M97.6676 8.28876C97.3652 8.50647 97.098 8.82954 96.859 9.25794C96.6199 9.68635 96.5004 10.199 96.5004 10.782V13.24C96.5004 13.3243 96.4863 13.4156 96.4652 13.4999C96.8941 13.4367 97.316 13.4015 97.7309 13.4015C98.4621 13.4015 99.1442 13.4577 99.77 13.5631C100.396 13.6684 101.015 13.844 101.619 14.0828V10.199C101.619 10.0726 101.626 9.95322 101.654 9.84085L98.8067 6.73667L99.1301 5.9571H103.729L105.866 8.28876C105.543 8.50647 105.269 8.82954 105.037 9.25794C104.812 9.68635 104.699 10.199 104.699 10.782V20.0664C104.699 20.7547 104.579 21.3587 104.34 21.8784C104.101 22.3981 103.862 22.8335 103.63 23.1917C103.398 23.5498 103.272 23.8518 103.272 24.1117C103.272 24.3505 103.419 24.6173 103.708 24.9193C104.003 25.2213 104.333 25.5093 104.713 25.7902C105.093 26.0711 105.409 26.2959 105.669 26.4714L105.149 27.1807C104.889 27.0262 104.488 26.7734 103.947 26.4012C103.405 26.029 102.85 25.6216 102.28 25.1581C101.711 24.6946 101.218 24.2381 100.804 23.7816C100.396 23.3251 100.185 22.9529 100.185 22.6509C100.185 22.3278 100.304 21.9767 100.543 21.5974C100.783 21.2182 101.022 20.7757 101.254 20.2701C101.493 19.7644 101.612 19.1675 101.612 18.4722V15.8807C101.134 15.8175 100.649 15.7824 100.157 15.7824C99.5098 15.7824 98.7997 15.8456 98.0332 15.979C97.2668 16.1054 96.416 16.3863 95.4878 16.8218C96.2683 17.4889 96.9363 18.2545 97.4988 19.1183C98.0613 19.9821 98.3426 20.8249 98.3426 21.6396C98.3426 22.3981 98.1598 23.1004 97.7942 23.7605C97.4285 24.4207 96.8941 24.9474 96.205 25.3477C95.516 25.7481 94.6792 25.9447 93.7089 25.9447C92.7386 25.9447 91.8034 25.6919 90.8401 25.1862C89.8768 24.6805 89.0049 24.0063 88.2173 23.1636C87.4298 22.3208 86.797 21.3867 86.3188 20.3473L87.1907 19.8276C87.9501 21.0145 88.6673 21.8854 89.3635 22.4472C90.0525 23.0091 90.7979 23.29 91.5995 23.29C92.3518 23.29 93.0057 23.0933 93.5612 22.693C94.1097 22.2927 94.5386 21.787 94.8409 21.169C95.1433 20.551 95.291 19.9119 95.291 19.2447C95.291 18.1913 94.9324 17.6575 94.2222 17.6575C93.6386 17.6575 93.0761 17.8331 92.5346 18.1772C91.9932 18.5213 91.5643 18.9427 91.2409 19.4414L88.0697 17.1448C88.3298 16.5408 88.8009 16.0352 89.476 15.6208C90.158 15.2135 90.8823 15.0028 91.6627 15.0028C91.7682 15.0028 91.8737 15.0028 91.9721 15.0168C92.0706 15.0309 92.169 15.0449 92.2815 15.066C92.7807 14.6797 93.0901 14.1741 93.2237 13.5631C93.3573 12.9521 93.4206 12.3902 93.4206 11.8986V10.5361C93.4206 9.54589 93.6808 8.7874 94.2011 8.26769H92.5487C92.0987 8.26769 91.6487 8.43624 91.2198 8.76632C90.7838 9.10343 90.4533 9.45458 90.2143 9.81978H89.5041L86.6212 6.7156L86.9446 5.93604H95.53L97.6676 8.26769V8.28876Z" fill="#EDE6D6"/>
<path d="M117.981 10.5501C117.981 9.55986 118.242 8.80136 118.762 8.28166H114.972C114.649 8.49937 114.374 8.82244 114.142 9.25084C113.917 9.67925 113.805 10.1919 113.805 10.7749V19.35C113.805 20.0593 113.706 20.7476 113.509 21.4077C113.313 22.0679 113.045 22.6016 112.701 23.009C112.356 23.4163 111.97 23.627 111.534 23.627C111.189 23.627 110.767 23.5147 110.268 23.2899C109.769 23.0652 109.291 22.7632 108.827 22.3839C108.362 22.0047 107.976 21.5903 107.659 21.1409C107.343 20.6914 107.188 20.2349 107.188 19.7784C107.188 18.9146 107.505 18.0437 108.145 17.1728C108.784 16.302 109.642 15.5716 110.718 14.9887V10.5571C110.718 9.56689 110.978 8.80839 111.498 8.28869H111.203C110.641 8.28869 110.205 8.39403 109.888 8.5977C109.572 8.80137 109.312 9.05419 109.094 9.35618H108.384L106.021 6.7366L106.344 5.95703H120.084L122.221 8.28869C121.898 8.5064 121.624 8.82947 121.399 9.25787C121.174 9.68628 121.061 10.199 121.061 10.7819V20.0663C121.061 20.7546 120.942 21.3586 120.703 21.8783C120.464 22.398 120.224 22.8334 119.992 23.1916C119.753 23.5498 119.634 23.8518 119.634 24.1116C119.634 24.3504 119.782 24.6173 120.07 24.9193C120.365 25.2212 120.696 25.5092 121.075 25.7901C121.455 26.071 121.771 26.2958 122.032 26.4714L121.511 27.1807C121.251 27.0262 120.85 26.7733 120.309 26.4011C119.767 26.0289 119.212 25.6216 118.642 25.158C118.073 24.6945 117.581 24.238 117.166 23.7815C116.758 23.325 116.547 22.9528 116.547 22.6508C116.547 22.3278 116.667 21.9766 116.906 21.5974C117.145 21.2181 117.384 20.7757 117.616 20.27C117.855 19.7643 117.974 19.1674 117.974 18.4721V10.5431L117.981 10.5501Z" fill="#EDE6D6"/>
<path d="M121.743 31.9072L120.836 31.1979C120.21 30.6992 119.585 30.3481 118.959 30.1304C118.333 29.9127 117.644 29.8073 116.885 29.8073C116.428 29.8073 115.921 29.8635 115.359 29.9688C114.796 30.0742 114.17 30.2357 113.481 30.4534L111.927 27.7706C113.158 27.3422 114.262 27.1245 115.232 27.1245C116.202 27.1245 117.145 27.4195 118.115 28.0164C119.085 28.6134 120.21 29.4351 121.483 30.4956L122.39 31.24L121.743 31.9212V31.9072Z" fill="#EDE6D6"/>
<path d="M133.957 8.28854C133.633 8.50626 133.359 8.82932 133.127 9.25773C132.902 9.68613 132.79 10.1988 132.79 10.7817V14.827C132.79 16.2737 132.565 17.4466 132.108 18.3385C131.658 19.2304 131.018 19.9328 130.195 20.4244C129.654 20.7264 129.176 20.9019 128.754 20.9441C128.332 20.9862 128.121 21.0705 128.121 21.2039C128.121 21.4216 128.29 21.7377 128.62 22.1591C128.958 22.5804 129.379 23.051 129.9 23.5847C130.42 24.1115 130.962 24.6382 131.538 25.1509C132.108 25.6706 132.642 26.1341 133.141 26.5414L132.494 27.321C131.911 26.8856 131.236 26.3518 130.469 25.7057C129.703 25.0596 128.929 24.3432 128.156 23.5707C127.375 22.7911 126.658 22.0045 125.983 21.2109C125.315 20.4103 124.774 19.6448 124.366 18.9144C123.958 18.184 123.747 17.5309 123.747 16.976C123.747 16.2457 123.874 15.6417 124.134 15.1781C124.394 14.7146 124.704 14.3635 125.076 14.1247C125.442 13.8859 125.786 13.7665 126.11 13.7665C126.433 13.7665 126.792 13.907 127.193 14.1879C127.593 14.4688 127.959 14.7498 128.297 15.0307C128.634 15.3116 128.852 15.4521 128.965 15.4521C129.204 15.4521 129.386 15.2554 129.513 14.8551C129.64 14.4548 129.71 13.921 129.71 13.2538V10.571C129.71 9.58078 129.97 8.82229 130.49 8.30258H129.197C128.655 8.34472 128.135 8.56946 127.643 8.98382C127.143 9.39116 126.757 9.80551 126.475 10.2129H125.765L122.559 6.7505L122.882 5.97095H131.826L133.964 8.30258L133.957 8.28854Z" fill="#EDE6D6"/>
<path d="M131.721 7.28446C131.137 6.25208 130.596 5.40931 130.104 4.76319C129.604 4.11707 129.077 3.63951 128.515 3.33752C127.952 3.03553 127.284 2.88102 126.504 2.88102C125.962 2.88102 125.35 2.93719 124.675 3.04254C123.993 3.14788 123.241 3.30942 122.425 3.52713L120.871 0.809216C122.362 0.38081 123.677 0.163086 124.823 0.163086C125.772 0.163086 126.651 0.394861 127.467 0.858382C128.275 1.3219 129.035 1.93993 129.731 2.71948C130.434 3.49904 131.109 4.36287 131.756 5.32503C132.403 6.28719 133.043 7.27041 133.669 8.28875L131.728 7.28446H131.721Z" fill="#EDE6D6"/>
</svg>
