<svg width="375" height="33" viewBox="0 0 375 33" fill="none" xmlns="http://www.w3.org/2000/svg">
<path d="M2.06381 20.6469C2.06381 19.8885 2.28882 19.13 2.74586 18.3645C3.2029 17.5989 3.82871 16.9247 4.62326 16.3418V11.2641C4.62326 10.2739 4.88342 9.51542 5.40374 8.99572C4.86232 8.99572 4.46153 9.10106 4.18731 9.31877C3.92011 9.53649 3.6951 9.78229 3.52635 10.0632H2.81618L0.453613 7.44361L0.777064 6.66406H14.8681L17.0056 8.99572C16.6822 9.21343 16.4079 9.53648 16.1829 9.96488C15.9579 10.4003 15.8454 10.906 15.8454 11.4889V20.7734C15.8454 21.4616 15.7259 22.0656 15.4868 22.5853C15.2478 23.105 15.0087 23.5404 14.7767 23.8986C14.5376 24.2568 14.4181 24.5588 14.4181 24.8186C14.4181 25.0574 14.5657 25.3243 14.854 25.6263C15.1423 25.9283 15.4798 26.2232 15.8595 26.4971C16.2392 26.7781 16.5556 27.0028 16.8158 27.1784L16.2954 27.8877C16.0353 27.7402 15.6345 27.4804 15.0931 27.1081C14.5517 26.7429 13.9962 26.3286 13.4266 25.8651C12.8571 25.4015 12.3649 24.9451 11.95 24.4886C11.5422 24.0391 11.3313 23.6598 11.3313 23.3578C11.3313 23.0348 11.4508 22.6836 11.6898 22.3044C11.9289 21.9251 12.161 21.4827 12.4 20.977C12.6391 20.4714 12.7586 19.8744 12.7586 19.1791V17.1705C12.6321 17.1705 12.4985 17.1705 12.3719 17.1565C12.2453 17.1424 12.1258 17.1424 12.0133 17.1424C11.3242 17.1424 10.607 17.2127 9.86168 17.3531C9.11635 17.4936 8.39914 17.7815 7.71006 18.21V23.5826C7.71006 24.011 7.5835 24.4043 7.32333 24.7624C7.06317 25.1206 6.71863 25.2962 6.28971 25.2962C5.96626 25.2962 5.5725 25.1557 5.10842 24.8748C4.64435 24.5939 4.18028 24.2287 3.7162 23.7722C3.25213 23.3227 2.86539 22.8171 2.54898 22.2693C2.23256 21.7215 2.07787 21.1737 2.07787 20.6329L2.06381 20.6469ZM12.7516 11.2641C12.7516 10.2739 13.0118 9.51542 13.5321 8.99572H8.87025C8.5468 9.21343 8.27258 9.53648 8.04757 9.96488C7.82256 10.4003 7.71006 10.906 7.71006 11.4889V14.9864C8.01242 14.9232 8.3218 14.867 8.63118 14.8248C8.94056 14.7827 9.26401 14.7616 9.58746 14.7616C10.1711 14.7616 10.7195 14.7968 11.2398 14.874C11.7602 14.9513 12.2664 15.0636 12.7657 15.2111V11.2641H12.7516Z" fill="#B2462D"/>
<path d="M22.891 20.7733C22.891 21.4615 22.7714 22.0655 22.5323 22.5852C22.2933 23.1049 22.0542 23.5403 21.8222 23.8985C21.5831 24.2567 21.4636 24.5587 21.4636 24.8185C21.4636 25.0573 21.6112 25.3242 21.8995 25.6262C22.1948 25.9282 22.5253 26.2231 22.905 26.497C23.2847 26.778 23.6011 27.0027 23.8613 27.1783L23.341 27.8876C23.0808 27.7401 22.68 27.4803 22.1386 27.108C21.5972 26.7358 21.0417 26.3285 20.4721 25.865C19.9026 25.4014 19.4104 24.945 18.9955 24.4885C18.5877 24.039 18.3768 23.6597 18.3768 23.3577C18.3768 23.0347 18.4963 22.6835 18.7354 22.3043C18.9744 21.925 19.2135 21.4826 19.4455 20.9769C19.6776 20.4713 19.8042 19.8743 19.8042 19.179V11.25C19.8042 10.2598 20.0643 9.50126 20.5846 8.98156H14.172L13.4618 6.6499H21.9206L24.0582 8.98156C23.7347 9.19927 23.4605 9.52234 23.2355 9.95074C23.0105 10.3862 22.898 10.8918 22.898 11.4748V20.7592L22.891 20.7733Z" fill="#B2462D"/>
<path d="M31.4131 11.2641C31.4131 10.2739 31.6732 9.51542 32.1936 8.99572H31.2232C30.6607 8.99572 30.1123 9.20641 29.5708 9.62779C29.0294 10.0492 28.6075 10.4776 28.3052 10.906H27.595L24.3887 7.44361L24.7121 6.66406H40.554L42.6915 8.99572C42.3681 9.21343 42.0938 9.5435 41.8688 9.98595C41.6438 10.4284 41.5313 10.9973 41.5313 11.6855V20.1343C41.5313 20.8225 41.4118 21.4265 41.1727 21.9462C40.9337 22.4659 40.6946 22.9013 40.4625 23.2595C40.2235 23.6177 40.1039 23.9197 40.1039 24.1795C40.1039 24.4815 40.2727 24.8257 40.6032 25.2119C40.9407 25.5982 41.3204 25.9704 41.7563 26.3286C42.1853 26.6868 42.5438 26.9677 42.8251 27.1854L42.3048 27.8947C42.0235 27.7191 41.6016 27.4312 41.0391 27.0239C40.4766 26.6165 39.886 26.146 39.2742 25.6193C38.6555 25.0925 38.1351 24.5728 37.6992 24.0672C37.2632 23.5615 37.0382 23.1331 37.0171 22.789C36.4757 23.0488 35.9554 23.3719 35.4491 23.7582C34.9429 24.1444 34.4577 24.622 34.0077 25.1838C33.5577 25.1838 32.9811 25.0504 32.292 24.7765C31.6029 24.5096 30.8787 24.1374 30.1193 23.6739C29.3599 23.2104 28.6568 22.6766 27.9958 22.0726C27.3348 21.4686 26.7934 20.8366 26.3786 20.1764C25.9637 19.5162 25.7457 18.8561 25.7457 18.1889C25.7457 17.304 26.0059 16.5736 26.5262 15.9907C27.0466 15.4078 27.8552 15.0004 28.9591 14.7616L31.4201 14.2138V11.2712L31.4131 11.2641ZM38.4445 11.2641C38.4445 10.2739 38.7047 9.51542 39.225 8.99572H35.6601C35.3366 9.21343 35.0624 9.53648 34.8374 9.96488C34.6124 10.4003 34.4999 10.906 34.4999 11.4889V16.5666L31.5537 17.4093C30.6677 17.6692 30.0209 18.0274 29.613 18.4768C29.2052 18.9333 28.9943 19.5022 28.9943 20.1904C28.9943 20.8155 29.2544 21.3563 29.7748 21.8057C30.2951 22.2622 30.8295 22.5642 31.392 22.7117C32.3623 21.7425 33.4381 20.9279 34.6124 20.2677C35.7866 19.6075 37.0593 19.151 38.4164 18.8912C38.4375 18.828 38.4515 18.7086 38.4515 18.533V11.2501L38.4445 11.2641Z" fill="#B2462D"/>
<path d="M48.5839 20.7733C48.5839 21.4615 48.4643 22.0655 48.2253 22.5852C47.9862 23.1049 47.7471 23.5403 47.5151 23.8985C47.276 24.2567 47.1565 24.5587 47.1565 24.8185C47.1565 25.0573 47.3041 25.3242 47.5924 25.6262C47.8807 25.9282 48.2182 26.2231 48.5979 26.497C48.9776 26.778 49.294 27.0027 49.5542 27.1783L49.0339 27.8876C48.7737 27.7401 48.3729 27.4803 47.8385 27.108C47.2971 26.7428 46.7416 26.3285 46.1721 25.865C45.6025 25.4014 45.1103 24.945 44.6955 24.4885C44.2877 24.039 44.0767 23.6597 44.0767 23.3577C44.0767 23.0347 44.1963 22.6835 44.4353 22.3043C44.6744 21.925 44.9135 21.4826 45.1455 20.9769C45.3775 20.4713 45.5041 19.8743 45.5041 19.179V11.25C45.5041 10.2598 45.7643 9.50126 46.2846 8.98156H39.8719L39.1617 6.6499H47.6206L49.7581 8.98156C49.4347 9.19927 49.1604 9.52234 48.9354 9.95074C48.7104 10.3862 48.5979 10.8918 48.5979 11.4748V20.7592L48.5839 20.7733Z" fill="#B2462D"/>
<path d="M52.0855 31.0972L51.1785 29.9665C51.6777 28.9762 52.0504 27.8736 52.2965 26.6656C52.5426 25.4577 52.6691 24.0531 52.6691 22.4588L53.1543 22.199L56.002 23.8845C56.002 25.1978 55.6997 26.469 55.095 27.684C54.4903 28.899 53.6465 30.0437 52.5707 31.0972H52.0855Z" fill="#B2462D"/>
<path d="M67.0202 11.2641C67.0202 10.2739 67.2804 9.51542 67.8008 8.99572H66.8304C66.2679 8.99572 65.7194 9.20641 65.178 9.62779C64.6366 10.0492 64.2147 10.4776 63.9124 10.906H63.2022L59.9958 7.44361L60.3193 6.66406H76.1611L78.2987 8.99572C77.9752 9.21343 77.701 9.5435 77.476 9.98595C77.251 10.4284 77.1385 10.9973 77.1385 11.6855V20.1343C77.1385 20.8225 77.019 21.4265 76.7799 21.9462C76.5408 22.4659 76.3017 22.9013 76.0697 23.2595C75.8306 23.6177 75.7111 23.9197 75.7111 24.1795C75.7111 24.4815 75.8799 24.8257 76.2103 25.2119C76.5408 25.5982 76.9276 25.9704 77.3565 26.3286C77.7854 26.6868 78.144 26.9677 78.4252 27.1854L77.9049 27.8947C77.6237 27.7191 77.2018 27.4312 76.6393 27.0239C76.0767 26.6165 75.4931 26.146 74.8744 25.6193C74.2556 25.0925 73.7353 24.5728 73.2993 24.0672C72.8704 23.5615 72.6384 23.1331 72.6173 22.789C72.0758 23.0488 71.5555 23.3719 71.0493 23.7582C70.543 24.1444 70.0578 24.622 69.6078 25.1838C69.1508 25.1838 68.5812 25.0504 67.8921 24.7765C67.2031 24.5096 66.4788 24.1374 65.7194 23.6739C64.96 23.2104 64.2569 22.6766 63.5959 22.0726C62.935 21.4686 62.3936 20.8366 61.9787 20.1764C61.5568 19.5162 61.3459 18.8561 61.3459 18.1889C61.3459 17.304 61.606 16.5736 62.1264 15.9907C62.6467 15.4078 63.4553 15.0004 64.5592 14.7616L67.0202 14.2138V11.2712V11.2641ZM74.0517 11.2641C74.0517 10.2739 74.3119 9.51542 74.8322 8.99572H71.2672C70.9438 9.21343 70.6696 9.53648 70.4446 9.96488C70.2196 10.4003 70.1071 10.906 70.1071 11.4889V16.5666L67.1609 17.4093C66.2749 17.6692 65.628 18.0274 65.2202 18.4768C64.8124 18.9333 64.6014 19.5022 64.6014 20.1904C64.6014 20.8155 64.8616 21.3563 65.3819 21.8057C65.9023 22.2622 66.4366 22.5642 66.9992 22.7117C67.9695 21.7425 69.0453 20.9279 70.2195 20.2677C71.3938 19.6075 72.6665 19.151 74.0236 18.8912C74.0447 18.828 74.0587 18.7086 74.0587 18.533V11.2501L74.0517 11.2641Z" fill="#EDE6D6"/>
<path d="M92.2913 20.7733C92.2913 21.4615 92.1717 22.0655 91.9327 22.5852C91.6936 23.1049 91.4546 23.5403 91.2225 23.8985C90.9834 24.2567 90.8639 24.5587 90.8639 24.8185C90.8639 25.0573 91.0116 25.3242 91.2999 25.6262C91.5881 25.9282 91.9256 26.2231 92.3053 26.497C92.685 26.778 93.0015 27.0027 93.2616 27.1783L92.7413 27.8876C92.4811 27.7401 92.0803 27.4803 91.5389 27.108C90.9975 26.7428 90.442 26.3285 89.8725 25.865C89.3029 25.4014 88.8107 24.945 88.3959 24.4885C87.988 24.039 87.7771 23.6597 87.7771 23.3577C87.7771 23.0347 87.8966 22.6835 88.1357 22.3043C88.3748 21.925 88.6068 21.4826 88.8459 20.9769C89.085 20.4713 89.2045 19.8743 89.2045 19.179V15.6535C88.9865 15.6324 88.7615 15.6183 88.5224 15.6043C88.2834 15.5973 88.0443 15.5902 87.8123 15.5902C86.9896 15.5902 86.2161 15.8922 85.4778 16.4962C84.7466 17.1002 84.1418 17.8868 83.6778 18.856C83.2137 19.8251 82.9817 20.8716 82.9817 21.9953C82.9817 22.7959 83.2348 23.6036 83.7411 24.4252C84.2473 25.2469 85.0067 26.0546 86.0263 26.8552L85.3794 27.5645C83.6708 26.3566 82.3137 25.1065 81.2941 23.8142C80.2816 22.522 79.7683 21.321 79.7683 20.2184C79.7683 18.9051 80.0496 17.7112 80.6121 16.6437C81.1746 15.5762 81.9058 14.7264 82.8129 14.0873C83.72 13.4482 84.6692 13.1322 85.6606 13.1322C86.3075 13.1322 86.9263 13.1743 87.5099 13.2586C88.0935 13.3429 88.656 13.4763 89.1904 13.6449V11.25C89.1904 10.2598 89.4506 9.50126 89.9709 8.98156H85.4356C84.8731 8.98156 84.3247 9.19225 83.7832 9.61363C83.2418 10.035 82.8199 10.4634 82.5176 10.8918H81.8074L78.6011 7.42947L78.9245 6.6499H91.2999L93.4374 8.98156C93.114 9.19927 92.8397 9.52234 92.6077 9.95074C92.3827 10.3862 92.2702 10.8918 92.2702 11.4748V20.7592L92.2913 20.7733Z" fill="#EDE6D6"/>
<path d="M92.9663 32.6211L92.0592 31.9117C91.4334 31.4131 90.8076 31.062 90.1818 30.8442C89.556 30.6265 88.8669 30.5212 88.1075 30.5212C87.6575 30.5212 87.1443 30.5774 86.5817 30.6827C86.0192 30.788 85.3934 30.9496 84.7043 31.1673L83.1504 28.4845C84.3809 28.0491 85.4848 27.8384 86.4552 27.8384C87.4255 27.8384 88.3677 28.1333 89.338 28.7303C90.3084 29.3202 91.4334 30.149 92.7061 31.2024L93.6132 31.9469L92.9663 32.6281V32.6211Z" fill="#EDE6D6"/>
<path d="M105.18 8.9956C104.856 9.21331 104.582 9.53635 104.357 9.96476C104.132 10.4002 104.02 10.9059 104.02 11.4888V15.534C104.02 16.9808 103.795 18.1536 103.338 19.0456C102.881 19.9445 102.248 20.6398 101.425 21.1314C100.884 21.4334 100.405 21.609 99.9836 21.6511C99.5617 21.6933 99.3508 21.7775 99.3508 21.911C99.3508 22.1287 99.5195 22.4447 99.85 22.8661C100.18 23.2875 100.609 23.7651 101.13 24.2918C101.65 24.8185 102.191 25.3452 102.768 25.8579C103.338 26.3776 103.872 26.8411 104.371 27.2485L103.724 28.028C103.141 27.5926 102.466 27.0589 101.699 26.4127C100.933 25.7666 100.159 25.0503 99.3859 24.2777C98.6054 23.4982 97.8812 22.7116 97.2132 21.918C96.5452 21.1174 96.0038 20.3518 95.596 19.6214C95.1882 18.891 94.9772 18.2449 94.9772 17.6831C94.9772 16.9527 95.1038 16.3487 95.3639 15.8852C95.6241 15.4217 95.9335 15.0705 96.3061 14.8317C96.6718 14.593 97.0163 14.4736 97.3398 14.4736C97.6632 14.4736 98.0289 14.614 98.4226 14.8949C98.8234 15.1759 99.189 15.4568 99.5266 15.7377C99.8641 16.0186 100.082 16.1591 100.188 16.1591C100.427 16.1591 100.609 15.9624 100.736 15.5621C100.863 15.1618 100.933 14.6281 100.933 13.9609V11.2781C100.933 10.2878 101.193 9.52934 101.713 9.00963H100.42C99.8781 9.05177 99.3648 9.27651 98.8656 9.69087C98.3664 10.0982 97.9796 10.5126 97.6984 10.9199H96.9882L93.7819 7.45755L94.1053 6.67798H103.049L105.187 9.00963L105.18 8.9956Z" fill="#EDE6D6"/>
<path d="M120.185 11.2641C120.185 10.2739 120.445 9.51542 120.965 8.99572H116.135C115.593 9.01679 115.066 9.23449 114.546 9.64183C114.025 10.0492 113.625 10.4706 113.343 10.906H112.633L109.427 7.44361L109.75 6.66406H122.287L124.425 8.99572C124.102 9.21343 123.827 9.53648 123.602 9.96488C123.377 10.4003 123.265 10.906 123.265 11.4889V20.7734C123.265 21.4616 123.145 22.0656 122.906 22.5853C122.667 23.105 122.428 23.5404 122.196 23.8986C121.957 24.2568 121.837 24.5588 121.837 24.8186C121.837 25.0574 121.985 25.3243 122.273 25.6263C122.569 25.9283 122.899 26.2232 123.279 26.4971C123.659 26.7781 123.975 27.0028 124.235 27.1784L123.715 27.8877C123.455 27.7121 123.04 27.4382 122.47 27.0449C121.901 26.6587 121.31 26.2162 120.705 25.7316C120.101 25.247 119.615 24.7905 119.25 24.3551C118.947 24.4605 118.631 24.5518 118.308 24.629C117.984 24.7063 117.668 24.7414 117.365 24.7414C117.063 24.7414 116.634 24.6571 116.086 24.4815C115.537 24.3059 114.947 24.0531 114.321 23.723C113.695 23.3859 113.097 22.9856 112.521 22.5081C111.951 22.0375 111.487 21.4967 111.128 20.9068C110.77 20.3169 110.594 19.6707 110.594 18.9825C110.594 17.6481 110.847 16.5244 111.353 15.6184C111.86 14.7125 112.528 14.0242 113.364 13.5466C114.194 13.0761 115.094 12.8373 116.072 12.8373C116.915 12.8373 117.689 12.9005 118.406 13.034C119.116 13.1604 119.714 13.3149 120.185 13.4834V11.2501V11.2641ZM114.834 22.3606C115.375 22.3606 115.987 22.2341 116.662 21.9743C117.344 21.7144 117.998 21.3563 118.638 20.8927C119.278 20.4292 119.791 19.9025 120.178 19.3266V15.3797C119.855 15.3375 119.559 15.3024 119.285 15.2813C119.018 15.2603 118.758 15.2462 118.526 15.2462C117.703 15.2462 116.922 15.471 116.177 15.9275C115.432 16.384 114.834 17.0371 114.377 17.9009C113.92 18.7648 113.695 19.8182 113.695 21.0683C113.695 21.4124 113.786 21.7144 113.969 21.9743C114.152 22.2341 114.44 22.3606 114.827 22.3606H114.834Z" fill="#EDE6D6"/>
<path d="M130.324 20.7733C130.324 21.4615 130.205 22.0655 129.966 22.5852C129.727 23.1049 129.488 23.5403 129.256 23.8985C129.017 24.2567 128.897 24.5587 128.897 24.8185C128.897 25.0573 129.045 25.3242 129.333 25.6262C129.621 25.9282 129.959 26.2231 130.338 26.497C130.718 26.778 131.035 27.0027 131.295 27.1783L130.774 27.8876C130.514 27.7401 130.113 27.4803 129.579 27.108C129.038 26.7428 128.482 26.3285 127.913 25.865C127.343 25.4014 126.851 24.945 126.436 24.4885C126.028 24.039 125.817 23.6597 125.817 23.3577C125.817 23.0347 125.937 22.6835 126.176 22.3043C126.415 21.925 126.647 21.4826 126.886 20.9769C127.125 20.4713 127.245 19.8743 127.245 19.179V11.25C127.245 10.2598 127.505 9.50126 128.025 8.98156H121.612L120.902 6.6499H129.361L131.499 8.98156C131.175 9.19927 130.901 9.52234 130.676 9.95074C130.451 10.3862 130.338 10.8918 130.338 11.4748V20.7592L130.324 20.7733Z" fill="#EDE6D6"/>
<path d="M149.731 20.7734C149.731 21.4616 149.612 22.0656 149.372 22.5853C149.133 23.105 148.894 23.5404 148.662 23.8986C148.423 24.2568 148.304 24.5588 148.304 24.8186C148.304 25.0574 148.451 25.3243 148.74 25.6263C149.028 25.9283 149.365 26.2232 149.745 26.4971C150.125 26.7781 150.441 27.0028 150.701 27.1784L150.181 27.8877C149.921 27.7402 149.52 27.4804 148.979 27.1081C148.437 26.7359 147.882 26.3286 147.312 25.8651C146.743 25.4015 146.251 24.9451 145.836 24.4886C145.428 24.0391 145.217 23.6598 145.217 23.3578C145.217 23.0348 145.336 22.6836 145.575 22.3044C145.815 21.9251 146.054 21.4827 146.286 20.977C146.518 20.4714 146.644 19.8744 146.644 19.1791V17.4936C146.56 17.4725 146.468 17.4585 146.384 17.4585H146.124C145.561 17.4585 144.936 17.606 144.247 17.8939C143.557 18.1889 142.868 18.5611 142.186 19.0246C141.504 19.4881 140.886 19.9727 140.323 20.4784C139.76 20.984 139.31 21.4546 138.966 21.883C138.621 22.3184 138.446 22.6485 138.446 22.8873C138.446 23.1893 138.642 23.5755 139.029 24.0531C139.416 24.5307 139.915 25.0434 140.52 25.5912C141.125 26.139 141.75 26.6868 142.397 27.2275L141.75 28.0071C141.167 27.5717 140.492 27.0379 139.725 26.3918C138.959 25.7457 138.185 25.0293 137.412 24.2568C136.632 23.4772 135.914 22.6907 135.239 21.897C134.571 21.0964 134.03 20.3309 133.622 19.6005C133.214 18.8701 133.003 18.224 133.003 17.6622C133.003 16.9318 133.13 16.3418 133.39 15.8994C133.65 15.4569 133.96 15.1338 134.332 14.9302C134.698 14.7265 135.042 14.6212 135.366 14.6212C135.689 14.6212 136.048 14.7616 136.449 15.0426C136.849 15.3235 137.215 15.6044 137.553 15.8853C137.89 16.1662 138.108 16.3067 138.214 16.3067C138.453 16.3067 138.635 16.1101 138.762 15.7097C138.889 15.3094 138.959 14.7757 138.959 14.1085V11.2641C138.959 10.2739 139.219 9.51542 139.739 8.99572H138.635C138.073 8.99572 137.524 9.20641 136.983 9.62779C136.442 10.0492 136.02 10.4776 135.717 10.906H135.007L131.801 7.44361L132.124 6.66406H148.747L150.884 8.99572C150.561 9.21343 150.287 9.52245 150.062 9.91574C149.837 10.316 149.724 10.7936 149.724 11.3555V20.7734H149.731ZM146.651 11.2641C146.651 10.2739 146.911 9.51542 147.432 8.99572H143.22C142.897 9.21343 142.622 9.53648 142.397 9.96488C142.172 10.4003 142.06 10.906 142.06 11.4889V15.6957C142.988 15.2884 143.853 15.0777 144.654 15.0777C144.978 15.0777 145.308 15.0987 145.646 15.1409C145.976 15.183 146.321 15.2462 146.665 15.3375V11.2571L146.651 11.2641Z" fill="#EDE6D6"/>
<path d="M150.406 32.6211L149.499 31.9117C148.873 31.4131 148.247 31.062 147.622 30.8442C146.996 30.6265 146.307 30.5212 145.547 30.5212C145.09 30.5212 144.584 30.5774 144.022 30.6827C143.459 30.788 142.833 30.9496 142.144 31.1673L140.59 28.4845C141.821 28.0491 142.925 27.8384 143.895 27.8384C144.865 27.8384 145.808 28.1333 146.778 28.7303C147.748 29.3202 148.873 30.149 150.146 31.2024L151.053 31.9469L150.406 32.6281V32.6211Z" fill="#EDE6D6"/>
<path d="M164.891 20.7733C164.891 21.4615 164.771 22.0655 164.532 22.5852C164.293 23.1049 164.054 23.5403 163.822 23.8985C163.583 24.2567 163.464 24.5587 163.464 24.8185C163.464 25.0573 163.611 25.3242 163.899 25.6262C164.188 25.9282 164.525 26.2231 164.905 26.497C165.285 26.778 165.601 27.0027 165.861 27.1783L165.341 27.8876C165.081 27.7401 164.68 27.4803 164.139 27.108C163.597 26.7428 163.042 26.3285 162.472 25.865C161.903 25.4014 161.41 24.945 160.995 24.4885C160.588 24.039 160.377 23.6597 160.377 23.3577C160.377 23.0347 160.496 22.6835 160.735 22.3043C160.974 21.925 161.206 21.4826 161.445 20.9769C161.685 20.4713 161.804 19.8743 161.804 19.179V15.6535C161.586 15.6324 161.361 15.6183 161.122 15.6043C160.883 15.5973 160.644 15.5902 160.412 15.5902C159.589 15.5902 158.816 15.8922 158.077 16.4962C157.346 17.1002 156.741 17.8868 156.277 18.856C155.813 19.8251 155.581 20.8716 155.581 21.9953C155.581 22.7959 155.834 23.6036 156.341 24.4252C156.847 25.2469 157.606 26.0546 158.626 26.8552L157.979 27.5645C156.27 26.3566 154.913 25.1065 153.894 23.8142C152.881 22.522 152.368 21.321 152.368 20.2184C152.368 18.9051 152.649 17.7112 153.212 16.6437C153.774 15.5762 154.505 14.7264 155.413 14.0873C156.32 13.4482 157.269 13.1322 158.26 13.1322C158.907 13.1322 159.526 13.1743 160.11 13.2586C160.693 13.3429 161.256 13.4763 161.79 13.6449V11.25C161.79 10.2598 162.05 9.50126 162.571 8.98156H158.035C157.473 8.98156 156.924 9.19225 156.383 9.61363C155.841 10.035 155.42 10.4634 155.117 10.8918H154.407L151.201 7.42947L151.524 6.6499H163.899L166.037 8.98156C165.714 9.19927 165.439 9.52234 165.207 9.95074C164.982 10.3862 164.87 10.8918 164.87 11.4748V20.7592L164.891 20.7733Z" fill="#EDE6D6"/>
<path d="M177.14 11.2641C177.14 10.2739 177.4 9.51542 177.92 8.99572H173.09C172.548 9.01679 172.021 9.23449 171.5 9.64183C170.98 10.0492 170.579 10.4706 170.298 10.906H169.588L166.382 7.44361L166.705 6.66406H179.242L181.38 8.99572C181.056 9.21343 180.782 9.53648 180.557 9.96488C180.332 10.4003 180.219 10.906 180.219 11.4889V20.7734C180.219 21.4616 180.1 22.0656 179.861 22.5853C179.622 23.105 179.383 23.5404 179.151 23.8986C178.912 24.2568 178.792 24.5588 178.792 24.8186C178.792 25.0574 178.94 25.3243 179.228 25.6263C179.523 25.9283 179.854 26.2232 180.234 26.4971C180.613 26.7781 180.93 27.0028 181.19 27.1784L180.669 27.8877C180.409 27.7121 179.994 27.4382 179.425 27.0449C178.855 26.6587 178.265 26.2162 177.66 25.7316C177.055 25.247 176.57 24.7905 176.205 24.3551C175.902 24.4605 175.586 24.5518 175.262 24.629C174.939 24.7063 174.622 24.7414 174.32 24.7414C174.018 24.7414 173.589 24.6571 173.04 24.4815C172.492 24.3059 171.901 24.0531 171.275 23.723C170.65 23.3859 170.052 22.9856 169.475 22.5081C168.906 22.0375 168.442 21.4967 168.083 20.9068C167.725 20.3169 167.549 19.6707 167.549 18.9825C167.549 17.6481 167.802 16.5244 168.308 15.6184C168.814 14.7125 169.482 14.0242 170.319 13.5466C171.149 13.0761 172.049 12.8373 173.026 12.8373C173.87 12.8373 174.644 12.9005 175.361 13.034C176.071 13.1604 176.669 13.3149 177.14 13.4834V11.2501V11.2641ZM171.789 22.3606C172.33 22.3606 172.942 22.2341 173.617 21.9743C174.299 21.7144 174.953 21.3563 175.593 20.8927C176.233 20.4292 176.746 19.9025 177.133 19.3266V15.3797C176.809 15.3375 176.514 15.3024 176.24 15.2813C175.972 15.2603 175.712 15.2462 175.48 15.2462C174.658 15.2462 173.877 15.471 173.132 15.9275C172.386 16.384 171.789 17.0371 171.332 17.9009C170.875 18.7648 170.65 19.8182 170.65 21.0683C170.65 21.4124 170.741 21.7144 170.924 21.9743C171.107 22.2341 171.395 22.3606 171.782 22.3606H171.789Z" fill="#EDE6D6"/>
<path d="M185.402 8.57424C185.015 8.20904 184.614 7.68932 184.199 7.02213C183.791 6.35494 183.58 5.70884 183.58 5.08378C183.58 4.28316 183.925 3.54573 184.614 2.8645C185.303 2.18326 186.217 1.64248 187.349 1.22812C188.481 0.820781 189.698 0.610107 190.992 0.610107C191.962 0.610107 193.031 0.898053 194.198 1.46692C195.365 2.03579 196.532 2.82237 197.714 3.81261C198.888 4.80286 199.978 5.92654 200.969 7.17664L200.322 7.69636C199.071 6.29175 197.847 5.2102 196.659 4.44468C195.471 3.67917 194.24 3.29289 192.967 3.29289C191.695 3.29289 190.654 3.46848 189.726 3.82665C188.798 4.18483 188.074 4.64132 187.553 5.20316C187.033 5.76501 186.773 6.33388 186.773 6.91679C186.773 7.45756 186.942 7.97728 187.272 8.48997C187.602 9.00265 187.968 9.40998 188.355 9.73304C188.031 9.95075 187.757 10.2738 187.532 10.7022C187.307 11.1306 187.195 11.6433 187.195 12.2262V20.7662C187.195 21.4545 187.075 22.0585 186.836 22.5782C186.597 23.0979 186.358 23.5333 186.126 23.8915C185.887 24.2497 185.767 24.5517 185.767 24.8115C185.767 25.0503 185.915 25.3172 186.203 25.6192C186.492 25.9212 186.829 26.2161 187.209 26.49C187.588 26.7709 187.905 26.9957 188.165 27.1712L187.645 27.8806C187.384 27.7331 186.984 27.4733 186.449 27.101C185.908 26.7358 185.352 26.3215 184.783 25.8579C184.213 25.3944 183.721 24.9379 183.306 24.4814C182.898 24.032 182.688 23.6527 182.688 23.3507C182.688 23.0277 182.807 22.6765 183.046 22.2973C183.285 21.918 183.517 21.4756 183.756 20.9699C183.995 20.4643 184.115 19.8673 184.115 19.172V11.7276C184.115 10.9972 184.22 10.3862 184.424 9.90158C184.628 9.41699 184.945 8.96751 185.381 8.56018L185.402 8.57424Z" fill="#EDE6D6"/>
<path d="M207.558 24.7552C207.558 24.994 207.677 25.2469 207.916 25.5137C208.155 25.7806 208.444 26.0405 208.774 26.2933C209.112 26.5391 209.407 26.7498 209.667 26.9254L209.147 27.6347C208.887 27.4802 208.507 27.2274 207.994 26.8551C207.487 26.4899 206.96 26.0756 206.404 25.6261C205.856 25.1766 205.392 24.7272 205.012 24.2847C204.633 23.8423 204.443 23.47 204.443 23.168C204.443 22.9925 204.548 22.6905 204.752 22.2621C204.956 21.8337 205.202 21.2999 205.483 20.6749C205.765 20.0498 206.004 19.3545 206.215 18.589C206.418 17.8235 206.524 17.0229 206.524 16.1801C206.524 15.9413 206.447 15.7377 206.299 15.5621C206.144 15.3865 205.954 15.3022 205.715 15.3022C205.068 15.3022 204.351 15.6323 203.578 16.2925C202.804 16.9526 202.129 17.7252 201.567 18.6031V20.7732C201.567 21.4614 201.475 22.0654 201.293 22.5851C201.11 23.1048 200.927 23.5403 200.744 23.8984C200.561 24.2566 200.47 24.5586 200.47 24.8185C200.47 25.0572 200.596 25.3241 200.843 25.6261C201.089 25.9281 201.384 26.2231 201.714 26.497C202.045 26.7779 202.326 27.0026 202.537 27.1782L202.017 27.8875C201.757 27.712 201.363 27.438 200.836 27.0448C200.308 26.6585 199.76 26.216 199.197 25.7315C198.635 25.2469 198.185 24.7904 197.84 24.3549C197.474 24.5024 197.074 24.5797 196.645 24.5797C196.342 24.5797 195.914 24.4954 195.365 24.3198C194.817 24.1442 194.226 23.8984 193.6 23.5754C192.974 23.2523 192.377 22.866 191.8 22.4095C191.231 21.953 190.767 21.4404 190.408 20.8575C190.049 20.2745 189.874 19.6495 189.874 18.9823C189.874 17.669 190.113 16.5664 190.584 15.6815C191.062 14.7966 191.688 14.1294 192.461 13.6729C193.242 13.2164 194.092 12.9916 195.021 12.9916C195.731 12.9916 196.385 13.0549 196.982 13.1883C197.58 13.3147 198.079 13.4692 198.487 13.6378V11.2429C198.487 10.2527 198.747 9.49418 199.268 8.97448H195.414C194.873 8.99555 194.346 9.21325 193.825 9.62059C193.305 10.0279 192.904 10.4493 192.623 10.8847H191.913L188.706 7.42237L189.03 6.64282H208.472L210.609 8.97448L208.76 10.8847H208.05C207.593 10.4072 207.129 9.97173 206.644 9.57142C206.158 9.17111 205.624 8.97448 205.04 8.97448H202.741C202.418 9.19219 202.143 9.51523 201.911 9.94364C201.686 10.3791 201.574 10.8847 201.574 11.4677V13.6027C201.897 13.3849 202.235 13.2164 202.579 13.0829C202.924 12.9565 203.247 12.8863 203.55 12.8863C204.197 12.8863 204.872 13.0619 205.575 13.406C206.278 13.7501 206.932 14.1856 207.536 14.7193C208.141 15.2531 208.64 15.8009 209.027 16.3838C209.414 16.9667 209.611 17.4864 209.611 17.9359C209.611 18.7576 209.505 19.5512 209.301 20.3167C209.097 21.0822 208.858 21.7775 208.591 22.4025C208.324 23.0276 208.085 23.5473 207.881 23.9546C207.677 24.362 207.572 24.6218 207.572 24.7342L207.558 24.7552ZM193.79 22.1989C194.261 22.1989 194.803 22.0725 195.407 21.8126C196.012 21.5528 196.589 21.1946 197.137 20.731C197.685 20.2675 198.135 19.7408 198.48 19.1649V15.4778C198.283 15.4567 198.107 15.4427 197.946 15.4286C197.784 15.4146 197.629 15.4146 197.475 15.4146C196.764 15.4146 196.061 15.6183 195.365 16.0326C194.669 16.447 194.099 17.065 193.649 17.8937C193.199 18.7225 192.967 19.79 192.967 21.0822C192.967 21.3842 193.031 21.6511 193.164 21.8758C193.291 22.1005 193.502 22.2129 193.783 22.2129L193.79 22.1989Z" fill="#EDE6D6"/>
<path d="M224.117 20.7733C224.117 21.4615 223.997 22.0655 223.758 22.5852C223.519 23.1049 223.28 23.5403 223.048 23.8985C222.809 24.2567 222.689 24.5587 222.689 24.8185C222.689 25.0573 222.837 25.3242 223.125 25.6262C223.414 25.9282 223.751 26.2231 224.131 26.497C224.51 26.778 224.827 27.0027 225.087 27.1783L224.567 27.8876C224.307 27.7401 223.906 27.4803 223.364 27.108C222.823 26.7428 222.267 26.3285 221.698 25.865C221.128 25.4014 220.636 24.945 220.221 24.4885C219.813 24.039 219.603 23.6597 219.603 23.3577C219.603 23.0347 219.722 22.6835 219.961 22.3043C220.2 21.925 220.432 21.4826 220.671 20.9769C220.91 20.4713 221.03 19.8743 221.03 19.179V15.6535C220.812 15.6324 220.587 15.6183 220.348 15.6043C220.109 15.5973 219.87 15.5902 219.638 15.5902C218.815 15.5902 218.042 15.8922 217.303 16.4962C216.572 17.1002 215.967 17.8868 215.503 18.856C215.039 19.8251 214.807 20.8716 214.807 21.9953C214.807 22.7959 215.06 23.6036 215.566 24.4252C216.073 25.2469 216.832 26.0546 217.852 26.8552L217.205 27.5645C215.496 26.3566 214.139 25.1065 213.12 23.8142C212.107 22.522 211.594 21.321 211.594 20.2184C211.594 18.9051 211.875 17.7112 212.437 16.6437C213 15.5762 213.731 14.7264 214.638 14.0873C215.545 13.4482 216.495 13.1322 217.486 13.1322C218.133 13.1322 218.752 13.1743 219.335 13.2586C219.919 13.3429 220.481 13.4763 221.016 13.6449V11.25C221.016 10.2598 221.276 9.50126 221.796 8.98156H217.261C216.699 8.98156 216.15 9.19225 215.609 9.61363C215.067 10.035 214.645 10.4634 214.343 10.8918H213.633L210.427 7.42947L210.75 6.6499H223.125L225.263 8.98156C224.939 9.19927 224.665 9.52234 224.433 9.95074C224.208 10.3862 224.096 10.8918 224.096 11.4748V20.7592L224.117 20.7733Z" fill="#EDE6D6"/>
<path d="M231.176 20.7733C231.176 21.4615 231.057 22.0655 230.818 22.5852C230.579 23.1049 230.34 23.5403 230.108 23.8985C229.868 24.2567 229.749 24.5587 229.749 24.8185C229.749 25.0573 229.897 25.3242 230.185 25.6262C230.473 25.9282 230.811 26.2231 231.19 26.497C231.57 26.778 231.886 27.0027 232.147 27.1783L231.626 27.8876C231.366 27.7401 230.965 27.4803 230.431 27.108C229.89 26.7428 229.334 26.3285 228.765 25.865C228.195 25.4014 227.703 24.945 227.288 24.4885C226.88 24.039 226.669 23.6597 226.669 23.3577C226.669 23.0347 226.789 22.6835 227.028 22.3043C227.267 21.925 227.506 21.4826 227.738 20.9769C227.97 20.4713 228.097 19.8743 228.097 19.179V11.25C228.097 10.2598 228.357 9.50126 228.877 8.98156H222.464L221.754 6.6499H230.213L232.351 8.98156C232.027 9.19927 231.753 9.52234 231.528 9.95074C231.303 10.3862 231.19 10.8918 231.19 11.4748V20.7592L231.176 20.7733Z" fill="#EDE6D6"/>
<path d="M249.704 20.7733C249.704 21.4616 249.585 22.0655 249.345 22.5852C249.106 23.1049 248.867 23.5404 248.635 23.8986C248.396 24.2567 248.277 24.5587 248.277 24.8186C248.277 25.0574 248.424 25.3242 248.713 25.6262C249.001 25.9282 249.338 26.2232 249.718 26.4971C250.098 26.778 250.414 27.0027 250.674 27.1783L250.154 27.8877C249.915 27.7612 249.57 27.5365 249.12 27.2275C248.663 26.9114 248.178 26.5603 247.665 26.16C247.145 25.7597 246.674 25.3594 246.238 24.945C245.802 24.5377 245.506 24.1654 245.331 23.8424C245.134 23.8845 244.951 23.9267 244.782 23.9547C244.606 23.9899 244.438 24.0039 244.262 24.0039C243.763 24.0039 243.2 23.8564 242.56 23.5474C241.92 23.2454 241.302 22.8521 240.697 22.3675C240.092 21.8829 239.593 21.3562 239.192 20.8014C238.791 20.2466 238.594 19.6988 238.594 19.1861C238.594 18.7788 238.721 18.2099 238.981 17.4865C239.241 16.7632 239.368 15.9415 239.368 15.0074V11.2571C239.368 10.913 239.403 10.5758 239.466 10.2528L236.872 7.43655L237.195 6.65698H248.727L250.864 8.98864C250.541 9.20635 250.267 9.52942 250.035 9.95782C249.81 10.3933 249.697 10.8989 249.697 11.4818V20.7663L249.704 20.7733ZM246.631 11.2641C246.631 10.2738 246.891 9.51537 247.412 8.99567H243.622C243.298 9.21338 243.024 9.53642 242.799 9.96483C242.574 10.4003 242.462 10.9059 242.462 11.4888V16.6999C242.462 17.3461 242.384 17.936 242.237 18.4627C242.089 18.9894 241.934 19.453 241.78 19.8533C241.625 20.2536 241.555 20.5907 241.555 20.8716C241.555 21.3703 241.759 21.6161 242.173 21.6161C242.56 21.6161 243.024 21.5177 243.566 21.3211C244.107 21.1245 244.656 20.8505 245.218 20.4994C245.781 20.1412 246.252 19.7409 246.645 19.2844V11.2571L246.631 11.2641Z" fill="#EDE6D6"/>
<path d="M250.386 32.6211L249.479 31.9117C248.853 31.4131 248.227 31.062 247.602 30.8442C246.976 30.6265 246.287 30.5212 245.527 30.5212C245.077 30.5212 244.564 30.5774 244.002 30.6827C243.439 30.788 242.813 30.9496 242.124 31.1673L240.57 28.4845C241.801 28.0491 242.905 27.8384 243.875 27.8384C244.845 27.8384 245.788 28.1333 246.758 28.7303C247.728 29.3202 248.853 30.149 250.126 31.2024L251.033 31.9469L250.386 32.6281V32.6211Z" fill="#EDE6D6"/>
<path d="M262.6 8.9956C262.276 9.21331 262.002 9.53635 261.777 9.96476C261.552 10.4002 261.44 10.9059 261.44 11.4888V15.534C261.44 16.9808 261.215 18.1536 260.758 19.0456C260.3 19.9445 259.668 20.6398 258.845 21.1314C258.304 21.4334 257.825 21.609 257.404 21.6511C256.982 21.6933 256.771 21.7775 256.771 21.911C256.771 22.1287 256.939 22.4447 257.27 22.8661C257.6 23.2875 258.029 23.7651 258.55 24.2918C259.07 24.8185 259.611 25.3452 260.188 25.8579C260.758 26.3776 261.292 26.8411 261.791 27.2485L261.144 28.028C260.561 27.5926 259.886 27.0589 259.119 26.4127C258.353 25.7666 257.579 25.0503 256.806 24.2777C256.025 23.4982 255.301 22.7116 254.633 21.918C253.965 21.1174 253.424 20.3518 253.016 19.6214C252.608 18.891 252.397 18.2449 252.397 17.6831C252.397 16.9527 252.524 16.3487 252.784 15.8852C253.044 15.4217 253.353 15.0705 253.726 14.8317C254.092 14.593 254.436 14.4736 254.76 14.4736C255.083 14.4736 255.449 14.614 255.843 14.8949C256.243 15.1759 256.609 15.4568 256.946 15.7377C257.284 16.0186 257.502 16.1591 257.607 16.1591C257.846 16.1591 258.029 15.9624 258.156 15.5621C258.282 15.1618 258.353 14.6281 258.353 13.9609V11.2781C258.353 10.2878 258.613 9.52934 259.133 9.00963H257.839C257.298 9.05177 256.785 9.27651 256.285 9.69087C255.786 10.0982 255.4 10.5126 255.118 10.9199H254.408L251.202 7.45755L251.525 6.67798H260.469L262.607 9.00963L262.6 8.9956Z" fill="#EDE6D6"/>
<path d="M263.057 20.3869C263.057 20.1059 263.155 19.818 263.352 19.516C263.549 19.214 263.781 18.9542 264.048 18.7365C264.315 18.5187 264.561 18.4134 264.779 18.4134C265.04 18.4134 265.37 18.5047 265.771 18.6873C266.172 18.8699 266.573 19.0806 266.987 19.3194C267.402 19.5581 267.719 19.7618 267.958 19.9374C268.97 19.3123 269.659 18.5047 270.018 17.5074C270.377 16.5172 270.594 15.4707 270.679 14.3681C270.721 13.6588 270.763 12.9424 270.791 12.2191C270.827 11.4957 270.841 10.7793 270.841 10.07C270.841 9.74696 270.756 9.48709 270.594 9.29045C270.433 9.0938 270.236 8.99549 269.997 8.99549C269.631 8.99549 269.244 9.0938 268.844 9.29045C268.443 9.48709 268.112 9.78909 267.838 10.1964C267.571 10.6038 267.43 11.1586 267.43 11.8468V13.4621C267.43 13.9397 267.55 14.4102 267.789 14.8878C268.028 15.3654 268.38 15.7306 268.858 15.9904L268.471 16.7349C267.887 16.454 267.269 16.0677 266.608 15.5691C265.947 15.0704 265.391 14.5296 264.941 13.9327C264.484 13.3428 264.259 12.7598 264.259 12.205V10.5546C264.259 9.73291 264.463 9.02358 264.878 8.4196C265.286 7.81561 265.806 7.35209 266.432 7.02903C267.058 6.70597 267.698 6.54443 268.344 6.54443C268.823 6.54443 269.378 6.69895 270.011 7.01499C270.651 7.33102 271.277 7.74538 271.888 8.25806C272.5 8.77074 273.013 9.3396 273.414 9.94358C273.815 10.5476 274.012 11.1305 274.012 11.6923C274.012 12.493 274.012 13.2866 273.998 14.0872C273.984 14.8878 273.941 15.6955 273.85 16.5172C273.766 17.3389 273.555 18.1606 273.217 18.9752C272.88 19.7969 272.451 20.5414 271.923 21.2226C271.396 21.9038 270.77 22.4376 270.06 22.8238C270.819 23.491 271.6 24.2285 272.409 25.0221C273.217 25.8157 273.906 26.5531 274.469 27.2203L273.562 27.9296L271.326 25.6963C270.482 24.8535 269.617 24.0599 268.731 23.3014C268.605 23.3225 268.464 23.3365 268.323 23.3506C268.183 23.3646 268.035 23.3646 267.887 23.3646C267.409 23.3646 266.896 23.2593 266.347 23.0556C265.799 22.852 265.272 22.5921 264.779 22.2761C264.28 21.967 263.872 21.637 263.549 21.2928C263.226 20.9487 263.064 20.6467 263.064 20.3869H263.057ZM281.556 8.99549C281.233 9.21321 280.959 9.53625 280.734 9.96465C280.509 10.4001 280.396 10.9058 280.396 11.4887V20.7731C280.396 21.4614 280.277 22.0654 280.038 22.5851C279.799 23.1048 279.56 23.5402 279.328 23.8984C279.088 24.2566 278.969 24.5586 278.969 24.8184C278.969 25.0572 279.117 25.3241 279.405 25.6261C279.7 25.928 280.031 26.223 280.41 26.4969C280.79 26.7778 281.106 27.0026 281.367 27.1781L280.846 27.8875C280.586 27.74 280.185 27.4801 279.644 27.1079C279.103 26.7357 278.547 26.3284 277.977 25.8648C277.408 25.4013 276.916 24.9448 276.501 24.4883C276.093 24.0389 275.882 23.6596 275.882 23.3576C275.882 23.0345 276.002 22.6834 276.241 22.3041C276.48 21.9249 276.719 21.4825 276.951 20.9768C277.183 20.4711 277.31 19.8742 277.31 19.1789V11.2499C277.31 10.2596 277.57 9.50114 278.09 8.98143H277.605C277.197 9.0025 276.874 9.10784 276.634 9.30449C276.395 9.50113 276.191 9.68375 276.016 9.8523H275.306L273.133 7.42231L273.456 6.64277H279.419L281.556 8.97442V8.99549Z" fill="#EDE6D6"/>
<path d="M281.064 32.6211L280.157 31.9117C279.531 31.4131 278.906 31.062 278.28 30.8442C277.654 30.6265 276.965 30.5212 276.206 30.5212C275.749 30.5212 275.242 30.5774 274.68 30.6827C274.117 30.788 273.491 30.9496 272.802 31.1673L271.248 28.4845C272.479 28.0491 273.583 27.8384 274.553 27.8384C275.524 27.8384 276.466 28.1333 277.436 28.7303C278.406 29.3202 279.531 30.149 280.804 31.2024L281.711 31.9469L281.064 32.6281V32.6211Z" fill="#EDE6D6"/>
<path d="M296.259 20.7732C296.259 21.4614 296.14 22.0654 295.901 22.5851C295.662 23.1048 295.423 23.5403 295.19 23.8984C294.951 24.2566 294.832 24.5586 294.832 24.8185C294.832 25.0573 294.98 25.3241 295.268 25.6261C295.556 25.9281 295.894 26.2231 296.273 26.497C296.653 26.7779 296.969 27.0026 297.23 27.1782L296.709 27.8875C296.449 27.74 296.048 27.4802 295.514 27.108C294.973 26.7428 294.417 26.3284 293.847 25.8649C293.278 25.4014 292.786 24.9449 292.371 24.4884C291.963 24.0389 291.752 23.6597 291.752 23.3577C291.752 23.0346 291.872 22.6834 292.111 22.3042C292.35 21.925 292.589 21.4825 292.821 20.9769C293.053 20.4712 293.179 19.8742 293.179 19.179V15.8149C292.596 15.7517 292.033 15.7166 291.492 15.7166C291.035 15.7166 290.536 15.843 289.987 16.1029C289.439 16.3627 288.975 16.8052 288.609 17.4302C288.651 17.971 288.693 18.575 288.722 19.2422C288.757 19.9094 288.778 20.5555 288.806 21.1805C288.827 21.8056 288.841 22.3323 288.841 22.7677C288.841 23.2172 288.715 23.6175 288.454 23.9687C288.194 24.3128 287.85 24.4884 287.421 24.4884C287.076 24.4884 286.647 24.376 286.141 24.1513C285.635 23.9265 285.128 23.6316 284.636 23.2804C284.144 22.9293 283.722 22.5219 283.392 22.0865C283.054 21.644 282.892 21.2156 282.892 20.8083C282.892 19.9023 283.061 19.0104 283.392 18.1255C283.729 17.2406 284.193 16.44 284.798 15.7166C285.403 14.9932 286.106 14.4103 286.907 13.9679C287.709 13.5254 288.56 13.3077 289.467 13.3077C290.156 13.3077 290.803 13.3639 291.393 13.4692C291.984 13.5746 292.589 13.7361 293.194 13.9538V11.271C293.194 10.2808 293.454 9.52226 293.974 9.00255H288.532C287.99 9.04469 287.47 9.26943 286.978 9.68379C286.479 10.0911 286.092 10.5055 285.811 10.9128H285.1L281.894 7.45047L282.217 6.6709H295.303L297.441 9.00255C297.117 9.22027 296.843 9.54333 296.618 9.97174C296.393 10.4072 296.28 10.9128 296.28 11.4957V20.7802L296.259 20.7732Z" fill="#EDE6D6"/>
<path d="M292.279 8.99572L291.534 6.66406H301.153L303.291 8.96059L301.638 10.7093H300.928C300.52 10.2809 300.035 9.88763 299.487 9.52946C298.938 9.17128 298.348 8.99572 297.722 8.99572H292.279ZM301.702 24.9802C301.273 24.7835 300.78 24.5237 300.225 24.1865C299.676 23.8494 299.248 23.5756 298.945 23.3649C298.987 22.9084 299.023 22.4378 299.044 21.9392C299.065 21.4405 299.072 20.956 299.072 20.4854V19.9376C299.072 19.741 299.058 19.5584 299.044 19.3898L299.332 19.1932C299.761 19.4109 300.239 19.6707 300.759 19.9868C301.28 20.3028 301.673 20.5627 301.962 20.7804C302.004 21.0613 302.039 21.3493 302.06 21.6372C302.081 21.9322 302.088 22.2271 302.088 22.5291C302.088 22.8943 302.074 23.2806 302.06 23.6809C302.039 24.0812 302.018 24.4604 301.997 24.8256L301.702 24.9872V24.9802ZM301.772 17.7956C301.336 17.5779 300.851 17.311 300.295 16.9879C299.74 16.6649 299.318 16.398 299.016 16.1803C299.037 15.8994 299.051 15.6044 299.065 15.2884C299.072 14.9793 299.079 14.6773 299.079 14.3964C299.079 14.1155 299.079 13.8065 299.065 13.4764C299.051 13.1393 299.037 12.8373 299.016 12.5564L299.311 12.3597C299.74 12.5775 300.218 12.8373 300.738 13.1533C301.259 13.4694 301.659 13.7292 301.934 13.947C302.039 14.6352 302.095 15.3516 302.095 16.082V16.8615C302.095 17.1424 302.081 17.4023 302.067 17.6411L301.772 17.8026V17.7956Z" fill="#EDE6D6"/>
<path d="M323.963 8.99565C323.64 9.21336 323.365 9.5364 323.133 9.96481C322.908 10.4002 322.796 10.9059 322.796 11.4888V20.7733C322.796 21.4615 322.676 22.0655 322.437 22.5852C322.198 23.1049 321.959 23.5404 321.727 23.8986C321.488 24.2567 321.369 24.5587 321.369 24.8186C321.369 25.0574 321.516 25.3242 321.804 25.6262C322.093 25.9282 322.43 26.2232 322.81 26.4971C323.19 26.778 323.506 27.0027 323.766 27.1783L323.246 27.8876C322.986 27.7402 322.585 27.4803 322.044 27.1081C321.502 26.7429 320.947 26.3285 320.377 25.865C319.808 25.4015 319.315 24.945 318.901 24.4885C318.493 24.039 318.282 23.6598 318.282 23.3578C318.282 23.0347 318.401 22.6835 318.64 22.3043C318.879 21.9251 319.111 21.4826 319.35 20.977C319.59 20.4713 319.709 19.8743 319.709 19.1791V17.4935C319.583 17.4724 319.449 17.4584 319.322 17.4584H318.964C318.275 17.4584 317.557 17.5286 316.812 17.6691C316.067 17.8096 315.35 18.0975 314.661 18.5259V23.5755C314.661 24.0039 314.534 24.3972 314.274 24.7553C314.014 25.1135 313.669 25.2891 313.24 25.2891C312.917 25.2891 312.523 25.1486 312.059 24.8677C311.595 24.5868 311.131 24.2216 310.667 23.7651C310.203 23.3156 309.816 22.81 309.499 22.2622C309.183 21.7144 309.028 21.1666 309.028 20.6258C309.028 19.9165 309.253 19.1931 309.71 18.4768C310.167 17.7604 310.793 17.1213 311.588 16.5805V12.8302C311.152 12.5282 310.688 12.149 310.182 11.6995C309.675 11.243 309.246 10.7865 308.902 10.323C308.557 9.85947 308.381 9.4732 308.381 9.17823C308.381 8.65853 308.578 8.14584 308.965 7.64018C309.352 7.13452 309.795 6.70613 310.294 6.36201C310.793 6.01788 311.194 5.84229 311.496 5.84229C311.693 5.84229 311.96 5.96168 312.305 6.20047C312.65 6.43925 313.008 6.72719 313.374 7.07132C313.739 7.41545 314.049 7.75255 314.295 8.07561C314.541 8.39867 314.668 8.63746 314.668 8.78494V15.2883C314.97 15.2251 315.279 15.1689 315.589 15.1268C315.898 15.0846 316.222 15.0635 316.545 15.0635C317.129 15.0635 317.677 15.0987 318.197 15.1759C318.718 15.2532 319.224 15.3655 319.723 15.513V11.243C319.723 10.2528 319.983 9.49428 320.504 8.97458H319.498C319.154 8.99565 318.858 9.07991 318.605 9.22037C318.359 9.36083 318.169 9.51535 318.036 9.69092H317.417L315.244 7.29606L315.504 6.64993H321.826L323.963 8.98159V8.99565Z" fill="#EDE6D6"/>
<path d="M335.038 11.2641C335.038 10.2739 335.298 9.51542 335.818 8.99572H330.988C330.446 9.01679 329.919 9.23449 329.398 9.64183C328.878 10.0492 328.477 10.4706 328.196 10.906H327.486L324.28 7.44361L324.603 6.66406H337.14L339.278 8.99572C338.954 9.21343 338.68 9.53648 338.455 9.96488C338.23 10.4003 338.117 10.906 338.117 11.4889V20.7734C338.117 21.4616 337.998 22.0656 337.759 22.5853C337.52 23.105 337.281 23.5404 337.049 23.8986C336.81 24.2568 336.69 24.5588 336.69 24.8186C336.69 25.0574 336.838 25.3243 337.126 25.6263C337.421 25.9283 337.752 26.2232 338.131 26.4971C338.511 26.7781 338.828 27.0028 339.088 27.1784L338.567 27.8877C338.307 27.7121 337.892 27.4382 337.323 27.0449C336.753 26.6587 336.163 26.2162 335.558 25.7316C334.953 25.247 334.468 24.7905 334.102 24.3551C333.8 24.4605 333.484 24.5518 333.16 24.629C332.837 24.7063 332.52 24.7414 332.218 24.7414C331.916 24.7414 331.487 24.6571 330.938 24.4815C330.39 24.3059 329.799 24.0531 329.173 23.723C328.548 23.3859 327.95 22.9856 327.373 22.5081C326.804 22.0375 326.34 21.4967 325.981 20.9068C325.623 20.3169 325.447 19.6707 325.447 18.9825C325.447 17.6481 325.7 16.5244 326.206 15.6184C326.712 14.7125 327.38 14.0242 328.217 13.5466C329.047 13.0761 329.947 12.8373 330.924 12.8373C331.768 12.8373 332.541 12.9005 333.259 13.034C333.969 13.1604 334.567 13.3149 335.038 13.4834V11.2501V11.2641ZM329.694 22.3606C330.235 22.3606 330.847 22.2341 331.522 21.9743C332.204 21.7144 332.858 21.3563 333.498 20.8927C334.138 20.4292 334.651 19.9025 335.038 19.3266V15.3797C334.714 15.3375 334.419 15.3024 334.145 15.2813C333.877 15.2603 333.617 15.2462 333.385 15.2462C332.563 15.2462 331.782 15.471 331.037 15.9275C330.291 16.384 329.694 17.0371 329.237 17.9009C328.78 18.7648 328.555 19.8182 328.555 21.0683C328.555 21.4124 328.646 21.7144 328.829 21.9743C329.012 22.2341 329.3 22.3606 329.687 22.3606H329.694Z" fill="#EDE6D6"/>
<path d="M353.284 20.7733C353.284 21.4615 353.165 22.0655 352.925 22.5852C352.686 23.1049 352.447 23.5403 352.215 23.8985C351.976 24.2567 351.857 24.5587 351.857 24.8185C351.857 25.0573 352.004 25.3242 352.293 25.6262C352.581 25.9282 352.918 26.2231 353.298 26.497C353.678 26.778 353.994 27.0027 354.254 27.1783L353.734 27.8876C353.474 27.7401 353.073 27.4803 352.539 27.108C351.997 26.7428 351.442 26.3285 350.872 25.865C350.303 25.4014 349.811 24.945 349.396 24.4885C348.988 24.039 348.777 23.6597 348.777 23.3577C348.777 23.0347 348.897 22.6835 349.136 22.3043C349.375 21.925 349.614 21.4826 349.846 20.9769C350.078 20.4713 350.204 19.8743 350.204 19.179V15.6535C349.986 15.6324 349.761 15.6183 349.522 15.6043C349.283 15.5973 349.044 15.5902 348.812 15.5902C347.989 15.5902 347.216 15.8922 346.478 16.4962C345.746 17.1002 345.142 17.8868 344.678 18.856C344.214 19.8251 343.982 20.8716 343.982 21.9953C343.982 22.7959 344.235 23.6036 344.741 24.4252C345.247 25.2469 346.007 26.0546 347.026 26.8552L346.379 27.5645C344.671 26.3566 343.314 25.1065 342.301 23.8142C341.281 22.522 340.775 21.321 340.775 20.2184C340.775 18.9051 341.056 17.7112 341.619 16.6437C342.181 15.5762 342.913 14.7264 343.82 14.0873C344.727 13.4482 345.676 13.1322 346.668 13.1322C347.314 13.1322 347.933 13.1743 348.517 13.2586C349.1 13.3429 349.663 13.4763 350.204 13.6449V11.25C350.204 10.2598 350.464 9.50126 350.985 8.98156H346.45C345.887 8.98156 345.339 9.19225 344.797 9.61363C344.256 10.035 343.834 10.4634 343.532 10.8918H342.821L339.615 7.42947L339.938 6.6499H352.314L354.451 8.98156C354.128 9.19927 353.854 9.52234 353.629 9.95074C353.404 10.3862 353.291 10.8918 353.291 11.4748V20.7592L353.284 20.7733Z" fill="#EDE6D6"/>
<path d="M358.466 8.57424C358.08 8.20904 357.679 7.68932 357.264 7.02213C356.856 6.35494 356.645 5.70884 356.645 5.08378C356.645 4.28316 356.99 3.54573 357.679 2.8645C358.368 2.18326 359.282 1.64248 360.414 1.22812C361.546 0.820781 362.763 0.610107 364.056 0.610107C365.027 0.610107 366.095 0.898053 367.263 1.46692C368.43 2.03579 369.597 2.82237 370.778 3.81261C371.96 4.80286 373.043 5.92654 374.034 7.17664L373.387 7.69636C372.135 6.29175 370.912 5.2102 369.724 4.44468C368.535 3.67917 367.305 3.29289 366.032 3.29289C364.759 3.29289 363.719 3.46848 362.791 3.82665C361.863 4.18483 361.138 4.64132 360.618 5.20316C360.098 5.76501 359.837 6.33388 359.837 6.91679C359.837 7.45756 360.006 7.97728 360.337 8.48997C360.667 9.00265 361.033 9.40998 361.42 9.73304C361.096 9.95075 360.822 10.2738 360.597 10.7022C360.372 11.1306 360.259 11.6433 360.259 12.2262V20.7662C360.259 21.4545 360.14 22.0585 359.901 22.5782C359.662 23.0979 359.423 23.5333 359.191 23.8915C358.952 24.2497 358.832 24.5517 358.832 24.8115C358.832 25.0503 358.98 25.3172 359.268 25.6192C359.556 25.9212 359.894 26.2161 360.273 26.49C360.653 26.7709 360.97 26.9957 361.23 27.1712L360.709 27.8806C360.449 27.7331 360.048 27.4733 359.514 27.101C358.973 26.7358 358.417 26.3215 357.848 25.8579C357.278 25.3944 356.786 24.9379 356.371 24.4814C355.963 24.032 355.752 23.6527 355.752 23.3507C355.752 23.0277 355.872 22.6765 356.111 22.2973C356.35 21.918 356.582 21.4756 356.821 20.9699C357.06 20.4643 357.18 19.8673 357.18 19.172V11.7276C357.18 10.9972 357.285 10.3862 357.489 9.90158C357.693 9.41699 358.016 8.96751 358.445 8.56018L358.466 8.57424Z" fill="#EDE6D6"/>
<path d="M369.028 24.9519C369.028 25.6402 368.852 26.3074 368.507 26.9605C368.163 27.6066 367.635 28.1474 366.918 28.5758L364.781 26.2442C365.104 26.0054 365.378 25.6823 365.61 25.275C365.842 24.8677 365.948 24.3901 365.948 23.8493V9.1571C365.948 8.46884 366.124 7.79462 366.468 7.13446C366.813 6.47429 367.34 5.94054 368.057 5.5332L370.195 7.86486C369.871 8.08257 369.597 8.39159 369.372 8.80594C369.147 9.21328 369.035 9.7049 369.035 10.2597V24.9519H369.028Z" fill="#EDE6D6"/>
</svg>
