<svg width="407" height="35" viewBox="0 0 407 35" fill="none" xmlns="http://www.w3.org/2000/svg">
<path d="M18.1131 20.6266C18.1131 21.3149 17.9936 21.9189 17.7545 22.4386C17.5154 22.9583 17.2764 23.3937 17.0443 23.7519C16.8053 24.11 16.6857 24.4191 16.6857 24.6719C16.6857 24.9107 16.8334 25.1776 17.1217 25.4796C17.41 25.7815 17.7475 26.0765 18.1272 26.3504C18.5069 26.6313 18.8233 26.8561 19.0834 27.0316L18.5631 27.741C18.3029 27.5865 17.9022 27.3336 17.3607 26.9614C16.8193 26.5962 16.2638 26.1819 15.6943 25.7183C15.1247 25.2548 14.6325 24.7983 14.2177 24.3418C13.8028 23.8853 13.5989 23.5131 13.5989 23.2111C13.5989 22.888 13.7184 22.5369 13.9575 22.1576C14.1966 21.7784 14.4286 21.3359 14.6677 20.8303C14.9068 20.3246 15.0263 19.7277 15.0263 19.0324V17.3469C14.9419 17.3258 14.8505 17.3118 14.7661 17.3118H14.506C13.9435 17.3118 13.3177 17.4592 12.6286 17.7472C11.9395 18.0351 11.2504 18.4144 10.5684 18.8779C9.88632 19.3414 9.26755 19.826 8.70503 20.3317C8.14252 20.8373 7.68547 21.3079 7.34093 21.7363C6.99639 22.1717 6.82061 22.5018 6.82061 22.7406C6.82061 23.0425 7.01749 23.4288 7.40422 23.9064C7.79095 24.3839 8.29018 24.8896 8.89488 25.4444C9.49959 25.9922 10.1254 26.54 10.7723 27.0808L10.1254 27.8604C9.54178 27.4249 8.86675 26.8912 8.10033 26.2451C7.3339 25.5989 6.56045 24.8896 5.78699 24.1101C5.01353 23.3305 4.28226 22.5439 3.61428 21.7503C2.94629 20.9497 2.40487 20.1842 1.99704 19.4538C1.58922 18.7234 1.37827 18.0772 1.37827 17.5154C1.37827 16.785 1.50484 16.1951 1.765 15.7526C2.02517 15.3102 2.33455 14.9871 2.70721 14.7835C3.07285 14.5798 3.41739 14.4744 3.74084 14.4744C4.06428 14.4744 4.42992 14.6149 4.82368 14.8958C5.22448 15.1767 5.59011 15.4577 5.92762 15.7386C6.26512 16.0195 6.4831 16.16 6.58857 16.16C6.82764 16.16 7.01046 15.9633 7.13702 15.563C7.26359 15.1627 7.3339 14.6289 7.3339 13.9617V11.1174C7.3339 10.1272 7.59407 9.36867 8.11439 8.84897H7.01046C6.44795 8.84897 5.89949 9.05966 5.35807 9.48104C4.81665 9.90242 4.39476 10.3308 4.09241 10.7592H3.38224L0.175903 7.29688L0.499344 6.51733H17.1217L19.2592 8.84897C18.9358 9.06668 18.6616 9.3757 18.4366 9.76899C18.2115 10.1623 18.099 10.6469 18.099 11.2087V20.6266H18.1131ZM15.0333 11.1174C15.0333 10.1272 15.2935 9.36867 15.8138 8.84897H11.602C11.2785 9.06668 11.0043 9.38975 10.7793 9.81815C10.5543 10.2536 10.4418 10.7593 10.4418 11.3422V15.549C11.3699 15.1416 12.2348 14.9309 13.0364 14.9309C13.3598 14.9309 13.6903 14.952 14.0278 14.9941C14.3653 15.0363 14.7029 15.0995 15.0474 15.1908V11.1174H15.0333Z" fill="#B2462D"/>
<path d="M21.0592 20.5002C21.0592 19.7487 21.2842 18.9832 21.7412 18.2177C22.1983 17.4522 22.8241 16.778 23.6186 16.1951V11.1174C23.6186 10.1272 23.8788 9.36867 24.3991 8.84897C23.8577 8.84897 23.4569 8.95433 23.1827 9.17204C22.9155 9.38976 22.6905 9.63556 22.5217 9.91649H21.8115L19.449 7.29688L19.7724 6.51733H33.8634L36.001 8.84897C35.6775 9.06668 35.4033 9.38975 35.1783 9.81815C34.9533 10.2536 34.8408 10.7592 34.8408 11.3422V20.6266C34.8408 21.3149 34.7213 21.9189 34.4822 22.4386C34.2431 22.9583 34.0041 23.3937 33.772 23.7519C33.533 24.11 33.4134 24.4191 33.4134 24.6719C33.4134 24.9107 33.5611 25.1776 33.8494 25.4796C34.1447 25.7815 34.4752 26.0765 34.8549 26.3504C35.2346 26.6313 35.551 26.8561 35.8111 27.0316L35.2908 27.741C35.0306 27.5864 34.6299 27.3336 34.0884 26.9614C33.547 26.5962 32.9915 26.1819 32.422 25.7183C31.8524 25.2548 31.3602 24.7983 30.9454 24.3418C30.5305 23.8853 30.3266 23.5131 30.3266 23.2111C30.3266 22.888 30.4462 22.5369 30.6852 22.1576C30.9243 21.7784 31.1563 21.3359 31.3954 20.8303C31.6345 20.3246 31.754 19.7277 31.754 19.0324V17.0238C31.6274 17.0238 31.4938 17.0238 31.3673 17.0097C31.2407 17.0027 31.1212 16.9957 31.0087 16.9957C30.3196 16.9957 29.6024 17.0659 28.857 17.2064C28.1117 17.3468 27.3945 17.6348 26.7054 18.0632V23.4358C26.7054 23.8713 26.5789 24.2575 26.3187 24.6157C26.0585 24.9739 25.714 25.1495 25.2851 25.1495C24.9616 25.1495 24.5679 25.009 24.1038 24.7281C23.6397 24.4472 23.1756 24.082 22.7116 23.6255C22.2475 23.169 21.8608 22.6703 21.5444 22.1225C21.2279 21.5747 21.0732 21.0269 21.0732 20.4862L21.0592 20.5002ZM31.747 11.1174C31.747 10.1272 32.0071 9.36867 32.5275 8.84897H27.8656C27.5422 9.06668 27.2679 9.38975 27.0429 9.81815C26.8179 10.2536 26.7054 10.7592 26.7054 11.3422V14.8396C27.0078 14.7764 27.3172 14.7202 27.6265 14.6781C27.9359 14.636 28.2594 14.6149 28.5828 14.6149C29.1664 14.6149 29.7149 14.65 30.2352 14.7273C30.7555 14.8045 31.2618 14.9169 31.761 15.0644V11.1174H31.747Z" fill="#B2462D"/>
<path d="M47.7224 8.84909C47.399 9.0668 47.1248 9.38987 46.8998 9.81827C46.6747 10.2537 46.5622 10.7594 46.5622 11.3423V15.3875C46.5622 16.8343 46.3372 18.0001 45.8802 18.8991C45.4232 19.798 44.7903 20.4933 43.9676 20.9849C43.4262 21.2869 42.9481 21.4625 42.5262 21.5046C42.1043 21.5468 41.8934 21.631 41.8934 21.7645C41.8934 21.9822 42.0621 22.2982 42.3926 22.7196C42.7301 23.141 43.152 23.6186 43.6723 24.1453C44.1927 24.672 44.7341 25.1987 45.3106 25.7114C45.8802 26.2311 46.4146 26.6947 46.9138 27.102L46.2669 27.8815C45.6833 27.4461 45.0083 26.9124 44.2419 26.2663C43.4754 25.6201 42.702 24.9108 41.9285 24.1312C41.1551 23.3517 40.4308 22.5651 39.7558 21.7715C39.0878 20.9709 38.5464 20.2054 38.1386 19.475C37.7308 18.7446 37.5198 18.0984 37.5198 17.5366C37.5198 16.8062 37.6464 16.2022 37.9065 15.7387C38.1667 15.2752 38.4761 14.924 38.8488 14.6852C39.2214 14.4465 39.5589 14.3271 39.8824 14.3271C40.2058 14.3271 40.5644 14.4675 40.9652 14.7484C41.366 15.0294 41.7316 15.3103 42.0692 15.5912C42.4067 15.8721 42.6246 16.0126 42.7301 16.0126C42.9692 16.0126 43.152 15.816 43.2786 15.4156C43.4051 15.0153 43.4754 14.4816 43.4754 13.8144V11.1316C43.4754 10.1413 43.7356 9.38286 44.2559 8.86315H42.9621C42.4207 8.90529 41.9074 9.13003 41.4082 9.54439C40.909 9.95172 40.5222 10.3661 40.241 10.7734H39.5308L36.3245 7.31104L36.6479 6.53149H45.5919L47.7295 8.86315L47.7224 8.84909Z" fill="#B2462D"/>
<path d="M46.942 32.4746L46.0349 31.7653C45.4091 31.2666 44.7833 30.9155 44.1575 30.6978C43.5317 30.48 42.8427 30.3747 42.0833 30.3747C41.6333 30.3747 41.12 30.4309 40.5574 30.5362C39.9949 30.6416 39.3691 30.8031 38.6801 31.0208L37.1261 28.338C38.3566 27.9096 39.4605 27.6919 40.4309 27.6919C41.4012 27.6919 42.3434 27.9869 43.3138 28.5838C44.2841 29.1737 45.4091 30.0025 46.6818 31.0629L47.5889 31.8074L46.942 32.4886V32.4746Z" fill="#B2462D"/>
<path d="M60.583 20.6266C60.583 21.3148 60.4635 21.9188 60.2244 22.4385C59.9853 22.9582 59.7463 23.3936 59.5142 23.7518C59.2822 24.11 59.1556 24.419 59.1556 24.6718C59.1556 24.9106 59.3033 25.1775 59.5916 25.4795C59.8869 25.7815 60.2174 26.0765 60.5971 26.3504C60.9767 26.6313 61.2932 26.856 61.5533 27.0316L61.033 27.7409C60.7939 27.6145 60.4494 27.3898 59.9994 27.0808C59.5494 26.7717 59.0572 26.4136 58.5439 26.0132C58.0235 25.6129 57.5524 25.2126 57.1165 24.7983C56.6805 24.3909 56.3852 24.0187 56.2094 23.6956C56.0125 23.7378 55.8297 23.7799 55.661 23.808C55.4852 23.8431 55.3164 23.8572 55.1407 23.8572C54.6414 23.8572 54.0789 23.7097 53.4391 23.4007C52.7992 23.0987 52.1804 22.7054 51.5757 22.2208C50.971 21.7362 50.4718 21.2095 50.071 20.6547C49.6702 20.0998 49.4733 19.552 49.4733 19.0394C49.4733 18.632 49.5999 18.0632 49.86 17.3398C50.1202 16.6164 50.2468 15.7947 50.2468 14.8606V11.1103C50.2468 10.7662 50.2819 10.4291 50.3452 10.106L47.7506 7.2898L48.0741 6.51025H59.6056L61.7432 8.84191C61.4197 9.05962 61.1455 9.38267 60.9135 9.81107C60.6885 10.2465 60.576 10.7522 60.576 11.3351V20.6195L60.583 20.6266ZM57.5032 11.1174C57.5032 10.1271 57.7634 9.36862 58.2837 8.84892H54.4938C54.1703 9.06663 53.8961 9.3897 53.6711 9.8181C53.4461 10.2535 53.3336 10.7592 53.3336 11.3421V16.5532C53.3336 17.1993 53.2562 17.7893 53.1086 18.316C52.9609 18.8427 52.8062 19.3062 52.6586 19.7066C52.5109 20.1069 52.4336 20.444 52.4336 20.7249C52.4336 21.2235 52.6375 21.4693 53.0523 21.4693C53.4391 21.4693 53.9031 21.371 54.4445 21.1744C54.986 20.9777 55.5344 20.7038 56.0969 20.3527C56.6594 19.9945 57.1306 19.5942 57.5243 19.1377V11.1103L57.5032 11.1174Z" fill="#B2462D"/>
<path d="M80.8335 20.6267C80.8335 21.315 80.714 21.919 80.4749 22.4387C80.2358 22.9584 79.9968 23.3938 79.7647 23.752C79.5327 24.1101 79.4061 24.4192 79.4061 24.672C79.4061 24.9108 79.5538 25.1777 79.8421 25.4796C80.1374 25.7816 80.4679 26.0766 80.8476 26.3505C81.2273 26.6314 81.5437 26.8562 81.8038 27.0317L81.2835 27.741C81.0233 27.5865 80.6226 27.3337 80.0811 26.9615C79.5397 26.5963 78.9842 26.1819 78.4147 25.7184C77.8451 25.2549 77.3529 24.7984 76.9381 24.3419C76.5303 23.8854 76.3193 23.5132 76.3193 23.2112C76.3193 22.8881 76.4389 22.537 76.6779 22.1577C76.917 21.7785 77.156 21.336 77.3881 20.8304C77.6201 20.3247 77.7467 19.7278 77.7467 19.0325V11.1035C77.7467 10.1132 78.0069 9.35473 78.5272 8.83502H75.5107C75.1873 9.05274 74.913 9.3758 74.681 9.80421C74.456 10.2396 74.3435 10.7453 74.3435 11.3282V19.3204C74.3435 20.1843 74.1185 20.9568 73.6614 21.631C73.2114 22.3122 72.6489 22.846 71.9739 23.2463C71.3059 23.6466 70.6239 23.8433 69.9348 23.8433C69.3934 23.8433 68.7675 23.6958 68.0574 23.3868C67.3472 23.0848 66.6511 22.6915 65.969 22.2069C65.287 21.7223 64.7245 21.1956 64.2815 20.6408C63.8385 20.0859 63.6205 19.5382 63.6205 19.0255C63.6205 18.6181 63.7471 18.0493 64.0073 17.3259C64.2674 16.6025 64.394 15.7808 64.394 14.8467V11.0964C64.394 10.7523 64.4291 10.4152 64.4924 10.0922L61.8978 7.27591L62.2213 6.49634H79.8491L81.9867 8.82799C81.6632 9.04571 81.389 9.36877 81.164 9.79718C80.939 10.2326 80.8265 10.7383 80.8265 11.3212V20.6057L80.8335 20.6267ZM71.2778 11.1175C71.2778 10.1273 71.5379 9.36877 72.0583 8.84906H68.6551C68.3316 9.06678 68.0574 9.38984 67.8324 9.81825C67.6074 10.2537 67.4949 10.7593 67.4949 11.3423V16.5533C67.4949 17.1995 67.4175 17.7894 67.2699 18.3161C67.1222 18.8429 66.9675 19.3064 66.8198 19.7067C66.6722 20.107 66.5948 20.4441 66.5948 20.725C66.5948 20.9427 66.7144 21.1183 66.9534 21.2588C67.1925 21.3993 67.4949 21.4695 67.8605 21.4695C68.3808 21.4695 68.9012 21.329 69.4285 21.0481C69.9559 20.7672 70.3988 20.3528 70.7574 19.805C71.116 19.2572 71.2918 18.569 71.2918 17.7473V11.1105L71.2778 11.1175Z" fill="#B2462D"/>
<path d="M76.7833 2.50728C77.149 2.24742 77.606 2.00162 78.1615 1.76283C78.7099 1.52405 79.2162 1.33444 79.6662 1.17993C80.4678 1.72071 81.2131 2.36682 81.9022 3.12531V3.41325C81.4944 3.56074 81.0022 3.76441 80.4256 4.01022C79.8561 4.25602 79.385 4.50182 79.0193 4.7406C78.6748 4.3754 78.3162 4.0383 77.9365 3.73631C77.5568 3.43432 77.1771 3.11828 76.7904 2.79522V2.50027L76.7833 2.50728Z" fill="#B2462D"/>
<path d="M84.3281 30.9504L83.421 29.8197C83.9203 28.8295 84.2929 27.7269 84.539 26.5189C84.7851 25.3109 84.9117 23.9063 84.9117 22.3121L85.3969 22.0522L88.2446 23.7378C88.2446 25.0581 87.9422 26.3223 87.3375 27.5372C86.7328 28.7593 85.889 29.897 84.8132 30.9504H84.3281Z" fill="#B2462D"/>
<path d="M99.2629 11.1174C99.2629 10.1272 99.5231 9.36867 100.043 8.84897H99.0731C98.5106 8.84897 97.9621 9.05966 97.4207 9.48104C96.8793 9.90242 96.4574 10.3308 96.155 10.7592H95.4449L92.2385 7.29688L92.562 6.51733H108.404L110.541 8.84897C110.218 9.06668 109.944 9.39677 109.719 9.83922C109.494 10.2817 109.381 10.8505 109.381 11.5388V19.9875C109.381 20.6758 109.262 21.2798 109.023 21.7995C108.783 22.3192 108.544 22.7546 108.312 23.1128C108.073 23.4709 107.954 23.78 107.954 24.0328C107.954 24.3348 108.123 24.6789 108.453 25.0652C108.783 25.4514 109.17 25.8237 109.599 26.1819C110.028 26.54 110.387 26.8209 110.668 27.0387L110.148 27.748C109.866 27.5724 109.444 27.2845 108.882 26.8771C108.319 26.4698 107.736 25.9993 107.117 25.4725C106.498 24.9458 105.978 24.4261 105.542 23.9204C105.113 23.4148 104.881 22.9864 104.86 22.6422C104.319 22.9021 103.798 23.2252 103.292 23.6114C102.786 23.9977 102.301 24.4753 101.85 25.0371C101.393 25.0371 100.824 24.9037 100.135 24.6298C99.4457 24.3629 98.7215 23.9907 97.9621 23.5271C97.2027 23.0636 96.4996 22.5299 95.8386 21.9259C95.1777 21.3219 94.6362 20.6898 94.2214 20.0297C93.7995 19.3695 93.5885 18.7093 93.5885 18.0421C93.5885 17.1572 93.8487 16.4269 94.3691 15.8439C94.8894 15.261 95.698 14.8537 96.8019 14.6149L99.2629 14.0671V11.1245V11.1174ZM106.294 11.1174C106.294 10.1272 106.555 9.36867 107.075 8.84897H103.51C103.186 9.06668 102.912 9.38975 102.687 9.81815C102.462 10.2536 102.35 10.7593 102.35 11.3422V16.4198L99.4035 17.2626C98.5176 17.5224 97.8707 17.8806 97.4629 18.3301C97.0551 18.7866 96.8441 19.3554 96.8441 20.0437C96.8441 20.6688 97.1043 21.2095 97.6246 21.659C98.1449 22.1085 98.6793 22.4175 99.2418 22.565C100.212 21.5958 101.288 20.7811 102.462 20.121C103.636 19.4608 104.909 19.0043 106.266 18.7444C106.287 18.6812 106.301 18.5619 106.301 18.3863V11.1034L106.294 11.1174Z" fill="#EDE6D6"/>
<path d="M124.534 20.6268C124.534 21.315 124.414 21.919 124.175 22.4387C123.936 22.9584 123.697 23.3938 123.465 23.752C123.233 24.1102 123.106 24.4192 123.106 24.672C123.106 24.9108 123.254 25.1777 123.542 25.4797C123.831 25.7817 124.168 26.0767 124.548 26.3506C124.928 26.6315 125.244 26.8562 125.504 27.0318L124.984 27.7411C124.724 27.5866 124.323 27.3338 123.781 26.9616C123.24 26.5964 122.685 26.182 122.115 25.7185C121.545 25.255 121.053 24.7984 120.638 24.3419C120.224 23.8855 120.02 23.5132 120.02 23.2112C120.02 22.8882 120.139 22.537 120.378 22.1578C120.617 21.7785 120.849 21.3361 121.088 20.8304C121.328 20.3248 121.447 19.7278 121.447 19.0325V15.507C121.229 15.4859 121.004 15.4718 120.765 15.4578C120.526 15.4438 120.287 15.4438 120.055 15.4438C119.232 15.4438 118.459 15.7458 117.72 16.3497C116.989 16.9537 116.384 17.7403 115.92 18.7095C115.456 19.6787 115.224 20.7251 115.224 21.8488C115.224 22.6494 115.477 23.457 115.984 24.2787C116.49 25.1004 117.249 25.9081 118.269 26.7087L117.622 27.418C115.913 26.2101 114.556 24.96 113.537 23.6607C112.524 22.3685 112.011 21.1675 112.011 20.0719C112.011 18.7586 112.292 17.5647 112.855 16.4972C113.417 15.4297 114.148 14.5799 115.055 13.9408C115.963 13.3017 116.912 12.9857 117.903 12.9857C118.55 12.9857 119.169 13.0278 119.752 13.1121C120.336 13.1964 120.899 13.3298 121.433 13.4984V11.1035C121.433 10.1133 121.693 9.35478 122.213 8.83507H117.678C117.116 8.83507 116.567 9.04576 116.026 9.46714C115.484 9.88853 115.062 10.3169 114.76 10.7453H114.05L110.844 7.28299L111.167 6.50342H123.542L125.68 8.83507C125.357 9.05279 125.082 9.37585 124.85 9.80426C124.625 10.2397 124.513 10.7453 124.513 11.3282V20.6127L124.534 20.6268Z" fill="#EDE6D6"/>
<path d="M125.216 32.4746L124.309 31.7653C123.683 31.2666 123.057 30.9155 122.431 30.6978C121.806 30.48 121.117 30.3747 120.357 30.3747C119.907 30.3747 119.394 30.4309 118.831 30.5362C118.269 30.6416 117.643 30.8031 116.954 31.0208L115.4 28.338C116.631 27.9096 117.734 27.6919 118.705 27.6919C119.675 27.6919 120.617 27.9869 121.588 28.5838C122.558 29.1737 123.683 30.0025 124.956 31.0629L125.863 31.8074L125.216 32.4886V32.4746Z" fill="#EDE6D6"/>
<path d="M137.43 8.84909C137.106 9.0668 136.832 9.38987 136.607 9.81827C136.382 10.2537 136.269 10.7594 136.269 11.3423V15.3875C136.269 16.8343 136.044 18.0001 135.587 18.8991C135.13 19.791 134.497 20.4933 133.675 20.9849C133.133 21.2869 132.655 21.4625 132.233 21.5046C131.811 21.5468 131.601 21.631 131.601 21.7645C131.601 21.9822 131.769 22.2982 132.1 22.7196C132.43 23.141 132.859 23.6186 133.379 24.1453C133.9 24.672 134.441 25.1987 135.018 25.7114C135.587 26.2311 136.122 26.6947 136.621 27.102L135.974 27.8815C135.39 27.4461 134.715 26.9124 133.949 26.2663C133.183 25.6201 132.409 24.9108 131.636 24.1312C130.862 23.3517 130.131 22.5651 129.463 21.7715C128.795 20.9709 128.254 20.2054 127.846 19.475C127.438 18.7446 127.227 18.0984 127.227 17.5366C127.227 16.8062 127.354 16.2022 127.614 15.7387C127.874 15.2752 128.183 14.924 128.556 14.6852C128.929 14.4465 129.266 14.3271 129.59 14.3271C129.913 14.3271 130.279 14.4675 130.672 14.7484C131.073 15.0294 131.439 15.3103 131.776 15.5912C132.114 15.8721 132.332 16.0126 132.437 16.0126C132.676 16.0126 132.859 15.816 132.986 15.4156C133.112 15.0153 133.183 14.4816 133.183 13.8144V11.1316C133.183 10.1413 133.443 9.38286 133.963 8.86315H132.669C132.128 8.90529 131.615 9.13003 131.115 9.54439C130.616 9.95875 130.229 10.3661 129.948 10.7734H129.238L126.032 7.31104L126.355 6.53149H135.299L137.437 8.86315L137.43 8.84909Z" fill="#EDE6D6"/>
<path d="M161.083 20.6266C161.083 21.2517 160.992 21.7994 160.809 22.277C160.626 22.7546 160.443 23.1549 160.261 23.492C160.078 23.8291 159.986 24.11 159.986 24.3488C159.986 24.6087 160.134 24.9107 160.422 25.2548C160.711 25.5989 161.048 25.936 161.428 26.2591C161.808 26.5821 162.124 26.842 162.384 27.0386L161.864 27.748C161.604 27.5724 161.203 27.2915 160.668 26.9052C160.127 26.5189 159.572 26.0765 159.002 25.5778C158.432 25.0792 157.94 24.5876 157.525 24.103C157.118 23.6184 156.907 23.2111 156.907 22.888C156.907 22.586 156.998 22.263 157.181 21.9188C157.364 21.5747 157.546 21.1674 157.729 20.7038C157.912 20.2403 158.004 19.6855 158.004 19.0394V15.2188C157.118 14.8536 156.225 14.5798 155.332 14.4112C154.432 14.2356 153.588 14.1514 152.786 14.1514C151.577 14.1514 150.48 14.3199 149.495 14.65C148.511 14.9801 147.738 15.4225 147.182 15.9633C146.62 16.5041 146.338 17.0729 146.338 17.6769C146.338 18.1053 146.479 18.323 146.76 18.323C146.866 18.323 147.07 18.2247 147.358 18.0281C147.653 17.8314 148.019 17.6137 148.476 17.3679C148.933 17.1221 149.418 16.8974 149.952 16.7007C150.48 16.5041 151.014 16.4128 151.556 16.4128C151.963 16.4128 152.406 16.5602 152.885 16.8622C153.356 17.1642 153.813 17.5575 154.249 18.0421C154.678 18.5267 155.036 19.0464 155.317 19.5942C155.599 20.142 155.739 20.6687 155.739 21.1603C155.739 21.6168 155.606 22.1084 155.332 22.6492C155.064 23.19 154.678 23.7027 154.178 24.2013C153.679 24.7 153.096 25.1003 152.413 25.4163C151.731 25.7323 150.979 25.8869 150.163 25.8869C149.059 25.8869 148.005 25.5919 146.985 25.016C145.973 24.4331 145.045 23.7027 144.201 22.8318C143.357 21.961 142.654 21.0901 142.091 20.2263L142.773 19.7417C143.786 21.1884 144.742 22.1436 145.642 22.6071C146.542 23.0706 147.492 23.3024 148.511 23.3024C149.116 23.3024 149.685 23.1619 150.213 22.881C150.74 22.6001 151.204 22.2559 151.591 21.8486C151.978 21.4413 152.287 21.041 152.512 20.6477C152.737 20.2614 152.849 19.9664 152.849 19.7768C152.849 19.4327 152.723 19.2571 152.463 19.2571C152.076 19.2571 151.661 19.3554 151.218 19.545C150.775 19.7417 150.346 19.9524 149.924 20.1912C149.502 20.4299 149.137 20.6406 148.82 20.8373C148.504 21.0339 148.3 21.1252 148.188 21.1252C148.04 21.1252 147.709 20.9497 147.203 20.6055C146.697 20.2614 146.156 19.8049 145.586 19.229C145.016 18.6601 144.517 18.0421 144.095 17.3819C143.673 16.7218 143.462 16.0967 143.462 15.4857C143.462 14.664 143.786 13.9617 144.433 13.3648C145.08 12.7748 145.938 12.3113 147.006 11.9882C148.075 11.6652 149.235 11.5037 150.487 11.5037C151.633 11.5037 152.871 11.609 154.214 11.8267C155.55 12.0444 156.815 12.4658 158.004 13.0909V11.0823C158.004 10.092 158.264 9.33354 158.784 8.81383H147.442C146.985 8.81383 146.549 8.98238 146.113 9.31246C145.684 9.64957 145.347 10.0007 145.108 10.3659H144.398L141.515 7.26175L141.838 6.48218H160.113L162.25 8.81383C161.927 9.03155 161.653 9.35461 161.421 9.78302C161.196 10.2184 161.083 10.7241 161.083 11.307V20.5915V20.6266Z" fill="#EDE6D6"/>
<path d="M164.838 3.77125C164.128 3.77125 163.565 4.08729 163.151 4.71234C162.736 5.33739 162.483 6.23635 162.37 7.39515L162.244 8.8489L159.297 7.7463L159.424 6.3206C159.572 4.78958 159.951 3.58865 160.542 2.71077C161.14 1.83991 161.899 1.39746 162.827 1.39746C163.474 1.39746 164.163 1.6222 164.901 2.0787C165.633 2.52817 166.364 3.13918 167.088 3.90469C167.812 4.67021 168.466 5.54106 169.05 6.51024C168.874 6.81223 168.684 7.1985 168.466 7.67607C168.248 8.15363 168.143 8.75761 168.143 9.488V20.6195C168.143 21.3078 168.023 21.9118 167.784 22.4315C167.545 22.9512 167.306 23.3866 167.074 23.7448C166.835 24.103 166.716 24.412 166.716 24.6648C166.716 24.9036 166.863 25.1705 167.151 25.4725C167.447 25.7745 167.777 26.0694 168.157 26.3433C168.537 26.6242 168.853 26.849 169.113 27.0245L168.593 27.7339C168.333 27.5794 167.932 27.3265 167.398 26.9543C166.856 26.5891 166.301 26.1748 165.731 25.7112C165.162 25.2477 164.669 24.7912 164.255 24.3347C163.84 23.8782 163.636 23.506 163.636 23.204C163.636 22.8809 163.755 22.5298 163.994 22.1506C164.233 21.7713 164.473 21.3289 164.705 20.8232C164.937 20.3175 165.063 19.7206 165.063 19.0253V8.41348C165.063 7.65499 165.211 6.99483 165.499 6.42596C165.794 5.8571 166.09 5.39356 166.392 5.04943C166.266 4.66316 166.055 4.34713 165.773 4.10835C165.492 3.86956 165.176 3.75019 164.831 3.75019L164.838 3.77125Z" fill="#EDE6D6"/>
<path d="M180.392 11.1174C180.392 10.1272 180.652 9.36867 181.172 8.84897H176.342C175.8 8.87004 175.273 9.08776 174.752 9.4951C174.232 9.90243 173.831 10.3238 173.55 10.7592H172.84L169.634 7.29688L169.957 6.51733H182.494L184.632 8.84897C184.308 9.06668 184.034 9.38975 183.809 9.81815C183.584 10.2536 183.471 10.7592 183.471 11.3422V20.6266C183.471 21.3149 183.352 21.9189 183.113 22.4386C182.874 22.9583 182.635 23.3937 182.403 23.7519C182.164 24.11 182.044 24.4191 182.044 24.6719C182.044 24.9107 182.192 25.1776 182.48 25.4796C182.768 25.7815 183.106 26.0765 183.485 26.3504C183.865 26.6313 184.182 26.8561 184.442 27.0316L183.921 27.741C183.661 27.5654 183.246 27.2845 182.677 26.8982C182.107 26.5119 181.517 26.0765 180.912 25.5849C180.307 25.1003 179.822 24.6438 179.456 24.2084C179.154 24.3137 178.838 24.412 178.514 24.4823C178.191 24.5525 177.874 24.5946 177.572 24.5946C177.27 24.5946 176.841 24.5104 176.292 24.3348C175.744 24.1592 175.153 23.9064 174.527 23.5763C173.902 23.2392 173.304 22.8389 172.727 22.3613C172.158 21.8908 171.694 21.35 171.335 20.7601C170.977 20.1631 170.801 19.524 170.801 18.8357C170.801 17.5014 171.054 16.3777 171.56 15.4717C172.066 14.5657 172.734 13.8775 173.571 13.3999C174.408 12.9223 175.301 12.6906 176.278 12.6906C177.122 12.6906 177.895 12.7538 178.613 12.8872C179.323 13.0207 179.921 13.1681 180.392 13.3437V11.1104V11.1174ZM175.041 22.2138C175.582 22.2138 176.194 22.0874 176.869 21.8276C177.544 21.5677 178.205 21.2095 178.845 20.746C179.485 20.2825 179.998 19.7558 180.385 19.1799V15.2329C180.061 15.1908 179.766 15.1557 179.492 15.1346C179.224 15.1135 178.971 15.0995 178.732 15.0995C177.91 15.0995 177.129 15.3242 176.384 15.7807C175.638 16.2302 175.041 16.8904 174.584 17.7542C174.134 18.618 173.902 19.6715 173.902 20.9286C173.902 21.2727 173.993 21.5747 174.176 21.8346C174.359 22.0944 174.647 22.2209 175.034 22.2209L175.041 22.2138Z" fill="#EDE6D6"/>
<path d="M199.341 20.6266C199.341 21.3149 199.222 21.9189 198.983 22.4386C198.744 22.9583 198.505 23.3937 198.273 23.7519C198.04 24.11 197.914 24.4191 197.914 24.6719C197.914 24.9107 198.062 25.1776 198.35 25.4796C198.638 25.7815 198.976 26.0765 199.355 26.3504C199.735 26.6313 200.051 26.8561 200.312 27.0316L199.791 27.741C199.531 27.5864 199.13 27.3336 198.589 26.9614C198.048 26.5962 197.492 26.1819 196.922 25.7183C196.353 25.2548 195.861 24.7983 195.446 24.3418C195.031 23.8853 194.827 23.5131 194.827 23.2111C194.827 22.888 194.947 22.5369 195.186 22.1576C195.425 21.7784 195.664 21.3359 195.896 20.8303C196.128 20.3246 196.255 19.7277 196.255 19.0324V15.6684C195.671 15.6052 195.108 15.57 194.574 15.57C194.117 15.57 193.618 15.7035 193.069 15.9563C192.521 16.2161 192.057 16.6586 191.691 17.2837C191.733 17.8244 191.775 18.4284 191.804 19.0956C191.832 19.7628 191.86 20.4089 191.888 21.034C191.909 21.659 191.923 22.1857 191.923 22.6212C191.923 23.0777 191.797 23.471 191.536 23.8221C191.276 24.1662 190.932 24.3418 190.503 24.3418C190.158 24.3418 189.729 24.2294 189.223 24.0047C188.717 23.78 188.211 23.485 187.718 23.1338C187.219 22.7757 186.804 22.3754 186.474 21.9329C186.136 21.4905 185.975 21.062 185.975 20.6547C185.975 19.7487 186.143 18.8568 186.474 17.9719C186.804 17.087 187.275 16.2864 187.88 15.563C188.485 14.8396 189.188 14.2567 189.989 13.8143C190.791 13.3718 191.642 13.1541 192.549 13.1541C193.238 13.1541 193.885 13.2103 194.476 13.3156C195.066 13.421 195.671 13.5825 196.276 13.8002V11.1174C196.276 10.1272 196.536 9.36867 197.056 8.84897H191.614C191.072 8.89111 190.559 9.11585 190.06 9.5302C189.561 9.93754 189.174 10.3519 188.893 10.7592H188.182L184.976 7.29688L185.3 6.51733H198.392L200.53 8.84897C200.206 9.06668 199.932 9.38975 199.7 9.81815C199.475 10.2536 199.362 10.7592 199.362 11.3422V20.6266H199.341Z" fill="#EDE6D6"/>
<path d="M195.291 2.50728C195.657 2.24742 196.121 2.00162 196.669 1.76283C197.218 1.52405 197.724 1.33444 198.174 1.17993C198.976 1.72071 199.721 2.36682 200.41 3.12531V3.41325C200.002 3.56074 199.51 3.76441 198.934 4.01022C198.364 4.25602 197.893 4.50182 197.527 4.7406C197.183 4.3754 196.817 4.0383 196.444 3.73631C196.065 3.43432 195.685 3.11828 195.291 2.79522V2.50027V2.50728Z" fill="#EDE6D6"/>
<path d="M222.96 20.6266C222.96 21.3149 222.84 21.9189 222.601 22.4386C222.362 22.9583 222.123 23.3937 221.891 23.7519C221.659 24.11 221.533 24.4191 221.533 24.6719C221.533 24.9107 221.68 25.1776 221.969 25.4796C222.264 25.7815 222.594 26.0765 222.974 26.3504C223.354 26.6313 223.67 26.8561 223.93 27.0316L223.41 27.741C223.15 27.5865 222.749 27.3336 222.208 26.9614C221.666 26.5962 221.111 26.1819 220.541 25.7183C219.972 25.2548 219.479 24.7983 219.065 24.3418C218.657 23.8853 218.446 23.5131 218.446 23.2111C218.446 22.888 218.565 22.5369 218.804 22.1576C219.044 21.7784 219.283 21.3359 219.515 20.8303C219.747 20.3246 219.873 19.7277 219.873 19.0324V17.3469C219.789 17.3258 219.697 17.3118 219.613 17.3118H219.353C218.79 17.3118 218.165 17.4592 217.475 17.7472C216.786 18.0351 216.097 18.4144 215.415 18.8779C214.733 19.3414 214.114 19.826 213.552 20.3317C212.989 20.8373 212.539 21.3079 212.195 21.7363C211.85 22.1717 211.675 22.5018 211.675 22.7406C211.675 23.0425 211.871 23.4288 212.258 23.9064C212.645 24.3839 213.144 24.8896 213.749 25.4444C214.354 25.9922 214.979 26.54 215.626 27.0808L214.979 27.8604C214.396 27.4249 213.721 26.8912 212.954 26.2451C212.188 25.5989 211.414 24.8896 210.641 24.1101C209.86 23.3305 209.143 22.5439 208.468 21.7503C207.8 20.9497 207.259 20.1842 206.851 19.4538C206.443 18.7234 206.232 18.0772 206.232 17.5154C206.232 16.785 206.359 16.1951 206.619 15.7526C206.879 15.3102 207.188 14.9871 207.561 14.7835C207.927 14.5798 208.271 14.4744 208.595 14.4744C208.918 14.4744 209.277 14.6149 209.678 14.8958C210.078 15.1767 210.444 15.4577 210.782 15.7386C211.119 16.0195 211.337 16.16 211.45 16.16C211.689 16.16 211.871 15.9633 211.998 15.563C212.125 15.1627 212.195 14.6289 212.195 13.9617V11.1174C212.195 10.1272 212.455 9.36867 212.975 8.84897H211.871C211.309 8.84897 210.76 9.05966 210.219 9.48104C209.678 9.90242 209.256 10.3308 208.953 10.7592H208.243L205.037 7.29688L205.36 6.51733H221.983L224.12 8.84897C223.797 9.06668 223.523 9.3757 223.298 9.76899C223.073 10.1693 222.96 10.6469 222.96 11.2087V20.6266ZM219.88 11.1174C219.88 10.1272 220.14 9.36867 220.661 8.84897H216.449C216.125 9.06668 215.851 9.38975 215.619 9.81815C215.394 10.2536 215.282 10.7593 215.282 11.3422V15.549C216.21 15.1416 217.075 14.9309 217.876 14.9309C218.2 14.9309 218.53 14.952 218.868 14.9941C219.205 15.0363 219.543 15.0995 219.887 15.1908V11.1174H219.88Z" fill="#EDE6D6"/>
<path d="M223.642 32.4746L222.735 31.7653C222.109 31.2666 221.483 30.9155 220.858 30.6978C220.232 30.48 219.543 30.3747 218.783 30.3747C218.326 30.3747 217.82 30.4309 217.258 30.5362C216.695 30.6416 216.069 30.8031 215.38 31.0208L213.826 28.338C215.057 27.9096 216.161 27.6919 217.131 27.6919C218.101 27.6919 219.044 27.9869 220.014 28.5838C220.984 29.1737 222.109 30.0025 223.382 31.0629L224.289 31.8074L223.642 32.4886V32.4746Z" fill="#EDE6D6"/>
<path d="M235.209 11.1174C235.209 10.1272 235.469 9.36867 235.989 8.84897H231.159C230.617 8.87004 230.09 9.08776 229.57 9.4951C229.049 9.90243 228.648 10.3238 228.367 10.7592H227.657L224.451 7.29688L224.774 6.51733H237.311L239.449 8.84897C239.125 9.06668 238.851 9.38975 238.626 9.81815C238.401 10.2536 238.289 10.7592 238.289 11.3422V20.6266C238.289 21.3149 238.169 21.9189 237.93 22.4386C237.691 22.9583 237.452 23.3937 237.22 23.7519C236.981 24.11 236.861 24.4191 236.861 24.6719C236.861 24.9107 237.009 25.1776 237.297 25.4796C237.585 25.7815 237.923 26.0765 238.303 26.3504C238.682 26.6313 238.999 26.8561 239.259 27.0316L238.739 27.741C238.478 27.5654 238.064 27.2845 237.494 26.8982C236.924 26.5119 236.334 26.0765 235.729 25.5849C235.124 25.1003 234.639 24.6438 234.274 24.2084C233.971 24.3137 233.655 24.412 233.331 24.4823C233.008 24.5525 232.692 24.5946 232.389 24.5946C232.087 24.5946 231.658 24.5104 231.109 24.3348C230.561 24.1592 229.97 23.9064 229.345 23.5763C228.719 23.2392 228.121 22.8389 227.545 22.3613C226.975 21.8908 226.511 21.35 226.152 20.7601C225.794 20.1631 225.618 19.524 225.618 18.8357C225.618 17.5014 225.871 16.3777 226.377 15.4717C226.884 14.5657 227.552 13.8775 228.388 13.3999C229.225 12.9223 230.118 12.6906 231.095 12.6906C231.939 12.6906 232.713 12.7538 233.43 12.8872C234.14 13.0207 234.738 13.1681 235.209 13.3437V11.1104V11.1174ZM229.858 22.2138C230.399 22.2138 231.011 22.0874 231.686 21.8276C232.361 21.5677 233.022 21.2095 233.662 20.746C234.302 20.2825 234.815 19.7558 235.202 19.1799V15.2329C234.878 15.1908 234.583 15.1557 234.309 15.1346C234.042 15.1135 233.788 15.0995 233.549 15.0995C232.727 15.0995 231.946 15.3242 231.201 15.7807C230.456 16.2302 229.858 16.8904 229.401 17.7542C228.951 18.618 228.719 19.6715 228.719 20.9286C228.719 21.2727 228.81 21.5747 228.993 21.8346C229.176 22.0944 229.464 22.2209 229.851 22.2209L229.858 22.2138Z" fill="#EDE6D6"/>
<path d="M252.604 20.6266C252.604 21.3148 252.485 21.9188 252.246 22.4385C252.007 22.9582 251.768 23.3936 251.536 23.7518C251.297 24.11 251.177 24.419 251.177 24.6718C251.177 24.9106 251.325 25.1775 251.613 25.4795C251.901 25.7815 252.239 26.0765 252.619 26.3504C252.998 26.6313 253.315 26.856 253.575 27.0316L253.054 27.7409C252.815 27.6145 252.471 27.3898 252.021 27.0808C251.571 26.7717 251.079 26.4136 250.565 26.0132C250.045 25.6129 249.574 25.2126 249.138 24.7983C248.702 24.3909 248.407 24.0187 248.231 23.6956C248.034 23.7378 247.851 23.7799 247.682 23.808C247.507 23.8431 247.338 23.8572 247.162 23.8572C246.663 23.8572 246.1 23.7097 245.461 23.4007C244.821 23.0987 244.202 22.7054 243.597 22.2208C242.992 21.7362 242.493 21.2095 242.092 20.6547C241.692 20.0998 241.495 19.552 241.495 19.0394C241.495 18.632 241.621 18.0632 241.882 17.3398C242.142 16.6164 242.268 15.7947 242.268 14.8606V11.1103C242.268 10.7662 242.303 10.4291 242.367 10.106L239.772 7.2898L240.096 6.51025H251.627L253.765 8.84191C253.441 9.05962 253.167 9.38267 252.942 9.81107C252.717 10.2465 252.604 10.7522 252.604 11.3351V20.6195V20.6266ZM249.525 11.1174C249.525 10.1271 249.785 9.36862 250.305 8.84892H246.515C246.192 9.06663 245.918 9.3897 245.693 9.8181C245.468 10.2535 245.355 10.7592 245.355 11.3421V16.5532C245.355 17.1993 245.278 17.7893 245.13 18.316C244.975 18.8427 244.828 19.3062 244.673 19.7066C244.525 20.1069 244.448 20.444 244.448 20.7249C244.448 21.2235 244.652 21.4693 245.067 21.4693C245.454 21.4693 245.918 21.371 246.459 21.1744C247 20.9777 247.549 20.7038 248.111 20.3527C248.674 20.0015 249.145 19.5942 249.539 19.1377V11.1103L249.525 11.1174Z" fill="#EDE6D6"/>
<path d="M253.28 32.4746L252.372 31.7653C251.747 31.2666 251.121 30.9155 250.495 30.6978C249.869 30.48 249.18 30.3747 248.421 30.3747C247.964 30.3747 247.457 30.4309 246.895 30.5362C246.332 30.6416 245.707 30.8031 245.018 31.0208L243.464 28.338C244.694 27.9096 245.798 27.6919 246.768 27.6919C247.739 27.6919 248.681 27.9869 249.651 28.5838C250.622 29.1737 251.747 30.0025 253.019 31.0629L253.926 31.8074L253.28 32.4886V32.4746Z" fill="#EDE6D6"/>
<path d="M265.5 8.84909C265.177 9.0668 264.902 9.38987 264.677 9.81827C264.452 10.2537 264.34 10.7594 264.34 11.3423V15.3875C264.34 16.8343 264.115 18.0001 263.658 18.8991C263.201 19.798 262.568 20.4933 261.745 20.9849C261.204 21.2869 260.726 21.4625 260.304 21.5046C259.882 21.5468 259.671 21.631 259.671 21.7645C259.671 21.9822 259.84 22.2982 260.17 22.7196C260.508 23.141 260.93 23.6186 261.45 24.1453C261.97 24.672 262.512 25.1987 263.088 25.7114C263.658 26.2311 264.192 26.6947 264.692 27.102L264.045 27.8815C263.461 27.4461 262.786 26.9124 262.02 26.2663C261.253 25.6201 260.48 24.9108 259.706 24.1312C258.933 23.3517 258.209 22.5651 257.534 21.7715C256.866 20.9709 256.324 20.2054 255.916 19.475C255.508 18.7446 255.298 18.0984 255.298 17.5366C255.298 16.8062 255.424 16.2022 255.684 15.7387C255.944 15.2752 256.254 14.924 256.626 14.6852C256.999 14.4465 257.337 14.3271 257.66 14.3271C257.984 14.3271 258.342 14.4675 258.743 14.7484C259.144 15.0294 259.509 15.3103 259.847 15.5912C260.184 15.8721 260.402 16.0126 260.508 16.0126C260.747 16.0126 260.93 15.816 261.056 15.4156C261.183 15.0153 261.253 14.4816 261.253 13.8144V11.1316C261.253 10.1413 261.513 9.38286 262.034 8.86315H260.74C260.198 8.90529 259.685 9.13003 259.186 9.54439C258.687 9.95172 258.3 10.3661 258.019 10.7734H257.309L254.102 7.31104L254.426 6.53149H263.37L265.507 8.86315L265.5 8.84909Z" fill="#EDE6D6"/>
<path d="M276.286 11.1174C276.286 10.1272 276.547 9.36867 277.067 8.84897H272.236C271.695 8.87004 271.168 9.08776 270.647 9.4951C270.127 9.90243 269.726 10.3238 269.445 10.7592H268.735L265.528 7.29688L265.852 6.51733H278.389L280.526 8.84897C280.203 9.06668 279.929 9.38975 279.704 9.81815C279.479 10.2536 279.366 10.7592 279.366 11.3422V20.6266C279.366 21.3149 279.247 21.9189 279.008 22.4386C278.769 22.9583 278.529 23.3937 278.297 23.7519C278.058 24.11 277.939 24.4191 277.939 24.6719C277.939 24.9107 278.086 25.1776 278.375 25.4796C278.67 25.7815 279.001 26.0765 279.38 26.3504C279.76 26.6313 280.076 26.8561 280.337 27.0316L279.816 27.741C279.556 27.5654 279.141 27.2845 278.572 26.8982C278.002 26.5119 277.411 26.0765 276.807 25.5849C276.202 25.1003 275.717 24.6438 275.351 24.2084C275.049 24.3137 274.732 24.412 274.409 24.4823C274.086 24.5595 273.769 24.5946 273.467 24.5946C273.164 24.5946 272.736 24.5104 272.187 24.3348C271.639 24.1592 271.048 23.9064 270.422 23.5763C269.796 23.2392 269.199 22.8389 268.622 22.3613C268.053 21.8908 267.589 21.35 267.23 20.7601C266.871 20.1631 266.696 19.524 266.696 18.8357C266.696 17.5014 266.949 16.3777 267.455 15.4717C267.961 14.5657 268.629 13.8775 269.466 13.3999C270.296 12.9223 271.196 12.6906 272.173 12.6906C273.017 12.6906 273.79 12.7538 274.507 12.8872C275.218 13.0207 275.815 13.1681 276.293 13.3437V11.1104L276.286 11.1174ZM270.943 22.2138C271.484 22.2138 272.096 22.0874 272.771 21.8276C273.453 21.5677 274.107 21.2095 274.747 20.746C275.386 20.2825 275.9 19.7558 276.286 19.1799V15.2329C275.963 15.1908 275.668 15.1557 275.393 15.1346C275.126 15.1135 274.866 15.0995 274.634 15.0995C273.811 15.0995 273.031 15.3242 272.286 15.7807C271.54 16.2302 270.943 16.8904 270.485 17.7542C270.028 18.618 269.803 19.6715 269.803 20.9286C269.803 21.2727 269.895 21.5747 270.078 21.8346C270.261 22.0944 270.549 22.2209 270.935 22.2209L270.943 22.2138Z" fill="#EDE6D6"/>
<path d="M286.426 20.6268C286.426 21.315 286.306 21.919 286.067 22.4387C285.828 22.9584 285.589 23.3938 285.357 23.752C285.125 24.1102 284.998 24.4192 284.998 24.672C284.998 24.9108 285.146 25.1777 285.434 25.4797C285.723 25.7817 286.06 26.0767 286.44 26.3506C286.819 26.6315 287.136 26.8562 287.396 27.0318L286.876 27.7411C286.616 27.5866 286.215 27.3338 285.673 26.9616C285.132 26.5964 284.576 26.182 284.007 25.7185C283.437 25.255 282.945 24.7984 282.53 24.3419C282.115 23.8855 281.912 23.5132 281.912 23.2112C281.912 22.8882 282.031 22.537 282.27 22.1578C282.509 21.7785 282.741 21.3361 282.98 20.8304C283.219 20.3248 283.339 19.7278 283.339 19.0325V11.1035C283.339 10.1133 283.599 9.35478 284.119 8.83507H277.707L276.997 6.50342H285.455L287.593 8.83507C287.27 9.05279 286.995 9.37585 286.763 9.80426C286.538 10.2397 286.426 10.7453 286.426 11.3282V20.6127V20.6268Z" fill="#EDE6D6"/>
<path d="M304.054 15.3525C303.407 15.1769 302.781 15.0645 302.176 14.9943C301.571 14.9311 300.953 14.896 300.327 14.896C294.948 14.896 292.262 17.1152 292.262 21.5608C292.262 22.0805 292.41 22.3404 292.719 22.3404C292.916 22.3404 293.204 22.1648 293.591 21.8207C293.978 21.4765 294.428 21.0481 294.934 20.5425C295.44 20.0368 295.989 19.5242 296.572 19.0045C297.156 18.4847 297.746 18.0563 298.358 17.7122C298.963 17.3681 299.532 17.1925 300.074 17.1925C300.573 17.1925 301.121 17.354 301.726 17.6771C302.331 18.0001 302.915 18.4075 303.477 18.8921C304.04 19.3767 304.504 19.8964 304.869 20.4442C305.235 20.992 305.418 21.4976 305.418 21.9471C305.418 22.5721 305.242 23.2112 304.883 23.8574C304.525 24.5035 304.047 25.1426 303.442 25.7676L300.559 23.7309C300.988 23.3025 301.41 22.7618 301.804 22.1157C302.204 21.4695 302.401 20.8445 302.401 20.2405C302.401 19.8332 302.204 19.6225 301.818 19.6225C301.431 19.6225 300.96 19.8613 300.411 20.3318C299.863 20.8094 299.272 21.3642 298.646 22.0173C298.021 22.6705 297.395 23.2393 296.769 23.7309C297.416 24.4403 298.189 25.1777 299.082 25.9292C299.975 26.6806 300.812 27.3549 301.593 27.9378L300.882 28.8086C300.018 28.2046 299.089 27.5164 298.098 26.7509C297.107 25.9854 296.263 25.2479 295.574 24.5316C295.426 24.5948 295.264 24.651 295.103 24.6931C294.941 24.7352 294.786 24.7563 294.631 24.7563C294.245 24.7563 293.738 24.6159 293.127 24.3349C292.508 24.054 291.903 23.6748 291.299 23.2042C290.694 22.7267 290.188 22.1929 289.773 21.5889C289.365 20.9849 289.154 20.3739 289.154 19.7419C289.154 17.1714 289.885 15.3173 291.341 14.1796C292.796 13.0348 295.06 12.466 298.126 12.466C298.689 12.466 299.244 12.5011 299.793 12.5783C300.341 12.6556 300.918 12.7469 301.522 12.8523V11.1035C301.522 10.1133 301.782 9.35478 302.303 8.83507H294.723C294.181 8.87721 293.668 9.10195 293.169 9.51631C292.67 9.93067 292.283 10.338 292.002 10.7453H291.292L288.085 7.28299L288.409 6.50342H303.639L305.776 8.83507C305.453 9.05279 305.179 9.37585 304.954 9.80426C304.729 10.2397 304.616 10.7453 304.616 11.3282V14.8889L304.068 15.3384L304.054 15.3525Z" fill="#EDE6D6"/>
<path d="M300.489 2.50728C300.854 2.24742 301.311 2.00162 301.867 1.76283C302.422 1.52405 302.922 1.33444 303.372 1.17993C304.173 1.72071 304.918 2.36682 305.608 3.12531V3.41325C305.2 3.56074 304.708 3.76441 304.131 4.01022C303.561 4.25602 303.09 4.50182 302.725 4.7406C302.38 4.3754 302.021 4.0383 301.642 3.73631C301.262 3.43432 300.882 3.11828 300.489 2.79522V2.50027V2.50728Z" fill="#EDE6D6"/>
<path d="M322.033 11.1175C322.033 10.1272 322.293 9.36875 322.813 8.84904H319.023C318.7 9.06675 318.426 9.38982 318.201 9.81822C317.976 10.2537 317.863 10.7593 317.863 11.3422V19.9174C317.863 20.6267 317.765 21.3149 317.575 21.9751C317.378 22.6353 317.111 23.169 316.766 23.5764C316.422 23.9837 316.035 24.1944 315.599 24.1944C315.255 24.1944 314.833 24.082 314.333 23.8573C313.834 23.6325 313.356 23.3306 312.892 22.9513C312.428 22.5721 312.041 22.1577 311.725 21.7082C311.408 21.2588 311.254 20.8023 311.254 20.3458C311.254 19.4819 311.57 18.6181 312.21 17.7402C312.85 16.8623 313.708 16.139 314.783 15.5561V11.1245C314.783 10.1343 315.044 9.37578 315.564 8.85607H315.276C314.713 8.85607 314.277 8.96142 313.961 9.16509C313.644 9.36875 313.384 9.62157 313.166 9.92357H312.456L310.094 7.30398L310.417 6.52441H324.156L326.294 8.85607C325.97 9.07378 325.696 9.39685 325.464 9.82525C325.239 10.2607 325.127 10.7663 325.127 11.3492V20.6337C325.127 21.322 325.007 21.926 324.768 22.4457C324.529 22.9654 324.29 23.4008 324.058 23.759C323.826 24.1171 323.699 24.4262 323.699 24.679C323.699 24.9178 323.847 25.1846 324.135 25.4866C324.424 25.7886 324.761 26.0836 325.141 26.3575C325.52 26.6384 325.837 26.8631 326.097 27.0387L325.577 27.7481C325.317 27.5936 324.916 27.3407 324.374 26.9685C323.833 26.6033 323.277 26.1889 322.708 25.7254C322.138 25.2619 321.646 24.8054 321.231 24.3489C320.823 23.8924 320.613 23.5202 320.613 23.2182C320.613 22.8951 320.732 22.544 320.971 22.1648C321.21 21.7855 321.442 21.343 321.681 20.8374C321.92 20.3317 322.04 19.7348 322.04 19.0395V11.1105L322.033 11.1175Z" fill="#EDE6D6"/>
<path d="M322.356 34.2233C321.815 34.2233 321.14 34.0899 320.331 33.816C319.523 33.5491 318.714 33.1839 317.919 32.7344C317.125 32.2849 316.45 31.7933 315.908 31.2596C315.367 30.7329 315.1 30.2062 315.1 29.6935C315.1 29.1808 315.388 28.7594 315.958 28.3801C316.527 28.0009 317.322 27.7691 318.341 27.6849L322.42 27.3618L324.431 29.1738L324.269 29.5951L319.93 30.1429C318.742 30.3185 318.152 30.6486 318.152 31.1472C318.152 31.386 318.327 31.5897 318.686 31.7653C319.044 31.9408 319.459 32.0251 319.93 32.0251C320.62 32.0251 321.379 31.9408 322.202 31.7863C323.024 31.6248 323.734 31.4141 324.339 31.1543L326.118 33.226C325.752 33.4859 325.232 33.7176 324.564 33.9213C323.896 34.125 323.158 34.2303 322.363 34.2303L322.356 34.2233Z" fill="#EDE6D6"/>
<path d="M342.734 15.3525C342.087 15.1769 341.461 15.0645 340.856 14.9943C340.251 14.9311 339.633 14.896 339.007 14.896C333.628 14.896 330.942 17.1152 330.942 21.5608C330.942 22.0805 331.089 22.3404 331.399 22.3404C331.596 22.3404 331.884 22.1648 332.271 21.8207C332.657 21.4765 333.107 21.0481 333.614 20.5425C334.12 20.0368 334.668 19.5242 335.252 19.0045C335.836 18.4847 336.426 18.0563 337.038 17.7122C337.643 17.3681 338.212 17.1925 338.754 17.1925C339.253 17.1925 339.801 17.354 340.406 17.6771C341.011 18.0001 341.594 18.4075 342.157 18.8921C342.719 19.3767 343.184 19.8964 343.549 20.4442C343.915 20.992 344.098 21.4976 344.098 21.9471C344.098 22.5721 343.922 23.2112 343.563 23.8574C343.205 24.5035 342.726 25.1426 342.122 25.7676L339.239 23.7309C339.668 23.3025 340.09 22.7618 340.483 22.1157C340.884 21.4695 341.081 20.8445 341.081 20.2405C341.081 19.8332 340.884 19.6225 340.498 19.6225C340.111 19.6225 339.64 19.8613 339.091 20.3318C338.543 20.8094 337.952 21.3642 337.326 22.0173C336.701 22.6705 336.075 23.2393 335.449 23.7309C336.096 24.4403 336.869 25.1777 337.762 25.9292C338.655 26.6806 339.492 27.3549 340.273 27.9378L339.562 28.8086C338.697 28.2046 337.769 27.5164 336.778 26.7509C335.786 25.9854 334.943 25.2479 334.254 24.5316C334.106 24.5948 333.944 24.651 333.782 24.6931C333.621 24.7352 333.466 24.7563 333.311 24.7563C332.925 24.7563 332.418 24.6159 331.807 24.3349C331.188 24.054 330.583 23.6748 329.979 23.2042C329.374 22.7267 328.868 22.1929 328.453 21.5889C328.045 20.9849 327.834 20.3739 327.834 19.7419C327.834 17.1714 328.565 15.3173 330.021 14.1796C331.476 13.0348 333.74 12.466 336.806 12.466C337.369 12.466 337.924 12.5011 338.472 12.5783C339.021 12.6556 339.598 12.7469 340.202 12.8523V11.1035C340.202 10.1133 340.462 9.35478 340.983 8.83507H333.403C332.861 8.87721 332.348 9.10195 331.849 9.51631C331.35 9.93067 330.963 10.338 330.682 10.7453H329.971L326.765 7.28299L327.089 6.50342H342.319L344.456 8.83507C344.133 9.05279 343.859 9.37585 343.634 9.80426C343.409 10.2397 343.296 10.7453 343.296 11.3282V14.8889L342.748 15.3384L342.734 15.3525Z" fill="#EDE6D6"/>
<path d="M343.901 32.4746L342.994 31.7653C342.368 31.2666 341.742 30.9155 341.116 30.6978C340.49 30.48 339.801 30.3747 339.042 30.3747C338.592 30.3747 338.079 30.4309 337.516 30.5362C336.954 30.6416 336.328 30.8031 335.639 31.0208L334.085 28.338C335.315 27.9096 336.419 27.6919 337.39 27.6919C338.36 27.6919 339.302 27.9869 340.272 28.5838C341.243 29.1737 342.368 30.0025 343.641 31.0629L344.548 31.8074L343.901 32.4886V32.4746Z" fill="#EDE6D6"/>
<path d="M363.469 20.6267C363.469 21.315 363.35 21.919 363.111 22.4387C362.871 22.9584 362.632 23.3938 362.4 23.752C362.168 24.1101 362.042 24.4192 362.042 24.672C362.042 24.9108 362.189 25.1777 362.478 25.4796C362.773 25.7816 363.103 26.0766 363.483 26.3505C363.863 26.6314 364.179 26.8562 364.439 27.0317L363.919 27.741C363.659 27.5865 363.258 27.3337 362.717 26.9615C362.175 26.5963 361.62 26.1819 361.05 25.7184C360.481 25.2549 359.989 24.7984 359.574 24.3419C359.166 23.8854 358.955 23.5132 358.955 23.2112C358.955 22.8881 359.074 22.537 359.314 22.1577C359.553 21.7785 359.792 21.336 360.024 20.8304C360.256 20.3247 360.382 19.7278 360.382 19.0325V11.1035C360.382 10.1132 360.642 9.35473 361.163 8.83502H358.146C357.823 9.05274 357.549 9.3758 357.317 9.80421C357.092 10.2396 356.979 10.7453 356.979 11.3282V19.3204C356.979 20.1843 356.754 20.9568 356.297 21.631C355.847 22.3122 355.285 22.846 354.61 23.2463C353.942 23.6466 353.259 23.8433 352.57 23.8433C352.029 23.8433 351.403 23.6958 350.693 23.3868C349.983 23.0848 349.287 22.6915 348.605 22.2069C347.923 21.7223 347.36 21.1956 346.917 20.6408C346.474 20.0859 346.256 19.5382 346.256 19.0255C346.256 18.6181 346.383 18.0493 346.643 17.3259C346.903 16.6025 347.03 15.7808 347.03 14.8467V11.0964C347.03 10.7523 347.065 10.4152 347.128 10.0922L344.533 7.27591L344.857 6.49634H362.485L364.622 8.82799C364.299 9.04571 364.025 9.36877 363.8 9.79718C363.575 10.2326 363.462 10.7383 363.462 11.3212V20.6057L363.469 20.6267ZM353.906 11.1175C353.906 10.1273 354.167 9.36877 354.687 8.84906H351.284C350.96 9.06678 350.686 9.38984 350.461 9.81825C350.236 10.2537 350.123 10.7593 350.123 11.3423V16.5533C350.123 17.1995 350.046 17.7894 349.898 18.3161C349.751 18.8429 349.596 19.3064 349.448 19.7067C349.301 20.107 349.223 20.4441 349.223 20.725C349.223 20.9427 349.343 21.1183 349.582 21.2588C349.821 21.3993 350.123 21.4695 350.489 21.4695C351.009 21.4695 351.53 21.329 352.057 21.0481C352.584 20.7672 353.027 20.3528 353.386 19.805C353.745 19.2572 353.92 18.569 353.92 17.7473V11.1105L353.906 11.1175Z" fill="#EDE6D6"/>
<path d="M370.529 20.6268C370.529 21.315 370.409 21.919 370.17 22.4387C369.931 22.9584 369.692 23.3938 369.46 23.752C369.228 24.1102 369.101 24.4192 369.101 24.672C369.101 24.9108 369.249 25.1777 369.537 25.4797C369.826 25.7817 370.163 26.0767 370.543 26.3506C370.923 26.6315 371.239 26.8562 371.499 27.0318L370.979 27.7411C370.719 27.5866 370.318 27.3338 369.776 26.9616C369.235 26.5964 368.68 26.182 368.11 25.7185C367.54 25.255 367.048 24.7984 366.633 24.3419C366.218 23.8855 366.015 23.5132 366.015 23.2112C366.015 22.8882 366.134 22.537 366.373 22.1578C366.612 21.7785 366.844 21.3361 367.083 20.8304C367.322 20.3248 367.442 19.7278 367.442 19.0325V11.1035C367.442 10.1133 367.702 9.35478 368.222 8.83507H361.81L361.1 6.50342H369.558L371.696 8.83507C371.373 9.05279 371.098 9.37585 370.866 9.80426C370.641 10.2397 370.529 10.7453 370.529 11.3282V20.6127V20.6268Z" fill="#EDE6D6"/>
<path d="M385.696 20.6268C385.696 21.315 385.576 21.919 385.337 22.4387C385.098 22.9584 384.859 23.3938 384.627 23.752C384.395 24.1102 384.268 24.4192 384.268 24.672C384.268 24.9108 384.416 25.1777 384.704 25.4797C385 25.7817 385.33 26.0767 385.71 26.3506C386.089 26.6315 386.406 26.8562 386.666 27.0318L386.146 27.7411C385.885 27.5866 385.485 27.3338 384.943 26.9616C384.402 26.5964 383.846 26.182 383.277 25.7185C382.707 25.255 382.215 24.7984 381.8 24.3419C381.392 23.8855 381.181 23.5132 381.181 23.2112C381.181 22.8882 381.301 22.537 381.54 22.1578C381.779 21.7785 382.018 21.3361 382.25 20.8304C382.482 20.3248 382.609 19.7278 382.609 19.0325V15.507C382.391 15.4859 382.166 15.4718 381.927 15.4578C381.688 15.4438 381.449 15.4438 381.217 15.4438C380.394 15.4438 379.62 15.7458 378.882 16.3497C378.151 16.9537 377.546 17.7403 377.082 18.7095C376.618 19.6787 376.386 20.7251 376.386 21.8488C376.386 22.6494 376.639 23.457 377.145 24.2787C377.652 25.1004 378.411 25.9081 379.431 26.7087L378.784 27.418C377.075 26.2101 375.718 24.96 374.698 23.6607C373.686 22.3685 373.173 21.1675 373.173 20.0719C373.173 18.7586 373.454 17.5647 374.016 16.4972C374.579 15.4297 375.31 14.5799 376.217 13.9408C377.124 13.3017 378.074 12.9857 379.065 12.9857C379.712 12.9857 380.331 13.0278 380.914 13.1121C381.498 13.1964 382.06 13.3298 382.602 13.4984V11.1035C382.602 10.1133 382.862 9.35478 383.382 8.83507H378.847C378.285 8.83507 377.736 9.04576 377.195 9.46714C376.653 9.88853 376.231 10.3169 375.929 10.7453H375.219L372.012 7.28299L372.336 6.50342H384.711L386.849 8.83507C386.525 9.05279 386.251 9.37585 386.026 9.80426C385.801 10.2397 385.689 10.7453 385.689 11.3282V20.6127L385.696 20.6268Z" fill="#EDE6D6"/>
<path d="M390.878 8.42775C390.491 8.06256 390.09 7.54286 389.675 6.87567C389.267 6.20848 389.057 5.56237 389.057 4.93732C389.057 4.13669 389.401 3.39927 390.09 2.71804C390.779 2.0368 391.693 1.49601 392.825 1.08165C393.957 0.674318 395.174 0.463623 396.468 0.463623C397.438 0.463623 398.507 0.751569 399.674 1.32044C400.841 1.8893 402.008 2.67588 403.19 3.66613C404.364 4.65638 405.454 5.78007 406.445 7.03017L405.798 7.54987C404.547 6.14526 403.323 5.06373 402.135 4.29822C400.947 3.53271 399.716 3.14643 398.444 3.14643C397.171 3.14643 396.13 3.32201 395.202 3.68019C394.274 4.03837 393.55 4.49486 393.029 5.0567C392.509 5.61854 392.249 6.18741 392.249 6.77033C392.249 7.3111 392.418 7.8308 392.748 8.34348C393.079 8.85616 393.444 9.26351 393.831 9.58657C393.507 9.80429 393.233 10.1274 393.008 10.5558C392.783 10.9842 392.671 11.4968 392.671 12.0797V20.6198C392.671 21.308 392.551 21.912 392.312 22.4317C392.073 22.9514 391.834 23.3869 391.602 23.745C391.363 24.1032 391.243 24.4122 391.243 24.6651C391.243 24.9038 391.391 25.1707 391.679 25.4727C391.975 25.7747 392.305 26.0697 392.685 26.3435C393.064 26.6245 393.381 26.8492 393.641 27.0248L393.121 27.7341C392.861 27.5796 392.46 27.3268 391.925 26.9546C391.384 26.5894 390.828 26.175 390.259 25.7115C389.689 25.248 389.197 24.7915 388.782 24.335C388.367 23.8785 388.164 23.5062 388.164 23.2042C388.164 22.8812 388.283 22.53 388.522 22.1508C388.761 21.7715 388.993 21.3291 389.232 20.8234C389.471 20.3178 389.591 19.7208 389.591 19.0255V11.5811C389.591 10.8507 389.696 10.2397 389.9 9.75512C390.104 9.27053 390.421 8.82105 390.857 8.41372L390.878 8.42775Z" fill="#EDE6D6"/>
<path d="M401.439 24.8054C401.439 25.4937 401.263 26.1609 400.919 26.814C400.574 27.4602 400.047 28.0009 399.329 28.4293L397.192 26.0977C397.515 25.8589 397.79 25.5358 398.015 25.1285C398.24 24.7212 398.352 24.2436 398.352 23.7028V9.01061C398.352 8.32235 398.528 7.64814 398.872 6.98797C399.217 6.32781 399.744 5.79406 400.462 5.38672L402.599 7.71837C402.276 7.93609 402.001 8.2451 401.776 8.65946C401.551 9.07382 401.439 9.55842 401.439 10.1132V24.8054Z" fill="#EDE6D6"/>
</svg>
