<svg width="377" height="34" viewBox="0 0 377 34" fill="none" xmlns="http://www.w3.org/2000/svg">
<path d="M12.1234 8.57476C11.8211 8.79247 11.5539 9.11554 11.3148 9.54394C11.0758 9.97235 10.9562 10.485 10.9562 11.0679V13.2661C10.9562 14.0246 10.8507 14.7621 10.6468 15.4854C10.4429 16.2088 10.0351 16.7987 9.4304 17.2482C10.1828 17.8943 10.8297 18.6318 11.357 19.4675C11.8844 20.2962 12.1516 21.1249 12.1516 21.9396C12.1516 22.6981 11.9687 23.4004 11.6031 24.0606C11.2375 24.7207 10.7101 25.2475 10.014 25.6478C9.3179 26.0481 8.48818 26.2447 7.51785 26.2447C6.54751 26.2447 5.61232 25.9919 4.64902 25.4863C3.68571 24.9806 2.81381 24.3064 2.02629 23.4636C1.23877 22.6208 0.605945 21.6868 0.127808 20.6474L0.999699 20.1277C1.75909 21.3146 2.47631 22.1854 3.17242 22.7473C3.8615 23.3091 4.60683 23.59 5.40841 23.59C6.16781 23.59 6.81471 23.3934 7.37019 22.9931C7.91864 22.5928 8.34756 22.0871 8.64991 21.4691C8.95226 20.851 9.09992 20.2119 9.09992 19.5448C9.09992 18.4913 8.74131 17.9575 8.03114 17.9575C7.44753 17.9575 6.88502 18.1331 6.3436 18.4773C5.80218 18.8214 5.37326 19.2428 5.04981 19.7414L1.8716 17.4449C2.13176 16.8409 2.60287 16.3352 3.27789 15.9209C3.95994 15.5135 4.68418 15.3028 5.46467 15.3028C5.78811 15.3028 6.14672 15.366 6.53345 15.4995C7.09596 15.1132 7.45456 14.6005 7.61629 13.9614C7.77801 13.3223 7.86239 12.7394 7.86239 12.1987V10.8362C7.86239 9.84593 8.12255 9.08745 8.64288 8.56774H6.3436C5.88655 8.56774 5.44357 8.73629 5.01466 9.06637C4.58574 9.40348 4.24822 9.75463 4.00915 10.1198H3.29898L0.416099 7.01564L0.739539 6.23608H9.97182L12.1094 8.56774L12.1234 8.57476Z" fill="#EDE6D6"/>
<path d="M21.9744 12.655L23.6901 14.9516L23.5635 15.3729H22.8534C22.2065 15.3729 21.5526 15.5626 20.8916 15.9418C20.2306 16.321 19.6822 16.8618 19.2392 17.5782C18.7962 18.2875 18.5783 19.1654 18.5783 20.1978C18.5783 20.584 18.6978 20.9282 18.9369 21.2161C19.1759 21.5041 19.5416 21.6515 20.0408 21.6515C20.54 21.6515 21.1307 21.5251 21.7565 21.2653C22.3823 21.0054 22.994 20.6472 23.5846 20.1978C24.1753 19.7483 24.6605 19.2286 25.0261 18.6457V10.8501C25.0261 9.85985 25.2862 9.10135 25.8066 8.58165H19.5205C18.958 8.58165 18.4095 8.79234 17.8681 9.21373C17.3267 9.63511 16.9048 10.0635 16.6024 10.4919H15.8922L12.6859 7.02956L13.0094 6.25H27.1355L29.2731 8.58165C28.9496 8.79936 28.6754 9.12242 28.4504 9.55083C28.2254 9.97923 28.1129 10.4919 28.1129 11.0748V20.3593C28.1129 21.0476 27.9933 21.6515 27.7543 22.1712C27.5152 22.6909 27.2761 23.1264 27.0441 23.4845C26.805 23.8427 26.6855 24.1447 26.6855 24.4046C26.6855 24.6433 26.8332 24.9102 27.1215 25.2122C27.4097 25.5142 27.7472 25.8092 28.1269 26.0831C28.5066 26.364 28.8231 26.5887 29.0832 26.7643L28.5629 27.4736C28.2816 27.2981 27.8527 27.0171 27.2691 26.6168C26.6855 26.2165 26.0949 25.767 25.4831 25.2754C24.8784 24.7768 24.3933 24.3062 24.0276 23.8498C23.6409 23.9762 23.2612 24.0464 22.8956 24.0464C22.551 24.0464 22.0799 23.9551 21.4893 23.7725C20.8916 23.5899 20.2517 23.33 19.5627 22.9929C18.8736 22.6558 18.2196 22.2485 17.6009 21.7639C16.9821 21.2793 16.4759 20.7315 16.0751 20.1135C15.6743 19.4955 15.4774 18.8353 15.4774 18.126C15.4774 17.5641 15.5688 17.0514 15.7516 16.5879C15.9344 16.1244 16.1876 15.7171 16.511 15.3729H14.5L12.7844 13.0764L12.9109 12.655H21.9815H21.9744Z" fill="#EDE6D6"/>
<path d="M28.7739 32.2002L27.8668 31.4908C27.241 30.9922 26.6152 30.6411 25.9894 30.4233C25.3636 30.2056 24.6746 30.1003 23.9152 30.1003C23.4581 30.1003 22.9519 30.1565 22.3894 30.2618C21.8268 30.3672 21.201 30.5287 20.5119 30.7464L18.958 28.0636C20.1885 27.6352 21.2924 27.4175 22.2628 27.4175C23.2331 27.4175 24.1753 27.7125 25.1457 28.3094C26.116 28.8993 27.241 29.7281 28.5137 30.7815L29.4208 31.526L28.7739 32.2072V32.2002Z" fill="#EDE6D6"/>
<path d="M38.8851 12.655L40.6008 14.9516L40.4742 15.3729H39.764C39.1171 15.3729 38.4632 15.5626 37.8022 15.9418C37.1413 16.321 36.5928 16.8618 36.1499 17.5782C35.7069 18.2875 35.4889 19.1654 35.4889 20.1978C35.4889 20.584 35.6084 20.9282 35.8475 21.2161C36.0866 21.5041 36.4522 21.6515 36.9514 21.6515C37.4507 21.6515 38.0413 21.5251 38.6671 21.2653C39.2929 21.0054 39.9046 20.6472 40.4953 20.1978C41.0859 19.7483 41.5711 19.2286 41.9367 18.6457V10.8501C41.9367 9.85985 42.1969 9.10135 42.7172 8.58165H36.4311C35.8686 8.58165 35.3201 8.79234 34.7787 9.21373C34.2373 9.63511 33.8154 10.0635 33.5131 10.4919H32.8029L29.5966 7.02956L29.92 6.25H44.0462L46.1837 8.58165C45.8603 8.79936 45.586 9.12242 45.354 9.55083C45.129 9.97923 45.0165 10.4919 45.0165 11.0748V20.3593C45.0165 21.0476 44.897 21.6515 44.6579 22.1712C44.4188 22.6909 44.1798 23.1264 43.9477 23.4845C43.7157 23.8427 43.5891 24.1447 43.5891 24.4046C43.5891 24.6433 43.7368 24.9102 44.0251 25.2122C44.3134 25.5142 44.6509 25.8092 45.0306 26.0831C45.4103 26.364 45.7267 26.5887 45.9868 26.7643L45.4665 27.4736C45.1853 27.2981 44.7563 27.0171 44.1727 26.6168C43.5891 26.2165 42.9985 25.767 42.3938 25.2754C41.7891 24.7768 41.3039 24.3062 40.9383 23.8498C40.5515 23.9762 40.1718 24.0464 39.8062 24.0464C39.4617 24.0464 38.9906 23.9551 38.3999 23.7725C37.8022 23.5899 37.1624 23.33 36.4733 22.9929C35.7842 22.6558 35.1303 22.2485 34.5115 21.7639C33.8928 21.2793 33.3865 20.7315 32.9857 20.1135C32.5849 19.4955 32.388 18.8353 32.388 18.126C32.388 17.5641 32.4794 17.0514 32.6623 16.5879C32.8451 16.1244 33.0982 15.7171 33.4217 15.3729H31.4107L29.695 13.0764L29.8216 12.655H38.8921H38.8851Z" fill="#EDE6D6"/>
<path d="M60.1693 20.3594C60.1693 21.0477 60.0497 21.6517 59.8107 22.1714C59.5716 22.6911 59.3325 23.1265 59.1005 23.4847C58.8684 23.8429 58.7419 24.1448 58.7419 24.4047C58.7419 24.6435 58.8896 24.9104 59.1778 25.2124C59.4732 25.5143 59.8036 25.8093 60.1833 26.0832C60.563 26.3641 60.8794 26.5889 61.1396 26.7644L60.6193 27.4738C60.3591 27.3193 59.9583 27.0664 59.4169 26.6942C58.8755 26.322 58.32 25.9147 57.7504 25.4511C57.1809 24.9876 56.6887 24.5311 56.2739 24.0746C55.866 23.6181 55.6551 23.2459 55.6551 22.9439C55.6551 22.6209 55.7746 22.2697 56.0137 21.8905C56.2528 21.5112 56.4918 21.0688 56.7239 20.5631C56.9629 20.0574 57.0825 19.4605 57.0825 18.7652V15.2396C56.8645 15.2186 56.6395 15.2045 56.4004 15.1905C56.1613 15.1764 55.9223 15.1764 55.6902 15.1764C54.8676 15.1764 54.0941 15.4784 53.3558 16.0824C52.6245 16.6864 52.0198 17.473 51.5557 18.4421C51.0917 19.4113 50.8596 20.4578 50.8596 21.5814C50.8596 22.3821 51.1128 23.1897 51.619 24.0114C52.1253 24.8331 52.8847 25.6408 53.9043 26.4414L53.2574 27.1507C51.5487 25.9427 50.1917 24.6927 49.1721 23.3934C48.1596 22.1011 47.6463 20.9002 47.6463 19.8046C47.6463 18.4913 47.9275 17.2974 48.49 16.2299C49.0526 15.1624 49.7838 14.3126 50.6909 13.6735C51.5979 13.0344 52.5472 12.7184 53.5386 12.7184C54.1855 12.7184 54.8043 12.7605 55.3879 12.8448C55.9715 12.929 56.534 13.0625 57.0754 13.231V10.8362C57.0754 9.84593 57.3356 9.08745 57.8559 8.56774H53.3206C52.7581 8.56774 52.2097 8.77843 51.6683 9.19981C51.1268 9.62119 50.705 10.0496 50.4026 10.478H49.6924L46.4861 7.01564L46.8095 6.23608H59.1849L61.3224 8.56774C60.999 8.78545 60.7247 9.10851 60.4997 9.53691C60.2747 9.96532 60.1622 10.478 60.1622 11.0609V20.3454L60.1693 20.3594Z" fill="#EDE6D6"/>
<path d="M73.0648 8.57469C72.7414 8.7924 72.4672 9.11546 72.2351 9.54387C72.0101 9.97228 71.8976 10.485 71.8976 11.0679V15.1131C71.8976 16.5599 71.6726 17.7327 71.2156 18.6247C70.7656 19.5166 70.1257 20.2189 69.303 20.7105C68.7616 21.0125 68.2835 21.1881 67.8616 21.2302C67.4397 21.2724 67.2287 21.3566 67.2287 21.4901C67.2287 21.7078 67.3975 22.0238 67.728 22.4452C68.0655 22.8666 68.4874 23.3371 69.0077 23.8709C69.528 24.3976 70.0695 24.9243 70.646 25.437C71.2226 25.9497 71.75 26.4202 72.2492 26.8276L71.6023 27.6071C71.0187 27.1717 70.3437 26.638 69.5772 25.9918C68.8108 25.3457 68.0374 24.6294 67.2639 23.8568C66.4834 23.0773 65.7592 22.2907 65.0912 21.4971C64.4232 20.6965 63.8818 19.931 63.474 19.2006C63.0661 18.4702 62.8552 17.817 62.8552 17.2622C62.8552 16.5318 62.9818 15.9278 63.2419 15.4643C63.5021 15.0008 63.8115 14.6496 64.1841 14.4108C64.5498 14.1721 64.8943 14.0527 65.2178 14.0527C65.5412 14.0527 65.9068 14.1931 66.3006 14.474C66.7014 14.755 67.067 15.0359 67.4045 15.3168C67.742 15.5977 67.96 15.7382 68.0725 15.7382C68.3116 15.7382 68.4944 15.5416 68.621 15.1412C68.7475 14.7409 68.8179 14.2072 68.8179 13.54V10.8572C68.8179 9.86693 69.078 9.10844 69.5983 8.58874H68.3045C67.7631 8.63087 67.2428 8.85561 66.7506 9.26997C66.2514 9.67731 65.8646 10.0917 65.5834 10.499H64.8732L61.6669 7.03664L61.9903 6.25708H70.9343L73.0719 8.58874L73.0648 8.57469Z" fill="#EDE6D6"/>
<path d="M74.5556 20.2261C74.5556 19.4676 74.7806 18.7091 75.2376 17.9436C75.6947 17.178 76.3205 16.5038 77.115 15.9209V10.8433C77.115 9.85301 77.3752 9.09453 77.8955 8.57482C77.3541 8.57482 76.9533 8.68017 76.6791 8.89789C76.4119 9.1156 76.1869 9.3614 76.0111 9.64233H75.3009L72.9384 7.02272L73.2618 6.24316H87.3528L89.4904 8.57482C89.1669 8.79253 88.8927 9.1156 88.6677 9.544C88.4427 9.97241 88.3302 10.4851 88.3302 11.068V20.3525C88.3302 21.0407 88.2106 21.6447 87.9716 22.1644C87.7325 22.6841 87.4934 23.1195 87.2614 23.4777C87.0223 23.8359 86.9028 24.1379 86.9028 24.3977C86.9028 24.6365 87.0505 24.9034 87.3387 25.2054C87.6341 25.5074 87.9645 25.8023 88.3442 26.0762C88.7239 26.3572 89.0404 26.5819 89.3005 26.7575L88.7802 27.4668C88.52 27.3123 88.1192 27.0595 87.5778 26.6873C87.0364 26.315 86.4809 25.9077 85.9114 25.4442C85.3418 24.9807 84.8496 24.5242 84.4348 24.0677C84.0269 23.6112 83.816 23.2389 83.816 22.9369C83.816 22.6139 83.9355 22.2627 84.1746 21.8835C84.4137 21.5042 84.6527 21.0618 84.8848 20.5561C85.1239 20.0505 85.2434 19.4535 85.2434 18.7582V16.7496C85.1168 16.7496 84.9832 16.7496 84.8567 16.7356C84.7231 16.7215 84.6105 16.7216 84.498 16.7216C83.809 16.7216 83.0918 16.7918 82.3464 16.9322C81.6011 17.0727 80.8839 17.3606 80.1948 17.7891V23.1617C80.1948 23.5901 80.0682 23.9834 79.8081 24.3416C79.5479 24.6997 79.2034 24.8753 78.7745 24.8753C78.451 24.8753 78.0572 24.7348 77.5932 24.4539C77.1291 24.173 76.665 23.8078 76.201 23.3513C75.7369 22.8948 75.3501 22.3962 75.0337 21.8484C74.7173 21.3006 74.5626 20.7528 74.5626 20.212L74.5556 20.2261ZM85.2434 10.8433C85.2434 9.85301 85.5035 9.09453 86.0239 8.57482H81.362C81.0386 8.79253 80.7644 9.1156 80.5323 9.544C80.3073 9.97241 80.1948 10.4851 80.1948 11.068V14.5655C80.4972 14.5023 80.8065 14.4461 81.1159 14.4039C81.4323 14.3618 81.7488 14.3407 82.0722 14.3407C82.6558 14.3407 83.2043 14.3759 83.7246 14.4531C84.2449 14.5304 84.7512 14.6427 85.2504 14.7902V10.8433H85.2434Z" fill="#EDE6D6"/>
<path d="M106.858 20.3593C106.858 21.0476 106.738 21.6515 106.499 22.1712C106.26 22.6909 106.021 23.1264 105.789 23.4845C105.557 23.8427 105.431 24.1447 105.431 24.4046C105.431 24.6433 105.578 24.9102 105.867 25.2122C106.155 25.5142 106.492 25.8092 106.872 26.0831C107.252 26.364 107.568 26.5887 107.828 26.7643L107.308 27.4736C107.069 27.3472 106.724 27.1225 106.274 26.8135C105.817 26.5045 105.332 26.1463 104.819 25.746C104.299 25.3457 103.827 24.9453 103.391 24.531C102.956 24.1236 102.66 23.7514 102.484 23.4284C102.288 23.4705 102.105 23.5126 101.936 23.5407C101.76 23.5758 101.591 23.5899 101.416 23.5899C100.916 23.5899 100.354 23.4424 99.7141 23.1334C99.0742 22.8314 98.4554 22.4381 97.8507 21.9535C97.246 21.4689 96.7468 20.9422 96.346 20.3874C95.9452 19.8256 95.7483 19.2848 95.7483 18.7721C95.7483 18.3648 95.8749 17.7959 96.1351 17.0725C96.3952 16.3491 96.5218 15.5274 96.5218 14.6004V10.8501C96.5218 10.506 96.557 10.1689 96.6202 9.8458L94.0256 7.02956L94.3491 6.25H105.881L108.018 8.58165C107.695 8.79936 107.421 9.12242 107.188 9.55083C106.963 9.97923 106.851 10.4919 106.851 11.0748V20.3593H106.858ZM103.778 10.8431C103.778 9.85282 104.038 9.09433 104.559 8.57463H100.769C100.445 8.79234 100.171 9.1154 99.9461 9.54381C99.7211 9.97222 99.6086 10.4849 99.6086 11.0678V16.2789C99.6086 16.925 99.5312 17.515 99.3836 18.0417C99.2359 18.5684 99.0812 19.0319 98.9265 19.4323C98.7789 19.8326 98.7015 20.1697 98.7015 20.4506C98.7015 20.9492 98.9055 21.195 99.3203 21.195C99.707 21.195 100.171 21.0967 100.713 20.9001C101.254 20.7034 101.802 20.4295 102.365 20.0784C102.927 19.7272 103.399 19.3199 103.792 18.8634V10.836L103.778 10.8431Z" fill="#EDE6D6"/>
<path d="M107.533 32.2002L106.626 31.4908C106 30.9922 105.374 30.6411 104.748 30.4233C104.123 30.2056 103.434 30.1003 102.674 30.1003C102.224 30.1003 101.711 30.1565 101.148 30.2618C100.586 30.3672 99.9601 30.5287 99.271 30.7464L97.717 28.0636C98.9475 27.6352 100.051 27.4175 101.022 27.4175C101.992 27.4175 102.934 27.7125 103.905 28.3094C104.875 28.8993 106 29.7281 107.273 30.7815L108.18 31.526L107.533 32.2072V32.2002Z" fill="#EDE6D6"/>
<path d="M119.747 8.57469C119.423 8.7924 119.149 9.11546 118.924 9.54387C118.699 9.97228 118.586 10.485 118.586 11.0679V15.1131C118.586 16.5599 118.361 17.7327 117.904 18.6247C117.447 19.5166 116.814 20.2189 115.992 20.7105C115.45 21.0125 114.972 21.1881 114.55 21.2302C114.128 21.2724 113.918 21.3566 113.918 21.4901C113.918 21.7078 114.086 22.0238 114.417 22.4452C114.747 22.8666 115.176 23.3371 115.696 23.8709C116.217 24.3976 116.758 24.9243 117.335 25.437C117.904 25.9567 118.439 26.4202 118.938 26.8276L118.291 27.6071C117.707 27.1717 117.032 26.638 116.266 25.9918C115.5 25.3457 114.726 24.6294 113.953 23.8568C113.172 23.0773 112.448 22.2907 111.78 21.4971C111.112 20.6965 110.571 19.931 110.163 19.2006C109.755 18.4702 109.544 17.817 109.544 17.2622C109.544 16.5318 109.671 15.9278 109.931 15.4643C110.191 15.0008 110.5 14.6496 110.873 14.4108C111.239 14.1721 111.583 14.0527 111.907 14.0527C112.23 14.0527 112.596 14.1931 112.989 14.474C113.39 14.755 113.756 15.0359 114.093 15.3168C114.431 15.5977 114.649 15.7382 114.754 15.7382C114.993 15.7382 115.176 15.5416 115.303 15.1412C115.429 14.7409 115.5 14.2072 115.5 13.54V10.8572C115.5 9.86693 115.76 9.10844 116.28 8.58874H114.986C114.445 8.63087 113.932 8.85561 113.432 9.26997C112.933 9.67731 112.546 10.0917 112.265 10.499H111.555L108.349 7.03664L108.672 6.25708H117.616L119.754 8.58874L119.747 8.57469Z" fill="#EDE6D6"/>
<path d="M125.351 20.3594C125.351 21.0477 125.231 21.6517 124.992 22.1714C124.753 22.6911 124.514 23.1265 124.282 23.4847C124.05 23.8429 123.923 24.1448 123.923 24.4047C123.923 24.6435 124.071 24.9104 124.359 25.2124C124.648 25.5143 124.985 25.8093 125.365 26.0832C125.744 26.3641 126.061 26.5889 126.321 26.7644L125.801 27.4738C125.541 27.3193 125.14 27.0664 124.598 26.6942C124.057 26.329 123.501 25.9147 122.932 25.4511C122.362 24.9876 121.87 24.5311 121.455 24.0746C121.04 23.6181 120.836 23.2459 120.836 22.9439C120.836 22.6209 120.956 22.2697 121.195 21.8905C121.434 21.5112 121.666 21.0688 121.905 20.5631C122.144 20.0574 122.264 19.4605 122.264 18.7652V10.8362C122.264 9.84593 122.524 9.08745 123.044 8.56774H116.632L115.922 6.23608H124.38L126.518 8.56774C126.194 8.78545 125.92 9.10851 125.688 9.53691C125.463 9.96532 125.351 10.478 125.351 11.0609V20.3454V20.3594Z" fill="#EDE6D6"/>
<path d="M139.674 20.3593C139.674 21.0476 139.554 21.6515 139.315 22.1712C139.076 22.6909 138.837 23.1264 138.605 23.4845C138.373 23.8427 138.246 24.1447 138.246 24.4046C138.246 24.6433 138.394 24.9102 138.682 25.2122C138.971 25.5142 139.308 25.8092 139.688 26.0831C140.067 26.364 140.384 26.5887 140.644 26.7643L140.124 27.4736C139.885 27.3472 139.54 27.1225 139.09 26.8135C138.633 26.5045 138.148 26.1463 137.635 25.746C137.114 25.3457 136.643 24.9453 136.207 24.531C135.771 24.1236 135.476 23.7514 135.3 23.4284C135.103 23.4705 134.92 23.5126 134.752 23.5407C134.576 23.5758 134.407 23.5899 134.231 23.5899C133.732 23.5899 133.17 23.4424 132.53 23.1334C131.89 22.8314 131.271 22.4381 130.666 21.9535C130.062 21.4689 129.562 20.9422 129.162 20.3874C128.761 19.8256 128.564 19.2848 128.564 18.7721C128.564 18.3648 128.691 17.7959 128.951 17.0725C129.211 16.3491 129.337 15.5274 129.337 14.6004V10.8501C129.337 10.506 129.373 10.1689 129.436 9.8458L126.841 7.02956L127.165 6.25H138.696L140.834 8.58165C140.51 8.79936 140.236 9.12242 140.004 9.55083C139.779 9.97923 139.667 10.4919 139.667 11.0748V20.3593H139.674ZM136.594 10.8431C136.594 9.85282 136.854 9.09433 137.374 8.57463H133.584C133.261 8.79234 132.987 9.1154 132.762 9.54381C132.537 9.97222 132.424 10.4849 132.424 11.0678V16.2789C132.424 16.925 132.347 17.515 132.199 18.0417C132.052 18.5684 131.897 19.0319 131.742 19.4323C131.595 19.8326 131.517 20.1697 131.517 20.4506C131.517 20.9492 131.721 21.195 132.136 21.195C132.523 21.195 132.987 21.0967 133.528 20.9001C134.07 20.7034 134.618 20.4295 135.181 20.0784C135.743 19.7272 136.214 19.3199 136.608 18.8634V10.836L136.594 10.8431Z" fill="#EDE6D6"/>
<path d="M140.356 32.2002L139.449 31.4908C138.823 30.9922 138.197 30.6411 137.571 30.4233C136.945 30.2056 136.256 30.1003 135.497 30.1003C135.047 30.1003 134.534 30.1565 133.971 30.2618C133.409 30.3672 132.783 30.5287 132.094 30.7464L130.54 28.0636C131.77 27.6352 132.874 27.4175 133.845 27.4175C134.815 27.4175 135.757 27.7125 136.727 28.3094C137.698 28.8993 138.823 29.7281 140.096 30.7815L141.003 31.526L140.356 32.2072V32.2002Z" fill="#EDE6D6"/>
<path d="M154.833 20.3594C154.833 21.0477 154.714 21.6517 154.475 22.1714C154.236 22.6911 153.997 23.1265 153.765 23.4847C153.533 23.8429 153.406 24.1448 153.406 24.4047C153.406 24.6435 153.554 24.9104 153.842 25.2124C154.137 25.5143 154.468 25.8093 154.848 26.0832C155.227 26.3641 155.544 26.5889 155.804 26.7644L155.283 27.4738C155.023 27.3193 154.622 27.0664 154.081 26.6942C153.54 26.322 152.984 25.9147 152.415 25.4511C151.845 24.9876 151.353 24.5311 150.938 24.0746C150.53 23.6181 150.319 23.2459 150.319 22.9439C150.319 22.6209 150.439 22.2697 150.678 21.8905C150.917 21.5112 151.156 21.0688 151.388 20.5631C151.627 20.0574 151.747 19.4605 151.747 18.7652V15.2396C151.529 15.2186 151.304 15.2045 151.065 15.1905C150.826 15.1764 150.586 15.1764 150.354 15.1764C149.532 15.1764 148.758 15.4784 148.02 16.0824C147.289 16.6864 146.684 17.473 146.22 18.4421C145.756 19.4113 145.524 20.4578 145.524 21.5814C145.524 22.3821 145.777 23.1897 146.283 24.0114C146.789 24.8331 147.549 25.6408 148.568 26.4414L147.922 27.1507C146.213 25.9427 144.856 24.6927 143.836 23.3934C142.824 22.1011 142.31 20.9002 142.31 19.8046C142.31 18.4913 142.592 17.2974 143.154 16.2299C143.717 15.1624 144.448 14.3126 145.355 13.6735C146.262 13.0344 147.211 12.7184 148.203 12.7184C148.85 12.7184 149.468 12.7605 150.052 12.8448C150.636 12.929 151.198 13.0625 151.74 13.231V10.8362C151.74 9.84593 152 9.08745 152.52 8.56774H147.985C147.422 8.56774 146.874 8.77843 146.332 9.19981C145.791 9.62119 145.369 10.0496 145.067 10.478H144.357L141.15 7.01564L141.474 6.23608H153.849L155.987 8.56774C155.663 8.78545 155.389 9.10851 155.164 9.53691C154.939 9.96532 154.826 10.478 154.826 11.0609V20.3454L154.833 20.3594Z" fill="#EDE6D6"/>
<path d="M160.016 8.16042C159.629 7.79522 159.228 7.27551 158.813 6.60832C158.405 5.94113 158.194 5.29502 158.194 4.66997C158.194 3.86934 158.539 3.13192 159.228 2.45068C159.917 1.76945 160.831 1.22867 161.963 0.81431C163.095 0.406973 164.312 0.196289 165.606 0.196289C166.576 0.196289 167.645 0.484224 168.812 1.05309C169.979 1.62196 171.146 2.40855 172.328 3.3988C173.502 4.38905 174.592 5.51273 175.583 6.76283L174.936 7.28254C173.685 5.87793 172.461 4.79638 171.273 4.03087C170.085 3.26535 168.854 2.87909 167.581 2.87909C166.309 2.87909 165.268 3.05466 164.34 3.41283C163.412 3.77101 162.688 4.22751 162.167 4.78936C161.647 5.3512 161.387 5.92007 161.387 6.50298C161.387 7.04376 161.556 7.56346 161.886 8.06912C162.224 8.57478 162.582 8.98914 162.969 9.3122C162.645 9.52991 162.371 9.85297 162.146 10.2814C161.921 10.7098 161.809 11.2225 161.809 11.8054V20.3454C161.809 21.0337 161.689 21.6376 161.45 22.1573C161.211 22.677 160.972 23.1125 160.74 23.4707C160.501 23.8288 160.381 24.1308 160.381 24.3907C160.381 24.6295 160.529 24.8963 160.817 25.1983C161.106 25.5003 161.443 25.7953 161.823 26.0692C162.202 26.3501 162.519 26.5748 162.779 26.7504L162.259 27.4597C161.999 27.3052 161.598 27.0524 161.063 26.6802C160.522 26.315 159.966 25.9006 159.397 25.4371C158.827 24.9736 158.335 24.5171 157.92 24.0606C157.505 23.6041 157.302 23.2319 157.302 22.9299C157.302 22.6068 157.421 22.2557 157.66 21.8764C157.899 21.4972 158.131 21.0547 158.37 20.5491C158.609 20.0434 158.729 19.4465 158.729 18.7512V11.3067C158.729 10.5763 158.834 9.96534 159.038 9.48075C159.242 8.99615 159.559 8.54669 159.995 8.13935L160.016 8.16042Z" fill="#EDE6D6"/>
<path d="M183.669 15.0851C183.023 14.9095 182.397 14.7901 181.792 14.7269C181.187 14.6637 180.569 14.6286 179.943 14.6286C174.564 14.6286 171.878 16.8479 171.878 21.2935C171.878 21.8132 172.025 22.0731 172.335 22.0731C172.532 22.0731 172.82 21.8975 173.207 21.5533C173.593 21.2092 174.043 20.7808 174.55 20.2752C175.056 19.7695 175.604 19.2568 176.188 18.7371C176.772 18.2174 177.362 17.789 177.974 17.4449C178.579 17.1007 179.148 16.9252 179.69 16.9252C180.189 16.9252 180.737 17.0867 181.342 17.4098C181.947 17.7328 182.53 18.1401 183.093 18.6247C183.655 19.1093 184.119 19.629 184.485 20.1768C184.851 20.7246 185.034 21.2303 185.034 21.6798C185.034 22.3048 184.858 22.9439 184.499 23.59C184.141 24.2362 183.662 24.8752 183.058 25.5003L180.175 23.4636C180.604 23.0352 181.026 22.4944 181.419 21.8483C181.813 21.2022 182.017 20.5771 182.017 19.9732C182.017 19.5658 181.82 19.3551 181.433 19.3551C181.047 19.3551 180.576 19.5939 180.027 20.0645C179.479 20.542 178.888 21.0968 178.262 21.75C177.636 22.3961 177.011 22.972 176.385 23.4636C177.032 24.1729 177.805 24.9104 178.698 25.6618C179.591 26.4203 180.428 27.0875 181.208 27.6704L180.498 28.5413C179.633 27.9373 178.705 27.249 177.714 26.4835C176.722 25.718 175.879 24.9806 175.19 24.2642C175.042 24.3274 174.88 24.3836 174.718 24.4258C174.557 24.4679 174.402 24.489 174.247 24.489C173.861 24.489 173.354 24.3485 172.743 24.0676C172.124 23.7867 171.519 23.4074 170.914 22.9369C170.31 22.4593 169.803 21.9256 169.389 21.3216C168.981 20.7176 168.77 20.1066 168.77 19.4745C168.77 16.9111 169.501 15.05 170.957 13.9123C172.412 12.7675 174.676 12.1987 177.742 12.1987C178.304 12.1987 178.86 12.2338 179.408 12.311C179.957 12.3883 180.533 12.4796 181.138 12.5849V10.8362C181.138 9.84593 181.398 9.08745 181.919 8.56774H174.339C173.797 8.60988 173.284 8.83462 172.785 9.24898C172.286 9.65631 171.899 10.0707 171.618 10.478H170.907L167.701 7.01564L168.024 6.23608H183.255L185.392 8.56774C185.069 8.78545 184.794 9.10851 184.569 9.53691C184.344 9.96532 184.232 10.478 184.232 11.0609V14.6216L183.683 15.0781L183.669 15.0851Z" fill="#EDE6D6"/>
<path d="M199.314 20.3594C199.314 21.0477 199.195 21.6517 198.956 22.1714C198.717 22.6911 198.478 23.1265 198.246 23.4847C198.007 23.8429 197.887 24.1448 197.887 24.4047C197.887 24.6435 198.035 24.9104 198.323 25.2124C198.611 25.5143 198.949 25.8093 199.328 26.0832C199.708 26.3641 200.025 26.5889 200.285 26.7644L199.764 27.4738C199.504 27.3193 199.103 27.0664 198.569 26.6942C198.028 26.329 197.472 25.9147 196.903 25.4511C196.333 24.9876 195.841 24.5311 195.426 24.0746C195.011 23.6181 194.807 23.2459 194.807 22.9439C194.807 22.6209 194.927 22.2697 195.166 21.8905C195.405 21.5112 195.644 21.0688 195.876 20.5631C196.115 20.0574 196.235 19.4605 196.235 18.7652V15.2396C196.017 15.2186 195.792 15.2045 195.553 15.1905C195.313 15.1764 195.074 15.1764 194.842 15.1764C194.02 15.1764 193.246 15.4784 192.508 16.0824C191.777 16.6864 191.172 17.473 190.708 18.4421C190.244 19.4113 190.012 20.4578 190.012 21.5814C190.012 22.3821 190.265 23.1897 190.771 24.0114C191.277 24.8331 192.037 25.6408 193.056 26.4414L192.41 27.1507C190.701 25.9427 189.344 24.6927 188.331 23.3934C187.312 22.1011 186.805 20.9002 186.805 19.8046C186.805 18.4913 187.087 17.2974 187.649 16.2299C188.212 15.1624 188.943 14.3126 189.85 13.6735C190.757 13.0344 191.706 12.7184 192.698 12.7184C193.345 12.7184 193.963 12.7605 194.547 12.8448C195.131 12.929 195.693 13.0625 196.235 13.231V10.8362C196.235 9.84593 196.495 9.08745 197.015 8.56774H192.48C191.917 8.56774 191.369 8.77843 190.827 9.19981C190.286 9.62119 189.864 10.0496 189.562 10.478H188.852L185.645 7.01564L185.969 6.23608H198.344L200.482 8.56774C200.158 8.78545 199.884 9.10851 199.659 9.53691C199.434 9.96532 199.321 10.478 199.321 11.0609V20.3454L199.314 20.3594Z" fill="#EDE6D6"/>
<path d="M188.465 28.7731C189.569 29.7001 190.616 30.4305 191.622 30.9573C192.627 31.484 193.52 31.7509 194.294 31.7509C194.962 31.7509 195.588 31.6736 196.171 31.5261C196.755 31.3716 197.233 31.182 197.599 30.9432C197.964 30.7044 198.147 30.4657 198.147 30.2339C198.147 29.7563 197.831 29.5246 197.205 29.5246C196.663 29.5246 195.988 29.5948 195.18 29.7353C194.371 29.8757 193.696 30.0302 193.155 30.2058L191.404 27.7758C191.966 27.5581 192.557 27.4177 193.169 27.3404C193.788 27.2631 194.392 27.228 194.997 27.228C195.475 27.228 196.059 27.3544 196.748 27.6143C197.437 27.8741 198.119 28.2253 198.787 28.6678C199.455 29.1102 200.01 29.5948 200.453 30.1215C200.896 30.6482 201.121 31.182 201.121 31.7228C201.121 32.0248 200.939 32.3478 200.573 32.692C200.207 33.0361 199.701 33.3311 199.068 33.5839C198.428 33.8297 197.725 33.9561 196.945 33.9561C195.974 33.9561 194.941 33.7595 193.851 33.3591C192.761 32.9588 191.685 32.4181 190.631 31.7439C189.576 31.0626 188.57 30.3041 187.614 29.4614L188.458 28.7801L188.465 28.7731Z" fill="#EDE6D6"/>
<path d="M202.268 20.2261C202.268 19.4676 202.493 18.7091 202.95 17.9436C203.4 17.178 204.033 16.5038 204.827 15.9209V10.8433C204.827 9.85301 205.087 9.09453 205.608 8.57482C205.066 8.57482 204.665 8.68017 204.391 8.89789C204.124 9.1156 203.899 9.3614 203.723 9.64233H203.013L200.65 7.02272L200.974 6.24316H215.065L217.202 8.57482C216.879 8.79253 216.605 9.1156 216.373 9.544C216.148 9.97241 216.035 10.4851 216.035 11.068V20.3525C216.035 21.0407 215.916 21.6447 215.677 22.1644C215.438 22.6841 215.198 23.1195 214.966 23.4777C214.734 23.8359 214.608 24.1379 214.608 24.3977C214.608 24.6365 214.755 24.9034 215.044 25.2054C215.339 25.5074 215.67 25.8023 216.049 26.0762C216.429 26.3572 216.745 26.5819 217.006 26.7575L216.485 27.4668C216.225 27.3123 215.824 27.0595 215.283 26.6873C214.741 26.315 214.186 25.9077 213.616 25.4442C213.047 24.9807 212.555 24.5242 212.14 24.0677C211.732 23.6112 211.521 23.2389 211.521 22.9369C211.521 22.6139 211.641 22.2627 211.88 21.8835C212.119 21.5042 212.358 21.0618 212.59 20.5561C212.829 20.0505 212.948 19.4535 212.948 18.7582V16.7496C212.822 16.7496 212.688 16.7496 212.562 16.7356C212.435 16.7215 212.316 16.7216 212.203 16.7216C211.514 16.7216 210.797 16.7918 210.051 16.9322C209.306 17.0727 208.589 17.3606 207.9 17.7891V23.1617C207.9 23.5901 207.773 23.9834 207.513 24.3416C207.253 24.6997 206.908 24.8753 206.479 24.8753C206.156 24.8753 205.762 24.7348 205.298 24.4539C204.834 24.173 204.37 23.8078 203.906 23.3513C203.442 22.8948 203.055 22.3962 202.739 21.8484C202.422 21.3006 202.268 20.7528 202.268 20.212V20.2261ZM212.955 10.8433C212.955 9.85301 213.216 9.09453 213.736 8.57482H209.067C208.744 8.79253 208.469 9.1156 208.244 9.544C208.019 9.97241 207.907 10.4851 207.907 11.068V14.5655C208.209 14.5023 208.519 14.4461 208.828 14.4039C209.137 14.3618 209.461 14.3407 209.784 14.3407C210.368 14.3407 210.916 14.3759 211.437 14.4531C211.957 14.5304 212.463 14.6427 212.962 14.7902V10.8433H212.955Z" fill="#EDE6D6"/>
<path d="M232.946 8.57477C232.643 8.79248 232.376 9.11555 232.137 9.54395C231.898 9.97236 231.778 10.485 231.778 11.068V13.526C231.778 13.6103 231.764 13.7016 231.75 13.7859C232.179 13.7227 232.601 13.6875 233.016 13.6875C233.747 13.6875 234.429 13.7437 235.055 13.8491C235.681 13.9544 236.3 14.13 236.904 14.3688V10.485C236.904 10.3586 236.911 10.2392 236.932 10.1269L234.085 7.02267L234.408 6.24311H246.397L248.534 8.57477C248.211 8.79248 247.937 9.11555 247.705 9.54395C247.48 9.97236 247.367 10.485 247.367 11.068V20.3524C247.367 21.0407 247.248 21.6447 247.009 22.1644C246.769 22.6841 246.53 23.1195 246.298 23.4777C246.066 23.8358 245.94 24.1378 245.94 24.3977C245.94 24.6365 246.087 24.9033 246.376 25.2053C246.671 25.5073 247.001 25.8023 247.381 26.0762C247.761 26.3571 248.077 26.5819 248.337 26.7574L247.817 27.4668C247.557 27.3123 247.156 27.0594 246.615 26.6872C246.073 26.315 245.518 25.9076 244.948 25.4441C244.379 24.9806 243.887 24.5241 243.472 24.0676C243.064 23.6111 242.853 23.2389 242.853 22.9369C242.853 22.6138 242.972 22.2627 243.212 21.8834C243.451 21.5042 243.69 21.0617 243.922 20.5561C244.161 20.0504 244.28 19.4535 244.28 18.7582V10.8292C244.28 9.83892 244.541 9.08043 245.061 8.56072H241.137C240.814 8.77844 240.54 9.1015 240.315 9.52991C240.09 9.95831 239.977 10.471 239.977 11.0539V20.3384C239.977 21.0266 239.858 21.6306 239.619 22.1503C239.379 22.67 239.14 23.1054 238.908 23.4636C238.676 23.8218 238.55 24.1238 238.55 24.3836C238.55 24.6224 238.697 24.8893 238.986 25.1913C239.281 25.4933 239.611 25.7882 239.991 26.0621C240.371 26.3431 240.687 26.5678 240.947 26.7434L240.427 27.4527C240.167 27.2982 239.766 27.0454 239.225 26.6732C238.683 26.3009 238.128 25.8936 237.558 25.4301C236.989 24.9666 236.497 24.5101 236.082 24.0536C235.674 23.5971 235.463 23.2248 235.463 22.9228C235.463 22.5998 235.582 22.2486 235.822 21.8694C236.061 21.4901 236.3 21.0477 236.532 20.542C236.771 20.0364 236.89 19.4394 236.89 18.7441V16.1526C236.412 16.0894 235.927 16.0543 235.435 16.0543C234.788 16.0543 234.078 16.1175 233.311 16.251C232.545 16.3774 231.694 16.6583 230.766 17.0937C231.546 17.7609 232.214 18.5264 232.777 19.3903C233.339 20.2541 233.621 21.0969 233.621 21.9115C233.621 22.67 233.438 23.3723 233.072 24.0325C232.707 24.6927 232.172 25.2194 231.483 25.6197C230.794 26.02 229.957 26.2167 228.987 26.2167C228.017 26.2167 227.081 25.9638 226.118 25.4582C225.155 24.9525 224.283 24.2783 223.495 23.4355C222.708 22.5928 222.075 21.6587 221.597 20.6193L222.469 20.0996C223.221 21.2865 223.945 22.1573 224.642 22.7192C225.331 23.281 226.076 23.5619 226.878 23.5619C227.637 23.5619 228.284 23.3653 228.839 22.965C229.388 22.5647 229.817 22.059 230.119 21.441C230.421 20.823 230.576 20.1839 230.576 19.5167C230.576 18.4632 230.217 17.9295 229.507 17.9295C228.924 17.9295 228.361 18.105 227.82 18.4492C227.278 18.7933 226.849 19.2147 226.526 19.7133L223.355 17.4168C223.615 16.8128 224.086 16.3071 224.761 15.8928C225.443 15.4854 226.167 15.2748 226.948 15.2748C227.053 15.2748 227.159 15.2748 227.257 15.2888C227.356 15.3028 227.454 15.3169 227.567 15.338C228.066 14.9517 228.375 14.446 228.509 13.835C228.635 13.217 228.706 12.6622 228.706 12.1706V10.8081C228.706 9.81784 228.966 9.05936 229.486 8.53965H227.834C227.384 8.53965 226.941 8.70821 226.505 9.03829C226.069 9.3754 225.738 9.72655 225.499 10.0918H224.789L221.906 6.98757L222.23 6.20801H230.815L232.953 8.53965L232.946 8.57477Z" fill="#EDE6D6"/>
<path d="M267.709 24.3344C267.709 24.5732 267.829 24.826 268.068 25.0929C268.307 25.3598 268.588 25.6196 268.926 25.8725C269.263 26.1183 269.558 26.329 269.819 26.5045L269.298 27.2139C269.038 27.0593 268.658 26.8065 268.145 26.4343C267.639 26.0691 267.111 25.6547 266.556 25.2053C266.001 24.7558 265.543 24.3063 265.164 23.8639C264.784 23.4214 264.594 23.0492 264.594 22.7472C264.594 22.5716 264.693 22.2696 264.904 21.8412C265.107 21.4128 265.354 20.8791 265.635 20.254C265.916 19.629 266.155 18.9337 266.366 18.1682C266.577 17.4027 266.676 16.602 266.676 15.7593C266.676 15.5205 266.598 15.3168 266.45 15.1413C266.296 14.9657 266.106 14.8814 265.867 14.8814C265.22 14.8814 264.503 15.2115 263.729 15.8716C262.956 16.5318 262.281 17.3043 261.718 18.1822V20.3523C261.718 21.0406 261.627 21.6446 261.444 22.1643C261.261 22.684 261.079 23.1194 260.896 23.4776C260.713 23.8358 260.621 24.1378 260.621 24.3976C260.621 24.6364 260.748 24.9033 260.994 25.2053C261.24 25.5073 261.536 25.8022 261.866 26.0761C262.204 26.357 262.478 26.5818 262.689 26.7574L262.168 27.4667C261.908 27.2911 261.514 27.0102 260.987 26.6239C260.46 26.2377 259.911 25.7952 259.349 25.3106C258.786 24.826 258.336 24.3695 257.985 23.9341C257.619 24.0816 257.218 24.1588 256.789 24.1588C256.487 24.1588 256.058 24.0746 255.51 23.899C254.961 23.7234 254.37 23.4776 253.745 23.1545C253.119 22.8315 252.521 22.4452 251.945 21.9887C251.368 21.5322 250.911 21.0195 250.552 20.4366C250.194 19.8537 250.018 19.2287 250.018 18.5615C250.018 17.2482 250.257 16.1455 250.728 15.2606C251.206 14.3757 251.832 13.7085 252.606 13.252C253.379 12.7956 254.237 12.5708 255.165 12.5708C255.875 12.5708 256.529 12.634 257.127 12.7675C257.717 12.8939 258.224 13.0484 258.632 13.224V10.8291C258.632 9.83885 258.892 9.08035 259.412 8.56065H255.559C255.017 8.58172 254.49 8.79943 253.97 9.20677C253.449 9.6141 253.049 10.0355 252.767 10.4709H252.057L248.851 7.00856L249.174 6.229H268.616L270.754 8.56065L268.904 10.4709H268.194C267.737 9.99335 267.273 9.55793 266.788 9.15761C266.303 8.7573 265.768 8.56065 265.185 8.56065H262.886C262.562 8.77836 262.288 9.10143 262.063 9.52983C261.838 9.95824 261.725 10.4709 261.725 11.0538V13.1888C262.049 12.9711 262.386 12.8026 262.731 12.6691C263.075 12.5427 263.399 12.4725 263.701 12.4725C264.348 12.4725 265.023 12.6481 265.726 12.9922C266.429 13.3363 267.083 13.7718 267.688 14.3055C268.293 14.8322 268.792 15.3871 269.179 15.97C269.565 16.5529 269.762 17.0726 269.762 17.5221C269.762 18.3438 269.657 19.1374 269.453 19.9029C269.249 20.6684 269.01 21.3637 268.743 21.9887C268.476 22.6138 268.236 23.1335 268.033 23.5408C267.829 23.9481 267.723 24.208 267.723 24.3204L267.709 24.3344ZM253.942 21.778C254.413 21.778 254.954 21.6516 255.559 21.3918C256.164 21.1319 256.74 20.7737 257.289 20.3102C257.837 19.8467 258.287 19.32 258.632 18.7441V15.057C258.435 15.0359 258.259 15.0219 258.097 15.0078C257.935 14.9938 257.781 14.9938 257.626 14.9938C256.916 14.9938 256.213 15.1974 255.517 15.6118C254.828 16.0191 254.251 16.6442 253.801 17.4729C253.351 18.3016 253.119 19.3691 253.119 20.6614C253.119 20.9634 253.182 21.2302 253.316 21.455C253.442 21.6797 253.653 21.7921 253.935 21.7921L253.942 21.778Z" fill="#EDE6D6"/>
<path d="M290.449 8.57465C290.125 8.79236 289.851 9.11543 289.626 9.54383C289.401 9.97224 289.289 10.4849 289.289 11.0678V20.3523C289.289 21.0406 289.169 21.6445 288.93 22.1642C288.691 22.684 288.452 23.1194 288.22 23.4776C287.988 23.8357 287.861 24.1377 287.861 24.3976C287.861 24.6364 288.009 24.9032 288.297 25.2052C288.592 25.5072 288.923 25.8022 289.303 26.0761C289.682 26.357 289.999 26.5817 290.259 26.7573L289.739 27.4666C289.478 27.3121 289.078 27.0593 288.536 26.6871C287.995 26.3149 287.439 25.9075 286.87 25.444C286.3 24.9805 285.808 24.524 285.393 24.0675C284.985 23.611 284.774 23.2388 284.774 22.9368C284.774 22.6137 284.894 22.2626 285.133 21.8833C285.372 21.5041 285.611 21.0616 285.843 20.556C286.082 20.0503 286.202 19.4533 286.202 18.7581V16.5247C285.745 16.5247 285.246 16.5669 284.697 16.6511C284.149 16.7354 283.537 16.897 282.869 17.1357C282.995 17.5431 283.066 17.9434 283.066 18.3367C283.066 19.2426 282.876 20.0995 282.496 20.9071C282.117 21.7148 281.568 22.3679 280.844 22.8665C280.12 23.3652 279.241 23.611 278.207 23.611C277.258 23.611 276.287 23.3301 275.31 22.7682C274.326 22.2064 273.426 21.4549 272.603 20.5208C271.78 19.5798 271.126 18.5333 270.627 17.3675L271.499 16.8478C272.301 18.2735 273.067 19.3129 273.798 19.973C274.53 20.6332 275.296 20.9633 276.098 20.9633C276.899 20.9633 277.623 20.7175 278.207 20.2329C278.791 19.7483 279.241 19.1162 279.55 18.3367C279.859 17.5571 280.021 16.7635 280.021 15.9418C280.021 14.8884 279.775 14.3546 279.276 14.3546C278.692 14.3546 278.13 14.6285 277.588 15.1763C277.047 15.7241 276.618 16.3702 276.294 17.1006L273.116 14.8041C273.398 13.9192 273.869 13.1818 274.544 12.5848C275.212 11.9949 275.936 11.6929 276.716 11.6929C277.363 11.6929 278.123 11.9598 278.988 12.4865C279.852 13.0132 280.626 13.6874 281.322 14.5091C282.102 14.2493 282.932 14.1228 283.818 14.1228C284.247 14.1228 284.669 14.1369 285.063 14.172C285.464 14.2071 285.843 14.2774 286.216 14.3827V10.822C286.216 9.83177 286.476 9.07329 286.996 8.55358H277.279C276.716 8.55358 276.168 8.76427 275.627 9.18565C275.085 9.60703 274.663 10.0354 274.361 10.4638H273.651L270.444 7.00148L270.768 6.22192H288.325L290.463 8.55358L290.449 8.57465Z" fill="#EDE6D6"/>
<path d="M289.964 32.2002L289.057 31.4908C288.431 30.9922 287.805 30.6411 287.179 30.4233C286.553 30.2056 285.864 30.1003 285.105 30.1003C284.655 30.1003 284.142 30.1565 283.579 30.2618C283.017 30.3672 282.391 30.5287 281.702 30.7464L280.148 28.0636C281.378 27.6352 282.482 27.4175 283.453 27.4175C284.423 27.4175 285.365 27.7125 286.335 28.3094C287.306 28.8993 288.431 29.7281 289.704 30.7815L290.611 31.526L289.964 32.2072V32.2002Z" fill="#EDE6D6"/>
<path d="M300.075 12.655L301.791 14.9516L301.664 15.3729H300.954C300.307 15.3729 299.653 15.5626 298.992 15.9418C298.331 16.321 297.783 16.8618 297.34 17.5782C296.897 18.2875 296.672 19.1654 296.672 20.1978C296.672 20.584 296.791 20.9282 297.03 21.2161C297.269 21.5041 297.635 21.6515 298.134 21.6515C298.633 21.6515 299.224 21.5251 299.85 21.2653C300.476 21.0054 301.087 20.6472 301.678 20.1978C302.269 19.7413 302.754 19.2286 303.119 18.6457V10.8501C303.119 9.85985 303.38 9.10135 303.9 8.58165H297.614C297.051 8.58165 296.503 8.79234 295.961 9.21373C295.42 9.63511 294.998 10.0635 294.696 10.4919H293.986L290.779 7.02956L291.103 6.25H305.229L307.366 8.58165C307.043 8.79936 306.769 9.12242 306.544 9.55083C306.319 9.97923 306.206 10.4919 306.206 11.0748V20.3593C306.206 21.0476 306.087 21.6515 305.848 22.1712C305.609 22.6909 305.37 23.1264 305.137 23.4845C304.898 23.8427 304.779 24.1447 304.779 24.4046C304.779 24.6433 304.927 24.9102 305.215 25.2122C305.503 25.5142 305.841 25.8092 306.22 26.0831C306.6 26.364 306.916 26.5887 307.177 26.7643L306.656 27.4736C306.375 27.2981 305.946 27.0171 305.362 26.6168C304.779 26.2165 304.188 25.767 303.584 25.2754C302.979 24.7768 302.494 24.3062 302.128 23.8498C301.741 23.9762 301.362 24.0464 300.996 24.0464C300.651 24.0464 300.18 23.9551 299.59 23.7725C298.999 23.5899 298.352 23.33 297.663 22.9929C296.974 22.6558 296.32 22.2485 295.701 21.7639C295.083 21.2793 294.576 20.7315 294.175 20.1135C293.775 19.4955 293.578 18.8353 293.578 18.126C293.578 17.5641 293.669 17.0514 293.852 16.5879C294.035 16.1244 294.288 15.7171 294.611 15.3729H292.6L290.885 13.0764L291.011 12.655H300.082H300.075Z" fill="#EDE6D6"/>
<path d="M311.381 8.16042C310.995 7.79522 310.594 7.27551 310.179 6.60832C309.771 5.94113 309.56 5.29502 309.56 4.66997C309.56 3.86934 309.905 3.13192 310.594 2.45068C311.283 1.76945 312.197 1.22867 313.329 0.81431C314.461 0.406973 315.678 0.196289 316.971 0.196289C317.942 0.196289 319.01 0.484224 320.178 1.05309C321.345 1.62196 322.512 2.40855 323.693 3.3988C324.868 4.38905 325.958 5.51273 326.949 6.76283L326.302 7.28254C325.05 5.87793 323.827 4.79638 322.639 4.03087C321.45 3.26535 320.22 2.87909 318.947 2.87909C317.675 2.87909 316.634 3.05466 315.706 3.41283C314.778 3.77101 314.053 4.22751 313.533 4.78936C313.013 5.3512 312.753 5.92007 312.753 6.50298C312.753 7.04376 312.921 7.56346 313.252 8.06912C313.589 8.57478 313.948 8.98914 314.335 9.3122C314.011 9.52991 313.737 9.85297 313.512 10.2814C313.287 10.7098 313.174 11.2225 313.174 11.8054V20.3454C313.174 21.0337 313.055 21.6376 312.816 22.1573C312.577 22.677 312.338 23.1125 312.106 23.4707C311.867 23.8288 311.747 24.1308 311.747 24.3907C311.747 24.6295 311.895 24.8963 312.183 25.1983C312.471 25.5003 312.809 25.7953 313.188 26.0692C313.568 26.3501 313.885 26.5748 314.145 26.7504L313.624 27.4597C313.364 27.3052 312.963 27.0524 312.429 26.6802C311.888 26.315 311.332 25.9006 310.763 25.4371C310.193 24.9736 309.701 24.5171 309.286 24.0606C308.878 23.6041 308.667 23.2319 308.667 22.9299C308.667 22.6068 308.787 22.2557 309.026 21.8764C309.265 21.4972 309.497 21.0547 309.736 20.5491C309.975 20.0434 310.095 19.4465 310.095 18.7512V11.3067C310.095 10.5763 310.2 9.96534 310.404 9.48075C310.608 8.99615 310.931 8.54669 311.36 8.13935L311.381 8.16042Z" fill="#EDE6D6"/>
<path d="M328.355 20.3594C328.355 21.0477 328.236 21.6517 327.997 22.1714C327.758 22.6911 327.519 23.1265 327.287 23.4847C327.054 23.8429 326.928 24.1448 326.928 24.4047C326.928 24.6435 327.076 24.9104 327.364 25.2124C327.659 25.5143 327.99 25.8093 328.369 26.0832C328.749 26.3641 329.065 26.5889 329.326 26.7644L328.805 27.4738C328.545 27.3193 328.144 27.0664 327.603 26.6942C327.062 26.322 326.506 25.9147 325.936 25.4511C325.367 24.9876 324.875 24.5311 324.46 24.0746C324.052 23.6181 323.841 23.2459 323.841 22.9439C323.841 22.6209 323.961 22.2697 324.2 21.8905C324.439 21.5112 324.678 21.0688 324.91 20.5631C325.149 20.0574 325.269 19.4605 325.269 18.7652V15.2396C325.051 15.2186 324.825 15.2045 324.586 15.1905C324.347 15.1764 324.108 15.1764 323.876 15.1764C323.054 15.1764 322.28 15.4784 321.542 16.0824C320.811 16.6864 320.206 17.473 319.742 18.4421C319.278 19.4113 319.046 20.4578 319.046 21.5814C319.046 22.3821 319.299 23.1897 319.805 24.0114C320.311 24.8331 321.071 25.6408 322.09 26.4414L321.443 27.1507C319.735 25.9427 318.378 24.6927 317.358 23.3934C316.346 22.1011 315.832 20.9002 315.832 19.8046C315.832 18.4913 316.114 17.2974 316.676 16.2299C317.239 15.1624 317.97 14.3126 318.877 13.6735C319.784 13.0344 320.733 12.7184 321.725 12.7184C322.372 12.7184 322.99 12.7605 323.574 12.8448C324.158 12.929 324.72 13.0625 325.261 13.231V10.8362C325.261 9.84593 325.522 9.08745 326.042 8.56774H321.507C320.944 8.56774 320.396 8.77843 319.854 9.19981C319.313 9.62119 318.891 10.0496 318.589 10.478H317.878L314.672 7.01564L314.996 6.23608H327.371L329.508 8.56774C329.185 8.78545 328.911 9.10851 328.686 9.53691C328.461 9.96532 328.348 10.478 328.348 11.0609V20.3454L328.355 20.3594Z" fill="#EDE6D6"/>
<path d="M340.604 10.8433C340.604 9.85301 340.864 9.09453 341.385 8.57482H336.554C336.013 8.59589 335.485 8.8136 334.965 9.22094C334.444 9.62828 334.044 10.0497 333.762 10.4851H333.052L329.846 7.02272L330.169 6.24316H342.706L344.844 8.57482C344.521 8.79253 344.246 9.1156 344.021 9.544C343.796 9.97241 343.684 10.4851 343.684 11.068V20.3525C343.684 21.0407 343.564 21.6447 343.325 22.1644C343.086 22.6841 342.847 23.1195 342.615 23.4777C342.376 23.8359 342.256 24.1379 342.256 24.3977C342.256 24.6365 342.404 24.9034 342.692 25.2054C342.981 25.5074 343.318 25.8023 343.698 26.0762C344.078 26.3572 344.394 26.5819 344.654 26.7575L344.134 27.4668C343.874 27.2912 343.459 27.0103 342.889 26.624C342.32 26.2378 341.729 25.7953 341.124 25.3107C340.52 24.8261 340.034 24.3696 339.669 23.9342C339.366 24.0396 339.05 24.1309 338.727 24.2081C338.403 24.2854 338.087 24.3205 337.784 24.3205C337.482 24.3205 337.053 24.2362 336.505 24.0606C335.956 23.8851 335.366 23.6322 334.74 23.3021C334.114 22.965 333.516 22.5647 332.94 22.0872C332.37 21.6096 331.906 21.0758 331.548 20.4859C331.189 19.896 331.013 19.2499 331.013 18.5616C331.013 17.2272 331.266 16.1035 331.773 15.1975C332.279 14.2916 332.947 13.6033 333.784 13.1258C334.613 12.6482 335.513 12.4164 336.491 12.4164C337.334 12.4164 338.108 12.4796 338.825 12.6131C339.535 12.7395 340.133 12.894 340.611 13.0696V10.8362L340.604 10.8433ZM335.253 21.9397C335.795 21.9397 336.406 21.8133 337.081 21.5534C337.763 21.2936 338.417 20.9354 339.057 20.4719C339.697 20.0083 340.21 19.4816 340.597 18.9057V14.9588C340.274 14.9166 339.978 14.8815 339.704 14.8604C339.437 14.8394 339.177 14.8253 338.945 14.8253C338.122 14.8253 337.341 15.0501 336.596 15.5066C335.851 15.9631 335.253 16.6162 334.796 17.48C334.346 18.3439 334.114 19.3973 334.114 20.6545C334.114 20.9986 334.205 21.3006 334.388 21.5604C334.571 21.8203 334.859 21.9467 335.246 21.9467L335.253 21.9397Z" fill="#EDE6D6"/>
<path d="M350.743 20.3594C350.743 21.0477 350.624 21.6517 350.385 22.1714C350.146 22.6911 349.907 23.1265 349.675 23.4847C349.443 23.8429 349.316 24.1448 349.316 24.4047C349.316 24.6435 349.464 24.9104 349.752 25.2124C350.04 25.5143 350.378 25.8093 350.757 26.0832C351.137 26.3641 351.454 26.5889 351.714 26.7644L351.193 27.4738C350.933 27.3193 350.532 27.0664 349.991 26.6942C349.45 26.329 348.894 25.9147 348.325 25.4511C347.755 24.9876 347.263 24.5311 346.848 24.0746C346.433 23.6181 346.229 23.2459 346.229 22.9439C346.229 22.6209 346.349 22.2697 346.588 21.8905C346.827 21.5112 347.059 21.0688 347.298 20.5631C347.537 20.0574 347.657 19.4605 347.657 18.7652V10.8362C347.657 9.84593 347.917 9.08745 348.437 8.56774H342.024L341.314 6.23608H349.773L351.911 8.56774C351.587 8.78545 351.313 9.10851 351.081 9.53691C350.856 9.96532 350.743 10.478 350.743 11.0609V20.3454V20.3594Z" fill="#EDE6D6"/>
<path d="M366.613 20.3593C366.613 21.0476 366.494 21.6515 366.255 22.1712C366.016 22.6909 365.777 23.1264 365.545 23.4845C365.313 23.8427 365.186 24.1447 365.186 24.4046C365.186 24.6433 365.334 24.9102 365.622 25.2122C365.917 25.5142 366.248 25.8092 366.627 26.0831C367.007 26.364 367.324 26.5887 367.584 26.7643L367.063 27.4736C366.803 27.3191 366.402 27.0663 365.861 26.6941C365.32 26.3219 364.764 25.9145 364.195 25.451C363.625 24.9875 363.133 24.531 362.718 24.0745C362.31 23.618 362.099 23.2458 362.099 22.9438C362.099 22.6207 362.219 22.2696 362.458 21.8903C362.697 21.5111 362.936 21.0686 363.168 20.563C363.407 20.0573 363.527 19.4603 363.527 18.7651V15.401C362.943 15.3378 362.38 15.3027 361.839 15.3027C361.382 15.3027 360.883 15.4291 360.334 15.689C359.786 15.9488 359.322 16.3913 358.956 17.0163C358.998 17.5571 359.041 18.1611 359.069 18.8283C359.104 19.4955 359.125 20.1416 359.153 20.7666C359.174 21.3917 359.188 21.9184 359.188 22.3538C359.188 22.8103 359.062 23.2036 358.801 23.5478C358.541 23.8919 358.197 24.0675 357.768 24.0675C357.423 24.0675 356.994 23.9551 356.488 23.7304C355.982 23.5056 355.476 23.2106 354.983 22.8595C354.484 22.5013 354.069 22.108 353.739 21.6656C353.401 21.2231 353.24 20.7947 353.24 20.3874C353.24 19.4814 353.408 18.5895 353.739 17.7046C354.076 16.8197 354.54 16.0191 355.145 15.2957C355.75 14.5723 356.453 13.9894 357.255 13.5469C358.056 13.1045 358.907 12.8868 359.814 12.8868C360.503 12.8868 361.15 12.943 361.741 13.0483C362.338 13.1536 362.936 13.3152 363.541 13.5329V10.8501C363.541 9.85985 363.801 9.10135 364.321 8.58165H358.879C358.337 8.62378 357.824 8.84852 357.325 9.26288C356.826 9.67022 356.439 10.0846 356.158 10.4919H355.447L352.241 7.02956L352.565 6.25H365.657L367.795 8.58165C367.471 8.79936 367.197 9.12242 366.972 9.55083C366.747 9.97923 366.634 10.4919 366.634 11.0748V20.3593H366.613Z" fill="#EDE6D6"/>
<path d="M375.36 24.531C375.36 25.2193 375.185 25.8935 374.84 26.5396C374.496 27.1857 373.968 27.7265 373.251 28.1549L371.114 25.8233C371.437 25.5845 371.711 25.2614 371.936 24.8541C372.161 24.4467 372.274 23.9692 372.274 23.4284V8.73619C372.274 8.04793 372.449 7.37372 372.794 6.71356C373.139 6.05339 373.666 5.51964 374.383 5.1123L376.521 7.44395C376.197 7.66166 375.923 7.97068 375.698 8.38504C375.473 8.79237 375.36 9.28399 375.36 9.83881V24.531Z" fill="#EDE6D6"/>
</svg>
