<svg width="403" height="36" viewBox="0 0 403 36" fill="none" xmlns="http://www.w3.org/2000/svg">
<path d="M10.0957 15.8017L11.8113 18.0983L11.6848 18.5197H10.9746C10.3277 18.5197 9.67377 18.7093 9.01282 19.0885C8.35186 19.4678 7.80342 20.0085 7.36043 20.7249C6.91745 21.4342 6.69948 22.3121 6.69948 23.3445C6.69948 23.7308 6.81901 24.0749 7.05808 24.3628C7.29715 24.6508 7.66279 24.7983 8.16202 24.7983C8.66125 24.7983 9.25189 24.6719 9.87769 24.412C10.5035 24.1521 11.1152 23.794 11.7059 23.3445C12.2965 22.895 12.7817 22.3753 13.1473 21.7924V13.9968C13.1473 13.0066 13.4075 12.2481 13.9278 11.7284H7.64169C7.07917 11.7284 6.53072 11.9391 5.9893 12.3605C5.44788 12.7818 5.026 13.2102 4.72365 13.6386H4.01346L0.807129 10.1763L1.13058 9.39673H15.2567L17.3943 11.7284C17.0708 11.9461 16.7966 12.2692 16.5646 12.6976C16.3396 13.126 16.2271 13.6386 16.2271 14.2216V23.506C16.2271 24.1943 16.1075 24.7983 15.8685 25.318C15.6294 25.8377 15.3903 26.2731 15.1583 26.6313C14.9263 26.9895 14.7997 27.2914 14.7997 27.5513C14.7997 27.7901 14.9474 28.057 15.2356 28.359C15.5239 28.6609 15.8614 28.9559 16.2411 29.2298C16.6208 29.5107 16.9372 29.7355 17.1974 29.911L16.6771 30.6204C16.3958 30.4448 15.9669 30.1639 15.3833 29.7636C14.7997 29.3632 14.209 28.9138 13.6043 28.4222C12.9996 27.9235 12.5145 27.453 12.1488 26.9965C11.7621 27.1229 11.3824 27.1931 11.0168 27.1931C10.6722 27.1931 10.2011 27.1018 9.61049 26.9192C9.01282 26.7366 8.37296 26.4768 7.68387 26.1397C6.99479 25.8026 6.34087 25.3952 5.72211 24.9106C5.10334 24.426 4.59708 23.8782 4.19629 23.2602C3.7955 22.6422 3.59861 21.982 3.59861 21.2727C3.59861 20.7109 3.69002 20.1982 3.87284 19.7347C4.05565 19.2711 4.30879 18.8638 4.63223 18.5197H2.62124L0.905569 16.2231L1.03214 15.8017H10.1027H10.0957Z" fill="#B2462D"/>
<path d="M4.81503 1.10944C5.87678 0.891722 6.86822 0.786377 7.79637 0.786377C9.22375 0.786377 10.4332 1.10241 11.4386 1.74151C12.4441 2.38061 13.295 3.21635 13.9981 4.26278C14.7012 5.30922 15.32 6.48206 15.8614 7.7743C16.4028 9.06655 16.9091 10.3869 17.3872 11.7213L15.6083 10.3307C14.7856 9.12274 13.984 8.30806 13.1965 7.88668C12.409 7.46529 11.4316 7.2546 10.2644 7.2546C9.72298 7.2546 9.12531 7.28972 8.46435 7.35292C7.8034 7.41613 7.07916 7.5285 6.27757 7.67598L4.72363 5.24601C5.39162 5.07043 6.01742 4.95807 6.60103 4.90891C7.18463 4.85272 7.74715 4.82463 8.28857 4.82463C9.97611 4.82463 11.3965 5.23899 12.5496 6.06771C13.7028 6.89643 14.8137 8.0763 15.8685 9.61434C15.3059 8.27997 14.7294 7.13521 14.1317 6.1871C13.541 5.23899 12.8449 4.50859 12.0434 4.00293C11.2418 3.49727 10.2433 3.24444 9.02687 3.24444C8.22529 3.24444 7.29011 3.34276 6.20727 3.53941L4.81503 1.10944Z" fill="#B2462D"/>
<path d="M31.3798 23.4988C31.3798 24.1871 31.2603 24.7911 31.0212 25.3108C30.7822 25.8305 30.5431 26.2659 30.3111 26.6241C30.079 26.9823 29.9524 27.2842 29.9524 27.5441C29.9524 27.7829 30.1001 28.0498 30.3884 28.3518C30.6837 28.6537 31.0142 28.9487 31.3939 29.2226C31.7736 29.5035 32.09 29.7283 32.3502 29.9038L31.8298 30.6132C31.5697 30.4587 31.1689 30.2058 30.6275 29.8336C30.086 29.4614 29.5306 29.0541 28.961 28.5905C28.3915 28.127 27.8993 27.6705 27.4844 27.214C27.0766 26.7575 26.8656 26.3853 26.8656 26.0833C26.8656 25.7603 26.9852 25.4091 27.2243 25.0299C27.4633 24.6506 27.7024 24.2082 27.9344 23.7025C28.1735 23.1968 28.293 22.5999 28.293 21.9046V18.379C28.0751 18.358 27.85 18.3439 27.611 18.3299C27.3719 18.3158 27.1328 18.3158 26.9008 18.3158C26.0781 18.3158 25.3047 18.6178 24.5664 19.2218C23.8351 19.8258 23.2304 20.6124 22.7663 21.5815C22.3022 22.5507 22.0702 23.5972 22.0702 24.7208C22.0702 25.5215 22.3233 26.3291 22.8296 27.1508C23.3359 27.9725 24.0953 28.7802 25.1148 29.5808L24.4679 30.2901C22.7593 29.0822 21.4022 27.8321 20.3827 26.5328C19.3701 25.2405 18.8568 24.0396 18.8568 22.944C18.8568 21.6307 19.1381 20.4368 19.7006 19.3693C20.2631 18.3018 20.9944 17.452 21.9015 16.8129C22.8085 16.1738 23.7578 15.8578 24.7492 15.8578C25.3961 15.8578 26.0148 15.8999 26.5985 15.9842C27.1821 16.0684 27.7446 16.2019 28.286 16.3704V13.9756C28.286 12.9853 28.5462 12.2268 29.0665 11.7071H24.5312C23.9687 11.7071 23.4202 11.9178 22.8788 12.3392C22.3374 12.7606 21.9155 13.189 21.6132 13.6174H20.903L17.6967 10.155L18.0201 9.37549H30.3954L32.533 11.7071C32.2095 11.9249 31.9353 12.2479 31.7103 12.6763C31.4853 13.1047 31.3728 13.6174 31.3728 14.2003V23.4848L31.3798 23.4988Z" fill="#B2462D"/>
<path d="M47.2568 23.4989C47.2568 24.1872 47.1373 24.7912 46.8982 25.3109C46.6591 25.8306 46.42 26.266 46.188 26.6242C45.9489 26.9824 45.8294 27.2844 45.8294 27.5442C45.8294 27.783 45.9771 28.0499 46.2654 28.3519C46.5536 28.6539 46.8912 28.9488 47.2708 29.2227C47.6505 29.5036 47.967 29.7284 48.2271 29.904L47.7068 30.6133C47.4466 30.4588 47.0458 30.206 46.5115 29.8337C45.97 29.4685 45.4146 29.0542 44.845 28.5907C44.2755 28.1271 43.7833 27.6706 43.3684 27.2141C42.9535 26.7576 42.7496 26.3854 42.7496 26.0834C42.7496 25.7604 42.8692 25.4092 43.1082 25.03C43.3473 24.6507 43.5864 24.2083 43.8184 23.7026C44.0575 23.197 44.177 22.6 44.177 21.9047V18.5407C43.5934 18.4775 43.0309 18.4424 42.4895 18.4424C42.0395 18.4424 41.5332 18.5688 40.9847 18.8286C40.4363 19.0885 39.9722 19.5309 39.6066 20.156C39.6488 20.6968 39.691 21.3007 39.7191 21.9679C39.7542 22.6351 39.7753 23.2812 39.8035 23.9063C39.8246 24.5313 39.8386 25.0581 39.8386 25.4935C39.8386 25.95 39.705 26.3433 39.4519 26.6874C39.1917 27.0315 38.8472 27.2071 38.4183 27.2071C38.0737 27.2071 37.6448 27.0947 37.1385 26.87C36.6323 26.6453 36.126 26.3503 35.6338 25.9992C35.1346 25.641 34.7197 25.2477 34.3893 24.8052C34.0518 24.3628 33.89 23.9344 33.89 23.527C33.89 22.6211 34.0588 21.7291 34.3893 20.8442C34.7268 19.9593 35.1908 19.1587 35.7955 18.4353C36.4003 17.712 37.1034 17.129 37.8979 16.6866C38.6995 16.2441 39.5503 16.0264 40.4574 16.0264C41.1465 16.0264 41.7934 16.0826 42.384 16.188C42.9746 16.2933 43.5793 16.4548 44.184 16.6725V13.9897C44.184 12.9995 44.4442 12.241 44.9645 11.7213H39.5222C38.9808 11.7634 38.4605 11.9882 37.9683 12.4025C37.469 12.8099 37.0823 13.2242 36.801 13.6316H36.0909L32.8845 10.1692L33.208 9.38965H46.2935L48.431 11.7213C48.1076 11.939 47.8334 12.2621 47.6084 12.6905C47.3833 13.1189 47.2708 13.6316 47.2708 14.2145V23.4989H47.2568Z" fill="#B2462D"/>
<path d="M47.9389 35.3467L47.0319 34.6373C46.4061 34.1387 45.7803 33.7875 45.1545 33.5698C44.5287 33.3521 43.8396 33.2468 43.0802 33.2468C42.6232 33.2468 42.1169 33.3029 41.5544 33.4083C40.9919 33.5136 40.3661 33.6752 39.677 33.8929L38.123 31.2101C39.3535 30.7817 40.4575 30.564 41.4278 30.564C42.3982 30.564 43.3404 30.8589 44.3107 31.4559C45.281 32.0458 46.4061 32.8745 47.6788 33.928L48.5858 34.6724L47.9389 35.3537V35.3467Z" fill="#B2462D"/>
<path d="M55.7789 13.9897C55.7789 12.9995 56.0391 12.241 56.5594 11.7213H55.5891C55.0266 11.7213 54.4781 11.932 53.9367 12.3534C53.3953 12.7748 52.9734 13.2032 52.671 13.6316H51.9609L48.7545 10.1692L49.078 9.38965H64.9198L67.0574 11.7213C66.7339 11.939 66.4597 12.2691 66.2276 12.7116C66.0026 13.154 65.8901 13.7229 65.8901 14.4111V22.8598C65.8901 23.5481 65.7706 24.1521 65.5315 24.6718C65.2924 25.1915 65.0534 25.6269 64.8214 25.9851C64.5893 26.3433 64.4627 26.6453 64.4627 26.9051C64.4627 27.2071 64.6315 27.5512 64.962 27.9375C65.2925 28.3238 65.6792 28.696 66.1151 29.0542C66.5441 29.4123 66.9027 29.6933 67.1839 29.911L66.6636 30.6203C66.3823 30.4447 65.9605 30.1568 65.3979 29.7495C64.8354 29.3421 64.2448 28.8716 63.633 28.3448C63.0143 27.8181 62.4939 27.2984 62.065 26.7928C61.6291 26.2871 61.4041 25.8587 61.383 25.5146C60.8416 25.7744 60.3212 26.0975 59.815 26.4837C59.3087 26.87 58.8306 27.3476 58.3735 27.9094C57.9165 27.9094 57.3469 27.776 56.6579 27.5021C55.9688 27.2352 55.2445 26.863 54.4851 26.3995C53.7257 25.9359 53.0226 25.4022 52.3616 24.7982C51.7007 24.1942 51.1663 23.5622 50.7444 22.902C50.3225 22.2418 50.1116 21.5817 50.1116 20.9145C50.1116 20.0296 50.3717 19.2992 50.8921 18.7163C51.4124 18.1333 52.221 17.726 53.325 17.4872L55.786 16.9394V13.9968L55.7789 13.9897ZM62.8033 13.9897C62.8033 12.9995 63.0635 12.241 63.5838 11.7213H60.0189C59.6954 11.939 59.4212 12.2621 59.1962 12.6905C58.9712 13.1189 58.8587 13.6316 58.8587 14.2145V19.2921L55.9125 20.1349C55.0266 20.3948 54.3797 20.7529 53.9718 21.2024C53.564 21.6589 53.3531 22.2278 53.3531 22.916C53.3531 23.5411 53.6132 24.0819 54.1336 24.5313C54.6539 24.9808 55.1883 25.2898 55.7508 25.4373C56.7211 24.4681 57.7969 23.6535 58.9712 22.9933C60.1454 22.3331 61.4181 21.8766 62.7752 21.6168C62.7963 21.5536 62.8033 21.4342 62.8033 21.2586V13.9757V13.9897Z" fill="#B2462D"/>
<path d="M61.833 5.37936C62.1986 5.1195 62.6557 4.8737 63.2112 4.63492C63.7596 4.39613 64.2659 4.20651 64.7159 4.052C65.5175 4.59278 66.2628 5.2389 66.9519 5.99036V6.27831C66.5441 6.43281 66.0519 6.62946 65.4753 6.87526C64.9057 7.12107 64.4346 7.36688 64.069 7.60566C63.7245 7.24046 63.3659 6.90336 62.9862 6.60137C62.6065 6.29937 62.2268 5.98334 61.833 5.66028V5.36531V5.37936Z" fill="#B2462D"/>
<path d="M82.7937 11.7213C82.4913 11.939 82.2242 12.262 81.9851 12.6904C81.746 13.1188 81.6265 13.6315 81.6265 14.2144V16.6725C81.6265 16.7568 81.6124 16.8481 81.5983 16.9324C82.0273 16.8692 82.4492 16.834 82.864 16.834C83.5953 16.834 84.2773 16.8902 84.9031 16.9956C85.5289 17.1009 86.1477 17.2765 86.7524 17.5153V13.6315C86.7524 13.5051 86.7594 13.3857 86.7805 13.2734L83.9328 10.1692L84.2562 9.38961H96.2448L98.3824 11.7213C98.0589 11.939 97.7847 12.262 97.5527 12.6904C97.3277 13.1188 97.2152 13.6315 97.2152 14.2144V23.4989C97.2152 24.1872 97.0956 24.7911 96.8566 25.3109C96.6175 25.8306 96.3784 26.266 96.1464 26.6242C95.9144 26.9823 95.7878 27.2843 95.7878 27.5442C95.7878 27.783 95.9355 28.0498 96.2237 28.3518C96.5191 28.6538 96.8495 28.9488 97.2292 29.2227C97.6089 29.5036 97.9253 29.7283 98.1855 29.9039L97.6652 30.6133C97.405 30.4587 97.0042 30.2059 96.4628 29.8337C95.9214 29.4615 95.3659 29.0541 94.7964 28.5906C94.2268 28.1271 93.7346 27.6706 93.3198 27.2141C92.9119 26.7576 92.701 26.3854 92.701 26.0834C92.701 25.7603 92.8205 25.4092 93.0596 25.0299C93.2987 24.6507 93.5377 24.2082 93.7698 23.7026C94.0088 23.1969 94.1284 22.6 94.1284 21.9047V13.9757C94.1284 12.9854 94.3885 12.2269 94.9089 11.7072H90.9853C90.6619 11.9249 90.3877 12.248 90.1627 12.6764C89.9376 13.1048 89.8251 13.6175 89.8251 14.2004V23.4849C89.8251 24.1731 89.7056 24.7771 89.4665 25.2968C89.2275 25.8165 88.9884 26.2519 88.7564 26.6101C88.5243 26.9683 88.3978 27.2703 88.3978 27.5301C88.3978 27.7689 88.5454 28.0358 88.8337 28.3378C89.129 28.6398 89.4595 28.9347 89.8392 29.2086C90.2189 29.4896 90.5353 29.7143 90.7955 29.8899L90.2751 30.5992C90.015 30.4447 89.6142 30.1919 89.0728 29.8197C88.5313 29.4474 87.9759 29.0401 87.4063 28.5766C86.8368 28.113 86.3446 27.6565 85.9297 27.2001C85.5219 26.7436 85.3109 26.3713 85.3109 26.0693C85.3109 25.7463 85.4305 25.3951 85.6696 25.0159C85.9086 24.6366 86.1477 24.1942 86.3797 23.6885C86.6188 23.1829 86.7383 22.5859 86.7383 21.8906V19.2991C86.2602 19.2359 85.775 19.2008 85.2828 19.2008C84.6359 19.2008 83.9258 19.264 83.1593 19.3974C82.3929 19.5239 81.5421 19.8048 80.6139 20.2402C81.3944 20.9074 82.0624 21.6729 82.625 22.5368C83.1875 23.4006 83.4687 24.2433 83.4687 25.058C83.4687 25.8165 83.2859 26.5188 82.9203 27.179C82.5546 27.8391 82.0202 28.3659 81.3311 28.7662C80.6421 29.1665 79.8053 29.3632 78.835 29.3632C77.8647 29.3632 76.9295 29.1103 75.9662 28.6047C75.0029 28.099 74.131 27.4248 73.3434 26.582C72.5559 25.7393 71.9231 24.8052 71.4449 23.7658L72.3169 23.2461C73.0692 24.433 73.7935 25.3038 74.4896 25.8657C75.1787 26.4275 75.924 26.7084 76.7256 26.7084C77.485 26.7084 78.1319 26.5118 78.6873 26.1115C79.2358 25.7112 79.6647 25.2055 79.9671 24.5875C80.2694 23.9694 80.4241 23.3304 80.4241 22.6632C80.4241 21.6097 80.0655 21.076 79.3553 21.076C78.7717 21.076 78.2092 21.2515 77.6678 21.5957C77.1264 21.9398 76.6974 22.3612 76.374 22.8598L73.2028 20.5633C73.463 19.9593 73.9341 19.4536 74.6091 19.0393C75.2911 18.6319 76.0154 18.4212 76.7959 18.4212C76.9014 18.4212 77.0068 18.4212 77.1053 18.4353C77.2037 18.4493 77.3021 18.4634 77.4147 18.4845C77.9139 18.0982 78.2233 17.5925 78.3569 16.9815C78.4834 16.3635 78.5537 15.8087 78.5537 15.3171V13.9546C78.5537 12.9643 78.8139 12.2059 79.3342 11.6861H77.6818C77.2318 11.6861 76.7888 11.8547 76.3529 12.1848C75.9169 12.5219 75.5865 12.873 75.3474 13.2382H74.6372L71.7543 10.1341L72.0778 9.35449H80.6632L82.8007 11.6861L82.7937 11.7213Z" fill="#EDE6D6"/>
<path d="M116.622 23.4989C116.622 24.1872 116.502 24.7912 116.263 25.3109C116.024 25.8306 115.785 26.266 115.553 26.6242C115.321 26.9824 115.195 27.2844 115.195 27.5442C115.195 27.783 115.342 28.0499 115.631 28.3519C115.919 28.6539 116.256 28.9488 116.636 29.2227C117.016 29.5036 117.332 29.7284 117.592 29.904L117.072 30.6133C116.812 30.4588 116.411 30.206 115.87 29.8337C115.328 29.4685 114.773 29.0542 114.203 28.5907C113.634 28.1271 113.141 27.6706 112.727 27.2141C112.319 26.7576 112.108 26.3854 112.108 26.0834C112.108 25.7604 112.227 25.4092 112.466 25.03C112.705 24.6507 112.937 24.2083 113.177 23.7026C113.416 23.197 113.535 22.6 113.535 21.9047V20.2192C113.451 20.1981 113.359 20.1841 113.275 20.1841H113.015C112.452 20.1841 111.827 20.3316 111.137 20.6195C110.448 20.9074 109.759 21.2867 109.077 21.7502C108.395 22.2137 107.776 22.6983 107.214 23.204C106.651 23.7096 106.201 24.1802 105.85 24.6086C105.505 25.037 105.329 25.3741 105.329 25.6129C105.329 25.9149 105.526 26.3011 105.913 26.7787C106.3 27.2563 106.799 27.769 107.404 28.3168C108.008 28.8646 108.634 29.4123 109.281 29.9531L108.634 30.7327C108.051 30.2973 107.376 29.7635 106.609 29.1174C105.843 28.4713 105.069 27.7549 104.296 26.9824C103.515 26.2028 102.791 25.4162 102.123 24.6226C101.455 23.822 100.914 23.0565 100.506 22.3261C100.098 21.5957 99.8871 20.9426 99.8871 20.3877C99.8871 19.6573 100.014 19.0674 100.274 18.625C100.534 18.1825 100.843 17.8594 101.216 17.6558C101.582 17.4521 101.926 17.3468 102.25 17.3468C102.573 17.3468 102.939 17.4872 103.333 17.7681C103.733 18.0491 104.099 18.33 104.436 18.6109C104.774 18.8918 104.992 19.0323 105.104 19.0323C105.344 19.0323 105.526 18.8356 105.653 18.4353C105.779 18.035 105.85 17.5013 105.85 16.8341V13.9897C105.85 12.9995 106.11 12.241 106.63 11.7213H105.526C104.964 11.7213 104.415 11.932 103.874 12.3534C103.333 12.7748 102.911 13.2032 102.608 13.6316H101.898L98.6918 10.1692L99.0152 9.38965H115.638L117.775 11.7213C117.452 11.939 117.177 12.248 116.945 12.6413C116.72 13.0416 116.608 13.5192 116.608 14.081V23.4989H116.622ZM113.542 13.9897C113.542 12.9995 113.802 12.241 114.323 11.7213H110.111C109.787 11.939 109.513 12.2621 109.281 12.6905C109.056 13.1189 108.944 13.6316 108.944 14.2145V18.4213C109.872 18.0139 110.737 17.8033 111.538 17.8033C111.862 17.8033 112.192 17.8243 112.523 17.8665C112.86 17.9086 113.198 17.9718 113.542 18.0631V13.9827V13.9897Z" fill="#EDE6D6"/>
<path d="M117.297 35.3467L116.39 34.6373C115.764 34.1387 115.138 33.7875 114.513 33.5698C113.887 33.3521 113.198 33.2468 112.438 33.2468C111.988 33.2468 111.475 33.3029 110.912 33.4083C110.35 33.5136 109.724 33.6752 109.035 33.8929L107.481 31.2101C108.712 30.7817 109.816 30.564 110.786 30.564C111.756 30.564 112.698 30.8589 113.669 31.4559C114.639 32.0458 115.764 32.8745 117.037 33.928L117.944 34.6724L117.297 35.3537V35.3467Z" fill="#EDE6D6"/>
<path d="M131.782 23.4988C131.782 24.1871 131.662 24.7911 131.423 25.3108C131.184 25.8305 130.945 26.2659 130.713 26.6241C130.474 26.9823 130.354 27.2842 130.354 27.5441C130.354 27.7829 130.502 28.0498 130.79 28.3518C131.079 28.6537 131.416 28.9487 131.796 29.2226C132.176 29.5035 132.492 29.7283 132.752 29.9038L132.232 30.6132C131.972 30.4587 131.571 30.2058 131.036 29.8336C130.495 29.4684 129.94 29.0541 129.37 28.5905C128.8 28.127 128.308 27.6705 127.893 27.214C127.479 26.7575 127.275 26.3853 127.275 26.0833C127.275 25.7603 127.394 25.4091 127.633 25.0299C127.872 24.6506 128.111 24.2082 128.343 23.7025C128.582 23.1968 128.702 22.5999 128.702 21.9046V18.379C128.484 18.358 128.259 18.3439 128.02 18.3299C127.781 18.3158 127.542 18.3158 127.31 18.3158C126.487 18.3158 125.714 18.6178 124.975 19.2218C124.244 19.8258 123.639 20.6124 123.175 21.5815C122.711 22.5507 122.479 23.5972 122.479 24.7208C122.479 25.5215 122.732 26.3291 123.239 27.1508C123.745 27.9725 124.504 28.7802 125.524 29.5808L124.877 30.2901C123.168 29.0822 121.811 27.8321 120.799 26.5328C119.779 25.2405 119.273 24.0396 119.273 22.944C119.273 21.6307 119.554 20.4368 120.117 19.3693C120.679 18.3018 121.41 17.452 122.317 16.8129C123.225 16.1738 124.174 15.8578 125.165 15.8578C125.812 15.8578 126.431 15.8999 127.014 15.9842C127.598 16.0684 128.161 16.2019 128.702 16.3704V13.9756C128.702 12.9853 128.962 12.2268 129.482 11.7071H124.947C124.385 11.7071 123.836 11.9178 123.295 12.3392C122.753 12.7606 122.332 13.189 122.029 13.6174H121.319L118.113 10.155L118.436 9.37549H130.811L132.949 11.7071C132.626 11.9249 132.351 12.2479 132.126 12.6763C131.901 13.1047 131.789 13.6174 131.789 14.2003V23.4848L131.782 23.4988Z" fill="#EDE6D6"/>
<path d="M136.964 11.2998C136.577 10.9346 136.176 10.4149 135.762 9.74774C135.354 9.08055 135.143 8.43443 135.143 7.80938C135.143 7.00875 135.487 6.27133 136.176 5.5901C136.865 4.90886 137.78 4.36808 138.912 3.95372C140.044 3.54639 141.26 3.33569 142.554 3.33569C143.524 3.33569 144.593 3.62364 145.76 4.19251C146.927 4.76137 148.095 5.54796 149.276 6.53821C150.45 7.52846 151.54 8.65214 152.531 9.90225L151.885 10.4219C150.633 9.01734 149.41 7.93579 148.221 7.17028C147.033 6.40477 145.802 6.0185 144.53 6.0185C143.257 6.0185 142.216 6.19407 141.288 6.55225C140.36 6.91042 139.636 7.36692 139.116 7.92877C138.595 8.49061 138.335 9.05948 138.335 9.64239C138.335 10.1832 138.504 10.7029 138.834 11.2085C139.172 11.7142 139.53 12.1285 139.917 12.4516C139.594 12.6693 139.319 12.9924 139.094 13.4208C138.869 13.8492 138.757 14.3619 138.757 14.9448V23.4848C138.757 24.1731 138.637 24.7771 138.398 25.2968C138.159 25.8165 137.92 26.2519 137.688 26.6101C137.449 26.9682 137.33 27.2702 137.33 27.5301C137.33 27.7689 137.477 28.0357 137.765 28.3377C138.054 28.6397 138.391 28.9347 138.771 29.2086C139.151 29.4895 139.467 29.7143 139.727 29.8898L139.207 30.5992C138.947 30.4446 138.546 30.1918 138.012 29.8196C137.47 29.4544 136.915 29.04 136.345 28.5765C135.776 28.113 135.283 27.6565 134.869 27.2C134.461 26.7435 134.25 26.3713 134.25 26.0693C134.25 25.7462 134.369 25.3951 134.608 25.0158C134.847 24.6366 135.079 24.1941 135.319 23.6885C135.558 23.1828 135.677 22.5859 135.677 21.8906V14.4462C135.677 13.7158 135.783 13.1048 135.987 12.6202C136.19 12.1356 136.514 11.6861 136.943 11.2788L136.964 11.2998Z" fill="#EDE6D6"/>
<path d="M153.945 23.4988C153.945 24.1871 153.825 24.7911 153.586 25.3108C153.347 25.8305 153.108 26.2659 152.876 26.6241C152.644 26.9823 152.518 27.2842 152.518 27.5441C152.518 27.7829 152.665 28.0498 152.953 28.3518C153.249 28.6537 153.579 28.9487 153.959 29.2226C154.339 29.5035 154.655 29.7283 154.915 29.9038L154.395 30.6132C154.135 30.4587 153.734 30.2058 153.193 29.8336C152.651 29.4614 152.096 29.0541 151.526 28.5905C150.957 28.127 150.464 27.6705 150.049 27.214C149.642 26.7575 149.431 26.3853 149.431 26.0833C149.431 25.7603 149.55 25.4091 149.789 25.0299C150.028 24.6506 150.267 24.2082 150.499 23.7025C150.739 23.1968 150.858 22.5999 150.858 21.9046V18.379C150.64 18.358 150.415 18.3439 150.176 18.3299C149.937 18.3158 149.698 18.3158 149.466 18.3158C148.643 18.3158 147.87 18.6178 147.131 19.2218C146.4 19.8258 145.795 20.6124 145.331 21.5815C144.867 22.5507 144.635 23.5972 144.635 24.7208C144.635 25.5215 144.888 26.3291 145.395 27.1508C145.901 27.9725 146.66 28.7802 147.68 29.5808L147.033 30.2901C145.324 29.0822 143.967 27.8321 142.948 26.5328C141.935 25.2405 141.422 24.0396 141.422 22.944C141.422 21.6307 141.703 20.4368 142.266 19.3693C142.828 18.3018 143.559 17.452 144.467 16.8129C145.374 16.1738 146.323 15.8578 147.314 15.8578C147.961 15.8578 148.58 15.8999 149.164 15.9842C149.747 16.0684 150.31 16.2019 150.851 16.3704V13.9756C150.851 12.9853 151.111 12.2268 151.632 11.7071H147.096C146.534 11.7071 145.985 11.9178 145.444 12.3392C144.902 12.7606 144.481 13.189 144.178 13.6174H143.468L140.262 10.155L140.585 9.37549H152.96L155.098 11.7071C154.775 11.9249 154.5 12.2479 154.275 12.6763C154.05 13.1047 153.938 13.6174 153.938 14.2003V23.4848L153.945 23.4988Z" fill="#EDE6D6"/>
<path d="M154.62 35.3467L153.713 34.6373C153.087 34.1387 152.461 33.7875 151.835 33.5698C151.21 33.3521 150.521 33.2468 149.761 33.2468C149.311 33.2468 148.798 33.3029 148.235 33.4083C147.673 33.5136 147.047 33.6752 146.358 33.8929L144.804 31.2101C146.034 30.7817 147.138 30.564 148.109 30.564C149.079 30.564 150.021 30.8589 150.992 31.4559C151.962 32.0458 153.087 32.8745 154.36 33.928L155.267 34.6724L154.62 35.3537V35.3467Z" fill="#EDE6D6"/>
<path d="M166.187 13.9897C166.187 12.9995 166.447 12.241 166.967 11.7213H162.136C161.595 11.7424 161.068 11.9601 160.547 12.3674C160.027 12.7748 159.626 13.1961 159.345 13.6316H158.635L155.428 10.1692L155.752 9.38965H168.289L170.427 11.7213C170.103 11.939 169.829 12.2621 169.604 12.6905C169.379 13.1189 169.266 13.6316 169.266 14.2145V23.4989C169.266 24.1872 169.147 24.7912 168.908 25.3109C168.669 25.8306 168.43 26.266 168.198 26.6242C167.958 26.9824 167.839 27.2844 167.839 27.5442C167.839 27.783 167.987 28.0499 168.275 28.3519C168.563 28.6539 168.901 28.9488 169.28 29.2227C169.66 29.5036 169.977 29.7284 170.237 29.904L169.716 30.6133C169.456 30.4377 169.041 30.1568 168.472 29.7705C167.902 29.3843 167.312 28.9418 166.707 28.4572C166.102 27.9726 165.617 27.5161 165.251 27.0807C164.949 27.186 164.633 27.2773 164.309 27.3546C163.986 27.4319 163.669 27.467 163.367 27.467C163.065 27.467 162.636 27.3827 162.087 27.2071C161.539 27.0315 160.948 26.7787 160.322 26.4486C159.697 26.1115 159.099 25.7112 158.522 25.2336C157.953 24.7561 157.489 24.2223 157.13 23.6324C156.771 23.0424 156.596 22.3963 156.596 21.7081C156.596 20.3737 156.849 19.25 157.355 18.344C157.861 17.4381 158.529 16.7498 159.366 16.2722C160.196 15.7947 161.096 15.5629 162.073 15.5629C162.917 15.5629 163.69 15.6261 164.408 15.7596C165.118 15.886 165.715 16.0405 166.194 16.216V13.9827L166.187 13.9897ZM160.843 25.0862C161.384 25.0862 161.996 24.9597 162.671 24.6999C163.353 24.44 164.007 24.0819 164.647 23.6183C165.287 23.1548 165.8 22.6281 166.187 22.0522V18.1053C165.863 18.0631 165.568 18.028 165.294 18.0069C165.026 17.9859 164.766 17.9718 164.534 17.9718C163.712 17.9718 162.931 18.1965 162.186 18.653C161.44 19.1095 160.843 19.7627 160.386 20.6265C159.936 21.4904 159.704 22.5438 159.704 23.8009C159.704 24.1451 159.795 24.4471 159.978 24.7069C160.161 24.9668 160.449 25.0932 160.836 25.0932L160.843 25.0862Z" fill="#EDE6D6"/>
<path d="M188.673 23.4989C188.673 24.1872 188.554 24.7912 188.315 25.3109C188.075 25.8306 187.836 26.266 187.604 26.6242C187.372 26.9824 187.246 27.2844 187.246 27.5442C187.246 27.783 187.393 28.0499 187.682 28.3519C187.977 28.6539 188.308 28.9488 188.687 29.2227C189.067 29.5036 189.383 29.7284 189.643 29.904L189.123 30.6133C188.863 30.4588 188.462 30.206 187.921 29.8337C187.379 29.4615 186.824 29.0542 186.254 28.5907C185.685 28.1271 185.193 27.6706 184.778 27.2141C184.37 26.7576 184.159 26.3854 184.159 26.0834C184.159 25.7604 184.278 25.4092 184.518 25.03C184.757 24.6507 184.996 24.2083 185.228 23.7026C185.467 23.197 185.586 22.6 185.586 21.9047V20.2192C185.502 20.1981 185.411 20.1841 185.326 20.1841H185.066C184.503 20.1841 183.878 20.3316 183.189 20.6195C182.5 20.9074 181.81 21.2867 181.128 21.7502C180.446 22.2137 179.828 22.6983 179.265 23.204C178.703 23.7096 178.253 24.1802 177.908 24.6086C177.563 25.037 177.388 25.3741 177.388 25.6129C177.388 25.9149 177.585 26.3011 177.971 26.7787C178.358 27.2563 178.857 27.769 179.462 28.3168C180.067 28.8646 180.692 29.4123 181.339 29.9531L180.692 30.7327C180.109 30.2973 179.434 29.7635 178.667 29.1174C177.901 28.4713 177.128 27.7549 176.354 26.9824C175.574 26.2028 174.856 25.4162 174.181 24.6226C173.513 23.822 172.972 23.0565 172.564 22.3261C172.156 21.5957 171.945 20.9426 171.945 20.3877C171.945 19.6573 172.072 19.0674 172.332 18.625C172.592 18.1825 172.902 17.8594 173.274 17.6558C173.64 17.4521 173.984 17.3468 174.308 17.3468C174.631 17.3468 174.99 17.4872 175.391 17.7681C175.792 18.0491 176.157 18.33 176.495 18.6109C176.832 18.8918 177.05 19.0323 177.163 19.0323C177.402 19.0323 177.585 18.8356 177.711 18.4353C177.838 18.035 177.908 17.5013 177.908 16.8341V13.9897C177.908 12.9995 178.168 12.241 178.688 11.7213H177.585C177.022 11.7213 176.474 11.932 175.932 12.3534C175.391 12.7748 174.969 13.2032 174.667 13.6316H173.956L170.75 10.1692L171.073 9.38965H187.696L189.833 11.7213C189.51 11.939 189.236 12.248 189.011 12.6413C188.786 13.0416 188.673 13.5192 188.673 14.081V23.4989ZM185.593 13.9897C185.593 12.9995 185.854 12.241 186.374 11.7213H182.162C181.839 11.939 181.564 12.2621 181.332 12.6905C181.107 13.1189 180.995 13.6316 180.995 14.2145V18.4213C181.923 18.0139 182.788 17.8033 183.589 17.8033C183.913 17.8033 184.243 17.8243 184.581 17.8665C184.918 17.9086 185.256 17.9718 185.6 18.0631V13.9827L185.593 13.9897Z" fill="#EDE6D6"/>
<path d="M189.348 35.3467L188.441 34.6373C187.815 34.1387 187.189 33.7875 186.564 33.5698C185.938 33.3521 185.249 33.2468 184.489 33.2468C184.032 33.2468 183.526 33.3029 182.964 33.4083C182.401 33.5136 181.775 33.6752 181.086 33.8929L179.532 31.2101C180.763 30.7817 181.867 30.564 182.837 30.564C183.807 30.564 184.75 30.8589 185.72 31.4559C186.69 32.0458 187.815 32.8745 189.088 33.928L189.995 34.6724L189.348 35.3537V35.3467Z" fill="#EDE6D6"/>
<path d="M197.188 13.9897C197.188 12.9995 197.448 12.241 197.969 11.7213H196.998C196.436 11.7213 195.887 11.932 195.346 12.3534C194.805 12.7748 194.383 13.2032 194.08 13.6316H193.37L190.164 10.1692L190.487 9.38965H206.329L208.467 11.7213C208.143 11.939 207.869 12.2691 207.637 12.7116C207.412 13.154 207.299 13.7229 207.299 14.4111V22.8598C207.299 23.5481 207.18 24.1521 206.941 24.6718C206.702 25.1915 206.463 25.6269 206.231 25.9851C205.999 26.3433 205.872 26.6453 205.872 26.9051C205.872 27.2071 206.041 27.5512 206.371 27.9375C206.702 28.3238 207.088 28.696 207.524 29.0542C207.953 29.4123 208.312 29.6933 208.593 29.911L208.073 30.6203C207.792 30.4447 207.37 30.1568 206.807 29.7495C206.245 29.3421 205.654 28.8716 205.042 28.3448C204.424 27.8181 203.903 27.2984 203.474 26.7928C203.038 26.2871 202.813 25.8587 202.792 25.5146C202.251 25.7744 201.731 26.0975 201.224 26.4837C200.718 26.87 200.24 27.3476 199.783 27.9094C199.326 27.9094 198.756 27.776 198.067 27.5021C197.378 27.2352 196.654 26.863 195.894 26.3995C195.135 25.9359 194.432 25.4022 193.771 24.7982C193.11 24.1942 192.576 23.5622 192.154 22.902C191.732 22.2418 191.521 21.5817 191.521 20.9145C191.521 20.0296 191.781 19.2992 192.301 18.7163C192.822 18.1333 193.63 17.726 194.734 17.4872L197.195 16.9394V13.9968L197.188 13.9897ZM204.22 13.9897C204.22 12.9995 204.48 12.241 205 11.7213H201.435C201.112 11.939 200.838 12.2621 200.613 12.6905C200.388 13.1189 200.275 13.6316 200.275 14.2145V19.2921L197.329 20.1349C196.443 20.3948 195.796 20.7529 195.388 21.2024C194.98 21.6589 194.769 22.2278 194.769 22.916C194.769 23.5411 195.03 24.0819 195.55 24.5313C196.07 24.9808 196.605 25.2898 197.167 25.4373C198.137 24.4681 199.213 23.6535 200.388 22.9933C201.562 22.3331 202.834 21.8766 204.192 21.6168C204.213 21.5536 204.22 21.4342 204.22 21.2586V13.9757V13.9897Z" fill="#EDE6D6"/>
<path d="M225.834 23.4989C225.834 24.1872 225.715 24.7912 225.476 25.3109C225.237 25.8306 224.998 26.266 224.766 26.6242C224.526 26.9824 224.407 27.2844 224.407 27.5442C224.407 27.783 224.555 28.0499 224.843 28.3519C225.131 28.6539 225.469 28.9488 225.848 29.2227C226.228 29.5036 226.545 29.7284 226.805 29.904L226.284 30.6133C226.045 30.4869 225.701 30.2621 225.251 29.9531C224.801 29.6441 224.309 29.2859 223.795 28.8856C223.275 28.4853 222.804 28.085 222.368 27.6706C221.932 27.2633 221.637 26.8911 221.461 26.568C221.264 26.6102 221.081 26.6523 220.912 26.6804C220.744 26.7085 220.568 26.7295 220.392 26.7295C219.893 26.7295 219.33 26.5821 218.69 26.2731C218.051 25.9711 217.432 25.5778 216.827 25.0932C216.222 24.6086 215.723 24.0819 215.322 23.527C214.922 22.9652 214.725 22.4244 214.725 21.9117C214.725 21.5044 214.851 20.9355 215.111 20.2122C215.372 19.4888 215.498 18.6671 215.498 17.74V13.9897C215.498 13.6456 215.533 13.3085 215.597 12.9854L213.002 10.1692L213.325 9.38965H224.857L226.995 11.7213C226.671 11.939 226.397 12.2621 226.172 12.6905C225.947 13.1189 225.834 13.6316 225.834 14.2145V23.4989ZM222.755 13.9897C222.755 12.9995 223.015 12.241 223.535 11.7213H219.745C219.422 11.939 219.147 12.2621 218.922 12.6905C218.697 13.1189 218.585 13.6316 218.585 14.2145V19.4256C218.585 20.0717 218.508 20.6616 218.36 21.1884C218.205 21.7151 218.058 22.1786 217.903 22.5789C217.755 22.9792 217.678 23.3163 217.678 23.5973C217.678 24.0959 217.882 24.3417 218.297 24.3417C218.683 24.3417 219.147 24.2434 219.689 24.0467C220.23 23.8501 220.779 23.5762 221.341 23.225C221.904 22.8739 222.375 22.4666 222.769 22.0101V13.9827L222.755 13.9897Z" fill="#EDE6D6"/>
<path d="M226.509 35.3467L225.602 34.6373C224.976 34.1387 224.351 33.7875 223.725 33.5698C223.099 33.3521 222.41 33.2468 221.651 33.2468C221.193 33.2468 220.687 33.3029 220.125 33.4083C219.562 33.5136 218.936 33.6752 218.247 33.8929L216.693 31.2101C217.924 30.7817 219.028 30.564 219.998 30.564C220.968 30.564 221.911 30.8589 222.881 31.4559C223.851 32.0458 224.976 32.8745 226.249 33.928L227.156 34.6724L226.509 35.3537V35.3467Z" fill="#EDE6D6"/>
<path d="M238.723 11.7212C238.399 11.9389 238.125 12.2619 237.9 12.6903C237.675 13.1188 237.563 13.6314 237.563 14.2143V18.2596C237.563 19.7064 237.338 20.8792 236.881 21.7711C236.424 22.6631 235.791 23.3654 234.968 23.857C234.427 24.159 233.949 24.3346 233.527 24.3767C233.105 24.4188 232.894 24.5031 232.894 24.6365C232.894 24.8543 233.063 25.1703 233.393 25.5917C233.731 26.0131 234.152 26.4836 234.673 27.0174C235.193 27.5441 235.735 28.0708 236.311 28.5835C236.888 29.0962 237.415 29.5667 237.914 29.9741L237.267 30.7536C236.684 30.3182 236.009 29.7844 235.242 29.1383C234.476 28.4922 233.702 27.7759 232.929 27.0033C232.149 26.2238 231.431 25.4372 230.756 24.6436C230.088 23.8429 229.547 23.0774 229.139 22.347C228.731 21.6166 228.52 20.9635 228.52 20.4087C228.52 19.6783 228.647 19.0743 228.907 18.6108C229.167 18.1473 229.477 17.7961 229.849 17.5573C230.215 17.3185 230.559 17.1991 230.883 17.1991C231.206 17.1991 231.565 17.3396 231.966 17.6205C232.366 17.9014 232.732 18.1824 233.07 18.4633C233.407 18.7442 233.625 18.8847 233.731 18.8847C233.97 18.8847 234.152 18.688 234.279 18.2877C234.406 17.8874 234.476 17.3536 234.476 16.6865V14.0037C234.476 13.0134 234.736 12.2549 235.256 11.7352H233.963C233.421 11.7774 232.908 12.0021 232.409 12.4164C231.909 12.8238 231.523 13.2381 231.241 13.6455H230.531L227.325 10.1831L227.648 9.40356H236.592L238.73 11.7352L238.723 11.7212Z" fill="#EDE6D6"/>
<path d="M252.983 13.9897C252.983 12.9994 253.243 12.2409 253.763 11.7212H253.503C253.025 11.7423 252.652 11.8546 252.371 12.0583C252.09 12.262 251.851 12.5078 251.661 12.7887H250.951L248.588 10.1691L248.911 9.38955H255.099L257.237 11.7212C256.913 11.9389 256.639 12.2479 256.414 12.6623C256.189 13.0696 256.077 13.5542 256.077 14.1161V22.8527C256.077 23.541 255.957 24.145 255.718 24.6647C255.479 25.1844 255.24 25.6198 255.008 25.978C254.769 26.3362 254.649 26.6382 254.649 26.898C254.649 27.2 254.818 27.5441 255.148 27.9304C255.486 28.3167 255.866 28.6889 256.295 29.0471C256.73 29.4052 257.082 29.6862 257.363 29.9039L256.843 30.6132C256.583 30.4376 256.182 30.1567 255.627 29.7704C255.078 29.3842 254.502 28.9347 253.911 28.429C253.32 27.9234 252.8 27.4177 252.357 26.9261C251.914 26.4275 251.647 25.9991 251.562 25.6339C250.198 26.2168 249.024 27.0033 248.033 27.9936C247.554 27.9936 246.978 27.8672 246.296 27.6073C245.614 27.3475 244.904 26.9963 244.158 26.5539C243.413 26.1114 242.717 25.6128 242.07 25.0509C241.423 24.4891 240.896 23.8851 240.481 23.239C240.073 22.5929 239.862 21.9468 239.862 21.3006C239.862 20.3947 240.2 19.6924 240.882 19.2007C241.564 18.7021 242.492 18.2807 243.687 17.9366L246.282 17.1922V12.8238C246.282 12.585 246.218 12.3814 246.106 12.2058C245.986 12.0302 245.839 11.9459 245.67 11.9459C245.41 11.9459 245.079 12.0372 244.679 12.2198C244.278 12.4024 243.919 12.6763 243.61 13.0275C243.293 13.3857 243.139 13.8422 243.139 14.404C243.139 14.6849 243.195 14.9799 243.314 15.2959C243.434 15.612 243.645 15.9491 243.947 16.3143L243.237 16.8621C242.506 16.2581 241.817 15.5979 241.177 14.8746C240.537 14.1512 240.221 13.3786 240.221 12.564C240.221 11.5527 240.558 10.738 241.24 10.134C241.922 9.53001 242.766 9.22803 243.786 9.22803C244.285 9.22803 244.847 9.39658 245.487 9.72666C246.127 10.0638 246.739 10.5062 247.336 11.054C247.934 11.6018 248.419 12.1917 248.792 12.8168C249.172 13.4418 249.362 14.0458 249.362 14.6287V19.5449L246.282 20.5773C245.311 20.9003 244.538 21.2655 243.968 21.6588C243.399 22.0591 243.111 22.5999 243.111 23.2952C243.111 23.8781 243.343 24.3627 243.807 24.749C244.271 25.1352 244.805 25.3951 245.41 25.5285C246.401 24.6647 247.561 23.8921 248.89 23.2179C250.219 22.5367 251.576 22.0662 252.955 21.8133C252.955 21.708 252.955 21.6097 252.969 21.5254C252.983 21.4411 252.983 21.3498 252.983 21.2655V13.9826V13.9897Z" fill="#EDE6D6"/>
<path d="M259.009 23.3725C259.009 22.614 259.234 21.8556 259.691 21.09C260.148 20.3245 260.773 19.6503 261.568 19.0674V13.9897C261.568 12.9995 261.828 12.241 262.349 11.7213C261.807 11.7213 261.406 11.8266 261.132 12.0444C260.865 12.2621 260.64 12.5079 260.464 12.7888H259.754L257.391 10.1692L257.715 9.38965H271.806L273.943 11.7213C273.62 11.939 273.346 12.2621 273.121 12.6905C272.896 13.1189 272.783 13.6316 272.783 14.2145V23.4989C272.783 24.1872 272.664 24.7912 272.425 25.3109C272.186 25.8306 271.946 26.266 271.714 26.6242C271.475 26.9824 271.356 27.2844 271.356 27.5442C271.356 27.783 271.503 28.0499 271.792 28.3519C272.087 28.6539 272.418 28.9488 272.797 29.2227C273.177 29.5036 273.493 29.7284 273.754 29.904L273.233 30.6133C272.973 30.4588 272.572 30.206 272.031 29.8337C271.489 29.4615 270.934 29.0542 270.364 28.5907C269.795 28.1271 269.303 27.6706 268.888 27.2141C268.48 26.7576 268.269 26.3854 268.269 26.0834C268.269 25.7604 268.389 25.4092 268.628 25.03C268.867 24.6507 269.106 24.2083 269.338 23.7026C269.577 23.197 269.696 22.6 269.696 21.9047V19.8961C269.57 19.8961 269.436 19.8961 269.31 19.8821C269.176 19.868 269.064 19.868 268.951 19.868C268.262 19.868 267.545 19.9383 266.799 20.0787C266.054 20.2192 265.337 20.5071 264.648 20.9355V26.3082C264.648 26.7366 264.521 27.1299 264.261 27.488C264.001 27.8462 263.656 28.0218 263.227 28.0218C262.904 28.0218 262.51 27.8813 262.046 27.6004C261.582 27.3195 261.118 26.9543 260.654 26.4978C260.19 26.0413 259.803 25.5427 259.487 24.9949C259.17 24.4471 259.016 23.8993 259.016 23.3585L259.009 23.3725ZM269.696 13.9897C269.696 12.9995 269.957 12.241 270.477 11.7213H265.815C265.492 11.939 265.217 12.2621 264.985 12.6905C264.76 13.1189 264.648 13.6316 264.648 14.2145V17.712C264.95 17.6487 265.26 17.5926 265.569 17.5504C265.885 17.5083 266.202 17.4872 266.525 17.4872C267.109 17.4872 267.657 17.5223 268.178 17.5996C268.698 17.6768 269.204 17.7892 269.703 17.9367V13.9897H269.696Z" fill="#EDE6D6"/>
<path d="M279.836 23.4988C279.836 24.1871 279.716 24.7911 279.477 25.3108C279.238 25.8305 278.999 26.2659 278.767 26.6241C278.535 26.9823 278.408 27.2842 278.408 27.5441C278.408 27.7829 278.556 28.0498 278.844 28.3518C279.133 28.6537 279.47 28.9487 279.85 29.2226C280.229 29.5035 280.546 29.7283 280.806 29.9038L280.286 30.6132C280.026 30.4587 279.625 30.2058 279.083 29.8336C278.542 29.4684 277.986 29.0541 277.417 28.5905C276.847 28.127 276.355 27.6705 275.94 27.214C275.525 26.7575 275.321 26.3853 275.321 26.0833C275.321 25.7603 275.441 25.4091 275.68 25.0299C275.919 24.6506 276.151 24.2082 276.39 23.7025C276.629 23.1968 276.749 22.5999 276.749 21.9046V13.9756C276.749 12.9853 277.009 12.2268 277.529 11.7071H271.117L270.406 9.37549H278.865L281.003 11.7071C280.679 11.9249 280.405 12.2479 280.173 12.6763C279.948 13.1047 279.836 13.6174 279.836 14.2003V23.4848V23.4988Z" fill="#EDE6D6"/>
<path d="M301.936 11.7212C301.612 11.9389 301.338 12.2619 301.106 12.6903C300.881 13.1187 300.768 13.6314 300.768 14.2143V23.4988C300.768 24.1871 300.649 24.791 300.41 25.3108C300.171 25.8305 299.932 26.2659 299.7 26.6241C299.468 26.9822 299.341 27.2842 299.341 27.5441C299.341 27.7829 299.489 28.0497 299.777 28.3517C300.072 28.6537 300.403 28.9487 300.782 29.2226C301.162 29.5035 301.479 29.7282 301.739 29.9038L301.218 30.6132C300.958 30.4586 300.557 30.2058 300.016 29.8336C299.475 29.4614 298.919 29.054 298.35 28.5905C297.78 28.127 297.288 27.6705 296.873 27.214C296.465 26.7575 296.254 26.3853 296.254 26.0833C296.254 25.7602 296.374 25.4091 296.613 25.0298C296.852 24.6506 297.091 24.2081 297.323 23.7025C297.562 23.1968 297.682 22.5999 297.682 21.9046V20.219C297.555 20.198 297.421 20.1839 297.295 20.1839H296.936C296.247 20.1839 295.53 20.2542 294.785 20.3946C294.039 20.5351 293.322 20.823 292.633 21.2514V26.301C292.633 26.7294 292.506 27.1227 292.246 27.4809C291.986 27.8391 291.642 28.0146 291.213 28.0146C290.889 28.0146 290.495 27.8742 290.031 27.5932C289.567 27.3123 289.103 26.9471 288.639 26.4906C288.175 26.0341 287.788 25.5355 287.472 24.9877C287.155 24.4399 287.001 23.8921 287.001 23.3513C287.001 22.642 287.226 21.9256 287.683 21.2023C288.133 20.4789 288.766 19.8468 289.56 19.3061V15.5557C289.124 15.2538 288.66 14.8745 288.154 14.425C287.648 13.9685 287.219 13.512 286.874 13.0485C286.53 12.585 286.354 12.1987 286.354 11.8967C286.354 11.377 286.551 10.8643 286.938 10.3587C287.324 9.85303 287.767 9.42462 288.266 9.08049C288.766 8.73637 289.159 8.56079 289.462 8.56079C289.659 8.56079 289.926 8.68018 290.27 8.91897C290.615 9.15775 290.974 9.44569 291.339 9.78982C291.705 10.134 292.014 10.4711 292.26 10.7941C292.506 11.1172 292.633 11.356 292.633 11.5034V18.0068C292.935 17.9436 293.245 17.8874 293.554 17.8453C293.863 17.8031 294.187 17.782 294.51 17.782C295.094 17.782 295.642 17.8172 296.163 17.8944C296.683 17.9717 297.189 18.084 297.689 18.2315V13.9615C297.689 12.9713 297.949 12.2128 298.469 11.6931H297.464C297.119 11.7141 296.824 11.7984 296.571 11.9389C296.324 12.0793 296.135 12.2338 296.001 12.4094H295.382L293.21 10.0146L293.47 9.36844H299.784L301.921 11.7001L301.936 11.7212Z" fill="#EDE6D6"/>
<path d="M307.828 23.4988C307.828 24.1871 307.708 24.7911 307.469 25.3108C307.23 25.8305 306.991 26.2659 306.759 26.6241C306.52 26.9823 306.401 27.2842 306.401 27.5441C306.401 27.7829 306.548 28.0498 306.836 28.3518C307.125 28.6537 307.462 28.9487 307.842 29.2226C308.222 29.5035 308.538 29.7283 308.798 29.9038L308.278 30.6132C308.018 30.4587 307.617 30.2058 307.083 29.8336C306.541 29.4684 305.986 29.0541 305.416 28.5905C304.847 28.127 304.354 27.6705 303.94 27.214C303.532 26.7575 303.321 26.3853 303.321 26.0833C303.321 25.7603 303.44 25.4091 303.679 25.0299C303.918 24.6506 304.15 24.2082 304.39 23.7025C304.629 23.1968 304.748 22.5999 304.748 21.9046V13.9756C304.748 12.9853 305.008 12.2268 305.529 11.7071H299.116L298.406 9.37549H306.865L309.002 11.7071C308.679 11.9249 308.404 12.2479 308.179 12.6763C307.954 13.1047 307.842 13.6174 307.842 14.2003V23.4848L307.828 23.4988Z" fill="#EDE6D6"/>
<path d="M320.077 13.9897C320.077 12.9995 320.337 12.241 320.857 11.7213H316.027C315.485 11.7424 314.958 11.9601 314.437 12.3674C313.917 12.7748 313.516 13.1961 313.235 13.6316H312.525L309.319 10.1692L309.642 9.38965H322.179L324.317 11.7213C323.993 11.939 323.719 12.2621 323.487 12.6905C323.262 13.1189 323.149 13.6316 323.149 14.2145V23.4989C323.149 24.1872 323.03 24.7912 322.791 25.3109C322.552 25.8306 322.313 26.266 322.081 26.6242C321.849 26.9824 321.722 27.2844 321.722 27.5442C321.722 27.783 321.87 28.0499 322.158 28.3519C322.446 28.6539 322.784 28.9488 323.164 29.2227C323.543 29.5036 323.86 29.7284 324.12 29.904L323.599 30.6133C323.339 30.4377 322.924 30.1568 322.355 29.7705C321.785 29.3843 321.195 28.9418 320.59 28.4572C319.985 27.9726 319.5 27.5161 319.135 27.0807C318.832 27.186 318.516 27.2773 318.192 27.3546C317.869 27.4319 317.552 27.467 317.25 27.467C316.948 27.467 316.519 27.3827 315.97 27.2071C315.422 27.0315 314.831 26.7787 314.205 26.4486C313.58 26.1115 312.982 25.7112 312.405 25.2336C311.836 24.7561 311.372 24.2223 311.013 23.6324C310.655 23.0424 310.479 22.3963 310.479 21.7081C310.479 20.3737 310.732 19.25 311.238 18.344C311.744 17.4381 312.412 16.7498 313.249 16.2722C314.079 15.7947 314.979 15.5629 315.956 15.5629C316.8 15.5629 317.574 15.6261 318.291 15.7596C319.001 15.886 319.599 16.0405 320.07 16.216V13.9827L320.077 13.9897ZM314.733 25.0862C315.274 25.0862 315.879 24.9597 316.561 24.6999C317.243 24.44 317.897 24.0819 318.537 23.6183C319.177 23.1548 319.683 22.6281 320.077 22.0522V18.1053C319.753 18.0631 319.458 18.028 319.184 18.0069C318.916 17.9859 318.656 17.9718 318.424 17.9718C317.602 17.9718 316.821 18.1965 316.076 18.653C315.33 19.1095 314.733 19.7627 314.276 20.6265C313.819 21.4904 313.594 22.5438 313.594 23.8009C313.594 24.1451 313.685 24.4471 313.868 24.7069C314.051 24.9668 314.339 25.0932 314.726 25.0932L314.733 25.0862Z" fill="#EDE6D6"/>
<path d="M328.852 19.299L326.419 16.7426V16.3845C326.785 15.9561 327.192 15.5417 327.635 15.1554C328.078 14.7692 328.556 14.425 329.077 14.123L331.51 16.6162L331.475 17.0376C330.996 17.3817 330.546 17.754 330.11 18.1543C329.682 18.5546 329.26 18.9338 328.845 19.3061L328.852 19.299ZM328.852 29.3912L326.419 26.8348V26.4766C326.785 26.0482 327.192 25.6338 327.635 25.2476C328.078 24.8613 328.556 24.5172 329.077 24.2152L331.51 26.7083L331.475 27.1297C330.996 27.4739 330.546 27.8461 330.11 28.2464C329.682 28.6467 329.26 29.0259 328.845 29.3982L328.852 29.3912Z" fill="#EDE6D6"/>
<path d="M349.911 17.4803C348.589 17.2204 347.373 17.094 346.248 17.094C345.123 17.094 344.18 17.2485 343.351 17.5645C342.521 17.8806 341.874 18.2949 341.41 18.8287C340.946 19.3554 340.714 19.9453 340.714 20.5915C340.714 21.0901 340.876 21.3359 341.199 21.3359C341.417 21.3359 341.79 21.1674 342.317 20.8373C342.844 20.5002 343.491 20.1771 344.258 19.847C345.024 19.5169 345.854 19.3624 346.74 19.3624C347.127 19.3624 347.591 19.5099 348.118 19.7979C348.645 20.0928 349.159 20.4791 349.658 20.9637C350.157 21.4483 350.565 21.982 350.888 22.5649C351.212 23.1479 351.374 23.7308 351.374 24.3137C351.374 24.9809 351.12 25.7394 350.614 26.5821C350.108 27.4249 349.433 28.1904 348.589 28.8787L352.344 30.9785L351.859 31.723L348.913 30.1709C347.724 29.5458 346.782 29.0823 346.093 28.7803C345.404 28.4783 344.883 28.2817 344.539 28.1974C344.194 28.1131 343.934 28.071 343.758 28.071C343.604 28.071 343.414 28.1974 343.175 28.4432C342.936 28.689 342.69 28.9348 342.43 29.1736C342.169 29.4124 341.923 29.5318 341.684 29.5318C341.466 29.5318 341.136 29.4475 340.679 29.286C340.229 29.1245 339.758 28.9138 339.272 28.6539C338.787 28.3941 338.372 28.1272 338.042 27.8463C337.704 27.5653 337.543 27.3195 337.543 27.1018C337.543 26.9262 337.648 26.6875 337.852 26.3714C338.056 26.0624 338.309 25.7745 338.611 25.5146C338.914 25.2548 339.195 25.1284 339.455 25.1284C340.819 25.1284 342.802 25.7955 345.418 27.1369C346.367 26.3855 347.119 25.5708 347.668 24.707C348.216 23.8431 348.498 23.183 348.498 22.7335C348.498 22.3683 348.371 22.1857 348.111 22.1857C347.675 22.1857 347.197 22.291 346.669 22.4947C346.142 22.6984 345.622 22.9301 345.116 23.19C344.609 23.4498 344.152 23.6816 343.758 23.8853C343.358 24.0889 343.062 24.1943 342.865 24.1943C342.605 24.1943 342.197 24.0608 341.649 23.7869C341.101 23.5201 340.517 23.1479 339.919 22.6703C339.315 22.1927 338.801 21.6519 338.379 21.0339C337.958 20.4159 337.747 19.7698 337.747 19.0745C337.747 18.0842 338.021 17.2555 338.569 16.6024C339.118 15.9422 339.863 15.4506 340.805 15.1135C341.747 14.7764 342.795 14.6149 343.962 14.6149C344.525 14.6149 345.109 14.65 345.713 14.7272C346.318 14.8045 346.923 14.8958 347.527 15.0011V13.9968C347.527 13.0066 347.787 12.2481 348.308 11.7284H342.085C341.628 11.7284 341.185 11.8969 340.756 12.227C340.327 12.5641 339.99 12.9153 339.751 13.2805H339.04L336.157 10.1763L336.481 9.39673H349.637L351.774 11.7284C351.451 11.9461 351.177 12.2692 350.952 12.6976C350.727 13.126 350.614 13.6386 350.614 14.2216V16.8763L349.932 17.4943L349.911 17.4803Z" fill="#B2462D"/>
<path d="M361.541 15.8017L363.257 18.0983L363.13 18.5197H362.42C361.773 18.5197 361.119 18.7093 360.458 19.0885C359.797 19.4678 359.249 20.0085 358.806 20.7249C358.363 21.4342 358.145 22.3121 358.145 23.3445C358.145 23.7308 358.264 24.0749 358.503 24.3628C358.742 24.6508 359.108 24.7983 359.607 24.7983C360.107 24.7983 360.697 24.6719 361.323 24.412C361.949 24.1521 362.561 23.794 363.151 23.3445C363.742 22.895 364.227 22.3753 364.593 21.7924V13.9968C364.593 13.0066 364.853 12.2481 365.373 11.7284H359.087C358.524 11.7284 357.976 11.9391 357.435 12.3605C356.893 12.7818 356.471 13.2102 356.169 13.6386H355.459L352.252 10.1763L352.576 9.39673H366.702L368.84 11.7284C368.516 11.9461 368.242 12.2692 368.01 12.6976C367.785 13.126 367.672 13.6386 367.672 14.2216V23.506C367.672 24.1943 367.553 24.7983 367.314 25.318C367.075 25.8377 366.836 26.2731 366.604 26.6313C366.372 26.9895 366.245 27.2914 366.245 27.5513C366.245 27.7901 366.393 28.057 366.681 28.359C366.969 28.6609 367.307 28.9559 367.686 29.2298C368.066 29.5107 368.383 29.7355 368.643 29.911L368.122 30.6204C367.841 30.4448 367.412 30.1639 366.829 29.7636C366.245 29.3632 365.654 28.9138 365.05 28.4222C364.445 27.9235 363.96 27.453 363.594 26.9965C363.207 27.1229 362.828 27.1931 362.462 27.1931C362.118 27.1931 361.646 27.1018 361.056 26.9192C360.458 26.7366 359.818 26.4768 359.129 26.1397C358.44 25.8026 357.786 25.3952 357.167 24.9106C356.549 24.426 356.042 23.8782 355.642 23.2602C355.241 22.6422 355.044 21.982 355.044 21.2727C355.044 20.7109 355.135 20.1982 355.318 19.7347C355.501 19.2711 355.754 18.8638 356.078 18.5197H354.067L352.351 16.2231L352.477 15.8017H361.548H361.541Z" fill="#B2462D"/>
<path d="M368.348 35.3467L367.44 34.6373C366.815 34.1387 366.189 33.7875 365.563 33.5698C364.937 33.3521 364.248 33.2468 363.489 33.2468C363.039 33.2468 362.525 33.3029 361.963 33.4083C361.4 33.5136 360.775 33.6752 360.086 33.8929L358.532 31.2101C359.762 30.7817 360.866 30.564 361.836 30.564C362.807 30.564 363.749 30.8589 364.719 31.4559C365.69 32.0458 366.815 32.8745 368.087 33.928L368.994 34.6724L368.348 35.3537V35.3467Z" fill="#B2462D"/>
<path d="M387.818 11.7212C387.515 11.9389 387.248 12.262 387.009 12.6904C386.77 13.1188 386.65 13.6315 386.65 14.2144V16.7075C387.171 17.3115 387.593 17.9506 387.916 18.6178C388.239 19.285 388.401 19.9241 388.401 20.5281C388.401 21.7571 388.141 22.9159 387.621 24.0045C387.1 25.0931 386.404 26.0622 385.532 26.898C384.66 27.7407 383.683 28.4009 382.614 28.8855C381.545 29.3701 380.47 29.6159 379.394 29.6159C378.874 29.6159 378.248 29.4965 377.516 29.2577C376.785 29.0189 376.019 28.6889 375.231 28.2534C374.444 27.825 373.705 27.3123 373.03 26.7294C372.348 26.1465 371.793 25.5074 371.364 24.8192C370.935 24.1309 370.717 23.4075 370.717 22.649C370.717 21.9608 370.991 21.3357 371.54 20.7739C372.088 20.212 372.876 19.7064 373.888 19.2499C373.108 18.688 372.454 18.07 371.912 17.3888C371.371 16.7075 371.104 15.9842 371.104 15.2046C371.104 14.8394 371.146 14.4672 371.23 14.088C371.315 13.7087 371.427 13.3295 371.554 12.9362L368.994 10.155L369.318 9.37549H385.68L387.818 11.7071V11.7212ZM379.914 20.6194C378.016 21.1602 376.504 21.7993 375.379 22.5437C374.254 23.2881 373.691 24.1379 373.691 25.086C373.691 25.6268 373.973 26.1184 374.535 26.5609C375.098 27.0033 375.759 27.221 376.511 27.221C377.481 27.221 378.48 26.9963 379.506 26.5398C380.533 26.0833 381.482 25.4583 382.354 24.6436C383.226 23.8289 383.936 22.8948 384.478 21.8273C385.019 20.7598 385.286 19.6081 385.286 18.379C385.286 18.0138 385.216 17.6767 385.075 17.3747C384.935 17.0727 384.682 16.9182 384.316 16.9182C383.451 16.9182 382.502 17.6276 381.468 19.0532L379.134 16.5601C379.499 15.8507 379.999 15.2748 380.624 14.8464C381.25 14.418 381.834 14.2003 382.375 14.2003C382.572 14.2003 382.762 14.2214 382.959 14.2635C383.156 14.3057 383.36 14.3618 383.578 14.4251V13.9686C383.578 12.9783 383.838 12.2198 384.358 11.7001H376.131C375.351 12.6904 374.838 13.7157 374.591 14.7762C374.345 15.8367 374.219 16.834 374.219 17.7891C374.219 18.2456 374.38 18.6178 374.704 18.9198C375.133 18.7442 375.604 18.5967 376.11 18.4633C376.616 18.3369 377.144 18.2035 377.678 18.077L379.914 20.5983V20.6194Z" fill="#B2462D"/>
<path d="M394.652 23.4988C394.652 24.1871 394.533 24.7911 394.293 25.3108C394.054 25.8305 393.815 26.2659 393.583 26.6241C393.344 26.9823 393.225 27.2842 393.225 27.5441C393.225 27.7829 393.372 28.0498 393.661 28.3518C393.949 28.6537 394.286 28.9487 394.666 29.2226C395.046 29.5035 395.362 29.7283 395.622 29.9038L395.102 30.6132C394.842 30.4587 394.441 30.2058 393.907 29.8336C393.365 29.4684 392.81 29.0541 392.24 28.5905C391.671 28.127 391.179 27.6705 390.764 27.214C390.356 26.7575 390.145 26.3853 390.145 26.0833C390.145 25.7603 390.264 25.4091 390.504 25.0299C390.743 24.6506 390.975 24.2082 391.214 23.7025C391.453 23.1968 391.572 22.5999 391.572 21.9046V13.9756C391.572 12.9853 391.832 12.2268 392.353 11.7071H385.94L385.23 9.37549H393.689L395.826 11.7071C395.503 11.9249 395.229 12.2479 395.004 12.6763C394.779 13.1047 394.666 13.6174 394.666 14.2003V23.4848L394.652 23.4988Z" fill="#B2462D"/>
<path d="M398.154 33.8228L397.247 32.692C397.746 31.7018 398.119 30.5992 398.365 29.3912C398.611 28.1833 398.737 26.7786 398.737 25.1844L399.223 24.9246L402.07 26.6101C402.07 27.9234 401.768 29.1946 401.163 30.4096C400.559 31.6245 399.715 32.7693 398.639 33.8228H398.154Z" fill="#B2462D"/>
</svg>
